<svg width="750" height="608" viewBox="0 0 750 608" fill="none" xmlns="http://www.w3.org/2000/svg">
<path d="M673.606 160.479L673.867 160.214L672.412 162.717C671.628 164.993 673.308 166.434 672.561 165.107C672.412 164.841 672.3 164.576 672.188 164.31C671.628 163.096 671.33 161.959 671.255 160.631C671.143 158.659 671.815 156.573 672.86 154.942C675.472 150.921 679.839 149.48 684.392 150.163C688.05 150.694 691.931 152.704 694.655 155.245C697.529 157.938 698.835 161.921 698.985 165.789C699.134 169.317 698.164 172.996 697.044 176.296C695.924 179.595 694.432 182.63 692.267 185.361C690.252 187.864 687.154 190.291 683.944 190.746C678.458 191.505 676.48 186.195 675.174 181.833C673.793 177.244 673.942 172.541 676.293 168.293C678.346 164.538 681.481 161.2 684.094 157.862L692.006 165.903C691.632 166.282 691.259 166.662 690.886 167.079C689.804 168.255 691.334 166.282 690.438 167.61C689.841 168.52 689.281 169.431 688.796 170.379C688.535 170.872 688.311 171.365 688.124 171.858C688.497 170.948 687.975 172.351 687.9 172.541C687.564 173.489 687.266 174.475 687.005 175.461C685.661 180.392 685.325 187.105 679.279 188.509C675.696 189.343 672.076 187.598 670.621 184.147C669.538 181.492 670.061 178.875 670.658 176.182C671.031 174.627 670.994 174.589 670.994 173.299C670.994 174.323 670.919 173.11 670.807 172.73C670.994 173.223 671.031 173.261 670.807 172.92C670.583 172.579 670.621 172.617 670.882 173.072L671.33 173.451C673.121 174.361 674.726 173.868 676.181 172.01L676.405 171.403C676.181 171.972 675.957 172.541 675.659 173.11C674.763 174.703 673.308 175.878 671.516 176.296C668.717 177.016 665.284 175.385 664.612 172.313C663.231 165.751 665.022 158.773 669.837 154.031C672.711 151.225 677.002 148.835 680.884 151.149C684.765 153.463 684.616 158.81 684.691 162.907C684.803 169.886 684.504 179.368 677.488 183.009C673.644 184.981 669.053 184.336 666.03 181.188C663.007 178.04 662.373 173.565 663.567 169.582C664.761 165.6 669.911 163.893 672.934 167.079C676.517 170.872 676.779 175.84 677.413 180.771C677.562 181.871 677.712 183.009 677.824 184.109C677.898 184.792 677.562 183.768 677.936 184.564C677.114 182.743 677.114 183.085 677.936 183.881C678.943 184.905 679.764 186.119 680.212 187.523C680.884 189.533 680.361 191.315 679.578 193.212L673.27 184.867C674.95 184.564 676.667 184.223 678.346 183.919L679.839 195.108C679.167 195.108 679.167 195.032 679.839 194.957C680.399 194.691 680.399 194.729 679.839 195.07C677.45 196.815 673.494 195.563 672.188 193.022C670.658 190.064 671.666 187.105 674.203 185.247C675.734 184.109 677.898 183.502 679.802 183.73C682.601 184.109 684.915 185.626 685.288 188.66C685.624 191.24 684.019 194.388 681.294 194.919C679.615 195.222 677.898 195.563 676.219 195.867C673.942 196.284 671.815 195.753 670.322 193.819C668.829 191.884 668.978 189.684 669.874 187.485L670.061 187.067L669.314 189.95L670.322 192.302L669.986 191.96C669.762 191.771 669.501 191.543 669.314 191.315C668.344 190.329 667.672 189.191 667.224 187.864C666.59 185.967 666.59 183.768 666.329 181.795C666.217 180.885 666.105 180.013 665.993 179.102C665.918 178.647 665.881 178.192 665.806 177.775C665.881 178.344 665.881 178.23 665.806 177.737C665.657 176.94 665.433 176.22 665.246 175.423C665.06 174.627 665.619 176.03 665.209 175.385C664.724 174.627 666.105 176.258 665.022 175.12L674.39 172.617C674.315 172.92 674.241 174.247 674.203 173.375C674.241 174.627 674.091 173.489 674.054 173.185C674.353 173.641 674.39 173.716 674.129 173.375C674.017 173.148 673.793 172.958 673.532 172.882C674.241 173.451 673.27 172.958 672.86 172.806L672.3 172.92C672.897 172.73 672.897 172.768 672.3 172.958L672.711 172.692C672.3 173.034 672.225 173.072 672.487 172.768C672.748 172.465 672.711 172.541 672.375 172.958C672.636 172.389 672.748 172.275 672.599 172.579C672.487 172.844 672.897 171.592 672.972 171.327C673.084 170.834 673.158 170.379 673.233 169.886C673.084 170.91 673.308 169.089 673.308 168.9C673.42 167.572 673.494 166.245 673.532 164.917C673.569 163.589 673.532 162.262 673.494 160.934C673.494 160.366 673.42 159.835 673.382 159.266C673.382 158.924 673.345 158.583 673.308 158.279C673.382 158.962 673.681 159.607 674.166 160.138L676.629 161.617C677.488 161.807 678.271 161.693 678.943 161.276C678.682 161.428 678.421 161.579 678.159 161.769C679.13 161.124 677.637 162.3 677.45 162.49C677.226 162.717 677.002 162.983 676.816 163.248C677.189 162.755 677.189 162.755 676.816 163.286C676.555 163.779 676.256 164.31 675.957 164.803C675.771 165.183 675.808 165.107 676.032 164.576C675.92 164.879 675.808 165.183 675.696 165.524C675.51 166.169 675.36 166.813 675.248 167.458C675.435 166.093 675.286 168.141 675.286 168.406C675.286 168.748 675.286 169.051 675.36 169.393C675.286 168.71 675.286 168.672 675.398 169.355L668.493 165.372L668.829 165.296L666.366 166.776C666.105 167.041 665.955 167.382 665.843 167.724C665.545 168.482 665.694 168.141 666.291 166.662C666.627 165.941 666.926 165.448 667.523 164.803C668.643 163.59 670.135 162.869 671.74 162.641C675.099 162.186 678.047 163.817 679.988 166.548C681.481 168.634 682.153 171.251 682.153 173.83C682.153 175.423 681.854 177.016 681.556 178.571C681.444 179.102 681.294 179.633 681.182 180.164C681.108 180.392 681.071 180.657 680.996 180.923C681.071 180.24 681.071 180.088 681.071 180.506C681.071 180.961 681.033 180.809 680.959 180.051L677.264 177.396C677.264 177.396 674.017 178.23 674.539 179.14C674.353 178.837 675.099 176.637 675.211 176.22C675.659 174.134 676.181 172.086 676.853 170.075C678.383 165.524 680.585 161.238 684.019 157.862C686.109 155.776 689.878 155.587 691.931 157.862C694.17 160.366 693.872 163.4 691.931 165.903L688.012 170.986C687.676 171.403 687.378 171.82 687.042 172.237C687.415 171.744 687.079 172.199 686.93 172.427C686.407 173.185 685.885 173.944 685.512 174.816C685.773 174.247 685.586 174.665 685.512 175.006C685.101 176.675 685.437 174.627 685.4 175.575C685.4 176.068 685.4 176.561 685.437 177.054C685.362 176.409 685.437 177.054 685.512 177.32C685.773 178.306 686.034 179.292 686.37 180.278C686.519 180.657 686.669 181.037 686.818 181.454C687.079 182.099 687.117 182.212 686.967 181.795C686.706 181.15 686.258 180.619 685.624 180.24L682.787 179.482C682.265 179.482 681.145 180.051 681.929 179.52C682.153 179.368 683.31 178.571 682.339 179.368C682.974 178.875 683.459 178.268 683.982 177.699C683.198 178.533 684.094 177.509 684.243 177.32C684.504 176.902 684.765 176.485 684.989 176.068C685.176 175.689 685.362 175.347 685.549 174.968C685.736 174.551 685.96 173.982 685.661 174.741C686.37 172.92 686.93 171.099 687.341 169.203C687.49 168.596 687.602 167.989 687.676 167.382C687.564 168.293 687.676 166.472 687.676 166.472C687.676 166.32 687.602 164.841 687.676 165.6C687.751 166.282 687.415 164.727 687.415 164.576C687.378 164.045 687.788 165.069 687.303 164.272C687.266 164.196 686.445 162.755 687.005 163.741L686.631 163.362C687.005 163.627 687.042 163.665 686.706 163.438C686.258 163.134 685.81 162.869 685.362 162.603C684.131 161.921 684.317 161.959 683.086 161.579C682.862 161.503 681.332 161.314 682.227 161.39H681.63C682.004 161.39 682.041 161.39 681.742 161.428C681.369 161.541 681.444 161.503 682.078 161.314L681.705 161.541C682.19 161.162 682.302 161.124 682.004 161.39C681.742 161.693 681.78 161.617 682.227 161.124C681.668 161.883 682.377 160.783 682.377 160.29C682.377 160.024 681.817 158.735 682.078 159.266C683.72 162.262 684.243 166.093 681.444 168.596C679.242 170.568 675.659 170.948 673.532 168.596C671.591 166.434 671.18 162.679 673.532 160.555L673.606 160.479Z" fill="#FFD400"/>
<path d="M676.232 194.024L679.136 192.762C681.149 191.87 682.892 194.024 681.498 195.696C679.059 198.592 677.007 201.749 675.264 205.092C674.877 205.835 673.87 206.132 673.096 205.946C671.392 205.538 669.573 205.278 667.908 204.758C666.746 204.386 665.894 203.495 666.011 202.269C666.088 201.489 666.63 200.821 666.785 200.041C667.095 198.592 666.979 196.921 667.017 195.436C667.056 193.579 667.095 191.722 667.017 189.865C667.017 188.342 669.224 187.302 670.308 188.565C671.547 190.013 672.206 191.647 672.244 193.504C672.244 194.99 671.896 196.587 672.322 197.85C672.438 198.147 672.244 197.701 672.36 197.998C672.399 198.073 672.67 198.37 672.631 198.444C672.631 198.37 671.199 198.184 671.238 198.518C671.238 198.444 671.392 198.258 671.431 198.184C671.315 198.444 671.509 197.961 671.509 197.924C671.663 197.515 671.818 197.107 671.934 196.661C672.167 195.956 672.36 195.213 672.438 194.47C672.438 194.136 672.438 193.764 672.438 193.43C672.438 193.282 672.322 193.096 672.322 192.947C672.399 192.984 672.36 192.947 672.322 192.873C671.973 192.353 672.477 192.464 673.793 193.133L674.49 192.464C673.638 193.541 673.212 195.138 672.941 196.438C672.631 197.813 672.477 199.335 672.67 200.747L672.399 199.818L672.477 200.004L671.78 199.335L671.934 199.41L670.967 199.15C670.967 199.15 670.502 199.372 670.967 199.075C671.199 198.964 671.431 198.815 671.663 198.704C671.857 198.592 672.089 198.333 672.322 198.295C672.167 198.964 672.554 199.521 673.406 199.967C672.36 200.078 671.47 199.038 671.47 198.11C671.47 197.033 672.36 196.364 673.406 196.253C674.451 196.141 675.497 196.884 675.884 197.813C676.348 198.89 675.961 200.041 675.148 200.858C673.987 201.972 671.586 203.495 669.921 202.566C668.256 201.638 668.682 198.815 668.914 197.218C669.147 195.436 669.65 193.727 670.386 192.093C670.734 191.313 671.083 190.422 671.857 189.939C672.864 189.308 674.141 189.456 675.032 190.236C676.465 191.499 676.503 193.764 676.232 195.473C676.116 196.29 675.922 197.107 675.651 197.887C675.38 198.667 675.109 199.558 674.645 200.301C673.561 202.009 671.315 202.529 669.805 200.932C668.489 199.521 668.179 197.627 668.256 195.807C668.334 194.247 668.721 192.464 667.559 191.165L670.85 189.865C670.889 192.204 670.85 194.507 670.773 196.847C670.773 197.924 670.734 199.001 670.579 200.041C670.502 200.561 670.424 201.081 670.27 201.601C670.115 202.046 669.728 202.752 669.689 203.012V202.009V202.158C669.573 201.898 669.418 201.601 669.224 201.341C668.953 201.044 668.643 201.118 669.147 201.229C669.379 201.304 669.611 201.341 669.844 201.378L671.238 201.712L674.025 202.344L671.857 203.198C673.716 199.558 676.039 196.216 678.671 193.059L681.033 195.993L678.129 197.255C677.161 197.664 676.039 197.515 675.497 196.587C674.993 195.807 675.226 194.47 676.193 194.061L676.232 194.024Z" fill="#FFD400"/>
<path d="M685.422 149.02C697.048 151.194 702.385 163.745 698.992 174.389C697.086 180.417 692.817 184.728 688.357 189.001C682.868 194.303 678.522 200.14 675.892 207.35C675.472 208.495 673.643 207.999 674.062 206.855C675.93 201.781 678.56 197.05 682.029 192.892C685.955 188.161 691.178 184.537 694.532 179.349C701.203 169.163 698.268 153.331 684.926 150.851C683.706 150.622 684.24 148.791 685.422 149.02Z" fill="#121212"/>
<path d="M686.826 151.956C674.979 147.385 664.306 157.763 663.852 169.191C663.587 175.186 665.933 180.843 667.031 186.651C668.129 192.458 668.015 198.49 666.804 204.335C666.577 205.497 664.76 205.01 664.987 203.848C666.615 195.905 665.669 188.487 663.663 180.731C662.186 174.961 661.165 169.191 662.943 163.346C666.009 153.192 676.834 146.111 687.356 150.158C688.491 150.607 687.999 152.406 686.864 151.956H686.826Z" fill="#121212"/>
<path d="M670.986 205.042L675.007 206.181C676.182 206.523 677.623 206.827 677.927 208.231C678.154 209.294 677.851 210.661 677.017 211.42C675.879 212.445 674.438 211.876 673.148 211.496C671.669 211.078 670.19 210.661 668.673 210.243C667.497 209.902 667.99 208.079 669.166 208.421C670.569 208.839 671.973 209.218 673.414 209.636C673.755 209.712 674.058 209.826 674.4 209.902C674.703 209.978 675.007 210.129 675.348 210.129C675.462 210.129 675.538 210.129 675.651 210.091C675.538 210.091 675.765 209.978 675.651 210.091C675.765 209.978 675.879 209.826 675.917 209.712C675.955 209.598 675.993 209.522 675.993 209.408C676.031 209.256 676.031 209.256 676.031 209.104C676.031 208.915 676.068 208.725 675.993 208.573C675.955 208.497 676.031 208.573 675.879 208.497C675.879 208.497 675.613 208.383 675.689 208.383C675.386 208.269 675.082 208.193 674.779 208.117L670.418 206.865C669.242 206.523 669.735 204.701 670.911 205.042H670.986Z" fill="#121212"/>
<path d="M670.686 206.35L666.05 205.171C665.68 205.097 665.352 204.987 664.983 204.913C664.819 204.913 664.614 204.913 664.573 204.913C664.655 204.876 664.368 205.097 664.45 205.023C664.368 205.134 664.286 205.245 664.204 205.392C664.162 205.503 664.162 205.503 664.204 205.429C664.204 205.503 664.162 205.539 664.121 205.613C664.08 205.724 664.039 205.871 664.039 205.982C664.039 205.834 664.039 206.166 664.039 206.203C664.039 205.982 664.162 206.461 664.039 206.276C664.039 206.313 664.121 206.387 664.162 206.424C664.121 206.35 664.162 206.35 664.204 206.424C664.039 206.35 664.491 206.571 664.368 206.498C664.983 206.756 665.721 206.866 666.378 207.014C667.937 207.419 669.455 207.787 671.014 208.193C671.547 208.34 671.875 208.856 671.711 209.335C671.547 209.814 670.973 210.109 670.44 209.962C669.045 209.593 667.65 209.262 666.255 208.893C665.557 208.709 664.86 208.561 664.162 208.34C663.465 208.119 662.85 207.861 662.439 207.345C661.701 206.424 661.988 205.097 662.603 204.176C662.973 203.623 663.547 203.144 664.286 203.033C665.024 202.923 665.763 203.107 666.501 203.291L671.26 204.508C671.793 204.655 672.122 205.171 671.958 205.65C671.793 206.129 671.219 206.424 670.686 206.276V206.35Z" fill="#121212"/>
<path d="M669.986 208.042L674.007 209.181C675.182 209.523 676.623 209.827 676.927 211.231C677.154 212.294 676.851 213.661 676.017 214.42C674.879 215.445 673.438 214.876 672.148 214.496C670.669 214.078 669.19 213.661 667.673 213.243C666.497 212.902 666.99 211.079 668.166 211.421C669.569 211.839 670.973 212.218 672.414 212.636C672.755 212.712 673.058 212.826 673.4 212.902C673.703 212.978 674.007 213.129 674.348 213.129C674.462 213.129 674.538 213.129 674.651 213.091C674.538 213.091 674.765 212.978 674.651 213.091C674.765 212.978 674.879 212.826 674.917 212.712C674.955 212.598 674.993 212.522 674.993 212.408C675.031 212.256 675.031 212.256 675.031 212.104C675.031 211.915 675.068 211.725 674.993 211.573C674.955 211.497 675.031 211.573 674.879 211.497C674.879 211.497 674.613 211.383 674.689 211.383C674.386 211.269 674.082 211.193 673.779 211.117L669.418 209.865C668.242 209.523 668.735 207.701 669.911 208.042H669.986Z" fill="#121212"/>
<path d="M669.686 210.35L665.05 209.171C664.68 209.097 664.352 208.987 663.983 208.913C663.819 208.913 663.614 208.913 663.573 208.913C663.655 208.876 663.368 209.097 663.45 209.023C663.368 209.134 663.286 209.245 663.204 209.392C663.162 209.503 663.162 209.503 663.204 209.429C663.204 209.503 663.162 209.539 663.121 209.613C663.08 209.724 663.039 209.871 663.039 209.982C663.039 209.834 663.039 210.166 663.039 210.203C663.039 209.982 663.162 210.461 663.039 210.276C663.039 210.313 663.121 210.387 663.162 210.424C663.121 210.35 663.162 210.35 663.204 210.424C663.039 210.35 663.491 210.571 663.368 210.498C663.983 210.756 664.721 210.866 665.378 211.014C666.937 211.419 668.455 211.787 670.014 212.193C670.547 212.34 670.875 212.856 670.711 213.335C670.547 213.814 669.973 214.109 669.44 213.962C668.045 213.593 666.65 213.262 665.255 212.893C664.557 212.709 663.86 212.561 663.162 212.34C662.465 212.119 661.85 211.861 661.439 211.345C660.701 210.424 660.988 209.097 661.603 208.176C661.973 207.623 662.547 207.144 663.286 207.033C664.024 206.923 664.763 207.107 665.501 207.291L670.26 208.508C670.793 208.655 671.122 209.171 670.958 209.65C670.793 210.129 670.219 210.424 669.686 210.276V210.35Z" fill="#121212"/>
<path d="M668.986 212.042L673.007 213.181C674.182 213.523 675.623 213.827 675.927 215.231C676.154 216.294 675.851 217.661 675.017 218.42C673.879 219.445 672.438 218.876 671.148 218.496C669.669 218.078 668.19 217.661 666.673 217.243C665.497 216.902 665.99 215.079 667.166 215.421C668.569 215.839 669.973 216.218 671.414 216.636C671.755 216.712 672.058 216.826 672.4 216.902C672.703 216.978 673.007 217.129 673.348 217.129C673.462 217.129 673.538 217.129 673.651 217.091C673.538 217.091 673.765 216.978 673.651 217.091C673.765 216.978 673.879 216.826 673.917 216.712C673.955 216.598 673.993 216.522 673.993 216.408C674.031 216.256 674.031 216.256 674.031 216.104C674.031 215.915 674.068 215.725 673.993 215.573C673.955 215.497 674.031 215.573 673.879 215.497C673.879 215.497 673.613 215.383 673.689 215.383C673.386 215.269 673.082 215.193 672.779 215.117L668.418 213.865C667.242 213.523 667.735 211.701 668.911 212.042H668.986Z" fill="#121212"/>
<path d="M667.817 214.35L663.645 213.171C663.312 213.097 663.017 212.987 662.685 212.913C662.537 212.913 662.352 212.913 662.315 212.913C662.389 212.876 662.131 213.097 662.205 213.023C662.131 213.134 662.057 213.245 661.983 213.392C661.946 213.503 661.946 213.503 661.983 213.429C661.983 213.503 661.946 213.539 661.909 213.613C661.872 213.724 661.835 213.871 661.835 213.982C661.835 213.834 661.835 214.166 661.835 214.203C661.835 213.982 661.946 214.461 661.835 214.276C661.835 214.313 661.909 214.387 661.946 214.424C661.909 214.35 661.946 214.35 661.983 214.424C661.835 214.35 662.242 214.571 662.131 214.498C662.685 214.756 663.349 214.866 663.94 215.014C665.343 215.419 666.709 215.787 668.113 216.193C668.593 216.34 668.888 216.856 668.74 217.335C668.593 217.814 668.076 218.109 667.596 217.962C666.34 217.593 665.085 217.262 663.829 216.893C663.202 216.709 662.574 216.561 661.946 216.34C661.319 216.119 660.765 215.861 660.395 215.345C659.731 214.424 659.989 213.097 660.543 212.176C660.875 211.623 661.392 211.144 662.057 211.033C662.722 210.923 663.386 211.107 664.051 211.291L668.334 212.508C668.814 212.655 669.109 213.171 668.962 213.65C668.814 214.129 668.297 214.424 667.817 214.276V214.35Z" fill="#121212"/>
<path d="M670.885 204.809C672.323 200.192 673.496 195.388 675.389 190.921C676.183 189.045 677.205 187.318 678.605 185.892C679.324 185.141 680.157 184.503 680.838 183.715C681.179 183.34 681.482 182.927 681.709 182.476C681.936 182.063 682.049 181.576 681.974 181.088C681.86 180.675 681.671 180.637 681.444 180.937L679.627 180.45C679.854 179.399 679.779 178.198 678.87 177.447C677.962 176.696 675.956 176.884 676.297 178.498L674.442 178.761C674.329 177.672 673.723 174.895 672.096 176.208C670.998 177.072 670.544 179.549 671.226 180.675C671.869 181.726 673.042 182.326 673.648 183.452C674.253 184.578 674.518 185.779 674.632 187.018C675.199 193.098 673.496 199.629 671.15 205.146C670.696 206.235 669.068 205.296 669.523 204.208C671.263 200.117 672.361 195.763 672.702 191.334C672.853 189.495 673.004 187.468 672.512 185.667C672.02 183.865 670.506 183.114 669.56 181.576C668.236 179.436 669.371 175.232 671.793 174.257C674.821 173.018 676.145 176.546 676.373 178.798C676.486 179.849 674.745 180.074 674.518 179.061C674.026 176.771 675.994 174.707 678.378 175.195C681.103 175.758 681.974 178.573 681.482 180.975C681.217 182.176 679.514 181.651 679.665 180.487C679.93 178.535 682.693 178.46 683.601 179.999C685.001 182.439 682.39 184.954 680.8 186.455C678.34 188.744 677.092 191.522 676.07 194.675C674.934 198.203 673.837 201.768 672.739 205.334C672.399 206.498 670.544 206.01 670.923 204.846L670.885 204.809Z" fill="#121212"/>
<path d="M689.893 138.514C688.892 140.904 688.238 143.454 687.931 146.004C687.854 146.522 687.546 147 686.969 147C686.507 147 685.93 146.562 686.007 146.004C686.392 143.056 687.123 140.227 688.238 137.478C688.431 137 689.162 136.88 689.546 137.12C690.047 137.398 690.085 137.996 689.893 138.474V138.514Z" fill="#121212"/>
<path d="M665.546 148.774C663.924 147.374 662.198 146.047 660.437 144.72C660.058 144.462 659.851 143.909 660.127 143.467C660.368 143.062 660.921 142.841 661.3 143.135C663.164 144.499 664.959 145.973 666.754 147.447C667.099 147.742 667.065 148.442 666.754 148.737C666.374 149.106 665.926 149.069 665.546 148.737V148.774Z" fill="#121212"/>
<path d="M705.941 158.725C708.314 158.408 710.686 158.136 713.059 158C713.548 158 714 158.544 714 159.133C714 159.768 713.586 160.221 713.059 160.267C710.686 160.403 708.314 160.674 705.941 160.992C705.452 161.082 705 160.403 705 159.859C705 159.179 705.452 158.816 705.941 158.725Z" fill="#121212"/>
<path d="M656.026 172.816C653.727 172.89 651.428 173.26 649.246 173.964C648.739 174.113 648.193 173.779 648.038 173.334C647.882 172.816 648.232 172.334 648.7 172.186C651.077 171.445 653.532 171.074 656.026 171C656.532 171 657 171.445 657 171.926C657 172.445 656.571 172.816 656.026 172.853V172.816Z" fill="#121212"/>
<path d="M700.444 183.149C702.424 184.572 704.216 186.28 705.747 188.272C706.046 188.678 706.121 189.328 705.747 189.694C705.411 190.06 704.776 190.142 704.44 189.694C703.693 188.759 702.909 187.865 702.087 187.052C701.901 186.849 701.677 186.645 701.453 186.483C701.341 186.402 701.228 186.28 701.154 186.198C701.079 186.158 701.042 186.076 700.967 186.036C700.93 186.036 700.818 185.914 700.892 185.995C700.444 185.629 699.959 185.263 699.473 184.897C699.063 184.613 698.838 184.003 699.137 183.515C699.399 183.068 699.959 182.824 700.407 183.149H700.444Z" fill="#121212"/>
<g clip-path="url(#clip0_2426_6530)">
<path d="M375.355 162.103C373.552 162.829 371.749 163.555 369.831 163.796C367.914 164.038 365.865 163.654 364.393 162.43C362.841 161.124 362.187 159.023 361.996 156.986C361.805 154.95 362.056 152.918 361.986 150.883C361.818 147.236 360.541 143.678 358.369 140.754C362.684 140.437 367.055 141.813 370.419 144.527C373.783 147.242 376.06 151.213 376.682 155.49C377.066 158.133 376.713 161.533 374.24 162.635" fill="#FFD400"/>
<path d="M375.865 163.034C373.069 164.173 370.152 165.31 367.058 164.754C364.245 164.241 362.281 162.267 361.434 159.599C360.491 156.628 361.122 153.473 360.885 150.409C360.632 147.083 359.369 143.947 357.394 141.268C356.881 140.577 357.639 139.719 358.345 139.666C364.634 139.33 370.736 142.154 374.407 147.228C376.243 149.765 377.467 152.779 377.783 155.925C378.084 158.768 377.531 162.126 374.75 163.566C373.532 164.198 372.492 162.314 373.73 161.703C376.247 160.4 375.918 156.751 375.388 154.449C374.802 151.885 373.589 149.455 371.886 147.463C368.54 143.541 363.514 141.534 358.373 141.822L359.324 140.221C360.844 142.311 361.977 144.7 362.583 147.244C363.228 149.95 363.028 152.606 363.047 155.366C363.067 158.126 363.624 161.314 366.488 162.412C369.352 163.509 372.292 162.231 374.885 161.211C376.142 160.701 377.202 162.565 375.905 163.075L375.865 163.034Z" fill="#121212"/>
<path d="M376.365 161.952C381.796 166.501 386.511 171.868 390.31 177.85C392.16 180.81 393.826 183.91 395.208 187.127C396.396 189.899 397.662 192.832 397.879 195.876C398.232 200.613 394.045 205.846 389.092 202.974C383.461 199.692 382.213 191.461 379.998 185.919C377.066 178.536 372.877 171.704 370.998 163.93C370.713 162.738 372.553 162.294 372.837 163.486C374.642 170.857 378.533 177.383 381.392 184.322C382.947 188.085 386.941 205.388 393.668 201.411C397.264 199.294 395.926 194.405 394.824 191.312C393.509 187.632 391.789 184.069 389.825 180.705C385.955 174.078 380.905 168.204 375.036 163.287C374.101 162.492 375.47 161.197 376.405 161.952L376.365 161.952Z" fill="#121212"/>
</g>
<g clip-path="url(#clip1_2426_6530)">
<path d="M456.84 225.527C456.976 225.106 457.111 224.629 457.301 224.235C457.355 223.758 457.626 223.309 458.06 223.084C458.331 222.972 458.629 222.972 458.9 223.028C459.686 222.972 460.445 223.421 460.825 224.179C461.204 224.965 461.15 225.948 461.15 226.791C461.15 227.633 461.096 228.475 460.988 229.289C460.96 229.514 460.879 229.739 460.852 229.963C460.798 231.143 460.662 232.294 460.337 233.417C460.201 233.838 460.066 234.315 459.876 234.708C459.822 235.186 459.551 235.635 459.117 235.86C458.846 235.972 458.548 235.972 458.277 235.916C457.491 235.972 456.732 235.523 456.352 234.765C455.946 234.006 456 233.024 456 232.181C456 231.339 456.054 230.497 456.163 229.683C456.19 229.458 456.271 229.233 456.298 229.009C456.352 227.829 456.488 226.678 456.813 225.555L456.84 225.527Z" fill="black"/>
<path d="M488.69 225.527C488.826 225.106 488.961 224.629 489.151 224.235C489.205 223.758 489.476 223.309 489.91 223.084C490.181 222.972 490.479 222.972 490.75 223.028C491.536 222.972 492.295 223.421 492.675 224.179C493.054 224.965 493 225.948 493 226.791C493 227.633 492.946 228.475 492.837 229.289C492.81 229.514 492.729 229.739 492.702 229.963C492.648 231.143 492.512 232.294 492.187 233.417C492.051 233.838 491.916 234.315 491.726 234.708C491.672 235.186 491.401 235.635 490.967 235.86C490.696 235.972 490.398 235.972 490.127 235.916C489.341 235.972 488.582 235.523 488.202 234.765C487.823 233.978 487.877 232.996 487.877 232.153C487.877 231.311 487.931 230.469 488.04 229.654C488.067 229.43 488.148 229.205 488.175 228.981C488.229 227.801 488.365 226.65 488.69 225.527Z" fill="black"/>
</g>
<g clip-path="url(#clip2_2426_6530)">
<rect x="95.2627" y="74.33" width="407.84" height="287.555" fill="white"/>
<path d="M503.001 74.3444H94.8467V361.78H503.001V74.3444Z" stroke="black" stroke-width="3" stroke-miterlimit="10"/>
<path d="M488.159 89.4549H454.551" stroke="black" stroke-width="3" stroke-miterlimit="10"/>
<path d="M111.543 94.7516C114.513 94.7516 116.921 92.3441 116.921 89.3742C116.921 86.4043 114.513 83.9968 111.543 83.9968C108.574 83.9968 106.166 86.4043 106.166 89.3742C106.166 92.3441 108.574 94.7516 111.543 94.7516Z" fill="#FFD400" stroke="black" stroke-width="1.56" stroke-miterlimit="10"/>
<path d="M134.155 94.7516C137.125 94.7516 139.533 92.3441 139.533 89.3742C139.533 86.4043 137.125 83.9968 134.155 83.9968C131.185 83.9968 128.778 86.4043 128.778 89.3742C128.778 92.3441 131.185 94.7516 134.155 94.7516Z" fill="#FFD400" stroke="black" stroke-width="1.56" stroke-miterlimit="10"/>
<path d="M156.767 94.7516C159.737 94.7516 162.144 92.3441 162.144 89.3742C162.144 86.4043 159.737 83.9968 156.767 83.9968C153.797 83.9968 151.39 86.4043 151.39 89.3742C151.39 92.3441 153.797 94.7516 156.767 94.7516Z" fill="#FFD400" stroke="black" stroke-width="1.56" stroke-miterlimit="10"/>
<path d="M95.0618 102.414H502.839" stroke="black" stroke-width="3" stroke-miterlimit="10"/>
<path d="M246.286 250.871V256.504H240.654" stroke="black" stroke-width="2" stroke-miterlimit="10"/>
<path d="M229.67 256.504H147.276" stroke="black" stroke-width="2" stroke-miterlimit="10"/>
<path d="M141.791 256.504H136.145V250.871" stroke="black" stroke-width="2" stroke-miterlimit="10"/>
<path d="M136.145 239.888V157.493" stroke="black" stroke-width="2" stroke-miterlimit="10"/>
<path d="M136.145 152.008V146.361H141.791" stroke="black" stroke-width="2" stroke-miterlimit="10"/>
<path d="M152.774 146.361H235.155" stroke="black" stroke-width="2" stroke-miterlimit="10"/>
<path d="M240.654 146.361H246.286V152.008" stroke="black" stroke-width="2" stroke-miterlimit="10"/>
<path d="M246.286 162.991V245.373" stroke="black" stroke-width="2" stroke-miterlimit="10"/>
<path d="M142.194 140.312H130.095V152.411H142.194V140.312Z" fill="black"/>
<path d="M240.25 152.411H252.349V140.312H240.25V152.411Z" fill="black"/>
<path d="M240.25 262.567H252.349V250.468H240.25V262.567Z" fill="black"/>
<path d="M130.095 262.567H142.194V250.468H130.095V262.567Z" fill="black"/>
<path d="M322.927 308.114H216.67" stroke="black" stroke-width="2" stroke-miterlimit="10"/>
<path d="M381.177 308.114H332.499" stroke="black" stroke-width="2" stroke-miterlimit="10"/>
<path d="M274.92 327.271H381.177" stroke="black" stroke-width="2" stroke-miterlimit="10"/>
<path d="M216.67 327.271H265.335" stroke="black" stroke-width="2" stroke-miterlimit="10"/>
<path d="M179.69 175.614L44.9719 175.614C40.5691 175.614 37 179.184 37 183.586V210.084C37 214.486 40.5691 218.056 44.9719 218.056L179.69 218.056C184.093 218.056 187.662 214.486 187.662 210.084V183.586C187.662 179.184 184.093 175.614 179.69 175.614Z" fill="#FFD200"/>
<path d="M63.3086 199.127V205.015H59.6385V199.651C59.6385 198.307 58.8319 197.42 57.6892 197.42C56.4793 197.42 55.6727 198.28 55.6727 199.651V205.015H52.0027V188.44H55.6727V195.013C56.3046 194.476 57.2322 194.126 58.4286 194.126C61.2786 194.126 63.3086 196.116 63.3086 199.114V199.127Z" fill="black"/>
<path d="M66.8172 200.861V197.433H64.6663V194.341H66.9382V190.671H70.4872V194.341H74.2245V197.433H70.4872V200.431C70.4872 201.547 71.2535 201.91 72.1408 201.91C72.9339 201.91 73.4582 201.587 73.7405 201.426L74.9908 204.142C74.5202 204.464 73.4179 205.231 71.2535 205.231C68.4438 205.231 66.8172 203.671 66.8172 200.861Z" fill="black"/>
<path d="M94.645 199.127V205.015H90.975V199.651C90.975 198.307 90.2759 197.42 89.2408 197.42C88.0981 197.42 87.3587 198.28 87.3587 199.651V205.015H83.6887V199.651C83.6887 198.307 82.9493 197.42 81.9679 197.42C80.8118 197.42 80.059 198.28 80.059 199.651V205.015H76.3889V194.341H78.9432L79.0776 196.129C79.6288 194.987 80.9865 194.14 82.5863 194.14C84.1861 194.14 85.4901 194.785 86.3236 195.807C86.9957 194.879 88.1519 194.14 89.6441 194.14C92.4941 194.14 94.6316 196.129 94.6316 199.127H94.645Z" fill="black"/>
<path d="M97.1052 188.453H100.775V205.029H97.1052V188.453Z" fill="black"/>
<path d="M113.613 182.895H117.648L110.201 212.141H106.127L113.613 182.895Z" fill="black"/>
<path d="M453.287 145.138H343.146V255.281H453.287V145.138Z" stroke="black" stroke-width="3" stroke-miterlimit="10"/>
<path d="M343.146 210.326L367.572 189.461L425.056 226.781L453.287 206.669" stroke="black" stroke-width="3" stroke-miterlimit="10"/>
</g>
<rect x="67" y="245" width="111.321" height="205" fill="white" stroke="#121212" stroke-width="2"/>
<rect x="80.3486" y="318.031" width="80.8467" height="109.555" fill="white" stroke="#121212" stroke-width="1.5"/>
<path d="M67.1333 427.58H178.566" stroke="black" stroke-width="2" stroke-miterlimit="10"/>
<path d="M80.354 318.036L161.19 427.58" stroke="black" stroke-width="1.5" stroke-miterlimit="10"/>
<path d="M80.354 427.58L161.19 318.036" stroke="black" stroke-width="1.5" stroke-miterlimit="10"/>
<path d="M96.2561 270.138H79.5232" stroke="black" stroke-width="1.5" stroke-miterlimit="10"/>
<path d="M153.634 270.138H106.946" stroke="black" stroke-width="1.5" stroke-miterlimit="10"/>
<path d="M153.634 282.334H79.5232" stroke="black" stroke-width="1.5" stroke-miterlimit="10"/>
<path d="M131.9 294.529H79.5232" stroke="black" stroke-width="1.5" stroke-miterlimit="10"/>
<path d="M153.634 294.529H139.913" stroke="black" stroke-width="1.5" stroke-miterlimit="10"/>
<circle cx="122.661" cy="438.912" r="6.79927" fill="#FFD400"/>
<g clip-path="url(#clip3_2426_6530)">
<path d="M469.15 316.262C476.712 307.617 486.499 300.975 497.604 297.961C497.604 297.961 497.604 297.961 497.62 297.961C496.763 296.868 495.907 295.775 495.083 294.665C492.183 290.707 489.053 286.169 487.8 281.35C487.29 279.379 487.125 277.209 487.85 275.271C488.245 274.212 488.888 273.417 489.629 272.588C490.601 271.512 490.601 270.634 491.129 269.309C491.524 268.316 492.15 267.487 492.99 266.825C493.732 266.245 494.621 266.146 495.363 265.666C496.829 264.738 496.137 262.005 497.884 260.796C498.51 260.366 499.251 260.167 500.009 260.167C500.833 260.167 501.657 260.664 502.431 260.763C502.382 260.532 502.332 260.3 502.25 260.068C502.019 259.356 501.673 258.66 501.344 257.981C501.096 257.468 500.816 256.971 500.536 256.474C496.038 253.725 492.628 249.866 490.601 244.914C488.492 239.796 487.85 234.198 487.669 228.716C487.207 214.854 488.624 200.909 489.959 187.13H486.351C484.374 187.13 484.357 184.033 486.351 184.033H588.846C589.357 184.033 589.934 184.314 590.181 184.794C591.482 187.378 590.626 191.121 590.428 193.936C590.131 197.911 589.67 201.87 589.044 205.795C587.841 213.314 585.946 220.75 582.849 227.723C577.56 239.647 568.779 250.363 557.575 257.12C558.481 261.939 559.503 266.726 560.442 271.529C561.233 275.619 562.353 280.273 565.731 282.973C592.454 278.617 619.639 290.508 637.927 309.869C647.665 320.187 655.375 332.294 661.636 345.013C668.012 357.948 673.186 371.496 676.481 385.557C680.32 401.953 681.687 418.796 681.918 435.573C681.918 435.689 681.868 435.772 681.868 435.871C681.704 446.537 674.355 455.398 664.849 459.72C655.392 464.026 644.765 464.457 634.879 461.675C634.847 474.626 634.583 487.577 634.566 500.512C634.566 500.909 634.451 501.208 634.286 501.473C634.089 502.185 633.528 502.831 632.622 502.93C596.705 507.22 560.673 508.71 524.508 508.031C513.75 507.832 503.864 507.004 493.122 506.59C491.458 506.524 490.618 505.182 491.31 504.106C490.7 488.737 489.975 473.351 489.366 457.981C481.902 455.547 474.686 452.417 467.865 448.425C467.387 448.144 467.123 447.763 467.025 447.349C466.959 447.282 466.893 447.216 466.827 447.15C459.594 438.289 455.475 427.541 453.053 416.428C450.499 404.669 449.231 392.43 449.033 380.406C448.654 357.435 453.729 333.851 469.166 316.212L469.15 316.262Z" fill="white"/>
<path d="M504.843 199.536C504.978 199.115 505.114 198.637 505.304 198.244C505.358 197.767 505.629 197.318 506.062 197.093C506.334 196.981 506.632 196.981 506.903 197.037C507.689 196.981 508.448 197.43 508.827 198.188C509.207 198.974 509.153 199.957 509.153 200.799C509.153 201.642 509.098 202.484 508.99 203.298C508.963 203.523 508.882 203.747 508.854 203.972C508.8 205.151 508.665 206.303 508.339 207.426C508.204 207.847 508.068 208.324 507.879 208.717C507.824 209.195 507.553 209.644 507.12 209.868C506.849 209.981 506.55 209.981 506.279 209.925C505.493 209.981 504.734 209.531 504.355 208.773C503.948 208.015 504.002 207.033 504.002 206.19C504.002 205.348 504.057 204.506 504.165 203.691C504.192 203.467 504.273 203.242 504.301 203.017C504.355 201.838 504.49 200.687 504.816 199.564L504.843 199.536Z" fill="black"/>
<path d="M536.692 199.536C536.827 199.115 536.963 198.637 537.153 198.244C537.207 197.767 537.478 197.318 537.912 197.093C538.183 196.981 538.481 196.981 538.752 197.037C539.538 196.981 540.297 197.43 540.676 198.188C541.056 198.974 541.002 199.957 541.002 200.799C541.002 201.642 540.948 202.484 540.839 203.298C540.812 203.523 540.731 203.747 540.704 203.972C540.649 205.151 540.514 206.303 540.189 207.426C540.053 207.847 539.917 208.324 539.728 208.717C539.674 209.195 539.402 209.644 538.969 209.868C538.698 209.981 538.4 209.981 538.128 209.925C537.342 209.981 536.583 209.531 536.204 208.773C535.824 207.987 535.879 207.004 535.879 206.162C535.879 205.32 535.933 204.477 536.041 203.663C536.068 203.439 536.15 203.214 536.177 202.989C536.231 201.81 536.367 200.659 536.692 199.536Z" fill="black"/>
<path d="M632.704 502.963C596.936 507.236 561.051 508.743 525.036 508.064C514.293 507.865 503.551 507.518 492.825 507.12C490.453 507.037 490.436 503.311 492.825 503.394C528.775 504.735 564.759 505.199 600.659 502.417C611.368 501.589 622.045 500.495 632.704 499.237C635.061 498.955 635.044 502.682 632.704 502.963Z" fill="black"/>
<path d="M678.293 435.573C678.079 421.082 677.057 406.557 674.223 392.314C671.39 378.071 667.057 365.533 661.323 352.88C650.218 328.385 633.94 304.901 609.012 293.241C595.782 287.064 580.641 284.182 566.159 286.683C563.82 287.08 562.831 283.503 565.171 283.089C592.092 278.435 619.573 290.376 637.993 309.886C647.73 320.204 655.441 332.31 661.702 345.03C667.963 357.749 673.251 371.512 676.547 385.573C680.385 401.953 681.753 418.796 682 435.573C682.033 437.975 678.326 437.975 678.293 435.573Z" fill="black"/>
<path d="M535.333 308.809C543.406 307.517 552.435 305.927 559.404 301.34C565.45 297.365 569.042 290.326 572.057 283.95C573.079 281.78 576.275 283.668 575.254 285.838C571.991 292.711 568.087 299.816 561.727 304.255C554.494 309.289 544.823 311.045 536.321 312.403C533.982 312.784 532.977 309.19 535.333 308.809Z" fill="black"/>
<path d="M557.41 255.927C558.366 261.144 559.503 266.345 560.508 271.545C561.365 275.901 562.534 280.936 566.472 283.536C568.12 284.629 566.587 287.312 564.923 286.219C560.607 283.387 558.827 278.451 557.789 273.599C556.587 268.017 555.483 262.386 554.445 256.755C554.082 254.801 557.048 253.973 557.41 255.927Z" fill="black"/>
<path d="M518.264 259.372C519.45 259.637 520.653 259.869 521.856 260.084C522.449 260.184 523.025 260.283 523.619 260.382C523.899 260.432 524.179 260.465 524.475 260.515C524.624 260.532 524.755 260.548 524.904 260.581C524.558 260.532 525.151 260.614 525.2 260.614C525.991 260.714 526.782 261.26 526.749 262.171C526.716 262.916 526.057 263.827 525.2 263.728C522.597 263.397 520.01 262.933 517.44 262.386C516.649 262.221 516.122 261.244 516.369 260.482C516.633 259.654 517.424 259.223 518.264 259.405V259.372Z" fill="black"/>
<path d="M590.856 186.384C590.494 201.058 588.451 216.328 582.025 229.677C576.44 241.27 567.527 251.638 556.274 257.964C550.441 261.26 543.192 264.092 536.404 264.092C534.427 264.092 534.41 260.995 536.404 260.995C542.072 260.995 548.2 258.71 553.16 256.143C558.63 253.311 563.523 249.485 567.757 245.013C576.835 235.474 582.355 223.516 585.073 210.697C586.77 202.714 587.561 194.549 587.759 186.401C587.808 184.413 590.889 184.397 590.84 186.401L590.856 186.384Z" fill="black"/>
<path d="M501.525 257.07C496.566 254.288 492.842 250.23 490.667 244.947C488.492 239.664 487.916 234.231 487.735 228.749C487.257 214.556 488.756 200.296 490.124 186.186C490.321 184.215 493.402 184.198 493.204 186.186C491.919 199.468 490.651 212.8 490.766 226.166C490.815 231.416 491.161 236.732 492.76 241.767C494.539 247.315 498.015 251.572 503.073 254.404C504.803 255.381 503.255 258.047 501.525 257.087V257.07Z" fill="black"/>
<path d="M486.416 184.049C529.649 184.049 572.881 184.049 616.114 184.049C628.322 184.049 640.547 184.049 652.756 184.049C654.733 184.049 654.749 187.146 652.756 187.146C609.523 187.146 566.291 187.146 523.059 187.146C510.85 187.146 498.625 187.146 486.416 187.146C484.439 187.146 484.423 184.049 486.416 184.049Z" fill="black"/>
<path d="M485.939 185.838C487.52 176.232 489.102 165.417 492.727 156.391C496.368 147.365 502.25 138.935 510.636 134.066C518.626 129.412 528.149 128.352 537.376 127.987C553.621 127.341 571.151 128.998 583.64 139.465C596.952 150.627 601.417 167.587 601.615 185.01L485.939 185.838Z" fill="#FFD100"/>
<path d="M484.307 185.391C486.449 172.356 488.36 158.875 495.33 147.381C498.444 142.247 502.431 137.643 507.341 134.182C512.712 130.389 519.104 128.368 525.546 127.358C537.821 125.453 551.15 125.437 563.309 128.12C575.468 130.803 585.666 136.931 592.767 146.951C600.56 157.948 603.081 171.744 603.279 184.993C603.279 185.904 602.504 186.666 601.598 186.682C588.517 186.782 575.451 186.865 562.37 186.964C541.676 187.113 520.982 187.262 500.289 187.411C495.494 187.444 490.7 187.477 485.906 187.511C483.747 187.511 483.747 184.148 485.906 184.132C498.987 184.033 512.053 183.95 525.134 183.85C545.828 183.701 566.521 183.552 587.215 183.403C592.009 183.37 596.804 183.337 601.598 183.304L599.918 184.993C599.753 173.83 597.924 162.386 592.355 152.565C586.787 142.744 577.099 135.391 565.862 132.227C554.642 129.064 542.483 128.998 530.95 130.058C524.689 130.637 518.313 131.863 512.712 134.827C507.489 137.577 503.156 141.767 499.811 146.619C491.771 158.312 489.794 172.588 487.537 186.285C487.191 188.421 483.945 187.511 484.307 185.391Z" fill="black"/>
<path d="M522.515 186.749C520.867 193.125 520.735 199.75 520.389 206.308C520.208 209.654 520.027 212.999 519.862 216.328C519.813 217.156 519.78 218.001 519.73 218.829C519.73 219.144 519.417 220.634 519.665 220.883C519.665 221.164 519.697 221.164 519.714 220.899C520.093 220.8 520.455 220.651 520.785 220.469C521.46 220.121 521.971 219.624 522.482 219.077C523.833 217.603 526.008 219.806 524.657 221.263C523.075 223.002 519.17 225.586 517.226 222.969C516.287 221.711 516.6 219.922 516.666 218.465C516.781 216.196 516.913 213.927 517.028 211.658C517.49 203.095 517.391 194.251 519.549 185.904C520.043 183.983 523.026 184.794 522.515 186.732V186.749Z" fill="black"/>
<path d="M573.853 203.559C577.445 205.546 578.368 210.184 577.494 213.927C576.984 216.129 575.847 218.216 574.034 219.591C572.222 220.965 569.817 221.462 567.724 220.651C566.95 220.353 566.406 219.607 566.653 218.746C566.851 218.001 567.774 217.355 568.548 217.67C569.85 218.183 571.25 217.918 572.354 217.024C573.606 216.013 574.265 214.44 574.595 212.883C575.105 210.515 574.578 207.468 572.321 206.225C570.591 205.265 572.14 202.582 573.87 203.542L573.853 203.559Z" fill="black"/>
<path d="M532.071 277.06C529.418 270.22 533.817 263.976 536.651 258.047C537.31 256.656 538.068 255.066 538.15 253.493C538.266 251.075 536.206 251.903 534.674 252.483C531.395 253.708 528.726 255.248 527.754 258.826C526.996 261.608 527.144 265.152 525.447 267.587C523.256 270.734 520.604 267.703 519.137 265.732C514.969 260.134 511.064 254.304 506.402 249.104C504.243 246.702 501.854 244.036 499.119 242.297C498.213 241.717 496.582 240.757 495.462 241.237C493.666 242.015 495.083 244.367 495.939 245.311C498.147 247.796 500.651 249.783 502.563 252.549C504.111 254.818 506.171 257.998 506.303 260.83C506.434 263.662 504.161 264.937 501.656 264.341C500.305 264.026 500.174 263.48 499.861 264.954C499.63 266.047 499.432 267.156 498.658 268.017C497.719 269.044 496.285 268.945 495.297 269.806C494.144 270.8 494.374 272.738 493.517 273.98C492.694 275.156 491.491 275.785 491.227 277.309C490.964 278.832 491.425 280.406 491.952 281.797C494.457 288.554 499.515 294.417 504.062 299.866C508.609 305.315 513.47 311.028 516.995 317.454C518.149 319.558 514.952 321.446 513.799 319.342C508.807 310.25 501.327 302.979 495.214 294.665C492.315 290.707 489.184 286.169 487.932 281.35C487.421 279.379 487.257 277.209 487.982 275.272C488.377 274.212 489.02 273.417 489.761 272.589C490.733 271.512 490.733 270.634 491.26 269.309C491.656 268.316 492.282 267.487 493.122 266.825C493.863 266.245 494.753 266.146 495.495 265.666C496.961 264.738 496.269 262.006 498.015 260.797C498.641 260.366 499.383 260.167 500.141 260.167C501.08 260.167 502.019 260.83 502.892 260.813L502.645 261.095C502.596 260.747 502.513 260.416 502.381 260.084C502.151 259.372 501.805 258.677 501.475 257.998C500.866 256.755 500.174 255.58 499.399 254.437C497.933 252.3 496.121 250.611 494.259 248.839C492.397 247.067 490.914 245.013 490.98 242.396C491.096 237.494 496.187 236.666 499.795 238.372C502.217 239.531 504.293 241.568 506.204 243.44C508.362 245.56 510.356 247.845 512.25 250.197C514.145 252.549 515.892 254.901 517.638 257.302C518.61 258.627 519.566 259.968 520.538 261.293C521.164 262.155 522.68 265.119 523.783 265.285L522.35 265.467C523.207 265.053 523.339 262.502 523.487 261.674C523.701 260.498 523.882 259.306 524.162 258.147C524.723 255.878 525.761 253.774 527.523 252.218C529.155 250.777 531.165 249.882 533.175 249.104C535.185 248.325 537.656 247.398 539.715 248.69C543.768 251.224 541.347 257.004 539.765 260.25C537.376 265.152 533.504 270.386 535.712 276.067C536.585 278.302 532.993 279.263 532.137 277.06H532.071Z" fill="black"/>
<path d="M531.313 310.979C530.39 308.13 528.397 305.762 527.589 302.863C526.733 299.816 527.524 296.885 528.825 294.102C530.275 291.022 532.087 288.223 532.615 284.778C533.142 281.333 532.483 277.988 531.593 274.708C530.967 272.39 534.542 271.396 535.168 273.715C536.964 280.339 536.915 286.517 533.718 292.711C532.252 295.543 530.242 298.541 531.148 301.87C531.939 304.735 533.933 307.136 534.872 309.985C535.613 312.271 532.038 313.248 531.296 310.979H531.313Z" fill="black"/>
<path d="M524.442 244.467C529.089 241.717 534.147 239.664 539.386 238.422C541.314 237.958 542.137 240.955 540.21 241.403C535.201 242.595 530.423 244.5 525.991 247.133C524.278 248.143 522.729 245.477 524.442 244.45V244.467Z" fill="black"/>
<path d="M540.094 312.999C534.064 315.169 527.968 317.14 521.955 319.309C520.439 319.856 518.791 320.353 517.49 321.313C516.435 322.108 515.661 323.218 514.524 323.93C514.376 324.029 514.227 324.112 514.063 324.179C513.519 324.493 513.601 324.029 514.326 322.771C514.458 322.837 514.623 323.152 514.705 323.268C515.035 323.715 515.348 324.179 515.661 324.659C516.237 325.553 516.765 326.514 517.44 327.342C518.939 329.18 516.32 331.847 514.821 329.975C513.98 328.932 513.288 327.806 512.563 326.679C511.838 325.553 510.619 324.427 510.768 323.003C510.932 321.346 512.596 320.866 513.634 319.839C514.952 318.548 516.287 317.587 518 316.858C524.838 313.91 532.137 311.923 539.139 309.389C541.396 308.577 542.352 312.171 540.127 312.983L540.094 312.999Z" fill="black"/>
<path d="M540.72 310.532C575.6 335.391 611.896 361.525 632.836 400.098C638.257 410.085 642.491 420.75 645.111 431.83C645.654 434.165 642.096 435.159 641.535 432.824C631.815 391.668 600.906 360.449 568.564 335.507C558.844 328.004 548.843 320.883 538.842 313.745C536.914 312.37 538.76 309.14 540.72 310.532Z" fill="black"/>
<path d="M606.327 350.561C615.438 360.035 621.6 372.175 623.758 385.176C624.154 387.527 620.579 388.538 620.183 386.169C618.124 373.765 612.407 362.238 603.707 353.195C602.043 351.472 604.663 348.839 606.327 350.561Z" fill="black"/>
<path d="M469.809 445.245C489.843 457.021 512.794 460.664 535.646 461.691C554.626 462.536 574.051 462.602 592.866 459.621C600.692 458.379 610.083 456.839 616.476 451.688C618.321 450.197 620.957 452.831 619.096 454.321C613.214 459.058 605.404 461.045 598.138 462.453C588.302 464.374 578.252 465.169 568.251 465.567C550.589 466.262 532.548 466.08 514.985 463.761C498.526 461.575 482.33 456.938 467.931 448.491C465.871 447.282 467.733 444.053 469.809 445.278V445.245Z" fill="black"/>
<path d="M505.907 365.268C508.609 383.503 508.527 401.936 505.677 420.138C505.314 422.506 501.739 421.496 502.101 419.144C504.836 401.655 504.919 383.768 502.332 366.245C501.986 363.894 505.561 362.883 505.907 365.252V365.268Z" fill="black"/>
<path d="M503.337 417.653C513.437 415.749 523.965 415.931 534.18 416.461C545.976 417.057 557.789 418.366 569.405 420.502C574.727 421.479 580.032 422.638 585.189 424.295C587.446 425.023 586.49 428.617 584.2 427.889C574.595 424.791 564.462 423.202 554.478 421.959C543.027 420.552 531.461 419.707 519.928 419.922C514.705 420.022 509.45 420.287 504.326 421.264C501.986 421.711 500.998 418.117 503.337 417.67V417.653Z" fill="black"/>
<path d="M493.122 457.418C493.748 473.069 493.929 488.737 494.555 504.404C494.654 506.806 490.947 506.806 490.848 504.404C490.222 488.753 490.041 473.086 489.415 457.418C489.316 455.017 493.023 455.017 493.122 457.418Z" fill="black"/>
<path d="M630.958 500.529C630.958 487.047 631.271 473.566 631.271 460.085C631.271 457.683 634.978 457.683 634.978 460.085C634.978 473.566 634.665 487.047 634.665 500.529C634.665 502.93 630.958 502.93 630.958 500.529Z" fill="black"/>
<path d="M516.106 325.056C524.722 341.221 532.96 357.65 542.714 373.168C553.357 390.095 565.961 405.58 580.476 419.326C590.84 429.131 601.977 438.057 613.576 446.338C615.504 447.713 613.659 450.943 611.698 449.551C592.405 435.755 574.281 420.22 559.008 401.953C546.948 387.527 536.947 371.628 527.919 355.133C522.795 345.792 517.918 336.318 512.909 326.911C511.789 324.791 514.985 322.92 516.106 325.023V325.056Z" fill="black"/>
<path d="M614.252 446.752C625.604 454.934 638.801 461.509 653.151 459.356C665.788 457.468 678.853 448.607 678.227 434.43C678.128 432.029 681.835 432.045 681.934 434.43C682.445 445.742 674.85 455.199 664.915 459.72C653.909 464.738 641.321 464.49 630.184 460.068C623.808 457.534 617.942 453.957 612.374 449.949C610.446 448.558 612.308 445.328 614.252 446.736V446.752Z" fill="black"/>
<path d="M498.674 301.555C479.595 306.739 465.311 323.102 458.655 341.337C450.598 363.364 451.686 388.339 455.837 411.078C458.012 423.019 461.752 435.027 469.529 444.55C471.028 446.388 468.425 449.038 466.909 447.183C459.676 438.322 455.557 427.574 453.135 416.461C450.582 404.702 449.313 392.463 449.115 380.439C448.736 357.468 453.811 333.884 469.249 316.245C476.811 307.6 486.598 300.959 497.702 297.945C500.009 297.315 500.997 300.909 498.691 301.539L498.674 301.555Z" fill="black"/>
<path d="M632.507 502.98C632.804 511.161 632.573 521.96 632.029 530.125L631.98 530.307C586.111 530.671 540.226 531.052 494.358 531.416L493.897 531.052C493.897 523.649 493.897 516.262 493.897 508.859L493.781 507.6C544.905 509.522 581.91 509.538 632.721 503.443" fill="black"/>
<path d="M634.978 502.98C635.143 507.865 635.143 512.751 635.028 517.62C634.978 520.072 634.896 522.506 634.781 524.941C634.698 526.895 634.797 529.048 634.352 530.969C634.105 532.029 633.018 532.791 631.963 532.791L498.444 533.868C496.401 533.868 493.666 534.513 492.134 532.808C491.112 531.665 491.409 530.009 491.409 528.584V523.649C491.409 518.349 491.788 512.884 491.293 507.6C491.178 506.292 492.529 505.067 493.765 505.116C529.451 506.458 565.138 506.921 600.775 504.139C611.434 503.311 622.078 502.218 632.705 500.959C635.852 500.578 635.835 505.547 632.705 505.928C597.199 510.168 561.595 511.708 525.859 511.029C515.15 510.83 504.457 510.482 493.765 510.085L496.236 507.6C496.549 510.996 496.351 514.49 496.351 517.902V531.052C495.939 530.34 495.528 529.628 495.132 528.899C495.149 528.899 495.478 529.18 495.478 529.164L495.165 528.916H495.989C497.027 528.75 498.213 528.899 499.268 528.882L506.632 528.816L519.747 528.717C528.759 528.651 537.771 528.568 546.784 528.501C564.94 528.352 583.096 528.203 601.252 528.054L631.98 527.806L629.591 529.628C629.97 527.988 629.788 525.951 629.871 524.245C629.986 521.794 630.052 519.343 630.101 516.892C630.2 512.254 630.2 507.6 630.036 502.963C629.92 499.767 634.863 499.767 634.978 502.963V502.98Z" fill="black"/>
</g>
<path d="M173.315 395.172C191.694 395.172 206.594 380.272 206.594 361.893C206.594 343.513 191.694 328.613 173.315 328.613C154.936 328.613 140.036 343.513 140.036 361.893C140.036 380.272 154.936 395.172 173.315 395.172Z" fill="#FFD200"/>
<path d="M165.648 358.856L159.586 362.523L165.648 366.178V370.35L155.506 364.437V360.609L165.648 354.638V358.867V358.856Z" fill="black"/>
<path d="M174.873 348.519H178.506L171.802 375.255H168.135L174.873 348.519Z" fill="black"/>
<path d="M191.134 360.609V364.437L180.992 370.35V366.179L187.043 362.523L180.992 358.856V354.627L191.134 360.598V360.609Z" fill="black"/>
<defs>
<clipPath id="clip0_2426_6530">
<rect width="29" height="71" fill="white" transform="matrix(-0.716017 0.698083 0.698083 0.716017 362.765 135)"/>
</clipPath>
<clipPath id="clip1_2426_6530">
<rect width="37" height="13" fill="white" transform="translate(456 223)"/>
</clipPath>
<clipPath id="clip2_2426_6530">
<rect width="495.872" height="319.432" fill="white" transform="translate(37 73)"/>
</clipPath>
<clipPath id="clip3_2426_6530">
<rect width="233" height="408" fill="white" transform="matrix(-1 0 0 1 682 126)"/>
</clipPath>
</defs>
</svg>
