<svg width="750" height="608" viewBox="0 0 750 608" fill="none" xmlns="http://www.w3.org/2000/svg">
<g clip-path="url(#clip0_2629_6665)">
<path d="M613.56 141.28H188.33V440.74H613.56V141.28Z" fill="white" stroke="black" stroke-width="2.5" stroke-miterlimit="10"/>
<path d="M598.1 157.01H563.07" stroke="black" stroke-width="2.5" stroke-miterlimit="10"/>
<path d="M205.72 162.54C208.813 162.54 211.32 160.033 211.32 156.94C211.32 153.847 208.813 151.34 205.72 151.34C202.627 151.34 200.12 153.847 200.12 156.94C200.12 160.033 202.627 162.54 205.72 162.54Z" fill="#FFC900"/>
<path d="M229.28 162.54C232.373 162.54 234.88 160.033 234.88 156.94C234.88 153.847 232.373 151.34 229.28 151.34C226.187 151.34 223.68 153.847 223.68 156.94C223.68 160.033 226.187 162.54 229.28 162.54Z" fill="#FFC900"/>
<path d="M252.83 162.54C255.923 162.54 258.43 160.033 258.43 156.94C258.43 153.847 255.923 151.34 252.83 151.34C249.737 151.34 247.23 153.847 247.23 156.94C247.23 160.033 249.737 162.54 252.83 162.54Z" fill="#FFC900"/>
<path d="M188.55 170.52H613.38" stroke="black" stroke-width="2" stroke-miterlimit="10"/>
<path d="M460.17 214.34H588.76" stroke="#FFD000" stroke-width="5" stroke-linecap="round" stroke-linejoin="round"/>
<path d="M460.17 241.08H588.76" stroke="#FFD000" stroke-width="5" stroke-linecap="round" stroke-linejoin="round"/>
<path d="M460.17 267.83H588.76" stroke="#FFD000" stroke-width="5" stroke-linecap="round" stroke-linejoin="round"/>
<path d="M460.17 294.57H588.76" stroke="#FFD000" stroke-width="5" stroke-linecap="round" stroke-linejoin="round"/>
<path fill-rule="evenodd" clip-rule="evenodd" d="M269.17 317.23C271.03 316.42 272.96 315.88 274.91 315.6L276.75 310.38L285.85 311.44L286.44 316.94C288.28 317.66 290.03 318.64 291.65 319.85L296.64 317.46L302.32 324.64L298.85 328.95C299.66 330.81 300.2 332.74 300.48 334.69L305.7 336.53L304.64 345.63L299.14 346.22C298.42 348.06 297.44 349.81 296.23 351.43L298.62 356.42L291.44 362.1L287.13 358.63C285.27 359.44 283.34 359.98 281.39 360.26L279.55 365.48L270.45 364.42L269.86 358.92C268.02 358.2 266.27 357.22 264.65 356.01L259.66 358.4L253.98 351.22L257.45 346.91C256.64 345.05 256.1 343.12 255.82 341.17L250.6 339.33L251.66 330.24L257.16 329.65C257.88 327.81 258.86 326.06 260.07 324.44L257.68 319.45L264.86 313.77L269.17 317.24V317.23ZM272.38 329.97C268.12 333.34 267.4 339.51 270.77 343.77C274.14 348.03 280.31 348.75 284.57 345.38C288.82 342.01 289.55 335.84 286.18 331.58C282.81 327.33 276.64 326.6 272.38 329.97Z" fill="black"/>
<path fill-rule="evenodd" clip-rule="evenodd" d="M319.48 379.86C320.89 379.25 322.36 378.84 323.85 378.62L325.25 374.65L332.17 375.46L332.62 379.65C334.02 380.2 335.35 380.94 336.59 381.86L340.39 380.04L344.71 385.5L342.07 388.78C342.68 390.19 343.09 391.66 343.31 393.15L347.28 394.55L346.47 401.47L342.28 401.92C341.73 403.32 340.99 404.65 340.07 405.89L341.89 409.69L336.43 414.01L333.15 411.37C331.74 411.98 330.27 412.39 328.78 412.61L327.38 416.58L320.46 415.77L320.01 411.58C318.61 411.03 317.28 410.29 316.04 409.37L312.24 411.19L307.92 405.73L310.56 402.45C309.95 401.04 309.54 399.57 309.32 398.08L305.35 396.68L306.16 389.76L310.35 389.31C310.9 387.91 311.64 386.58 312.56 385.34L310.74 381.54L316.2 377.22L319.48 379.86ZM321.92 389.55C318.68 392.11 318.13 396.81 320.69 400.05C323.25 403.29 327.95 403.84 331.19 401.28C334.43 398.72 334.98 394.02 332.42 390.78C329.86 387.54 325.16 386.99 321.92 389.55Z" fill="#F7F7F7"/>
<path d="M289.53 424.49H210.62C208.61 424.49 206.98 426.12 206.98 428.13V472.97C206.98 474.98 208.61 476.61 210.62 476.61H289.53C291.54 476.61 293.17 474.98 293.17 472.97V428.13C293.17 426.12 291.54 424.49 289.53 424.49Z" fill="black" stroke="black" stroke-width="0.75" stroke-miterlimit="10"/>
<path d="M193.15 465.12H307.01C320.81 465.12 332.01 476.32 332.01 490.12V513.61C332.01 515.62 330.38 517.25 328.37 517.25H171.79C169.78 517.25 168.15 515.62 168.15 513.61V490.12C168.15 476.32 179.35 465.12 193.15 465.12Z" fill="white" stroke="black" stroke-width="2.5" stroke-miterlimit="10"/>
<path d="M221.74 413.03L107.58 278.57C105.46 276.16 105.7 272.48 108.12 270.36L126.92 254.15C129.33 252.03 133.01 252.27 135.13 254.69L253.53 385.15C255.65 387.56 255.41 391.24 252.99 393.36L229.96 413.56C227.55 415.68 223.87 415.44 221.75 413.02L221.74 413.03Z" fill="white" stroke="black" stroke-width="2.5" stroke-miterlimit="10"/>
<path d="M194.633 92.3798L103.429 232.18C101.673 234.872 102.432 238.478 105.124 240.234L122.167 251.354C124.859 253.11 128.466 252.351 130.222 249.659L221.426 109.859C223.182 107.167 222.424 103.561 219.732 101.805L202.688 90.6854C199.996 88.9291 196.39 89.6877 194.633 92.3798Z" fill="black" stroke="black" stroke-width="0.75" stroke-miterlimit="10"/>
<path d="M224.75 90.78L325.96 226.99C327.76 229.16 327.46 232.38 325.29 234.18L314.77 241.47C312.6 243.27 309.38 242.97 307.58 240.8L200.12 111.2C198.32 109.03 198.62 105.81 200.79 104.01L217.56 90.1C219.73 88.3 222.95 88.6 224.75 90.77V90.78Z" fill="white" stroke="black" stroke-width="2.5" stroke-miterlimit="10"/>
<path d="M212.87 122.96C225.561 122.96 235.85 112.672 235.85 99.98C235.85 87.2885 225.561 77 212.87 77C200.178 77 189.89 87.2885 189.89 99.98C189.89 112.672 200.178 122.96 212.87 122.96Z" fill="#FFC900"/>
<path d="M114.92 285.31C131.444 285.31 144.84 271.914 144.84 255.39C144.84 238.866 131.444 225.47 114.92 225.47C98.3956 225.47 85 238.866 85 255.39C85 271.914 98.3956 285.31 114.92 285.31Z" fill="#FFC900"/>
<path d="M250.08 450.84C270.68 450.84 287.38 434.14 287.38 413.54C287.38 392.94 270.68 376.24 250.08 376.24C229.48 376.24 212.78 392.94 212.78 413.54C212.78 434.14 229.48 450.84 250.08 450.84Z" fill="#FFC900"/>
<path d="M319.38 248.12C315.42 258.59 311.45 269.06 307.49 279.52C306.81 281.31 308.25 283.78 310.11 284.13C320.62 286.13 331.07 288.39 341.47 290.91C343.37 291.37 345.62 290.31 346.08 288.29C346.54 286.27 345.5 284.17 343.46 283.68C333.06 281.16 322.61 278.9 312.1 276.9L314.72 281.51C318.68 271.04 322.65 260.57 326.61 250.11C327.31 248.27 325.84 245.92 323.99 245.5C321.85 245.01 320.12 246.15 319.38 248.12Z" fill="black"/>
<path fill-rule="evenodd" clip-rule="evenodd" d="M378.16 258.99C382.87 258.57 387.55 258.79 392.09 259.6L400.01 249.38L419.39 258.42L416.65 271.05C420.19 274.01 423.37 277.45 426.07 281.33L438.89 279.7L446.21 299.8L435.34 306.79C435.76 311.5 435.54 316.18 434.73 320.72L444.95 328.64L438.85 341.73L435.92 348.02L423.29 345.28C420.33 348.82 416.89 352 413.01 354.7L414.64 367.52L394.54 374.83L387.55 363.96C382.84 364.38 378.16 364.16 373.62 363.35L365.7 373.57L346.32 364.53L349.06 351.89C345.52 348.93 342.34 345.49 339.64 341.61L326.82 343.24L319.5 323.14L330.37 316.15C329.95 311.44 330.17 306.76 330.98 302.22L320.76 294.3L329.8 274.92L342.43 277.66C345.39 274.12 348.83 270.94 352.71 268.24L351.08 255.42L371.18 248.1L378.17 258.97L378.16 258.99ZM375.91 289.59C364 293.92 357.86 307.09 362.2 319C366.53 330.91 379.7 337.05 391.61 332.71C403.52 328.38 409.66 315.21 405.32 303.3C400.99 291.39 387.82 285.25 375.91 289.59Z" fill="#FFC900"/>
<path d="M331.68 247.3C342.87 246.96 354.06 246.62 365.24 246.27L361.62 241.52C360.04 252.44 358.72 263.39 357.69 274.38C357.51 276.34 359.55 278.21 361.44 278.13C363.63 278.03 364.99 276.48 365.19 274.38C366.16 264.05 367.37 253.74 368.85 243.52C369.18 241.22 367.92 238.69 365.23 238.77C354.04 239.11 342.85 239.45 331.67 239.8C329.71 239.86 327.83 241.48 327.92 243.55C328.01 245.62 329.57 247.36 331.67 247.3H331.68Z" fill="black"/>
<path d="M464.33 359.93C463.55 356.39 461.95 353.1 460.92 349.64C460.81 349.27 460.72 348.89 460.61 348.52C460.59 348.34 460.58 348.17 460.57 347.99C460.09 342.9 459.39 337.81 458.17 332.84C458.5 332.25 458.63 331.53 458.41 330.7C457.12 325.79 453.69 319.76 447.93 319.83C445.34 319.86 442.75 320.61 440.18 320.9C438.9 321.04 437.62 321.14 436.33 321.14C434.94 321.01 433.5 321 432.18 320.74C430.59 320.43 428.94 321.19 428.49 322.84C428.08 324.33 428.99 326.19 430.59 326.53C431.04 326.62 431.5 326.7 431.95 326.76C432.28 326.81 432.61 326.86 432.95 326.9C433.24 326.93 433.53 326.96 433.83 326.98C434.17 327.01 434.5 327.03 434.84 327.05C435.05 327.05 435.25 327.07 435.46 327.08C435.57 327.08 436.3 327.08 436.67 327.12C436.74 327.67 436.72 328.89 436.59 329.87C436.38 331.47 436.17 333.07 435.95 334.67C435.76 336.13 437.24 337.46 438.55 337.62C439.9 337.78 441.6 336.96 441.84 335.47C442.06 334.15 442.23 332.29 443.24 331.64C443.22 331.64 443.34 331.66 443.4 331.65C443.52 331.73 443.74 331.86 443.77 331.88C444.38 332.31 444.99 332.89 445.56 333.41C446.73 334.49 447.62 335.56 448.13 337.09C448.78 339.04 449.39 341.01 450 342.98C450.48 344.51 450.69 345.7 450.03 347.17C449.76 347.77 449.36 348.39 448.95 348.91C448.71 349.22 448.43 349.53 448.15 349.8C448.06 349.88 447.79 350.1 448.03 350.01C447.32 350.29 446.05 350.09 445.29 350.11C444.2 350.14 443.11 350.14 442.02 350.08C440.25 349.98 438.48 349.66 436.84 348.98C435.81 348.55 434.82 347.98 433.86 347.4C433.01 346.89 431.82 346.38 431.13 345.67C430.92 345.46 430.52 344.61 430.23 344.19C429.58 343.26 428.76 342.59 427.78 342.04C425.41 340.72 422.82 342.89 423.37 345.43C424.05 348.56 426.39 351.1 429.14 352.63C432.15 354.31 435.58 354.81 438.8 355.91C441.46 356.81 443.98 358.21 445.86 360.32C447.86 362.57 448.97 365.58 450.13 368.31C450.96 370.28 452.59 371.25 454.73 370.78C456.57 370.37 458.4 369.67 460.16 368.98C461.72 368.37 463.36 367.69 464.22 366.14C465.27 364.22 464.79 361.98 464.34 359.96L464.33 359.93ZM436.87 327.15C436.85 327.25 436.81 327.21 436.77 327.11C436.83 327.12 436.87 327.13 436.87 327.15ZM453.39 364.88C453.05 364.98 453.04 364.98 453.39 364.88Z" fill="white"/>
<path d="M442.85 322.57C444.98 321.13 447.46 320.12 450.03 320.91C451.47 321.36 452.41 322.13 453.41 323.22C453.76 323.61 453.36 323.06 453.51 323.35C453.83 323.94 454.2 324.5 454.51 325.1C455.29 326.62 455.89 328.23 456.38 329.87C457.37 333.2 457.88 336.65 458.27 340.1C458.36 340.9 458.89 341.6 459.77 341.6C460.51 341.6 461.36 340.91 461.27 340.1C460.58 334.08 459.61 327.92 456.56 322.59C455.09 320.02 452.44 318.14 449.49 317.73C446.54 317.32 443.75 318.35 441.35 319.98C439.76 321.06 441.26 323.66 442.86 322.57H442.85Z" fill="black"/>
<path d="M466.62 363.44C465.74 356.6 464.12 349.99 462.17 343.39C460.47 337.63 458.38 332.1 454.06 327.77C450.1 323.79 444.95 320.93 439.5 319.61C436.87 318.98 434.12 318.68 431.42 318.85C428.72 319.02 425.99 320.58 426.44 323.64C426.86 326.49 430.02 327.63 432.48 328.07C435.37 328.58 438.59 328.49 441.25 329.88C443.91 331.27 445.91 334.52 447.39 337.16C448.77 339.62 450.9 343.26 448.75 345.87C446.74 348.3 443.19 348.2 440.4 347.56C437.45 346.88 434.64 345.54 432.26 343.64C431.23 342.82 430.29 341.89 429.43 340.89C428.49 339.8 427.55 338.67 425.98 338.65C422.97 338.62 421.86 341.87 421.85 344.36C421.84 351.51 428.58 355.55 434.79 356.8C437.71 357.39 441.37 358.34 443.59 360.45C444.93 361.72 445.58 363.42 446.32 365.07C447.12 366.86 448.11 368.57 448.83 370.4C449.55 372.23 452.43 371.4 451.72 369.6C451.15 368.15 450.47 366.77 449.78 365.38C449.05 363.91 448.47 362.35 447.67 360.91C446.3 358.44 444.13 356.8 441.55 355.75C438.97 354.7 436.26 354.19 433.56 353.45C430.86 352.71 428.22 351.4 426.54 349.12C425.81 348.12 425.26 346.99 424.99 345.78C424.76 344.72 424.61 342.9 425.36 341.99C426.11 341.08 427.07 342.76 427.56 343.3C428.52 344.38 429.59 345.35 430.74 346.23C435 349.5 441.39 352.09 446.79 350.51C449.27 349.78 451.47 347.97 452.33 345.48C453.32 342.59 451.98 339.56 450.69 337C449.32 334.28 447.61 331.56 445.48 329.37C443.35 327.18 440.83 326.26 437.98 325.81C436.55 325.59 435.11 325.46 433.68 325.23C432.43 325.03 430.98 324.83 429.96 323.99C429.1 323.28 429.3 322.32 430.4 321.97C431.57 321.59 433.13 321.76 434.34 321.83C439.55 322.14 444.63 324.14 448.84 327.2C451.22 328.93 453.39 331.11 454.98 333.59C456.68 336.23 457.74 339.22 458.68 342.2C460.86 349.14 462.69 356.19 463.62 363.42C463.86 365.31 466.87 365.33 466.62 363.42V363.44Z" fill="black"/>
<path d="M436.11 328.02C435.47 329.72 435.13 331.53 435.09 333.35C435.07 334.3 435.16 335.24 435.3 336.17C435.43 337.01 435.59 337.89 436.05 338.62C437.02 340.18 439.35 340.63 440.85 339.56C441.46 339.12 441.87 338.55 442.16 337.86C442.5 337.06 442.53 336.21 442.65 335.36C442.61 335.62 442.71 335.11 442.73 335.03C442.75 334.94 442.78 334.84 442.81 334.75C442.76 334.9 442.79 334.81 442.83 334.72C442.93 334.51 442.91 334.59 442.85 334.66C442.91 334.58 442.99 334.51 443.06 334.44C443.13 334.37 443.21 334.3 443.29 334.23C443.17 334.33 443.3 334.22 443.35 334.19C443.44 334.13 443.52 334.08 443.61 334.03C443.64 334.01 443.97 333.85 443.84 333.91C443.71 333.97 443.94 333.88 443.94 333.88C444.06 333.85 444.18 333.81 444.3 333.79C444.48 333.75 444.3 333.79 444.27 333.79C444.39 333.79 444.51 333.79 444.63 333.79C444.81 333.8 444.62 333.79 444.59 333.79C444.74 333.83 444.87 333.87 445.01 333.93C445.76 334.23 446.66 333.6 446.86 332.88C447.09 332.02 446.57 331.34 445.81 331.03C444.22 330.39 442.47 331.04 441.21 332.07C440.57 332.6 440.1 333.29 439.86 334.1C439.74 334.49 439.7 334.89 439.65 335.29C439.63 335.44 439.61 335.59 439.6 335.74C439.6 335.82 439.58 335.89 439.57 335.97C439.6 335.72 439.56 336.05 439.55 336.1C439.52 336.25 439.49 336.4 439.45 336.54C439.43 336.61 439.41 336.68 439.38 336.75C439.47 336.57 439.39 336.71 439.38 336.75C439.34 336.83 439.28 336.91 439.24 336.99C439.14 337.2 439.42 336.79 439.2 337.03C438.98 337.27 439.36 336.97 439.14 337.09C438.91 337.21 439.36 337.07 439.08 337.12C438.8 337.17 439.27 337.15 438.97 337.14C438.87 337.14 438.77 337.14 438.67 337.13C438.84 337.15 438.61 337.11 438.57 337.09C438.82 337.17 438.41 337.01 438.64 337.14C438.58 337.11 438.5 336.92 438.61 337.12C438.57 337.06 438.54 337 438.5 336.93C438.42 336.78 438.5 336.93 438.5 336.95C438.47 336.88 438.45 336.81 438.43 336.74C438.37 336.53 438.32 336.31 438.28 336.09C438.13 335.36 438.07 334.78 438.05 333.98C438.01 332.17 438.3 330.56 438.96 328.82C439.25 328.06 438.64 327.18 437.91 326.97C437.07 326.74 436.35 327.26 436.06 328.02H436.11Z" fill="black"/>
<path d="M321.85 260.15C332.15 260.15 340.5 251.8 340.5 241.5C340.5 231.2 332.15 222.85 321.85 222.85C311.55 222.85 303.2 231.2 303.2 241.5C303.2 251.8 311.55 260.15 321.85 260.15Z" fill="#FFC900"/>
<path fill-rule="evenodd" clip-rule="evenodd" d="M439.01 341.07L436.19 347.97L424.34 342.79C424.34 342.79 421.98 347.33 419.89 348.92C417.8 350.51 415.94 343.65 415.94 343.65L422.71 333.66L429.43 335.34L437.78 340.56L439.01 341.06V341.07Z" fill="#FFC900"/>
<path fill-rule="evenodd" clip-rule="evenodd" d="M555.96 362.84C555.96 362.84 531.45 358.54 523.91 366.19C516.38 373.84 505.61 389.15 501.91 400.51C498.2 411.87 493.9 424.9 493.9 424.9C493.9 424.9 491.51 421.91 488.16 417.37C484.81 412.83 477.4 399.55 476.44 394.77C475.48 389.99 472.85 376.71 472.14 372.05C471.43 367.39 470.59 363.08 470.59 363.08L444.52 370.73C444.52 370.73 447.75 402.54 453.73 416.53C459.71 430.52 471.91 453.48 478.48 460.06C485.06 466.64 494.44 480.85 504.79 464.48C515.07 448.22 524.76 430.4 527.03 423.59C529.3 416.78 532.29 404.58 532.29 404.58C532.29 404.58 531.45 472.02 530.02 490.44C528.59 508.86 526.67 526.55 526.67 526.55C526.67 526.55 568.04 530.85 586.22 530.14C604.4 529.42 636.68 529.9 636.68 529.9C636.68 529.9 661.79 487.81 661.31 472.74C660.83 457.67 661.07 420.37 659.16 407.93C657.25 395.49 653.66 370.62 634.77 366.08C634.77 366.08 618.51 361.06 608.46 361.54C608.46 361.3 598.42 363.69 596.98 350.78C596.74 351.02 579.76 353.65 569.24 348.39C569.48 348.63 570.2 362.98 555.97 362.86L555.96 362.84Z" fill="white"/>
<path d="M556.86 363.87C558.68 367.08 561.34 369.53 564.72 371C568.1 372.47 571.63 373.26 575.13 373.91C583.57 375.48 592.33 374.74 600.14 371.08C604.2 369.18 608.24 366.55 610.09 362.3C610.85 360.55 608.27 359.02 607.5 360.79C606 364.22 603.03 366.25 599.8 367.91C596.36 369.68 592.6 370.84 588.77 371.37C581.71 372.36 574.28 371.21 567.56 368.9C564.05 367.7 561.28 365.59 559.44 362.34C558.49 360.66 555.9 362.17 556.85 363.85L556.86 363.87Z" fill="black"/>
<path d="M595.42 348.95C596.44 354.17 598.97 360.42 604.25 362.66C605.06 363 605.93 363.26 606.82 363.23C608.75 363.18 608.75 360.18 606.82 360.23C606.74 360.23 606.39 360.27 606.34 360.21C606.41 360.29 606.75 360.29 606.41 360.21C606.32 360.19 606.22 360.17 606.13 360.15C605.93 360.1 605.73 360.03 605.54 359.96C605.43 359.92 605.09 359.74 605.51 359.96C605.4 359.91 605.29 359.86 605.19 359.81C604.71 359.57 604.27 359.28 603.83 358.96C604.16 359.2 603.76 358.9 603.7 358.85C603.58 358.75 603.46 358.65 603.35 358.54C603.12 358.33 602.9 358.11 602.69 357.89C602.46 357.65 602.24 357.4 602.03 357.14C601.92 357 601.91 357 602.01 357.11C601.95 357.03 601.89 356.96 601.84 356.88C601.72 356.72 601.61 356.56 601.5 356.4C601.02 355.69 600.59 354.94 600.22 354.16C599.33 352.32 598.74 350.22 598.34 348.16C598.18 347.36 597.23 346.91 596.49 347.11C595.66 347.34 595.29 348.16 595.44 348.96L595.42 348.95Z" fill="black"/>
<path d="M567.23 349.54C566.96 351.42 566.6 353.3 565.99 355.1C565.87 355.47 565.73 355.83 565.58 356.19C565.67 355.98 565.5 356.37 565.47 356.43C565.39 356.6 565.31 356.76 565.23 356.93C564.95 357.47 564.63 357.98 564.28 358.47C564.5 358.17 564.21 358.55 564.16 358.61C564.08 358.71 563.99 358.8 563.91 358.89C563.73 359.08 563.55 359.26 563.35 359.43C563.3 359.48 563.02 359.7 563.19 359.57C563.38 359.42 563.07 359.65 563.03 359.68C562.82 359.82 562.6 359.96 562.38 360.08C562.28 360.13 562.19 360.18 562.09 360.23C561.92 360.31 561.81 360.34 562.07 360.25C561.86 360.33 561.64 360.41 561.42 360.48C561.22 360.54 561.01 360.59 560.8 360.64C560.7 360.66 560.59 360.68 560.49 360.7C560.42 360.71 559.97 360.77 560.24 360.74C560.51 360.71 560.11 360.75 560.03 360.76C559.91 360.77 559.78 360.78 559.66 360.79C559.4 360.81 559.13 360.81 558.87 360.81C558.33 360.81 557.8 360.78 557.27 360.75C556.46 360.69 555.77 361.48 555.77 362.25C555.77 363.11 556.46 363.69 557.27 363.75C559.42 363.91 561.58 363.78 563.57 362.85C566.04 361.7 567.56 359.31 568.54 356.87C569.38 354.79 569.82 352.57 570.13 350.36C570.24 349.56 569.93 348.75 569.08 348.51C568.38 348.32 567.35 348.75 567.23 349.56V349.54Z" fill="black"/>
<path fill-rule="evenodd" clip-rule="evenodd" d="M412.17 102.68C416.84 104.54 421.17 107.01 425.08 109.96L437.5 104.08L451.53 121.98L442.85 132.64C444.79 137.15 446.14 141.94 446.84 146.92L459.78 151.54L457.05 174.12L443.38 175.52C441.52 180.19 439.05 184.52 436.1 188.43L441.98 200.85L424.08 214.88L413.42 206.2C408.91 208.14 404.12 209.49 399.14 210.19L394.51 223.13L371.94 220.4L370.54 206.73C365.87 204.87 361.54 202.4 357.63 199.45L345.21 205.33L331.18 187.43L339.86 176.77C337.92 172.26 336.57 167.47 335.87 162.49L322.93 157.87L325.66 135.3L339.33 133.9C341.19 129.23 343.66 124.9 346.61 120.99L340.73 108.57L358.63 94.54L369.29 103.22C373.8 101.28 378.59 99.93 383.57 99.23L388.2 86.29L410.77 89.02L412.17 102.69V102.68ZM395.32 130.62C381.94 129 369.79 138.53 368.17 151.9C366.55 165.28 376.08 177.43 389.45 179.05C402.82 180.67 414.98 171.14 416.6 157.77C418.22 144.4 408.69 132.24 395.32 130.62Z" fill="#F7F7F7"/>
<path d="M552.72 294.81C552.93 301.48 553.13 308.14 553.34 314.81C553.47 319.18 553.62 323.62 554.95 327.78C555.52 329.58 556.31 331.3 557.13 333C558.16 335.13 559.28 337.25 560.81 339.06C563.78 342.55 568.17 344.62 572.66 345.49C577.15 346.36 581.8 346.12 586.35 345.63C589.99 345.24 593.67 344.67 597.03 343.22C603.72 340.34 608.47 334.31 612.57 328.28C614.37 325.63 616.12 322.88 617.01 319.81C617.63 317.66 617.8 315.41 617.97 313.18C618.47 306.61 618.97 300.03 618.86 293.44C618.84 292.11 618.69 290.58 617.59 289.83C616.86 289.33 615.9 289.33 615.01 289.35C594.05 289.91 573.11 291.39 552.27 293.79" fill="white"/>
<path d="M548.22 294.81C548.45 302.41 548.6 310.02 548.94 317.62C549.12 321.58 549.47 325.65 550.75 329.42C551.93 332.89 553.56 336.48 555.59 339.55C559.63 345.65 566.18 349.12 573.33 350.12C577.2 350.66 581.05 350.63 584.93 350.27C588.81 349.91 592.81 349.48 596.52 348.21C602.95 346.02 608.07 341.6 612.23 336.33C614.42 333.55 616.53 330.65 618.36 327.61C620.45 324.14 621.66 320.53 622.15 316.52C622.62 312.72 622.81 308.86 623.04 305.04C623.27 301.22 623.46 297.3 623.35 293.44C623.3 291.64 623.06 289.83 622.12 288.25C620.77 285.97 618.32 284.94 615.77 284.85C611.91 284.71 607.96 285.07 604.11 285.23C586.79 285.96 569.49 287.32 552.26 289.29C549.93 289.56 547.64 291.17 547.76 293.79C547.86 296 549.76 298.58 552.26 298.29C566.53 296.65 580.85 295.44 595.2 294.66C598.75 294.47 602.29 294.3 605.84 294.16C607.57 294.09 609.31 294.03 611.04 293.97C611.87 293.94 612.69 293.92 613.52 293.89C614.02 293.88 614.51 293.86 615.01 293.85C615.2 293.85 615.4 293.85 615.59 293.85C615.93 293.87 615.85 293.84 615.35 293.76L615.72 293.85C615.11 293.67 614.66 293.32 614.37 292.8C613.92 291.94 614.25 292.33 614.3 292.62C614.47 293.75 614.33 291.6 614.35 292.77C614.35 293.16 614.38 293.55 614.38 293.94C614.41 295.75 614.38 297.56 614.32 299.37C614.21 302.91 613.98 306.45 613.72 309.98C613.59 311.69 613.48 313.39 613.32 315.1C613.33 314.95 613.17 316.52 613.24 315.93C613.31 315.34 613.08 316.89 613.11 316.75C612.94 317.66 612.72 318.57 612.42 319.45C612.4 319.5 611.88 320.82 612.24 319.99C612.12 320.26 612 320.52 611.87 320.78C611.52 321.5 611.13 322.2 610.72 322.89C609.88 324.3 608.96 325.66 608.03 327C607.27 328.1 606.49 329.19 605.68 330.25C606.27 329.48 605.45 330.53 605.39 330.6C605.22 330.81 605.05 331.02 604.88 331.22C604.37 331.83 603.84 332.44 603.3 333.03C602.31 334.1 601.28 335.12 600.17 336.06C599.97 336.23 599.77 336.39 599.56 336.56C598.57 337.38 600.28 336.1 599.22 336.81C598.56 337.25 597.93 337.7 597.25 338.09C596.68 338.42 596.1 338.71 595.51 339.01C594.37 339.59 596.36 338.73 595.02 339.23C594.73 339.34 594.45 339.44 594.16 339.54C592.43 340.13 590.63 340.52 588.83 340.82C588.53 340.87 588.23 340.91 587.92 340.96C588.81 340.83 587.32 341.03 587.29 341.03C586.52 341.12 585.74 341.2 584.96 341.27C583.23 341.43 581.49 341.55 579.75 341.56C578.88 341.56 578.01 341.56 577.15 341.51C576.76 341.49 576.36 341.46 575.97 341.43C575.97 341.43 574.43 341.27 575.29 341.38C573.78 341.18 572.28 340.83 570.84 340.36C570.53 340.26 570.22 340.15 569.91 340.03C569.7 339.95 568.9 339.6 569.71 339.96C569.11 339.69 568.52 339.4 567.95 339.08C567.32 338.73 566.74 338.31 566.13 337.93C565.52 337.55 566.86 338.61 565.96 337.8C565.62 337.49 565.28 337.2 564.95 336.88C564.72 336.65 564.49 336.42 564.28 336.17C564.09 335.96 563.91 335.75 563.74 335.53C563.99 335.85 563.96 335.8 563.65 335.38C563.17 334.63 562.69 333.89 562.26 333.11C561.83 332.33 561.43 331.53 561.05 330.73C560.91 330.45 560.78 330.16 560.64 329.88C560.51 329.6 560.37 329.31 560.24 329.02C560.02 328.52 559.99 328.44 560.13 328.8C559.4 327.07 558.87 325.26 558.53 323.42C558.46 323.04 558.4 322.65 558.33 322.27C558.28 321.95 558.28 321.96 558.33 322.31C558.29 322 558.26 321.69 558.23 321.38C558.14 320.45 558.07 319.51 558.02 318.57C557.59 310.67 557.5 302.73 557.26 294.82C557.19 292.47 555.24 290.21 552.76 290.32C550.28 290.43 548.18 292.3 548.26 294.82L548.22 294.81Z" fill="white"/>
<path d="M560.84 260.5C554.95 263.17 551.81 268.69 550.36 274.77C549.6 277.99 549.22 281.29 548.86 284.57C548.48 288.07 548.02 291.57 547.83 295.09C547.4 303.33 547.91 311.59 548.42 319.81C548.93 328.03 550.33 335.63 555.63 341.82C564.55 352.25 580.88 355.02 593.54 351.04C607.82 346.55 618.43 334.46 622.59 320.28C625.05 311.91 625.44 303.04 624.76 294.38C624.08 285.72 622.33 276.36 619.76 267.67C619.1 265.45 618.38 263.25 617.61 261.07C616.97 259.26 614.07 260.04 614.72 261.87C617.62 270.1 619.74 278.61 620.97 287.25C622.12 295.36 622.57 303.74 621.36 311.87C620.25 319.31 617.74 326.5 613.42 332.69C609.54 338.26 604.29 342.87 598.23 345.92C586.77 351.68 571.5 351.16 561.23 343.04C555.44 338.46 552.67 331.69 551.81 324.5C551.37 320.84 551.24 317.13 551.05 313.45C550.84 309.46 550.69 305.47 550.68 301.48C550.68 294.6 551.37 287.73 552.29 280.92C553.04 275.37 554.29 269.24 558.68 265.37C559.77 264.41 561.03 263.69 562.35 263.09C564.11 262.29 562.58 259.71 560.84 260.5Z" fill="black"/>
<path d="M629.69 286.11C628.86 278.69 627.18 271.4 624.72 264.5C622.72 258.89 620.16 253.45 616.49 249.18C611.1 242.91 603.69 239.58 596.23 238.18C582.65 235.63 568.12 239.29 557.16 249.14C546.2 258.99 539.2 275.15 539.8 291.44H541.03C581.78 286.75 622.83 285.63 663.72 288.1" fill="#FFD100"/>
<path d="M631.19 286.11C629.91 274.98 627.13 263.28 621.4 253.53C616.19 244.66 607.58 239.02 597.58 236.92C587.58 234.82 577.97 235.93 568.99 239.8C559.85 243.74 552.3 250.58 547.04 258.99C541.02 268.62 537.93 280.1 538.3 291.45C538.33 292.26 538.97 292.96 539.8 292.95C543 292.93 546.23 292.36 549.42 292.03C553.53 291.61 557.65 291.22 561.76 290.87C569.99 290.17 578.23 289.61 586.48 289.2C602.97 288.38 619.49 288.14 636 288.48C645.25 288.67 654.49 289.05 663.72 289.6C665.65 289.72 665.64 286.72 663.72 286.6C630.75 284.62 597.65 284.95 564.72 287.61C560.11 287.98 555.5 288.4 550.89 288.87C547.22 289.24 543.48 289.92 539.79 289.94L541.29 291.44C540.68 272.82 549.88 253.42 566.55 244.3C582.21 235.73 605.86 236.61 616.97 252.21C620.26 256.84 622.43 262.17 624.17 267.55C626.11 273.58 627.46 279.81 628.18 286.1C628.4 288 631.4 288.02 631.18 286.1L631.19 286.11Z" fill="black"/>
<path d="M583.41 289.49C582.88 295.16 582.78 300.89 582.71 306.58C582.67 309.82 582.67 313.05 582.76 316.29C582.8 317.54 582.84 318.8 582.93 320.05C583.01 321.19 582.99 322.58 583.52 323.61C584.69 325.86 587.3 324.75 588.86 323.62C590.64 322.34 591.9 320.6 592.61 318.52C593.24 316.69 590.35 315.91 589.72 317.72C589.21 319.2 588.22 320.49 586.89 321.33C586.65 321.48 585.95 321.7 585.78 321.9C585.61 322.1 586.1 322.21 586.15 322.16C586.17 322.14 586.07 321.87 586.08 321.83C586.13 321.45 585.99 320.95 585.96 320.56C585.78 318.26 585.73 315.95 585.7 313.64C585.63 307.96 585.73 302.28 585.97 296.61C586.07 294.23 586.18 291.84 586.4 289.47C586.58 287.55 583.58 287.56 583.4 289.47L583.41 289.49Z" fill="black"/>
<path d="M547.96 316.94C546.66 317.43 544.69 317.1 543.35 316.42C542.62 316.05 542.12 315.51 541.64 314.67C541.09 313.7 540.78 312.61 540.57 311.52C540.16 309.38 540.45 307.24 542.07 305.67C543.69 304.1 545.96 303.89 547.96 304.68C548.71 304.98 549.61 304.35 549.81 303.63C550.04 302.78 549.52 302.08 548.76 301.78C544.21 299.98 538.96 302.67 537.69 307.37C537.05 309.73 537.48 312.46 538.37 314.7C539.19 316.75 540.45 318.44 542.52 319.31C544.36 320.08 546.83 320.56 548.76 319.83C549.52 319.54 550.04 318.82 549.81 317.98C549.61 317.25 548.73 316.64 547.96 316.93V316.94Z" fill="black"/>
<path d="M622.55 316.66C625.07 317.95 628.01 317.29 630.06 315.43C632.11 313.57 633.15 310.81 633.52 308.21C633.89 305.61 633.11 302.81 631.16 300.86C629.09 298.79 626.16 298.07 623.35 298.83C621.49 299.33 622.28 302.23 624.15 301.72C627.92 300.7 631.13 304.08 630.57 307.8C630.3 309.57 629.59 311.55 628.35 312.88C627.3 314.01 625.55 314.83 624.05 314.06C622.33 313.18 620.82 315.77 622.54 316.65L622.55 316.66Z" fill="black"/>
<path d="M493.28 423.2C488.81 416.14 484.11 409.2 480.56 401.61C477.01 394.02 475.55 385.37 474.27 376.92C473.52 372.01 472.84 367.09 472.02 362.19C471.88 361.38 470.9 360.96 470.17 361.14C461.72 363.23 453.4 365.78 445.24 368.8C443.44 369.46 444.22 372.36 446.04 371.69C454.2 368.67 462.53 366.12 470.97 364.03L469.12 362.98C470.6 371.75 471.59 380.61 473.4 389.32C475.14 397.7 478.69 405.24 483.04 412.57C485.48 416.69 488.13 420.66 490.69 424.71C491.72 426.34 494.32 424.83 493.28 423.2Z" fill="black"/>
<path d="M557.29 360.86C553.06 360.76 548.83 360.65 544.6 360.58C540.69 360.51 536.71 360.3 532.81 360.74C529.2 361.15 525.81 362.21 522.9 364.45C519.99 366.69 517.97 369.39 515.91 372.2C507.25 384 501.31 397.53 496.47 411.27C493.7 419.13 491.29 427.11 488.88 435.09C488.32 436.94 491.22 437.73 491.77 435.89C495.86 422.31 499.97 408.65 505.85 395.71C508.76 389.31 512.09 383.09 516.01 377.25C519.8 371.61 523.96 365.46 531.05 364.03C535.05 363.22 539.28 363.51 543.34 363.57C547.98 363.64 552.63 363.75 557.27 363.87C559.2 363.92 559.2 360.92 557.27 360.87L557.29 360.86Z" fill="black"/>
<path d="M531.42 403.54C530.02 406.47 529.49 409.62 528.75 412.76C528.01 415.9 527.16 418.76 526.16 421.7C524.16 427.6 521.63 433.3 518.74 438.82C515.81 444.42 512.52 449.83 509.01 455.1C507.32 457.64 505.57 460.15 503.79 462.64C502.9 463.88 502.01 465.11 501.1 466.33C500.19 467.55 499.19 469.05 497.86 469.91C495.32 471.56 492.75 470.58 490.53 468.95C487.95 467.05 485.52 464.96 483.23 462.73C478.61 458.23 474.74 453.13 471.33 447.66C464.54 436.76 458.78 425.13 454.44 413.04C449.57 399.5 446.54 385.31 446.18 370.91C446.13 368.98 443.13 368.98 443.18 370.91C443.85 397.8 453.53 423.7 467.19 446.61C470.64 452.4 474.48 457.95 479.13 462.84C481.37 465.2 483.77 467.41 486.31 469.45C488.85 471.49 491.27 473.65 494.59 473.78C497.47 473.89 499.9 472.49 501.73 470.36C503.88 467.86 505.74 465.07 507.64 462.38C511.42 457.03 515.01 451.55 518.28 445.87C521.88 439.61 525.07 433.12 527.65 426.37C528.94 423 530.06 419.57 530.99 416.09C531.92 412.61 532.37 408.49 534 405.07C534.83 403.34 532.24 401.81 531.41 403.56L531.42 403.54Z" fill="black"/>
<path d="M530.99 406.25C530.26 416.15 529.87 426.07 529.81 436C529.77 443.21 530.17 450.41 530.15 457.62C530.14 461.96 530.13 466.29 530.12 470.63C530.1 478.14 529.5 485.68 528.94 493.17C528.1 504.37 526.92 515.55 525.4 526.68C525.29 527.48 525.58 528.3 526.45 528.53C536.11 531.08 546.21 530.73 556.12 530.72C566.51 530.71 576.9 530.7 587.29 530.69C597.6 530.68 607.91 530.67 618.21 530.66C620.35 530.66 622.45 531.04 624.57 531.05C626.1 531.06 629.17 530.63 629.53 528.8C629.73 527.78 629.67 526.64 629.71 525.6C629.77 524.14 629.82 522.67 629.86 521.2C630.13 512.03 630.26 502.86 630.33 493.68C630.34 491.75 627.34 491.75 627.33 493.68C627.25 505.3 627.33 517 626.56 528.6L627.3 527.3C624.95 528.67 622.25 527.69 619.71 527.65C616.39 527.6 613.06 527.65 609.73 527.66C602.91 527.66 596.1 527.67 589.28 527.68C575.85 527.69 562.42 527.74 549 527.72C541.69 527.71 534.35 527.51 527.24 525.63L528.29 527.48C529.64 517.63 530.74 507.76 531.56 497.85C532.29 489.15 533.03 480.36 533.11 471.63C533.15 467.49 533.13 463.34 533.14 459.2C533.16 452.79 532.82 446.38 532.8 439.97C532.76 428.72 533.16 417.47 533.98 406.25C534.12 404.32 531.12 404.33 530.98 406.25H530.99Z" fill="black"/>
<path d="M569.97 505.12C589.1 503.96 608.08 500.42 626.33 494.54C630.91 493.06 635.45 491.45 639.92 489.68C643.9 488.1 647.78 486.22 650.67 482.97C653.39 479.91 655.18 476.19 656.57 472.37C658.21 467.86 659.34 463.18 660.09 458.45C661.61 448.89 661.63 439.19 661.42 429.54C661.22 420.22 661.14 410.86 659.84 401.61C658.71 393.59 656.68 385.11 652 378.36C648.52 373.34 643.76 369.35 638.39 366.49C629.67 361.84 619.15 359.48 609.27 359.97C608.54 360.01 607.81 360.06 607.09 360.16C605.2 360.4 605.18 363.4 607.09 363.16C610.74 362.7 614.49 362.92 618.13 363.37C623.22 364 628.29 365.28 633.02 367.26C638.2 369.42 643.02 372.52 646.83 376.66C651.77 382.03 654.24 388.94 655.8 395.96C657.74 404.72 658.06 413.73 658.27 422.66C658.48 431.59 658.82 441.3 658.05 450.59C657.32 459.29 655.73 468.62 651.58 476.41C649.63 480.06 646.97 482.96 643.3 484.92C639.38 487.01 635.05 488.42 630.87 489.88C613.41 495.99 595.18 499.97 576.76 501.63C574.51 501.83 572.25 502 569.99 502.14C568.07 502.26 568.06 505.26 569.99 505.14L569.97 505.12Z" fill="black"/>
<path d="M579.64 336.55C581.96 337.55 584.34 337.49 586.8 337.05C588.91 336.68 591.26 336.29 592.88 334.77C593.47 334.22 593.44 333.21 592.88 332.65C592.29 332.06 591.35 332.09 590.76 332.65C590.26 333.12 589.68 333.32 588.94 333.52C588.04 333.76 587.12 333.95 586.21 334.12C584.58 334.42 582.72 334.63 581.17 333.96C580.43 333.64 579.56 333.74 579.12 334.5C578.75 335.13 578.91 336.23 579.66 336.55H579.64Z" fill="black"/>
<path d="M603.99 298.99C603.9 298.57 603.79 298.12 603.61 297.71C603.59 297.25 603.36 296.8 602.91 296.57C602.64 296.43 602.34 296.42 602.05 296.47C601.27 296.36 600.45 296.74 600.02 297.44C599.57 298.16 599.56 299.1 599.51 299.92C599.45 300.72 599.45 301.53 599.51 302.33C599.52 302.55 599.58 302.76 599.6 302.98C599.56 304.1 599.63 305.22 599.88 306.33C599.97 306.75 600.08 307.2 600.26 307.61C600.28 308.07 600.51 308.52 600.96 308.75C601.23 308.89 601.53 308.9 601.82 308.85C602.6 308.96 603.42 308.58 603.85 307.88C604.3 307.16 604.31 306.22 604.36 305.4C604.42 304.6 604.42 303.79 604.36 302.99C604.35 302.77 604.29 302.56 604.27 302.34C604.31 301.22 604.24 300.1 603.99 298.99Z" fill="black"/>
<path d="M571.51 299C571.42 298.58 571.31 298.13 571.13 297.72C571.11 297.26 570.88 296.81 570.43 296.58C570.16 296.44 569.86 296.43 569.57 296.48C568.79 296.37 567.97 296.75 567.54 297.45C567.09 298.17 567.08 299.11 567.03 299.93C566.97 300.73 566.97 301.54 567.03 302.34C567.04 302.56 567.1 302.77 567.12 302.99C567.08 304.11 567.15 305.23 567.4 306.34C567.49 306.76 567.6 307.21 567.78 307.62C567.8 308.08 568.03 308.53 568.48 308.76C568.75 308.9 569.05 308.91 569.34 308.86C570.12 308.97 570.94 308.59 571.37 307.89C571.82 307.17 571.83 306.23 571.88 305.41C571.94 304.61 571.94 303.8 571.88 303C571.87 302.78 571.81 302.57 571.79 302.35C571.83 301.23 571.76 300.11 571.51 299Z" fill="black"/>
<path d="M567.21 477.37C582.11 475.26 597.25 473.58 611.49 468.44C615.05 467.15 618.55 465.67 621.93 463.96C625.31 462.25 628.28 460.42 629.86 456.78C631.44 453.14 631.83 449.07 632.19 445.13C632.58 440.86 632.87 436.59 633.09 432.31C633.58 422.6 633.66 412.87 633.61 403.14C633.61 401.21 630.6 401.21 630.61 403.14C630.65 411.38 630.6 419.63 630.29 427.86C630.13 431.98 629.91 436.09 629.61 440.2C629.31 444.31 629.12 448.33 628.19 452.25C627.78 454 627.23 455.75 626.22 457.25C625.21 458.75 623.61 459.7 622 460.55C618.67 462.31 615.23 463.85 611.7 465.17C605.01 467.67 598.05 469.4 591.04 470.73C582.88 472.27 574.63 473.31 566.41 474.47C564.51 474.74 565.32 477.63 567.21 477.36V477.37Z" fill="black"/>
<path d="M565.38 483.91C557.43 483.74 549.78 480.55 541.84 480.28C534.75 480.04 527.73 482.15 521.43 485.39C520.04 486.11 518.62 486.93 517.78 488.26C517.54 488.64 517.36 489.13 517.57 489.52C517.78 489.89 518.25 490.01 518.67 490.07C520.11 490.28 521.57 490.3 523.02 490.13C522.43 490.9 521.89 491.71 521.43 492.56C521.14 493.08 520.88 493.74 521.19 494.25C521.45 494.68 522.02 494.82 522.35 495.19C523.34 496.28 521.73 498.28 522.64 499.43C523.41 500.41 525.19 499.76 526.08 500.63C525.2 501.86 524.79 503.42 524.95 504.93C524.98 505.21 525.03 505.5 525.22 505.72C525.56 506.13 526.19 506.1 526.72 506.03C532.2 505.34 537.75 504.63 542.85 502.53C544.09 502.02 545.31 501.43 546.59 501.03C548.15 500.55 549.79 500.37 551.41 500.21C557.58 499.61 563.82 499.3 569.8 497.69C568.25 493.2 566.69 488.71 565.14 484.23" fill="white"/>
<path d="M565.38 482.41C557.02 482.18 549.1 478.76 540.71 478.76C536.59 478.76 532.46 479.51 528.55 480.78C526.63 481.4 524.75 482.16 522.91 483C521.22 483.78 519.47 484.58 518.02 485.77C516.69 486.86 515.15 488.92 516.5 490.57C517.85 492.22 521.18 491.81 523.01 491.62L521.71 489.36C520.78 490.59 519.4 492.28 519.55 493.92C519.62 494.69 520.01 495.29 520.61 495.76C521.21 496.23 521.22 496 521.1 496.73C520.89 498.04 520.58 499.39 521.57 500.48C521.99 500.95 522.57 501.24 523.18 501.4C523.61 501.51 524.66 501.4 525.01 501.69L524.78 499.87C523.69 501.51 522.95 503.92 523.62 505.87C524.36 508.04 526.79 507.51 528.54 507.29C533.15 506.69 537.79 506.01 542.17 504.39C544.36 503.58 546.4 502.49 548.71 502.06C551.02 501.63 553.37 501.53 555.68 501.33C560.56 500.9 565.45 500.39 570.19 499.14C570.94 498.94 571.5 498.06 571.24 497.29C569.69 492.8 568.13 488.31 566.58 483.83C565.95 482.02 563.05 482.8 563.69 484.63C565.24 489.12 566.8 493.61 568.35 498.09L569.4 496.24C565.22 497.34 560.93 497.84 556.64 498.24C552.76 498.59 548.6 498.58 544.93 500.03C543.09 500.75 541.32 501.57 539.43 502.15C537.54 502.73 535.58 503.17 533.62 503.52C531.66 503.87 529.63 504.15 527.63 504.4C527.1 504.47 526.59 504.52 526.06 504.55L526.44 504.79C526.42 504.55 526.41 504.32 526.42 504.08C526.46 503.08 526.83 502.2 527.38 501.37C527.71 500.87 527.64 499.95 527.15 499.55C526.72 499.2 526.29 498.92 525.76 498.76C525.23 498.6 524.62 498.68 524.09 498.51C523.79 498.41 523.81 498.55 523.9 498.1C524.01 497.54 524.16 496.97 524.19 496.4C524.25 495.27 523.82 494.33 522.9 493.67C522.77 493.58 522.65 493.5 522.52 493.42C522.31 493.27 522.33 493.33 522.59 493.61C522.72 493.31 522.88 493.03 523.05 492.75C523.44 492.09 523.87 491.47 524.33 490.86C524.99 489.99 524.11 488.49 523.03 488.6C522.39 488.67 521.75 488.71 521.1 488.72C520.51 488.72 519.73 488.51 519.17 488.61C518.73 488.44 518.65 488.49 518.93 488.77C519.06 489.1 519.19 489.07 519.32 488.68C519.73 488.43 520.08 487.94 520.49 487.65C522.14 486.51 524.11 485.68 525.96 484.91C530.07 483.21 534.46 482.03 538.92 481.79C547.93 481.3 556.44 485.14 565.4 485.39C567.33 485.44 567.33 482.44 565.4 482.39L565.38 482.41Z" fill="white"/>
<path d="M566.45 481.25C560.42 481.08 554.77 478.7 548.85 477.79C543.55 476.98 538.16 477.18 532.93 478.37C527.81 479.54 522.85 481.68 518.52 484.67C516.63 485.98 514.13 487.76 514.24 490.37C514.34 492.82 516.79 493.52 518.82 493.17C520.3 492.91 521.69 492.15 523.06 491.58C524.74 490.87 526.42 490.16 528.1 489.45C531.46 488.03 534.82 486.62 538.18 485.2C538.93 484.88 539.45 484.21 539.23 483.35C539.04 482.64 538.13 481.99 537.38 482.3C532.19 484.49 526.99 486.68 521.8 488.87C520.76 489.31 519.73 489.84 518.64 490.14C518.34 490.22 517.82 490.39 517.51 490.29C517.14 490.16 517.23 490.31 517.34 489.88C517.57 488.93 518.8 488.15 519.54 487.62C520.49 486.94 521.47 486.31 522.47 485.72C530.46 481.02 540.19 479.21 549.32 480.9C555.06 481.96 560.57 484.08 566.45 484.25C568.38 484.3 568.38 481.3 566.45 481.25Z" fill="black"/>
<path d="M524.55 487.8C522.89 488.53 521.3 489.49 519.75 490.44C518.33 491.31 517.08 492.35 517.04 494.18C517 496.27 518.66 497.75 520.67 497.89C522.01 497.98 523.29 497.45 524.54 497.05C526.08 496.55 527.63 496.07 529.17 495.57C532.6 494.46 536 493.25 539.27 491.74C540 491.4 540.19 490.34 539.81 489.69C539.36 488.94 538.5 488.81 537.76 489.15C534.72 490.55 531.56 491.65 528.37 492.68C526.77 493.2 525.17 493.7 523.57 494.22C522.68 494.51 521.26 495.19 520.41 494.83C520.19 494.74 520.33 494.83 520.18 494.68C520.11 494.61 520.05 494.45 520.09 494.55C520.03 494.4 519.97 494.27 520.09 493.97C520.07 494.02 520.56 493.44 520.18 493.75C520.44 493.54 520.74 493.37 521.02 493.2C522.63 492.19 524.31 491.18 526.06 490.41C526.8 490.09 526.98 489 526.6 488.36C526.15 487.6 525.3 487.49 524.55 487.82V487.8Z" fill="black"/>
<path d="M521.95 494.95C520.03 496.13 518.25 498.64 519.48 500.89C520.71 503.14 523.59 503.1 525.82 502.65C530.87 501.64 535.73 499.93 540.46 497.93C541.21 497.61 541.37 496.51 541 495.88C540.55 495.11 539.7 495.02 538.95 495.34C535.55 496.78 532.05 498.03 528.47 498.96C527.62 499.18 526.76 499.39 525.89 499.58C525.02 499.77 524.09 500.05 523.2 499.96C522.73 499.91 522.03 499.73 522.07 499.15C522.11 498.57 523.01 497.81 523.46 497.54C525.1 496.53 523.6 493.93 521.95 494.95Z" fill="black"/>
<path d="M527.24 499.43C524.99 500.24 523.13 501.99 522.42 504.33C521.53 507.23 523.6 509.65 526.52 509.72C529.79 509.8 532.7 508.5 535.71 507.43C538.88 506.31 542.06 505.24 545.2 504.05C546.99 503.37 546.21 500.47 544.4 501.16C542.01 502.07 539.6 502.9 537.19 503.74C534.78 504.58 532.47 505.6 530.06 506.28C529.06 506.56 525.26 507.55 525.21 505.74C525.17 504.25 526.78 502.78 528.04 502.32C529.84 501.67 529.06 498.77 527.24 499.43Z" fill="black"/>
<path d="M545.05 504.03C552.64 504.35 560.16 502.99 567.55 501.4C569.44 500.99 568.64 498.1 566.75 498.51C559.61 500.05 552.39 501.34 545.05 501.03C543.12 500.95 543.12 503.95 545.05 504.03Z" fill="black"/>
<path d="M565.17 475.78C565.5 480.62 565.67 485.46 566.01 490.3C566.35 495.14 566.67 499.6 567.78 504.09C568.25 505.96 571.14 505.17 570.67 503.29C569.59 498.93 569.28 494.38 568.98 489.91C568.66 485.2 568.49 480.48 568.17 475.78C568.04 473.86 565.04 473.85 565.17 475.78Z" fill="black"/>
<path d="M439.98 473.27V484.36H378.3C375.24 484.36 372.76 481.88 372.76 478.82C372.76 475.76 375.24 473.28 378.3 473.28H439.98V473.27Z" fill="#F8F8F8"/>
<path d="M466.21 484H452.94V473.63H466.21C464.14 468.33 458.98 464.57 452.94 464.57C445.07 464.57 438.69 470.95 438.69 478.82C438.69 486.69 445.07 493.07 452.94 493.07C458.98 493.07 464.13 489.31 466.21 484.01V484Z" fill="#F8F8F8"/>
<path d="M383.14 513.55C394.42 513.23 402.02 512.87 402.02 512.87C402.02 512.87 410.57 512.49 413.51 510.22C413.68 510.17 416.97 507.57 423.25 510.79C423.25 510.79 430.21 515.14 431.82 505.65C431.86 505.4 431.88 505.14 431.89 504.89C431.89 504.16 431.89 502.39 431.89 501.59C431.89 501.32 431.87 501.05 431.82 500.79C430.21 491.33 423.25 495.67 423.25 495.67C416.97 498.88 413.68 496.28 413.51 496.24C410.57 493.96 402.02 493.59 402.02 493.59C402.02 493.59 394.42 493.23 383.14 492.91C371.86 492.59 371.97 502.06 371.97 502.06V504.44C371.97 504.44 371.86 513.91 383.14 513.59V513.55Z" fill="#F8F8F8"/>
<path d="M430.95 504.59H460.53C460.93 504.59 461.42 504.71 461.8 504.82C462.34 504.98 462.9 505.05 463.46 505.05H465.91V502.84V501.37H463.46C462.9 501.37 462.34 501.44 461.8 501.6C461.41 501.72 460.92 501.83 460.53 501.83C459.73 501.83 430.95 501.83 430.95 501.83V504.57V504.59Z" fill="#F8F8F8"/>
</g>
<defs>
<clipPath id="clip0_2629_6665">
<rect width="580.18" height="454.04" fill="white" transform="translate(85 77)"/>
</clipPath>
</defs>
</svg>
