<svg width="593" height="382" viewBox="0 0 593 382" fill="none" xmlns="http://www.w3.org/2000/svg">
<g clip-path="url(#clip0_2262_6277)">
<path d="M557.278 1.60742H69.1772V345.345H557.278V1.60742Z" stroke="#121212" stroke-width="2" stroke-miterlimit="10"/>
<path d="M539.529 19.6777H499.338" stroke="#121212" stroke-width="2" stroke-miterlimit="10"/>
<path d="M89.1445 26.0118C92.696 26.0118 95.5751 23.1327 95.5751 19.5811C95.5751 16.0295 92.696 13.1504 89.1445 13.1504C85.593 13.1504 82.7139 16.0295 82.7139 19.5811C82.7139 23.1327 85.593 26.0118 89.1445 26.0118Z" fill="#FFD400"/>
<path d="M116.186 26.0118C119.737 26.0118 122.616 23.1327 122.616 19.5811C122.616 16.0295 119.737 13.1504 116.186 13.1504C112.634 13.1504 109.755 16.0295 109.755 19.5811C109.755 23.1327 112.634 26.0118 116.186 26.0118Z" fill="#FFD400"/>
<path d="M143.226 26.0118C146.778 26.0118 149.657 23.1327 149.657 19.5811C149.657 16.0295 146.778 13.1504 143.226 13.1504C139.674 13.1504 136.795 16.0295 136.795 19.5811C136.795 23.1327 139.674 26.0118 143.226 26.0118Z" fill="#FFD400"/>
<path d="M69.4346 35.1758H557.085" stroke="#121212" stroke-width="2" stroke-miterlimit="10"/>
<path d="M199.221 178.243H169.72L164.174 191.844H144.802L178.868 115.318H190.298L224.043 191.844H204.655L199.205 178.243H199.221ZM175.492 162.889H193.449L184.414 141.347L175.492 162.889Z" fill="#121212"/>
<path d="M250.28 212.711V219.447H243.543" stroke="#121212" stroke-width="2" stroke-miterlimit="10"/>
<path d="M230.409 219.447H131.876" stroke="#121212" stroke-width="2" stroke-miterlimit="10"/>
<path d="M125.317 219.447H118.564V212.711" stroke="#121212" stroke-width="2" stroke-miterlimit="10"/>
<path d="M118.564 199.576V101.042" stroke="#121212" stroke-width="2" stroke-miterlimit="10"/>
<path d="M118.564 94.4827V87.7305H125.317" stroke="#121212" stroke-width="2" stroke-miterlimit="10"/>
<path d="M138.451 87.7305H236.968" stroke="#121212" stroke-width="2" stroke-miterlimit="10"/>
<path d="M243.543 87.7305H250.28V94.4827" stroke="#121212" stroke-width="2" stroke-miterlimit="10"/>
<path d="M250.28 107.617V206.136" stroke="#121212" stroke-width="2" stroke-miterlimit="10"/>
<path d="M125.799 80.4961H111.33V94.9652H125.799V80.4961Z" fill="#121212"/>
<path d="M243.061 94.9658H257.53V80.4967H243.061V94.9658Z" fill="#121212"/>
<path d="M243.061 226.698H257.53V212.229H243.061V226.698Z" fill="#121212"/>
<path d="M111.33 226.698H125.799V212.229H111.33V226.698Z" fill="#121212"/>
<path d="M341.932 281.167H214.863" stroke="#121212" stroke-width="2" stroke-miterlimit="10"/>
<path d="M411.592 281.167H353.379" stroke="#121212" stroke-width="2" stroke-miterlimit="10"/>
<path d="M284.523 304.076H411.592" stroke="#121212" stroke-width="2" stroke-miterlimit="10"/>
<path d="M214.863 304.076H273.06" stroke="#121212" stroke-width="2" stroke-miterlimit="10"/>
<path d="M546.314 382.016C572.098 382.016 593 361.114 593 335.33C593 309.545 572.098 288.643 546.314 288.643C520.53 288.643 499.627 309.545 499.627 335.33C499.627 361.114 520.53 382.016 546.314 382.016Z" fill="#FFD200"/>
<path d="M535.558 331.07L527.054 336.214L535.558 341.343V347.195L521.331 338.899V333.529L535.558 325.153V331.086V331.07Z" fill="#121212"/>
<path d="M548.5 316.568H553.596L544.191 354.075H539.047L548.5 316.568Z" fill="#121212"/>
<path d="M571.313 333.53V338.899L557.085 347.195V341.343L565.573 336.215L557.085 331.07V325.138L571.313 333.514V333.53Z" fill="#121212"/>
<path d="M470.014 153.598C494.804 153.598 514.9 133.502 514.9 108.712C514.9 83.9215 494.804 63.8252 470.014 63.8252C445.224 63.8252 425.128 83.9215 425.128 108.712C425.128 133.502 445.224 153.598 470.014 153.598Z" fill="#FFD200"/>
<path d="M84.6752 122.714H9.5334C4.26825 122.714 0 126.982 0 132.247V163.935C0 169.2 4.26825 173.468 9.5334 173.468H84.6752C89.9404 173.468 94.2086 169.2 94.2086 163.935V132.247C94.2086 126.982 89.9404 122.714 84.6752 122.714Z" fill="#FFD200"/>
<path d="M31.4618 150.832V157.873H27.0729V151.459C27.0729 149.851 26.1083 148.79 24.7418 148.79C23.2949 148.79 22.3303 149.819 22.3303 151.459V157.873H17.9414V138.051H22.3303V145.912C23.0859 145.269 24.1952 144.851 25.626 144.851C29.0342 144.851 31.4618 147.231 31.4618 150.816V150.832Z" fill="#121212"/>
<path d="M35.6577 152.906V148.806H33.0854V145.109H35.8024V140.72H40.0466V145.109H44.5159V148.806H40.0466V152.391C40.0466 153.726 40.963 154.16 42.024 154.16C42.9725 154.16 43.5995 153.774 43.9371 153.581L45.4322 156.829C44.8696 157.214 43.5513 158.131 40.963 158.131C37.603 158.131 35.6577 156.266 35.6577 152.906Z" fill="#121212"/>
<path d="M68.9365 150.832V157.873H64.5476V151.459C64.5476 149.851 63.7116 148.79 62.4737 148.79C61.1072 148.79 60.223 149.819 60.223 151.459V157.873H55.8341V151.459C55.8341 149.851 54.9499 148.79 53.7763 148.79C52.3937 148.79 51.4934 149.819 51.4934 151.459V157.873H47.1045V145.108H50.159L50.3198 147.247C50.9789 145.88 52.6027 144.867 54.5158 144.867C56.4289 144.867 57.9883 145.639 58.9851 146.861C59.7889 145.751 61.1715 144.867 62.956 144.867C66.3642 144.867 68.9204 147.247 68.9204 150.832H68.9365Z" fill="#121212"/>
<path d="M71.8784 138.066H76.2673V157.889H71.8784V138.066Z" fill="#121212"/>
<path d="M497.827 86.2676H366.111V217.984H497.827V86.2676Z" stroke="#121212" stroke-width="2" stroke-miterlimit="10"/>
<path d="M366.111 164.225L395.322 139.273L464.066 183.903L497.827 159.852" stroke="#121212" stroke-width="2" stroke-miterlimit="10"/>
</g>
<defs>
<clipPath id="clip0_2262_6277">
<rect width="593" height="382" fill="white"/>
</clipPath>
</defs>
</svg>
