<svg width="750" height="608" viewBox="0 0 750 608" fill="none" xmlns="http://www.w3.org/2000/svg">
<g clip-path="url(#clip0_2426_7636)">
<path d="M114.64 379.036C168.519 378.99 222.306 375.53 276.185 375.485C278.372 375.485 278.372 372.07 276.185 372.07C222.306 372.116 168.519 375.576 114.64 375.621C112.453 375.621 112.453 379.036 114.64 379.036Z" fill="#121212"/>
<path d="M113.091 377.67C127.028 417.686 145.883 456.382 165.103 494.123C166.105 496.08 169.065 494.35 168.063 492.393C148.98 454.926 130.261 416.503 116.416 376.759C115.687 374.711 112.408 375.576 113.137 377.67H113.091Z" fill="#121212"/>
<path d="M166.56 494.669C220.895 493.713 275.229 494.214 329.518 494.305C331.704 494.305 331.704 490.89 329.518 490.89C275.183 490.799 220.849 490.253 166.56 491.255C164.374 491.255 164.374 494.714 166.56 494.669Z" fill="#121212"/>
<path d="M274.5 374.574C292.354 414.09 310.162 453.605 328.015 493.121C328.926 495.124 331.841 493.394 330.975 491.391C313.122 451.875 295.314 412.36 277.461 372.844C276.55 370.841 273.635 372.571 274.5 374.574Z" fill="#121212"/>
<path d="M396.605 299.23C382.031 302.007 366.91 306.878 354.795 315.619C341.542 325.225 338.171 339.338 335.393 354.725C330.156 383.725 327.787 419.325 307.019 442.179C305.562 443.818 307.93 446.23 309.433 444.591C328.698 423.422 332.433 391.737 337.078 364.695C339.72 349.217 341.086 331.416 353.884 320.627C365.908 310.475 382.304 305.376 397.516 302.508C399.656 302.098 398.745 298.821 396.605 299.23Z" fill="#121212"/>
<path d="M488.786 344.482C485.872 381.13 489.47 417.959 499.398 453.332C499.99 455.426 503.27 454.561 502.678 452.422C492.84 417.322 489.287 380.856 492.202 344.482C492.384 342.297 488.969 342.297 488.786 344.482Z" fill="#121212"/>
<path d="M501.903 451.466C489.105 445.821 474.167 447.96 460.594 446.139C444.654 443.954 428.987 440.267 412.864 439.72C410.678 439.629 410.678 443.044 412.864 443.135C428.486 443.635 443.697 447.186 459.091 449.326C466.06 450.282 473.028 450.874 480.087 450.965C487.147 451.056 493.887 451.648 500.173 454.425C502.176 455.29 503.907 452.376 501.903 451.466Z" fill="#121212"/>
<path d="M410.314 442.224C409.585 452.513 408.355 462.71 406.716 472.908C406.351 475.048 409.676 476.004 409.995 473.818C411.68 463.348 412.955 452.831 413.729 442.224C413.912 440.039 410.45 440.039 410.314 442.224Z" fill="#121212"/>
<path d="M408.765 475.958C426.527 480.465 444.517 484.016 462.28 488.705C478.812 493.076 494.707 499.54 511.786 501.816C523.582 503.41 535.652 503.455 547.402 501.452C552.139 500.633 559.654 499.904 563.707 496.945C566.394 494.988 567.442 489.661 568.444 486.611C570.812 479.418 572.36 471.952 573.226 464.395C575.048 448.233 573.59 431.844 570.129 416.002C563.616 385.864 550.681 354.907 531.052 330.87C510.238 305.331 477.856 288.851 444.426 294.314C442.24 294.678 443.197 297.956 445.337 297.591C510.375 286.938 550.044 353.815 564.481 407.215C568.58 422.33 570.994 437.99 570.539 453.696C570.311 461.299 569.446 468.902 567.76 476.322C567.032 479.464 566.166 482.605 565.164 485.655C564.527 487.567 563.525 492.575 562.25 493.849C559.562 496.444 552.048 497.082 548.632 497.719C537.792 499.813 526.543 499.995 515.612 498.812C497.85 496.854 481.454 490.162 464.284 485.609C446.202 480.784 427.848 477.187 409.721 472.589C407.581 472.043 406.67 475.321 408.811 475.867L408.765 475.958Z" fill="#121212"/>
<path d="M366.545 351.265C363.949 377.897 364.633 404.211 370.234 430.433C370.69 432.573 373.969 431.662 373.514 429.523C367.957 403.573 367.365 377.579 369.961 351.265C370.189 349.08 366.773 349.08 366.545 351.265Z" fill="#121212"/>
<path d="M385.674 304.238C386.949 310.93 388.771 318.578 394.646 322.767C401.023 327.274 409.539 326.545 416.735 325.225C425.024 323.677 434.361 321.537 441.238 316.348C447.705 311.476 451.759 304.01 455.175 296.863C456.131 294.905 453.171 293.175 452.214 295.133C449.254 301.324 445.884 307.789 440.692 312.387C434.953 317.486 426.618 319.625 419.24 321.219C412.318 322.721 404.529 324.178 397.926 320.718C391.731 317.486 390.183 309.519 388.999 303.327C388.589 301.188 385.31 302.098 385.72 304.238H385.674Z" fill="#121212"/>
<path d="M432.403 264.95C433.541 271.141 434.771 277.333 436.137 283.524C437.276 288.896 439.28 294.314 444.062 297.455C445.884 298.684 447.614 295.725 445.793 294.496C441.42 291.628 440.1 286.074 439.189 281.293C438.05 275.557 436.82 269.821 435.773 264.085C435.363 261.945 432.084 262.856 432.494 264.995L432.403 264.95Z" fill="#121212"/>
<path d="M396.969 271.005C397.971 280.519 398.654 290.489 396.832 299.913C396.423 302.053 399.702 302.963 400.112 300.824C401.979 291.036 401.387 280.838 400.339 271.005C400.112 268.82 396.696 268.82 396.924 271.005H396.969Z" fill="#121212"/>
<path d="M361.126 187.148C359.395 205.039 356.571 224.16 359.167 242.096C360.124 248.698 362.31 255.344 367.001 260.261C372.011 265.496 379.116 268.091 385.993 269.867C401.296 273.827 416.872 274.92 431.446 267.864C444.016 261.763 454.218 251.11 460.959 239.001C469.658 223.386 472.254 205.039 472.755 187.421C472.8 185.236 469.385 185.236 469.339 187.421C468.793 205.585 466.06 224.387 456.359 240.093C447.569 254.388 433.496 266.27 416.599 269.138C406.169 270.914 395.284 268.956 385.173 266.134C375.062 263.311 367.001 258.258 363.813 247.833C361.08 238.864 361.627 228.94 361.991 219.698C362.401 208.818 363.448 198.028 364.496 187.193C364.724 185.008 361.308 185.008 361.08 187.193L361.126 187.148Z" fill="#121212"/>
<path d="M357.027 188.24C418.466 188.24 479.951 188.24 541.39 188.24C543.576 188.24 543.576 184.826 541.39 184.826C479.951 184.826 418.466 184.826 357.027 184.826C354.841 184.826 354.841 188.24 357.027 188.24Z" fill="#121212"/>
<path d="M356.48 186.829C358.256 176.222 359.987 164.34 363.995 154.37C368.003 144.4 374.561 135.113 383.852 129.741C392.734 124.596 403.254 123.458 413.502 123.049C431.492 122.32 450.939 124.141 464.785 135.705C479.541 147.996 484.505 166.707 484.688 185.919L356.48 186.829Z" fill="#FFD400"/>
<path d="M358.256 187.284C360.989 170.622 363.448 152.776 374.971 139.574C386.494 126.372 405.486 124.46 422.565 124.779C439.644 125.097 455.676 128.512 467.335 140.621C478.995 152.731 482.501 169.666 482.82 185.873L484.688 184.007C447.205 184.28 409.722 184.553 372.239 184.826C367.001 184.826 361.763 184.917 356.48 184.917C354.066 184.917 354.066 188.65 356.48 188.65C393.963 188.377 431.446 188.104 468.929 187.831C474.167 187.831 479.404 187.74 484.688 187.74C485.69 187.74 486.555 186.875 486.555 185.873C486.236 169.211 482.593 152.003 471.161 139.256C459.729 126.509 441.648 121.683 424.432 121.091C407.217 120.499 387.177 121.728 374.197 134.976C361.217 148.224 357.71 168.118 354.704 186.283C354.34 188.605 357.892 189.652 358.302 187.284H358.256Z" fill="#121212"/>
<path d="M399.019 253.705C405.941 253.387 412.454 249.562 416.098 243.644C417.236 241.778 414.276 240.048 413.137 241.914C410.177 246.785 404.757 250.018 399.019 250.291C398.108 250.291 397.288 251.065 397.288 252.021C397.288 252.931 398.062 253.751 399.019 253.751V253.705Z" fill="#121212"/>
<path d="M393.735 186.92C391.367 196.116 391.458 205.859 390.957 215.282C390.821 217.65 390.684 220.017 390.593 222.384C390.502 224.023 390.092 226.117 391.048 227.574C393.143 230.715 397.607 227.802 399.429 225.89C400.931 224.296 398.518 221.838 397.015 223.477C396.468 224.069 395.876 224.615 395.147 225.025C395.102 225.025 393.735 225.48 393.918 225.707C393.599 225.343 393.918 223.613 393.963 223.204C393.963 222.43 394.054 221.61 394.1 220.836C394.282 217.012 394.51 213.188 394.692 209.41C395.056 202.171 395.238 194.887 397.06 187.876C397.607 185.737 394.328 184.826 393.781 186.966L393.735 186.92Z" fill="#121212"/>
<path d="M452.214 209.273C454.719 210.639 455.266 214.007 454.719 216.602C454.355 218.287 453.672 219.926 452.351 221.064C451.121 222.111 449.527 222.43 448.024 221.838C447.159 221.519 446.157 222.202 445.929 223.021C445.656 223.977 446.248 224.797 447.113 225.116C449.436 226.026 452.169 225.434 454.127 223.932C456.086 222.43 457.406 220.108 457.953 217.695C458.909 213.552 457.953 208.453 453.945 206.268C452.032 205.221 450.301 208.135 452.214 209.227V209.273Z" fill="#121212"/>
<path d="M328.607 490.708C339.629 486.884 349.922 481.285 359.122 474.092C360.852 472.726 358.439 470.359 356.708 471.679C347.963 478.462 338.126 483.788 327.696 487.385C325.647 488.113 326.512 491.391 328.607 490.663V490.708Z" fill="#121212"/>
<path d="M330.52 494.305C353.793 494.806 377.066 494.942 400.294 494.714C404.666 494.669 404.712 487.84 400.294 487.886C377.021 488.159 353.748 488.022 330.52 487.476C326.102 487.385 326.102 494.214 330.52 494.305Z" fill="#121212"/>
<path d="M411.224 442.315C400.248 437.535 388.726 430.297 376.565 429.386C364.405 428.476 354.886 436.852 347.189 445.047C343.591 448.871 339.948 453.332 338.308 458.431C337.306 461.481 336.623 466.899 340.631 467.991C345.367 469.266 349.603 462.665 352.336 459.797C356.571 455.335 360.989 451.102 366.728 448.689C368.732 447.824 367.001 444.91 364.997 445.73C356.799 449.189 351.425 456.155 345.276 462.255C344.274 463.257 342.452 465.852 340.995 463.257C340.631 462.574 341.223 460.434 341.405 459.706C341.86 457.976 342.908 456.291 343.819 454.789C346.46 450.419 350.149 446.731 353.839 443.226C362.037 435.532 371.009 430.752 382.486 433.848C391.914 436.397 400.613 441.359 409.539 445.229C411.543 446.094 413.274 443.135 411.27 442.27L411.224 442.315Z" fill="#121212"/>
<path d="M342.088 468.447C344.411 470.313 347.098 472.089 350.195 471.133C353.292 470.176 356.116 467.718 358.621 465.761C363.403 462.028 367.73 457.247 373.514 455.108C375.563 454.334 374.652 451.056 372.603 451.83C367.456 453.742 363.448 457.338 359.349 460.798C357.118 462.71 354.795 464.486 352.336 466.125C351.243 466.853 349.922 467.9 348.51 467.991C347.007 468.082 345.595 466.899 344.502 466.034C342.817 464.668 340.357 467.081 342.088 468.447Z" fill="#121212"/>
<path d="M350.696 470.768C351.88 474.547 356.025 474.183 359.031 472.954C362.219 471.633 364.815 469.448 367.456 467.308C369.415 465.761 371.555 464.577 373.65 463.211C375.518 462.028 377.886 460.434 380.209 460.434C382.531 460.434 382.395 457.02 380.209 457.02C377.84 457.02 375.563 458.158 373.559 459.296C372.011 460.161 370.417 461.072 368.914 462.028C366.409 463.621 364.223 465.67 361.809 467.399C360.807 468.128 354.749 472.225 354.021 469.812C353.383 467.718 350.058 468.629 350.742 470.723L350.696 470.768Z" fill="#121212"/>
<path d="M358.666 472.316C360.306 475.776 363.448 477.324 367.092 475.867C371.419 474.137 375.29 471.679 379.298 469.357C383.716 466.808 388.817 467.536 393.553 468.583C398.29 469.63 402.844 471.041 407.672 471.679C409.858 471.952 409.813 468.538 407.672 468.264C399.474 467.172 391.322 463.166 382.896 464.44C379.07 464.987 376.064 467.445 372.785 469.311C370.963 470.313 369.141 471.269 367.229 472.134C364.633 473.318 362.902 473.409 361.581 470.632C360.625 468.629 357.71 470.359 358.621 472.362L358.666 472.316Z" fill="#121212"/>
<path d="M259.803 279.406C257.729 278.344 255.751 277.813 253.46 277.524L256.595 282.977C259.514 276.124 261.033 268.523 262.818 261.308C263.711 257.664 264.579 253.997 265.327 250.305C265.737 248.326 266.099 246.323 266.436 244.344C266.581 243.5 266.702 242.631 266.846 241.787C266.895 241.425 266.967 241.087 267.063 240.725C267.136 240.339 266.967 240.508 266.557 241.232H264.627C264.507 241.232 264.362 240.58 264.169 240.797C263.928 241.087 263.904 241.907 263.807 242.269C263.47 243.572 263.252 244.827 263.349 246.178C263.614 250.208 269.186 251.125 270.464 247.144C271.309 244.513 271.912 241.835 272.297 239.108C272.563 237.178 271.815 235.223 269.765 234.644C267.883 234.137 265.809 235.271 265.303 237.178C261.685 251.029 258.043 264.879 254.425 278.73C253.243 283.243 260.213 285.173 261.395 280.661C265.013 266.81 268.655 252.959 272.273 239.108L265.303 237.178C264.917 239.904 264.314 242.583 263.47 245.213L270.585 246.178C270.416 243.548 271.984 241.183 271.14 238.481C270.392 236.116 268.173 234.113 265.592 234.113C259.49 234.113 259.586 242.028 258.766 246.251C257.681 251.921 256.33 257.568 254.883 263.166C253.508 268.475 252.495 274.242 250.348 279.309C249.215 281.988 250.565 284.401 253.484 284.763C254.449 284.884 255.341 285.221 256.185 285.656C260.334 287.779 264 281.53 259.827 279.406H259.803Z" fill="#FFD400"/>
<path d="M247.743 206.822C241.424 230.638 235.249 254.527 229.267 278.441C228.978 279.575 230.739 280.058 231.004 278.923C236.986 255.01 243.16 231.145 249.48 207.304C249.769 206.17 248.033 205.687 247.743 206.822Z" fill="#121212"/>
<path d="M259.731 209.862C253.411 233.679 247.237 257.568 241.255 281.481C240.965 282.615 242.726 283.098 242.992 281.964C248.973 258.051 255.148 234.185 261.467 210.345C261.757 209.21 260.02 208.728 259.731 209.862Z" fill="#121212"/>
<path d="M229.629 280.226C233.464 281.457 237.372 282.374 241.327 283.026C241.81 283.098 242.292 282.905 242.437 282.398C242.557 281.964 242.292 281.361 241.81 281.288C237.854 280.637 233.947 279.696 230.112 278.489C229.002 278.127 228.52 279.889 229.629 280.226Z" fill="#121212"/>
<path d="M248.66 207.787C252.447 209.066 256.306 210.103 260.213 210.9C261.347 211.141 261.829 209.379 260.696 209.162C256.788 208.342 252.929 207.304 249.142 206.049C248.033 205.687 247.55 207.425 248.66 207.787Z" fill="#121212"/>
<path d="M260.744 232.11C256.306 249.074 251.964 266.086 247.695 283.098C247.406 284.232 249.166 284.715 249.432 283.581C253.701 266.569 258.042 249.581 262.481 232.593C262.77 231.459 261.033 230.976 260.744 232.11Z" fill="#121212"/>
<path d="M272.635 235.609C268.245 252.428 263.928 269.271 259.707 286.138C259.417 287.273 261.178 287.755 261.443 286.621C265.664 269.754 269.982 252.911 274.372 236.092C274.661 234.958 272.924 234.475 272.635 235.609Z" fill="#121212"/>
<path d="M248.081 284.908C251.916 286.138 255.823 287.055 259.779 287.707C260.261 287.779 260.744 287.586 260.889 287.08C261.009 286.645 260.744 286.042 260.261 285.97C256.306 285.318 252.398 284.377 248.563 283.17C247.454 282.808 246.971 284.57 248.081 284.908Z" fill="#121212"/>
<path d="M261.781 233.462C265.568 234.74 269.427 235.778 273.335 236.574C274.468 236.816 274.951 235.054 273.817 234.837C269.91 234.017 266.05 232.979 262.263 231.724C261.154 231.362 260.672 233.1 261.781 233.462Z" fill="#121212"/>
<path d="M272.539 260.246C270.199 269.368 267.883 278.513 265.592 287.634C265.303 288.769 267.063 289.251 267.329 288.117C269.62 278.972 271.936 269.85 274.275 260.729C274.565 259.595 272.828 259.112 272.539 260.246Z" fill="#121212"/>
<path d="M283.393 263.48C281.101 272.456 278.834 281.433 276.567 290.41C276.277 291.544 278.038 292.026 278.303 290.892C280.546 281.916 282.838 272.939 285.129 263.963C285.419 262.828 283.682 262.346 283.393 263.48Z" fill="#121212"/>
<path d="M265.954 289.42C269.451 290.554 273.045 291.423 276.663 291.978C277.145 292.05 277.628 291.857 277.773 291.351C277.893 290.916 277.628 290.313 277.145 290.241C273.503 289.686 269.934 288.817 266.436 287.683C265.327 287.321 264.844 289.058 265.954 289.42Z" fill="#121212"/>
<path d="M273.672 261.477C277.121 262.659 280.667 263.625 284.237 264.349C285.37 264.59 285.853 262.828 284.719 262.611C281.125 261.887 277.604 260.922 274.155 259.74C273.045 259.354 272.587 261.115 273.672 261.477Z" fill="#121212"/>
<path d="M276.832 272.625C277.459 269.44 277.363 266.207 276.301 263.118L274.637 265.314C276.76 265.507 278.641 266.351 280.329 267.606L281.198 264.373C279.316 264.469 277.411 264.493 275.554 264.686C273.865 264.879 272.635 265.579 272.008 267.196C271.743 267.896 272.177 268.813 272.804 269.151C274.516 270.092 276.446 271.636 278.4 271.998C280.353 272.36 282.162 270.936 282.09 268.933C282.042 267.341 279.654 266.424 278.858 268.065C277.507 270.84 276.301 273.711 275.264 276.607H278.593C277.941 273.615 278.279 270.454 279.558 267.654L276.398 267.244C276.76 269.754 276.398 272.239 275.554 274.628H278.882L277.941 270.092C277.604 268.475 275.602 268.62 274.782 269.681C273.383 271.515 272.394 273.566 271.743 275.786L275.144 276.245C275.409 273.711 275.626 271.153 275.747 268.62C275.843 266.689 272.732 266.231 272.346 268.161C271.719 271.202 271.043 274.218 270.247 277.21L273.648 277.669L273.938 272.867C274.058 270.936 270.85 270.478 270.537 272.408C269.861 276.462 269.403 280.54 269.186 284.642L272.587 284.184L271.96 281.264C271.574 279.503 269.114 279.72 268.631 281.264C268.269 282.422 267.932 283.605 267.642 284.811C267.449 285.68 267.136 286.645 267.449 287.538C268.028 289.227 270.898 290.216 272.514 290.265C275.264 290.361 275.312 287.369 275.602 285.39C275.964 282.929 276.325 280.444 276.687 277.982C276.808 277.114 276.543 276.293 275.674 275.931C274.926 275.618 273.913 275.859 273.503 276.631C271.863 279.864 270.923 283.339 270.006 286.838L273.166 286.428C272.466 285.342 272.828 283.846 273.962 283.219L271.357 281.723L271.501 285.873C271.55 287.055 271.381 288.455 271.767 289.589C272.153 290.723 273.31 291.399 274.468 290.964C275.554 290.554 276.06 289.348 276.446 288.334C277.387 285.969 277.749 283.363 278.496 280.926C279.34 278.224 280.329 275.593 281.487 273.036C282.404 271.033 279.413 269.247 278.496 271.298C277.218 274.146 276.06 277.041 275.144 280.009C274.685 281.457 274.299 282.929 273.938 284.425C273.769 285.149 273.6 285.873 273.383 286.573C273.286 286.838 273.214 287.128 273.093 287.393C272.997 287.586 272.9 287.779 272.78 287.972C272.587 288.262 272.635 288.238 272.9 287.876L274.227 287.707C274.878 288.793 275.119 288.938 274.999 288.093V287.104C274.951 286.524 274.926 285.969 274.902 285.39L274.782 281.723C274.734 280.395 273.359 279.575 272.177 280.226C269.451 281.723 268.462 285.559 270.127 288.165C270.898 289.372 272.9 289.251 273.286 287.755C274.106 284.57 274.926 281.336 276.422 278.393L273.262 277.065C272.804 280.275 272.37 283.508 271.863 286.693C271.863 286.838 271.815 286.983 271.791 287.128C271.646 287.61 271.911 287.49 272.563 286.814C272.514 286.718 271.839 286.621 271.719 286.573C271.381 286.476 271.043 286.283 270.705 286.187C270.561 286.114 270.416 286.042 270.271 285.969L270.705 286.645C270.705 286.645 271.767 282.591 271.887 282.205H268.559L269.186 285.125C269.62 287.104 272.49 286.549 272.587 284.666C272.78 280.878 273.19 277.089 273.817 273.349L270.416 272.891L270.127 277.693C270.006 279.647 273.045 280.033 273.528 278.151C274.299 275.159 274.999 272.143 275.626 269.102L272.225 268.644C272.104 271.202 271.911 273.735 271.622 276.269C271.405 278.248 274.492 278.561 275.023 276.727C275.578 274.773 276.47 273.06 277.7 271.443L274.541 271.033L275.481 275.569C275.843 277.379 278.303 277.041 278.81 275.569C279.871 272.577 280.112 269.488 279.654 266.351C279.437 264.904 277.097 264.638 276.494 265.941C274.806 269.609 274.299 273.591 275.168 277.548C275.554 279.334 277.966 279.044 278.496 277.548C279.437 274.918 280.522 272.336 281.752 269.826L278.52 268.957C278.906 268.74 278.955 268.62 278.689 268.547C278.52 268.475 278.352 268.402 278.207 268.306C277.773 268.089 277.363 267.847 276.953 267.606C276.108 267.148 275.288 266.665 274.444 266.207L275.24 268.161C275.168 268.354 275.795 268.161 275.94 268.161C276.494 268.113 277.049 268.113 277.58 268.065C278.762 267.992 279.919 267.944 281.101 267.872C282.91 267.775 283.344 265.652 281.97 264.638C279.775 262.997 277.242 262.129 274.541 261.863C273.455 261.767 272.539 263.046 272.876 264.059C273.72 266.544 273.913 269.126 273.407 271.708C272.973 273.88 276.301 274.821 276.735 272.625H276.832Z" fill="#121212"/>
<path d="M279.051 266.689C280.402 266.062 281.801 265.652 283.248 265.41C284.164 265.266 284.044 263.89 283.248 263.673C281.656 263.239 280.064 262.804 278.472 262.37C277.266 262.032 275.626 261.26 274.372 261.429C273.118 261.598 272.973 262.828 272.707 263.818C272.273 265.386 271.936 267.003 271.284 268.499C270.706 269.826 270.078 270.984 269.934 272.456C269.765 274.194 269.524 275.811 269.114 277.5C268.294 280.878 267.498 284.256 266.677 287.635C266.533 288.214 266.943 288.769 267.546 288.769C269.162 288.769 270.754 288.913 272.346 289.203C273.021 289.324 273.672 289.517 274.324 289.661C274.758 289.758 275.819 289.686 276.108 289.855L275.65 289.082C275.65 289.082 275.337 289.613 275.312 289.686L276.422 289.058C276.904 289.155 277.29 287.441 277.531 287.031L275.867 286.814C275.964 287.297 275.964 287.707 275.94 288.19L277.724 287.948C277.387 286.138 278.231 284.425 278.689 282.712C279.148 280.999 279.413 279.189 279.799 277.451C280.571 273.832 281.535 270.261 283.079 266.906L281.415 266.207C281.27 266.858 281.125 267.534 281.005 268.185L282.79 268.427C282.838 267.437 282.983 266.472 283.2 265.507C283.441 264.373 281.752 263.89 281.463 265.024L279.485 272.77C278.882 275.159 278.062 277.572 277.942 280.058C277.893 281.095 279.437 281.24 279.726 280.299C279.871 279.792 280.04 279.285 280.185 278.803L278.448 278.32L276.35 286.163C276.036 287.297 277.797 287.779 278.086 286.645C278.786 284.039 279.485 281.433 280.185 278.803C280.498 277.669 278.786 277.21 278.448 278.32C278.303 278.827 278.134 279.334 277.99 279.816L279.775 280.058C279.919 277.596 280.788 275.111 281.391 272.746L283.224 265.507L281.487 265.024C281.246 266.158 281.077 267.268 281.029 268.427C280.981 269.44 282.597 269.657 282.814 268.668C282.958 268.016 283.103 267.341 283.224 266.689C283.417 265.748 282.018 265 281.56 265.989C279.895 269.657 278.834 273.542 278.014 277.476C277.604 279.454 277.266 281.433 276.663 283.388C276.133 285.101 275.722 286.669 276.036 288.455C276.229 289.493 277.773 289.179 277.821 288.214C277.845 287.586 277.821 286.983 277.7 286.356C277.556 285.559 276.422 285.535 276.036 286.138C275.385 287.2 273.962 290.41 275.988 290.82C276.494 290.916 276.928 290.675 277.097 290.192C277.29 289.637 277.773 289.3 277.387 288.648C276.953 287.9 275.94 288.141 275.24 288.045C273.938 287.852 272.683 287.441 271.357 287.248C270.03 287.055 268.848 286.983 267.594 286.983L268.462 288.117C269.138 285.27 269.837 282.398 270.513 279.551C270.85 278.127 271.26 276.703 271.501 275.256C271.743 273.808 271.622 272.288 272.177 270.936C272.659 269.778 273.238 268.716 273.6 267.51C273.793 266.858 273.962 266.231 274.155 265.579C274.227 265.314 274.516 263.432 274.782 263.311C275.047 263.19 275.988 263.576 276.301 263.673C276.977 263.842 277.652 264.035 278.303 264.204C279.799 264.614 281.318 265.024 282.814 265.434V263.697C281.198 263.963 279.678 264.469 278.183 265.169C277.121 265.652 278.038 267.22 279.099 266.738L279.051 266.689Z" fill="#121212"/>
<path d="M188.796 157.357L208.117 168.085L208.3 175.277L189.544 186.864L189.346 179.038L200.541 171.875L188.997 165.289L188.796 157.357Z" fill="#121212"/>
<path d="M165.666 196.677L177.032 146.173L183.853 146L172.54 196.503L165.666 196.677Z" fill="#121212"/>
<path d="M160.037 158.086L160.238 166.018L149.043 173.181L160.587 179.767L160.785 187.594L141.467 176.972L141.284 169.78L160.037 158.086Z" fill="#121212"/>
</g>
<path d="M559.605 282.556C552.42 284.234 546.373 280.64 544.711 273.52C543.093 266.592 546.939 260.756 554.123 259.079C561.436 257.372 567.34 260.931 568.958 267.859C570.62 274.979 566.917 280.849 559.605 282.556ZM570.842 307.801L562.544 306.153L579.181 253.702L587.633 255.72L570.842 307.801ZM557.972 275.564C560.859 274.891 562.334 272.517 561.645 269.566C561.016 266.872 558.642 265.397 555.756 266.071C552.933 266.73 551.523 269.089 552.152 271.783C552.84 274.733 555.15 276.223 557.972 275.564ZM596.757 301.75C589.38 303.473 583.555 299.963 581.893 292.842C580.246 285.786 583.929 280.124 591.306 278.402C598.618 276.694 604.557 280.11 606.204 287.166C607.866 294.287 604.07 300.043 596.757 301.75ZM595.155 294.887C598.105 294.198 599.452 291.854 598.763 288.904C598.134 286.21 595.889 284.705 592.938 285.393C590.116 286.052 588.576 288.441 589.205 291.135C589.894 294.086 592.332 295.546 595.155 294.887Z" fill="#121212"/>
<path d="M596.606 130.479L596.867 130.214L595.412 132.717C594.628 134.993 596.308 136.434 595.561 135.107C595.412 134.841 595.3 134.576 595.188 134.31C594.628 133.096 594.33 131.959 594.255 130.631C594.143 128.659 594.815 126.573 595.86 124.942C598.472 120.921 602.839 119.48 607.392 120.163C611.05 120.694 614.931 122.704 617.655 125.245C620.529 127.938 621.835 131.921 621.985 135.789C622.134 139.317 621.164 142.996 620.044 146.296C618.924 149.595 617.432 152.63 615.267 155.361C613.252 157.864 610.154 160.291 606.944 160.746C601.458 161.505 599.48 156.195 598.174 151.833C596.793 147.244 596.942 142.541 599.293 138.293C601.346 134.538 604.481 131.2 607.094 127.862L615.006 135.903C614.632 136.282 614.259 136.662 613.886 137.079C612.804 138.255 614.334 136.282 613.438 137.61C612.841 138.52 612.281 139.431 611.796 140.379C611.535 140.872 611.311 141.365 611.124 141.858C611.497 140.948 610.975 142.351 610.9 142.541C610.564 143.489 610.266 144.475 610.005 145.461C608.661 150.392 608.325 157.105 602.279 158.509C598.696 159.343 595.076 157.598 593.621 154.147C592.538 151.492 593.061 148.875 593.658 146.182C594.031 144.627 593.994 144.589 593.994 143.299C593.994 144.323 593.919 143.11 593.807 142.73C593.994 143.223 594.031 143.261 593.807 142.92C593.583 142.579 593.621 142.617 593.882 143.072L594.33 143.451C596.121 144.361 597.726 143.868 599.181 142.01L599.405 141.403C599.181 141.972 598.957 142.541 598.659 143.11C597.763 144.703 596.308 145.878 594.516 146.296C591.717 147.016 588.284 145.385 587.612 142.313C586.231 135.751 588.022 128.773 592.837 124.031C595.711 121.225 600.002 118.835 603.884 121.149C607.765 123.463 607.616 128.81 607.691 132.907C607.803 139.886 607.504 149.368 600.488 153.009C596.644 154.981 592.053 154.336 589.03 151.188C586.007 148.04 585.373 143.565 586.567 139.582C587.761 135.6 592.911 133.893 595.934 137.079C599.517 140.872 599.779 145.84 600.413 150.771C600.562 151.871 600.712 153.009 600.824 154.109C600.898 154.792 600.562 153.768 600.936 154.564C600.114 152.743 600.114 153.085 600.936 153.881C601.943 154.905 602.764 156.119 603.212 157.523C603.884 159.533 603.361 161.315 602.578 163.212L596.27 154.867C597.95 154.564 599.667 154.223 601.346 153.919L602.839 165.108C602.167 165.108 602.167 165.032 602.839 164.957C603.399 164.691 603.399 164.729 602.839 165.07C600.45 166.815 596.494 165.563 595.188 163.022C593.658 160.064 594.666 157.105 597.203 155.247C598.734 154.109 600.898 153.502 602.802 153.73C605.601 154.109 607.915 155.626 608.288 158.66C608.624 161.24 607.019 164.388 604.294 164.919C602.615 165.222 600.898 165.563 599.219 165.867C596.942 166.284 594.815 165.753 593.322 163.819C591.829 161.884 591.978 159.684 592.874 157.485L593.061 157.067L592.314 159.95L593.322 162.302L592.986 161.96C592.762 161.771 592.501 161.543 592.314 161.315C591.344 160.329 590.672 159.191 590.224 157.864C589.59 155.967 589.59 153.768 589.329 151.795C589.217 150.885 589.105 150.013 588.993 149.102C588.918 148.647 588.881 148.192 588.806 147.775C588.881 148.344 588.881 148.23 588.806 147.737C588.657 146.94 588.433 146.22 588.246 145.423C588.06 144.627 588.619 146.03 588.209 145.385C587.724 144.627 589.105 146.258 588.022 145.12L597.39 142.617C597.315 142.92 597.241 144.247 597.203 143.375C597.241 144.627 597.091 143.489 597.054 143.185C597.353 143.641 597.39 143.716 597.129 143.375C597.017 143.148 596.793 142.958 596.532 142.882C597.241 143.451 596.27 142.958 595.86 142.806L595.3 142.92C595.897 142.73 595.897 142.768 595.3 142.958L595.711 142.692C595.3 143.034 595.225 143.072 595.487 142.768C595.748 142.465 595.711 142.541 595.375 142.958C595.636 142.389 595.748 142.275 595.599 142.579C595.487 142.844 595.897 141.592 595.972 141.327C596.084 140.834 596.158 140.379 596.233 139.886C596.084 140.91 596.308 139.089 596.308 138.9C596.42 137.572 596.494 136.245 596.532 134.917C596.569 133.589 596.532 132.262 596.494 130.934C596.494 130.366 596.42 129.835 596.382 129.266C596.382 128.924 596.345 128.583 596.308 128.279C596.382 128.962 596.681 129.607 597.166 130.138L599.629 131.617C600.488 131.807 601.271 131.693 601.943 131.276C601.682 131.428 601.421 131.579 601.159 131.769C602.13 131.124 600.637 132.3 600.45 132.49C600.226 132.717 600.002 132.983 599.816 133.248C600.189 132.755 600.189 132.755 599.816 133.286C599.555 133.779 599.256 134.31 598.957 134.803C598.771 135.183 598.808 135.107 599.032 134.576C598.92 134.879 598.808 135.183 598.696 135.524C598.51 136.169 598.36 136.813 598.248 137.458C598.435 136.093 598.286 138.141 598.286 138.406C598.286 138.748 598.286 139.051 598.36 139.393C598.286 138.71 598.286 138.672 598.398 139.355L591.493 135.372L591.829 135.296L589.366 136.776C589.105 137.041 588.955 137.382 588.843 137.724C588.545 138.482 588.694 138.141 589.291 136.662C589.627 135.941 589.926 135.448 590.523 134.803C591.643 133.59 593.135 132.869 594.74 132.641C598.099 132.186 601.047 133.817 602.988 136.548C604.481 138.634 605.153 141.251 605.153 143.83C605.153 145.423 604.854 147.016 604.556 148.571C604.444 149.102 604.294 149.633 604.182 150.164C604.108 150.392 604.071 150.657 603.996 150.923C604.071 150.24 604.071 150.088 604.071 150.506C604.071 150.961 604.033 150.809 603.959 150.051L600.264 147.396C600.264 147.396 597.017 148.23 597.539 149.14C597.353 148.837 598.099 146.637 598.211 146.22C598.659 144.134 599.181 142.086 599.853 140.075C601.383 135.524 603.585 131.238 607.019 127.862C609.109 125.776 612.878 125.587 614.931 127.862C617.17 130.366 616.872 133.4 614.931 135.903L611.012 140.986C610.676 141.403 610.378 141.82 610.042 142.237C610.415 141.744 610.079 142.199 609.93 142.427C609.407 143.185 608.885 143.944 608.512 144.816C608.773 144.247 608.586 144.665 608.512 145.006C608.101 146.675 608.437 144.627 608.4 145.575C608.4 146.068 608.4 146.561 608.437 147.054C608.362 146.409 608.437 147.054 608.512 147.32C608.773 148.306 609.034 149.292 609.37 150.278C609.519 150.657 609.669 151.037 609.818 151.454C610.079 152.099 610.117 152.212 609.967 151.795C609.706 151.15 609.258 150.619 608.624 150.24L605.787 149.482C605.265 149.482 604.145 150.051 604.929 149.52C605.153 149.368 606.31 148.571 605.339 149.368C605.974 148.875 606.459 148.268 606.982 147.699C606.198 148.533 607.094 147.509 607.243 147.32C607.504 146.902 607.765 146.485 607.989 146.068C608.176 145.689 608.362 145.347 608.549 144.968C608.736 144.551 608.96 143.982 608.661 144.741C609.37 142.92 609.93 141.099 610.341 139.203C610.49 138.596 610.602 137.989 610.676 137.382C610.564 138.293 610.676 136.472 610.676 136.472C610.676 136.32 610.602 134.841 610.676 135.6C610.751 136.282 610.415 134.727 610.415 134.576C610.378 134.045 610.788 135.069 610.303 134.272C610.266 134.196 609.445 132.755 610.005 133.741L609.631 133.362C610.005 133.627 610.042 133.665 609.706 133.438C609.258 133.134 608.81 132.869 608.362 132.603C607.131 131.921 607.317 131.959 606.086 131.579C605.862 131.503 604.332 131.314 605.227 131.39H604.63C605.004 131.39 605.041 131.39 604.742 131.428C604.369 131.541 604.444 131.503 605.078 131.314L604.705 131.541C605.19 131.162 605.302 131.124 605.004 131.39C604.742 131.693 604.78 131.617 605.227 131.124C604.668 131.883 605.377 130.783 605.377 130.29C605.377 130.024 604.817 128.735 605.078 129.266C606.72 132.262 607.243 136.093 604.444 138.596C602.242 140.568 598.659 140.948 596.532 138.596C594.591 136.434 594.18 132.679 596.532 130.555L596.606 130.479Z" fill="#FFD400"/>
<path d="M599.232 164.024L602.136 162.762C604.149 161.87 605.892 164.024 604.498 165.696C602.059 168.592 600.007 171.749 598.264 175.092C597.877 175.835 596.87 176.132 596.096 175.946C594.392 175.538 592.573 175.278 590.908 174.758C589.746 174.386 588.894 173.495 589.011 172.269C589.088 171.489 589.63 170.821 589.785 170.041C590.095 168.592 589.979 166.921 590.017 165.436C590.056 163.579 590.095 161.722 590.017 159.865C590.017 158.342 592.224 157.302 593.308 158.565C594.547 160.013 595.206 161.647 595.244 163.504C595.244 164.99 594.896 166.587 595.322 167.85C595.438 168.147 595.244 167.701 595.36 167.998C595.399 168.073 595.67 168.37 595.631 168.444C595.631 168.37 594.199 168.184 594.238 168.518C594.238 168.444 594.392 168.258 594.431 168.184C594.315 168.444 594.509 167.961 594.509 167.924C594.663 167.515 594.818 167.107 594.934 166.661C595.167 165.956 595.36 165.213 595.438 164.47C595.438 164.136 595.438 163.764 595.438 163.43C595.438 163.282 595.322 163.096 595.322 162.947C595.399 162.984 595.36 162.947 595.322 162.873C594.973 162.353 595.477 162.464 596.793 163.133L597.49 162.464C596.638 163.541 596.212 165.138 595.941 166.438C595.631 167.813 595.477 169.335 595.67 170.747L595.399 169.818L595.477 170.004L594.78 169.335L594.934 169.41L593.967 169.15C593.967 169.15 593.502 169.372 593.967 169.075C594.199 168.964 594.431 168.815 594.663 168.704C594.857 168.592 595.089 168.333 595.322 168.295C595.167 168.964 595.554 169.521 596.406 169.967C595.36 170.078 594.47 169.038 594.47 168.11C594.47 167.033 595.36 166.364 596.406 166.253C597.451 166.141 598.497 166.884 598.884 167.813C599.348 168.89 598.961 170.041 598.148 170.858C596.987 171.972 594.586 173.495 592.921 172.566C591.256 171.638 591.682 168.815 591.914 167.218C592.147 165.436 592.65 163.727 593.386 162.093C593.734 161.313 594.083 160.422 594.857 159.939C595.864 159.308 597.141 159.456 598.032 160.236C599.465 161.499 599.503 163.764 599.232 165.473C599.116 166.29 598.922 167.107 598.651 167.887C598.38 168.667 598.109 169.558 597.645 170.301C596.561 172.009 594.315 172.529 592.805 170.932C591.489 169.521 591.179 167.627 591.256 165.807C591.334 164.247 591.721 162.464 590.559 161.165L593.85 159.865C593.889 162.204 593.85 164.507 593.773 166.847C593.773 167.924 593.734 169.001 593.579 170.041C593.502 170.561 593.424 171.081 593.27 171.601C593.115 172.046 592.728 172.752 592.689 173.012V172.009V172.158C592.573 171.898 592.418 171.601 592.224 171.341C591.953 171.044 591.643 171.118 592.147 171.229C592.379 171.304 592.611 171.341 592.844 171.378L594.238 171.712L597.025 172.344L594.857 173.198C596.716 169.558 599.039 166.216 601.671 163.059L604.033 165.993L601.129 167.255C600.161 167.664 599.039 167.515 598.497 166.587C597.993 165.807 598.226 164.47 599.193 164.061L599.232 164.024Z" fill="#FFD400"/>
<path d="M608.422 119.02C620.048 121.194 625.385 133.745 621.992 144.389C620.086 150.417 615.817 154.728 611.357 159.001C605.868 164.303 601.522 170.14 598.892 177.35C598.472 178.495 596.643 177.999 597.062 176.855C598.93 171.781 601.56 167.05 605.029 162.892C608.955 158.161 614.178 154.537 617.532 149.349C624.203 139.163 621.268 123.331 607.926 120.851C606.706 120.622 607.24 118.791 608.422 119.02Z" fill="#121212"/>
<path d="M609.826 121.956C597.979 117.385 587.306 127.763 586.852 139.191C586.587 145.186 588.933 150.843 590.031 156.651C591.129 162.458 591.015 168.49 589.804 174.335C589.577 175.497 587.76 175.01 587.987 173.848C589.615 165.905 588.669 158.487 586.663 150.731C585.186 144.961 584.165 139.191 585.943 133.346C589.009 123.192 599.834 116.111 610.356 120.158C611.491 120.607 610.999 122.406 609.864 121.956H609.826Z" fill="#121212"/>
<path d="M593.986 175.042L598.007 176.181C599.182 176.523 600.623 176.827 600.927 178.231C601.154 179.294 600.851 180.661 600.017 181.42C598.879 182.445 597.438 181.876 596.148 181.496C594.669 181.078 593.19 180.661 591.673 180.243C590.497 179.902 590.99 178.079 592.166 178.421C593.569 178.839 594.973 179.218 596.414 179.636C596.755 179.712 597.058 179.826 597.4 179.902C597.703 179.978 598.007 180.129 598.348 180.129C598.462 180.129 598.538 180.129 598.651 180.091C598.538 180.091 598.765 179.978 598.651 180.091C598.765 179.978 598.879 179.826 598.917 179.712C598.955 179.598 598.993 179.522 598.993 179.408C599.031 179.256 599.031 179.256 599.031 179.104C599.031 178.915 599.068 178.725 598.993 178.573C598.955 178.497 599.031 178.573 598.879 178.497C598.879 178.497 598.613 178.383 598.689 178.383C598.386 178.269 598.082 178.193 597.779 178.117L593.418 176.865C592.242 176.523 592.735 174.701 593.911 175.042H593.986Z" fill="#121212"/>
<path d="M593.686 176.35L589.05 175.171C588.68 175.097 588.352 174.987 587.983 174.913C587.819 174.913 587.614 174.913 587.573 174.913C587.655 174.876 587.368 175.097 587.45 175.023C587.368 175.134 587.286 175.245 587.204 175.392C587.162 175.503 587.162 175.503 587.204 175.429C587.204 175.503 587.162 175.539 587.121 175.613C587.08 175.724 587.039 175.871 587.039 175.982C587.039 175.834 587.039 176.166 587.039 176.203C587.039 175.982 587.162 176.461 587.039 176.276C587.039 176.313 587.121 176.387 587.162 176.424C587.121 176.35 587.162 176.35 587.204 176.424C587.039 176.35 587.491 176.571 587.368 176.498C587.983 176.756 588.721 176.866 589.378 177.014C590.937 177.419 592.455 177.787 594.014 178.193C594.547 178.34 594.875 178.856 594.711 179.335C594.547 179.814 593.973 180.109 593.44 179.962C592.045 179.593 590.65 179.262 589.255 178.893C588.557 178.709 587.86 178.561 587.162 178.34C586.465 178.119 585.85 177.861 585.439 177.345C584.701 176.424 584.988 175.097 585.603 174.176C585.973 173.623 586.547 173.144 587.286 173.033C588.024 172.923 588.763 173.107 589.501 173.291L594.26 174.508C594.793 174.655 595.122 175.171 594.958 175.65C594.793 176.129 594.219 176.424 593.686 176.276V176.35Z" fill="#121212"/>
<path d="M592.986 178.042L597.007 179.181C598.182 179.523 599.623 179.827 599.927 181.231C600.154 182.294 599.851 183.661 599.017 184.42C597.879 185.445 596.438 184.876 595.148 184.496C593.669 184.078 592.19 183.661 590.673 183.243C589.497 182.902 589.99 181.079 591.166 181.421C592.569 181.839 593.973 182.218 595.414 182.636C595.755 182.712 596.058 182.826 596.4 182.902C596.703 182.978 597.007 183.129 597.348 183.129C597.462 183.129 597.538 183.129 597.651 183.091C597.538 183.091 597.765 182.978 597.651 183.091C597.765 182.978 597.879 182.826 597.917 182.712C597.955 182.598 597.993 182.522 597.993 182.408C598.031 182.256 598.031 182.256 598.031 182.104C598.031 181.915 598.068 181.725 597.993 181.573C597.955 181.497 598.031 181.573 597.879 181.497C597.879 181.497 597.613 181.383 597.689 181.383C597.386 181.269 597.082 181.193 596.779 181.117L592.418 179.865C591.242 179.523 591.735 177.701 592.911 178.042H592.986Z" fill="#121212"/>
<path d="M592.686 180.35L588.05 179.171C587.68 179.097 587.352 178.987 586.983 178.913C586.819 178.913 586.614 178.913 586.573 178.913C586.655 178.876 586.368 179.097 586.45 179.023C586.368 179.134 586.286 179.245 586.204 179.392C586.162 179.503 586.162 179.503 586.204 179.429C586.204 179.503 586.162 179.539 586.121 179.613C586.08 179.724 586.039 179.871 586.039 179.982C586.039 179.834 586.039 180.166 586.039 180.203C586.039 179.982 586.162 180.461 586.039 180.276C586.039 180.313 586.121 180.387 586.162 180.424C586.121 180.35 586.162 180.35 586.204 180.424C586.039 180.35 586.491 180.571 586.368 180.498C586.983 180.756 587.721 180.866 588.378 181.014C589.937 181.419 591.455 181.787 593.014 182.193C593.547 182.34 593.875 182.856 593.711 183.335C593.547 183.814 592.973 184.109 592.44 183.962C591.045 183.593 589.65 183.262 588.255 182.893C587.557 182.709 586.86 182.561 586.162 182.34C585.465 182.119 584.85 181.861 584.439 181.345C583.701 180.424 583.988 179.097 584.603 178.176C584.973 177.623 585.547 177.144 586.286 177.033C587.024 176.923 587.763 177.107 588.501 177.291L593.26 178.508C593.793 178.655 594.122 179.171 593.958 179.65C593.793 180.129 593.219 180.424 592.686 180.276V180.35Z" fill="#121212"/>
<path d="M591.986 182.042L596.007 183.181C597.182 183.523 598.623 183.827 598.927 185.231C599.154 186.294 598.851 187.661 598.017 188.42C596.879 189.445 595.438 188.876 594.148 188.496C592.669 188.078 591.19 187.661 589.673 187.243C588.497 186.902 588.99 185.079 590.166 185.421C591.569 185.839 592.973 186.218 594.414 186.636C594.755 186.712 595.058 186.826 595.4 186.902C595.703 186.978 596.007 187.129 596.348 187.129C596.462 187.129 596.538 187.129 596.651 187.091C596.538 187.091 596.765 186.978 596.651 187.091C596.765 186.978 596.879 186.826 596.917 186.712C596.955 186.598 596.993 186.522 596.993 186.408C597.031 186.256 597.031 186.256 597.031 186.104C597.031 185.915 597.068 185.725 596.993 185.573C596.955 185.497 597.031 185.573 596.879 185.497C596.879 185.497 596.613 185.383 596.689 185.383C596.386 185.269 596.082 185.193 595.779 185.117L591.418 183.865C590.242 183.523 590.735 181.701 591.911 182.042H591.986Z" fill="#121212"/>
<path d="M590.817 184.35L586.645 183.171C586.312 183.097 586.017 182.987 585.685 182.913C585.537 182.913 585.352 182.913 585.315 182.913C585.389 182.876 585.131 183.097 585.205 183.023C585.131 183.134 585.057 183.245 584.983 183.392C584.946 183.503 584.946 183.503 584.983 183.429C584.983 183.503 584.946 183.539 584.909 183.613C584.872 183.724 584.835 183.871 584.835 183.982C584.835 183.834 584.835 184.166 584.835 184.203C584.835 183.982 584.946 184.461 584.835 184.276C584.835 184.313 584.909 184.387 584.946 184.424C584.909 184.35 584.946 184.35 584.983 184.424C584.835 184.35 585.242 184.571 585.131 184.498C585.685 184.756 586.349 184.866 586.94 185.014C588.343 185.419 589.709 185.787 591.113 186.193C591.593 186.34 591.888 186.856 591.74 187.335C591.593 187.814 591.076 188.109 590.596 187.962C589.34 187.593 588.085 187.262 586.829 186.893C586.202 186.709 585.574 186.561 584.946 186.34C584.319 186.119 583.765 185.861 583.395 185.345C582.731 184.424 582.989 183.097 583.543 182.176C583.875 181.623 584.392 181.144 585.057 181.033C585.722 180.923 586.386 181.107 587.051 181.291L591.334 182.508C591.814 182.655 592.109 183.171 591.962 183.65C591.814 184.129 591.297 184.424 590.817 184.276V184.35Z" fill="#121212"/>
<path d="M593.885 174.809C595.323 170.192 596.496 165.388 598.389 160.921C599.183 159.045 600.205 157.318 601.605 155.892C602.324 155.141 603.157 154.503 603.838 153.715C604.179 153.34 604.482 152.927 604.709 152.476C604.936 152.063 605.049 151.576 604.974 151.088C604.86 150.675 604.671 150.637 604.444 150.937L602.627 150.45C602.854 149.399 602.779 148.198 601.87 147.447C600.962 146.696 598.956 146.884 599.297 148.498L597.442 148.761C597.329 147.672 596.723 144.895 595.096 146.208C593.998 147.072 593.544 149.549 594.226 150.675C594.869 151.726 596.042 152.326 596.648 153.452C597.253 154.578 597.518 155.779 597.632 157.018C598.199 163.098 596.496 169.629 594.15 175.146C593.696 176.235 592.068 175.296 592.523 174.208C594.263 170.117 595.361 165.763 595.702 161.334C595.853 159.495 596.004 157.468 595.512 155.667C595.02 153.865 593.506 153.114 592.56 151.576C591.236 149.436 592.371 145.232 594.793 144.257C597.821 143.018 599.145 146.546 599.373 148.798C599.486 149.849 597.745 150.074 597.518 149.061C597.026 146.771 598.994 144.707 601.378 145.195C604.103 145.758 604.974 148.573 604.482 150.975C604.217 152.176 602.514 151.651 602.665 150.487C602.93 148.535 605.693 148.46 606.601 149.999C608.001 152.439 605.39 154.954 603.8 156.455C601.34 158.744 600.092 161.522 599.07 164.675C597.934 168.203 596.837 171.768 595.739 175.334C595.399 176.498 593.544 176.01 593.923 174.846L593.885 174.809Z" fill="#121212"/>
<path d="M612.893 108.514C611.892 110.904 611.238 113.454 610.931 116.004C610.854 116.522 610.546 117 609.969 117C609.507 117 608.93 116.562 609.007 116.004C609.392 113.056 610.123 110.227 611.238 107.478C611.431 107 612.162 106.88 612.546 107.12C613.047 107.398 613.085 107.996 612.893 108.474V108.514Z" fill="#121212"/>
<path d="M588.546 118.774C586.924 117.374 585.198 116.047 583.437 114.72C583.058 114.462 582.851 113.909 583.127 113.467C583.368 113.062 583.921 112.841 584.3 113.135C586.164 114.499 587.959 115.973 589.754 117.447C590.099 117.742 590.065 118.442 589.754 118.737C589.374 119.106 588.926 119.069 588.546 118.737V118.774Z" fill="#121212"/>
<path d="M628.941 128.725C631.314 128.408 633.686 128.136 636.059 128C636.548 128 637 128.544 637 129.133C637 129.768 636.586 130.221 636.059 130.267C633.686 130.403 631.314 130.674 628.941 130.992C628.452 131.082 628 130.403 628 129.859C628 129.179 628.452 128.816 628.941 128.725Z" fill="#121212"/>
<path d="M579.026 142.816C576.727 142.89 574.428 143.26 572.246 143.964C571.739 144.113 571.193 143.779 571.038 143.334C570.882 142.816 571.232 142.334 571.7 142.186C574.077 141.445 576.532 141.074 579.026 141C579.532 141 580 141.445 580 141.926C580 142.445 579.571 142.816 579.026 142.853V142.816Z" fill="#121212"/>
<path d="M623.444 153.149C625.424 154.572 627.216 156.28 628.747 158.272C629.046 158.678 629.121 159.328 628.747 159.694C628.411 160.06 627.776 160.142 627.44 159.694C626.693 158.759 625.909 157.865 625.087 157.052C624.901 156.849 624.677 156.645 624.453 156.483C624.341 156.402 624.228 156.28 624.154 156.198C624.079 156.158 624.042 156.076 623.967 156.036C623.93 156.036 623.818 155.914 623.892 155.995C623.444 155.629 622.959 155.263 622.473 154.897C622.063 154.613 621.838 154.003 622.137 153.515C622.399 153.068 622.959 152.824 623.407 153.149H623.444Z" fill="#121212"/>
<g clip-path="url(#clip1_2426_7636)">
<path d="M298.356 132.103C296.552 132.829 294.749 133.555 292.832 133.796C290.914 134.038 288.866 133.654 287.393 132.43C285.841 131.124 285.188 129.023 284.996 126.986C284.805 124.95 285.056 122.918 284.986 120.883C284.818 117.236 283.541 113.678 281.369 110.754C285.684 110.437 290.055 111.813 293.419 114.527C296.783 117.242 299.061 121.213 299.682 125.49C300.066 128.133 299.714 131.533 297.24 132.635" fill="#FFD400"/>
<path d="M298.865 133.034C296.069 134.173 293.152 135.31 290.058 134.754C287.245 134.241 285.281 132.267 284.434 129.599C283.491 126.628 284.122 123.473 283.885 120.409C283.632 117.083 282.369 113.947 280.394 111.268C279.881 110.577 280.639 109.719 281.345 109.666C287.634 109.33 293.736 112.154 297.407 117.228C299.243 119.765 300.467 122.779 300.783 125.925C301.084 128.768 300.531 132.126 297.75 133.566C296.532 134.198 295.492 132.314 296.73 131.703C299.247 130.4 298.918 126.751 298.388 124.449C297.802 121.885 296.589 119.455 294.886 117.463C291.54 113.541 286.514 111.534 281.373 111.822L282.324 110.221C283.844 112.311 284.977 114.7 285.583 117.244C286.228 119.95 286.028 122.606 286.047 125.366C286.067 128.126 286.624 131.314 289.488 132.412C292.352 133.509 295.292 132.231 297.885 131.211C299.142 130.701 300.202 132.565 298.905 133.075L298.865 133.034Z" fill="#121212"/>
<path d="M299.365 131.952C304.796 136.501 309.511 141.868 313.31 147.85C315.16 150.81 316.826 153.91 318.208 157.127C319.396 159.899 320.662 162.832 320.879 165.876C321.232 170.613 317.045 175.846 312.092 172.974C306.461 169.692 305.213 161.461 302.998 155.919C300.066 148.536 295.877 141.704 293.998 133.93C293.713 132.738 295.553 132.294 295.837 133.486C297.642 140.857 301.533 147.383 304.392 154.322C305.947 158.085 309.941 175.388 316.668 171.411C320.264 169.294 318.926 164.405 317.824 161.312C316.509 157.632 314.789 154.069 312.825 150.705C308.955 144.078 303.905 138.204 298.036 133.287C297.101 132.492 298.47 131.197 299.405 131.952L299.365 131.952Z" fill="#121212"/>
</g>
<g clip-path="url(#clip2_2426_7636)">
<path d="M379.84 195.527C379.976 195.106 380.111 194.629 380.301 194.235C380.355 193.758 380.626 193.309 381.06 193.084C381.331 192.972 381.629 192.972 381.9 193.028C382.686 192.972 383.445 193.421 383.825 194.179C384.204 194.965 384.15 195.948 384.15 196.791C384.15 197.633 384.096 198.475 383.988 199.289C383.96 199.514 383.879 199.739 383.852 199.963C383.798 201.143 383.662 202.294 383.337 203.417C383.201 203.838 383.066 204.315 382.876 204.708C382.822 205.186 382.551 205.635 382.117 205.86C381.846 205.972 381.548 205.972 381.277 205.916C380.491 205.972 379.732 205.523 379.352 204.765C378.946 204.006 379 203.024 379 202.181C379 201.339 379.054 200.497 379.163 199.683C379.19 199.458 379.271 199.233 379.298 199.009C379.352 197.829 379.488 196.678 379.813 195.555L379.84 195.527Z" fill="black"/>
<path d="M411.69 195.527C411.826 195.106 411.961 194.629 412.151 194.235C412.205 193.758 412.476 193.309 412.91 193.084C413.181 192.972 413.479 192.972 413.75 193.028C414.536 192.972 415.295 193.421 415.675 194.179C416.054 194.965 416 195.948 416 196.791C416 197.633 415.946 198.475 415.837 199.289C415.81 199.514 415.729 199.739 415.702 199.963C415.648 201.143 415.512 202.294 415.187 203.417C415.051 203.838 414.916 204.315 414.726 204.708C414.672 205.186 414.401 205.635 413.967 205.86C413.696 205.972 413.398 205.972 413.127 205.916C412.341 205.972 411.582 205.523 411.202 204.765C410.823 203.978 410.877 202.996 410.877 202.153C410.877 201.311 410.931 200.469 411.04 199.654C411.067 199.43 411.148 199.205 411.175 198.981C411.229 197.801 411.365 196.65 411.69 195.527Z" fill="black"/>
</g>
<defs>
<clipPath id="clip0_2426_7636">
<rect width="461" height="382" fill="white" transform="translate(113 121)"/>
</clipPath>
<clipPath id="clip1_2426_7636">
<rect width="29" height="71" fill="white" transform="matrix(-0.716017 0.698083 0.698083 0.716017 285.765 105)"/>
</clipPath>
<clipPath id="clip2_2426_7636">
<rect width="37" height="13" fill="white" transform="translate(379 193)"/>
</clipPath>
</defs>
</svg>
