<svg width="750" height="608" viewBox="0 0 750 608" fill="none" xmlns="http://www.w3.org/2000/svg">
<g opacity="0.3" filter="url(#filter0_f_2426_6235)">
<path d="M190.073 220.281C178.987 227.773 175.196 244.38 181.606 257.375C188.016 270.369 202.199 274.83 213.285 267.338C224.371 259.847 228.162 243.24 221.752 230.245C215.342 217.251 201.159 212.79 190.073 220.281ZM190.769 221.693C193.317 219.971 196.076 218.886 198.97 218.468C200.362 218.267 201.778 218.224 203.181 218.341C204.571 218.457 205.959 218.731 207.307 219.155C208.655 219.579 209.974 220.156 211.227 220.872C212.491 221.593 213.7 222.462 214.819 223.452C217.147 225.514 219.074 228.073 220.547 231.059C222.021 234.046 222.95 237.279 223.311 240.669C223.485 242.299 223.523 243.958 223.425 245.601C223.328 247.229 223.096 248.854 222.735 250.433C222.375 252.011 221.883 253.555 221.274 255.022C220.66 256.502 219.92 257.917 219.075 259.226C217.319 261.951 215.136 264.205 212.588 265.927C210.041 267.649 207.281 268.734 204.387 269.152C202.996 269.353 201.579 269.396 200.177 269.279C198.787 269.163 197.399 268.889 196.051 268.465C194.703 268.041 193.384 267.464 192.131 266.748C190.866 266.027 189.658 265.158 188.539 264.168C186.211 262.106 184.283 259.547 182.81 256.561C181.337 253.574 180.407 250.341 180.046 246.951C179.873 245.321 179.835 243.662 179.933 242.019C180.03 240.391 180.262 238.766 180.623 237.187C180.983 235.609 181.474 234.065 182.083 232.598C182.698 231.118 183.438 229.703 184.282 228.394C186.039 225.669 188.222 223.415 190.769 221.693Z" fill="#32373C"/>
<path d="M211.719 224.483C212.099 225.059 212.47 225.702 212.826 226.424C213.807 228.412 214.592 230.864 215.018 234.306L218.449 255.073C221.746 248.314 221.975 239.739 218.407 232.505C216.726 229.096 214.402 226.394 211.719 224.483ZM202.82 245.325L206.232 265.811C207.986 265.315 209.71 264.526 211.352 263.417C213.3 262.101 214.974 260.444 216.359 258.551C216.272 258.498 216.187 258.436 216.105 258.362L202.82 245.325ZM212.485 235.189C211.289 232.765 209.719 231.589 208.438 230.714C206.793 229.671 205.324 228.841 204.527 227.225C203.638 225.423 203.976 222.958 205.619 221.848C205.694 221.797 205.769 221.76 205.844 221.717C201.291 220.532 196.363 221.26 192.009 224.203C186.165 228.152 182.757 235.141 182.392 242.484C182.791 242.234 183.166 241.993 183.48 241.781C185.229 240.599 187.815 238.519 187.815 238.519C188.686 237.848 189.558 239.329 188.719 240.062C188.719 240.062 187.874 240.799 186.897 241.542L203.464 258.664L200.777 243.322L194.043 236.713C193.111 237.26 192.197 237.712 192.197 237.712C191.264 238.259 190.573 236.572 191.506 236.025C191.506 236.025 194.391 234.408 196.034 233.297C197.783 232.115 200.37 230.035 200.37 230.035C201.241 229.363 202.113 230.845 201.273 231.578C201.273 231.578 200.427 232.316 199.451 233.058L215.892 250.05L214.457 242.474C213.842 239.155 213.312 236.867 212.485 235.189ZM184.952 255.113C188.78 262.873 195.936 266.981 203.084 266.387L182.465 246.155C182.739 249.22 183.55 252.27 184.952 255.113Z" fill="#32373C"/>
</g>
<g opacity="0.3" filter="url(#filter1_f_2426_6235)">
<path d="M583.011 77.2563C549.782 55.0234 508.458 66.5029 490.712 102.897C472.966 139.29 485.518 186.816 518.747 209.049C551.977 231.282 593.301 219.803 611.046 183.409C628.792 147.016 616.24 99.4892 583.011 77.2563ZM581.083 81.2101C588.72 86.3197 595.328 92.9124 600.724 100.805C603.318 104.599 605.612 108.682 607.545 112.942C609.46 117.163 611.036 121.593 612.229 126.111C613.422 130.628 614.242 135.268 614.666 139.903C615.093 144.58 615.122 149.294 614.75 153.911C613.975 163.518 611.515 172.63 607.436 180.994C603.358 189.358 597.908 196.469 591.237 202.131C588.031 204.852 584.551 207.218 580.894 209.163C577.27 211.089 573.441 212.62 569.514 213.711C565.586 214.802 561.528 215.462 557.452 215.674C553.338 215.888 549.169 215.648 545.062 214.958C536.517 213.523 528.312 210.205 520.675 205.095C513.038 199.986 506.43 193.393 501.035 185.501C498.441 181.707 496.146 177.623 494.213 173.363C492.298 169.143 490.723 164.712 489.53 160.195C488.337 155.678 487.517 151.038 487.093 146.403C486.665 141.725 486.637 137.012 487.009 132.394C487.783 122.788 490.244 113.676 494.322 105.312C498.4 96.9481 503.851 89.8363 510.521 84.1747C513.728 81.4535 517.208 79.0876 520.865 77.143C524.488 75.2162 528.317 73.6864 532.245 72.5954C536.172 71.5041 540.23 70.8432 544.307 70.6311C548.421 70.417 552.59 70.6582 556.697 71.3477C565.242 72.7822 573.446 76.1005 581.083 81.2101Z" fill="#32373C"/>
<path d="M607.728 146.247C607.09 148.14 606.297 150.098 605.312 152.119C602.596 157.689 598.588 163.316 591.907 169.235L552.948 207.482C572.496 207.938 591.145 196.958 601.023 176.699C605.678 167.152 607.827 156.686 607.728 146.247ZM549.422 148.545L511.032 186.353C514.819 190.807 519.185 194.776 524.106 198.068C529.945 201.975 536.084 204.619 542.275 206.095C542.256 205.771 542.253 205.439 542.284 205.098L549.422 148.545ZM586.082 163.03C589.392 156.241 589.457 150.053 589.333 145.12C588.998 138.894 588.482 133.471 590.688 128.945C593.149 123.898 598.935 121.538 603.86 124.833C604.083 124.982 604.279 125.153 604.487 125.312C599.932 110.392 590.712 96.9741 577.659 88.2408C560.142 76.5202 539.932 76.0538 523.698 84.9615C524.855 85.7898 525.952 86.5578 526.892 87.1871C532.135 90.6951 540.596 95.4299 540.596 95.4299C543.382 97.0641 541.58 101.627 538.71 100.17C538.71 100.17 535.823 98.7005 532.717 96.8525L521.971 168.55L550.519 139.852L554.138 111.184C551.521 109.204 549.134 107.144 549.134 107.144C546.516 105.161 549.039 100.849 551.658 102.831C551.658 102.831 559.596 109.068 564.523 112.365C569.766 115.873 578.228 120.608 578.228 120.608C581.015 122.243 579.212 126.805 576.341 125.348C576.341 125.348 573.451 123.876 570.348 122.03L559.685 193.182L573.61 178.692C579.733 172.385 583.791 167.729 586.082 163.03ZM500.744 109.605C490.146 131.34 492.518 157.841 504.905 177.933L515.983 90.1623C509.871 95.1296 504.626 101.644 500.744 109.605Z" fill="#32373C"/>
</g>
<path d="M371.999 226.942C320.118 226.942 278.061 268.892 278.061 320.641C278.061 372.389 320.118 414.34 371.999 414.34C423.879 414.34 465.937 372.389 465.937 320.641C465.937 268.892 423.879 226.942 371.999 226.942ZM371.999 232.564C383.922 232.564 395.486 234.892 406.368 239.483C411.599 241.69 416.645 244.422 421.365 247.603C426.042 250.754 430.441 254.374 434.438 258.361C438.435 262.348 442.064 266.735 445.224 271.4C448.412 276.108 451.151 281.141 453.364 286.359C457.967 297.214 460.301 308.748 460.301 320.641C460.301 332.534 457.967 344.068 453.364 354.923C451.151 360.14 448.412 365.173 445.224 369.882C442.064 374.547 438.435 378.934 434.438 382.921C430.441 386.908 426.042 390.527 421.365 393.679C416.645 396.86 411.599 399.592 406.368 401.798C395.486 406.39 383.922 408.718 371.999 408.718C360.075 408.718 348.512 406.39 337.63 401.798C332.399 399.592 327.353 396.86 322.632 393.679C317.955 390.527 313.557 386.908 309.56 382.921C305.563 378.934 301.934 374.547 298.774 369.882C295.585 365.173 292.846 360.14 290.634 354.923C286.031 344.068 283.697 332.534 283.697 320.641C283.697 308.748 286.031 297.214 290.634 286.359C292.846 281.141 295.585 276.108 298.774 271.4C301.934 266.735 305.563 262.348 309.56 258.361C313.557 254.374 317.955 250.754 322.632 247.603C327.353 244.422 332.399 241.69 337.63 239.483C348.512 234.892 360.075 232.564 371.999 232.564Z" fill="#32373C"/>
<path d="M440.696 283.18C441.032 285.667 441.222 288.334 441.222 291.208C441.222 299.129 439.734 308.036 435.267 319.175L411.358 388.127C434.631 374.593 450.283 349.444 450.283 320.638C450.283 307.063 446.805 294.3 440.696 283.18ZM373.376 327.468L349.885 395.542C356.9 397.601 364.317 398.724 372.001 398.724C381.116 398.724 389.862 397.154 397.998 394.296C397.788 393.962 397.595 393.608 397.436 393.22L373.376 327.468ZM424.847 316.7C424.847 307.047 421.371 300.366 418.394 295.167C414.426 288.732 410.704 283.288 410.704 276.853C410.704 269.677 416.16 262.996 423.85 262.996C424.197 262.996 424.527 263.037 424.863 263.059C410.936 250.33 392.38 242.559 372.001 242.559C344.651 242.559 320.592 256.556 306.594 277.751C308.432 277.809 310.164 277.846 311.632 277.846C319.818 277.846 332.496 276.853 332.496 276.853C336.714 276.607 337.212 282.791 332.997 283.288C332.997 283.288 328.755 283.783 324.038 284.03L352.544 368.607L369.677 317.361L357.481 284.03C353.264 283.783 349.271 283.288 349.271 283.288C345.051 283.039 345.546 276.607 349.767 276.853C349.767 276.853 362.692 277.846 370.384 277.846C378.571 277.846 391.25 276.853 391.25 276.853C395.47 276.607 395.966 282.791 391.749 283.288C391.749 283.288 387.502 283.783 382.79 284.03L411.08 367.963L419.156 342.439C422.744 331.284 424.847 323.381 424.847 316.7ZM293.719 320.638C293.719 351.543 311.724 378.254 337.84 390.909L300.497 288.861C296.153 298.571 293.719 309.317 293.719 320.638Z" fill="#32373C"/>
<path d="M337.102 521.473H335.64C328.126 521.473 327.082 519.6 327.082 510.021V464.839H337.102C358.81 464.839 362.777 480.661 362.777 492.947C362.777 505.649 358.81 521.473 337.102 521.473ZM249.012 492.529V464.839H257.57C266.963 464.839 271.14 471.292 271.14 478.787C271.14 486.076 266.963 492.529 257.57 492.529H249.012ZM336.476 458.593H299.11V462.547C310.799 462.547 312.677 465.046 312.677 479.83V506.482C312.677 521.265 310.799 523.972 299.11 523.972C290.136 522.723 284.08 517.933 275.73 508.772L266.13 498.362C279.071 496.07 285.959 487.95 285.959 478.787C285.959 467.338 276.149 458.593 257.779 458.593H221.039V462.547C232.728 462.547 234.606 465.046 234.606 479.83V506.482C234.606 521.265 232.728 523.972 221.039 523.972V527.927H262.579V523.972C250.89 523.972 249.012 521.265 249.012 506.482V498.987H252.56L275.73 527.927H336.476C366.327 527.927 379.269 512.104 379.269 493.154C379.269 474.208 366.327 458.593 336.476 458.593Z" fill="#32373C"/>
<path d="M104.771 500.236L119.174 457.756C123.351 445.473 121.472 441.934 108.112 441.934V437.768H147.357V441.934C134.206 441.934 131.075 445.057 125.856 460.257L102.057 531.467H99.3446L78.0508 466.294L56.3426 531.467H53.628L30.458 460.257C25.4481 445.057 22.1075 441.934 10 441.934V437.768H56.3426V441.934C44.025 441.934 40.6847 444.848 45.0704 457.756L59.0546 500.236L80.139 437.768H84.1057L104.771 500.236Z" fill="#32373C"/>
<path d="M175.742 462.341C156.538 462.341 149.857 479.621 149.857 493.154C149.857 506.898 156.538 523.972 175.742 523.972C195.157 523.972 201.836 506.898 201.836 493.154C201.836 479.621 195.157 462.341 175.742 462.341ZM175.742 530.634C152.781 530.634 133.992 513.769 133.992 493.154C133.992 472.75 152.781 455.883 175.742 455.883C198.705 455.883 217.492 472.75 217.492 493.154C217.492 513.769 198.705 530.634 175.742 530.634Z" fill="#32373C"/>
<path d="M426.235 445.264H414.337V481.495H426.235C437.926 481.495 443.352 473.375 443.352 463.589C443.352 453.595 437.926 445.264 426.235 445.264ZM430.828 523.763V527.926H383.025V523.763C397.012 523.763 399.517 520.224 399.517 499.4V466.088C399.517 445.264 397.012 441.934 383.025 441.934V437.768H426.235C447.736 437.768 459.636 448.805 459.636 463.589C459.636 477.956 447.736 489.199 426.235 489.199H414.337V499.4C414.337 520.224 416.842 523.763 430.828 523.763Z" fill="#32373C"/>
<path d="M492.41 492.529V464.839H500.968C510.361 464.839 514.537 471.292 514.537 478.787C514.537 486.076 510.361 492.529 500.968 492.529H492.41ZM603.042 508.356L601.999 512.104C600.12 518.975 597.823 521.473 583.003 521.473H580.079C569.226 521.473 567.347 518.975 567.347 504.191V494.614C583.629 494.614 584.881 496.07 584.881 506.898H588.848V475.873H584.881C584.881 486.701 583.629 488.157 567.347 488.157V464.839H578.826C593.649 464.839 595.944 467.338 597.823 474.208L598.868 478.163H602.206L600.747 458.593H539.374V462.547C551.063 462.547 552.942 465.046 552.942 479.83V506.483C552.942 520.006 551.345 523.413 542.13 523.898C533.37 522.564 527.356 517.798 519.128 508.772L509.525 498.362C522.469 496.07 529.357 487.95 529.357 478.787C529.357 467.338 519.547 458.593 501.177 458.593H464.438V462.547C476.126 462.547 478.004 465.046 478.004 479.83V506.483C478.004 521.265 476.126 523.972 464.438 523.972V527.927H505.977V523.972C494.289 523.972 492.41 521.265 492.41 506.483V498.987H495.958L519.128 527.927H604.921L606.173 508.356H603.042Z" fill="#32373C"/>
<path d="M645.414 530.634C637.064 530.634 629.756 526.261 626.625 523.554C625.582 524.596 623.704 527.72 623.287 530.634H619.32V501.901H623.494C625.166 515.643 634.766 523.763 647.083 523.763C653.762 523.763 659.191 520.015 659.191 513.769C659.191 508.356 654.388 504.19 645.831 500.236L633.933 494.614C625.582 490.655 619.32 483.784 619.32 474.624C619.32 464.63 628.714 456.094 641.657 456.094C648.546 456.094 654.388 458.593 657.939 461.507C658.982 460.673 660.025 458.381 660.654 455.883H664.618V480.455H660.234C658.772 470.667 653.346 462.547 642.283 462.547C636.438 462.547 631.009 465.879 631.009 471.085C631.009 476.498 635.393 479.412 645.414 483.993L656.893 489.615C666.915 494.403 670.88 502.11 670.88 508.356C670.88 521.473 659.398 530.634 645.414 530.634Z" fill="#32373C"/>
<path d="M708.534 530.634C700.183 530.634 692.876 526.261 689.745 523.554C688.702 524.596 686.823 527.72 686.407 530.634H682.439V501.901H686.614C688.285 515.643 697.886 523.763 710.203 523.763C716.882 523.763 722.311 520.015 722.311 513.769C722.311 508.356 717.508 504.19 708.951 500.236L697.052 494.614C688.702 490.655 682.439 483.784 682.439 474.624C682.439 464.63 691.833 456.094 704.776 456.094C711.665 456.094 717.508 458.593 721.058 461.507C722.101 460.673 723.144 458.381 723.77 455.883H727.737V480.455H723.354C721.891 470.667 716.465 462.547 705.403 462.547C699.557 462.547 694.128 465.879 694.128 471.085C694.128 476.498 698.512 479.412 708.534 483.993L720.013 489.615C730.035 494.403 733.999 502.11 733.999 508.356C733.999 521.473 722.518 530.634 708.534 530.634Z" fill="#32373C"/>
<defs>
<filter id="filter0_f_2426_6235" x="170.488" y="208.647" width="62.3809" height="70.3264" filterUnits="userSpaceOnUse" color-interpolation-filters="sRGB">
<feFlood flood-opacity="0" result="BackgroundImageFix"/>
<feBlend mode="normal" in="SourceGraphic" in2="BackgroundImageFix" result="shape"/>
<feGaussianBlur stdDeviation="4" result="effect1_foregroundBlur_2426_6235"/>
</filter>
<filter id="filter1_f_2426_6235" x="478.656" y="61.9218" width="144.445" height="162.462" filterUnits="userSpaceOnUse" color-interpolation-filters="sRGB">
<feFlood flood-opacity="0" result="BackgroundImageFix"/>
<feBlend mode="normal" in="SourceGraphic" in2="BackgroundImageFix" result="shape"/>
<feGaussianBlur stdDeviation="2" result="effect1_foregroundBlur_2426_6235"/>
</filter>
</defs>
</svg>
