<svg width="1306" height="673" viewBox="0 0 1306 673" fill="none" xmlns="http://www.w3.org/2000/svg">
<path d="M20 441.51C19.9999 461.613 19.9999 343.545 20 456.01C20 632.595 274.693 626.076 274.693 456.01C274.693 369.188 274.693 281.703 274.693 204.01C274.693 38.3014 509.941 25.8053 509.941 204.01C509.941 344.89 510 370.613 510 488.512" stroke="#C2C2C2" stroke-dasharray="6 13"/>
<path d="M523 255.511C523 137.612 522.942 335.901 522.942 195.021C522.942 125.783 487.429 85.3321 444 71.4702" stroke="#FFD400" stroke-width="11" stroke-linecap="round"/>
<path d="M985 198.561C985 129.323 985 177.01 985 132.01" stroke="#FFD400" stroke-width="11" stroke-linecap="round"/>
<path d="M6.05849 464.5C6.05849 528.01 42 571.51 85 588.05" stroke="#FFD400" stroke-width="11" stroke-linecap="round"/>
<path d="M1198.47 664.151C1258.43 629.532 1266 589.01 1266 534.01" stroke="#FFD400" stroke-width="11" stroke-linecap="round"/>
<path d="M510 490.02C510 510.122 510 429.552 510 542.017C510 718.602 764.693 712.083 764.693 542.017C764.693 455.195 764.751 207.703 764.751 130.01C764.751 -35.6984 1000 -48.1945 1000 130.01C1000 270.89 1000 358.612 1000 476.511" stroke="#C2C2C2" stroke-dasharray="6 13"/>
<path d="M1000 490.02C1000 510.122 1000 429.552 1000 542.017C1000 718.602 1254.69 712.083 1254.69 542.017C1254.69 455.195 1254.75 207.703 1254.75 130.01" stroke="#C2C2C2" stroke-dasharray="6 13"/>
</svg>
