<svg width="132" height="147" viewBox="0 0 132 147" fill="none" xmlns="http://www.w3.org/2000/svg">
<path d="M58.6899 40.4377L57.1899 41.9377V44.4377L56.6899 47.4377L55.6899 51.4377L53.6899 55.9377L52.1899 58.4377L54.6899 58.9377L58.6899 59.9377H63.1899L66.1899 58.9377L69.1899 57.4377L68.6899 53.4377L66.6899 46.4377L65.1899 41.9377L64.1899 40.9377L63.1899 41.9377L59.6899 41.4377L58.6899 40.4377Z" fill="#FFD400"/>
<path d="M61.186 35.6745C61.2813 35.675 61.3743 35.6448 61.4512 35.5883C61.5281 35.5318 61.5848 35.4522 61.6129 35.361C61.6376 35.0715 61.563 34.7823 61.4014 34.5408C61.2212 34.2863 61.0181 34.1039 60.6846 34.2986C60.1994 34.5822 60.6341 35.6745 61.186 35.6745Z" fill="black"/>
<path d="M62.4034 34.3539C62.9016 34.9782 63.4601 35.552 64.0706 36.0671C63.4359 36.4289 63.1715 36.527 63.1699 36.7799C63.1742 36.862 63.2058 36.9402 63.2596 37.0022C63.305 37.0428 63.36 37.0712 63.4194 37.0846C63.4789 37.098 63.5407 37.0961 63.5992 37.0789C63.9528 36.9197 64.2905 36.7275 64.6079 36.5048C64.6753 36.4587 64.7303 36.3968 64.7681 36.3245C64.8059 36.2522 64.8254 36.1717 64.8249 36.0901C64.8187 35.8011 64.5497 35.6041 64.4063 35.5006C63.859 35.0246 63.3508 34.4773 62.7966 33.9453C62.7278 33.8964 62.6457 33.8697 62.5613 33.8687C62.5047 33.8686 62.4495 33.8866 62.4036 33.9198C62.3578 33.9531 62.3237 34.0001 62.3061 34.0539C62.2886 34.1078 62.2886 34.1658 62.306 34.2197C62.3235 34.2736 62.3576 34.3205 62.4034 34.3539Z" fill="black"/>
<path d="M64.06 36.8995C63.72 37.0849 63.3367 37.1765 62.9496 37.1649C62.5624 37.1533 62.1853 37.039 61.857 36.8335C61.8626 36.7885 61.8581 36.7428 61.8438 36.6997C61.8296 36.6566 61.806 36.6172 61.7746 36.5843C61.7433 36.5515 61.7051 36.526 61.6628 36.5097C61.6204 36.4934 61.5749 36.4867 61.5297 36.4901C61.3603 36.4901 61.2997 36.5752 60.9724 36.8627C60.9295 36.9022 60.899 36.9534 60.8847 37.0099C60.8704 37.0665 60.8728 37.126 60.8918 37.1812C60.9107 37.2364 60.9453 37.2849 60.9913 37.3208C61.0374 37.3566 61.0929 37.3783 61.151 37.3831C61.404 38.93 62.8895 39.4788 63.8239 38.6241C64.0646 38.3428 63.7565 37.8929 63.3487 38.1642C63.2108 38.2941 63.031 38.3704 62.8419 38.3794C62.6527 38.3884 62.4665 38.3295 62.3169 38.2133C62.0857 38.0205 61.9167 37.7637 61.8309 37.4751C62.9562 37.9826 64.2693 37.5809 64.4318 37.2574C64.4592 37.2059 64.4691 37.1469 64.4599 37.0892C64.4508 37.0316 64.4231 36.9785 64.3811 36.9381C64.339 36.8976 64.2849 36.8719 64.227 36.8649C64.1691 36.858 64.1104 36.8701 64.06 36.8995Z" fill="black"/>
<path d="M60.6715 33.726C61.1774 33.6762 61.1698 33.1373 60.8509 33.0822C60.5823 33.0892 60.322 33.1759 60.1029 33.3314C59.8838 33.4869 59.7159 33.7041 59.6206 33.9552C59.6033 34.0026 59.599 34.0537 59.6082 34.1033C59.6174 34.1529 59.6397 34.1991 59.6728 34.2372C59.7059 34.2752 59.7486 34.3037 59.7965 34.3196C59.8443 34.3355 59.8956 34.3384 59.9449 34.3278C60.1526 34.2795 60.0882 34.0978 60.4293 33.8564C60.504 33.8024 60.5854 33.7586 60.6715 33.726Z" fill="black"/>
<path d="M25.5363 59.3142C25.8483 59.1195 25.5417 58.5707 25.219 58.7707C23.6706 59.7381 13.2918 66.1747 9.69443 68.5057C9.6279 68.557 9.58316 68.6316 9.56914 68.7145C9.55512 68.7973 9.57283 68.8825 9.61876 68.9529C9.66469 69.0232 9.73546 69.0737 9.81696 69.0943C9.89847 69.1148 9.98472 69.1039 10.0585 69.0637C15.2518 65.9439 20.3638 62.5789 25.5363 59.3142Z" fill="black"/>
<path d="M19.6785 43.3973C19.7178 43.3994 19.757 43.3927 19.7933 43.3775C19.8296 43.3623 19.8619 43.339 19.8879 43.3095C19.9139 43.28 19.9328 43.2449 19.9433 43.207C19.9537 43.1691 19.9555 43.1293 19.9483 43.0907C19.9537 43.054 19.9514 43.0167 19.9417 42.981C19.9319 42.9453 19.9149 42.912 19.8916 42.8832C19.8684 42.8544 19.8394 42.8307 19.8066 42.8137C19.7737 42.7966 19.7377 42.7865 19.7008 42.7841C13.2181 42.4266 6.71782 42.5566 0.254645 43.1727C0.185223 43.1826 0.121564 43.2168 0.0749639 43.2692C0.0283641 43.3216 0.00183778 43.3889 9.20003e-05 43.459C-0.00165378 43.5291 0.0214942 43.5975 0.0654277 43.6522C0.109361 43.7069 0.171239 43.7442 0.240081 43.7576C0.240081 43.7576 19.0316 43.3889 19.6785 43.3973Z" fill="black"/>
<path d="M21.6547 17.152C21.6924 17.1839 21.7366 17.2072 21.7842 17.2202C21.8318 17.2333 21.8817 17.2357 21.9304 17.2274C21.979 17.219 22.0253 17.2002 22.0658 17.172C22.1064 17.1439 22.1403 17.1073 22.1652 17.0646C22.1874 17.0059 22.1935 16.9422 22.1827 16.8803C22.1719 16.8184 22.1447 16.7606 22.1039 16.7128C19.4678 13.9525 16.6018 11.1547 13.3509 8.17058C13.3204 8.14241 13.2837 8.12172 13.2438 8.11013C13.2039 8.09855 13.1619 8.09638 13.121 8.10381C13.0801 8.11125 13.0415 8.12807 13.0083 8.15296C12.975 8.17784 12.948 8.21012 12.9293 8.24723C12.7101 8.68569 12.4993 7.94445 21.6547 17.152Z" fill="black"/>
<path d="M33.2293 6.39084C35.5879 10.8735 35.5557 10.9049 35.811 10.9049H35.8808C35.9295 10.9046 35.9772 10.891 36.0188 10.8657C36.0604 10.8403 36.0943 10.8042 36.117 10.7611C36.1397 10.7179 36.1502 10.6695 36.1475 10.6208C36.1447 10.5722 36.1289 10.5252 36.1015 10.4849C35.7075 9.6279 35.2376 8.78854 34.7839 7.97526C34.6359 7.71157 32.8729 4.46531 32.5494 3.87738C32.5238 3.82916 32.4843 3.78969 32.4361 3.76402C32.3879 3.73835 32.3332 3.72764 32.2788 3.73327C32.2328 3.73352 32.1876 3.74558 32.1476 3.76829C32.1075 3.79099 32.074 3.8236 32.0501 3.86297C32.0263 3.90235 32.0129 3.94719 32.0114 3.99319C32.0098 4.0392 32.0201 4.08483 32.0412 4.12574C32.4321 4.88 32.8323 5.6358 33.2293 6.39084Z" fill="black"/>
<path d="M71.1234 12.0524C71.5297 11.8937 70.9625 12.2364 73.8829 0.363559C73.8934 0.308127 73.8885 0.250872 73.8685 0.198097C73.8486 0.145322 73.8144 0.0990739 73.7699 0.0644422C73.7254 0.0298105 73.6721 0.00813851 73.6161 0.00181198C73.56 -0.00451455 73.5033 0.00474946 73.4522 0.0285845C73.3692 0.0694644 73.3056 0.141316 73.2751 0.228649C72.2339 4.02538 71.3937 7.87436 70.7578 11.7596C70.7497 11.8067 70.7543 11.8552 70.7713 11.8999C70.7882 11.9446 70.8169 11.984 70.8542 12.0139C70.8915 12.0438 70.9362 12.0631 70.9836 12.0699C71.0309 12.0767 71.0792 12.0706 71.1234 12.0524Z" fill="black"/>
<path d="M98.5874 21.2162C99.4329 20.1063 100.417 19.1093 101.516 18.2497C101.516 18.2497 110.222 10.6136 111.9 9.11422C112.187 8.86663 111.907 8.36072 111.46 8.61827C109.909 9.9528 100.946 17.8933 100.946 17.8933C99.8647 18.7459 98.9046 19.7418 98.0922 20.8536C98.0494 20.9272 98.0359 21.0141 98.0546 21.0972C98.0732 21.1802 98.1225 21.2531 98.1926 21.3013C98.259 21.3303 98.3329 21.3376 98.4037 21.3224C98.4745 21.3071 98.5388 21.27 98.5874 21.2162Z" fill="black"/>
<path d="M107.215 33.2866C107.114 33.3242 107.072 33.43 107.041 33.5526C107.029 33.6002 107.03 33.6503 107.045 33.6972C107.059 33.7442 107.086 33.7863 107.123 33.8189C107.159 33.8516 107.204 33.8736 107.253 33.8824C107.301 33.8913 107.351 33.8867 107.397 33.8692C112.887 31.7758 113.85 31.6317 116.333 30.7793C116.408 30.7418 116.468 30.6799 116.504 30.6038C116.526 30.5521 116.533 30.4953 116.525 30.4397C116.517 30.3841 116.494 30.3317 116.458 30.2884C116.422 30.245 116.376 30.2123 116.322 30.1939C116.269 30.1754 116.212 30.1719 116.157 30.1837C113.99 30.7778 109.298 32.504 107.215 33.2866Z" fill="black"/>
<path d="M131.509 59.523C131.331 59.4532 107.622 58.5671 105.877 58.6031C105.83 58.6042 105.785 58.6176 105.744 58.6419C105.704 58.6663 105.671 58.7008 105.649 58.7419C105.626 58.783 105.614 58.8293 105.615 58.8763C105.616 58.9232 105.629 58.9691 105.653 59.0094C105.674 59.058 105.708 59.0997 105.752 59.1298C105.795 59.1599 105.846 59.1771 105.899 59.1795C108.162 59.2562 130.334 60.1477 131.389 60.1477C131.464 60.1463 131.535 60.1193 131.592 60.0713C131.649 60.0233 131.688 59.9571 131.702 59.8838C131.716 59.8106 131.705 59.7348 131.669 59.6691C131.634 59.6034 131.577 59.5518 131.509 59.523Z" fill="black"/>
<path d="M122.678 75.3587C122.613 75.282 122.978 75.466 116.64 72.5432C116.989 71.9177 117.351 71.2976 117.725 70.6829C117.752 70.607 117.754 70.524 117.73 70.4469C117.706 70.3698 117.657 70.3028 117.591 70.2565C117.524 70.2101 117.445 70.187 117.364 70.1906C117.283 70.1942 117.206 70.2245 117.144 70.2766L114.527 71.6403C109.697 69.3844 105.258 67.4443 100.977 65.7165C99.232 65.0144 94.6021 63.187 94.5868 63.177L94.5807 63.1885C94.3009 63.1072 94.2741 63.1678 94.2143 63.3142C94.107 63.5802 94.1223 63.5748 95.1908 64.0102C90.9642 72.186 86.9889 78.782 82.2939 88.4096C81.5943 88.7358 81.0242 89.2872 80.675 89.9757C80.2021 91.1753 81.3986 91.1822 76.0758 68.0629C74.0491 59.2585 74.207 59.7529 74.1028 59.6671C74.0573 59.6293 74.0023 59.6046 73.9438 59.5959C73.8853 59.5871 73.8255 59.5945 73.7709 59.6172C73.7709 59.6172 70.0762 60.291 68.7317 60.5693C68.6166 59.6659 68.7259 58.7482 69.0498 57.8971C69.1024 57.9459 69.1698 57.9756 69.2413 57.9814C69.3127 57.9873 69.3841 57.9689 69.4438 57.9293C70.7188 57.2122 71.8951 56.3323 72.943 55.3116C73.4949 54.836 73.9633 54.2715 74.3289 53.6414C74.4941 53.0429 74.4162 52.4034 74.112 51.8622C73.5984 50.3982 72.9837 48.9715 72.2723 47.5927C80.3532 42.4877 87.4323 35.9479 93.1603 28.296C93.3718 28.3221 94.7209 28.4892 94.816 28.4892C95.4821 28.4892 95.7588 27.8507 95.361 27.4536C95.6461 27.4444 96.0884 27.3831 96.1735 26.9653C96.1927 26.8492 96.1758 26.73 96.1249 26.6238C96.074 26.5177 95.9917 26.4298 95.8891 26.372C95.9267 26.3128 95.952 26.2467 95.9636 26.1775C95.9752 26.1083 95.9728 26.0375 95.9566 25.9693C95.9404 25.9011 95.9107 25.8368 95.8692 25.7802C95.8277 25.7236 95.7753 25.676 95.7151 25.64C95.2145 25.3348 94.6268 25.2043 94.0441 25.269C94.1128 25.2029 94.1641 25.1208 94.1934 25.03C94.2228 24.9393 94.2292 24.8427 94.2122 24.7489C94.1952 24.6551 94.1553 24.5669 94.096 24.4922C94.0367 24.4175 93.9599 24.3586 93.8724 24.3208C93.6397 24.2468 93.3873 24.2671 93.1695 24.3775C92.3942 24.6124 91.7217 25.1038 91.2624 25.7711C90.9481 25.8347 84.6503 28.736 80.5309 30.9605C76.4606 33.162 67.355 38.6863 63.8252 40.9039C63.7776 40.7889 63.7224 40.6517 63.691 40.5513C63.8596 40.5011 64.0252 40.4412 64.187 40.3719C65.7399 39.4659 66.2374 37.4384 65.9032 35.7804C65.8795 35.6555 65.8419 35.5351 65.8151 35.411C66.2256 34.8596 66.5607 34.2558 66.8116 33.6157C66.8456 33.292 66.815 32.9647 66.7216 32.6528C66.6281 32.341 66.4737 32.0508 66.2673 31.7991C66.1225 31.6117 66.0419 31.3827 66.0374 31.146C66.091 30.6761 66.8805 30.2346 66.344 29.2695C66.1638 28.9375 65.9221 28.6428 65.6319 28.401C64.6306 27.3485 63.3987 26.543 62.033 26.0478C60.7628 25.594 59.3747 25.594 58.1045 26.0478C57.5446 26.3512 57.004 26.6889 56.4856 27.0588C55.9699 27.322 55.4281 27.5306 54.869 27.6813C54.227 27.9447 53.6635 28.3688 53.2327 28.9129C52.8019 29.4569 52.5183 30.1027 52.4092 30.788C52.1555 32.1977 52.7649 33.5475 52.5955 34.9273C52.4613 36.0142 51.2617 36.7171 50.1058 37.2614C49.7227 37.4056 49.354 37.5852 49.0043 37.7979C38.9505 34.4252 29.7375 31.7469 23.9778 30.276C23.9017 30.2435 23.816 30.2418 23.7387 30.2714C23.4617 29.769 23.0967 29.3206 22.6609 28.9476C22.5672 28.8837 22.4589 28.8444 22.346 28.8331C22.2332 28.8219 22.1193 28.8391 22.0147 28.8832C21.6706 29.0603 21.7403 29.5033 21.8453 29.8751C21.2703 29.6261 20.6341 29.554 20.0179 29.6681C19.9349 29.6829 19.8571 29.7185 19.7917 29.7716C19.7262 29.8248 19.6754 29.8937 19.644 29.9719C19.6126 30.0501 19.6015 30.135 19.612 30.2187C19.6224 30.3023 19.654 30.3819 19.7036 30.45C19.5837 30.4793 19.476 30.5453 19.3954 30.6388C19.3148 30.7323 19.2653 30.8486 19.2539 30.9715C19.2426 31.0944 19.2698 31.2178 19.3318 31.3245C19.3939 31.4312 19.4877 31.5159 19.6002 31.5668C19.4868 31.6653 19.4146 31.8027 19.3977 31.9519C19.3808 32.101 19.4205 32.2511 19.509 32.3724C19.9374 32.9903 20.5307 32.5426 22.4218 33.5767C22.4149 33.6203 22.3995 33.6587 22.3926 33.7024C22.3926 34.5593 23.1193 35.0239 23.7026 35.3979C29.7475 39.275 35.3731 42.8241 45.1333 48.1614C44.3284 49.9191 43.4393 51.6591 42.4788 53.3347C42.4454 53.4005 42.4334 53.4751 42.4447 53.548C42.456 53.6209 42.4899 53.6884 42.5417 53.741C44.8781 55.6479 47.4392 57.2614 50.1679 58.5456C50.6146 58.8438 51.122 59.0388 51.6534 59.1167C51.8678 59.1211 52.0763 59.0469 52.2398 58.9082C52.3165 58.8185 52.3801 58.7219 52.4491 58.6276C52.4713 58.6368 52.4943 58.6437 52.5165 58.6529C52.6108 60.7709 51.4702 62.4741 50.3564 64.2992C43.046 65.8851 35.6605 67.5891 28.357 69.3828C28.2778 69.4184 28.2142 69.4816 28.1781 69.5605C28.142 69.6395 28.1359 69.7289 28.1608 69.8121C30.0602 74.9432 31.7903 80.148 33.6032 85.4393C33.5265 85.4087 15.1995 78.1918 11.8237 77.2919C11.3952 76.8435 10.6371 77.6468 11.2963 77.8055C17.4424 86.4305 24.0047 97.8725 32.6825 112.453C29.7679 111.885 26.753 112.14 23.9748 113.188C21.7802 114.036 19.3579 115.986 19.7588 118.694C20.1521 121.377 23.0894 122.802 25.2848 123.764C28.3872 125.081 31.3536 126.699 34.142 128.593C36.8569 130.531 38.9522 133.214 40.1746 136.318C40.1119 136.355 40.0642 136.413 40.0397 136.481C39.6058 137.816 38.7136 141.9 38.3733 143.442C38.1609 144.195 38.0112 144.964 37.9256 145.742C37.9264 145.82 37.9558 145.896 38.0083 145.955C38.0609 146.013 38.133 146.051 38.2112 146.06C38.2894 146.07 38.3684 146.05 38.4333 146.006C38.4983 145.961 38.5448 145.895 38.5641 145.818C38.7902 145.06 38.9626 144.287 39.08 143.505C39.2425 142.744 40.3877 137.799 40.5364 137.136C52.571 141.847 65.5506 142.509 78.2865 139.779C79.0542 139.712 79.8019 139.498 80.4895 139.15C80.6651 139.657 82.9616 145.941 82.9616 145.941C82.9616 145.941 83.0573 146.099 83.141 146.139C83.2247 146.178 83.3206 146.183 83.4077 146.152C83.4948 146.12 83.566 146.056 83.6055 145.972C83.645 145.889 83.6497 145.793 83.6185 145.706C83.6185 145.706 81.2867 139.397 80.9655 138.632C81.2051 138.268 81.3398 137.845 81.3549 137.41C81.7635 135.094 82.6512 132.888 83.9611 130.935C85.271 128.981 86.9743 127.323 88.962 126.065C93.9345 122.913 97.4529 122.109 102.969 120.198C104.516 119.735 106.026 119.152 107.484 118.455C109.762 117.342 111.914 115.047 110.613 112.505C109.348 110.03 105.674 109.046 102.803 109.183C102.334 109.21 101.866 109.265 101.403 109.349C109.053 98.4773 114.931 87.1962 122.679 75.7826C122.729 75.7229 122.756 75.6478 122.755 75.5704C122.755 75.4929 122.728 75.418 122.678 75.3587ZM95.814 64.3521C95.8907 64.3521 102.681 67.0618 106.106 68.5442C107.735 69.2495 112.918 71.5728 113.854 71.9883L83.3242 87.8846C86.6785 81.1138 95.765 64.4287 95.814 64.3521ZM80.626 92.3818C80.6688 92.3432 80.7029 92.2958 80.7259 92.243C80.7489 92.1901 80.7603 92.1329 80.7593 92.0752C80.7593 92.0438 80.7501 92.0116 80.7463 91.9801C81.1595 90.6073 81.309 89.6675 82.5469 89.0474C83.8876 88.3759 116.378 71.4325 116.455 71.3919C114.579 74.7609 112.947 78.2602 111.571 81.8627C111.188 82.8009 99.7524 110.124 99.153 111.301C98.516 112.394 97.1884 112.919 96.0716 113.534C86.3313 118.907 76.8025 124.007 67.4669 129.803C72.4946 117.406 76.6783 105.162 80.6283 92.3826L80.626 92.3818ZM60.667 61.371C60.7285 61.5654 60.8314 61.7441 60.9684 61.8949C61.1055 62.0458 61.2736 62.1651 61.4612 62.2449C60.3927 62.3455 59.3166 62.3355 58.2502 62.215C57.2495 62.0067 56.26 61.7483 55.2852 61.4408L55.644 59.6157C57.3462 60.0093 59.085 60.2241 60.8319 60.2565C60.6568 60.6001 60.5989 60.9915 60.667 61.371ZM63.6197 61.115C63.802 61.095 63.9832 61.0656 64.1624 61.0269C64.0027 61.2306 63.7987 61.3954 63.5659 61.5088C63.3331 61.6222 63.0776 61.6813 62.8187 61.6815C62.44 61.7275 61.7356 61.8141 61.4558 61.4761C61.3343 61.2883 61.279 61.0653 61.2984 60.8425C61.3178 60.6197 61.411 60.4097 61.5631 60.2458C62.2968 60.2309 63.028 60.1576 63.75 60.0266C63.7615 60.0266 63.773 60.0419 63.7845 60.0426C63.934 60.0602 64.0711 60.1342 64.1678 60.2496L63.5546 60.3539C63.4598 60.3699 63.3745 60.421 63.3156 60.4969C63.2567 60.5729 63.2285 60.6683 63.2366 60.7641C63.2447 60.8599 63.2885 60.9491 63.3593 61.0141C63.4301 61.0791 63.5236 61.1152 63.6197 61.115ZM60.713 76.2617C60.7728 76.0256 60.9683 75.4407 61.1868 75.3219C62.1334 71.0646 62.821 67.4489 62.0974 63.2728C62.08 63.1726 62.1032 63.0696 62.1617 62.9864C62.2203 62.9032 62.3095 62.8468 62.4098 62.8294C62.51 62.812 62.613 62.8351 62.6962 62.8937C62.7793 62.9523 62.8358 63.0415 62.8532 63.1417C63.1261 64.9355 63.2114 66.7528 63.1077 68.5642C63.3521 68.4149 63.5598 68.2125 63.7154 67.9721C63.8711 67.7317 63.9707 67.4593 64.0068 67.1752C64.0974 65.7966 64.0178 64.412 63.77 63.0528C63.7599 63.0028 63.7599 62.9513 63.77 62.9014C63.7802 62.8514 63.8001 62.8039 63.8288 62.7618C63.8575 62.7196 63.8943 62.6836 63.937 62.6558C63.9798 62.6281 64.0277 62.6091 64.0779 62.6001C64.128 62.5911 64.1795 62.5921 64.2293 62.6033C64.2791 62.6144 64.3261 62.6353 64.3677 62.6648C64.4092 62.6944 64.4445 62.7319 64.4714 62.7752C64.4983 62.8185 64.5162 62.8668 64.5242 62.9171C64.79 64.3574 64.8709 65.8257 64.7649 67.2864C64.7014 67.7727 64.5054 68.2323 64.1984 68.6149C63.8914 68.9974 63.4852 69.2883 63.0241 69.4557C62.8233 71.1466 62.3641 73.4684 61.9786 75.2667C61.9999 75.2722 62.0209 75.2789 62.0414 75.2866C62.3657 75.4162 62.4055 76.3966 62.4791 76.7285C63.9217 83.3682 64.9535 85.3903 70.7653 100.507C69.4254 100.967 70.6021 100.655 62.7167 103.655C61.2504 104.213 56.0403 106.066 54.9158 106.477C54.4336 105.436 51.9738 100.115 51.2104 98.4796C52.2682 96.3662 55.8318 88.146 56.3216 86.9517C58.044 82.755 55.8126 88.389 60.713 76.2617ZM64.6875 59.825C65.2332 59.6829 65.7695 59.507 66.2934 59.2984L66.3769 61.1281C65.7277 61.358 65.08 61.5696 64.4361 61.7359C64.7191 61.5132 64.9038 61.1887 64.9508 60.8316C64.9978 60.4746 64.9033 60.1133 64.6875 59.825ZM70.983 101.077C72.0661 103.89 73.1615 106.7 74.2952 109.495C74.3335 109.669 71.1402 118.609 66.6958 130.145C62.7275 123.219 58.7576 114.756 55.1496 106.981C59.4605 105.554 69.6623 101.682 70.983 101.077ZM73.3033 60.3232C73.3942 60.2945 73.4866 60.2707 73.58 60.2519C73.6516 60.4417 73.7072 60.637 73.7464 60.836C76.4024 72.6582 78.8216 82.1571 80.0319 91.7962C79.9315 92.1128 79.8518 92.4316 79.7636 92.7497C79.6854 90.673 79.4217 88.6074 78.9756 86.5776C76.8868 76.2295 74.2523 70.1892 70.8282 64.8427C69.9627 63.7273 69.2913 62.4741 68.8421 61.1357C69.1265 61.0874 73.0297 60.4045 73.3033 60.3232ZM69.2622 64.4778C69.3258 64.4475 69.3953 64.4313 69.4658 64.4304C69.5364 64.4295 69.6063 64.4438 69.6707 64.4724C69.7436 64.5098 69.8026 64.5694 69.8391 64.6427C69.8755 64.716 69.8876 64.7991 69.8734 64.8797C69.8593 64.9604 69.8197 65.0344 69.7605 65.0909C69.7012 65.1474 69.6255 65.1834 69.5442 65.1937C67.4256 65.8744 66.2742 64.6449 65.871 62.5147C65.8522 62.4148 65.8739 62.3115 65.9312 62.2275C65.9886 62.1436 66.0769 62.0859 66.1769 62.0671C66.2768 62.0483 66.3801 62.0699 66.464 62.1273C66.548 62.1846 66.6057 62.273 66.6245 62.3729C66.9365 64.0217 67.667 64.9998 69.2622 64.4778ZM68.0541 60.4573C67.7153 60.6107 67.3773 60.7555 67.0392 60.8881C67.0829 60.6582 67.0806 60.7793 66.8759 59.0592C67.322 58.8586 67.757 58.6342 68.179 58.3869C68.0091 59.0633 67.9668 59.7654 68.0541 60.4573ZM73.2083 51.3977C73.4782 51.921 73.6624 52.4841 73.754 53.0657C73.754 53.5517 73.1515 54.0798 72.8058 54.4546C71.851 55.4816 70.7576 56.3704 69.5573 57.0953C69.5442 57.0187 68.9962 54.1542 68.9801 54.076C69.0061 53.9993 69.8838 46.4873 69.4461 44.2314C70.9846 46.4597 72.2478 48.866 73.2083 51.3977ZM93.3534 25.1057C92.7349 25.5879 92.7142 25.4928 92.6528 25.6423C92.6292 25.7089 92.6253 25.781 92.6416 25.8498C92.6579 25.9186 92.6938 25.9812 92.7448 26.0302C92.7868 26.0652 92.8362 26.0904 92.8893 26.1037C92.9424 26.1169 92.9979 26.118 93.0514 26.1068C93.4231 26.0084 93.809 25.9752 94.192 26.0087C94.0361 26.0294 93.8822 26.0635 93.7321 26.1106C93.6486 26.1334 93.5766 26.1863 93.53 26.2592C93.4833 26.332 93.4654 26.4196 93.4798 26.5049C93.4941 26.5903 93.5396 26.6672 93.6075 26.7208C93.6754 26.7745 93.7608 26.801 93.8471 26.7952C94.1863 26.748 94.5304 26.748 94.8696 26.7952C95.0176 26.799 94.9187 26.8021 93.8731 26.8411C93.276 26.7062 93.1595 27.4843 93.6432 27.5441C93.9012 27.5911 94.1554 27.6572 94.4036 27.7418C94.1982 27.7181 93.2967 27.6038 93.0445 27.577C92.6902 27.0442 92.2818 26.5495 91.8258 26.1007C92.2383 25.6413 92.7656 25.2998 93.3534 25.1111V25.1057ZM86.769 28.5467C86.8456 28.5099 91.1957 26.4663 91.2731 26.4962C91.7365 26.9875 92.1492 27.5242 92.5049 28.0983C92.3987 28.2357 92.2854 28.3675 92.1653 28.493C86.566 35.8028 79.7176 42.0643 71.9366 46.9879C71.3272 45.8531 70.6534 44.7541 69.9183 43.6964C69.8845 43.6474 69.8386 43.6081 69.7851 43.5822C69.7315 43.5563 69.6722 43.5448 69.6129 43.5487C69.5535 43.5526 69.4962 43.5719 69.4466 43.6047C69.3969 43.6374 69.3566 43.6825 69.3296 43.7355C69.1618 42.9238 68.7869 42.1694 68.2413 41.5455C67.6957 40.9216 66.998 40.4495 66.216 40.1749C72.8258 36.1292 79.6617 31.9478 86.769 28.5467ZM65.4594 40.6387C68.176 40.8832 68.9356 44.0114 68.9548 45.8266C68.9548 47.0454 68.8651 47.7705 68.5263 52.0102C67.8743 49.0344 67.0168 46.1074 65.9599 43.2503C65.7511 42.4331 65.3456 41.6794 64.7787 41.0549L65.4594 40.6387ZM63.7148 41.6666C63.8842 41.616 63.8596 41.6168 64.2314 41.3899C64.9166 42.198 65.3973 43.1593 65.6326 44.1923C65.9247 45.103 66.4298 46.4919 67.1289 49.0422C67.8593 51.7085 68.4364 54.4144 68.8574 57.1467C66.6746 58.7085 64.071 59.5747 61.3876 59.6318C56.4557 59.7468 53.1305 58.055 52.771 58.1355C53.6141 56.7652 54.357 55.3357 54.994 53.8583C56.6312 50.0823 57.5768 46.0429 57.7857 41.9326C57.8079 41.8843 57.8807 41.7149 57.8953 41.6781C63.1882 43.6481 58.0608 41.7341 61.4796 43.0149C61.5128 43.0286 61.5484 43.0354 61.5844 43.0351C61.6203 43.0347 61.6557 43.0271 61.6887 43.0128C61.7216 42.9984 61.7513 42.9776 61.7761 42.9515C61.8008 42.9255 61.8201 42.8947 61.8327 42.8611C61.8453 42.8275 61.8511 42.7917 61.8496 42.7558C61.8481 42.7199 61.8395 42.6846 61.8241 42.6522C61.8088 42.6197 61.787 42.5906 61.7603 42.5667C61.7335 42.5428 61.7021 42.5245 61.6681 42.5129C58.602 41.3631 59.0527 41.5447 58.8948 41.4359C58.8841 41.3532 58.8682 41.2713 58.8473 41.1906C58.8473 41.1668 58.8358 41.1492 58.8327 41.127C59.6202 41.5777 60.4977 41.8483 61.4022 41.9196C61.9249 42.0261 62.4578 42.0742 62.9912 42.0629C63.1338 42.0586 63.2734 42.0204 63.3985 41.9515C63.5235 41.8825 63.6303 41.7849 63.7102 41.6666H63.7148ZM54.6574 61.2377C54.1068 61.0628 53.5724 60.8407 53.06 60.5739C53.2066 60.0316 53.2506 59.4666 53.1895 58.9082C53.7683 59.1113 54.3562 59.2869 54.9526 59.4409C54.6459 60.8759 54.6153 60.9027 54.6574 61.2377ZM55.6478 36.3783C55.9238 35.411 57.4614 36.2036 57.5373 36.9555C57.5322 37.1673 57.5768 37.3773 57.6676 37.5687C57.7964 37.7512 57.9083 37.7106 58.1881 38.044C58.4073 38.3046 58.8013 38.7745 58.9201 38.4556C59.0326 37.9969 58.9908 37.5139 58.8013 37.0812C58.8188 36.7255 58.9557 36.386 59.1899 36.1177C59.7725 35.24 59.1723 34.1125 59.7625 33.2777C60.411 32.4575 60.9476 32.6944 61.8153 31.914C61.9613 31.7803 62.068 31.6092 62.1239 31.4193C62.1798 31.2294 62.1829 31.0278 62.1327 30.8363C62.7249 31.1654 63.2683 31.5756 63.747 32.0551C63.7784 32.1041 63.8091 32.154 63.839 32.2038H63.829C63.5965 32.2367 63.3858 32.3584 63.2411 32.5434C63.0502 32.7871 63.3944 33.1566 63.6243 32.9903C63.7044 32.916 63.802 32.8633 63.9079 32.8369C64.0006 32.8162 64.0971 32.8201 64.1877 32.8484H64.1962C64.2904 33.0339 64.3824 33.221 64.4652 33.4126C64.4133 33.3505 64.3464 33.3026 64.2708 33.2736C64.1953 33.2446 64.1135 33.2355 64.0334 33.247C63.9532 33.2585 63.8774 33.2903 63.813 33.3395C63.7487 33.3886 63.698 33.4533 63.6657 33.5276C63.6193 33.7199 63.6298 33.9216 63.696 34.108C63.7621 34.2945 63.881 34.4577 64.0383 34.5777C64.1059 34.6389 64.1911 34.6774 64.2818 34.6877C64.3724 34.6981 64.464 34.6797 64.5438 34.6354C64.6235 34.591 64.6873 34.5227 64.7263 34.4402C64.7653 34.3577 64.7774 34.2651 64.7611 34.1753C65.2655 35.6547 65.533 37.5197 64.7665 38.8351C64.5983 39.131 64.3685 39.3874 64.0926 39.5868C63.8167 39.7862 63.5012 39.9241 63.1675 39.991C63.1199 40.0034 63.0752 40.0253 63.0363 40.0554C62.9974 40.0855 62.965 40.1232 62.941 40.1662C62.917 40.2091 62.9019 40.2565 62.8967 40.3054C62.8915 40.3544 62.8963 40.4038 62.9107 40.4509C63.0502 40.8602 63.1406 41.0879 63.2173 41.3163C63.0793 41.4405 62.6248 41.3999 62.3741 41.3769C61.0919 41.3534 59.835 41.0155 58.7139 40.3926C58.602 40.3298 58.6687 40.48 58.5399 40.0147C58.4669 39.6583 58.3643 39.3086 58.2333 38.9692C58.1919 38.8803 58.0409 38.3943 57.6967 38.6105C57.3943 38.6548 57.0855 38.6029 56.8142 38.462C56.5429 38.3211 56.3228 38.0985 56.1851 37.8255C55.9931 37.6398 55.8452 37.4134 55.7522 37.1629C55.6592 36.9125 55.6235 36.6444 55.6478 36.3783ZM56.9777 43.527C56.6396 46.799 55.8251 50.004 54.5601 53.0404C54.6697 49.2752 54.4451 47.562 54.4727 46.065C55.5975 45.5645 56.4921 44.6582 56.9777 43.527ZM22.5843 32.8883C22.0309 32.5958 21.44 32.3807 20.8282 32.249C20.6017 32.2076 20.3797 32.1447 20.1651 32.0612C20.5058 32.035 20.8485 32.0713 21.1762 32.1685C21.2386 32.1817 21.3034 32.177 21.3633 32.155C21.4232 32.1331 21.4757 32.0948 21.5148 32.0444C21.554 31.9941 21.5782 31.9338 21.5847 31.8703C21.5913 31.8069 21.5798 31.7429 21.5518 31.6856C21.5446 31.6349 21.5231 31.5872 21.4896 31.5483C21.4562 31.5095 21.4123 31.481 21.3632 31.4664C21.1985 31.4169 21.0305 31.3795 20.8603 31.3545L20.0999 31.1015C20.2689 31.0785 20.4409 31.0931 20.6036 31.1444C20.8824 31.1976 21.1572 31.2701 21.426 31.3614C21.8745 31.5147 21.9841 30.7987 21.6437 30.6769C21.3673 30.599 21.1053 30.4768 20.868 30.3151C21.3637 30.3721 21.8335 30.567 22.224 30.8777C22.274 30.9439 22.3468 30.9892 22.4283 31.0049C22.5098 31.0206 22.5942 31.0056 22.6652 30.9627C22.7363 30.9198 22.7889 30.8522 22.8131 30.7728C22.8372 30.6934 22.831 30.6079 22.7958 30.5328C22.6732 30.2421 22.572 29.9429 22.4931 29.6375C22.8298 30.0425 23.1155 30.4874 23.3439 30.962L22.9024 32.1118C22.7744 32.3611 22.668 32.6209 22.5843 32.8883ZM52.469 57.2594C52.285 57.5737 51.9424 58.3647 51.6473 58.4291C51.3261 58.4996 50.4086 57.9516 50.023 57.7691C47.7163 56.66 45.5422 55.2941 43.542 53.6973C43.2599 53.5057 43.2016 53.4275 43.1886 53.4589C44.1368 51.8578 44.9817 50.1977 45.7182 48.4887C45.7772 48.5202 45.8354 48.5547 45.8952 48.5853C45.9748 48.6257 46.0671 48.633 46.1521 48.6058C46.237 48.5785 46.3078 48.5188 46.349 48.4397C46.39 48.3628 46.3988 48.2728 46.3735 48.1895C46.3482 48.1061 46.2909 48.0362 46.2141 47.9951C37.8589 43.5201 31.985 39.9764 24.02 34.8759C23.301 34.416 22.9093 34.1056 23.1438 33.4195C23.3877 32.5962 23.7024 31.7955 24.0844 31.0264C24.161 31.0394 32.2786 33.3114 33.1854 33.5759C39.8764 35.4784 44.0701 36.8781 48.286 38.2893C47.9598 38.4766 47.682 38.7376 47.4746 39.0514C47.2672 39.3653 47.1361 39.7232 47.0918 40.0968C47.0504 41.022 47.9603 42.0813 47.3217 42.8716C46.8887 43.4204 45.942 43.3315 45.3671 43.7914C45.1861 43.9836 45.0528 44.2156 44.9779 44.4687C44.9029 44.7217 44.8884 44.9889 44.9355 45.2486C44.9827 45.5083 45.0901 45.7534 45.2492 45.964C45.4083 46.1746 45.6146 46.3449 45.8515 46.4613C45.8617 46.4695 45.8747 46.4734 45.8877 46.472C45.9007 46.4706 45.9127 46.4642 45.9209 46.454C45.9291 46.4438 45.933 46.4308 45.9316 46.4178C45.9303 46.4048 45.9238 46.3928 45.9136 46.3846C45.6323 46.065 45.9136 45.5039 46.3168 45.3621C46.7574 45.2691 47.2162 45.3196 47.6261 45.5062C49.1294 46.0842 50.716 46.4163 52.3249 46.4896C52.8335 46.5058 53.3414 46.4409 53.8296 46.2972C53.8196 48.6681 54.1216 50.9731 53.8649 54.5949C53.4187 55.537 52.9504 56.4377 52.469 57.2594ZM51.0961 65.0688C51.9493 65.2033 52.8229 65.0476 53.577 64.6266C54.3311 64.2056 54.9221 63.5438 55.2553 62.747C55.2993 62.6578 55.3761 62.5892 55.4697 62.5557C55.5632 62.5221 55.6662 62.5262 55.7567 62.567C55.8473 62.6079 55.9185 62.6824 55.9553 62.7747C55.992 62.8671 55.9914 62.9701 55.9536 63.062C55.5515 64.0013 54.8508 64.7818 53.9602 65.2826C53.0696 65.7834 52.0387 65.9766 51.0272 65.8323C50.9768 65.8277 50.9279 65.8133 50.8831 65.7899C50.8383 65.7664 50.7986 65.7344 50.7663 65.6956C50.7339 65.6568 50.7094 65.612 50.6944 65.5638C50.6793 65.5156 50.6739 65.4648 50.6784 65.4145C50.6829 65.3642 50.6973 65.3152 50.7208 65.2705C50.7442 65.2257 50.7762 65.186 50.815 65.1536C50.8538 65.1212 50.8986 65.0968 50.9469 65.0817C50.9951 65.0666 51.0458 65.0612 51.0961 65.0657V65.0688ZM29.3458 71.1435C28.9158 69.9769 28.8859 70.0413 28.8859 69.9508C29.2799 69.7922 49.0495 65.2796 49.9034 65.0933C45.8339 72.2167 44.3514 81.2288 43.3504 89.3831C42.928 89.2091 36.9475 86.7838 34.3398 85.7421C32.891 80.9275 31.2376 76.2747 29.3458 71.1435ZM12.3526 78.0316C12.6592 78.1389 45.9351 91.1523 47.0366 91.7226C48.0515 92.6424 58.1689 116.447 65.4793 129.513C64.6155 129.01 63.7192 128.566 62.7965 128.183C60.6647 127.153 36.5551 116.265 35.6812 115.809C35.219 115.526 20.3498 89.5234 12.3526 78.0316ZM105.603 110.079C107.043 110.339 108.375 111.014 109.436 112.021C109.899 112.483 110.19 113.089 110.26 113.739C110.331 114.388 110.177 115.043 109.825 115.593C109.033 116.637 107.974 117.447 106.759 117.938C99.8199 120.823 95.2514 121.285 88.9191 125.166C86.7887 126.491 84.9534 128.239 83.5273 130.303C82.1012 132.367 81.1147 134.703 80.629 137.164C80.5926 137.463 80.5277 137.758 80.4351 138.044C80.3449 138.228 80.2089 138.386 80.0402 138.503C79.8715 138.619 79.6757 138.69 79.4716 138.709C73.796 140.022 67.987 140.669 62.1618 140.638C54.8945 140.544 47.703 139.147 40.9289 136.514V136.504L40.9235 136.483C39.1605 130.252 33.1425 126.658 28.7702 124.496C25.1675 122.717 23.3623 122.282 21.5012 120.464C21.0753 120.044 20.7671 119.519 20.6073 118.943C20.4475 118.367 20.4417 117.758 20.5905 117.179C21.0615 115.968 21.9711 114.978 23.1385 114.407C25.8144 112.873 29.5597 112.495 33.2046 113.333C33.561 113.933 33.919 114.535 34.2777 115.116C34.4912 115.535 34.7539 115.928 35.0603 116.285C35.2887 116.457 35.5403 116.595 35.8077 116.696C63.2434 129.162 63.0372 128.991 65.812 130.564C66.3892 130.892 66.5663 131.218 67.2523 130.787C68.4282 130.048 72.8189 127.042 93.5083 115.751C97.1064 113.788 96.7936 113.996 97.7549 113.425C97.7184 113.489 97.6771 113.55 97.6314 113.609C97.4444 113.938 97.7219 114.249 98.0484 113.915L98.0599 113.921C98.5397 113.341 98.987 112.735 99.3998 112.105C99.4299 112.088 99.4561 112.065 99.4765 112.037C99.5087 111.993 100.477 110.657 100.885 110.086C102.442 109.772 104.046 109.77 105.603 110.079ZM121.317 76.6158C113.737 88.0333 108.226 98.2703 101.081 108.657C115.059 75.3518 114.699 76.136 116.318 73.1473C122.45 75.9635 121.854 75.6553 121.931 75.7266C121.76 76.0449 121.555 76.3433 121.319 76.6166L121.317 76.6158Z" fill="black"/>
</svg>
