<svg width="132" height="147" viewBox="0 0 132 147" fill="none" xmlns="http://www.w3.org/2000/svg">
<path fill-rule="evenodd" clip-rule="evenodd" d="M14.4396 137.762L13.8779 137.742C13.7649 137.136 13.7542 136.554 13.8291 136.004C14.323 132.372 18.5202 130.111 21.2988 131.541C22.139 130.534 23.3088 129.856 24.6011 129.625C24.7165 129.605 24.9058 129.566 25.1092 129.558C25.5127 129.544 25.6495 129.55 26.0815 129.558C26.404 129.527 26.7289 129.527 27.0537 129.558C27.5404 128.498 28.2545 127.558 29.1446 126.803C30.0347 126.049 31.0795 125.499 32.2053 125.193C32.4826 124.49 32.8681 123.835 33.3477 123.251C33.4203 122.676 32.8919 111.858 32.9383 109.633C32.6087 109.653 31.928 109.699 31.7567 109.554C31.5841 109.408 31.9804 108.556 33.9022 103.464C32.9919 103.563 32.9919 103.346 32.9919 103.022C32.905 102.025 32.7075 98.2001 32.047 83.3666C31.6436 75.5791 31.2414 66.7564 36.0098 59.9269C37.0332 58.5001 39.8202 64.418 40.633 67.449C40.5735 65.0844 40.6199 62.7008 40.771 60.3494C41.1946 54.8218 42.9773 47.3318 49.0404 43.0395C49.2843 42.8669 49.8258 43.3036 50.1959 43.5738C54.0801 46.4203 56.4708 51.2148 57.4609 58.3549C58.0428 62.5616 58.3391 66.8147 58.5641 70.5799C59.1555 66.7267 60.6347 63.0638 62.8838 59.8805C63.0349 59.6687 63.2729 59.7413 63.4455 59.946C68.9731 66.4256 68.7089 75.4744 68.603 83.3464C68.603 83.3464 68.3983 96.6483 68.2924 102.989C68.2924 103.339 67.9033 103.339 67.5594 103.339C68.4114 104.911 69.5407 107.645 70.2012 109.283C70.4189 109.818 69.0719 109.692 68.5102 109.653C68.5042 113.305 68.365 117.069 68.6756 120.767C69.6752 121.333 70.5332 122.118 71.1853 123.063C71.8374 124.008 72.2659 125.088 72.4408 126.224C74.0711 126.096 75.6907 126.57 76.9973 127.554C78.304 128.537 79.206 129.965 79.5333 131.567C82.7308 129.863 87.8681 133.119 87.003 137.742H96.3755C96.4647 137.739 96.5516 137.772 96.6159 137.833C96.6813 137.894 96.7194 137.98 96.7218 138.069C96.7242 138.158 96.6908 138.245 96.6301 138.309C96.5683 138.375 96.4838 138.413 96.3945 138.415H0V137.762H86.4425C87.3933 132.28 81.0267 130.774 79.5868 131.956H79.5928C79.8105 133.271 79.5999 133.422 79.5273 133.468C79.3488 133.595 79.1108 133.37 79.1108 133.191C79.1405 131.812 78.7229 130.46 77.9208 129.337C77.1187 128.215 75.9739 127.382 74.659 126.963C73.2928 126.59 71.8422 126.677 70.5296 127.209C69.217 127.741 68.1163 128.689 67.3939 129.909C67.269 130.127 66.906 129.928 67.025 129.704C67.5189 128.807 68.2103 128.034 69.0469 127.442C69.8823 126.851 70.8426 126.457 71.8529 126.289C71.3638 122.795 68.0544 119.83 64.1976 120.425C62.9754 120.656 61.8342 121.197 60.881 121.996C59.9278 122.795 59.196 123.826 58.7556 124.988C60.1146 125.535 61.3011 126.435 62.1924 127.597C63.0837 128.76 63.6466 130.139 63.8215 131.593C63.818 131.66 63.7906 131.724 63.7442 131.773C63.6978 131.821 63.6347 131.851 63.5681 131.857C63.5002 131.862 63.4336 131.843 63.38 131.804C63.3253 131.763 63.2872 131.705 63.2729 131.639C63.1218 130.365 62.6482 129.15 61.8985 128.107C61.1488 127.066 60.1456 126.232 58.9853 125.685C57.8251 125.136 56.5434 124.892 55.263 124.975C53.9813 125.057 52.7425 125.464 51.662 126.157C50.7683 126.745 50.0031 127.507 49.4117 128.398C48.8202 129.289 48.4156 130.29 48.2217 131.342C49.439 131.009 50.729 131.049 51.9238 131.456C53.1186 131.863 54.1646 132.62 54.925 133.627C54.969 133.689 54.9869 133.765 54.9738 133.839C54.9619 133.914 54.9202 133.979 54.8595 134.023C54.7977 134.067 54.7215 134.085 54.6477 134.073C54.5728 134.06 54.5061 134.018 54.4633 133.958C53.8445 133.16 53.0305 132.539 52.0987 132.152C51.1669 131.767 50.1519 131.631 49.1511 131.757C48.1515 131.885 47.2006 132.269 46.395 132.875C45.5894 133.482 44.9551 134.286 44.5564 135.212C44.5338 135.262 44.4934 135.301 44.4422 135.321C44.3922 135.34 44.3351 135.339 44.2851 135.318C44.2351 135.296 44.1959 135.255 44.1756 135.205C44.1566 135.154 44.1578 135.096 44.1792 135.048C44.4862 134.234 44.9646 133.496 45.5822 132.883C46.1998 132.271 46.9424 131.8 47.7587 131.5C47.873 130.429 48.2133 129.394 48.756 128.462C48.0955 128.006 46.0618 124.136 45.4537 123.476C44.6266 122.53 43.5782 121.802 42.4013 121.357C41.2256 120.911 39.9582 120.764 38.7111 120.925C37.464 121.086 36.2763 121.552 35.2517 122.281C34.2283 123.011 33.3989 123.982 32.8396 125.107C34.8269 124.733 36.882 125.121 38.5957 126.194C40.3093 127.267 41.5564 128.948 42.086 130.899C42.1788 131.249 41.6564 131.422 41.5635 131.071C39.8071 124.453 30.7594 123.469 27.5619 129.625C28.8828 129.86 30.074 130.564 30.9177 131.606C32.2446 133.264 31.3925 133.608 31.2414 133.204C30.5119 131.39 28.6531 129.847 26.0815 130.103C23.5111 129.847 21.6511 131.39 20.9228 133.204C20.7776 133.59 19.9922 133.292 21.0822 131.818C19.3198 130.911 13.5292 132.516 14.4396 137.762ZM58.2868 124.817H58.2939C58.7021 123.531 59.4958 122.401 60.5656 121.58C60.4002 117.783 60.0766 113.377 60.0766 109.567C59.1912 109.547 58.8413 109.554 58.7556 109.415C58.67 109.276 58.7354 109.104 58.8675 108.754C59.046 108.299 58.9341 108.629 59.7731 105.988C58.7759 105.988 55.8365 106.086 55.2225 105.988C55.2225 105.988 55.0642 107.545 55.0238 107.895C55.0238 108.087 55.3546 108.807 55.6842 109.64C56.1935 110.901 56.8266 112.466 57.0516 113.219C57.1836 113.621 56.0412 113.621 55.6116 113.621C56.6434 115.246 57.1682 117.139 57.1194 119.062C57.0718 120.985 56.4518 122.85 55.3415 124.421C56.3387 124.374 57.3372 124.509 58.2868 124.817ZM41.3791 60.7064C40.9566 66.4125 41.5969 74.5224 41.8277 85.5324C42.5881 83.2869 43.0951 80.9628 43.3402 78.6042C43.2676 73.3015 43.0035 68.5188 46.702 64.5561C49.3712 61.6905 51.8214 64.1336 53.6303 67.5882C55.1523 70.4942 55.9496 73.7251 55.9555 77.006C55.9353 79.8263 57.2229 83.914 58.4915 86.7153C58.3261 77.6867 58.1749 69.2328 57.1313 60.2566C50.6255 59.7746 45.9095 59.9138 41.3791 60.7064ZM41.5112 109.487C41.5909 110.596 42.1455 119.401 41.9931 120.609C43.1522 120.976 44.2232 121.578 45.1372 122.38C44.4041 120.524 43.3605 116.76 45.2823 113.714C44.8396 113.714 44.4243 113.688 44.2649 113.489C44.2363 113.452 44.2161 113.407 44.2066 113.361C44.197 113.313 44.1994 113.266 44.2125 113.219C44.3839 112.525 45.6393 108.695 46.2593 108.034C46.1677 107.426 46.0749 106.819 45.9761 106.211L41.7623 106.152C42.2692 107.1 42.6738 108.099 42.9713 109.13C43.0296 109.598 41.9896 109.489 41.5112 109.487ZM43.4854 81.6625C42.3525 87.6185 39.5096 93.1152 35.3029 97.4801C35.3291 98.0882 35.6004 104.323 35.6004 105.406C36.7035 105.353 44.2922 105.584 45.9095 105.623C44.7409 97.8038 43.9281 89.7534 43.4854 81.6625ZM55.5129 88.7621H55.52C55.5462 86.8402 55.6652 77.0655 55.0702 73.6977C54.687 71.4617 53.9254 69.309 52.8187 67.33C50.8897 63.9028 48.9214 62.5223 46.4914 65.6199C44.7742 67.8191 43.9352 70.7513 43.8496 74.8663C43.796 77.2642 43.9483 79.7144 44.1006 82.079C44.6481 90.4198 45.2764 97.6848 46.7425 107.837L54.5156 107.631C55.0047 101.251 55.4141 95.4202 55.5129 88.7621ZM49.6675 68.5652C50.9706 68.5759 52.2249 69.0626 53.1947 69.9325C53.4256 70.1444 52.996 71.3653 52.8913 71.6105C52.6461 72.1448 51.9857 70.4276 49.708 70.349L49.6675 68.5652ZM50.328 91.2123C50.4672 95.5654 51.0277 101.648 50.7314 105.848C50.7314 105.911 50.7064 105.972 50.6612 106.016C50.6172 106.061 50.5565 106.086 50.4934 106.086C50.4303 106.086 50.3696 106.061 50.3256 106.016C50.2804 105.972 50.2554 105.911 50.2554 105.848C50.0709 104.514 49.7401 92.2096 49.7401 91.2123C49.7508 91.1421 49.7865 91.0779 49.8401 91.0315C49.8948 90.985 49.9626 90.96 50.034 90.96C50.1054 90.96 50.1745 90.985 50.228 91.0315C50.2816 91.0779 50.3173 91.1421 50.328 91.2123ZM45.1038 70.2634C45.9511 69.2911 47.1471 68.6925 48.4323 68.5985V70.3812C46.5902 70.6001 45.9761 71.9865 45.5798 71.6295C45.268 71.2427 45.0991 70.7596 45.1038 70.2634ZM60.5062 109.56C60.7894 113.318 60.8953 117.288 61.0345 121.151C62.0437 120.434 63.2218 119.992 64.4534 119.865C65.6851 119.739 66.9275 119.934 68.0615 120.431C67.7962 116.837 67.7819 113.229 68.0223 109.633L60.5062 109.56ZM64.9116 118.516C64.5831 116.2 64.4784 113.858 64.601 111.522C64.6141 111.35 64.8783 111.344 64.8783 111.522C64.7985 112.909 65.2876 118.027 65.1817 118.477C65.1555 118.602 64.9116 118.642 64.9116 118.516ZM62.4673 117.967C62.4875 118.76 62.1246 119.104 62.0972 118.172C62.0377 116.76 62.0377 115.339 62.0377 113.932C62.0377 113.748 62.3221 113.707 62.3221 113.893C62.3483 115.253 62.4673 116.607 62.4673 117.967ZM41.4124 60.2101H41.4184C45.7845 59.3521 52.376 59.3057 57.0587 59.6496C56.3316 53.8174 54.8322 47.3782 49.3379 43.6071C43.6246 47.715 41.8682 54.8682 41.4124 60.2101ZM41.4719 120.471C41.3458 119.176 40.9959 110.842 41.0161 109.5L33.5131 109.646C33.6119 112.42 33.9022 121.243 33.9487 122.663C34.9173 121.694 36.1145 120.985 37.4294 120.602C38.7444 120.219 40.1343 120.174 41.4719 120.471ZM38.7896 118.516C38.7944 118.568 38.7777 118.621 38.7432 118.661C38.7099 118.702 38.6611 118.727 38.6087 118.73C38.5564 118.735 38.504 118.718 38.4636 118.684C38.4231 118.65 38.3981 118.602 38.3934 118.549C38.1339 116.482 38.1125 114.393 38.3279 112.321C38.3481 112.103 38.598 112.149 38.598 112.321C38.554 114.388 38.6171 116.456 38.7896 118.516ZM35.7979 117.744C35.667 117.245 35.598 116.732 35.5933 116.217C35.4707 114.644 35.4528 113.065 35.5409 111.489C35.5409 111.453 35.5552 111.42 35.579 111.395C35.604 111.37 35.6373 111.357 35.673 111.357C35.7075 111.357 35.742 111.37 35.7658 111.395C35.7908 111.42 35.8051 111.453 35.8051 111.489C35.8979 113.575 35.9836 115.662 36.0752 117.744C36.0633 117.77 36.0443 117.792 36.0193 117.809C35.9955 117.825 35.9657 117.833 35.9372 117.833C35.9074 117.833 35.8789 117.825 35.8539 117.809C35.8301 117.792 35.8098 117.77 35.7979 117.744ZM32.4957 77.2702C32.4957 82.6074 33.3084 94.0922 33.5726 102.982C34.0213 102.916 34.5032 102.87 34.9864 102.823C34.953 102.057 34.7817 97.8038 34.9138 97.1434C37.483 94.7526 40.2236 89.8783 41.4457 86.7081C41.322 83.5296 41.2006 80.3547 41.0816 77.1845C39.7607 77.1916 34.0343 77.2702 32.4957 77.2702ZM44.8861 116.646H44.8932C44.2922 120.9 46.6758 124.387 49.0142 127.921C49.6473 126.991 50.4696 126.205 51.4264 125.613C52.3831 125.022 53.4541 124.637 54.568 124.486C58.6759 118.84 55.3677 115.082 55.0047 113.649C51.9607 113.837 48.9107 113.869 45.8631 113.748C45.3573 114.644 45.0265 115.628 44.8861 116.646ZM53.109 118.008C53.0198 116.981 52.7401 115.979 52.2832 115.055C52.2106 114.916 52.4355 114.758 52.5212 114.916C53.3268 116.342 53.666 117.984 53.4922 119.612C53.215 122.023 52.7723 121.184 52.7723 121.032C53.0591 120.051 53.1733 119.028 53.109 118.008ZM49.7211 123.885C49.4593 123.648 49.2367 123.372 49.0606 123.067C48.2776 121.899 47.8016 120.553 47.6766 119.153C47.5505 117.753 47.779 116.344 48.3407 115.055C48.4192 114.884 48.6834 114.983 48.6108 115.148C48.1514 116.281 47.9468 117.502 48.011 118.723C48.0765 119.944 48.4097 121.136 48.988 122.215C49.3641 122.895 49.7211 123.238 49.971 123.681C50.0578 123.826 49.8532 123.985 49.7211 123.885ZM67.8497 102.803C67.7771 94.0993 68.2734 82.8442 68.0092 76.405C65.3733 76.3455 62.2424 76.3062 58.8949 76.405C59.046 80.2357 59.1055 84.1187 59.1055 87.9493C60.5062 91.5896 64.739 95.6701 66.2515 96.9387C66.3324 97.0267 66.3931 97.1315 66.4277 97.2457C66.4622 97.3599 66.4693 97.4813 66.4503 97.5991L66.3836 102.803C66.8703 102.728 67.3642 102.728 67.8497 102.803ZM56.0936 81.5637C56.2519 89.5451 55.9615 97.5289 55.2225 105.478C55.9353 105.419 65.6577 105.353 65.7898 105.353C65.6708 103.636 65.8755 99.1247 65.8755 97.3421C59.4685 91.9061 57.3026 86.563 56.0936 81.5637Z" fill="black"/>
<path fill-rule="evenodd" clip-rule="evenodd" d="M55.5131 88.762H55.5203C55.5464 86.8402 55.6654 77.0654 55.0704 73.6977C54.6873 71.4616 53.9256 69.3089 52.8189 67.3299C50.8899 63.9027 48.9217 62.5223 46.4916 65.6199C44.7745 67.819 43.9355 70.7512 43.8498 74.8663C43.7963 77.2641 43.9486 79.7144 44.1009 82.0789C44.6483 90.4197 45.2766 97.6848 46.7427 107.837L54.5159 107.631C55.005 101.251 55.4144 95.4202 55.5131 88.762ZM49.6678 68.5652C50.9708 68.5759 52.2251 69.0626 53.195 69.9325C53.4258 70.1443 52.9962 71.3653 52.8915 71.6104C52.6464 72.1447 51.9859 70.4275 49.7082 70.349L49.6678 68.5652ZM50.3282 91.2123C50.4675 95.5653 51.028 101.647 50.7317 105.848C50.7317 105.911 50.7067 105.972 50.6614 106.016C50.6174 106.061 50.5567 106.086 50.4937 106.086C50.4306 106.086 50.3699 106.061 50.3259 106.016C50.2806 105.972 50.2557 105.911 50.2557 105.848C50.0712 104.514 49.7404 92.2095 49.7404 91.2123C49.7511 91.1421 49.7868 91.0778 49.8403 91.0314C49.8951 90.985 49.9629 90.96 50.0343 90.96C50.1057 90.96 50.1747 90.985 50.2283 91.0314C50.2818 91.0778 50.3175 91.1421 50.3282 91.2123ZM45.1041 70.2633C45.9514 69.2911 47.1473 68.6925 48.4326 68.5985V70.3811C46.5904 70.6001 45.9764 71.9864 45.5801 71.6294C45.2683 71.2427 45.0993 70.7595 45.1041 70.2633Z" fill="#FFD400"/>
</svg>
