<svg width="132" height="147" viewBox="0 0 132 147" fill="none" xmlns="http://www.w3.org/2000/svg">
<path d="M42.8201 38.8798C42.5513 36.8806 42.6017 36.8358 42.4281 36.8358C32.6393 36.8358 33.1601 36.7686 33.1601 36.9758V38.8294C33.1601 38.9078 33.2217 39.003 33.3001 39.003C43.2065 39.0366 42.8537 39.0926 42.8201 38.8798ZM45.9505 36.8358C43.2737 36.8358 43.4305 36.8358 43.3689 36.8806C43.3073 36.9254 43.3185 36.8414 43.5761 38.9134C43.5761 39.087 43.6041 39.0366 45.9505 39.0366C45.9876 39.0366 46.0232 39.0219 46.0495 38.9956C46.0757 38.9694 46.0905 38.9338 46.0905 38.8966V36.9702C46.089 36.9341 46.0737 36.8999 46.0476 36.8748C46.0215 36.8498 45.9867 36.8358 45.9505 36.8358ZM94.4465 36.8694L90.8961 37.1158C90.8787 37.1158 90.8615 37.1193 90.8455 37.1262C90.8295 37.133 90.815 37.143 90.803 37.1555C90.7909 37.1681 90.7816 37.183 90.7754 37.1992C90.7693 37.2155 90.7665 37.2329 90.7673 37.2502V39.367C90.7673 39.4042 90.782 39.4398 90.8083 39.466C90.8345 39.4923 90.8702 39.507 90.9073 39.507H94.4521C94.4892 39.507 94.5248 39.4923 94.5511 39.466C94.5773 39.4398 94.5921 39.4042 94.5921 39.367C94.5921 36.9702 94.6537 36.8638 94.4465 36.8694ZM35.0025 46.8374V45.1854C35.0025 45.1483 34.9877 45.1127 34.9615 45.0864C34.9352 45.0602 34.8996 45.0454 34.8625 45.0454H33.4905C33.4534 45.0454 33.4178 45.0602 33.3915 45.0864C33.3652 45.1127 33.3505 45.1483 33.3505 45.1854C33.3505 47.039 33.3505 46.9494 33.3953 47.0054C33.4401 47.0614 33.3953 47.0502 34.8681 46.9774C34.9038 46.9747 34.9372 46.9589 34.962 46.9331C34.9868 46.9073 35.0012 46.8732 35.0025 46.8374ZM42.9993 44.6702C35.3385 45.0678 35.6241 44.9838 35.6241 45.1854C35.6241 46.899 35.6241 46.815 35.6633 46.8654C35.7025 46.9158 35.2713 46.9102 43.0049 46.7982C43.042 46.7982 43.0776 46.7835 43.1039 46.7572C43.1301 46.731 43.1449 46.6954 43.1449 46.6582V44.8102C43.1458 44.7911 43.1425 44.7721 43.1354 44.7543C43.1284 44.7366 43.1176 44.7205 43.1038 44.7073C43.09 44.694 43.0736 44.6839 43.0555 44.6775C43.0375 44.6711 43.0183 44.6686 42.9993 44.6702ZM54.3561 44.6646V46.2886C54.3561 46.3258 54.3708 46.3614 54.3971 46.3876C54.4233 46.4139 54.459 46.4286 54.4961 46.4286C56.4225 46.4286 56.3273 46.4286 56.3889 46.3782C56.4505 46.3278 56.4393 46.3782 56.1873 44.6422C56.1873 44.4742 56.1033 44.5246 54.5073 44.5246C54.488 44.5231 54.4686 44.5256 54.4503 44.5319C54.432 44.5382 54.4152 44.5483 54.401 44.5615C54.3868 44.5746 54.3754 44.5906 54.3677 44.6083C54.36 44.6261 54.356 44.6453 54.3561 44.6646ZM62.6049 46.4006C62.6665 46.3278 62.6497 46.4006 62.4537 44.7542C62.4537 44.5806 62.7337 44.6422 57.2401 44.5414C57.2202 44.5413 57.2005 44.5454 57.1823 44.5535C57.1641 44.5615 57.1479 44.5734 57.1346 44.5882C57.1214 44.603 57.1115 44.6205 57.1055 44.6395C57.0996 44.6585 57.0977 44.6785 57.1001 44.6982C57.3129 46.4454 57.2737 46.4454 57.4417 46.4454C62.9297 46.4454 62.5433 46.4902 62.6049 46.4006ZM63.6241 46.4286C66.0097 46.4958 65.8641 46.507 65.9257 46.4286C65.9873 46.3502 65.9705 46.4678 65.9705 44.6478C65.969 44.6102 65.9531 44.5746 65.9259 44.5485C65.8988 44.5224 65.8626 44.5078 65.8249 44.5078C63.2265 44.6086 63.3777 44.5806 63.3217 44.6478C63.2657 44.715 63.2825 44.6478 63.4897 46.2886C63.4921 46.324 63.5069 46.3575 63.5315 46.3831C63.556 46.4086 63.5888 46.4248 63.6241 46.4286ZM35.5961 53.5854C35.9265 51.5134 35.9265 51.6254 35.8649 51.5582C35.8033 51.491 35.8985 51.5022 33.9385 51.6086C33.9033 51.6115 33.8705 51.6275 33.8467 51.6534C33.8228 51.6794 33.8096 51.7134 33.8097 51.7486V53.6862C33.8097 53.7234 33.8244 53.759 33.8507 53.7852C33.877 53.8115 33.9126 53.8262 33.9497 53.8262L35.4897 53.703C35.5176 53.6973 35.543 53.6827 35.5621 53.6616C35.5812 53.6405 35.5931 53.6138 35.5961 53.5854ZM38.2169 53.4622C38.2169 51.4294 38.2169 51.5414 38.1721 51.4798C38.1273 51.4182 38.2057 51.4406 36.6545 51.5078C36.4921 51.5078 36.5257 51.5078 36.3073 53.4454C36.3049 53.4652 36.3068 53.4852 36.3127 53.5042C36.3187 53.5232 36.3286 53.5407 36.3418 53.5555C36.3551 53.5703 36.3713 53.5822 36.3895 53.5902C36.4077 53.5983 36.4274 53.6024 36.4473 53.6022H38.0769C38.114 53.6022 38.1496 53.5875 38.1759 53.5612C38.2021 53.535 38.2169 53.4994 38.2169 53.4622ZM41.0169 51.407C41.0169 53.4342 41.0169 53.3222 41.0561 53.3838C41.0953 53.4454 40.2665 53.4734 54.8041 52.6726C54.8236 52.6713 54.8426 52.666 54.8598 52.6569C54.8771 52.6478 54.8923 52.6352 54.9044 52.62C54.9166 52.6047 54.9254 52.587 54.9303 52.5681C54.9352 52.5492 54.9361 52.5295 54.9329 52.5102L54.5745 50.2254C54.5689 50.1903 54.5502 50.1586 54.5221 50.1367C54.4941 50.1149 54.4587 50.1046 54.4233 50.1078C40.3505 51.351 41.0169 51.2054 41.0169 51.407ZM59.6089 52.3142C59.6089 49.6542 59.6089 49.811 59.5641 49.7494C59.5193 49.6878 59.7601 49.6766 55.5041 50.0966C55.466 50.1022 55.4314 50.1221 55.4075 50.1523C55.3835 50.1825 55.372 50.2207 55.3753 50.259C55.7337 52.6054 55.6889 52.6166 55.8569 52.6166L59.4745 52.4542C59.5106 52.4528 59.5448 52.4374 59.5699 52.4113C59.5949 52.3852 59.6089 52.3504 59.6089 52.3142ZM62.6945 49.8502V52.247C62.6945 52.2842 62.7092 52.3198 62.7355 52.346C62.7617 52.3723 62.7974 52.387 62.8345 52.387H66.4017C66.4388 52.387 66.4744 52.3723 66.5007 52.346C66.5269 52.3198 66.5417 52.2842 66.5417 52.247C66.5417 49.503 66.5417 49.6878 66.4969 49.6262C66.4521 49.5646 66.7153 49.5702 62.8289 49.7102C62.7927 49.7117 62.7585 49.7271 62.7335 49.7532C62.7084 49.7793 62.6945 49.8141 62.6945 49.8502ZM80.6033 42.9006C76.6833 43.1414 76.8121 43.063 76.8121 43.2534V45.4206C76.8121 45.4578 76.8268 45.4934 76.8531 45.5196C76.8793 45.5459 76.915 45.5606 76.9521 45.5606H80.6145C80.6516 45.5606 80.6872 45.5459 80.7135 45.5196C80.7397 45.4934 80.7545 45.4578 80.7545 45.4206C80.7545 43.0406 80.8161 42.8894 80.6033 42.9006ZM37.1137 61.1174C37.2873 58.351 37.2929 58.575 37.2369 58.5134C37.1809 58.4518 37.4049 58.4686 34.2017 58.4686C34.1646 58.4686 34.129 58.4834 34.1027 58.5096C34.0764 58.5359 34.0617 58.5715 34.0617 58.6086V61.1118C34.0617 61.149 34.0764 61.1846 34.1027 61.2108C34.129 61.2371 34.1646 61.2518 34.2017 61.2518H36.9737C37.0095 61.2506 37.0435 61.2362 37.0693 61.2114C37.0952 61.1866 37.111 61.1531 37.1137 61.1174ZM44.4777 58.3118C44.4415 58.3133 44.4074 58.3287 44.3823 58.3548C44.3572 58.3809 44.3433 58.4157 44.3433 58.4518V60.5742C44.3433 60.6114 44.358 60.647 44.3843 60.6732C44.4106 60.6995 44.4462 60.7142 44.4833 60.7142H46.6897C46.7268 60.7142 46.7624 60.6995 46.7887 60.6732C46.8149 60.647 46.8297 60.6114 46.8297 60.5742V58.3678C46.8282 58.3302 46.8123 58.2946 46.7851 58.2685C46.758 58.2424 46.7218 58.2278 46.6841 58.2278L44.4777 58.3118ZM57.4193 57.8806C47.1321 58.1494 47.6585 58.1214 47.6585 58.323C47.6585 60.703 47.6585 60.563 47.6977 60.6246C47.7369 60.6862 47.1377 60.6918 57.4305 60.4454C57.4662 60.4427 57.4996 60.4269 57.5244 60.4011C57.5492 60.3753 57.5636 60.3412 57.5649 60.3054V58.0206C57.5658 58.0015 57.5625 57.9825 57.5554 57.9647C57.5484 57.947 57.5376 57.9309 57.5238 57.9177C57.51 57.9044 57.4936 57.8943 57.4755 57.8879C57.4575 57.8815 57.4383 57.879 57.4193 57.8806ZM66.3569 57.8302C66.1217 60.1374 66.1161 59.9974 66.1777 60.0702C66.2393 60.143 65.8809 60.115 70.6241 60.115C70.6474 60.1172 70.6709 60.1136 70.6924 60.1044C70.7139 60.0951 70.7327 60.0807 70.7472 60.0623C70.7617 60.0439 70.7714 60.0222 70.7753 59.9991C70.7792 59.9761 70.7773 59.9524 70.7697 59.9302C70.2769 57.6062 70.3273 57.595 70.1593 57.6006C66.2393 57.6902 66.3737 57.6566 66.3569 57.8302ZM71.8281 60.087H73.4409C73.4762 60.0872 73.5102 60.074 73.5361 60.0501C73.5621 60.0262 73.5781 59.9934 73.5809 59.9582C73.8161 57.3878 73.8217 57.5502 73.7545 57.483C73.6873 57.4158 73.8553 57.4326 71.2401 57.5894C71.2199 57.5913 71.2004 57.5974 71.1829 57.6075C71.1653 57.6176 71.1502 57.6314 71.1385 57.6479C71.1268 57.6644 71.1188 57.6832 71.1151 57.7031C71.1113 57.723 71.112 57.7434 71.1169 57.763C71.7329 60.1542 71.6769 60.087 71.8281 60.087Z" fill="#FFD400"/>
<path d="M87.8209 51.3677C88.0012 51.1907 88.1713 51.0038 88.3305 50.8077C87.9214 50.8616 87.5053 50.8195 87.1153 50.6845C87.073 50.6689 87.0386 50.6371 87.0197 50.5962C87.0008 50.5552 86.9989 50.5084 87.0145 50.4661C87.0301 50.4238 87.0619 50.3894 87.1028 50.3705C87.1438 50.3515 87.1906 50.3497 87.2329 50.3653C87.5409 50.4717 88.7057 50.4325 89.0137 49.7549C89.1313 49.4973 89.4953 49.7101 89.4169 49.9453C89.1071 50.6413 88.5936 51.227 87.9441 51.6253C87.914 51.6259 87.8843 51.6178 87.8587 51.602C87.8331 51.5862 87.8125 51.5633 87.7995 51.5362C87.7865 51.509 87.7816 51.4787 87.7854 51.4488C87.7892 51.4189 87.8015 51.3907 87.8209 51.3677Z" fill="#121212"/>
<path d="M85.4633 48.6013C85.7554 48.4033 86.0341 48.1863 86.2977 47.9517C86.3271 47.9216 86.3658 47.9024 86.4076 47.8973C86.4493 47.8922 86.4916 47.9015 86.5273 47.9237C86.7401 48.0805 86.4545 48.2877 85.8217 48.9205C85.9617 49.1053 86.1857 49.3797 86.2249 49.4525C86.2454 49.4832 86.2543 49.5202 86.2502 49.5569C86.2461 49.5936 86.2292 49.6277 86.2024 49.6531C86.1756 49.6785 86.1407 49.6937 86.1039 49.6959C86.067 49.6982 86.0305 49.6873 86.0009 49.6653C85.9953 49.6597 85.2897 49.1333 85.2897 48.9317C85.2878 48.8663 85.3028 48.8016 85.3332 48.7438C85.3637 48.6859 85.4084 48.6368 85.4633 48.6013Z" fill="#121212"/>
<path d="M86.2473 46.5797C85.9785 47.2517 86.0345 47.5093 85.8105 47.6101C85.7737 47.6271 85.7336 47.636 85.6931 47.6363C85.6525 47.6366 85.6124 47.6283 85.5753 47.6119C85.5382 47.5954 85.505 47.5713 85.478 47.5411C85.451 47.5108 85.4307 47.4752 85.4185 47.4365C85.3177 47.2069 85.5641 47.0725 85.8777 46.4173C85.8884 46.393 85.9037 46.3711 85.9228 46.3527C85.942 46.3344 85.9645 46.32 85.9892 46.3104C86.0139 46.3008 86.0403 46.2961 86.0668 46.2967C86.0933 46.2972 86.1194 46.303 86.1437 46.3137C86.168 46.3243 86.1899 46.3397 86.2082 46.3588C86.2266 46.378 86.241 46.4005 86.2506 46.4252C86.2602 46.4499 86.2649 46.4763 86.2643 46.5028C86.2637 46.5293 86.258 46.5554 86.2473 46.5797Z" fill="#121212"/>
<path d="M88.5545 47.2909C88.2913 47.9573 88.3417 48.2205 88.1177 48.3213C88.0805 48.3383 88.0401 48.3473 87.9991 48.3476C87.9582 48.348 87.9176 48.3397 87.8801 48.3233C87.8426 48.3069 87.8089 48.2828 87.7814 48.2526C87.7538 48.2223 87.7329 48.1866 87.7201 48.1477C87.6249 47.9237 87.9273 47.6885 88.1849 47.1285C88.2064 47.0795 88.2466 47.041 88.2964 47.0216C88.3463 47.0022 88.4019 47.0033 88.4509 47.0249C88.4999 47.0464 88.5384 47.0865 88.5578 47.1364C88.5772 47.1863 88.576 47.2419 88.5545 47.2909Z" fill="#121212"/>
<path d="M64.6768 54.8565C64.2848 55.0077 65.1136 55.4725 64.9848 58.1437C64.8728 60.3837 64.0384 61.0949 64.1728 61.3189C64.1872 61.3397 64.2065 61.3567 64.2289 61.3685C64.2513 61.3802 64.2762 61.3863 64.3016 61.3863C64.3269 61.3863 64.3518 61.3802 64.3742 61.3685C64.3967 61.3567 64.4159 61.3397 64.4304 61.3189C65.0277 60.379 65.3846 59.3066 65.4696 58.1962C65.5545 57.0858 65.365 55.9716 64.9176 54.9517C64.8979 54.9075 64.8617 54.8727 64.8166 54.8549C64.7716 54.8371 64.7214 54.8377 64.6768 54.8565ZM60.1744 58.0373C59.2672 58.6869 60.0344 59.7173 60.9584 59.4597V60.9773C60.9584 61.2069 60.7232 61.3245 60.5832 61.1285C60.5562 61.0923 60.5166 61.0675 60.4723 61.0592C60.4279 61.0509 60.382 61.0596 60.3438 61.0837C60.3056 61.1078 60.2779 61.1454 60.2662 61.189C60.2545 61.2326 60.2597 61.279 60.2808 61.3189C60.3476 61.4287 60.4476 61.5143 60.5664 61.5633C60.6851 61.6124 60.8164 61.6223 60.9412 61.5918C61.066 61.5612 61.1778 61.4917 61.2605 61.3933C61.3431 61.2949 61.3922 61.1727 61.4008 61.0445C61.4008 60.8653 61.5744 58.4125 61.3448 58.1157C61.2735 58.033 61.1866 57.9653 61.0889 57.9165C60.9913 57.8677 60.8849 57.8388 60.776 57.8315C60.6671 57.8242 60.5578 57.8387 60.4545 57.874C60.3512 57.9093 60.256 57.9649 60.1744 58.0373ZM60.8296 58.3901C60.8902 58.4523 60.9282 58.533 60.9373 58.6194C60.9465 58.7058 60.9263 58.7927 60.88 58.8661C60.7568 59.0005 60.32 58.9557 60.2584 58.7317C60.1968 58.5077 60.628 58.2501 60.8296 58.3901ZM62.532 57.9421C62.3393 57.9806 62.1644 58.081 62.0341 58.228C61.9037 58.375 61.8249 58.5606 61.8097 58.7565C61.7944 58.9524 61.8436 59.1479 61.9498 59.3132C62.0559 59.4786 62.2131 59.6048 62.3976 59.6725C62.5501 59.7296 62.717 59.7359 62.8734 59.6905C63.0298 59.6451 63.1673 59.5504 63.2656 59.4205C63.2856 59.3854 63.2935 59.3446 63.2881 59.3045C63.2827 59.2643 63.2642 59.2271 63.2356 59.1985C63.207 59.1699 63.1698 59.1514 63.1296 59.146C63.0895 59.1406 63.0487 59.1485 63.0136 59.1685C62.8624 59.2581 62.3304 59.2581 62.2912 58.8213C62.282 58.7347 62.2997 58.6474 62.3418 58.5711C62.3838 58.4948 62.4483 58.4333 62.5265 58.3948C62.6046 58.3564 62.6927 58.3428 62.7788 58.356C62.8649 58.3692 62.9449 58.4085 63.008 58.4685C63.0473 58.5057 63.0998 58.5256 63.1539 58.5241C63.208 58.5225 63.2592 58.4995 63.2964 58.4601C63.3335 58.4208 63.3535 58.3683 63.3519 58.3142C63.3503 58.2601 63.3273 58.2089 63.288 58.1717C63.1896 58.0756 63.0696 58.0046 62.938 57.9646C62.8064 57.9246 62.6672 57.9169 62.532 57.9421ZM35.8536 33.8341C35.909 33.8522 35.9687 33.8522 36.024 33.8341C36.0794 33.8159 36.1276 33.7807 36.1616 33.7333C36.2904 33.5597 36.66 31.9693 36.772 31.5885C36.7868 31.5403 36.7819 31.4881 36.7583 31.4434C36.7346 31.3988 36.6942 31.3654 36.646 31.3505C36.5977 31.3357 36.5455 31.3406 36.5009 31.3642C36.4562 31.3879 36.4228 31.4283 36.408 31.4765C35.8704 33.0501 35.428 33.6997 35.8536 33.8341ZM52.3512 85.4325C51.892 85.9523 51.402 86.4442 50.884 86.9053C50.8553 86.9335 50.8326 86.967 50.8171 87.004C50.8016 87.0411 50.7936 87.0808 50.7936 87.1209C50.7936 87.1611 50.8016 87.2008 50.8171 87.2378C50.8326 87.2748 50.8553 87.3084 50.884 87.3365C51.3152 87.7229 51.7688 88.0757 52.1832 88.4565C52.2136 88.4801 52.251 88.493 52.2896 88.493C52.3281 88.493 52.3655 88.4801 52.396 88.4565C52.4201 88.4274 52.4333 88.3908 52.4333 88.3529C52.4333 88.3151 52.4201 88.2785 52.396 88.2493C52.0992 87.8629 51.8024 87.4821 51.4888 87.1293C51.9207 86.6807 52.3176 86.1995 52.676 85.6901C52.8496 85.4717 52.508 85.2309 52.3512 85.4325ZM71.3296 87.4989C71.3968 87.4989 71.3296 87.4989 72.052 87.0229C73.3904 86.0821 73.5248 86.0205 73.4856 85.7517C73.4352 85.3597 72.9256 85.2981 71.5536 84.6317C71.5016 84.6028 71.4402 84.5956 71.383 84.6119C71.3257 84.6282 71.2773 84.6666 71.2484 84.7185C71.2194 84.7705 71.2123 84.8319 71.2286 84.8891C71.2448 84.9463 71.2832 84.9948 71.3352 85.0237C71.5928 85.1693 72.4048 85.6789 72.7184 85.8693C71.9064 86.6309 71.2176 87.2637 71.2176 87.2637C71.2028 87.2855 71.1941 87.3108 71.1921 87.337C71.1901 87.3633 71.1951 87.3896 71.2064 87.4133C71.2177 87.4371 71.235 87.4575 71.2566 87.4725C71.2782 87.4875 71.3034 87.4966 71.3296 87.4989ZM67.2864 86.5413C68.0368 86.5413 68.748 86.4181 69.4704 86.3845C69.5223 86.3845 69.5722 86.3639 69.609 86.3271C69.6457 86.2904 69.6664 86.2405 69.6664 86.1885C69.6664 86.1366 69.6457 86.0867 69.609 86.0499C69.5722 86.0132 69.5223 85.9925 69.4704 85.9925C68.7368 85.9925 68.0368 85.8749 67.2864 85.9253C67.2047 85.9253 67.1263 85.9578 67.0686 86.0155C67.0108 86.0733 66.9784 86.1516 66.9784 86.2333C66.9784 86.315 67.0108 86.3934 67.0686 86.4511C67.1263 86.5089 67.2047 86.5413 67.2864 86.5413ZM63.1256 86.6981C63.484 86.6981 65.0296 86.5357 65.1976 86.5245C65.2481 86.5245 65.2965 86.5045 65.3322 86.4688C65.3679 86.4331 65.388 86.3846 65.388 86.3341C65.388 86.2836 65.3679 86.2352 65.3322 86.1995C65.2965 86.1638 65.2481 86.1437 65.1976 86.1437C65.0296 86.1437 63.484 86.0429 63.1256 86.0877C63.0517 86.0978 62.984 86.1342 62.935 86.1903C62.886 86.2464 62.859 86.3184 62.859 86.3929C62.859 86.4674 62.886 86.5394 62.935 86.5955C62.984 86.6517 63.0517 86.6881 63.1256 86.6981ZM58.052 86.3397C58.013 86.3405 57.9745 86.3489 57.9388 86.3645C57.9031 86.3801 57.8708 86.4025 57.8437 86.4306C57.8167 86.4587 57.7954 86.4918 57.7812 86.5281C57.767 86.5644 57.76 86.6032 57.7608 86.6421C57.7608 86.9725 58.1024 86.9557 58.3208 86.9557C58.9637 86.9263 59.6048 86.8646 60.2416 86.7709C60.2914 86.7628 60.3367 86.7372 60.3693 86.6987C60.402 86.6602 60.42 86.6114 60.42 86.5609C60.42 86.5105 60.402 86.4616 60.3693 86.4232C60.3367 86.3847 60.2914 86.3591 60.2416 86.3509C59.8664 86.3789 58.4104 86.3285 58.052 86.3397ZM55.7952 86.6477C55.3808 86.6477 53.8016 86.5749 53.3984 86.6477C53.3241 86.6477 53.2529 86.6772 53.2004 86.7297C53.1479 86.7823 53.1184 86.8535 53.1184 86.9277C53.1184 87.002 53.1479 87.0732 53.2004 87.1257C53.2529 87.1782 53.3241 87.2077 53.3984 87.2077C53.8184 87.2637 55.3864 87.1069 55.7952 87.0901C55.8538 87.0901 55.9101 87.0668 55.9516 87.0253C55.9931 86.9839 56.0164 86.9276 56.0164 86.8689C56.0164 86.8103 55.9931 86.754 55.9516 86.7125C55.9101 86.671 55.8538 86.6477 55.7952 86.6477ZM34.1344 25.3781C34.0045 25.2162 33.8357 25.0899 33.6437 25.011C33.4517 24.9321 33.2428 24.9032 33.0366 24.9271C32.8304 24.9509 32.6337 25.0267 32.4648 25.1474C32.2958 25.268 32.1603 25.4296 32.0709 25.6169C31.9814 25.8042 31.941 26.0111 31.9533 26.2183C31.9657 26.4255 32.0304 26.6262 32.1415 26.8016C32.2526 26.9769 32.4063 27.1212 32.5884 27.2209C32.7704 27.3207 32.9748 27.3725 33.1824 27.3717C33.415 27.3754 33.6438 27.3121 33.8415 27.1896C34.0392 27.067 34.1976 26.8903 34.2979 26.6803C34.3982 26.4704 34.436 26.2361 34.407 26.0053C34.3781 25.7744 34.2834 25.5568 34.1344 25.3781ZM33.8264 26.4981C33.7558 26.6298 33.6458 26.7361 33.5119 26.8023C33.3779 26.8684 33.2266 26.891 33.0792 26.8669C32.9317 26.8429 32.7955 26.7733 32.6895 26.6681C32.5835 26.5628 32.513 26.427 32.488 26.2797C32.4611 26.1741 32.4583 26.0638 32.4797 25.9569C32.5012 25.85 32.5464 25.7493 32.6119 25.6622C32.6775 25.5752 32.7618 25.5039 32.8586 25.4538C32.9554 25.4036 33.0622 25.3759 33.1712 25.3725C33.2982 25.3833 33.4207 25.4248 33.528 25.4935C33.6353 25.5622 33.7243 25.6561 33.7872 25.767C33.8501 25.8779 33.885 26.0024 33.8889 26.1298C33.8928 26.2572 33.8656 26.3836 33.8096 26.4981H33.8264ZM39.4096 25.5181C39.2482 25.3072 39.0221 25.1549 38.7659 25.0846C38.5097 25.0143 38.2376 25.0299 37.9911 25.129C37.7446 25.2281 37.5374 25.4053 37.4012 25.6333C37.265 25.8613 37.2072 26.1277 37.2368 26.3917C37.2618 26.6562 37.3705 26.9059 37.5471 27.1043C37.7237 27.3028 37.959 27.4398 38.2188 27.4954C38.4786 27.551 38.7493 27.5222 38.9917 27.4134C39.234 27.3045 39.4353 27.1212 39.5664 26.8901C39.6644 26.6681 39.7016 26.424 39.674 26.1829C39.6465 25.9417 39.5552 25.7123 39.4096 25.5181ZM38.0656 25.6357C38.2055 25.5437 38.3736 25.5045 38.5397 25.525C38.7059 25.5455 38.8594 25.6245 38.9728 25.7477C39.0771 25.8706 39.1442 26.0208 39.166 26.1806C39.1878 26.3403 39.1635 26.5029 39.096 26.6493C39.0245 26.7751 38.9168 26.8765 38.787 26.9404C38.6572 27.0043 38.5112 27.0278 38.368 27.0077C38.2194 26.9826 38.0817 26.9139 37.9721 26.8105C37.8626 26.707 37.7862 26.5734 37.7527 26.4265C37.7191 26.2797 37.7299 26.1261 37.7836 25.9854C37.8373 25.8446 37.9315 25.7229 38.0544 25.6357H38.0656ZM44.668 25.6637C44.5383 25.502 44.3697 25.3757 44.1779 25.2968C43.9862 25.2179 43.7776 25.1889 43.5716 25.2125C43.3656 25.2361 43.169 25.3115 43.0001 25.4317C42.8311 25.552 42.6955 25.713 42.6057 25.8999C42.5159 26.0868 42.475 26.2934 42.4867 26.5004C42.4985 26.7074 42.5625 26.9081 42.6729 27.0836C42.7832 27.2591 42.9362 27.4038 43.1177 27.5042C43.2991 27.6045 43.503 27.6572 43.7104 27.6573C43.9435 27.6621 44.173 27.5996 44.3716 27.4775C44.5702 27.3554 44.7294 27.1787 44.8304 26.9685C44.9313 26.7584 44.9697 26.5236 44.9409 26.2923C44.9121 26.0609 44.8173 25.8427 44.668 25.6637ZM44.3544 26.7837C44.2879 26.8903 44.1952 26.9781 44.0851 27.0386C43.975 27.0991 43.8512 27.1303 43.7256 27.1292C43.6 27.1282 43.4767 27.0949 43.3677 27.0325C43.2586 26.9701 43.1674 26.8808 43.1028 26.7731C43.0381 26.6654 43.0022 26.5429 42.9985 26.4173C42.9948 26.2917 43.0234 26.1673 43.0816 26.056C43.1398 25.9446 43.2256 25.8501 43.3308 25.7814C43.436 25.7127 43.557 25.6722 43.6824 25.6637C43.8121 25.6683 43.9386 25.7052 44.0505 25.7711C44.1623 25.837 44.2558 25.9299 44.3226 26.0412C44.3894 26.1525 44.4273 26.2787 44.4328 26.4084C44.4384 26.5381 44.4114 26.6671 44.3544 26.7837Z" fill="#121212"/>
<path d="M92.4248 34.9933C92.5845 34.6671 92.658 34.3054 92.6384 33.9427C92.6188 33.5801 92.5067 33.2284 92.3128 32.9213C91.8592 32.2493 90.9464 32.2717 90.2128 32.2885C87.9448 32.3445 34.7056 30.7149 34.6496 30.7093C34.3249 30.631 33.9826 30.679 33.692 30.8437C32.8016 31.4933 32.8296 33.8061 33.832 34.3885C34.1283 34.5221 34.4571 34.5669 34.7784 34.5173L90.6888 36.0125C91.0424 36.0114 91.3894 35.9164 91.6944 35.7374C91.9994 35.5583 92.2514 35.3016 92.4248 34.9933ZM37.8136 31.4205C37.5088 32.1311 37.2561 32.8629 37.0576 33.6101C37.0561 33.6434 37.0613 33.6767 37.073 33.7079C37.0847 33.7391 37.1026 33.7676 37.1257 33.7916C37.1487 33.8157 37.1764 33.8349 37.207 33.848C37.2377 33.861 37.2707 33.8678 37.304 33.8677C37.556 33.8677 37.6008 33.6381 37.9816 32.2605C38.1888 31.4877 38.2448 31.4653 38.144 31.3589C46.1688 31.6109 90.6608 32.8485 90.7504 32.8541C91.4392 32.8541 91.8144 33.0669 91.9656 33.4645C92.0797 33.7327 92.1113 34.0288 92.0565 34.3151C92.0016 34.6013 91.8627 34.8647 91.6576 35.0717C91.4102 35.2452 91.131 35.3681 90.8359 35.4335C90.5409 35.4988 90.2359 35.5053 89.9384 35.4525C86.6736 35.3405 34.2576 34.0021 34.2016 33.9909C33.468 33.8117 33.4064 32.0813 33.8544 31.4037C34.0168 31.1629 34.2632 31.1741 34.6496 31.2245C38.2896 31.4037 37.864 31.2749 37.8136 31.4205ZM56.2488 64.7125C56.2488 64.1525 56.7192 64.3989 36.0888 64.9533C35.9704 64.9449 35.8517 64.9649 35.7426 65.0117C35.6335 65.0584 35.5371 65.1306 35.4616 65.2221C35.2488 65.5413 35.6184 82.6997 35.6296 82.8621C35.6325 82.9329 35.6627 82.9999 35.7138 83.049C35.765 83.098 35.8331 83.1254 35.904 83.1253C35.904 83.1253 38.1048 83.0469 40.0312 82.9909C56.9376 82.5037 56.7192 82.2629 56.7024 82.0333C56.6576 81.6021 56.2544 65.0093 56.2488 64.7125ZM35.9264 65.6085C35.9264 65.5693 36.0328 65.5357 36.0888 65.5301C36.8336 65.5301 55.028 64.9701 55.6888 64.9701C55.7392 66.6501 56.2096 80.9413 56.2488 81.8093C53.3704 81.9941 38.2784 82.5261 36.184 82.5709C35.8536 77.9957 35.8928 65.9445 35.9264 65.6085Z" fill="#121212"/>
<path d="M36.8841 81.1207C37.3209 80.8015 45.5249 73.9023 45.7993 73.6783C47.9665 75.4087 54.0594 80.2751 55.3586 81.3279C55.5602 81.4903 55.8177 81.1991 55.6217 81.0311C53.3033 79.1047 47.4122 74.3111 46.2194 73.3255C46.7794 72.8887 53.8185 66.9975 54.7146 66.2751C54.905 66.1127 54.6585 65.8327 54.4625 65.9839C52.1497 67.8431 46.6897 72.2503 45.7825 72.9839C44.0465 71.6119 38.4409 67.2943 37.0913 66.3199C37.0539 66.2981 37.0098 66.2906 36.9673 66.2988C36.9247 66.3071 36.8866 66.3304 36.86 66.3646C36.8333 66.3987 36.82 66.4414 36.8223 66.4847C36.8247 66.5279 36.8427 66.5689 36.8729 66.5999C38.7937 68.1679 45.2169 73.2191 45.3625 73.3199C43.5257 74.8487 37.1977 80.1743 36.6041 80.7735C36.5581 80.8106 36.5287 80.8645 36.5224 80.9233C36.5161 80.9821 36.5334 81.041 36.5705 81.0871C36.6077 81.1331 36.6616 81.1625 36.7204 81.1688C36.7792 81.1751 36.8381 81.1578 36.8841 81.1207ZM77.0137 79.1551C75.1601 77.6319 71.3073 74.2831 70.5737 73.6447C72.2145 72.1999 77.2937 67.4847 78.3129 66.5551C78.3508 66.5194 78.373 66.4702 78.3746 66.4182C78.3761 66.3662 78.357 66.3158 78.3213 66.2779C78.2857 66.24 78.2365 66.2178 78.1845 66.2163C78.1325 66.2147 78.082 66.2338 78.0441 66.2695C77.2881 66.9695 70.3945 73.0847 70.1705 73.2863C69.2633 72.4967 62.1233 66.1855 61.8433 65.9503C61.8083 65.9231 61.7645 65.9099 61.7203 65.9132C61.6761 65.9165 61.6347 65.936 61.6041 65.968C61.5734 66.0001 61.5558 66.0423 61.5544 66.0866C61.5531 66.1309 61.5683 66.1741 61.5969 66.2079C62.0617 66.6839 68.4961 72.6031 69.7225 73.6839C69.0673 74.2439 62.5769 79.9839 61.8825 80.5999C61.8566 80.6203 61.8381 80.6487 61.8298 80.6806C61.8215 80.7125 61.8239 80.7463 61.8366 80.7768C61.8493 80.8072 61.8716 80.8327 61.9001 80.8493C61.9286 80.8659 61.9618 80.8727 61.9945 80.8687C62.2577 80.8687 69.5937 74.4847 70.1089 74.0367C71.3353 75.0727 75.6473 78.5839 76.7337 79.4519C76.9577 79.6087 77.2153 79.3231 77.0137 79.1551ZM21.7921 106.522C21.7921 106.522 37.0409 105.649 37.3153 105.626C37.3591 105.623 37.4014 105.61 37.439 105.587C37.4766 105.565 37.5084 105.534 37.5319 105.497C37.5553 105.46 37.5697 105.418 37.5739 105.374C37.5781 105.33 37.572 105.286 37.5561 105.245C37.5841 101.549 37.9705 94.6055 37.7353 94.2471C37.6591 94.1537 37.5589 94.083 37.4454 94.0425C37.3318 94.002 37.2094 93.9934 37.0913 94.0175L21.8761 94.7679C21.8048 94.7707 21.7372 94.8007 21.6873 94.8517C21.6373 94.9027 21.6087 94.9709 21.6073 95.0423C21.5121 97.2431 21.3161 106.085 21.3665 106.242C21.3925 106.332 21.4496 106.41 21.5277 106.461C21.6057 106.512 21.6995 106.534 21.7921 106.522ZM37.2649 94.6951C37.2649 95.1543 37.2369 97.1199 37.0521 105.077C35.5121 105.139 22.2457 105.929 21.9321 105.945C21.9321 104.764 22.1225 96.6383 22.1729 95.3055L37.1249 94.5551C37.1616 94.5565 37.1964 94.5717 37.2224 94.5976C37.2484 94.6236 37.2636 94.6584 37.2649 94.6951ZM42.4393 104.977C42.5121 105.24 42.7641 105.251 43.0273 105.229C59.3345 103.963 58.4945 104.405 58.6065 104.198C58.6513 104.109 58.5673 104.568 58.7633 98.7103C58.7633 97.9879 58.9817 93.2391 58.8025 92.9647C58.7272 92.8703 58.627 92.7989 58.5132 92.7583C58.3994 92.7177 58.2766 92.7097 58.1585 92.7351C58.0801 92.7351 43.7217 93.4407 42.9489 93.4855C42.8766 93.4869 42.8077 93.5163 42.7565 93.5674C42.7054 93.6186 42.676 93.6876 42.6745 93.7599C42.5849 95.8263 42.3833 104.786 42.4393 104.977ZM42.9993 104.663C42.9993 103.448 43.1953 95.3055 43.2401 94.0231L58.2705 93.2727C58.3993 93.2727 58.3993 92.4495 58.1361 103.784C56.5793 103.851 43.3297 104.641 42.9825 104.663H42.9993ZM61.8881 103.61C61.9665 103.868 62.2129 103.879 62.4817 103.857C78.7889 102.585 77.9489 103.033 78.0609 102.826C78.1057 102.742 78.0217 103.168 78.2177 97.3439C78.2177 96.6047 78.4361 91.8783 78.2569 91.5927C78.1816 91.4983 78.0814 91.4269 77.9676 91.3863C77.8538 91.3457 77.731 91.3377 77.6129 91.3631L62.4033 92.1135C62.331 92.1149 62.2621 92.1443 62.2109 92.1954C62.1597 92.2466 62.1304 92.3156 62.1289 92.3879C62.0337 94.5607 61.8377 103.403 61.8881 103.61ZM62.6777 92.6623L77.7081 91.9119C77.8369 91.9119 77.8313 91.0999 77.5737 102.423C76.0337 102.479 62.7617 103.269 62.4537 103.291C62.4369 103.213 62.6273 94.0119 62.6777 92.6399V92.6623Z" fill="#121212"/>
<path d="M36.4642 94.9638C34.7842 96.2686 30.3994 99.3878 29.7778 99.8414C29.2682 99.5334 23.5282 96.095 22.9066 95.7086C22.8665 95.6826 22.8177 95.6736 22.771 95.6836C22.7242 95.6935 22.6834 95.7217 22.6574 95.7618C22.6314 95.8019 22.6224 95.8506 22.6324 95.8974C22.6424 95.9441 22.6705 95.985 22.7106 96.011C23.545 96.571 28.221 99.539 29.2794 100.2C28.9434 100.441 23.1922 104.579 22.8506 104.859C22.8212 104.882 22.7999 104.915 22.7897 104.951C22.7796 104.987 22.7812 105.026 22.7942 105.061C22.8072 105.096 22.831 105.127 22.8623 105.148C22.8935 105.169 22.9306 105.179 22.9682 105.178C23.1586 105.178 29.6882 100.648 29.8394 100.536C31.1554 101.303 35.8762 103.929 36.397 104.204C36.4304 104.225 36.4706 104.234 36.5098 104.227C36.549 104.221 36.5846 104.201 36.6098 104.17C36.6263 104.132 36.6297 104.089 36.6196 104.049C36.6095 104.008 36.5864 103.972 36.5538 103.946C34.4706 102.714 32.365 101.437 30.3266 100.2C31.5418 99.2982 36.6882 95.283 36.6882 95.283C36.7305 95.2533 36.7593 95.208 36.7683 95.157C36.7772 95.1061 36.7655 95.0537 36.7358 95.0114C36.7061 94.969 36.6608 94.9402 36.6099 94.9313C36.5589 94.9224 36.5065 94.9341 36.4642 94.9638ZM57.817 93.5302C57.3802 93.8382 50.6546 98.5086 50.145 98.8726C48.9298 98.0382 44.9762 95.283 44.0858 94.5942C43.8954 94.4486 43.6658 94.7454 43.8506 94.891C45.357 96.0782 48.8066 98.6374 49.641 99.2366C48.3922 100.166 44.1922 103.067 43.3914 103.862C43.3714 103.881 43.3576 103.906 43.3517 103.933C43.3458 103.96 43.3481 103.989 43.3583 104.014C43.3686 104.04 43.3862 104.062 43.409 104.078C43.4319 104.094 43.4589 104.103 43.4866 104.103C43.565 104.103 43.9738 103.873 50.1114 99.5614C51.4834 100.469 55.9186 103.112 56.9154 103.644C56.9462 103.657 56.9805 103.658 57.0123 103.648C57.0441 103.638 57.0712 103.617 57.0888 103.588C57.1064 103.56 57.1132 103.526 57.1081 103.493C57.103 103.46 57.0863 103.43 57.061 103.409C56.2322 102.849 51.0298 99.4886 50.621 99.1974C51.629 98.4862 57.6098 94.0958 58.013 93.8046C58.0494 93.7786 58.074 93.7392 58.0813 93.6951C58.0887 93.651 58.0782 93.6058 58.0522 93.5694C58.0262 93.533 57.9868 93.5084 57.9427 93.5011C57.8986 93.4937 57.8534 93.5042 57.817 93.5302ZM70.3946 97.2598C71.7834 98.1894 75.9946 101.129 76.9018 101.824C76.9205 101.84 76.9422 101.852 76.9656 101.859C76.989 101.866 77.0136 101.869 77.038 101.867C77.0625 101.865 77.0863 101.858 77.1081 101.847C77.1298 101.836 77.1492 101.82 77.165 101.801C77.1808 101.783 77.1928 101.761 77.2002 101.738C77.2076 101.714 77.2104 101.69 77.2083 101.665C77.2062 101.641 77.1994 101.617 77.1881 101.595C77.1768 101.573 77.1614 101.554 77.1426 101.538C76.4202 100.978 71.9682 97.6518 70.921 96.9126C71.481 96.5486 76.6386 92.9926 77.2546 92.5838C77.2759 92.5705 77.2944 92.5532 77.3091 92.5328C77.3237 92.5124 77.3342 92.4894 77.3399 92.4649C77.3456 92.4405 77.3465 92.4152 77.3424 92.3904C77.3383 92.3656 77.3294 92.3419 77.3162 92.3206C77.303 92.2992 77.2857 92.2807 77.2653 92.2661C77.2449 92.2515 77.2218 92.241 77.1974 92.2352C77.1729 92.2295 77.1476 92.2287 77.1228 92.2328C77.0981 92.2368 77.0743 92.2457 77.053 92.259C76.549 92.5894 70.669 96.3134 70.333 96.5318C69.1738 95.8038 65.293 93.5302 64.2514 93.0486C64.2113 93.0293 64.1652 93.0267 64.1232 93.0414C64.0812 93.0561 64.0467 93.0869 64.0274 93.127C63.9042 93.3622 63.9322 93.1942 69.8066 96.879C68.1658 97.999 63.0866 101.6 62.5714 102.003C62.5433 102.032 62.525 102.069 62.519 102.11C62.5129 102.15 62.5195 102.191 62.5378 102.227C62.5618 102.262 62.5983 102.287 62.6398 102.296C62.6814 102.306 62.725 102.299 62.7618 102.277C63.3666 101.93 70.3946 97.2598 70.3946 97.2598Z" fill="#121212"/>
<path d="M119.49 113.494C118.874 113.354 115.57 112.906 98.2824 110.358C97.9173 109.845 97.634 109.278 97.4424 108.678C97.3696 106.998 96.9384 101.667 96.7984 100.625C96.5184 98.5534 95.9528 96.4814 95.9976 94.3478C96.5968 94.219 97.1904 94.079 97.7616 93.9222C97.8104 93.9068 97.8529 93.8762 97.8831 93.8349C97.9133 93.7936 97.9296 93.7438 97.9296 93.6926C97.9371 91.5989 97.7836 89.5077 97.4704 87.4374C98.4112 86.3958 98.3776 84.4358 98.344 82.8398C98.344 81.3838 98.3944 80.3646 98.3888 70.5198C100.108 69.1702 99.716 66.1742 99.5088 64.651C100.007 64.3038 100.03 64.3038 100.035 64.2198C99.9922 63.6738 99.8793 63.1355 99.6992 62.6182C99.5805 62.3467 99.407 62.1027 99.1896 61.9014C99.38 61.6214 99.4136 61.599 99.3744 61.5094C99.0552 60.8542 98.8144 60.3894 98.5008 59.891V54.9798C99.506 55.0905 100.519 54.8512 101.368 54.3022C101.399 54.2859 101.422 54.2587 101.434 54.226C101.446 54.1932 101.445 54.1573 101.432 54.1251C101.419 54.0929 101.394 54.0669 101.362 54.052C101.331 54.0371 101.295 54.0345 101.262 54.0446C100.5 54.2294 99.9512 54.1398 99.6264 53.7702C98.8256 52.8742 99.4752 50.511 99.7944 49.671C100.545 47.5766 101.474 47.5038 101.698 45.9974C101.826 44.9118 101.585 43.8149 101.014 42.8827C100.443 41.9505 99.5759 41.237 98.5512 40.8566C98.5512 40.8118 98.7024 32.3166 98.708 32.0534C98.764 29.6398 98.8368 26.3358 96.1376 25.2438C95.5286 25.04 94.8854 24.9582 94.2448 25.003C94.1272 25.003 34.9576 23.1102 34.5432 23.0822C33.4253 22.9538 32.2951 22.9764 31.1832 23.1494C28.3832 23.7542 28.344 26.5094 28.3272 28.3014C28.3272 28.4526 28.3608 44.0878 28.3832 58.967C26.496 58.9222 18.9752 58.911 17.4016 58.967C16.0744 58.967 14.9152 59.0622 14.176 59.6278C13.8151 59.9131 13.5223 60.2753 13.3188 60.688C13.1154 61.1006 13.0065 61.5534 13 62.0134C13 67.4958 13.56 100.39 13.2576 111.344C13.2184 112.766 13.8568 113.886 14.9376 114.217C14.2712 115.118 14.9376 116.143 15.8896 116.569C23.2648 118.159 44.6624 122.729 46.3536 122.729C47.2216 122.729 90.7952 118.489 116.852 115.975C118.353 115.975 119.837 115.208 119.652 113.819C119.585 113.483 119.585 113.517 119.49 113.494ZM96.188 100.25C96.5352 103 96.6472 105.794 96.8544 108.561C96.2773 108.781 95.6395 108.781 95.0624 108.561C93.3824 105.374 90.7224 101.051 91.1424 97.2934C91.2712 96.0838 91.3216 95.5518 90.6328 94.5438C91.232 94.5046 91.8424 94.4486 92.4808 94.3478C92.5984 94.3478 92.6432 94.3478 93.0408 92.1638C93.8416 94.6278 93.8416 94.7958 94.0376 94.751L95.4824 94.443C95.4096 96.4086 95.9192 98.3294 96.188 100.25ZM79.7296 113.623C80.5248 114.485 82.72 113.231 83.7112 112.587C83.733 112.574 83.7505 112.555 83.7615 112.532C83.7724 112.509 83.7764 112.483 83.7728 112.458C83.7553 112.342 83.7622 112.223 83.793 112.109C83.8239 111.995 83.878 111.889 83.952 111.797C83.9667 111.775 83.9857 111.757 84.0078 111.742C84.03 111.728 84.0548 111.718 84.0808 111.713C84.1704 111.713 84.344 111.876 84.428 112.184C84.512 112.492 85.3184 112.307 85.548 112.184C85.6432 112.128 85.6488 112.139 85.548 110.504C88.1016 110.98 93.136 111.848 94.956 112.184C95.012 112.425 95.068 112.66 95.1296 112.884C88.9696 113.444 45.9504 117.285 44.8696 117.364C44.2368 117.218 31.2728 114.905 30.8192 114.827C42.6128 113.858 73.4184 111.338 81.5832 110.638C80.4968 112.273 79.5728 112.486 79.5336 112.677C79.4854 112.838 79.4781 113.009 79.5123 113.175C79.5465 113.34 79.6212 113.494 79.7296 113.623ZM78.7776 90.4446C75.5856 90.551 34.196 92.0182 31.7096 91.4022C29.7048 91.1502 28.764 89.4198 28.9096 86.2614C28.9432 84.5814 28.8032 35.503 28.7752 28.9958C37.8808 29.4102 92.2736 30.9278 98.1648 30.9782C98.1648 32.0142 98.0696 37.1382 98.008 40.6718C96.1376 40.1902 93.8248 40.6102 94.1608 42.447C94.1667 42.4774 94.1824 42.505 94.2056 42.5254C94.4173 42.6908 94.5939 42.8968 94.7251 43.1312C94.8563 43.3657 94.9394 43.6239 94.9697 43.8909C94.9999 44.1578 94.9766 44.4281 94.9012 44.686C94.8258 44.9438 94.6997 45.1841 94.5304 45.3926C94.396 45.5494 94.7712 46.2326 94.592 48.6294C94.3512 51.8494 96.0032 54.2294 97.8904 54.8174C97.8904 55.5454 97.8624 58.2558 97.8624 58.8942C95.8968 55.831 94.8608 55.299 91.5904 53.1766C91.4224 53.0646 91.4168 53.3614 92.0216 51.0598C92.4087 50.9356 92.763 50.7263 93.0586 50.4472C93.3541 50.1681 93.5834 49.8264 93.7296 49.447C93.8531 48.1433 93.8531 46.8308 93.7296 45.527C93.8789 45.0284 93.9137 44.5025 93.8313 43.9886C93.7488 43.4746 93.5514 42.9859 93.2536 42.559C92.7422 41.695 91.9724 41.0133 91.0528 40.6102C89.2664 39.8598 87.6088 40.6102 86.1416 41.2542C84.4616 42.0438 84.5624 42.5198 84.7696 44.3454C84.772 44.491 84.8081 44.6341 84.8752 44.7633C84.9422 44.8925 85.0384 45.0045 85.156 45.0902C84.764 46.4062 84.1984 48.831 84.624 50.1302C84.787 50.5963 85.0421 51.0248 85.374 51.3904C85.7059 51.7559 86.1078 52.0511 86.556 52.2582C86.5168 52.4262 86.4328 52.7398 86.3712 52.975C86.0968 52.9022 85.5928 52.779 85.296 52.7118C83.4088 51.8326 81.6952 50.8302 79.7576 51.0318C79.6078 51.0531 79.4655 51.1107 79.3432 51.1998C79.0596 50.9273 78.7271 50.7107 78.3632 50.5614C78.0608 50.0014 73.032 41.9374 72.9704 41.8422C72.7184 41.4446 72.5056 41.0974 72.6904 40.6942C72.8752 40.291 73.368 39.5742 73.312 38.9806L77.904 38.9526C78.0525 38.9526 78.195 38.8936 78.3 38.7886C78.405 38.6836 78.464 38.5412 78.464 38.3926V36.847C78.464 36.6985 78.405 36.5561 78.3 36.4511C78.195 36.346 78.0525 36.287 77.904 36.287H61.2496C61.1011 36.287 60.9586 36.346 60.8536 36.4511C60.7486 36.5561 60.6896 36.6985 60.6896 36.847V38.6502C60.6896 38.7988 60.7486 38.9412 60.8536 39.0462C60.9586 39.1512 61.1011 39.2102 61.2496 39.2102L67.572 39.1486C68.1876 40.2132 69.1057 41.0708 70.2096 41.6126C70.4448 41.7358 70.4224 41.7526 70.876 44.155C71.6152 48.0246 72.3768 52.0286 74.796 55.2262C74.7512 55.3382 74.7176 55.4502 74.6784 55.5622C74.6668 55.5995 74.6643 55.6391 74.6711 55.6775C74.6778 55.716 74.6936 55.7523 74.7171 55.7835C74.7406 55.8147 74.7712 55.8398 74.8063 55.8568C74.8415 55.8739 74.8802 55.8823 74.9192 55.8814C75.1044 55.8762 75.2885 55.9104 75.4594 55.9819C75.6303 56.0533 75.7841 56.1604 75.9104 56.2958C75.8152 57.3878 76.028 57.9758 77.3216 58.9446C77.6464 59.1854 79.836 60.3782 80.4128 60.6806C80.1552 61.6998 79.9368 62.7414 79.7296 63.7886C73.8552 63.9846 61.0032 64.1022 60.6896 64.3486C60.5961 64.4225 60.5211 64.5172 60.4706 64.625C60.4201 64.7329 60.3953 64.8511 60.3984 64.9702C60.3088 67.2102 60.1184 80.0006 60.1352 80.5886C60.1352 81.7086 60.32 82.3918 61.5128 82.2686C62.3808 82.2686 73.1104 81.9942 77.512 81.8822C77.4448 82.6214 77.4224 82.6326 77.512 82.6942C78.0155 83.0766 78.5849 83.3632 79.192 83.5398C78.7936 85.8184 78.6527 88.1346 78.772 90.4446H78.7776ZM88.6896 56.4582C87.3512 56.615 85.2288 56.4022 84.848 55.1702C84.7024 54.6102 85.2344 53.6078 85.52 53.2606L86.4944 53.4902C86.5537 53.5039 86.6161 53.4941 86.6683 53.4627C86.7205 53.4314 86.7586 53.381 86.7744 53.3222C86.8472 53.0086 86.9368 52.6726 86.9984 52.4262C87.2168 52.499 87.452 52.5886 87.5024 52.3814C87.5083 52.3594 87.5098 52.3364 87.5068 52.3137C87.5038 52.2911 87.4964 52.2692 87.485 52.2495C87.4735 52.2297 87.4583 52.2124 87.4401 52.1985C87.422 52.1846 87.4013 52.1745 87.3792 52.1686C85.6992 51.7038 84.7864 50.0518 85.1392 48.131C85.3152 46.8648 85.5657 45.6101 85.8896 44.3734C86.3771 44.9203 87.0299 45.2929 87.7487 45.4344C88.4675 45.5759 89.2128 45.4787 89.8712 45.1574C89.7317 46.1828 89.8123 47.2261 90.1078 48.2178C90.4033 49.2095 90.9068 50.1269 91.5848 50.9086C90.9296 53.1486 90.9072 53.1486 91.0752 53.395C91.2432 53.6414 91.8088 53.8766 92.4528 54.3694C91.4904 55.4955 90.1544 56.2371 88.6896 56.4582ZM88.6896 57.4662C88.3984 57.4662 88.6896 56.9342 88.9304 56.9342C89.1712 56.9342 88.88 57.4494 88.6896 57.4662ZM86.9704 57.3262C86.9704 57.6174 86.4104 57.8358 86.2088 57.6902C86.0072 57.5446 86.3152 57.203 86.6176 57.1302C86.6896 57.1112 86.7662 57.121 86.8311 57.1576C86.8959 57.1942 86.9439 57.2547 86.9648 57.3262H86.9704ZM85.0888 56.8166C85.0659 56.8367 85.0385 56.851 85.0089 56.8583C84.9793 56.8656 84.9484 56.8657 84.9187 56.8586C84.8891 56.8514 84.8616 56.8373 84.8386 56.8173C84.8156 56.7973 84.7977 56.7721 84.7864 56.7438C84.7248 56.447 85.1672 56.2846 85.2568 56.4022C85.3464 56.5198 85.2792 56.6542 85.0832 56.8166H85.0888ZM93.3936 65.3846C93.4298 65.3996 93.4606 65.4254 93.4816 65.4584C93.5027 65.4915 93.513 65.5303 93.5112 65.5694C93.501 65.6072 93.4794 65.6409 93.4493 65.666C93.4192 65.691 93.3822 65.7062 93.3432 65.7094C91.6632 65.5582 90.4032 64.4662 90.056 62.3886C90.0471 62.3418 90.0571 62.2934 90.0839 62.2541C90.1107 62.2147 90.152 62.1875 90.1988 62.1786C90.2456 62.1697 90.294 62.1798 90.3334 62.2065C90.3728 62.2333 90.3999 62.2746 90.4088 62.3214C90.5902 63.0498 90.9615 63.7171 91.4848 64.2552C92.0082 64.7934 92.6649 65.1831 93.388 65.3846H93.3936ZM71.4416 39.115C71.4752 39.255 71.0776 39.3054 70.7304 40.263C70.7215 40.3071 70.729 40.3528 70.7514 40.3918C70.7739 40.4307 70.8097 40.4601 70.8523 40.4745C70.8948 40.4889 70.9412 40.4874 70.9827 40.4701C71.0241 40.4528 71.0579 40.421 71.0776 40.3806C71.3744 39.5742 72.0688 39.7254 71.9344 39.0702C71.6712 37.799 71.9848 37.1438 72.4216 37.2726C72.5056 37.2726 72.4608 38.3926 72.7352 38.6782C73.2224 39.2382 72.3376 40.0782 72.1752 40.6998C72.1303 40.9025 72.1322 41.1127 72.1807 41.3146C72.2293 41.5164 72.3231 41.7045 72.4552 41.8646C72.5616 42.027 77.5848 50.1414 77.9208 50.6678C76.7373 51.8319 75.745 53.1757 74.9808 54.6494C72.2704 50.8246 71.7384 46.0142 70.8256 41.6238C70.7124 41.3862 70.5118 41.2016 70.2656 41.1086C69.3964 40.6578 68.6651 39.9806 68.1488 39.1486L71.4416 39.115ZM77.9544 51.3286C78.2064 51.0486 78.2344 50.9926 78.3296 51.015C78.5589 51.1305 78.7732 51.2734 78.968 51.4406C78.3072 51.9614 76.4984 54.0614 76.0224 55.6686C75.7838 55.5065 75.5086 55.4065 75.2216 55.3774C75.7368 53.8206 76.868 52.555 77.9544 51.3286ZM77.5624 81.3894C73.0264 81.4678 61.6136 81.787 60.8968 81.6806C60.6896 81.4958 60.7008 81.087 60.7064 80.7566C60.7064 80.695 60.8632 65.8494 60.9472 64.8974C60.9472 64.707 59.5584 64.791 79.6064 64.2982C78.6096 69.7022 78.1168 75.571 77.5624 81.3894ZM79.6232 83.6742C80.2304 83.7857 80.8528 83.7857 81.46 83.6742C81.4896 83.6698 81.517 83.6559 81.5382 83.6348C81.5593 83.6136 81.5731 83.5862 81.5776 83.5566C82.7312 77.2846 81.656 76.8366 82.6976 65.4518C83.2576 59.0734 84.0976 56.9678 83.9296 56.7606C83.0224 55.6406 83.5824 54.4254 84.736 53.6022C84.176 54.6102 84.3328 55.4278 84.7808 55.9374C84.6409 55.9894 84.5215 56.085 84.4402 56.2102C84.3589 56.3353 84.3201 56.4833 84.3295 56.6322C84.339 56.7812 84.3961 56.9231 84.4925 57.037C84.5889 57.1509 84.7195 57.2307 84.8648 57.2646C85.0675 57.2777 85.2677 57.2133 85.4247 57.0844C85.5817 56.9554 85.6838 56.7717 85.7104 56.5702C85.8839 56.6409 86.0616 56.7007 86.2424 56.7494C85.4864 57.1974 85.5088 58.183 86.3936 58.183C86.6442 58.1995 86.8917 58.1201 87.0861 57.9611C87.2805 57.8021 87.4073 57.5751 87.4408 57.3262C87.4408 56.727 86.8136 56.9678 88.208 56.9342C87.676 58.015 89.1376 58.2726 89.4344 57.2254C89.4861 57.0806 89.4861 56.9223 89.4344 56.7774C92.0216 56.2174 90.6048 55.2038 89.4344 59.611C88.5104 63.0494 88.8744 67.1486 89.3616 70.0102C88.7169 70.5175 88.1174 71.0796 87.5696 71.6902C86.9312 70.3518 86.6568 69.747 86.5168 69.4838C86.3768 69.2206 86.3712 69.2822 86.2928 69.3046C85.996 69.4054 85.2008 69.719 84.4392 70.0382C84.7584 66.6166 84.9432 64.5166 85.5592 59.5046C85.5629 59.4611 85.55 59.4177 85.5232 59.3832C85.4963 59.3487 85.4575 59.3256 85.4143 59.3186C85.3712 59.3115 85.3269 59.321 85.2905 59.3451C85.254 59.3692 85.228 59.4062 85.2176 59.4486C84.7304 62.439 84.1536 66.3086 83.9128 70.2678C83.3528 70.503 83.0616 70.6206 82.916 70.7046C82.7704 70.7886 82.7816 70.8278 82.8096 70.9006C82.9328 71.1974 83.2912 72.0206 83.7336 73.0342C83.1736 77.3518 81.8072 90.4614 81.6728 92.3598C80.7957 91.8939 79.9841 91.3139 79.2592 90.635C79.1165 88.3085 79.2386 85.9732 79.6232 83.6742ZM88.74 74.255C89.0536 73.9862 89.5464 73.5158 89.86 73.2078C90.6608 80.2246 91.2152 76.831 90.5824 88.6246C90.4536 91.0102 90.3416 93.1046 90.4144 94.0286C89.106 94.1159 87.7921 94.0653 86.4944 93.8774C86.5616 92.4494 87.1888 79.7486 87.3008 78.4102C88.1474 78.0752 88.9673 77.6765 89.7536 77.2174C89.8656 77.1166 89.8376 77.2398 88.74 74.255ZM94.6648 108.975V109.832C90.4984 109.216 87.0152 108.712 85.436 108.454C85.408 108.118 85.3856 107.844 85.3688 107.676C86.444 104.109 88.0344 99.371 86.5784 95.9158C86.3824 95.4454 86.2256 95.8654 86.92 94.4766C87.974 94.5949 89.0355 94.6323 90.0952 94.5886C91.0864 95.9494 90.6832 96.1566 90.5936 97.3886C90.28 101.527 92.6376 105.257 94.6648 108.975ZM94.6984 110.414C94.732 110.829 94.7936 111.26 94.8664 111.685L85.5312 110.045C85.5312 109.686 85.492 109.328 85.4696 108.992C87.3344 109.305 90.7392 109.826 94.6984 110.414ZM85.9456 93.7878C84.6325 93.5659 83.3565 93.1626 82.1544 92.5894C82.2104 92.0742 83.7896 76.8086 84.1032 73.9134C85.6432 77.4134 86.0632 78.3934 86.2144 78.6398C86.2872 78.7574 86.2984 78.7294 86.3376 78.7294C86.4886 78.7022 86.6367 78.6609 86.78 78.6062C86.416 82.683 85.9736 92.3038 85.9456 93.7878ZM86.388 94.387C85.7888 95.4398 85.7328 95.507 86.0128 95.9886C86.5728 96.9574 86.6064 98.7494 86.5728 99.8638C86.4776 101.919 84.96 106.993 84.8088 107.491C84.5753 107.697 84.2867 107.831 83.9784 107.876C83.67 107.921 83.3553 107.874 83.0728 107.743C82.9552 107.698 82.9944 107.827 82.9272 106.937C82.7088 103.98 82.1376 96.3302 81.8072 93.0262C83.2583 93.7043 84.8021 94.1629 86.388 94.387ZM94.1328 85.0406C94.3904 87.247 95.2248 92.959 95.3704 93.9334L94.2056 94.2246C94.0208 93.6646 93.4272 91.5702 93.1976 91.083C93.1727 91.0375 93.1347 91.0006 93.0884 90.9771C93.0422 90.9536 92.99 90.9446 92.9385 90.9512C92.8871 90.9579 92.8389 90.9799 92.8002 91.0144C92.7615 91.0489 92.7341 91.0943 92.7216 91.1446C92.5536 92.0518 92.3912 92.9646 92.2288 93.8718C91.7528 93.9166 91.3216 93.9502 90.924 93.9782C90.924 91.1446 91.0248 88.2494 91.1928 85.3766C92.128 85.3038 93.6456 85.1302 94.1328 85.0406ZM92.0104 77.0606C92.0072 77.0244 92.0183 76.9883 92.0413 76.96C92.0643 76.9318 92.0974 76.9137 92.1336 76.9094C96.0536 76.439 95.8968 76.3998 95.9528 76.5566C96.077 76.9701 96.1189 77.4039 96.076 77.8334C96.076 77.9846 96.2384 77.895 92.2904 78.3934C92.0944 78.4438 92.128 78.2534 92.0104 77.0606ZM95.8856 93.8046C95.1912 90.1478 95.0176 88.731 94.5584 84.9678C95.1855 84.9129 95.8084 84.8175 96.4232 84.6822C97.0916 87.5615 97.4316 90.5072 97.4368 93.463C96.8992 93.5694 96.3616 93.6926 95.8856 93.8046ZM97.8456 77.223C97.7896 84.867 97.9856 85.4158 97.3416 86.7038C97.2128 85.9534 97.0672 85.1974 96.8992 84.4638C97.0757 84.3389 97.234 84.19 97.3696 84.0214C97.532 83.8254 96.9328 76.7414 95.964 71.6174C96.4344 71.4382 97.3696 71.0574 97.8736 70.7998C97.8792 72.9334 97.8624 75.1118 97.8456 77.223ZM98.9264 68.7334C98.8015 69.2711 98.4824 69.7437 98.0304 70.0606C95.6392 71.6062 89.944 72.3678 89.888 72.3734C89.8613 72.3786 89.8365 72.3906 89.8159 72.4083C89.7953 72.426 89.7796 72.4487 89.7704 72.4742C89.3831 73.0174 88.9298 73.5102 88.4208 73.9414C88.1233 74.2858 87.7353 74.5399 87.3008 74.675C86.9592 74.7254 86.1304 74.311 87.0488 74.227C87.2928 74.2349 87.5329 74.1647 87.7344 74.0267C87.9358 73.8888 88.0879 73.6902 88.1688 73.4598C88.1817 73.4238 88.1815 73.3844 88.1681 73.3486C88.1548 73.3127 88.1293 73.2827 88.096 73.2638C87.7712 73.1126 88.04 73.8798 86.4888 73.8238C86.1136 73.8238 85.632 73.3422 86.248 73.387C87.2448 73.4654 87.928 72.7822 87.6816 72.5974C87.6556 72.576 87.6229 72.5644 87.5892 72.5644C87.5555 72.5644 87.5228 72.576 87.4968 72.5974C87.0656 73.0566 86.4216 72.9446 85.772 72.8662C85.4528 72.827 85.212 72.4854 85.632 72.4182C86.192 72.3286 87.564 72.3342 87.7208 72.1774C89.4008 70.3126 91.82 69.075 93.7912 68.0838C95.6108 67.1894 97.3544 66.1481 99.0048 64.9702C99.2057 66.2191 99.1791 67.494 98.9264 68.7334ZM98.7976 62.383C99.1071 62.8478 99.2745 63.3927 99.2792 63.951C97.8045 65.0533 96.2655 66.0668 94.6704 66.9862C94.6256 66.667 94.5472 66.079 94.536 65.8662C96.6584 64.6622 98.1592 63.4246 98.7976 62.383ZM31.48 23.5694C49.8872 23.995 93.7912 25.4566 93.7912 25.4566C94.592 25.4566 94.9952 25.4958 95.1912 25.4846H95.2416C96.804 25.703 97.6944 27.1646 97.9856 28.3406C98.1293 29.048 98.1894 29.7697 98.1648 30.491C88.46 30.3286 55.4816 29.5782 28.7696 28.4302C28.7696 25.955 29.0048 23.8998 31.48 23.5694ZM28.7696 89.6102C27.3472 89.6102 22.8728 89.6102 21.4504 89.6774C21.4504 87.9302 21.3496 75.8566 21.3328 74.1038C22.3912 74.143 27.252 74.0198 28.3664 73.9918C28.3776 88.0926 28.2096 88.115 28.7696 89.6102ZM28.3552 68.8902C26.804 68.8902 22.0888 68.8902 21.0192 68.9406C21.0528 68.3022 21.0752 66.7006 21.092 65.9334C22.1336 65.9334 26.7592 65.8046 28.372 65.715C28.3496 66.751 28.3496 67.815 28.3496 68.851L28.3552 68.8902ZM28.3552 65.211C27.5824 65.211 21.1928 65.407 20.868 65.435C20.5432 65.463 20.6048 65.7654 20.588 66.3254C20.5264 68.179 20.5096 68.9294 20.5432 69.2374C20.5712 69.4446 20.616 69.4502 20.6944 69.4558C21.4224 69.5062 27.6216 69.4054 28.3608 69.3942V73.4878C20.6496 73.5774 20.8624 73.5662 20.8624 73.8742C20.8624 74.0198 20.8624 88.7758 20.924 90.0582C20.924 90.3214 21.5848 90.2542 29.0272 90.1926C29.9176 91.8726 31.3456 92.007 33.244 92.1414C35.1424 92.2758 76.9688 91.055 78.9008 90.9878C79.5862 91.7497 80.4112 92.3732 81.3312 92.8246C81.6056 95.9774 82.0032 101.785 82.2496 105.492C78.7272 105.727 20.0896 110.067 18.0064 110.218C18.0064 108.824 17.7544 62.6518 17.7544 62.6518C18.6728 62.6518 27.2744 62.5118 28.344 62.4782V65.1718L28.3552 65.211ZM15.3296 113.763C14.6856 113.097 14.96 115.124 14.96 61.683C14.96 60.003 16.08 59.5662 17.3848 59.4934C19.0648 59.3982 22.1448 59.5662 28.344 59.387V61.9238C27.056 61.9238 17.4912 62.0806 17.4912 62.0806C17.4542 62.0819 17.4179 62.0904 17.3842 62.1058C17.3506 62.1212 17.3203 62.1431 17.2952 62.1702C17.1832 62.2934 17.4744 110.532 17.4968 110.588C17.5077 110.613 17.5257 110.634 17.5486 110.649C17.5715 110.664 17.5983 110.672 17.6256 110.672C17.6256 110.672 76.6104 106.405 82.2832 105.94C82.2832 106.298 82.44 108.32 82.4624 108.594C74.8912 109.21 15.8896 113.69 15.3296 113.763ZM46.04 120.209L16.6792 114.116C27.42 113.416 73.9112 109.854 82.3336 109.126C82.2367 109.441 82.1111 109.747 81.9584 110.039C76.6328 110.448 28.8816 114.457 28.8816 114.457C28.5288 114.491 28.5568 115.017 28.8816 115.017L44.8192 117.918C44.864 117.918 46.0232 117.823 95.32 113.438C95.32 113.511 95.3536 113.561 95.4096 113.601C95.9024 113.909 96.6864 113.601 96.6864 113.371C96.6732 113.074 96.7072 112.778 96.7872 112.492C96.7872 112.492 96.9496 112.565 97.2464 113.444C97.2521 113.463 97.2621 113.48 97.2757 113.495C97.2893 113.51 97.3061 113.521 97.3248 113.528C98.3556 113.896 99.416 114.175 100.494 114.362C100.698 114.365 100.899 114.319 101.08 114.228C101.262 114.136 101.418 114.001 101.536 113.836C101.605 113.677 101.625 113.501 101.594 113.331C101.563 113.16 101.482 113.003 101.362 112.878C100.355 112.476 99.4609 111.834 98.7584 111.008C106.313 112.128 114.55 113.248 117.658 113.701L46.04 120.209Z" fill="#121212"/>
</svg>
