<svg width="133" height="147" viewBox="0 0 133 147" fill="none" xmlns="http://www.w3.org/2000/svg">
<path d="M73.802 113.835L63.3605 110.203L60.1826 112.019L57.0048 113.835L53.3729 115.651L50.1951 116.559H48.8331L47.4712 117.013V122.46V126.546L68.3543 127L90.5993 125.638V123.368L90.1453 116.105L86.5135 116.559L81.9737 116.105L73.802 113.835Z" fill="#FFD400"/>
<path d="M100.59 75.1289C101.19 75.4248 101.848 75.5863 102.518 75.6021C102.555 75.5978 102.592 75.5861 102.625 75.5676C102.658 75.5492 102.687 75.5243 102.71 75.4945C102.733 75.4647 102.75 75.4306 102.76 75.3941C102.77 75.3576 102.773 75.3195 102.768 75.282C102.713 74.8435 102.218 75.2194 100.847 74.586L100.917 74.071C100.952 73.9248 100.778 73.6882 100.59 73.7578C100.402 73.8274 100.353 74.0501 100.298 74.4538C100.242 74.8574 100.214 74.941 100.59 75.1289ZM27.9435 77.1055C28.781 76.8777 29.5675 76.4927 30.2611 75.971C30.5325 75.7622 30.4421 75.275 30.3655 74.9966C30.3437 74.9244 30.296 74.8628 30.2316 74.8236C30.1671 74.7843 30.0905 74.7703 30.0163 74.7841C29.9422 74.7979 29.8757 74.8386 29.8297 74.8983C29.7837 74.9581 29.7613 75.0328 29.767 75.108C29.7802 75.2588 29.8082 75.408 29.8505 75.5534C28.201 76.7575 27.5607 76.4582 27.6582 76.9454C27.6798 77.001 27.7201 77.0474 27.7721 77.0766C27.8242 77.1058 27.8848 77.116 27.9435 77.1055ZM26.0504 75.8179C27.4424 75.8179 26.9691 74.9966 26.5933 75.1219L26.0574 75.2054C25.5981 73.027 25.9669 72.5677 25.5702 72.5538C25.5104 72.5499 25.4514 72.5696 25.4059 72.6086C25.3604 72.6476 25.3319 72.7028 25.3266 72.7625C25.2775 73.6231 25.3406 74.4865 25.5145 75.3307C25.5911 75.7065 25.7303 75.8179 26.0504 75.8179ZM66.466 74.6208C66.8627 74.6208 68.9506 74.1684 69.3056 74.1128C69.8275 74.0223 70.447 73.8622 70.4887 73.2985C70.4887 72.9505 70.2382 72.5468 69.9528 72.7556C69.8935 72.7973 69.8496 72.8575 69.8282 72.9268C69.8068 72.996 69.809 73.0705 69.8345 73.1384C69.9389 73.4098 69.7162 73.3889 66.3546 74.1197C66.2928 74.1388 66.2405 74.1805 66.208 74.2364C66.1755 74.2923 66.1653 74.3585 66.1793 74.4216C66.1933 74.4847 66.2306 74.5403 66.2837 74.5772C66.3368 74.6141 66.4019 74.6297 66.466 74.6208ZM20.6914 57.5832C20.8445 57.7572 21.2203 57.5832 21.109 57.3188C20.413 55.6206 19.1324 53.7275 18.3251 51.8623C18.1998 51.563 17.9492 51.0549 17.7056 51.0271C17.6751 51.0228 17.644 51.0271 17.6158 51.0393C17.5875 51.0516 17.5632 51.0715 17.5456 51.0967C17.3925 51.3055 17.6152 51.8832 17.7196 52.1268C18.0397 52.8158 19.5917 56.3235 20.6914 57.5832ZM43.2551 54.6462C43.2681 54.7005 43.2951 54.7505 43.3335 54.7912C43.3718 54.8318 43.4201 54.8617 43.4736 54.8779C43.5271 54.8941 43.5839 54.896 43.6384 54.8834C43.6928 54.8709 43.743 54.8443 43.784 54.8063C44.3586 54.2831 44.8808 53.705 45.343 53.0802C47.4309 59.7617 47.4309 59.9983 47.758 59.9983C47.8049 59.997 47.851 59.9856 47.8931 59.9649C47.9352 59.9442 47.9724 59.9148 48.0021 59.8784C48.0318 59.8421 48.0533 59.7999 48.0653 59.7545C48.0772 59.7091 48.0792 59.6617 48.0712 59.6155C47.2917 57.1517 46.4705 54.7436 45.7606 52.2868C45.7447 52.2258 45.7111 52.1708 45.664 52.1287C45.6169 52.0867 45.5585 52.0595 45.496 52.0506C45.4336 52.0417 45.3699 52.0514 45.3129 52.0786C45.256 52.1058 45.2083 52.1492 45.176 52.2033C44.7763 52.832 44.3096 53.4154 43.784 53.9433C43.3664 52.0363 42.392 47.6794 42.392 47.6794C42.3745 47.6093 42.3298 47.549 42.2678 47.5118C42.2058 47.4746 42.1316 47.4636 42.0614 47.4811C41.9913 47.4986 41.931 47.5433 41.8938 47.6053C41.8566 47.6673 41.8456 47.7415 41.8631 47.8117C42.0997 48.8905 43.1089 54.166 43.2551 54.6462ZM7.00148 90.8511C4.76042 89.7793 2.76296 88.6796 0.466229 87.4686C0.0208024 87.232 -0.285429 88.0463 0.410551 88.2342C2.41578 89.4858 4.55397 90.5106 6.78572 91.2895C7.06412 91.3661 7.25899 91.0042 7.00148 90.8511ZM8.78318 74.7809C8.83103 74.8232 8.89067 74.8499 8.95412 74.8574C9.01756 74.8648 9.08177 74.8527 9.13813 74.8226C9.59748 74.5999 9.0059 74.0501 9.22861 70.7442C14.873 77.5578 14.5598 77.3839 14.7964 77.3839C14.8454 77.3869 14.8943 77.3759 14.9372 77.3521C14.9802 77.3283 15.0154 77.2928 15.0388 77.2496C15.0623 77.2065 15.0728 77.1575 15.0693 77.1085C15.0659 77.0596 15.0484 77.0126 15.0192 76.9732C14.1353 75.8597 10.2656 71.0504 9.23557 69.742C9.19684 69.6929 9.14484 69.656 9.08576 69.6355C9.02667 69.6151 8.96296 69.612 8.90217 69.6267C8.84139 69.6413 8.78608 69.6731 8.74278 69.7182C8.69949 69.7633 8.67004 69.8199 8.65791 69.8812C8.51642 71.1523 8.49312 72.4337 8.58831 73.7091C6.50037 71.8369 4.50291 69.8534 2.39409 68.0299C2.33025 67.9787 2.25039 67.9516 2.16855 67.9534C2.08672 67.9552 2.00814 67.9858 1.94664 68.0398C1.88514 68.0939 1.84465 68.1678 1.83229 68.2488C1.81993 68.3297 1.83649 68.4124 1.87907 68.4823C2.70032 69.7559 7.33555 73.4655 8.78318 74.7809ZM63.682 48.967C63.682 49.0353 63.7092 49.1008 63.7575 49.1491C63.8058 49.1974 63.8713 49.2245 63.9396 49.2245C64.0079 49.2245 64.0734 49.1974 64.1216 49.1491C64.1699 49.1008 64.1971 49.0353 64.1971 48.967C64.3164 46.4106 64.2092 43.8487 63.8769 41.3112C63.8698 41.2443 63.8433 41.1808 63.8008 41.1286C63.7583 41.0764 63.7016 41.0376 63.6375 41.017C63.5734 40.9963 63.5047 40.9948 63.4397 41.0124C63.3748 41.03 63.3163 41.0662 63.2714 41.1164C62.9582 41.52 63.7099 42.7937 63.682 48.967ZM82.5153 61.0562C87.8117 52.1198 87.5263 52.5652 87.4846 52.4052C87.3662 52.0015 87.0322 52.1964 84.3526 53.0037C85.0486 50.533 85.9186 47.8952 86.4963 45.3966C86.5083 45.3158 86.4896 45.2335 86.4439 45.1658C86.3983 45.098 86.329 45.0498 86.2496 45.0306C86.1702 45.0114 86.0865 45.0226 86.0149 45.062C85.9434 45.1014 85.8892 45.1662 85.8629 45.2435C85.0765 48.0274 84.297 50.7487 83.5453 53.4213C83.5332 53.4765 83.5352 53.5339 83.5514 53.5882C83.5675 53.6424 83.5971 53.6916 83.6374 53.7313C83.6778 53.7709 83.7275 53.7997 83.782 53.8148C83.8365 53.83 83.8939 53.8311 83.949 53.818C83.949 53.818 85.7933 53.2473 86.538 53.0037L82.0907 60.8195C82.0644 60.8754 82.0603 60.9391 82.0792 60.9979C82.0981 61.0566 82.1386 61.106 82.1925 61.1361C82.2464 61.1661 82.3097 61.1746 82.3696 61.1597C82.4295 61.1449 82.4816 61.1079 82.5153 61.0562ZM132.278 81.4693C131.916 81.2953 125.221 85.4572 125.151 85.5059C124.907 85.6799 125.151 86.1114 125.402 85.9792C125.805 85.7983 132.201 82.2418 132.417 81.859C132.433 81.8243 132.443 81.7866 132.445 81.7482C132.447 81.7099 132.441 81.6715 132.428 81.6353C132.415 81.599 132.395 81.5658 132.37 81.5373C132.344 81.5088 132.313 81.4857 132.278 81.4693ZM114.558 73.5142C114.558 73.5142 121.267 68.3988 122.52 67.4244C122.792 67.2086 122.52 66.7284 122.2 66.7632C120.937 66.7933 119.679 66.9354 118.442 67.1878C120.238 65.2712 121.829 63.1718 123.188 60.9239C123.418 60.5481 122.861 60.1584 122.638 60.5412C121.105 63.0424 119.281 65.353 117.203 67.4244C116.98 67.6401 117.119 68.1691 117.481 68.1204C118.71 67.8076 119.962 67.598 121.226 67.494C121.226 67.494 115.908 71.7743 114.266 73.1314C114.238 73.1758 114.225 73.2275 114.227 73.2798C114.23 73.332 114.248 73.3822 114.28 73.4237C114.312 73.4653 114.355 73.4962 114.405 73.5124C114.455 73.5285 114.508 73.5292 114.558 73.5142ZM104.961 53.3656C109.234 46.0021 109.979 44.9303 109.262 44.7494C108.956 44.6728 108.969 44.7007 104.48 53.1011C104.459 53.1631 104.461 53.2304 104.484 53.2914C104.508 53.3524 104.552 53.4031 104.61 53.4347C104.667 53.4662 104.733 53.4766 104.798 53.464C104.862 53.4513 104.92 53.4165 104.961 53.3656Z" fill="black"/>
<path d="M124.684 98.7924C121.844 89.8351 114.669 82.9449 104.981 79.8965C104.974 79.7192 104.955 79.5424 104.925 79.3676C107.57 78.2123 108.161 74.2382 107.577 70.7792C108.085 69.951 109.435 65.6916 108.44 66.2762L106.623 67.348C106.366 66.652 106.066 66.0048 105.746 65.3645C105.816 64.2509 104.8 62.2604 103.011 60.9589C101.368 59.7618 98.5427 58.69 94.4225 60.4021C91.2071 61.7384 87.581 64.6894 87.0312 68.9766C86.3352 74.5444 88.1796 77.2448 84.7345 82.416C80.9278 80.6923 76.8701 79.588 72.7149 79.1449C72.7151 78.8329 72.6942 78.5214 72.6523 78.2123C74.427 77.3144 74.8029 74.3913 74.8794 73.4378C76.9674 71.6283 77.211 68.0231 75.5754 67.9396C75.9957 65.3568 76.1566 62.7385 76.0556 60.1237C75.9651 58.5021 75.2692 58.1402 74.949 58.0706C74.7231 58.0279 74.4897 58.0496 74.2755 58.1333C74.0614 58.217 73.8751 58.3593 73.738 58.5439C73.216 57.479 72.2138 57.6113 71.6501 58.4186C71.5947 58.1321 71.4507 57.8702 71.2384 57.6699C71.0261 57.4697 70.7562 57.3413 70.4669 57.3028C70.1776 57.2643 69.8835 57.3178 69.6262 57.4556C69.369 57.5933 69.1615 57.8085 69.0332 58.0706C68.8983 57.7833 68.681 57.5426 68.4089 57.379C68.1368 57.2155 67.8223 57.1366 67.5052 57.1522C67.1882 57.1679 66.883 57.2775 66.6284 57.467C66.3737 57.6566 66.1812 57.9175 66.0753 58.2168C65.3793 56.7065 63.6046 57.0545 63.2078 58.5856C62.6859 57.4094 61.2591 57.4164 60.765 58.7805C59.4635 57.8201 58.4404 58.7805 58.2316 60.3604C58.1051 63.0468 58.2169 65.7392 58.5657 68.4059C56.2063 67.877 58.0437 73.403 59.4496 73.5353C59.6931 75.6232 60.5562 77.9199 62.2335 78.4767C62.2335 78.7551 62.1917 79.0405 62.1917 79.3189C57.6917 80.0375 53.3611 81.573 49.4135 83.8497C47.2421 82.3185 42.412 80.2376 37.7698 80.6203C36.9287 78.8433 36.2958 76.9749 35.8837 75.0525C35.5775 73.3752 36.3639 72.714 36.357 71.2664C37.2581 69.4504 37.4826 67.3728 36.9903 65.4062C34.798 58.4464 21.5535 61.0912 21.9293 68.733C21.978 69.603 22.0546 70.473 22.1311 71.1481C20.4956 71.6422 20.7392 71.7605 21.1916 73.751C21.4351 74.8368 21.7135 75.7346 22.8549 75.4979C23.3769 77.7599 24.6923 81.372 27.7964 81.372C27.9843 81.372 27.7964 81.2537 27.9704 82.4229C20.1824 85.8124 10.4039 92.1666 7.87051 103.302C7.25805 105.989 6.88918 109.803 8.64305 112.684C10.5709 115.893 13.9812 116.094 16.4311 115.934C15.8576 119.085 15.673 122.294 15.8812 125.49C15.8825 125.535 15.896 125.578 15.9203 125.616C15.9446 125.653 15.9787 125.683 16.0189 125.703C16.0592 125.722 16.104 125.73 16.1484 125.726C16.1929 125.721 16.2353 125.705 16.271 125.678C16.6468 125.455 15.9091 125.219 17.0853 115.886C23.6414 115.28 29.8913 112.461 35.6679 109.497C36.6214 110.193 37.568 110.888 38.5493 111.515C39.3561 113.146 40.5925 114.527 42.1254 115.508C43.6583 116.489 45.4297 117.033 47.249 117.083C47.0751 120.013 47.0751 122.95 47.249 125.88C47.2516 125.915 47.2776 125.981 47.2776 125.981C47.2938 126.013 47.3162 126.041 47.3435 126.064C47.3708 126.086 47.4023 126.103 47.4363 126.114C47.4703 126.124 47.506 126.127 47.5413 126.123C48.1399 126.068 47.3673 125.769 47.8406 117.076C53.6312 117.076 58.3847 113.297 63.1522 110.408C68.7618 112.976 82.5143 117.758 89.7873 116.38C90.1214 119.345 90.0726 122.156 90.358 125.024C90.3672 125.075 90.3942 125.122 90.4343 125.155C90.4744 125.189 90.525 125.207 90.5772 125.207C90.6295 125.207 90.6801 125.189 90.7202 125.155C90.7603 125.122 90.7873 125.075 90.7965 125.024C90.9792 122.094 90.8602 119.153 90.4415 116.248C95.4874 115.05 98.5845 111.494 99.4057 105.968C99.7398 105.745 100.102 105.495 100.478 105.209C104.786 106.928 113.701 111.111 118.058 111.264C117.856 114.501 117.571 117.918 117.522 121.273C117.532 121.329 117.561 121.381 117.605 121.418C117.649 121.455 117.705 121.475 117.762 121.475C117.82 121.475 117.875 121.455 117.919 121.418C117.963 121.381 117.993 121.329 118.002 121.273C118.1 120.347 118.733 112.447 118.698 111.243C125.672 111.083 126.772 105.376 124.684 98.7924ZM75.0186 69.0462C75.2065 68.7957 75.3109 68.5033 75.5824 68.5869C76.5567 68.8722 75.7772 71.2942 74.9629 72.373C75.0325 71.2664 75.0534 70.1459 75.0186 69.0462ZM58.4056 69.0462C58.6283 69.0462 58.6005 69.1436 59.1016 69.2411L59.38 72.6792C58.3499 71.7257 57.6052 69.0601 58.4056 69.0601V69.0462ZM106.762 68.3502C106.792 68.2524 106.859 68.1703 106.949 68.122C107.039 68.0737 107.145 68.0632 107.242 68.0927C107.34 68.1222 107.422 68.1894 107.471 68.2795C107.519 68.3696 107.53 68.4751 107.5 68.5729C107.256 69.436 107.068 70.0623 106.908 70.6609C106.867 70.7354 106.809 70.7993 106.739 70.8476C106.669 70.8959 106.589 70.9273 106.505 70.9393C105.892 70.9602 106.546 68.9766 106.762 68.3363V68.3502ZM95.0489 71.1341C95.4456 70.8349 95.9258 71.2177 96.0024 71.2246C96.6566 71.6422 97.3944 71.0367 97.2065 70.8627L97.0673 70.7514C96.5522 70.3477 95.4943 69.5125 95.7171 68.9418C95.8841 68.5103 96.5662 68.5729 97.0116 68.5521C97.0274 68.5516 97.0429 68.5475 97.0569 68.5402C97.0709 68.5328 97.0831 68.5224 97.0925 68.5096C97.1018 68.4969 97.1082 68.4822 97.1111 68.4666C97.1139 68.4511 97.1132 68.4351 97.109 68.4198C97.0394 68.1971 96.9559 67.9744 96.8724 67.7238C99.5026 66.4194 102.387 65.7067 105.322 65.6359C105.621 66.3319 105.878 66.9931 106.108 67.6473C105.238 68.1414 104.25 68.6843 104.02 69.6726C103.813 69.6469 103.603 69.6679 103.406 69.7342C103.208 69.8005 103.028 69.9102 102.879 70.0554C101.786 68.74 97.2621 68.8513 96.3504 68.8861C95.1742 68.9348 98.2783 71.3081 99.1343 71.9763C102.009 74.2104 103.888 72.6723 103.171 70.633C103.271 70.5098 103.404 70.4162 103.553 70.3623C103.703 70.3083 103.864 70.2961 104.02 70.3268C104.046 70.459 104.088 70.5876 104.145 70.7096C104.111 70.6924 104.073 70.6835 104.034 70.6835C103.995 70.6835 103.957 70.6924 103.923 70.7096C103.637 70.8906 103.923 71.1341 104.577 72.2964C104.496 72.3785 104.41 72.4552 104.319 72.5261C104.055 72.721 104.285 73.5701 105.168 72.5261C105.301 72.366 105.05 71.8997 104.772 71.4891C105.108 71.7181 105.51 71.8287 105.916 71.8035C106.322 71.7783 106.708 71.6187 107.013 71.3499C107.317 73.2184 107.145 75.1335 106.512 76.9177C105.816 78.6229 104.069 78.7203 104.424 79.3676C104.516 81.6622 104.329 83.9595 103.867 86.2091C102.078 85.8193 98.5567 81.4555 97.1508 79.4302C97.2964 77.7379 97.0781 76.034 96.5105 74.4331C96.0442 73.6258 95.1185 73.2569 94.8749 72.3451C94.7799 72.1418 94.7457 71.9153 94.7766 71.693C94.8075 71.4707 94.902 71.2621 95.0489 71.0924V71.1341ZM105.6 69.9719C105.523 70.2015 105.475 70.5217 105.224 70.5217C104.974 70.5217 104.848 70.2294 104.876 69.9788C104.904 69.7283 104.974 69.1506 105.238 68.9975C105.289 68.9723 105.345 68.9592 105.402 68.9592C105.458 68.9592 105.514 68.9723 105.565 68.9975C105.892 69.088 105.718 69.5751 105.6 69.9301V69.9719ZM101.849 71.5726C101.772 71.7605 101.696 72.1016 101.473 72.206C101.434 72.225 101.391 72.2349 101.348 72.2349C101.304 72.2349 101.261 72.225 101.222 72.206C100.805 72.0528 101.264 70.5008 101.64 70.2015C101.673 70.1681 101.713 70.1435 101.758 70.13C101.803 70.1165 101.85 70.1145 101.896 70.1243C101.942 70.134 101.985 70.1551 102.02 70.1856C102.056 70.2161 102.083 70.2551 102.099 70.299C102.245 70.6191 101.89 71.4265 101.849 71.5309V71.5726ZM100.324 70.8975C100.234 71.0785 100.192 71.2455 99.9556 71.2455C99.8999 71.2494 99.8441 71.2395 99.7932 71.2168C99.7422 71.1941 99.6976 71.1592 99.6632 71.1152C99.6289 71.0713 99.6058 71.0195 99.5961 70.9646C99.5864 70.9096 99.5904 70.8532 99.6076 70.8001C99.6841 70.5704 99.7677 70.0484 100.046 69.9092C100.09 69.8888 100.138 69.8777 100.187 69.8766C100.235 69.8754 100.283 69.8843 100.328 69.9025C100.373 69.9208 100.414 69.9481 100.448 69.9828C100.482 70.0175 100.509 70.0587 100.526 70.1041C100.624 70.3338 100.464 70.647 100.324 70.8975ZM96.8445 79.82C98.8211 83.2303 104.027 88.1717 104.431 86.5153C104.886 84.549 105.096 82.5339 105.057 80.5159C114.592 83.8845 121.065 90.0578 123.883 98.3887C121.843 97.4149 119.601 96.9379 117.341 96.9967C117.244 94.707 114.105 90.2805 112.901 88.9512C112.657 88.6798 112.205 89.0278 112.469 89.2992C114.275 91.3434 115.656 93.7256 116.534 96.3077C113.123 93.7396 106.254 90.1553 96.8376 93.1062C94.3946 88.9363 90.8274 85.538 86.544 83.2999C89.6263 81.2841 93.1713 80.0865 96.8445 79.82ZM60.5492 64.1187C64.7345 62.9763 69.1321 62.8498 73.3761 63.7498C73.3047 64.9292 73.342 66.1128 73.4875 67.2854H73.3622C72.7845 64.6267 69.0819 63.8055 67.8361 66.5894C67.1997 66.3736 66.5099 66.3736 65.8734 66.5894C64.6694 64.0839 61.1825 64.8912 60.5422 67.3689H60.41C60.5563 66.2921 60.6029 65.2041 60.5492 64.1187ZM70.0145 69.8466C70.1398 69.4916 71.2673 66.8608 71.9981 66.7843C72.0589 66.7835 72.119 66.7972 72.1735 66.8243C72.2279 66.8514 72.2751 66.8911 72.3112 66.9401C72.3472 66.9891 72.3711 67.046 72.3808 67.106C72.3905 67.166 72.3857 67.2275 72.3669 67.2854C71.7457 68.1704 71.1919 69.101 70.7105 70.0693C70.5365 70.5008 69.8544 70.3338 70.0145 69.8466ZM69.0054 68.8722C68.9218 69.081 68.546 69.2063 68.4138 68.9627C68.2815 68.7191 68.6017 67.7934 69.5065 66.4363C69.7361 66.0953 69.9519 65.9282 70.1398 65.9561C70.201 65.9735 70.2569 66.0057 70.3028 66.0498C70.3486 66.0938 70.383 66.1484 70.4029 66.2088C70.4228 66.2692 70.4277 66.3336 70.417 66.3963C70.4063 66.459 70.3804 66.5181 70.3416 66.5685C69.812 67.2844 69.3638 68.057 69.0054 68.8722ZM62.9503 70.0275C63.2496 69.3733 63.5837 68.7121 63.9038 68.0649C63.938 68.0024 63.9883 67.9504 64.0496 67.9141C64.1108 67.8778 64.1806 67.8586 64.2518 67.8586C64.323 67.8586 64.3928 67.8778 64.4541 67.9141C64.5153 67.9504 64.5656 68.0024 64.5998 68.0649C64.6435 68.1309 64.6668 68.2084 64.6668 68.2876C64.6668 68.3668 64.6435 68.4442 64.5998 68.5103C64.2936 69.1158 63.9804 69.7491 63.6463 70.3616C63.3818 70.7096 62.7415 70.4451 62.9503 70.0275ZM62.1082 69.1506L62.0664 69.1993C61.8507 69.5125 61.3078 69.3107 61.454 68.914C61.8558 67.8446 62.369 66.8206 62.9851 65.8586C63.2844 65.4967 63.8899 65.8099 63.6811 66.2345C63.187 67.2227 62.5815 68.1484 62.1082 69.1506ZM59.6235 69.2132C60.069 69.0253 60.1942 68.5173 60.3195 68.0788L60.4657 68.037C60.4292 68.5199 60.4885 69.0052 60.6402 69.465C60.7919 69.9249 61.033 70.3502 61.3496 70.7166C61.725 71.0852 62.1954 71.3423 62.7083 71.4592C63.2213 71.5761 63.7567 71.5482 64.2547 71.3785C64.7527 71.2089 65.1938 70.9043 65.5288 70.4986C65.8638 70.0929 66.0795 69.6021 66.1518 69.081C66.0799 69.7513 66.0497 70.4253 66.0614 71.0993C66.0614 71.5169 65.9639 72.0389 66.4789 72.0737H67.1749C67.5368 72.0737 67.6343 71.4473 67.2167 71.4404H66.7017C66.6611 70.2003 66.7286 68.9591 66.9035 67.7308C66.9522 67.3898 66.4581 67.3411 66.3885 67.6612C66.0822 69.1576 66.3885 68.3015 66.117 67.1949C66.603 67.0207 67.1344 67.0207 67.6204 67.1949C67.4671 67.7529 67.4369 68.3375 67.5318 68.9083C67.6268 69.4791 67.8446 70.0225 68.1702 70.5008C68.4182 70.8221 68.7324 71.0863 69.0914 71.2756C69.4505 71.4649 69.846 71.5748 70.2512 71.5979C70.6565 71.621 71.0619 71.5568 71.4402 71.4095C71.8184 71.2623 72.1606 71.0354 72.4435 70.7444C73.1272 69.9814 73.4911 68.9845 73.4596 67.9605H73.5919C73.6754 68.566 73.8006 69.4012 74.4409 69.3524C74.3713 71.7327 74.5802 75.8111 72.694 77.3005C72.4505 77.4954 72.1721 77.7181 72.1373 77.9408C72.0502 78.6783 72.0502 79.4235 72.1373 80.161C72.3391 82.0889 68.9636 85.9028 67.2167 87.5314C63.8481 82.9519 62.8807 82.4995 62.8877 78.4837C62.8877 78.08 62.839 78.0174 62.5606 77.8782C59.7419 76.5141 59.9994 72.5818 59.6235 69.2132ZM62.2265 79.9313C62.3031 82.068 63.9804 84.9563 66.9383 88.0673C67.5368 88.8468 72.8263 82.3533 72.7219 80.9475V79.7713C86.9686 81.4486 97.1786 89.6472 98.8072 100.699C92.8914 99.5371 85.4165 100.901 84.1499 101.145C83.6066 97.6835 82.583 94.3149 81.1084 91.1366C81.0835 91.0748 81.0351 91.0254 80.9737 90.9993C80.9124 90.9731 80.8432 90.9725 80.7813 90.9974C80.7195 91.0223 80.6701 91.0708 80.644 91.1321C80.6179 91.1935 80.6172 91.2627 80.6421 91.3245C81.9218 94.4615 82.8553 97.7287 83.4261 101.068C79.7652 97.2125 74.1974 95.5004 66.4372 95.8484C61.7663 96.0649 57.1265 96.7244 52.5802 97.818C52.9439 95.6956 53.8101 93.691 55.1066 91.9718C55.1351 91.9199 55.1437 91.8595 55.1308 91.8018C55.118 91.7441 55.0846 91.6931 55.0369 91.6581C54.9892 91.6232 54.9305 91.6068 54.8716 91.612C54.8127 91.6172 54.7577 91.6437 54.7169 91.6864C53.2545 93.4934 52.2943 95.6539 51.933 97.9502C46.887 99.1607 41.9867 100.913 37.3174 103.177C37.9577 89.5428 50.5619 82.235 62.2265 79.9313ZM32.0419 67.0418C32.0347 67.7026 32.0743 68.3631 32.1602 69.0184C29.6547 69.081 25.6737 70.0554 22.7088 70.9741C22.6322 70.3616 22.4582 69.248 22.4513 68.5869C25.4345 67.165 28.763 66.6288 32.0419 67.0418ZM29.8287 70.7792C28.4367 73.1455 28.736 73.5631 28.2697 73.5631C28.2173 73.5663 28.165 73.5569 28.1171 73.5356C28.0692 73.5143 28.0271 73.4819 27.9943 73.441C27.9616 73.4 27.9392 73.3518 27.9289 73.3004C27.9187 73.249 27.921 73.1959 27.9356 73.1455C28.5689 70.7514 29.1744 70.3059 29.4807 70.2502C29.5474 70.2367 29.6167 70.2434 29.6796 70.2695C29.7425 70.2957 29.7962 70.3401 29.8336 70.397C29.8711 70.4539 29.8906 70.5207 29.8897 70.5889C29.8888 70.657 29.8676 70.7233 29.8287 70.7792ZM27.6781 71.3012C27.4206 71.7257 27.3579 72.3173 26.9821 72.2268C26.6063 72.1364 26.8777 71.2873 27.1004 70.8349C27.3231 70.3825 27.518 70.3755 27.6502 70.4103C27.7248 70.4306 27.791 70.4737 27.8397 70.5337C27.8884 70.5936 27.9171 70.6673 27.9217 70.7444C27.8944 70.9492 27.81 71.1422 27.6781 71.3012ZM22.5 72.6931C22.4234 72.8741 22.4165 73.4309 22.0407 73.4309C21.9675 73.4337 21.8955 73.4119 21.8362 73.369C21.7769 73.3261 21.7337 73.2646 21.7135 73.1942C21.6767 72.7074 21.8316 72.2254 22.145 71.851C22.2097 71.7932 22.291 71.7574 22.3772 71.7486C22.4635 71.7399 22.5503 71.7587 22.6253 71.8023C22.7923 71.9136 22.7575 72.206 22.5 72.6723V72.6931ZM22.7575 74.3148C23.3909 72.0389 23.7528 71.7049 23.9685 71.6561C24.0129 71.6459 24.0592 71.6483 24.1023 71.6631C24.1453 71.6778 24.1834 71.7044 24.2121 71.7396C24.3067 71.8493 24.3542 71.9919 24.3443 72.1364L23.4256 74.5096C23.397 74.5982 23.3344 74.6719 23.2515 74.7143C23.1686 74.7567 23.0723 74.7644 22.9837 74.7358C22.8951 74.7072 22.8215 74.6446 22.7791 74.5617C22.7367 74.4788 22.7289 74.3825 22.7575 74.2939V74.3148ZM23.4535 75.3657C24.7898 74.976 25.2213 75.0873 25.0751 73.0551C25.0264 72.4774 24.915 71.162 25.4997 71.1829C25.9729 71.1829 25.9869 73.3822 26.6898 74.0642C27.3927 74.7463 28.3045 74.2661 29.07 74.0642C31.158 73.4935 30.6986 72.6027 30.5455 69.8396L32.2994 69.7004C33.0858 73.7789 34.1437 70.7235 34.8536 70.2642C35.306 69.9788 35.6958 70.6052 35.7793 71.0854C35.9394 72.1155 35.0833 73.243 35.2643 74.7532C35.6744 76.9392 36.3767 79.0601 37.3522 81.0588C35.828 83.9541 31.4503 86.6267 29.5016 87.6845C28.6803 84.7057 28.6107 80.7943 28.1096 80.8083C25.7989 80.8222 24.2817 79.0753 23.4256 75.3448L23.4535 75.3657ZM28.033 83.0911C28.1583 84.142 28.6733 88.6589 29.425 88.2831C31.3181 87.3922 37.0808 83.6061 37.902 81.1702C39.12 81.4486 42.92 80.7108 48.8219 84.2673C44.4667 86.8687 40.972 90.6926 38.772 95.2638C33.1415 94.5678 26.1748 93.6978 20.3216 96.788C22.1102 92.5703 23.1821 92.1527 22.674 91.8187C22.6477 91.8007 22.618 91.7882 22.5868 91.7819C22.5555 91.7757 22.5233 91.7758 22.4921 91.7823C22.4609 91.7888 22.4314 91.8016 22.4052 91.8198C22.3791 91.838 22.3569 91.8613 22.3399 91.8883C22.159 92.1597 19.6186 96.3564 19.556 97.2125C18.5747 97.811 16.4798 99.3422 15.8534 100.546C13.2948 100.596 10.8015 101.363 8.65697 102.759C10.7727 94.5678 17.4611 87.7681 28.0052 83.0702L28.033 83.0911ZM9.98629 113.485C7.32764 110.701 7.89835 106.044 8.44817 103.49C15.2409 99.029 24.2191 100.936 35.1459 109.169C31.4712 110.742 15.4149 119.115 9.98629 113.485ZM16.5563 100.532C22.0824 94.4147 30.0723 94.8044 38.4867 95.8414C36.3291 100.818 36.1412 106.072 37.9438 110.36C31.68 105.669 24.2817 100.511 16.5563 100.511V100.532ZM47.7919 116.54C40.9365 116.54 37.2548 110.52 37.3522 103.838C47.0959 99.4605 55.6077 97.2195 64.9339 96.5722C73.4527 95.9806 79.1875 97.5326 82.9458 101.444C64.5859 105.557 57.0067 116.519 47.7919 116.519V116.54ZM89.8847 115.774C83.0711 117.312 71.7893 113.29 63.7716 110.081C76.5498 102.537 88.0474 99.6902 98.8977 101.381C99.7537 109.156 96.5522 114.264 89.8847 115.774ZM99.538 105.237C99.8993 101.213 99.0485 97.1722 97.0951 93.6352C104.57 91.7003 110.882 92.8278 116.367 97.0733C109.163 97.6092 101.904 103.233 99.531 105.237H99.538ZM118.469 110.645C114.209 110.645 105.245 106.469 101.118 104.785C105.53 101.444 110.757 97.9015 117.049 97.651C119.507 97.4992 121.958 98.0367 124.127 99.203C125.992 105.495 125.06 110.603 118.462 110.645H118.469Z" fill="black"/>
<path d="M4 122.641C15.0571 127.286 27.4238 126.967 48.5128 126.736C84.8498 128.101 109.241 123.975 128 119" stroke="black" stroke-linecap="round"/>
</svg>
