<svg width="364" height="493" viewBox="0 0 364 493" fill="none" xmlns="http://www.w3.org/2000/svg">
<g clip-path="url(#clip0_2131_5456)">
<path d="M364 311.096C364 380.462 325.151 440.762 268.017 471.436C242.397 485.196 213.113 492.993 181.993 492.993C158.574 492.993 136.188 488.571 115.623 480.516C47.9344 454.006 0 388.152 0 311.096C0 210.635 81.4848 129.186 182 129.186C282.515 129.186 364.007 210.635 364.007 311.096H364Z" fill="#FFD400"/>
<path d="M163.184 165.298C163.184 165.298 190.339 168.423 201.475 161.586C201.862 161.78 205.382 184.433 218.468 183.846C232.142 182.09 265.155 174.278 277.266 198.487C291.134 223.871 316.99 266.542 313.211 301.379C313.018 301.572 319.27 334.961 273.559 318.17C256.371 309.384 254.808 308.796 254.808 308.796C254.808 308.796 258.523 405.445 263.205 415.593C263.205 414.619 139.938 424.767 118.842 416.761C119.036 416.374 119.158 430.722 119.158 430.722L74.8662 430.872C74.8662 430.872 72.1772 354.01 72.4856 338.874C72.7939 323.738 73.8695 307.821 74.6367 290.758C75.4039 273.694 76.7161 253.326 77.175 247.177C77.6339 241.028 77.3758 201.798 110.718 188.26C116.448 185.917 147.445 180.449 149.267 181.23L151.088 182.011C151.088 182.011 156.301 180.972 158.638 177.324C160.976 173.676 163.192 165.277 163.192 165.277L163.184 165.298Z" fill="white"/>
<path d="M195.43 199.161C194.139 198.487 192.591 198.953 191.3 198.279C191.106 198.114 190.827 198.043 190.583 198.143C190.368 198.222 190.21 198.415 190.145 198.63C187.973 202.185 185.363 205.747 184.61 209.932C184.553 210.255 184.696 210.678 185.069 210.742C185.399 210.799 185.556 211.251 185.7 211.538C185.908 211.96 186.094 212.405 186.381 212.785C186.704 213.207 187.098 213.451 187.636 213.494C188.482 213.551 188.912 213.035 189.228 212.326C190.332 209.846 191.544 207.41 192.892 205.052C193.623 203.776 194.648 201.361 195.552 200.2C195.796 199.885 195.832 199.383 195.416 199.168L195.43 199.161Z" fill="black"/>
<path d="M172.385 199.103C173.675 198.43 175.102 198.953 176.393 198.279C176.587 198.114 176.866 198.043 177.11 198.143C177.325 198.222 177.483 198.415 177.547 198.63C179.72 202.185 182.33 205.747 183.083 209.932C183.14 210.255 182.997 210.678 182.624 210.742C182.294 210.799 182.136 211.251 181.993 211.538C181.785 211.96 181.599 212.405 181.312 212.785C180.989 213.207 180.595 213.451 180.057 213.494C179.211 213.551 178.781 213.035 178.465 212.326C177.361 209.846 176.149 207.41 174.801 205.052C174.07 203.776 173.166 201.304 172.263 200.143C172.019 199.827 171.983 199.326 172.399 199.111L172.385 199.103Z" fill="black"/>
<path d="M191.128 215.085C190.676 213.86 189.93 212.799 188.991 211.968C188.783 211.401 188.274 211.093 187.636 210.986C187.629 210.986 187.614 210.986 187.607 210.986C186.46 210.341 185.148 209.982 183.778 209.975C183.764 209.975 183.749 209.975 183.735 209.975C183.721 209.975 183.706 209.975 183.692 209.975C182.337 209.975 181.003 210.341 179.834 210.986C179.361 211.065 178.902 211.215 178.615 211.645C178.551 211.738 178.508 211.839 178.472 211.946C177.776 212.555 177.188 213.293 176.751 214.132C175.561 216.468 175.288 220.274 177.583 222.073C178.221 222.574 178.981 222.847 179.77 223.004C179.884 223.083 180.014 223.155 180.164 223.205C180.838 223.427 181.656 223.327 182.351 223.319C182.688 223.319 183.025 223.298 183.355 223.291C184.366 223.327 185.377 223.341 186.381 223.319C186.847 223.312 187.313 223.248 187.693 223.004C188.166 222.911 188.632 222.775 189.077 222.567C191.787 221.313 192.038 217.572 191.128 215.085Z" fill="black"/>
<path d="M189.753 219.815C189.925 241.372 190.613 262.922 191.818 284.429C192.212 291.524 192.685 298.72 194.664 305.435L194.471 305.865C192.327 314.393 186.985 321.302 184.131 329.543H183.651C180.797 321.309 175.455 314.4 173.311 305.865L173.117 305.435C175.103 298.72 175.569 291.532 175.964 284.429C177.161 262.915 177.85 241.365 178.029 219.815" fill="black"/>
<path d="M188.676 219.815C188.863 242.483 189.494 265.187 190.942 287.819C191.329 293.846 191.931 299.909 193.631 305.722L193.738 304.89C193.358 305.729 193.165 306.624 192.892 307.506C192.555 308.574 192.175 309.627 191.759 310.666C190.906 312.781 189.888 314.83 188.855 316.866C186.783 320.922 184.618 324.942 183.105 329.257L184.144 328.468H183.664C184.008 328.734 184.352 328.992 184.704 329.257C183.191 324.942 181.025 320.929 178.953 316.866C177.942 314.88 176.945 312.874 176.106 310.81C175.683 309.771 175.296 308.724 174.959 307.657C174.665 306.732 174.464 305.779 174.063 304.897L174.17 305.729C175.676 300.569 176.321 295.208 176.716 289.855C177.11 284.501 177.375 278.639 177.641 273.027C178.179 261.726 178.573 250.424 178.824 239.115C178.967 232.686 179.068 226.258 179.118 219.822C179.132 218.439 176.981 218.439 176.967 219.822C176.838 235.359 176.45 250.897 175.791 266.427C175.468 274.066 175.145 281.72 174.601 289.346C174.342 293.008 173.977 296.677 173.274 300.282C173.102 301.156 172.915 302.031 172.7 302.898C172.514 303.672 172.041 304.639 172.055 305.442C172.062 305.922 172.392 306.589 172.528 307.055C172.765 307.893 173.03 308.717 173.324 309.534C175.834 316.565 180.158 322.785 182.631 329.83C182.789 330.282 183.169 330.618 183.671 330.618H184.152C184.653 330.618 185.033 330.282 185.191 329.83C187.378 323.595 191.014 318.019 193.559 311.942C194.204 310.394 194.785 308.81 195.251 307.198C195.395 306.696 195.674 306.087 195.746 305.585C195.854 304.783 195.309 303.686 195.122 302.898C194.248 299.336 193.76 295.695 193.437 292.048C192.763 284.48 192.498 276.861 192.161 269.272C191.824 261.683 191.537 253.806 191.322 246.066C191.078 237.316 190.928 228.566 190.856 219.808C190.842 218.425 188.69 218.425 188.705 219.808L188.676 219.815Z" fill="black"/>
<path d="M248.607 101.186C245.215 106.568 239.177 103.665 238.633 103.386C238.604 103.372 238.589 103.364 238.589 103.364C238.589 103.364 238.532 105.651 237.299 112.91C237.299 112.925 237.299 112.939 237.292 112.961C237.098 114.086 236.826 115.333 236.489 116.644C236.481 116.658 236.481 116.673 236.474 116.694C235.585 120.141 234.287 124.026 233.083 127.294C233.083 127.301 233.083 127.308 233.075 127.308C232.839 127.896 232.595 128.476 232.344 129.057C225.159 145.569 210.553 160.052 191.329 165.04C172.105 170.028 148.55 163.729 137.981 148.292C135.959 145.339 134.46 142.179 133.335 138.904C131.47 132.017 129.836 123.345 131.019 116.873C130.137 105.744 129.857 105.479 129.857 105.479C129.857 105.479 129.692 105.572 129.405 105.715C127.297 106.711 118.478 109.972 117.703 95.0296C119.238 85.7201 129.018 88.7874 129.018 88.7874L129.255 85.154C129.255 85.154 129.262 85.1181 129.255 85.0966L129.649 79.0838L129.721 77.9515H129.757C129.965 77.9515 131.391 78.0017 141.036 78.3027C152.257 78.6538 236.797 77.8153 238.166 77.801H238.181C238.181 77.801 238.188 77.9228 238.202 78.1307C238.296 79.7647 238.704 86.6446 238.647 86.6948C238.726 86.6733 238.805 86.6518 238.883 86.6303C245.717 84.8243 248.255 87.9346 248.198 87.9346C254.149 92.7004 248.607 101.121 248.607 101.186Z" fill="white"/>
<path d="M158.531 92.3923C158.373 91.7831 158.201 91.1166 157.914 90.5218C157.864 89.8409 157.506 89.1888 156.832 88.8663C156.43 88.6728 155.986 88.6656 155.562 88.7516C154.401 88.6298 153.218 89.2175 152.608 90.2638C151.977 91.3459 152.006 92.7291 151.956 93.9403C151.906 95.1299 151.941 96.3124 152.056 97.4949C152.085 97.8174 152.171 98.1256 152.214 98.4481C152.207 100.096 152.357 101.752 152.773 103.379C152.931 103.988 153.103 104.654 153.39 105.249C153.44 105.93 153.799 106.582 154.473 106.905C154.874 107.098 155.319 107.105 155.742 107.019C156.903 107.141 158.086 106.554 158.696 105.507C159.327 104.425 159.298 103.042 159.348 101.831C159.399 100.641 159.363 99.4586 159.248 98.2761C159.219 97.9536 159.133 97.6454 159.09 97.3229C159.097 95.6746 158.947 94.0191 158.531 92.3923Z" fill="black"/>
<path d="M207.705 92.3923C207.547 91.7831 207.375 91.1166 207.088 90.5218C207.038 89.8409 206.679 89.1888 206.005 88.8663C205.604 88.6728 205.159 88.6656 204.736 88.7516C203.575 88.6298 202.392 89.2175 201.782 90.2638C201.151 91.3459 201.18 92.7291 201.13 93.9403C201.079 95.1299 201.115 96.3124 201.23 97.4949C201.259 97.8174 201.345 98.1256 201.388 98.4481C201.381 100.096 201.531 101.752 201.947 103.379C202.105 103.988 202.277 104.654 202.564 105.249C202.614 105.93 202.972 106.582 203.646 106.905C204.048 107.098 204.492 107.105 204.916 107.019C206.077 107.141 207.26 106.554 207.87 105.507C208.501 104.425 208.472 103.042 208.522 101.831C208.572 100.641 208.537 99.4586 208.422 98.2761C208.393 97.9536 208.307 97.6454 208.264 97.3229C208.271 95.6746 208.121 94.0191 207.705 92.3923Z" fill="black"/>
<path d="M226.061 34.6149C230.313 46.6548 233.418 59.0889 235.246 71.7237C237.053 84.2008 237.749 97.1366 235.705 109.628C235.225 112.581 234.601 115.512 233.805 118.4C233.389 119.919 232.93 121.424 232.421 122.915C232.163 123.66 231.898 124.406 231.618 125.144C231.496 125.459 231.374 125.774 231.252 126.09C231.224 126.161 231.023 126.699 231.209 126.219C231.102 126.491 230.987 126.756 230.872 127.029C229.044 131.458 226.692 135.679 223.931 139.592C218.403 147.432 210.953 154.054 202.377 158.512C193.801 162.969 184.25 165.026 174.556 164.474C165.457 163.951 156.25 161.192 148.649 155.924C145.265 153.581 141.938 150.349 139.65 146.938C136.251 141.878 134.366 136.059 133.347 130.089C132.329 124.119 132.171 117.798 131.842 111.678C131.512 105.557 131.239 98.8422 131.254 92.4209C131.268 86.5013 131.576 80.6175 132.272 74.7337C132.53 72.5335 132.759 70.3334 132.996 68.1332C133.118 67.0009 133.247 65.8757 133.383 64.7434C133.527 63.5394 133.62 62.8012 133.785 61.7047C134.409 57.3904 135.269 53.0689 136.847 48.9983C136.94 48.7546 137.04 48.511 137.14 48.2673C137.162 48.2243 137.241 48.0236 137.14 48.2673C137.184 48.167 137.227 48.0666 137.277 47.9591C137.506 47.4575 137.736 46.9558 137.994 46.4613C138.46 45.5511 138.969 44.6696 139.535 43.8168C140.174 42.8565 140.46 42.4838 141.192 41.6668C141.873 40.9 142.612 40.1762 143.4 39.5097C143.845 39.1298 143.874 39.1083 144.304 38.8002C144.712 38.5063 145.128 38.2268 145.551 37.9617C146.512 37.3668 147.509 36.8437 148.541 36.385C149.574 35.9264 149.854 34.3712 149.316 33.4467C148.678 32.3574 147.437 32.1997 146.376 32.6727C142.16 34.5575 138.618 37.5747 136.015 41.3802C133.412 45.1856 131.992 49.285 130.967 53.5419C129.862 58.1286 129.296 62.8371 128.78 67.524C128.213 72.6912 127.532 77.8655 127.231 83.0541C126.478 95.9971 127.36 109.012 128.185 121.933C128.593 128.376 129.497 134.89 131.82 140.953C133.813 146.142 136.725 150.901 140.676 154.828C147.595 161.708 156.945 165.943 166.46 167.764C176.485 169.677 186.918 169.09 196.562 165.693C206.407 162.224 215.255 156.225 222.268 148.514C225.71 144.73 228.75 140.545 231.26 136.087C232.493 133.894 233.597 131.63 234.572 129.308C234.73 128.928 234.888 128.555 235.046 128.175C234.995 128.29 234.838 128.67 235.06 128.125C235.16 127.881 235.261 127.638 235.354 127.394C235.662 126.606 235.963 125.817 236.25 125.015C236.781 123.531 237.261 122.033 237.699 120.521C241.348 107.836 241.807 94.4061 240.674 81.3198C239.534 68.2335 237.003 55.2476 233.224 42.6702C232.299 39.5813 231.295 36.5212 230.22 33.4825C229.833 32.386 228.75 31.655 227.574 31.9775C226.513 32.2714 225.681 33.5255 226.068 34.622L226.061 34.6149Z" fill="black"/>
<path d="M237.104 104.439C239.262 106.41 242.396 107.349 245.228 106.482C247.902 105.665 249.968 103.587 251.201 101.128C252.434 98.6702 253.309 95.7534 252.986 92.9871C252.664 90.2208 251.258 87.6766 249.028 85.9638C246.504 84.0288 243.148 83.4555 240.094 84.2796C237.426 84.9963 238.559 89.1458 241.241 88.4291C245.694 87.2251 249.53 91.1883 248.612 95.5528C248.168 97.6669 247.365 99.9531 245.701 101.415C244.927 102.096 243.93 102.533 242.89 102.533C242.446 102.533 242.152 102.483 241.743 102.297C241.306 102.096 240.359 101.594 240.144 101.401C239.284 100.62 237.95 100.555 237.104 101.401C236.308 102.196 236.243 103.658 237.104 104.439Z" fill="black"/>
<path d="M128.114 103.164C127.892 103.364 126.945 103.859 126.515 104.06C126.085 104.26 125.819 104.303 125.368 104.296C124.378 104.289 123.417 103.902 122.664 103.264C120.936 101.816 120.09 99.4586 119.646 97.3086C118.742 92.9441 122.55 88.9809 127.017 90.1849C129.691 90.9088 130.832 86.7593 128.164 86.0355C122.707 84.5663 116.871 87.8056 115.501 93.3598C114.82 96.1189 115.415 99.0214 116.484 101.601C117.552 104.181 119.215 106.589 121.804 107.75C123.381 108.46 125.059 108.747 126.78 108.446C128.286 108.18 130.028 107.22 131.154 106.188C132.015 105.407 131.95 103.945 131.154 103.149C130.301 102.297 128.974 102.361 128.114 103.149V103.164Z" fill="black"/>
<path d="M198.313 6.44997C207.154 4.06348 216.218 1.17532 225.281 2.47965C227.038 2.73048 228.802 3.15331 230.358 4.00614C232.337 5.0883 233.907 6.80113 235.19 8.65729C236.818 11.0008 238.066 13.6023 238.862 16.3328C239.851 19.7154 240.16 23.2557 240.36 26.7817C241.02 38.2555 240.611 49.7866 239.141 61.1887C239.141 61.1887 262.331 64.9584 272.9 68.9287C274.477 69.5235 276.349 70.6129 276.284 72.4475C276.256 73.2717 275.804 74.017 275.266 74.5832C273.287 76.683 270.261 76.8765 267.515 76.9553C261.814 77.113 256.114 77.2635 250.413 77.4212C230.336 77.973 210.252 78.5177 190.174 79.0695C188.009 79.1268 185.851 79.1842 183.685 79.2486H181.097C178.931 79.1913 176.773 79.134 174.607 79.0695C154.53 78.5177 134.446 77.973 114.369 77.4212C108.668 77.2635 102.968 77.113 97.2672 76.9553C94.5209 76.8837 91.495 76.683 89.5159 74.5832C88.9781 74.0098 88.5264 73.2717 88.4977 72.4475C88.4332 70.6057 90.2975 69.5164 91.8822 68.9287C102.451 64.9584 126.358 61.1887 126.358 61.1887C124.888 49.7938 124.479 38.2555 125.139 26.7817C125.339 23.2629 125.648 19.7226 126.637 16.3328C127.44 13.5951 128.688 10.9936 130.309 8.65729C131.599 6.80113 133.162 5.0883 135.141 4.00614C136.705 3.16048 138.461 2.73765 140.218 2.47965C149.282 1.16815 158.345 4.06348 167.186 6.44997C175.712 8.75045 184.911 10.5779 193.251 7.83313C194.369 7.46763 195.502 7.16663 196.642 6.8728L198.299 6.44997H198.313Z" fill="#FFD400"/>
<path d="M198.886 8.52112C204.558 6.98746 210.251 5.20297 216.109 4.55797C218.956 4.24981 221.867 4.16381 224.707 4.55797C227.288 4.90914 229.64 5.69747 231.512 7.56079C235.312 11.3376 237.205 16.8129 237.822 22.0302C238.539 28.0645 238.589 34.235 238.495 40.3052C238.388 47.2855 237.879 54.2586 236.997 61.1887C236.889 62.0272 237.735 63.1237 238.574 63.2599C242.819 63.9479 247.05 64.7434 251.266 65.5962C258.221 66.9937 265.32 68.4199 271.996 70.878C272.612 71.1074 273.301 71.4084 273.788 71.8312C274.276 72.254 273.788 71.7667 274.003 72.039C274.061 72.1107 274.183 72.512 274.133 72.2827C274.082 72.0533 274.161 72.3615 274.118 72.4833C274.039 72.7342 273.917 72.8775 273.753 73.071C272.534 74.4972 270.368 74.6835 268.633 74.7695C263.069 75.049 257.476 75.0848 251.904 75.2353C240.31 75.5507 228.715 75.866 217.113 76.1885C205.512 76.511 194.785 76.9697 183.62 77.0987C179.368 77.1488 175.116 76.9338 170.864 76.8192C165.128 76.6615 159.391 76.5038 153.655 76.3462C142.118 76.0308 130.58 75.7155 119.043 75.4002C113.271 75.2425 107.499 75.0848 101.727 74.9272C99.346 74.8627 96.7934 74.9773 94.4916 74.619C93.5667 74.4757 92.6847 74.2463 91.9031 73.7733C91.3438 73.4365 90.5766 72.684 90.6555 72.2755C90.677 72.1608 90.9064 71.8742 91.1861 71.6592C91.2793 71.5875 91.8027 71.3008 92.0465 71.179C92.5269 70.9425 93.3372 70.6774 94.0041 70.448C95.5242 69.9392 97.0587 69.4877 98.6003 69.0649C102.193 68.083 105.835 67.2589 109.478 66.4849C114.949 65.331 120.456 64.3134 125.977 63.4104C126.293 63.3602 126.608 63.3101 126.924 63.2599C127.748 63.1309 128.609 62.0344 128.501 61.1887C127.397 52.5458 126.888 43.8311 126.995 35.1165C127.045 30.8739 127.167 26.6025 127.633 22.3814C128.056 18.5759 129.089 14.8708 131.018 11.5454C132.81 8.46379 135.091 5.8623 138.662 4.96647C142.498 3.99898 146.685 4.15664 150.579 4.70847C158.796 5.87663 166.59 8.92245 174.736 10.4131C179.196 11.2301 183.771 11.6744 188.288 11.0939C191.909 10.6353 195.351 9.42412 198.872 8.52112C201.553 7.83313 200.413 3.68364 197.724 4.37164C194.727 5.13847 191.773 6.21347 188.718 6.7223C184.839 7.36729 180.766 7.0878 176.901 6.4428C168.44 5.03814 160.381 1.84899 151.891 0.587658C147.539 -0.0573396 143.165 -0.236506 138.819 0.537491C136.826 0.895823 134.818 1.55515 133.14 2.70898C131.462 3.86281 130.114 5.31764 128.895 6.94446C126.443 10.2339 124.787 14.1469 123.962 18.1531C123.087 22.4387 122.915 26.8605 122.772 31.225C122.435 41.2296 122.922 51.2558 124.192 61.1887L125.769 59.1176C121.331 59.8199 116.906 60.6297 112.497 61.4969C108.66 62.2566 104.824 63.0664 101.024 63.9981C97.7542 64.8007 94.4415 65.6392 91.2936 66.8575C88.9776 67.7534 86.6257 69.244 86.3675 71.9458C86.0807 74.9415 88.6692 77.1918 91.2076 78.1952C93.4591 79.0838 95.9759 79.0767 98.3637 79.1412C101.339 79.22 104.315 79.306 107.284 79.3848C119.366 79.7145 131.448 80.0441 143.53 80.3738C155.562 80.7035 167.601 81.0331 179.633 81.3556C183.764 81.4703 187.894 81.2768 192.024 81.1693C198.133 81.0045 204.25 80.8325 210.359 80.6676C222.455 80.338 234.552 80.0083 246.655 79.6786C252.614 79.5138 258.566 79.3561 264.524 79.1913C267.077 79.1197 269.73 79.2057 272.232 78.6037C274.735 78.0017 277.381 76.3533 278.198 73.7662C279.797 68.6492 273.559 66.7787 269.902 65.6607C266.245 64.5427 262.638 63.6756 258.967 62.8442C252.93 61.4897 246.856 60.3216 240.754 59.2896C240.403 59.2322 240.051 59.1677 239.693 59.1104L241.27 61.1816C242.102 54.6814 242.597 48.1455 242.748 41.5951C242.898 35.0448 242.848 28.731 242.138 22.3742C241.428 16.0174 239.521 10.3271 235.462 5.53264C233.526 3.24648 231.017 1.61249 228.113 0.852823C225.209 0.0931597 221.831 -0.107506 218.719 0.0429932C211.535 0.386992 204.608 2.50115 197.71 4.37164C195.043 5.09547 196.176 9.24495 198.857 8.52112H198.886Z" fill="black"/>
<path d="M125.619 40.7495C128.186 44.0175 131.958 46.0313 135.751 47.6295C150.458 53.8143 166.734 54.9251 182.631 54.4808C197.359 54.0651 212.138 52.3594 226.235 47.9735C231.075 46.4685 235.9 44.6051 239.937 41.4805V54.9968C235.9 58.1214 231.075 59.9847 226.235 61.4897C212.145 65.8757 197.359 67.5814 182.631 67.997C166.734 68.4414 150.458 67.3305 135.751 61.1457C131.958 59.5547 128.179 57.5337 125.619 54.2658V40.7495Z" fill="black"/>
<path d="M124.859 41.5091C127.11 44.3256 130.215 46.2749 133.456 47.7799C136.977 49.4139 140.669 50.7183 144.405 51.7718C151.941 53.9002 159.75 54.9609 167.559 55.3981C175.632 55.8496 183.749 55.6632 191.816 55.1114C199.883 54.5596 208.05 53.5204 216.002 51.7789C220.455 50.8043 224.879 49.6289 229.181 48.1383C233.19 46.7479 237.097 44.9993 240.475 42.4121L238.854 41.4805V54.9967L239.385 54.0651C233.354 58.6732 225.668 60.7659 218.397 62.5289C210.667 64.4065 202.78 65.5747 194.856 66.2412C186.933 66.9077 179.053 67.1657 171.151 66.9149C163.457 66.6712 155.763 65.8685 148.27 64.0769C144.09 63.0735 139.967 61.7764 136.016 60.0994C132.388 58.5586 128.867 56.6236 126.372 53.5061L126.687 54.2657V40.7495C126.687 39.3663 124.536 39.3663 124.536 40.7495V52.6031C124.536 53.6996 124.385 54.4807 125.131 55.3694C128.967 59.9776 135.134 62.2852 140.655 64.1414C146.728 66.1767 153.031 67.4452 159.384 68.212C172.384 69.7743 185.75 69.4017 198.75 68.0329C205.383 67.3377 211.987 66.2842 218.469 64.729C224.951 63.1739 230.974 61.5256 236.56 58.4654C237.879 57.7416 239.141 56.9317 240.338 56.0216C240.855 55.6274 240.984 55.2619 240.998 54.6742C241.02 53.5061 240.998 52.3379 240.998 51.1769V41.4876C240.998 40.7495 240.052 40.0471 239.378 40.556C233.347 45.1641 225.661 47.2568 218.39 49.0198C210.66 50.8974 202.773 52.0656 194.849 52.7321C186.926 53.3986 179.046 53.6566 171.144 53.4057C163.242 53.1549 155.756 52.3594 148.263 50.5678C144.083 49.5644 139.96 48.2673 136.009 46.5903C132.38 45.0495 128.86 43.1145 126.364 39.997C125.497 38.9148 123.984 40.4485 124.844 41.5163L124.859 41.5091Z" fill="black"/>
<path d="M183.784 148.686C184.085 148.256 184.351 147.805 184.623 147.353C184.745 147.145 184.874 146.945 185.003 146.744C185.075 146.637 185.154 146.529 185.226 146.422C185.369 146.207 184.91 146.78 185.161 146.508C185.326 146.321 185.534 146.156 185.692 145.977C185.383 146.328 185.462 146.142 185.663 146.02C185.72 145.984 185.77 145.956 185.828 145.927C185.971 145.855 185.9 145.884 185.613 146.006C185.663 146.027 185.943 145.906 185.993 145.891C186.358 145.777 185.62 145.898 185.878 145.906C186.007 145.906 186.143 145.906 186.272 145.906C186.48 145.906 185.742 145.791 186.222 145.906C186.265 145.913 186.509 146.02 186.538 145.999C186.229 145.863 186.179 145.841 186.387 145.941L186.502 146.006C186.71 146.128 186.789 146.314 186.495 145.977C186.631 146.135 187.061 146.436 187.14 146.486C188.18 147.181 189.578 147.16 190.489 146.242C191.019 145.705 191.349 144.924 191.722 144.272C192.066 143.67 192.403 143.06 192.747 142.458C193.299 141.477 193.013 140.065 191.973 139.52C190.933 138.975 189.621 139.248 189.033 140.294C188.718 140.846 188.409 141.405 188.094 141.957C187.95 142.208 187.807 142.458 187.671 142.709C187.585 142.86 187.499 143.01 187.413 143.161L187.326 143.311C187.119 143.655 187.248 143.541 187.728 142.974L188.811 142.681C189.04 142.652 189.356 142.824 189.535 142.939C189.793 143.103 189.542 142.939 189.485 142.888C189.234 142.681 188.961 142.458 188.675 142.286C188.223 142.021 187.692 141.806 187.176 141.713C185.928 141.477 184.659 141.627 183.548 142.265C181.87 143.232 181.124 144.995 180.063 146.508C179.417 147.432 179.862 148.937 180.837 149.446C181.934 150.026 183.089 149.661 183.777 148.672L183.784 148.686Z" fill="black"/>
<path d="M177.675 81.0833C177.388 84.1578 177.431 87.2681 177.474 90.3498C177.532 94.5853 177.697 98.8136 177.912 103.042C178.278 110.431 178.665 117.87 179.554 125.223C179.747 126.799 180.106 128.376 181.648 129.164C183.318 130.017 185.283 129.057 186.731 128.147C189.42 126.47 191.385 123.904 192.389 120.908C192.747 119.833 191.973 118.615 190.919 118.321C189.772 118.006 188.696 118.708 188.33 119.79C187.685 121.704 186.344 123.431 184.609 124.513C184.2 124.771 183.734 125.036 183.318 125.201C183.275 125.223 182.945 125.287 182.931 125.323C182.996 125.18 183.655 125.545 183.727 125.581C183.584 125.509 183.978 125.76 183.906 125.81C183.913 125.81 183.799 125.387 183.784 125.352C183.655 124.871 183.792 125.552 183.749 125.158C183.734 125.036 183.72 124.914 183.706 124.793C183.67 124.484 183.634 124.176 183.605 123.868C183.275 120.758 183.032 117.64 182.809 114.53C182.243 106.654 181.813 98.7562 181.683 90.8586C181.633 87.6049 181.576 84.3226 181.877 81.0761C181.985 79.9438 180.837 78.9763 179.776 78.9763C178.55 78.9763 177.783 79.9438 177.675 81.0761V81.0833Z" fill="black"/>
<path d="M240.848 302.962C256.723 313.01 273.753 323.502 293.048 324.448C297.114 324.649 301.388 324.448 305.21 322.907C309.44 321.209 312.452 318.141 313.764 313.727C314.474 311.347 314.789 308.839 315.098 306.388C315.406 303.937 315.607 301.285 315.664 298.72C315.786 293.603 315.399 288.493 314.682 283.426C313.255 273.393 310.293 263.653 306.55 254.258C304.084 248.08 301.201 242.089 298.57 235.976C297.602 233.718 296.627 231.461 295.659 229.203C295.443 228.709 295.221 228.214 295.02 227.713C294.984 227.627 294.977 227.548 295.114 227.913C294.999 227.605 294.87 227.304 294.748 226.996C294.54 226.487 294.339 225.978 294.124 225.469C293.586 224.172 293.041 222.889 292.475 221.607C288.588 212.777 283.928 204.228 278.199 196.459C275.424 192.689 272.476 189.006 268.734 186.139C264.991 183.272 260.695 181.61 256.343 180.356C251.754 179.03 247.115 178.55 242.353 178.664C237.198 178.786 232.057 179.195 226.951 179.918C224.492 180.262 222.04 180.7 219.602 181.208C218.426 181.452 217.745 182.835 218.046 183.939C218.383 185.157 219.602 185.738 220.778 185.494C225.546 184.498 230.365 183.824 235.219 183.459C239.801 183.115 244.576 182.735 249.151 183.344C253.367 183.91 257.583 185.171 261.441 186.963C263.327 187.837 265.134 188.855 266.733 190.188C268.418 191.593 269.938 193.198 271.351 194.868C277.195 201.791 281.877 209.775 285.857 217.887C288.524 223.319 290.732 228.945 293.12 234.499C295.092 239.086 297.136 243.623 299.172 248.173C303.137 257.046 306.529 266.205 308.716 275.686C310.903 285.168 311.814 294.778 310.867 304.396C310.645 306.682 310.329 308.982 309.813 311.225C309.376 313.117 308.644 315.024 307.432 316.299C305.202 318.643 301.639 319.653 298.469 319.94C289.807 320.736 280.902 318.492 272.885 315.382C264.374 312.078 256.422 307.434 248.685 302.647C246.806 301.486 244.942 300.311 243.078 299.128C242.06 298.483 240.625 298.913 240.037 299.924C239.414 300.991 239.815 302.317 240.833 302.962H240.848Z" fill="black"/>
<path d="M257.748 272.031C267.356 276.582 277.072 280.911 286.558 285.719C287.627 286.264 288.968 285.999 289.599 284.924C290.18 283.935 289.878 282.43 288.803 281.885C279.316 277.084 269.6 272.755 259.992 268.197C258.909 267.681 257.59 267.896 256.952 268.992C256.385 269.96 256.658 271.515 257.748 272.031Z" fill="black"/>
<path d="M75.2109 433.252C90.0609 433.202 104.904 433.13 119.754 433.08C122.615 433.073 122.622 428.622 119.754 428.636C104.904 428.687 90.0609 428.758 75.2109 428.808C72.3499 428.816 72.3428 433.266 75.2109 433.252Z" fill="black"/>
<path d="M217.057 183.294C215.873 185.408 214.504 187.185 212.64 188.762C211.987 189.314 211.062 189.952 210.137 190.496C209.693 190.754 209.241 190.998 208.782 191.227C208.567 191.335 208.359 191.435 208.144 191.535C208 191.6 207.857 191.664 207.714 191.729C207.649 191.758 207.377 191.872 207.592 191.786C205.562 192.632 203.433 193.234 201.31 193.779C198.915 194.388 196.506 194.99 194.075 195.448C183.356 197.477 171.912 196.617 161.959 191.98C159.313 190.747 156.717 189.307 154.351 187.594C153.591 187.042 152.516 186.089 151.748 185.2C150.981 184.312 150.214 182.95 149.676 181.696C149.203 180.592 147.575 180.348 146.636 180.9C145.488 181.567 145.367 182.835 145.84 183.939C148.02 189.063 152.688 192.173 157.449 194.689C162.812 197.527 168.663 199.44 174.672 200.293C180.681 201.146 186.898 201.053 193 200.121C195.725 199.705 198.399 199.068 201.074 198.415C203.34 197.864 205.598 197.276 207.785 196.459C213.393 194.366 217.96 190.812 220.914 185.537C222.313 183.036 218.469 180.793 217.071 183.294H217.057Z" fill="black"/>
<path d="M161.722 164.739C161.471 166.001 161.169 167.255 160.789 168.488C160.617 169.047 160.424 169.598 160.216 170.15C159.986 170.759 159.972 170.788 159.714 171.347C159.298 172.25 158.818 173.132 158.287 173.97C158.043 174.357 157.778 174.723 157.513 175.102C157.269 175.454 157.67 174.923 157.405 175.246C157.254 175.432 157.097 175.618 156.939 175.805C156.423 176.4 155.863 176.966 155.261 177.482C155.118 177.604 154.981 177.718 154.838 177.84C154.436 178.17 155.053 177.704 154.738 177.919C154.451 178.112 154.178 178.32 153.884 178.499C153.347 178.843 152.787 179.144 152.214 179.417C152.12 179.46 151.661 179.646 152.013 179.51C152.364 179.374 151.898 179.553 151.826 179.582C151.575 179.675 151.317 179.761 151.059 179.84C150.787 179.926 150.507 179.997 150.227 180.062C150.077 180.098 149.561 180.105 149.46 180.205C149.589 180.076 150.077 180.148 149.604 180.176C149.503 180.176 149.41 180.191 149.31 180.198C149.094 180.212 148.879 180.212 148.664 180.205C147.46 180.169 146.441 181.251 146.441 182.427C146.441 183.659 147.46 184.612 148.664 184.648C151.088 184.727 153.583 183.838 155.648 182.635C158.911 180.735 161.463 177.74 163.17 174.4C164.532 171.734 165.443 168.867 166.017 165.929C166.246 164.754 165.68 163.528 164.461 163.199C163.371 162.898 161.958 163.564 161.729 164.754L161.722 164.739Z" fill="black"/>
<path d="M200.6 162.503C201.841 171.29 205.534 181.817 214.891 184.756C216.598 185.293 218.448 185.501 220.226 185.379C221.423 185.3 222.449 184.419 222.449 183.158C222.449 182.018 221.43 180.85 220.226 180.936C219.545 180.986 218.856 180.986 218.175 180.922C218.082 180.915 217.523 180.857 217.917 180.9C218.311 180.943 217.738 180.872 217.659 180.857C217.307 180.793 216.963 180.721 216.619 180.628C216.275 180.535 215.974 180.442 215.651 180.327C215.486 180.27 215.328 180.205 215.171 180.148C215.049 180.105 214.798 179.969 215.293 180.198C215.199 180.155 215.106 180.119 215.02 180.076C214.325 179.732 213.651 179.359 213.005 178.908C212.933 178.858 212.46 178.514 212.704 178.7C212.926 178.872 212.496 178.528 212.41 178.456C212.08 178.184 211.765 177.89 211.464 177.589C211.162 177.288 210.883 176.987 210.61 176.672C210.467 176.507 210.331 176.342 210.194 176.177C209.943 175.848 210.137 176.113 210.194 176.177C210.116 176.077 210.044 175.97 209.965 175.869C209.363 175.038 208.825 174.156 208.344 173.253C207.771 172.178 207.484 171.526 207.104 170.516C205.993 167.556 205.318 164.446 204.874 161.321C204.709 160.131 203.189 159.479 202.142 159.766C200.858 160.117 200.421 161.307 200.586 162.496L200.6 162.503Z" fill="black"/>
<path d="M253.088 309.72C253.46 317.955 253.826 326.189 254.199 334.424C254.923 350.52 255.791 366.581 257.289 382.62C258.394 394.43 259.756 406.212 261.369 417.965L262.839 415.378C252.557 418.109 241.823 417.084 231.311 416.897C220.197 416.704 209.068 416.855 197.954 416.84C186.775 416.826 175.597 416.819 164.425 416.804C158.775 416.804 153.125 416.79 147.474 416.79C144.714 416.79 141.946 416.79 139.185 416.783C136.697 416.783 134.094 416.575 131.613 416.797C128.336 417.091 126.58 420.23 124.952 422.702C124.514 423.369 124.077 424.028 123.597 424.659C123.876 424.293 123.503 424.774 123.468 424.809C123.31 424.996 123.152 425.182 122.987 425.361C122.743 425.626 122.485 425.892 122.22 426.135C122.084 426.257 121.947 426.372 121.811 426.486C122.163 426.2 121.711 426.558 121.661 426.587C121.309 426.816 120.951 427.031 120.564 427.21C120.944 427.031 120.578 427.21 120.47 427.239C120.262 427.303 120.054 427.375 119.839 427.425C119.653 427.468 119.459 427.511 119.273 427.54C119.725 427.475 118.907 427.547 118.821 427.554L120.922 429.654C120.685 426.171 120.599 422.681 120.521 419.198C120.399 414.06 120.348 408.921 120.313 403.783C120.27 397.354 120.262 390.926 120.277 384.49C120.291 377.237 120.334 369.985 120.391 362.732C120.456 354.999 120.535 347.274 120.635 339.541C120.736 331.808 120.858 324.09 120.994 316.364C121.13 308.638 121.273 301.594 121.446 294.212C121.596 287.647 121.761 281.083 121.962 274.525C122.127 269.129 122.306 263.739 122.528 258.343C122.686 254.566 122.858 250.782 123.123 247.012C123.166 246.389 123.217 245.765 123.267 245.142C123.367 244.01 122.227 243.042 121.166 243.042C119.947 243.042 119.158 244.01 119.065 245.142C118.778 248.46 118.62 251.785 118.463 255.111C118.226 260.12 118.047 265.137 117.889 270.153C117.681 276.489 117.509 282.831 117.358 289.167C117.179 296.362 117.029 303.557 116.892 310.752C116.749 318.457 116.62 326.168 116.512 333.872C116.405 341.612 116.312 349.352 116.24 357.092C116.168 364.524 116.118 371.956 116.089 379.387C116.068 386.031 116.061 392.681 116.089 399.325C116.111 404.836 116.154 410.347 116.254 415.858C116.326 419.786 116.412 423.72 116.613 427.647C116.649 428.314 116.684 428.98 116.727 429.647C116.799 430.751 117.631 431.79 118.828 431.747C122.385 431.639 125.031 429.64 127.11 426.909C127.949 425.806 128.681 424.63 129.455 423.477C129.641 423.197 129.828 422.917 130.029 422.645C130.093 422.559 130.158 422.473 130.222 422.38C130.53 421.936 129.935 422.695 130.28 422.308C130.48 422.086 130.66 421.85 130.875 421.635C131.025 421.484 131.685 421.011 131.176 421.334C131.377 421.212 131.577 421.09 131.785 420.975C132.008 420.853 131.291 421.068 131.692 421.025C131.8 421.011 131.95 420.968 132.058 420.939C131.513 421.097 131.8 420.954 132.008 420.968C132.309 420.997 132.624 420.968 132.925 420.968C133.721 420.968 134.524 420.968 135.32 420.968C138.145 420.968 140.971 420.968 143.796 420.975C149.446 420.975 155.096 420.99 160.747 420.99C183.226 421.011 205.705 421.026 228.177 421.054C240.109 421.069 252.263 422.509 263.958 419.406C265.163 419.083 265.578 417.937 265.428 416.819C262.596 396.129 260.581 375.317 259.355 354.469C258.702 343.332 258.308 332.181 257.806 321.037C257.634 317.253 257.469 313.476 257.297 309.692C257.246 308.559 256.364 307.592 255.196 307.592C254.099 307.592 253.045 308.552 253.095 309.692L253.088 309.72Z" fill="black"/>
<path d="M252.744 238.047C253.153 243.522 253.734 248.976 254.207 254.444C254.68 259.912 254.845 265.388 254.845 270.87C254.845 273.572 259.054 273.579 259.054 270.87C259.054 265.388 258.889 259.912 258.416 254.444C257.943 248.976 257.362 243.522 256.953 238.047C256.867 236.915 256.05 235.947 254.852 235.947C253.777 235.947 252.665 236.907 252.751 238.047H252.744Z" fill="black"/>
<path d="M77.1107 430.837C75.1962 405.424 74.4648 379.975 74.7229 354.49C74.852 341.949 74.938 329.364 75.483 316.83C75.7124 311.605 76.0853 306.388 76.3793 301.171C76.7235 295.172 77.0963 289.174 77.2899 283.168C77.6915 270.648 77.6485 258.092 78.8961 245.615C80.029 234.292 82.1372 222.302 87.6225 212.19C91.7025 204.665 97.8619 198.552 105.169 194.137C111.859 190.102 119.23 187.486 126.888 185.902C132.753 184.691 138.676 184.061 144.893 184.369C145.933 184.419 146.979 184.505 148.012 184.634C149.202 184.785 150.235 183.502 150.235 182.412C150.235 181.087 149.209 180.341 148.012 180.191C142.311 179.474 136.46 179.926 130.796 180.728C123.116 181.825 115.587 183.982 108.56 187.286C100.816 190.926 93.7246 196.165 88.4256 202.923C81.5205 211.724 78.1002 222.617 76.114 233.489C72.3925 253.871 73.4394 274.783 72.2563 295.387C71.8834 301.83 71.5177 308.266 71.1449 314.708C70.5784 324.584 70.5712 334.517 70.4063 344.407C69.9833 369.777 70.2988 395.132 71.9336 420.459C72.1559 423.914 72.3997 427.368 72.6578 430.822C72.7511 432.019 73.6187 433.044 74.8807 433.044C76.0136 433.044 77.1967 432.026 77.1035 430.822L77.1107 430.837Z" fill="black"/>
<path d="M214.281 234.077C210.38 246.805 207.39 259.64 205.325 272.526C204.543 277.406 203.891 282.344 205.081 287.189C205.289 288.034 205.906 289.081 207.311 289.131C208.602 289.174 209.427 288.328 209.921 287.597C213.958 281.634 216.482 275.285 217.371 268.856C218.246 262.55 223.567 239.602 223.265 234.335" fill="black"/>
<path d="M213.242 233.79C210.173 243.838 207.627 254.05 205.662 264.377C204.702 269.422 203.647 274.561 203.396 279.699C203.275 282.186 203.396 284.709 203.963 287.138C204.379 288.923 205.641 290.299 207.598 290.199C209.9 290.084 211.055 287.905 212.116 286.171C213.363 284.136 214.46 282.021 215.393 279.828C216.999 276.059 217.902 272.217 218.555 268.19C219.451 262.672 220.684 257.203 221.753 251.721C222.42 248.31 223.072 244.891 223.617 241.451C223.983 239.136 224.463 236.7 224.341 234.342C224.27 232.966 222.118 232.959 222.19 234.342C222.283 236.133 221.982 237.961 221.724 239.724C221.308 242.533 220.799 245.328 220.269 248.116C219.2 253.749 218.003 259.361 216.949 265.001C216.461 267.595 216.167 270.218 215.522 272.784C214.417 277.191 212.567 281.369 210.18 285.232C209.685 286.035 209.197 287.081 208.444 287.676C207.813 288.178 206.86 288.235 206.379 287.518C205.899 286.802 205.849 285.669 205.734 284.874C205.555 283.612 205.505 282.337 205.519 281.068C205.569 276.238 206.566 271.4 207.433 266.663C209.434 255.756 212.087 244.977 215.328 234.37C215.737 233.045 213.657 232.478 213.256 233.797L213.242 233.79Z" fill="black"/>
<path opacity="0.6" d="M224.448 235.273C245.259 235.273 262.129 218.412 262.129 197.613C262.129 176.813 245.259 159.952 224.448 159.952C203.638 159.952 186.768 176.813 186.768 197.613C186.768 218.412 203.638 235.273 224.448 235.273Z" fill="white"/>
<path d="M226.22 235.273C247.03 235.273 263.9 218.412 263.9 197.613C263.9 176.813 247.03 159.952 226.22 159.952C205.409 159.952 188.539 176.813 188.539 197.613C188.539 218.412 205.409 235.273 226.22 235.273Z" stroke="black" stroke-width="8" stroke-miterlimit="10"/>
<path d="M256.466 274.052C256.466 274.052 243.015 259.446 238.081 256.107C233.148 252.767 217.725 245.916 210.568 246.439C203.405 246.962 191.846 246.425 197.999 252.459C198.078 252.588 201.175 253.333 202.222 253.563C203.262 253.792 192.277 253.606 198.587 260.041C200.544 260.973 191.674 263.703 198.285 268.046C200.523 269.702 189.165 274.869 199.476 279.219C207.256 281.348 218.951 282.982 218.951 282.982L222.335 284.293C222.335 284.293 230.789 289.109 233.514 290.342C236.239 291.575 246.313 295.23 246.313 295.23L256.474 274.045L256.466 274.052Z" fill="white"/>
<path d="M258.051 271.164C252.321 266.398 247.08 261.023 241.2 256.444C235.693 252.165 229.462 248.904 222.808 246.819C216.154 244.733 209.292 243.859 202.437 244.253C199.16 244.44 194.578 244.705 192.835 248.037C190.942 251.649 194.52 254.401 197.704 255.082C199.762 255.526 201.906 255.698 203.993 255.992C206.273 256.315 208.553 256.63 210.833 256.953C215.451 257.605 220.069 258.25 224.694 258.902C225.841 259.067 227.003 258.622 227.34 257.397C227.619 256.394 226.995 254.917 225.834 254.752C218.348 253.699 210.869 252.653 203.383 251.599C201.734 251.37 200.006 251.262 198.393 250.825C197.726 250.646 197.489 250.567 196.958 250.23C196.958 250.23 196.664 250.022 196.822 250.144C196.994 250.28 196.679 250.001 196.643 249.965C196.413 249.707 196.808 250.202 196.621 249.929C196.521 249.793 196.614 250.159 196.6 249.822C196.621 250.223 196.492 250.202 196.686 249.979C196.586 250.087 197.016 249.678 197.023 249.678C197.568 249.284 198.213 249.091 198.859 248.947C200.264 248.625 201.748 248.575 203.19 248.51C215.537 247.973 227.892 251.828 237.801 259.196C240.777 261.41 243.48 263.99 246.234 266.47C249.138 269.078 252.035 271.701 255.032 274.195C255.921 274.941 257.197 275.07 258.072 274.195C258.839 273.429 258.968 271.902 258.072 271.157L258.051 271.164Z" fill="black"/>
<path d="M206.831 252.18C204.4 251.864 201.884 251.879 199.439 251.907C198.528 251.914 197.51 251.879 196.621 252.115C195.337 252.466 194.204 253.298 193.48 254.408C191.859 256.917 192.878 259.963 195.251 261.546C196.793 262.578 198.707 262.844 200.478 263.259C202.579 263.747 204.68 264.248 206.788 264.735C211.621 265.846 216.483 266.807 221.423 267.33C222.578 267.452 223.574 266.255 223.574 265.18C223.574 263.918 222.585 263.152 221.423 263.03C213.944 262.234 206.58 260.321 199.274 258.579C198.6 258.422 198.177 258.286 197.768 258.049C197.653 257.985 197.538 257.913 197.424 257.834C197.488 257.891 197.725 258.035 197.424 257.834C197.345 257.762 197.259 257.662 197.173 257.59C196.893 257.361 197.23 257.834 197.115 257.512C197.087 257.433 197.008 257.311 196.965 257.246C197.13 257.519 196.943 257.433 197.022 257.354C197.022 257.354 196.943 257.06 196.95 257.082C196.958 257.11 197.051 257.619 196.979 257.239C196.965 257.153 196.993 257.053 196.979 256.967C196.986 257.053 196.836 257.454 196.958 257.132C196.979 257.067 197.022 256.931 197.029 256.867C197.065 256.515 196.872 257.11 196.993 256.938C197.036 256.881 197.373 256.365 197.158 256.63C196.943 256.895 197.373 256.444 197.424 256.386C197.61 256.186 197.087 256.587 197.33 256.465C197.416 256.422 197.503 256.365 197.581 256.315C197.653 256.272 197.947 256.164 197.66 256.272C197.316 256.394 197.797 256.222 197.84 256.236C198.162 256.343 197.295 256.257 197.624 256.265C197.775 256.265 197.926 256.243 198.076 256.236C198.557 256.214 199.044 256.207 199.525 256.2C201.941 256.179 204.422 256.164 206.824 256.472C207.979 256.623 208.975 255.376 208.975 254.322C208.975 253.032 207.979 252.323 206.824 252.172L206.831 252.18Z" fill="black"/>
<path d="M198.752 258.751C195.503 258.751 191.474 260.715 191.603 264.435C191.732 268.154 195.152 269.759 198.142 270.806C204.531 273.049 211.185 274.446 217.889 275.371C219.037 275.528 220.198 275.091 220.535 273.866C220.808 272.862 220.191 271.379 219.03 271.221C213.566 270.469 208.138 269.401 202.853 267.817C201.548 267.423 200.25 267 198.967 266.542C198.078 266.226 197.016 265.896 196.357 265.18C196.149 264.958 195.948 264.628 195.905 264.406C195.855 264.162 195.926 264.055 196.02 263.947C196.5 263.417 197.862 263.044 198.744 263.044C201.512 263.044 201.519 258.744 198.744 258.744L198.752 258.751Z" fill="black"/>
<path d="M220.829 281.814C217.315 281.19 213.823 280.466 210.331 279.742C208.531 279.37 206.731 279.004 204.924 278.66C203.254 278.338 201.54 278.123 199.912 277.628C198.514 277.205 197.137 276.582 195.904 275.794C195.495 275.536 195.087 275.213 194.907 274.711C194.85 274.547 194.907 274.26 195.022 274.023C195.46 273.106 196.557 272.604 197.482 272.189C197.188 272.325 197.933 272.024 198.012 272.002C198.321 271.909 198.636 271.823 198.959 271.78C199.332 271.73 200.178 271.78 200.73 271.895C201.87 272.124 203.053 271.565 203.376 270.39C203.67 269.329 203.017 267.975 201.87 267.746C199.052 267.179 196.514 267.695 194.047 269.136C191.265 270.755 189.616 274.109 191.301 277.119C192.054 278.467 193.337 279.334 194.664 280.043C195.99 280.753 197.439 281.391 198.908 281.828C200.378 282.265 202.042 282.487 203.612 282.788C205.183 283.089 206.882 283.433 208.517 283.77C212.238 284.537 215.953 285.318 219.688 285.977C220.829 286.178 222.004 285.669 222.334 284.472C222.621 283.433 221.983 282.029 220.829 281.828V281.814Z" fill="black"/>
<path d="M245.803 293.459C237.342 290.543 229.182 287.081 221.689 282.136C220.721 281.498 219.309 281.943 218.749 282.91C218.133 283.964 218.549 285.211 219.524 285.848C227.311 290.987 235.872 294.57 244.663 297.602C245.76 297.982 247.015 297.172 247.309 296.097C247.632 294.914 246.908 293.832 245.803 293.452V293.459Z" fill="black"/>
<path d="M243.994 301.887C245.127 300.153 246.389 298.512 247.494 296.763C249.186 294.09 250.749 291.324 252.269 288.55C255.46 282.702 258.292 276.675 260.824 270.519C261.282 269.408 260.329 268.075 259.268 267.789C257.991 267.437 256.987 268.226 256.536 269.344C254.112 275.249 251.337 281.011 248.275 286.608C246.784 289.331 245.257 292.048 243.579 294.656C242.489 296.355 241.27 297.967 240.158 299.651C239.499 300.655 239.958 302.11 240.954 302.69C242.037 303.321 243.335 302.898 243.994 301.895V301.887Z" fill="black"/>
<path d="M265.838 471.987C240.87 485.396 212.325 493 182.001 493C159.177 493 137.358 488.693 117.316 480.838C117.675 453.963 118.206 421.656 118.657 414.805C118.664 414.654 138.734 417.327 161.415 417.213C181.047 417.112 189.58 416.797 208.101 417.113C217.459 417.27 250.593 415.944 262.281 414.934C264.016 414.783 265.364 415.808 265.472 417.12C265.673 419.592 266.038 446.56 265.838 471.987Z" fill="black"/>
<path d="M87.8083 431.783C82.3587 439.616 78.8596 448.61 75.4178 457.511C74.629 459.553 73.8259 461.632 73.6897 463.817C73.5534 466.003 74.1916 468.347 75.8552 469.773C77.5187 471.199 80.3223 471.335 81.7923 469.716C81.5772 472.704 83.5849 475.707 86.4244 476.66C89.2639 477.613 92.677 476.424 94.3119 473.915C95.7029 476.237 97.6963 478.409 100.328 479.039C102.959 479.663 106.2 478.108 106.552 475.42C107.742 477.57 109.219 479.935 111.628 480.451C114.518 481.075 117.322 478.516 118.06 475.65C118.799 472.79 118.046 469.773 117.3 466.921L117.544 466.906L119.996 466.584L121.445 466.053C124.542 464.986 127.045 461.775 126.995 458.5C126.952 455.225 125.424 452.15 123.639 449.405C122.664 447.908 121.588 446.46 120.269 445.263C117.644 442.869 110.89 434.714 112.596 431.596L87.8011 431.79L87.8083 431.783Z" fill="white"/>
<path d="M85.952 430.7C81.7788 436.728 78.7457 443.421 75.9994 450.194C74.6514 453.526 73.1169 456.894 72.1417 460.356C71.1665 463.817 71.2454 467.666 73.6188 470.547C75.9922 473.428 80.6459 473.98 83.3204 471.242L79.6492 469.723C79.4484 473.736 82.1517 477.585 85.9807 478.781C89.8097 479.978 93.9829 478.237 96.177 475.005H92.4627C94.3701 478.129 97.2598 481.039 101.117 481.311C104.38 481.541 108.08 479.398 108.632 475.994L104.703 476.51C105.814 478.509 107.133 480.595 109.17 481.77C111.407 483.067 114.196 482.952 116.34 481.512C118.484 480.071 119.897 477.886 120.32 475.392C120.836 472.324 120.162 469.307 119.388 466.347L117.315 469.071C120.528 468.877 123.726 467.938 126.071 465.623C129.075 462.656 129.735 458.586 128.573 454.623C127.411 450.659 124.844 446.589 121.811 443.737C121.044 443.013 120.32 442.246 119.624 441.45C119.194 440.956 118.778 440.454 118.37 439.938C118.04 439.523 117.71 439.078 117.251 438.433C116.362 437.172 115.53 435.846 114.913 434.434C115.107 434.879 114.878 434.32 114.856 434.262C114.799 434.097 114.741 433.933 114.691 433.768C114.662 433.66 114.627 433.553 114.598 433.445C114.584 433.381 114.454 432.743 114.512 433.116C114.562 433.452 114.533 432.643 114.512 432.549C114.591 432.843 114.426 432.972 114.49 432.736C114.641 432.17 114.318 433.001 114.49 432.678C115.215 431.259 114.34 429.432 112.633 429.446C105.405 429.504 98.1704 429.561 90.9426 429.611C89.9101 429.618 88.8775 429.625 87.8378 429.633C85.07 429.654 85.0628 433.954 87.8378 433.933C95.0656 433.875 102.301 433.818 109.528 433.768C110.561 433.761 111.593 433.753 112.633 433.746L110.776 430.514C109.543 432.936 110.625 435.653 111.823 437.86C113.164 440.332 114.928 442.611 116.785 444.718C117.495 445.521 118.24 446.266 119.015 447.005C120.399 448.323 121.489 449.907 122.471 451.541C123.453 453.175 124.249 454.823 124.665 456.658C125.017 458.213 124.973 459.611 124.285 460.908C123.532 462.327 122.306 463.438 120.908 463.989C120.463 464.161 120.004 464.319 119.553 464.484C119.352 464.556 119.667 464.491 119.682 464.484C119.359 464.584 118.972 464.577 118.628 464.62C118.197 464.677 117.767 464.749 117.33 464.778C115.939 464.864 114.885 466.082 115.258 467.501C115.81 469.622 116.398 471.78 116.218 473.994C116.089 475.528 115.43 476.875 114.282 477.749C113.235 478.552 112.239 478.631 111.163 477.936C110.088 477.241 109.184 475.664 108.453 474.345C107.614 472.84 104.825 472.991 104.523 474.861C104.38 475.743 104.136 476.101 103.448 476.517C102.695 476.975 101.913 477.14 101.103 477.018C99.1097 476.717 97.3458 474.696 96.2129 472.84C95.3309 471.4 93.4021 471.514 92.4986 472.84C91.3585 474.517 89.0496 475.227 87.1566 474.639C85.113 474.001 83.8797 471.801 83.9873 469.73C84.0805 467.852 81.578 466.913 80.316 468.211C79.7854 468.748 79.1114 468.891 78.3441 468.669C78.0788 468.59 77.9283 468.54 77.8637 468.512C77.7562 468.461 77.3044 468.175 77.4192 468.261C76.9459 467.888 76.6878 467.515 76.4081 466.964C75.9349 466.039 75.8202 464.943 75.8847 463.825C75.9779 462.277 76.53 460.757 77.0606 459.317C79.2189 453.505 81.5135 447.7 84.2813 442.146C85.8803 438.935 87.6657 435.825 89.7093 432.872C90.369 431.919 89.8885 430.485 88.9349 429.934C87.8665 429.31 86.6547 429.747 85.995 430.708L85.952 430.7Z" fill="black"/>
<path d="M111.119 460.377C111.865 462.793 113.084 464.978 114.669 466.942C115.888 468.454 117.436 469.873 119.208 470.705C120.226 471.185 121.574 471.02 122.147 469.931C122.649 468.977 122.463 467.501 121.373 466.992C121.022 466.827 120.692 466.641 120.369 466.433C120.211 466.333 120.054 466.225 119.903 466.118C119.76 466.01 119.552 465.767 119.968 466.175C119.896 466.104 119.81 466.046 119.738 465.989C119.028 465.401 118.383 464.728 117.795 464.018C117.723 463.932 117.652 463.839 117.58 463.753C117.415 463.545 117.852 464.118 117.623 463.803C117.472 463.595 117.322 463.387 117.178 463.172C116.899 462.757 116.633 462.327 116.39 461.882C116.131 461.417 115.952 460.872 115.673 460.428C115.794 460.621 115.802 460.743 115.687 460.456C115.644 460.342 115.594 460.22 115.551 460.105C115.443 459.818 115.35 459.539 115.264 459.245C114.934 458.17 113.744 457.382 112.618 457.74C111.492 458.098 110.761 459.231 111.112 460.385L111.119 460.377Z" fill="black"/>
</g>
<defs>
<clipPath id="clip0_2131_5456">
<rect width="364" height="493" fill="white"/>
</clipPath>
</defs>
</svg>
