<svg width="96" height="96" viewBox="0 0 96 96" fill="none" xmlns="http://www.w3.org/2000/svg">
<path fill-rule="evenodd" clip-rule="evenodd" d="M81.7977 19.678H13.8477V69.46H81.7977V19.678ZM16.9817 22.812H78.6637V66.326C69.7837 66.326 25.8617 66.326 16.9817 66.326C16.9817 58.369 16.9817 22.812 16.9817 22.812Z"/>
<path fill-rule="evenodd" clip-rule="evenodd" d="M84.646 13H11V22.812H84.646V13ZM14.134 16.134H81.512V19.678H14.134V16.134Z"/>
<path fill-rule="evenodd" clip-rule="evenodd" d="M39.3477 44.569C39.3477 40.831 36.3137 37.797 32.5757 37.797C28.8387 37.797 25.8047 40.831 25.8047 44.569C25.8047 48.306 28.8387 51.341 32.5757 51.341C36.3137 51.341 39.3477 48.306 39.3477 44.569ZM36.2147 44.569C36.2147 46.577 34.5837 48.207 32.5757 48.207C30.5687 48.207 28.9377 46.577 28.9377 44.569C28.9377 42.561 30.5687 40.931 32.5757 40.931C34.5837 40.931 36.2147 42.561 36.2147 44.569Z" style='fill:var(--icon-accent,#ffd400)'/>
<path fill-rule="evenodd" clip-rule="evenodd" d="M44.5044 44.569C44.5044 37.986 39.1604 32.641 32.5774 32.641C25.9934 32.641 20.6494 37.986 20.6494 44.569C20.6494 51.152 25.9934 56.496 32.5774 56.496C39.1604 56.496 44.5044 51.152 44.5044 44.569ZM41.3704 44.569C41.3704 49.422 37.4304 53.362 32.5774 53.362C27.7234 53.362 23.7834 49.422 23.7834 44.569C23.7834 39.715 27.7234 35.775 32.5774 35.775C37.4304 35.775 41.3704 39.715 41.3704 44.569Z" style='fill:var(--icon-accent,#ffd400)'/>
<path fill-rule="evenodd" clip-rule="evenodd" d="M46.2559 67.893V73.589H49.3899V67.893H46.2559Z"/>
<path fill-rule="evenodd" clip-rule="evenodd" d="M52.6798 76.879C52.6798 74.198 50.5038 72.022 47.8228 72.022C45.1418 72.022 42.9658 74.198 42.9658 76.879C42.9658 79.559 45.1418 81.735 47.8228 81.735C50.5038 81.735 52.6798 79.559 52.6798 76.879ZM49.5458 76.879C49.5458 77.83 48.7738 78.602 47.8228 78.602C46.8718 78.602 46.0998 77.83 46.0998 76.879C46.0998 75.928 46.8718 75.156 47.8228 75.156C48.7738 75.156 49.5458 75.928 49.5458 76.879Z"/>
<path fill-rule="evenodd" clip-rule="evenodd" d="M35.0645 49.466L38.7595 53.066L40.9465 50.821L37.2515 47.221L35.0645 49.466Z" style='fill:var(--icon-accent,#ffd400)'/>
<path fill-rule="evenodd" clip-rule="evenodd" d="M27.8629 47.261L24.4219 50.861L26.6869 53.026L30.1279 49.427L27.8629 47.261Z" style='fill:var(--icon-accent,#ffd400)'/>
<path d="M27.3718 43.002H22.2158V46.136H27.3718V43.002Z" style='fill:var(--icon-accent,#ffd400)'/>
<path d="M70.2804 33.435H50.9004V36.569H70.2804V33.435Z" style='fill:var(--icon-accent,#ffd400)'/>
<path d="M70.2804 43.399H50.9004V46.533H70.2804V43.399Z" style='fill:var(--icon-accent,#ffd400)'/>
<path d="M70.2804 53.363H50.9004V56.497H70.2804V53.363Z" style='fill:var(--icon-accent,#ffd400)'/>
</svg>