<svg width="376" height="759" viewBox="0 0 376 759" fill="none" xmlns="http://www.w3.org/2000/svg">
<circle cx="343" cy="25" r="25" fill="#FFD400"/>
<circle cx="182" cy="239" r="182" fill="#FFD400"/>
<path d="M136.814 179.246L142.394 178.993L143.187 196.455L137.872 196.696L137.551 194.656C136.361 196.08 134.699 197.182 132.421 197.285C127.562 197.506 123.892 193.754 123.658 188.592C123.424 183.429 126.929 179.352 131.788 179.131C133.724 179.044 135.347 179.617 136.643 180.509L136.814 179.246ZM133.541 191.795C135.819 191.692 137.189 190.032 137.058 187.984C136.924 185.86 135.488 184.403 133.211 184.506C131.047 184.605 129.599 186.23 129.694 188.318C129.787 190.368 131.378 191.893 133.541 191.795ZM158.46 168.602L164.458 168.33L165.688 195.434L160.905 195.651L160.625 193.685C159.319 195.076 157.504 196.147 155.15 196.254C150.291 196.475 146.432 192.732 146.197 187.569C145.963 182.406 149.278 178.338 154.137 178.118C156.111 178.028 157.74 178.715 158.967 179.762L158.46 168.602ZM156.081 190.772C158.358 190.669 159.694 189.087 159.598 186.961C159.505 184.911 158.028 183.381 155.75 183.484C153.586 183.582 152.14 185.245 152.233 187.295C152.328 189.383 153.917 190.871 156.081 190.772ZM181.476 177.22L187.778 176.934L180.406 194.728L176.003 194.928L167.165 177.869L173.656 177.574L178.081 187.074L181.476 177.22ZM192.846 173.965C190.72 174.061 189.021 172.655 188.922 170.491C188.826 168.365 190.393 166.849 192.517 166.714C194.641 166.58 196.418 168.021 196.515 170.147C196.613 172.311 194.972 173.869 192.846 173.965ZM190.839 194.293L190.047 176.831L196.045 176.559L196.837 194.021L190.839 194.293ZM207.616 193.874C204.541 194.014 201.647 193.118 199.882 191.943L202.076 187.469C203.409 188.359 205.77 189.241 208.123 189.134C209.072 189.091 209.516 188.805 209.49 188.235C209.461 187.59 208.615 187.4 206.736 187.067C204.129 186.615 200.352 185.531 200.183 181.811C200.023 178.28 202.958 175.903 207.59 175.693C210.664 175.553 213.667 176.33 215.351 177.395L213.233 181.865C211.748 180.982 209.625 180.317 207.765 180.401C206.778 180.446 206.335 180.733 206.361 181.302C206.388 181.909 207.232 182.061 209.57 182.45C211.716 182.809 215.478 183.551 215.66 187.575C215.817 191.03 213.234 193.619 207.616 193.874ZM236.456 183.665C236.485 184.31 236.444 185.073 236.444 185.073L224.334 185.622C225.043 186.997 226.648 187.99 228.85 187.89C231.393 187.774 232.551 186.466 233.138 185.983L235.724 190.164C234.852 191.079 232.645 192.739 228.394 192.931C222.813 193.185 218.457 189.388 218.226 184.301C217.995 179.215 221.686 175.053 227.077 174.809C232.581 174.559 236.218 178.426 236.456 183.665ZM227.516 179.467C225.808 179.545 224.588 180.323 224.133 182.017L230.662 181.721C230.332 180.329 229.073 179.397 227.516 179.467ZM136.993 209.617L142.99 209.345L144.22 236.449L139.437 236.666L139.158 234.701C137.851 236.091 136.036 237.163 133.682 237.269C128.823 237.49 124.964 233.747 124.729 228.584C124.495 223.421 127.81 219.353 132.669 219.133C134.643 219.043 136.272 219.73 137.499 220.777L136.993 209.617ZM134.613 231.788C136.89 231.684 138.226 230.102 138.13 227.976C138.037 225.926 136.56 224.396 134.282 224.499C132.118 224.597 130.672 226.26 130.765 228.31C130.86 230.398 132.449 231.886 134.613 231.788ZM165.424 226.928C165.453 227.574 165.411 228.336 165.411 228.336L153.302 228.886C154.011 230.261 155.616 231.253 157.817 231.153C160.361 231.038 161.519 229.73 162.105 229.247L164.691 233.428C163.82 234.342 161.613 236.002 157.361 236.195C151.781 236.448 147.425 232.652 147.194 227.565C146.963 222.478 150.654 218.317 156.045 218.072C161.549 217.822 165.186 221.69 165.424 226.928ZM156.484 222.731C154.776 222.808 153.556 223.587 153.1 225.281L159.63 224.985C159.3 223.592 158.041 222.66 156.484 222.731ZM175.694 235.363C172.619 235.503 169.725 234.607 167.96 233.432L170.154 228.958C171.487 229.848 173.848 230.73 176.201 230.624C177.15 230.58 177.594 230.294 177.568 229.725C177.539 229.079 176.693 228.889 174.814 228.556C172.207 228.104 168.43 227.02 168.261 223.3C168.101 219.769 171.036 217.392 175.668 217.182C178.742 217.042 181.745 217.819 183.429 218.884L181.311 223.355C179.825 222.471 177.703 221.806 175.843 221.891C174.856 221.936 174.413 222.222 174.438 222.791C174.466 223.399 175.31 223.551 177.648 223.939C179.794 224.298 183.556 225.041 183.738 229.064C183.895 232.519 181.312 235.109 175.694 235.363ZM189.58 214.154C187.454 214.251 185.755 212.844 185.656 210.681C185.56 208.555 187.127 207.038 189.251 206.904C191.375 206.769 193.152 208.21 193.249 210.336C193.347 212.5 191.706 214.058 189.58 214.154ZM187.573 234.482L186.781 217.02L192.779 216.748L193.571 234.21L187.573 234.482ZM210.416 216.024L215.199 215.807L215.933 231.978C216.167 237.141 212.809 241.097 206.583 241.38C202.636 241.559 199.939 240.806 197.934 239.376L200.248 235.048C201.806 235.853 203.997 236.362 205.933 236.274C208.325 236.165 210.052 234.832 209.971 233.048L209.923 231.985C208.795 233.101 207.273 233.931 205.337 234.019C200.478 234.239 196.808 230.488 196.574 225.325C196.339 220.162 199.844 216.085 204.703 215.865C207.057 215.758 208.922 216.624 210.347 217.853L210.416 216.024ZM206.457 228.528C208.735 228.425 210.067 226.767 209.974 224.717C209.839 222.593 208.404 221.136 206.126 221.24C203.962 221.338 202.515 222.963 202.609 225.051C202.702 227.101 204.293 228.626 206.457 228.528ZM230.206 214.708C234.951 214.492 238.055 217.509 238.282 222.52L238.72 232.162L232.722 232.434L232.324 223.665C232.224 221.463 230.868 220.079 229.008 220.164C227.034 220.253 225.731 221.72 225.833 223.959L226.231 232.728L220.233 233.001L219.441 215.538L223.616 215.349L223.972 218.148C224.954 216.315 227.017 214.852 230.206 214.708ZM153.482 276.412C147.94 276.664 143.621 272.865 143.39 267.779C143.159 262.692 147.116 258.518 152.659 258.267C156.379 258.098 158.453 259.373 159.391 259.939L157.246 264.64C156.58 264.213 155.41 263.582 153.626 263.663C151.045 263.78 149.443 265.374 149.54 267.5C149.636 269.626 151.376 271.068 153.957 270.951C155.741 270.87 156.849 270.135 157.474 269.65L159.992 274.025C159.109 274.673 157.202 276.243 153.482 276.412ZM171.534 275.593C166.181 275.836 161.752 272.119 161.518 266.956C161.284 261.794 165.358 257.691 170.711 257.448C176.025 257.207 180.454 260.924 180.688 266.087C180.923 271.249 176.848 275.352 171.534 275.593ZM171.288 270.165C173.375 270.07 174.742 268.334 174.653 266.36C174.563 264.386 173.045 262.782 170.957 262.876C168.831 262.973 167.464 264.709 167.554 266.682C167.643 268.656 169.162 270.261 171.288 270.165ZM195.506 247.004L201.504 246.731L202.733 273.836L197.95 274.053L197.671 272.087C196.364 273.478 194.549 274.549 192.196 274.656C187.337 274.876 183.477 271.133 183.243 265.971C183.009 260.808 186.324 256.74 191.183 256.519C193.157 256.43 194.785 257.117 196.012 258.164L195.506 247.004ZM193.126 269.174C195.404 269.071 196.739 267.489 196.643 265.363C196.55 263.313 195.073 261.782 192.795 261.886C190.632 261.984 189.186 263.647 189.279 265.697C189.373 267.785 190.962 269.272 193.126 269.174ZM223.937 264.315C223.966 264.96 223.925 265.723 223.925 265.723L211.815 266.272C212.524 267.647 214.129 268.64 216.331 268.54C218.874 268.424 220.032 267.117 220.619 266.634L223.205 270.815C222.333 271.729 220.126 273.389 215.875 273.582C210.294 273.835 205.938 270.038 205.707 264.952C205.476 259.865 209.167 255.703 214.558 255.459C220.062 255.209 223.699 259.076 223.937 264.315ZM214.997 260.118C213.289 260.195 212.069 260.973 211.614 262.668L218.143 262.371C217.813 260.979 216.554 260.047 214.997 260.118ZM110.686 300.554L116.267 300.301L117.059 317.763L111.744 318.004L111.423 315.965C110.233 317.388 108.571 318.491 106.293 318.594C101.434 318.815 97.7645 315.063 97.5303 309.9C97.2961 304.738 100.801 300.661 105.66 300.44C107.596 300.352 109.22 300.925 110.515 301.818L110.686 300.554ZM107.414 313.104C109.691 313 111.061 311.341 110.931 309.292C110.796 307.168 109.361 305.712 107.083 305.815C104.919 305.913 103.471 307.539 103.566 309.626C103.659 311.676 105.25 313.202 107.414 313.104ZM132.466 299.566L138.464 299.294L139.256 316.756L134.549 316.97L134.306 314.965C133.343 316.378 131.604 317.446 129.364 317.547C124.581 317.764 120.94 314.658 120.718 309.761L120.281 300.119L126.279 299.847L126.659 308.236C126.759 310.438 128.115 311.822 129.862 311.743C131.76 311.657 132.949 310.195 132.847 307.956L132.466 299.566ZM152.784 316.485C148.191 316.693 145.419 314.271 145.21 309.677L144.955 304.059L141.425 304.219L141.196 299.17L144.916 299.002L144.644 293.004L150.452 292.74L150.724 298.738L156.836 298.461L157.065 303.51L150.953 303.787L151.175 308.684C151.258 310.506 152.538 311.057 153.981 310.991C155.271 310.933 156.12 310.362 156.564 310.075L158.815 314.424C158.08 314.989 156.315 316.325 152.784 316.485ZM169.714 315.717C164.361 315.96 159.932 312.243 159.698 307.08C159.464 301.917 163.538 297.814 168.89 297.572C174.205 297.331 178.634 301.048 178.868 306.21C179.102 311.373 175.028 315.476 169.714 315.717ZM169.467 310.289C171.555 310.194 172.922 308.458 172.832 306.484C172.743 304.51 171.225 302.905 169.137 303C167.011 303.097 165.644 304.832 165.734 306.806C165.823 308.78 167.342 310.385 169.467 310.289ZM203.522 296.001C208.191 295.789 211.831 298.895 212.054 303.792L212.491 313.434L206.493 313.706L206.095 304.937C205.996 302.735 204.791 301.345 203.083 301.422C201.223 301.506 200.072 302.966 200.174 305.206L200.571 313.975L194.573 314.247L194.176 305.478C194.076 303.276 192.796 301.889 191.201 301.961C189.303 302.047 188.152 303.507 188.254 305.747L188.652 314.515L182.654 314.788L181.862 297.326L186.037 297.136L186.398 300.049C187.224 298.147 189.362 296.643 191.982 296.524C194.601 296.405 196.775 297.372 198.217 298.98C199.249 297.412 201.092 296.111 203.522 296.001ZM228.425 295.213L234.005 294.96L234.797 312.422L229.482 312.663L229.162 310.624C227.971 312.047 226.309 313.149 224.032 313.253C219.173 313.473 215.503 309.722 215.269 304.559C215.034 299.396 218.539 295.319 223.398 295.099C225.334 295.011 226.958 295.584 228.254 296.476L228.425 295.213ZM225.152 307.762C227.43 307.659 228.8 305.999 228.669 303.951C228.534 301.827 227.099 300.371 224.821 300.474C222.657 300.572 221.21 302.197 221.304 304.285C221.397 306.335 222.988 307.861 225.152 307.762ZM248.317 312.151C243.724 312.359 240.951 309.937 240.743 305.343L240.488 299.725L236.958 299.885L236.728 294.836L240.449 294.668L240.177 288.67L245.985 288.406L246.257 294.404L252.368 294.127L252.597 299.176L246.486 299.453L246.708 304.35C246.791 306.172 248.071 306.723 249.513 306.657C250.804 306.599 251.653 306.028 252.096 305.741L254.348 310.09C253.613 310.656 251.847 311.991 248.317 312.151ZM273.46 302.109C273.49 302.755 273.448 303.517 273.448 303.517L261.339 304.067C262.048 305.442 263.652 306.434 265.854 306.334C268.397 306.219 269.555 304.911 270.142 304.428L272.728 308.609C271.857 309.524 269.65 311.183 265.398 311.376C259.818 311.629 255.461 307.833 255.23 302.746C255 297.659 258.691 293.498 264.081 293.253C269.586 293.004 273.223 296.871 273.46 302.109ZM264.521 297.912C262.813 297.99 261.593 298.768 261.137 300.462L267.666 300.166C267.337 298.773 266.077 297.841 264.521 297.912Z" fill="white"/>
<line x1="96" y1="758" x2="264" y2="758" stroke="black" stroke-width="2"/>
<g clip-path="url(#clip0_992_3272)">
<path d="M155.13 739.693C154.718 742.695 151.731 744.688 148.898 745.49C146.065 746.293 143.001 746.396 140.348 747.742C137.696 749.088 135.533 752.4 136.743 755.144C137.567 756.955 139.55 757.861 141.43 758.353C145.241 759.336 149.464 759.311 153.095 757.577C154.512 756.904 155.877 755.972 157.396 755.713C158.915 755.454 160.435 755.868 161.98 755.946C163.525 756.024 165.25 755.713 166.152 754.393C166.77 753.487 166.847 752.349 166.873 751.262C166.976 747.276 166.692 743.29 165.997 739.382C165.946 739.072 165.868 738.71 165.611 738.502C165.379 738.321 165.044 738.321 164.735 738.347C161.465 738.606 158.503 738.347 155.233 738.606" fill="black"/>
<path d="M207.87 739.926C208.385 742.928 211.424 744.818 214.282 745.542C217.141 746.267 220.205 746.267 222.909 747.535C225.613 748.803 227.879 752.038 226.72 754.807C225.973 756.645 223.991 757.603 222.136 758.146C218.351 759.259 214.153 759.337 210.445 757.732C209.003 757.111 207.638 756.231 206.093 755.998C204.574 755.791 203.054 756.231 201.535 756.386C200.016 756.541 198.265 756.231 197.337 754.963C196.694 754.083 196.591 752.944 196.513 751.857C196.282 747.871 196.462 743.886 197.028 739.952C197.08 739.616 197.131 739.279 197.389 739.072C197.621 738.891 197.955 738.891 198.265 738.891C201.535 739.046 204.496 738.71 207.767 738.891" fill="black"/>
<path d="M160.538 502.627C161.568 504.49 163.5 505.655 165.431 506.535C172.796 509.899 181.242 510.365 189.2 508.916C193.835 508.062 198.676 506.379 201.458 502.575H201.535" fill="white"/>
<path d="M159.662 503.144C161.645 506.353 165.379 507.829 168.83 508.942C172.873 510.236 177.173 510.779 181.397 510.727C185.311 510.676 189.354 510.184 193.114 509.071C194.865 508.553 196.59 507.855 198.161 506.897C198.831 506.483 199.5 506.017 200.092 505.525C200.376 505.292 202.127 503.532 201.535 503.61C202.822 503.455 202.822 501.41 201.535 501.566C200.453 501.695 199.886 502.989 199.114 503.688C197.723 504.93 196.049 505.836 194.324 506.509C190.899 507.829 187.165 508.398 183.508 508.631C179.568 508.864 175.577 508.631 171.74 507.673C168.16 506.793 163.473 505.474 161.413 502.161C160.718 501.048 158.967 502.083 159.662 503.196V503.144Z" fill="black"/>
<path d="M207.148 532.648C207.148 532.648 210.11 575.688 213.715 596.858V596.91C211.243 597.401 208.771 597.867 206.273 598.359C203.929 598.825 201.612 599.265 199.242 599.524C196.59 599.808 193.886 599.808 191.208 599.834C185.723 599.834 180.238 599.886 174.727 599.912C165.714 599.938 156.495 599.938 148.022 597.039L147.971 596.91C151.602 575.739 153.173 533.062 153.173 533.062" fill="white"/>
<path d="M206.118 532.648C206.711 541.111 207.406 549.574 208.153 558.011C208.797 565.258 209.518 572.504 210.342 579.751C210.728 583.012 211.114 586.273 211.578 589.508C211.784 590.957 211.99 592.381 212.196 593.83C212.35 594.762 212.325 596.651 212.865 597.427L213.483 595.9C207.251 597.117 201.02 598.566 194.659 598.747C188.298 598.928 182.221 598.825 176.015 598.851C169.808 598.877 164.143 598.954 158.272 598.23C156.623 598.023 154.975 597.764 153.353 597.401C152.452 597.22 150.031 596.987 149.413 596.366C149.001 595.952 149.464 597.168 149.155 596.185C149.052 595.849 149.31 595.227 149.361 594.865C149.516 593.933 149.645 593.002 149.774 592.07C151.911 576.593 152.864 560.936 153.662 545.33C153.868 541.24 154.074 537.151 154.229 533.062C154.28 531.716 152.194 531.716 152.143 533.062C151.705 544.812 151.01 556.536 150.108 568.234C149.439 576.826 148.692 585.445 147.404 593.959C147.25 594.969 146.606 596.573 147.121 597.531C147.816 598.851 152.091 599.265 153.379 599.524C159.25 600.714 165.25 600.921 171.199 600.921C178.641 600.921 186.058 600.921 193.5 600.843C200.479 600.74 207.2 599.239 214.024 597.919C214.642 597.79 215.003 596.91 214.642 596.392C214.101 595.616 214.153 593.157 214.024 592.251C213.767 590.491 213.509 588.731 213.277 586.971C212.865 583.736 212.479 580.501 212.119 577.266C211.346 570.33 210.676 563.368 210.058 556.406C209.363 548.487 208.719 540.568 208.153 532.648C208.05 531.328 205.99 531.302 206.067 532.648H206.118Z" fill="black"/>
<path d="M160.461 503.947C163.68 502.73 167.337 503.326 170.685 502.523C173.414 501.85 175.062 499.418 176.505 497.192C177.174 496.131 175.526 495.173 174.831 496.208C174.135 497.244 173.492 498.279 172.642 499.159C171.689 500.142 170.659 500.582 169.32 500.815C166.255 501.333 162.882 500.97 159.946 502.083C158.787 502.523 159.302 504.387 160.461 503.947Z" fill="black"/>
<path d="M201.38 501.592C198.779 501.152 196.204 500.505 193.757 499.547C192.624 499.107 191.491 498.589 190.435 497.968C189.56 497.425 188.762 496.778 188.607 495.691C188.53 495.173 187.886 494.888 187.423 495.018C186.882 495.173 186.676 495.691 186.753 496.208C187.191 498.874 190.178 500.116 192.341 501.048C195.071 502.213 197.955 502.989 200.865 503.481C201.38 503.558 201.895 503.351 202.05 502.808C202.178 502.342 201.895 501.695 201.38 501.617V501.592Z" fill="black"/>
<path d="M168.289 445.301C161.439 448.64 161.336 458.164 160.975 464.789C160.718 469.629 161.001 474.52 161.362 479.36C161.671 483.501 162.546 487.694 165.302 490.929C170.143 496.648 178.924 498.356 185.903 496.39C193.783 494.19 199.835 487.797 202.462 480.137C206.196 469.163 203.749 456.352 200.092 445.715C199.68 444.551 197.826 445.042 198.238 446.233C203.414 461.192 206.324 483.553 189.895 492.689C183.482 496.26 174.907 496.208 168.933 491.705C162.212 486.633 162.881 476.487 162.83 468.878C162.83 464.945 163.19 461.037 163.679 457.155C164.22 453.04 165.25 448.95 169.267 446.983C170.375 446.44 169.396 444.758 168.289 445.301Z" fill="black"/>
<path d="M206.685 459.743C206.221 455.602 205.294 451.513 203.929 447.656C202.822 444.525 201.38 441.471 199.345 439.09C196.358 435.57 192.212 433.707 188.066 432.93C180.495 431.507 172.409 433.552 166.306 439.064C160.203 444.577 156.314 453.609 156.649 462.719H157.344C180.032 460.105 202.873 459.458 225.638 460.856" fill="#FFD400"/>
<path d="M207.715 459.743C206.814 452.289 204.908 443.645 199.706 437.951C194.839 432.62 187.036 430.782 180.058 431.662C164.864 433.551 155.284 448.045 155.568 462.745C155.568 463.314 156.031 463.806 156.623 463.806C161.851 463.78 167.207 462.745 172.461 462.357C178.358 461.917 184.255 461.58 190.178 461.425C201.998 461.063 213.818 461.27 225.612 461.968C226.977 462.046 226.952 459.924 225.612 459.846C213.818 459.147 201.998 458.94 190.178 459.303C184.281 459.484 178.358 459.794 172.461 460.234C167.233 460.623 161.877 461.658 156.623 461.684L157.679 462.745C157.422 449.442 165.662 436.191 179.362 433.888C185.8 432.801 193.165 434.276 197.878 439.064C202.951 444.214 204.779 452.807 205.629 459.769C205.784 461.088 207.895 461.114 207.741 459.769L207.715 459.743Z" fill="black"/>
<path d="M180.135 461.166C181.113 463.392 180.753 465.928 180.521 468.283C180.263 470.871 180.186 473.433 180.289 476.021C180.341 477.289 180.444 478.558 180.598 479.826C180.701 480.654 181.062 481.508 181.989 481.612C183.92 481.819 185.594 479.489 186.135 477.936C186.547 476.746 184.693 476.254 184.281 477.419C183.997 478.195 183.508 478.868 182.813 479.334C182.684 479.438 182.401 479.489 182.298 479.619C182.504 479.903 182.555 479.903 182.478 479.645C182.478 479.515 182.452 479.386 182.427 479.282C182.375 478.791 182.324 478.273 182.272 477.755C182.092 475.659 182.066 473.563 182.143 471.466C182.298 467.714 183.328 463.78 181.731 460.208C181.216 459.07 179.568 460.053 180.057 461.192L180.135 461.166Z" fill="black"/>
<path d="M190.153 488.03C192.136 486.658 193.629 484.691 194.376 482.388C194.531 481.896 194.196 481.301 193.707 481.198C193.166 481.068 192.677 481.353 192.522 481.87C192.471 482 192.445 482.129 192.393 482.259C192.393 482.31 192.342 482.388 192.316 482.44C192.316 482.492 192.213 482.647 192.316 482.466C192.213 482.699 192.11 482.932 191.981 483.139C191.75 483.604 191.466 484.044 191.157 484.459C191.106 484.51 191.106 484.536 191.157 484.459C191.106 484.51 191.08 484.562 191.029 484.614C190.951 484.717 190.848 484.821 190.771 484.924C190.616 485.106 190.436 485.287 190.256 485.468C190.076 485.649 189.87 485.83 189.664 485.985C189.612 486.011 189.586 486.063 189.535 486.089C189.329 486.244 189.638 486.011 189.535 486.089C189.432 486.167 189.303 486.27 189.174 486.348C188.762 486.632 188.531 487.202 188.84 487.668C189.097 488.082 189.715 488.315 190.153 488.004V488.03Z" fill="black"/>
<path d="M150.882 736.07C146.246 703.279 150.16 669.945 151.757 636.87C152.401 623.852 152.633 611.403 152.53 598.359L152.864 598.98C155.491 599.239 158.169 599.317 160.796 599.369C177.123 599.757 193.526 600.145 209.699 597.893L209.596 597.764C209.518 610.808 209.776 623.852 210.42 636.87C212.016 669.971 215.93 703.279 211.295 736.07L211.218 737.623C205.192 737.985 199.14 738.373 193.114 738.736L192.728 738.865C189.689 722.198 189.792 705.712 190.179 693.186C190.282 689.873 190.307 686.534 190.282 683.222C190.23 676.622 189.87 670.023 189.303 663.449C188.737 656.875 188.016 650.716 187.243 644.349C186.831 640.959 186.445 637.594 186.058 634.204C185.852 632.418 185.646 630.632 185.466 628.821C185.363 627.889 185.26 626.957 185.183 626.051C185.106 625.146 185.183 623.852 184.307 623.386C183.097 622.765 182.041 622.609 180.676 622.609C179.801 622.609 178.642 623.256 177.947 623.8C177.071 624.524 177.02 625.327 176.917 626.388C176.685 628.717 176.427 631.046 176.17 633.35C175.423 639.975 174.599 646.601 173.852 653.226C173.157 659.567 172.539 665.933 172.204 672.3C171.818 679.262 171.74 686.224 171.946 693.186C172.333 705.712 172.436 722.198 169.397 738.865L169.011 738.736L150.907 737.623" fill="black"/>
<path d="M151.808 735.811C148.615 712.725 149.568 689.355 150.984 666.166C152.349 643.573 153.637 621.005 153.508 598.359L151.705 598.851C153.019 601.258 158.504 600.274 160.821 600.326C166.487 600.455 172.126 600.585 177.792 600.611C188.556 600.662 199.294 600.248 209.981 598.799C210.78 598.696 210.78 597.66 210.419 597.169L210.316 597.039C209.775 596.34 208.668 596.962 208.668 597.738C208.539 621.678 210.007 645.462 211.424 669.35C212.119 681.229 212.66 693.108 212.531 705.013C212.479 710.94 212.248 716.866 211.784 722.767C211.398 727.71 210.496 732.654 210.29 737.597L211.269 736.613L200.402 737.286C197.93 737.441 194.891 737.157 192.522 737.881L193.706 738.554C190.822 722.224 191.028 705.893 191.286 689.407C191.569 671.705 189.406 654.235 187.371 636.688C186.959 633.117 186.547 629.571 186.187 626C185.955 623.567 185.44 622.325 182.839 621.781C180.908 621.367 178.796 621.652 177.302 623.075C175.371 624.887 175.757 628.639 175.5 630.995C173.594 648.412 171.071 665.778 170.916 683.325C170.736 701.907 171.792 720.153 168.521 738.58L169.706 737.907C167.337 737.183 164.298 737.467 161.826 737.312L150.958 736.639C149.722 736.562 149.722 738.503 150.958 738.58L160.615 739.175C163.268 739.331 166.641 738.994 169.191 739.771C169.654 739.926 170.298 739.59 170.375 739.098C172.925 724.708 173.414 710.137 173.028 695.567C172.616 679.883 173.543 664.432 175.345 648.852C175.809 644.918 176.272 640.984 176.736 637.051C176.916 635.42 177.122 633.79 177.302 632.159C177.534 630.011 177.38 627.112 178.487 625.249C180.032 622.687 183.354 622.997 184.255 626C184.693 627.449 184.616 629.416 184.77 630.943C185.208 634.98 185.698 639.018 186.161 643.055C188.041 658.894 189.638 674.707 189.303 690.675C188.968 706.644 188.968 723.052 191.826 739.098C191.904 739.615 192.547 739.926 193.011 739.771C195.56 738.994 198.934 739.331 201.586 739.175L211.243 738.58C211.784 738.554 212.196 738.166 212.222 737.597C212.428 732.861 213.303 728.124 213.69 723.388C214.153 717.488 214.411 711.561 214.462 705.634C214.617 693.522 214.05 681.41 213.355 669.324C211.939 645.436 210.471 621.652 210.599 597.712L208.951 598.411L209.054 598.54L209.492 596.91C199.603 598.256 189.663 598.644 179.697 598.644C175.088 598.644 170.478 598.566 165.869 598.463C163.448 598.411 161.002 598.359 158.581 598.281C157.602 598.256 153.843 598.592 153.405 597.816C152.941 596.962 151.602 597.35 151.602 598.307C151.731 621.393 150.392 644.349 149.001 667.383C147.611 690.416 146.838 713.398 149.98 736.251C150.16 737.493 152.014 736.95 151.834 735.733L151.808 735.811Z" fill="black"/>
<path d="M211.887 522.813C217.397 520.898 222.728 518.543 228.007 516.059C233.003 513.703 238.153 511.504 242.866 508.579C252.034 502.885 257.107 493.775 261.871 484.381C262.463 483.216 260.712 482.181 260.12 483.346C255.381 492.714 250.385 501.747 241.115 507.259C236.737 509.873 231.999 511.944 227.389 514.118C222.136 516.576 216.857 518.957 211.372 520.847C210.136 521.261 210.676 523.253 211.912 522.813H211.887Z" fill="black"/>
<path d="M261.923 483.242C256 462.796 250.85 441.548 239.751 423.147C239.081 422.034 237.33 423.044 238 424.183C249.021 442.428 254.094 463.495 259.966 483.786C260.326 485.054 262.283 484.51 261.923 483.242Z" fill="black"/>
<path d="M208.256 533.114C207.87 529.827 207.535 526.54 207.303 523.253C207.252 522.71 206.865 522.244 206.299 522.244C205.784 522.244 205.243 522.71 205.294 523.253C205.526 526.54 205.861 529.827 206.247 533.114C206.324 533.657 206.659 534.123 207.252 534.123C207.741 534.123 208.333 533.657 208.256 533.114Z" fill="black"/>
<path d="M205.99 523.797C209.312 523.693 212.557 522.891 215.57 521.416C216.059 521.183 216.188 520.484 215.93 520.018C215.647 519.527 215.029 519.397 214.539 519.656C211.887 520.976 208.951 521.675 205.99 521.752C204.677 521.778 204.677 523.823 205.99 523.797Z" fill="black"/>
<path d="M202.102 503.507C215.595 496.545 229.836 490.721 244.437 486.606C245.699 486.244 245.159 484.277 243.897 484.64C229.115 488.806 214.72 494.707 201.072 501.747C199.913 502.342 200.943 504.102 202.102 503.507Z" fill="black"/>
<path d="M226.23 430.627C229.321 439.53 231.252 448.847 233.492 457.983C235.733 467.118 238.153 476.979 240.497 486.477C240.806 487.745 242.763 487.202 242.454 485.934C240.111 476.436 237.793 466.937 235.45 457.439C233.106 447.941 231.278 438.986 228.188 430.083C227.75 428.841 225.793 429.385 226.23 430.627Z" fill="black"/>
<path d="M237.845 422.785C233.879 423.613 229.862 424.183 225.819 424.519C224.532 424.623 224.506 426.667 225.819 426.564C230.042 426.201 234.24 425.606 238.386 424.752C239.674 424.493 239.133 422.526 237.845 422.785Z" fill="black"/>
<path d="M224.917 426.046C224.917 426.046 224.969 426.175 224.994 426.227C224.943 426.124 224.969 426.15 224.994 426.253C225.02 426.357 225.072 426.434 225.097 426.538C225.175 426.745 225.252 426.978 225.329 427.185C225.484 427.599 225.613 428.013 225.741 428.453C225.999 429.307 226.179 430.187 226.334 431.093C226.411 431.61 227.106 431.973 227.57 431.817C228.136 431.636 228.368 431.119 228.291 430.575C227.982 428.66 227.415 426.848 226.668 425.088C226.462 424.597 225.716 424.441 225.278 424.726C224.763 425.063 224.685 425.606 224.917 426.124V426.046Z" fill="black"/>
<path d="M238.283 423.717C241.193 420.715 244.798 418.748 248.687 417.376C250.309 416.807 252.163 416.16 253.219 414.71C254.043 413.572 254.017 412.2 252.961 411.216C251.725 410.078 249.845 409.948 248.275 410.052C246.214 410.155 244.129 410.543 242.12 410.932C238.18 411.682 234.24 412.847 230.686 414.736C228.909 415.694 226.901 416.858 225.871 418.644C224.789 420.533 225.227 422.681 225.819 424.648C226.128 425.684 227.725 425.244 227.416 424.208C226.72 421.879 226.514 419.757 228.549 418.049C230.197 416.651 232.283 415.668 234.266 414.866C238.128 413.313 242.249 412.433 246.369 411.889C247.528 411.734 252.292 411.061 252.086 413.157C251.906 414.969 248.12 415.745 246.781 416.263C243.176 417.661 239.802 419.731 237.098 422.526C236.352 423.303 237.536 424.493 238.283 423.717Z" fill="black"/>
<path d="M154.255 532.959C154.383 531.069 154.486 529.206 154.512 527.317C154.538 525.841 154.821 523.875 154.461 522.477C154.074 520.872 152.375 521.105 151.061 520.717C144.057 518.595 137.336 514.972 130.743 511.84C124.563 508.916 118.408 505.888 113.696 500.737C108.983 495.587 105.944 489.453 102.854 483.371C102.262 482.207 100.511 483.242 101.103 484.407C103.884 489.893 106.717 495.432 110.58 500.246C114.648 505.292 119.825 508.76 125.567 511.633C131.67 514.687 137.902 517.611 144.186 520.225C145.654 520.847 147.121 521.416 148.589 521.985C149.336 522.27 150.109 522.632 150.855 522.813C151.19 522.891 151.782 522.813 152.04 523.02C152.89 523.642 152.452 526.204 152.426 527.343C152.401 529.232 152.298 531.121 152.169 532.985C152.066 534.304 154.1 534.279 154.203 532.985L154.255 532.959Z" fill="black"/>
<path d="M103.034 483.785C108.906 463.495 114.005 442.428 125.001 424.182C125.67 423.07 123.919 422.034 123.25 423.147C112.151 441.548 107.026 462.796 101.077 483.242C100.717 484.51 102.674 485.054 103.034 483.785Z" fill="black"/>
<path d="M160.204 501.695C147.019 494.862 133.396 488.677 119.104 484.614C117.842 484.251 117.301 486.218 118.563 486.581C132.701 490.592 146.143 496.7 159.199 503.455C160.358 504.05 161.388 502.29 160.229 501.695H160.204Z" fill="black"/>
<path d="M134.812 430.109C131.722 439.012 129.791 448.329 127.55 457.465C125.31 466.601 122.889 476.461 120.546 485.96C120.237 487.228 122.194 487.771 122.503 486.503C124.846 477.005 127.164 467.507 129.507 458.009C131.851 448.51 133.679 439.556 136.769 430.653C137.207 429.41 135.25 428.867 134.812 430.109Z" fill="black"/>
<path d="M124.614 424.752C128.76 425.606 132.958 426.201 137.181 426.564C138.494 426.667 138.469 424.623 137.181 424.519C133.138 424.183 129.121 423.613 125.155 422.785C123.893 422.526 123.327 424.493 124.614 424.752Z" fill="black"/>
<path d="M136.331 425.037C135.559 426.796 135.018 428.634 134.709 430.523C134.632 431.041 134.838 431.636 135.43 431.765C135.919 431.869 136.589 431.61 136.666 431.041C136.821 430.161 137.001 429.281 137.258 428.401C137.387 427.987 137.516 427.547 137.67 427.133C137.748 426.926 137.825 426.693 137.902 426.486C137.928 426.382 137.979 426.305 138.005 426.201C138.057 426.098 138.057 426.072 138.005 426.175C138.005 426.124 138.057 426.046 138.082 425.994C138.288 425.502 138.237 424.881 137.722 424.597C137.284 424.364 136.563 424.441 136.331 424.959V425.037Z" fill="black"/>
<path d="M125.877 422.526C123.173 419.731 119.799 417.687 116.194 416.263C114.675 415.668 111.687 415.124 110.941 413.442C109.936 411.191 115.602 411.76 116.606 411.889C120.726 412.433 124.847 413.313 128.709 414.866C130.692 415.668 132.778 416.651 134.426 418.049C136.486 419.783 136.28 421.853 135.559 424.208C135.25 425.244 136.847 425.684 137.156 424.648C137.671 422.889 138.109 421.025 137.388 419.239C136.718 417.583 135.225 416.496 133.782 415.564C130.332 413.39 126.392 412.096 122.426 411.216C120.495 410.776 118.537 410.466 116.58 410.207C114.726 409.974 112.64 409.715 110.889 410.595C109.679 411.191 108.777 412.407 109.241 413.804C109.73 415.306 111.378 416.211 112.718 416.781C114.881 417.687 117.095 418.359 119.155 419.524C121.216 420.689 123.018 422.035 124.641 423.717C125.387 424.493 126.572 423.303 125.825 422.526H125.877Z" fill="black"/>
<path d="M190.23 540.154C190.23 545.589 186.444 549.212 180.753 549.212H173.439V531.121H180.753C186.444 531.121 190.23 534.719 190.23 540.154ZM185.852 540.205C185.852 537.048 183.895 534.926 180.495 534.926H177.74V545.407H180.495C183.895 545.407 185.852 543.311 185.852 540.205Z" fill="black"/>
<path d="M160.821 476.358C159.173 476.979 158.374 474.624 158.374 473.356C158.374 472.631 158.683 471.906 159.302 471.466C159.971 471.001 160.795 470.975 161.516 471.259C161.902 471.415 162.34 471.104 162.443 470.742C162.572 470.302 162.289 469.965 161.928 469.81C160.821 469.37 159.456 469.525 158.477 470.224C157.499 470.923 156.881 472.113 156.881 473.356C156.881 474.598 157.267 475.892 158.04 476.824C158.812 477.755 160.1 478.247 161.233 477.807C161.619 477.652 161.877 477.29 161.748 476.875C161.645 476.513 161.207 476.203 160.821 476.358Z" fill="black"/>
<path d="M203.492 476.461C204.368 476.901 205.372 476.85 206.222 476.384C207.072 475.918 207.613 475.09 207.973 474.236C208.359 473.304 208.565 472.269 208.359 471.259C208.153 470.354 207.613 469.577 206.866 469.034C205.965 468.387 204.78 468.231 203.724 468.516C202.797 468.775 203.183 470.224 204.11 469.965C205.681 469.525 207.098 470.845 206.917 472.45C206.84 473.2 206.531 474.08 206.016 474.65C205.578 475.142 204.857 475.504 204.239 475.193C203.389 474.753 202.617 476.047 203.492 476.487V476.461Z" fill="black"/>
</g>
<defs>
<clipPath id="clip0_992_3272">
<rect width="161" height="349" fill="white" transform="translate(101 410)"/>
</clipPath>
</defs>
</svg>
