<svg width="642" height="600" viewBox="0 0 642 600" fill="none" xmlns="http://www.w3.org/2000/svg">
<path d="M615.985 526.128V532.975H609.127" stroke="black" stroke-width="1.5" stroke-miterlimit="10"/>
<path d="M595.006 532.975H460.881" stroke="black" stroke-width="1.5" stroke-miterlimit="10"/>
<path d="M453.821 532.975H446.963V526.128" stroke="black" stroke-width="1.5" stroke-miterlimit="10"/>
<path d="M446.963 512.937V440.45" stroke="black" stroke-width="1.5" stroke-miterlimit="10"/>
<path d="M446.963 433.847V427H453.821" stroke="black" stroke-width="1.5" stroke-miterlimit="10"/>
<path d="M467.941 427H602.067" stroke="black" stroke-width="1.5" stroke-miterlimit="10"/>
<path d="M609.127 427H615.985V433.847" stroke="black" stroke-width="1.5" stroke-miterlimit="10"/>
<path d="M615.984 447.038V519.525" stroke="black" stroke-width="1.5" stroke-miterlimit="10"/>
<path d="M603 445H432V546H603V445Z" fill="black"/>
<path d="M602.189 440.205H432.807V450.749H602.189V440.205Z" fill="#FFD300"/>
<path d="M601.382 441.011V449.944H433.628V441.011H601.382ZM603.01 439.385H432V451.555H602.996V439.385H603.01Z" fill="black"/>
<path d="M531 475H446" stroke="#FFD300" stroke-width="1.13" stroke-miterlimit="10"/>
<path d="M520 487H468" stroke="#FFD300" stroke-width="1.13" stroke-miterlimit="10"/>
<path d="M510 521H458" stroke="#FFD300" stroke-width="1.13" stroke-miterlimit="10"/>
<path d="M531 499H446" stroke="#FFD300" stroke-width="1.13" stroke-miterlimit="10"/>
<path d="M510 510H446" stroke="#FFD300" stroke-width="1.13" stroke-miterlimit="10"/>
<g clip-path="url(#clip0_828_2633)">
<path d="M568.34 98.4739H162.999V392.723H568.34V98.4739Z" stroke="black" stroke-width="2" stroke-miterlimit="10"/>
<path d="M543.157 113.86H508.679" stroke="black" stroke-width="1.5" stroke-miterlimit="10"/>
<path d="M179.907 119.365C182.954 119.365 185.424 116.9 185.424 113.86C185.424 110.82 182.954 108.355 179.907 108.355C176.86 108.355 174.391 110.82 174.391 113.86C174.391 116.9 176.86 119.365 179.907 119.365Z" fill="#FFD400"/>
<path d="M203.104 119.365C206.151 119.365 208.621 116.9 208.621 113.86C208.621 110.82 206.151 108.355 203.104 108.355C200.058 108.355 197.588 110.82 197.588 113.86C197.588 116.9 200.058 119.365 203.104 119.365Z" fill="#FFD400"/>
<path d="M226.302 119.365C229.348 119.365 231.818 116.9 231.818 113.86C231.818 110.82 229.348 108.355 226.302 108.355C223.255 108.355 220.785 110.82 220.785 113.86C220.785 116.9 223.255 119.365 226.302 119.365Z" fill="#FFD400"/>
<path d="M162.999 127.209H567.954" stroke="black" stroke-width="2" stroke-miterlimit="10"/>
<path d="M279.344 253.807H254.037L249.279 265.45H232.66L261.884 199.942H271.69L300.638 265.45H284.005L279.33 253.807H279.344ZM258.988 240.665H274.393L266.642 222.223L258.988 240.665Z" fill="black"/>
<path d="M323.145 283.3V289.08H317.366" stroke="black" stroke-width="1.5" stroke-miterlimit="10"/>
<path d="M306.098 289.08H221.571" stroke="black" stroke-width="1.5" stroke-miterlimit="10"/>
<path d="M215.945 289.08H210.152V283.3" stroke="black" stroke-width="1.5" stroke-miterlimit="10"/>
<path d="M210.152 272.056V187.722" stroke="black" stroke-width="1.5" stroke-miterlimit="10"/>
<path d="M210.152 182.093V176.313H215.945" stroke="black" stroke-width="1.5" stroke-miterlimit="10"/>
<path d="M227.212 176.313H311.725" stroke="black" stroke-width="1.5" stroke-miterlimit="10"/>
<path d="M317.366 176.313H323.145V182.093" stroke="black" stroke-width="1.5" stroke-miterlimit="10"/>
<path d="M323.145 193.337V277.685" stroke="black" stroke-width="1.5" stroke-miterlimit="10"/>
<path d="M216.359 170.12H203.946V182.506H216.359V170.12Z" fill="black"/>
<path d="M316.953 182.519H329.365V170.134H316.953V182.519Z" fill="black"/>
<path d="M316.953 295.273H329.365V282.887H316.953V295.273Z" fill="black"/>
<path d="M203.946 295.273H216.358V282.887H203.946V295.273Z" fill="black"/>
<path d="M476.642 321.614H367.635" stroke="black" stroke-width="1.5" stroke-miterlimit="10"/>
<path d="M536.413 321.614H486.475" stroke="black" stroke-width="1.5" stroke-miterlimit="10"/>
<path d="M427.406 341.225H536.413" stroke="black" stroke-width="1.5" stroke-miterlimit="10"/>
<path d="M367.635 341.225H417.573" stroke="black" stroke-width="1.5" stroke-miterlimit="10"/>
<path d="M162.999 342.959H48.3789V71.3762H195.946V98.4739" stroke="black" stroke-width="2" stroke-miterlimit="10"/>
<path d="M162.999 312.902H152.67H108.689H64.9016H48.3795H47.8555" stroke="black" stroke-width="1.97" stroke-miterlimit="10"/>
<path d="M162.999 166.996H64.9014V312.902" stroke="black" stroke-width="1.5" stroke-miterlimit="10"/>
<path d="M162.999 342.959H64.9014" stroke="black" stroke-width="1.97" stroke-miterlimit="10"/>
<path d="M64.9014 166.996L162.737 297.378" stroke="black" stroke-width="1.5" stroke-miterlimit="10"/>
<path d="M68 313L162.737 182.506" stroke="black" stroke-width="1.5" stroke-miterlimit="10"/>
<path d="M87.0503 104.598H64.9014" stroke="black" stroke-width="1.5" stroke-miterlimit="10"/>
<path d="M162.999 104.598H101.2" stroke="black" stroke-width="1.5" stroke-miterlimit="10"/>
<path d="M162.999 120.741H64.9014" stroke="black" stroke-width="1.5" stroke-miterlimit="10"/>
<path d="M134.23 136.884H64.9014" stroke="black" stroke-width="1.5" stroke-miterlimit="10"/>
<path d="M162.999 136.884H144.836" stroke="black" stroke-width="1.5" stroke-miterlimit="10"/>
<path d="M264 432C286.091 432 304 414.091 304 392C304 369.909 286.091 352 264 352C241.909 352 224 369.909 224 392C224 414.091 241.909 432 264 432Z" fill="#FFD300"/>
<path d="M254.786 388.364L247.499 392.771L254.786 397.165V402.179L242.596 395.072V390.471L254.786 383.295V388.377V388.364Z" fill="black"/>
<path d="M265.86 375.926H270.226L262.168 408.061H257.761L265.86 375.926Z" fill="black"/>
<path d="M285.406 390.457V395.058L273.216 402.165V397.152L280.489 392.758L273.216 388.35V383.267L285.406 390.444V390.457Z" fill="black"/>
<path d="M608.169 187.832H420.469C415.953 187.832 412.291 191.485 412.291 195.993V234.362C412.291 238.869 415.953 242.522 420.469 242.522H608.169C612.686 242.522 616.348 238.869 616.348 234.362V195.993C616.348 191.485 612.686 187.832 608.169 187.832Z" fill="#FFD300"/>
<path d="M469.029 206.3L460.603 227.302H455.803L450.411 214.888L445.005 227.302H440.026L431.6 206.3H439.516L443.502 217.214L448.26 205.888H452.797L457.872 217.572L461.348 206.3H469.029Z" fill="black"/>
<path d="M507.121 206.3L498.695 227.302H493.895L488.503 214.888L483.097 227.302H478.118L469.691 206.3H477.608L481.593 217.214L486.351 205.888H490.889L495.964 217.572L499.439 206.3H507.121Z" fill="black"/>
<path d="M545.213 206.3L536.786 227.302H531.987L526.595 214.888L521.188 227.302H516.21L507.783 206.3H515.699L519.685 217.214L524.443 205.888H528.981L534.056 217.572L537.531 206.3H545.213Z" fill="black"/>
<path d="M555.707 202.075V231.127" stroke="black" stroke-width="1.5" stroke-miterlimit="10"/>
<path d="M590.696 220.586L609.797 226.627L628.912 232.669L615.755 245.729L602.598 258.789L596.64 239.687L590.696 220.586Z" fill="black"/>
<path d="M617.106 236.922L608.251 245.758L633.157 270.612L642.012 261.776L617.106 236.922Z" fill="black"/>
<circle cx="122" cy="328" r="9" fill="#FFD400"/>
</g>
<g clip-path="url(#clip1_828_2633)">
<path d="M343.69 31H270.31C265.168 31 261 35.1208 261 40.204V70.796C261 75.8792 265.168 80 270.31 80H343.69C348.832 80 353 75.8792 353 70.796V40.204C353 35.1208 348.832 31 343.69 31Z" fill="#FFD200"/>
<path d="M291.724 58.1463V64.9446H287.438V58.7517C287.438 57.1996 286.496 56.1752 285.161 56.1752C283.748 56.1752 282.807 57.1685 282.807 58.7517V64.9446H278.521V45.8071H282.807V53.3969C283.544 52.7761 284.628 52.3725 286.025 52.3725C289.353 52.3725 291.724 54.6696 291.724 58.1308V58.1463Z" fill="black"/>
<path d="M295.822 60.1486V56.1907H293.31V52.6208H295.963V48.3836H300.108V52.6208H304.472V56.1907H300.108V59.6519C300.108 60.9401 301.002 61.3592 302.039 61.3592C302.965 61.3592 303.577 60.9867 303.907 60.8004L305.367 63.9357C304.817 64.3082 303.53 65.1929 301.002 65.1929C297.721 65.1929 295.822 63.3925 295.822 60.1486Z" fill="black"/>
<path d="M328.32 58.1463V64.9446H324.034V58.7517C324.034 57.1996 323.218 56.1752 322.009 56.1752C320.674 56.1752 319.811 57.1685 319.811 58.7517V64.9446H315.525V58.7517C315.525 57.1996 314.661 56.1752 313.515 56.1752C312.165 56.1752 311.286 57.1685 311.286 58.7517V64.9446H307V52.6208H309.983L310.14 54.6851C310.784 53.3659 312.369 52.388 314.238 52.388C316.106 52.388 317.629 53.133 318.602 54.3126C319.387 53.2417 320.737 52.388 322.48 52.388C325.808 52.388 328.304 54.6851 328.304 58.1463H328.32Z" fill="black"/>
<path d="M331.192 45.8226H335.478V64.9601H331.192V45.8226Z" fill="black"/>
</g>
<path d="M443.372 448H441.152L440.216 446.476L439.28 448H437.132L439.052 445.228L437.24 442.48H439.424L440.264 443.92L441.164 442.48H443.312L441.392 445.18L443.372 448Z" fill="black"/>
<g clip-path="url(#clip2_828_2633)">
<path d="M346.18 513.13C346.18 513.13 345.61 502.87 348.75 493.74C348.75 493.74 338.2 489.18 340.2 477.21C339.91 477.21 333.07 477.21 332.79 477.21C334.79 489.18 324.24 493.74 324.24 493.74C327.38 502.86 326.81 513.13 326.81 513.13" stroke="black" stroke-width="1.5" stroke-miterlimit="10"/>
<path d="M336.49 477.21V495.17" stroke="black" stroke-width="1.5" stroke-miterlimit="10"/>
<path d="M336.49 503.29C338.037 503.29 339.29 502.036 339.29 500.49C339.29 498.944 338.037 497.69 336.49 497.69C334.944 497.69 333.69 498.944 333.69 500.49C333.69 502.036 334.944 503.29 336.49 503.29Z" stroke="black" stroke-width="1.5" stroke-miterlimit="10"/>
<path d="M340.38 468.14C356.01 469.99 368.24 482.89 369.04 498.81" stroke="black" stroke-width="1.5" stroke-miterlimit="10"/>
<path d="M303.94 498.73C304.78 482.85 317 469.99 332.59 468.14" stroke="black" stroke-width="1.5" stroke-miterlimit="10"/>
<path d="M307.79 499.4H300V507.19H307.79V499.4Z" stroke="black" stroke-width="1.5" stroke-miterlimit="10"/>
<path d="M372.98 499.4H365.19V507.19H372.98V499.4Z" stroke="black" stroke-width="1.5" stroke-miterlimit="10"/>
<path d="M340.38 464H332.59V471.79H340.38V464Z" stroke="black" stroke-width="1.5" stroke-miterlimit="10"/>
<path d="M307.79 464H300V471.79H307.79V464Z" stroke="black" stroke-width="1.5" stroke-miterlimit="10"/>
<path d="M372.98 464H365.19V471.79H372.98V464Z" stroke="black" stroke-width="1.5" stroke-miterlimit="10"/>
<path d="M365.19 467.9H340.38" stroke="black" stroke-width="1.5" stroke-miterlimit="10"/>
<path d="M332.59 467.9H307.79" stroke="black" stroke-width="1.5" stroke-miterlimit="10"/>
</g>
<g clip-path="url(#clip3_828_2633)">
<path d="M520.804 57.2294C517.634 60.0964 513.531 61.9819 508.944 62.3341C497.877 63.2109 488.195 54.9632 487.312 43.9077C486.49 33.7344 493.419 24.7207 503.146 22.6815L502.387 13.289C487.499 15.7932 476.747 29.3197 477.975 44.6587C479.285 60.8558 493.489 72.9551 509.688 71.6717C516.85 71.1042 523.213 68.0068 527.956 63.3425L520.782 57.2312L520.804 57.2294Z" fill="white"/>
<path d="M528.437 63.7311C528.437 63.7311 528.416 63.7552 528.406 63.7672C523.403 68.6878 516.776 71.7052 509.769 72.2603C493.236 73.5702 478.73 61.2141 477.396 44.7047C476.786 37.164 479.015 29.7351 483.678 23.7974C488.297 17.8855 494.918 13.9482 502.308 12.7228C502.474 12.6984 502.646 12.7409 502.767 12.8436C502.887 12.9463 502.979 13.1074 502.992 13.2636L503.751 22.6561C503.774 22.9461 503.573 23.2315 503.284 23.2768C493.734 25.2796 487.129 34.1329 487.917 43.8824C488.337 49.0806 490.75 53.7953 494.718 57.1745C498.685 60.5537 503.723 62.1865 508.922 61.7746C513.251 61.4316 517.222 59.7249 520.433 56.8098C520.652 56.6016 520.989 56.5974 521.218 56.7926L528.393 62.9039C528.525 63.0168 528.605 63.1677 528.607 63.3359C528.608 63.4818 528.564 63.6313 528.471 63.7396L528.437 63.7311ZM485.427 23.6252C480.607 29.2834 477.944 36.7579 478.578 44.611C479.86 60.4734 493.799 72.3468 509.652 71.0796C516.167 70.5634 522.346 67.8286 527.083 63.3669L520.8 58.0157C517.462 60.8847 513.389 62.5882 508.981 62.9262C503.47 63.3629 498.12 61.6312 493.912 58.0466C489.704 54.462 487.144 49.4558 486.698 43.9452C485.878 33.7942 492.641 24.5355 502.49 22.2059L501.827 13.9958C495.247 15.2468 489.525 18.765 485.392 23.6167L485.427 23.6252Z" fill="black"/>
<path d="M508.301 22.2731C512.877 22.4943 517.095 24.2594 520.401 27.096L527.271 20.6915C522.032 15.8751 515.081 12.9456 507.554 12.8909L508.313 22.2834L508.301 22.2731Z" fill="black"/>
<path d="M527.719 21.0938C527.719 21.0938 527.688 21.13 527.678 21.142L520.808 27.5465C520.589 27.7547 520.252 27.7589 520.023 27.5638C516.741 24.7477 512.577 23.0906 508.282 22.8808C507.978 22.8712 507.745 22.6314 507.722 22.3414L506.963 12.9489C506.95 12.7927 507.004 12.6312 507.117 12.4988C507.22 12.3784 507.383 12.3094 507.551 12.3073C515.011 12.3674 522.156 15.1917 527.675 20.2666C527.795 20.3693 527.864 20.5322 527.867 20.7004C527.867 20.8463 527.821 20.9734 527.729 21.0818L527.719 21.0938ZM520.372 26.3237L526.375 20.7176C521.31 16.2578 514.884 13.7134 508.175 13.5039L508.839 21.714C513.041 22.0322 517.091 23.6535 520.36 26.3134L520.372 26.3237Z" fill="black"/>
<path d="M523.856 30.9536C525.79 33.7641 527.048 37.0998 527.342 40.7363C527.715 45.3545 526.496 49.7171 524.147 53.3048L531.322 59.4161C535.205 53.9779 537.249 47.1812 536.669 39.9973C536.196 34.1521 534.05 28.8549 530.747 24.525L523.856 30.9536Z" fill="#FFD42E"/>
<path d="M531.78 59.8064C531.688 59.9147 531.559 59.9923 531.403 60.0046C531.237 60.029 531.075 59.9745 530.943 59.8615L523.768 53.7502C523.539 53.5551 523.49 53.2222 523.66 52.9729C526.038 49.3268 527.102 45.1224 526.762 40.7823C526.486 37.3688 525.323 34.093 523.367 31.2842C523.201 31.0392 523.231 30.7113 523.45 30.5031L530.341 24.0745C530.466 23.9523 530.63 23.9056 530.788 23.9155C530.958 23.9357 531.099 24.0144 531.212 24.1514C534.702 28.7247 536.794 34.1834 537.259 39.9393C537.827 46.967 535.892 54.0021 531.809 59.7479C531.799 59.76 531.789 59.772 531.778 59.7841L531.78 59.8064ZM524.935 53.1862L531.217 58.5375C534.889 53.1273 536.607 46.5922 536.089 40.0433C535.66 34.7335 533.793 29.6948 530.684 25.4057L524.638 31.0376C526.533 33.9186 527.667 37.2528 527.945 40.6886C528.302 45.1059 527.269 49.4201 524.935 53.1862Z" fill="black"/>
</g>
<g clip-path="url(#clip4_828_2633)">
<path d="M455.681 81C455.681 81 455.592 81 455.547 80.9852L449.064 79.4163C448.812 79.3571 448.649 79.1351 448.634 78.8834L448.604 75.9528L445.385 72.889L442.448 72.9926C442.196 72.9926 441.958 72.8446 441.899 72.593L440.03 66.2285C439.955 65.9917 440.059 65.7252 440.282 65.592L442.804 64.0971L443.857 59.7752L442.299 57.2886C442.166 57.0666 442.196 56.8002 442.374 56.6078L446.973 51.7974C447.151 51.6198 447.432 51.5754 447.655 51.6938L450.222 53.1295L454.494 51.8714L455.859 49.2812C455.978 49.0592 456.23 48.9408 456.482 49L462.965 50.5689C463.217 50.6281 463.381 50.8501 463.395 51.1018L463.425 54.0324L466.644 57.0962L469.582 56.9926C469.834 56.9926 470.071 57.1406 470.131 57.3922L472.015 63.7715C472.089 64.0083 471.985 64.2747 471.763 64.4079L469.241 65.9029L468.187 70.2248L469.745 72.7114C469.878 72.9334 469.849 73.1998 469.671 73.3922L465.072 78.2026C464.894 78.3802 464.612 78.4246 464.389 78.3062L461.823 76.8705L457.55 78.1286L456.185 80.7188C456.082 80.8964 455.904 81.0148 455.696 81.0148L455.681 81ZM449.762 78.4394L455.399 79.8011L456.675 77.3885C456.749 77.2553 456.868 77.1517 457.016 77.1221L461.734 75.7308C461.882 75.6864 462.031 75.7012 462.164 75.7752L464.553 77.1221L468.558 72.9334L467.104 70.6244C467.03 70.4912 467 70.3432 467.03 70.1952L468.187 65.4144C468.217 65.2664 468.321 65.148 468.439 65.074L470.798 63.6827L469.166 58.1323L466.437 58.2359C466.288 58.2359 466.14 58.1915 466.036 58.0879L462.476 54.6984C462.372 54.5948 462.298 54.4468 462.298 54.2988L462.268 51.5606L456.63 50.1989L455.355 52.6115C455.28 52.7447 455.162 52.8483 455.013 52.8779L450.281 54.2692C450.133 54.3136 449.984 54.2988 449.851 54.2248L447.462 52.8779L443.457 57.0666L444.91 59.3756C444.985 59.5088 445.014 59.6568 444.985 59.8048L443.827 64.5856C443.798 64.7336 443.694 64.852 443.575 64.926L441.216 66.3173L442.848 71.8677L445.578 71.7641C445.726 71.7641 445.875 71.8085 445.979 71.9121L449.539 75.3016C449.643 75.4052 449.717 75.5532 449.717 75.7012L449.747 78.4394H449.762Z" fill="black"/>
<path d="M456.008 71.7789C452.269 71.7789 449.213 68.7447 449.213 65C449.213 61.2553 452.254 58.2211 456.008 58.2211C459.761 58.2211 462.802 61.2553 462.802 65C462.802 68.7447 459.761 71.7789 456.008 71.7789ZM456.008 59.3312C452.877 59.3312 450.326 61.877 450.326 65C450.326 68.123 452.877 70.6688 456.008 70.6688C459.138 70.6688 461.689 68.123 461.689 65C461.689 61.877 459.138 59.3312 456.008 59.3312Z" fill="black"/>
</g>
<path d="M272.004 523.324C240.097 523.297 208.245 521.241 176.338 521.214C175.044 521.214 175.044 523.243 176.338 523.243C208.245 523.27 240.097 525.326 272.004 525.353C273.299 525.353 273.299 523.324 272.004 523.324Z" fill="black"/>
<path d="M270.978 524C262.779 547.617 251.667 570.45 240.393 592.714C239.8 593.878 241.553 594.906 242.146 593.742C253.528 571.315 264.694 548.321 272.947 524.541C273.379 523.297 271.41 522.783 271.005 524H270.978Z" fill="black"/>
<path d="M241.284 592.038C209.107 591.47 176.931 591.767 144.782 591.822C143.487 591.822 143.487 593.85 144.782 593.85C176.958 593.796 209.134 593.472 241.284 594.067C242.578 594.067 242.578 592.065 241.284 592.038Z" fill="black"/>
<path d="M175.582 521.674C165.009 545.155 154.464 568.637 143.891 592.119C143.351 593.309 145.105 594.337 145.644 593.147C156.217 569.665 166.762 546.183 177.335 522.702C177.874 521.511 176.121 520.483 175.582 521.674Z" fill="black"/>
<path d="M104.513 479.877C113.414 481.554 122.908 484.557 130.001 490.374C137.823 496.785 138.686 507.471 140.277 516.831C143.028 532.901 145.267 551.729 156.648 564.309C157.538 565.283 158.941 563.849 158.078 562.875C145.779 549.295 144.377 528.139 141.275 510.907C139.657 501.952 137.769 493.62 130.136 487.939C122.503 482.258 113.791 479.579 105.026 477.929C103.758 477.686 103.219 479.634 104.487 479.877H104.513Z" fill="black"/>
<path d="M48.4408 504.82C50.1669 526.408 48.0632 548.104 42.2375 568.962C41.8868 570.233 43.8287 570.747 44.1794 569.503C50.059 548.483 52.1897 526.597 50.4636 504.82C50.3557 503.521 48.3329 503.521 48.4408 504.82Z" fill="black"/>
<path d="M43.722 570.125C47.417 568.475 51.5975 568.123 55.6162 568.069C59.6349 568.015 63.9232 567.69 68.0498 567.095C77.193 565.824 86.2013 563.714 95.4253 563.416C96.7199 563.362 96.7199 561.333 95.4253 561.387C85.8776 561.685 76.5726 563.903 67.1598 565.202C59.1224 566.284 50.2759 565.012 42.6971 568.367C41.5104 568.881 42.5353 570.639 43.722 570.125Z" fill="black"/>
<path d="M94.9123 562.902C95.3708 569.178 96.099 575.455 97.1239 581.677C97.3397 582.975 99.2816 582.407 99.0658 581.136C98.0949 575.103 97.3936 569.016 96.9351 562.902C96.8542 561.604 94.8044 561.604 94.9123 562.902Z" fill="black"/>
<path d="M97.3125 581C87.8187 583.408 78.2171 585.383 68.7233 587.764C59.2295 590.144 50.3291 593.796 40.8353 595.636C33.8229 596.989 26.5947 597.394 19.5013 596.61C15.8602 596.204 11.1943 595.69 7.84986 593.959C6.2316 593.12 6.28554 591.686 5.63824 589.847C4.01998 585.221 2.96811 580.378 2.42869 575.509C1.48471 566.662 2.2399 557.708 3.99301 549.024C7.5262 531.791 14.6196 514.207 25.3001 500.167C37.1673 484.557 56.1548 473.682 76.1943 476.982C77.4619 477.199 78.0283 475.224 76.7337 475.035C59.8768 472.275 42.6154 479.093 30.6673 490.969C17.5055 504.035 9.1984 522.188 4.18181 539.853C1.56562 548.997 -0.052634 558.492 0.00130789 568.015C0.00130789 572.722 0.459814 577.429 1.4038 582.055C1.8623 584.328 2.42869 586.546 3.12994 588.738C3.69633 590.496 4.26272 593.526 5.50338 594.96C6.79799 596.475 10.2233 596.907 12.0304 597.34C17.937 598.774 24.0864 599.234 30.1548 598.963C41.2669 598.449 51.3001 594.743 61.8727 591.713C73.7399 588.332 85.9038 586.005 97.8519 582.948C99.1196 582.624 98.5802 580.676 97.3125 581Z" fill="black"/>
<path d="M120.804 508.851C122.342 524.487 121.964 539.934 118.7 555.354C118.431 556.626 120.373 557.167 120.642 555.895C123.96 540.313 124.364 524.676 122.827 508.851C122.692 507.552 120.669 507.552 120.804 508.851Z" fill="black"/>
<path d="M109.557 480.364C108.856 483.989 107.966 488.588 104.514 490.59C100.63 492.835 95.7753 491.888 91.6488 490.996C87.5222 490.103 82.5596 488.832 79.1882 485.937C75.8168 483.042 73.9289 479.255 72.1218 475.467C71.5554 474.277 69.8293 475.305 70.3687 476.495C72.3915 480.716 74.738 485.098 78.5139 487.993C82.5865 491.131 88.1695 492.402 93.1052 493.322C97.3127 494.107 102.194 494.54 105.97 492.024C109.746 489.508 110.717 484.909 111.499 480.878C111.742 479.607 109.8 479.065 109.557 480.337V480.364Z" fill="black"/>
<path d="M81.8853 457.045C81.265 460.453 80.5098 463.862 79.8625 467.27C79.2961 470.111 78.5409 473.411 75.9517 475.116C74.8729 475.819 75.8708 477.578 76.9766 476.874C79.8086 475.008 80.9683 471.788 81.6696 468.596C82.4517 464.944 83.1799 461.238 83.8812 457.559C84.1239 456.287 82.155 455.746 81.9393 457.017L81.8853 457.045Z" fill="black"/>
<path d="M102.815 461.157C102.222 467 101.844 473.06 102.95 478.876C103.193 480.148 105.135 479.607 104.892 478.335C103.813 472.708 104.245 466.811 104.811 461.157C104.946 459.858 102.923 459.858 102.788 461.157H102.815Z" fill="black"/>
<path d="M124.04 411.325C124.661 417.764 125.281 424.175 125.524 430.641C125.739 435.997 126.036 441.678 124.58 446.9C122.773 453.365 117.918 456.53 111.795 458.262C105.673 459.993 99.3888 461.102 93.1855 460.047C83.3411 458.343 75.115 451.472 69.9096 443.193C63.976 433.779 62.2768 422.444 61.9801 411.488C61.9531 410.189 59.9303 410.189 59.9573 411.488C60.4697 429.207 65.5133 447.928 81.561 457.721C89.5175 462.59 98.31 463.24 107.318 461.427C116.327 459.614 123.986 456.639 126.549 447.441C127.951 442.436 127.762 437.08 127.6 431.939C127.385 425.041 126.737 418.197 126.063 411.325C125.928 410.027 123.905 410.027 124.04 411.325Z" fill="black"/>
<path d="M128.491 409.946C92.1074 409.946 55.6966 409.946 19.3128 409.946C18.0181 409.946 18.0181 411.975 19.3128 411.975C55.6966 411.975 92.1074 411.975 128.491 411.975C129.786 411.975 129.786 409.946 128.491 409.946Z" fill="black"/>
<path d="M128.815 411.136C127.763 404.833 126.738 397.772 124.365 391.847C121.991 385.923 118.107 380.404 112.605 377.212C107.346 374.155 101.116 373.478 95.0472 373.235C84.3937 372.802 72.8771 373.884 64.6779 380.756C55.9393 388.06 52.9995 399.179 52.8916 410.595L128.815 411.136Z" fill="#FFD100"/>
<path d="M129.867 410.838C128.087 400.044 126.307 388.493 118.323 380.35C110.34 372.207 98.958 371.747 88.5741 372.072C78.1903 372.396 67.9414 374.966 60.875 382.866C53.8086 390.765 51.9476 400.666 51.7588 410.568C51.7588 411.163 52.2712 411.677 52.8646 411.677C75.0617 411.839 97.2588 412.002 119.456 412.164C122.558 412.164 125.659 412.218 128.788 412.218C130.217 412.218 130.217 410.027 128.788 410C106.591 409.837 84.3936 409.675 62.1965 409.513C59.0949 409.513 55.9932 409.459 52.8646 409.459L53.9704 410.568C54.1592 401.099 56.1551 391.198 62.7899 384.056C69.4248 376.914 79.8625 374.425 89.653 374.263C99.4434 374.101 110.421 374.831 117.487 382.649C124.553 390.468 126.091 401.343 127.736 411.406C127.979 412.813 130.082 412.218 129.867 410.811V410.838Z" fill="black"/>
<path d="M103.623 448.847C100.225 448.685 97.0423 446.764 95.2622 443.87C94.5879 442.761 92.8348 443.789 93.5091 444.898C95.6668 448.415 99.4966 450.687 103.623 450.876C104.163 450.876 104.648 450.39 104.648 449.848C104.648 449.28 104.19 448.847 103.623 448.82V448.847Z" fill="black"/>
<path d="M104.811 411.704C105.89 415.897 105.971 420.226 106.213 424.5C106.321 426.691 106.456 428.883 106.564 431.074C106.591 431.615 106.618 432.156 106.645 432.724C106.645 432.94 106.861 433.914 106.699 434.077C106.699 434.266 106.699 434.266 106.672 434.077C106.429 434.023 106.186 433.914 105.971 433.779C105.539 433.536 105.189 433.238 104.865 432.859C103.975 431.885 102.545 433.346 103.435 434.293C104.487 435.429 107.05 437.107 108.317 435.402C108.937 434.564 108.722 433.4 108.668 432.454C108.587 430.966 108.506 429.478 108.425 427.99C108.128 422.39 108.182 416.601 106.78 411.136C106.456 409.864 104.514 410.405 104.838 411.677L104.811 411.704Z" fill="black"/>
<path d="M71.0972 422.742C68.7238 424.04 68.1304 427.07 68.7238 429.532C69.0474 430.966 69.8026 432.345 70.9893 433.238C72.1761 434.131 73.7674 434.455 75.1429 433.941C75.6553 433.752 76.0059 433.265 75.8441 432.697C75.7093 432.21 75.1159 431.777 74.6034 431.994C73.7404 432.318 72.8234 432.156 72.1221 431.561C71.286 430.884 70.8815 429.856 70.6657 428.855C70.342 427.313 70.6657 425.312 72.1491 424.5C73.2819 423.878 72.257 422.119 71.1242 422.742H71.0972Z" fill="black"/>
<path d="M145.86 589.765C139.683 587.601 133.858 584.463 128.679 580.432C127.654 579.648 126.225 581.054 127.25 581.866C132.725 586.113 138.793 589.441 145.32 591.74C146.561 592.173 147.074 590.198 145.86 589.793V589.765Z" fill="black"/>
<path d="M144.188 589.793C130.406 590.09 116.624 590.171 102.868 590.036C100.252 590.009 100.252 594.067 102.868 594.094C116.651 594.256 130.433 594.175 144.188 593.85C146.777 593.796 146.804 589.738 144.188 589.793Z" fill="black"/>
<path d="M97.3942 564.715C102.681 562.415 107.832 559.493 113.415 557.951C120.212 556.112 125.498 558.925 130.38 563.524C132.564 565.58 134.749 567.799 136.313 570.396C136.853 571.288 137.446 572.289 137.743 573.317C137.878 573.75 138.255 575.022 137.986 575.428C137.149 576.726 136.125 575.482 135.45 574.832C131.782 571.207 128.627 567.068 123.772 565.012C122.585 564.498 121.56 566.257 122.747 566.771C126.172 568.204 128.761 570.72 131.27 573.371C132.888 575.076 135.396 578.998 138.201 578.241C140.602 577.592 140.17 574.345 139.577 572.56C138.579 569.53 136.448 566.879 134.317 564.606C129.759 559.737 124.015 554.786 116.921 555.3C109.828 555.814 102.896 560.143 96.3963 562.983C95.2096 563.497 96.2345 565.256 97.4212 564.742L97.3942 564.715Z" fill="black"/>
<path d="M135.908 577.051C135.287 577.565 134.532 578.187 133.669 578.214C132.806 578.241 132.078 577.619 131.403 577.186C129.893 576.185 128.491 575.103 127.115 573.94C124.688 571.857 122.287 569.746 119.267 568.61C118.053 568.15 117.513 570.125 118.727 570.558C122.152 571.83 124.715 574.67 127.547 576.888C129.003 578.025 130.621 579.431 132.374 580.027C134.289 580.676 135.881 579.648 137.337 578.484C138.362 577.673 136.906 576.239 135.908 577.051Z" fill="black"/>
<path d="M130.271 579.323C129.84 580.73 126.36 578.376 125.767 577.97C124.311 576.915 122.989 575.671 121.452 574.697C120.589 574.156 119.672 573.615 118.782 573.101C117.568 572.398 116.192 571.721 114.763 571.721C113.468 571.721 113.468 573.75 114.763 573.75C116.058 573.75 117.487 574.643 118.593 575.346C119.86 576.158 121.128 576.861 122.315 577.808C123.852 579.026 125.363 580.324 127.17 581.109C128.977 581.893 131.485 582.191 132.213 579.864C132.591 578.62 130.649 578.079 130.271 579.323Z" fill="black"/>
<path d="M125.768 579.756C124.985 581.433 123.961 581.352 122.423 580.649C121.371 580.189 120.346 579.648 119.348 579.107C117.353 577.97 115.492 576.456 113.172 576.104C108.182 575.346 103.382 577.727 98.4999 578.376C97.2323 578.539 97.2053 580.568 98.4999 580.405C101.251 580.026 103.894 579.242 106.618 578.62C109.504 577.97 112.633 577.456 115.303 579.026C117.649 580.378 119.888 581.812 122.423 582.84C124.608 583.76 126.523 582.894 127.521 580.757C128.087 579.594 126.334 578.566 125.768 579.729V579.756Z" fill="black"/>
<path d="M115.977 418.332C115.896 418.061 115.815 417.764 115.68 417.52C115.653 417.223 115.464 416.925 115.168 416.79C114.979 416.709 114.79 416.709 114.628 416.763C114.116 416.736 113.63 417.006 113.388 417.493C113.145 417.98 113.172 418.602 113.172 419.144C113.172 419.685 113.199 420.199 113.28 420.713C113.28 420.848 113.334 420.983 113.361 421.145C113.388 421.876 113.495 422.606 113.711 423.337C113.792 423.607 113.873 423.905 114.008 424.148C114.035 424.446 114.224 424.743 114.52 424.879C114.709 424.96 114.898 424.96 115.06 424.906C115.572 424.933 116.058 424.662 116.3 424.175C116.543 423.688 116.516 423.066 116.516 422.525C116.516 421.984 116.489 421.47 116.408 420.956C116.408 420.821 116.354 420.686 116.327 420.523C116.3 419.793 116.193 419.062 115.977 418.332Z" fill="black"/>
<path d="M95.2356 418.332C95.1546 418.061 95.0737 417.764 94.9389 417.52C94.9119 417.223 94.7231 416.925 94.4264 416.79C94.2376 416.709 94.0488 416.709 93.887 416.763C93.3746 416.736 92.8891 417.006 92.6463 417.493C92.4036 417.98 92.4306 418.602 92.4306 419.144C92.4306 419.685 92.4576 420.199 92.5385 420.713C92.5385 420.848 92.5924 420.983 92.6194 421.145C92.6463 421.876 92.7542 422.606 92.97 423.337C93.0509 423.607 93.1318 423.905 93.2667 424.148C93.2937 424.446 93.4824 424.743 93.7791 424.879C93.9679 424.96 94.1567 424.96 94.3185 424.906C94.831 424.933 95.3165 424.662 95.5592 424.175C95.8019 423.688 95.775 423.066 95.775 422.525C95.775 421.984 95.748 421.47 95.6671 420.956C95.6671 420.821 95.6131 420.686 95.5862 420.523C95.5592 419.793 95.4513 419.062 95.2356 418.332Z" fill="black"/>
<defs>
<clipPath id="clip0_828_2633">
<rect width="595" height="362" fill="white" transform="translate(47 70)"/>
</clipPath>
<clipPath id="clip1_828_2633">
<rect width="92" height="49" fill="white" transform="translate(261 31)"/>
</clipPath>
<clipPath id="clip2_828_2633">
<rect width="74.98" height="50.18" fill="white" transform="translate(299 463)"/>
</clipPath>
<clipPath id="clip3_828_2633">
<rect width="60" height="60" fill="white" transform="translate(465 45.6755) rotate(-49.5753)"/>
</clipPath>
<clipPath id="clip4_828_2633">
<rect width="32" height="32" fill="white" transform="translate(440 49)"/>
</clipPath>
</defs>
</svg>
