<svg width="352" height="437" viewBox="0 0 352 437" fill="none" xmlns="http://www.w3.org/2000/svg">
<path opacity="0.1" d="M417.598 219.238C417.598 250.445 409.867 279.819 396.438 305.798C388.202 308.268 380.999 311.01 373.987 313.703C356.705 320.336 340.381 326.614 306.503 327.77C278.181 328.72 261.916 325.333 246.998 321.046V245.357C304.866 236.114 349.271 186.048 349.271 125.673V73.8309C392.146 109.383 417.598 162.134 417.598 219.238ZM296.828 366.313C300.326 366.313 304.005 366.247 307.842 366.123C327.126 365.462 341.704 363.315 353.893 360.456C320.362 390.318 276.337 408.631 227.996 408.631C177.877 408.631 132.372 388.963 98.4272 357.119C113.403 351.568 129.544 346.794 158.651 345.761C192.588 344.63 209.283 349.718 226.962 355.12C245.022 360.63 263.628 366.313 296.828 366.313ZM208.596 310.713C195.25 308.16 179.241 306.616 157.328 307.425C117.024 308.829 96.8891 316.569 77.4154 324.045C75.5218 324.772 73.5702 325.449 71.6766 326.16C50.7392 295.695 38.4184 258.896 38.4184 219.238C38.4184 162.357 63.73 109.739 106.341 74.1778V125.673C106.341 186.048 150.746 236.122 208.605 245.357V310.713H208.596ZM456 219.238C456 129.15 402.548 47.3565 319.824 10.8458L310.811 6.86434V48.9095L310.869 48.9425V125.673C310.869 164.819 283.573 197.629 246.998 206.327V0H208.588V206.327C172.031 197.637 144.726 164.819 144.726 125.673V49.1325L144.776 49.1077V7.02955L135.754 11.0358C53.2779 47.6291 0 129.357 0 219.238C0 344.828 102.272 447 227.988 447C353.728 446.992 456 344.82 456 219.238Z" fill="white"/>
</svg>
