<svg width="309" height="98" viewBox="0 0 309 98" fill="none" xmlns="http://www.w3.org/2000/svg">
<g clip-path="url(#clip0_1476_4216)">
<path d="M46.95 59.2045C46.8121 59.9367 47.4646 60.5311 48.1665 60.4038C48.9569 60.2661 49.703 60.1335 50.366 60.0556C50.847 59.9542 51.3747 60.2501 51.4812 60.7745C51.637 61.3378 51.2964 61.8701 50.727 61.9818C49.6715 62.1507 48.3949 62.3456 47.0404 62.6392C46.6036 62.7353 46.2864 63.0859 46.1563 63.5038C46.047 64.0984 45.9819 64.6877 45.8336 65.3316C44.6417 71.9597 43.9753 76.9599 43.6002 80.6283C43.5768 80.81 43.5872 80.8983 43.6964 81.0644C44.5696 82.3935 45.1439 83.8472 45.3698 85.3867C45.7022 87.4506 45.3769 89.6366 44.5263 91.9291C44.3469 92.3081 43.8683 93.5725 42.9401 93.6817C42.7634 93.7025 42.6256 93.674 42.4436 93.6506C41.5181 93.4015 41.2402 92.1814 41.0948 90.9457C40.9884 89.6606 41.007 87.9134 41.101 85.6652C41.1531 84.5852 41.2678 83.2741 41.3903 81.6489C41.4241 81.5554 41.4033 81.3789 41.2941 81.2128C38.4272 77.7915 32.8174 75.0509 25.4811 73.6319C23.5574 73.2765 21.5946 72.9705 19.6422 72.7527C19.195 72.7606 18.8128 72.9398 18.6386 73.363C15.7362 79.1632 13.2316 84.9166 11.2262 90.3428C11.0623 90.8542 10.5137 91.1425 10.0015 90.979C9.44522 90.8207 9.15675 90.273 9.35963 89.7122C11.1908 84.7092 13.4821 79.4283 16.0725 74.0228C16.447 73.3971 15.9505 72.6053 15.1836 72.5613C11.7285 72.5203 8.44238 72.7726 5.50714 73.3416C4.97677 73.404 4.44908 73.1081 4.3322 72.4955C4.27509 72.01 4.58194 71.5712 5.05253 71.3816C8.58324 70.1609 13.6115 68.7193 19.1752 67.2594C19.4352 67.1841 19.6796 66.9763 19.8305 66.7349C23.0605 60.6724 26.6103 54.6619 30.4277 49.0225C34.2452 43.3831 37.8858 38.5252 41.1127 35.103C44.6023 31.2472 47.2154 29.4633 48.9702 29.5253C49.4616 29.5123 49.8463 29.7355 50.1634 30.1456C50.9016 31.0879 51.1248 32.9856 50.1903 39.8967C49.5603 44.4452 48.4308 50.8422 46.9007 59.1656L46.95 59.2045ZM17.9711 69.5935C17.2302 69.7701 16.5828 69.9805 15.886 70.152C15.665 70.178 15.7065 70.531 15.9275 70.505C16.3747 70.4972 16.7335 70.4997 17.1026 70.5905C17.5498 70.5827 17.8878 70.4087 18.1114 70.0244C18.1062 69.9803 18.1452 69.931 18.1349 69.8427C18.2025 69.6558 18.0933 69.4896 17.9217 69.5546L17.9711 69.5935ZM42.7116 63.5511C36.4147 64.8735 28.5735 66.7803 21.4446 68.648C21.1404 68.7285 20.896 68.9362 20.7451 69.1777C20.7113 69.2712 20.6827 69.4088 20.5995 69.4633C20.225 70.089 20.6721 70.8418 21.361 70.9845C22.9 71.1167 24.4104 71.3864 25.926 71.7003C32.2978 72.9195 37.5802 75.1618 40.9646 78.03C41.3103 78.3025 41.8303 78.1519 41.9057 77.6508C42.3613 74.2861 42.9444 70.1011 43.9099 64.9762L43.8891 64.7997C44.066 64.0182 43.4136 63.4238 42.7168 63.5952L42.7116 63.5511ZM48.2431 39.723C48.6387 36.9918 48.8081 35.0032 48.8629 33.5649C48.8892 32.2643 48.7333 31.7009 48.6631 31.4855C48.1379 31.592 46.3778 32.2465 42.5554 36.3204C39.4558 39.6828 35.8439 44.4031 32.0654 49.9932C29.0229 54.6018 26.0895 59.3765 23.3484 64.2628C22.9011 65.0313 23.5899 65.9347 24.5076 65.7372C31.2882 63.9553 38.3104 62.3238 43.8715 61.2222C44.3083 61.1261 44.6308 60.8197 44.6672 60.368C46.2963 51.3618 47.4571 44.4689 48.1937 39.6841L48.2431 39.723ZM43.4563 85.8803L43.42 85.5713C43.42 85.5713 43.3498 85.3559 43.2172 85.3715C43.173 85.3767 43.134 85.426 43.1548 85.6025C43.0454 86.9577 42.9932 88.0377 43.0476 88.8815C43.0138 88.9749 43.2894 89.032 43.318 88.8944C43.508 87.8429 43.5653 86.8071 43.4563 85.8803Z" fill="#121212"/>
<path d="M53.0481 77.9061C52.5619 77.9632 52.055 77.8439 51.704 77.5272C51.166 77.1431 50.6592 76.2631 51.0833 74.1549C51.6089 71.7664 53.5178 68.1861 55.9278 67.7236C56.5414 67.6067 57.3967 67.6403 58.2363 68.3022C60.6029 64.0416 63.3026 58.0415 66.5328 50.4577C66.9152 49.5179 67.3313 48.4846 67.7865 47.4019C67.9946 46.8853 68.5535 46.6853 69.0163 46.8098C69.5778 47.0122 69.8663 47.56 69.6634 48.1208C69.203 49.1593 68.7817 50.1485 68.4046 51.1325C65.8973 57.2441 64.3105 62.0394 63.595 65.4794C62.7805 69.6022 63.4224 70.869 63.8331 71.3128C65.0886 72.4627 69.3006 70.1775 72.0775 68.6428C73.0083 68.1753 73.8897 67.6689 74.6489 67.2664C75.1585 67.0275 75.7148 67.1858 75.9929 67.6452C76.2762 68.1488 76.0837 68.7979 75.5741 69.0368C74.8149 69.4393 73.9673 69.8523 73.0468 70.408C69.217 72.514 64.8776 74.859 62.5251 72.7643C61.6752 72.0141 61.2646 70.8096 61.2441 69.1117C61.226 68.5769 60.5319 68.3901 60.2355 68.9172C56.5295 75.8857 54.6522 77.4489 53.4354 77.771C53.2638 77.8359 53.1755 77.8463 53.0871 77.8567L53.0481 77.9061ZM56.3383 69.6888C56.3383 69.6888 55.9899 69.7745 55.8625 69.8343C55.0746 70.3744 54.1437 71.6025 53.5091 73.0642C53.3114 73.6691 53.1475 74.1806 53.0668 74.6375C52.9472 75.1438 53.6126 75.4682 53.9299 75.1177C54.6085 74.4114 55.5343 73.1392 56.9308 70.9167C56.9646 70.8232 56.9542 70.735 56.9932 70.6856C57.2949 70.2027 56.9128 69.6212 56.3825 69.6836L56.3383 69.6888Z" fill="#121212"/>
<path d="M74.4117 74.006C74.4117 74.006 74.1413 73.9931 73.9645 74.0139C72.8778 73.918 72.4516 73.3417 72.228 72.9653C71.5654 71.5219 72.8838 69.3981 73.7368 68.2687C76.0901 65.0387 78.7551 63.6961 80.2448 63.7893C80.8297 63.81 81.1962 64.2591 81.2143 64.7939C81.1882 65.3339 80.6994 65.7494 80.1587 65.7235C79.5295 65.708 77.3871 66.5417 75.3068 69.4263C75.078 69.7664 74.8049 70.1117 74.6255 70.4908C74.1547 71.4411 74.8306 71.8537 75.5794 71.363C75.79 71.2487 75.9122 71.1448 76.1228 71.0306C76.3231 70.828 76.5337 70.7138 76.6559 70.6099C76.9003 70.4022 77.1109 70.2879 77.3111 70.0854C77.5555 69.8777 77.7999 69.6699 78.0444 69.4622C78.1276 69.4077 78.2446 69.2597 78.372 69.2C80.1505 67.5589 81.7471 65.8946 81.9369 65.6038C82.2048 65.2143 82.8573 65.0481 83.2966 65.3543C83.6424 65.6269 83.8373 66.1409 83.663 66.5641C83.3925 67.3118 83.499 67.8362 83.8993 68.1918C84.2008 68.4696 85.3004 69.0561 87.9705 68.5183C90.4195 68.0065 93.4979 66.7495 96.9403 64.7785C97.3954 64.4565 98.0453 64.6485 98.2843 65.1573C98.5676 65.6609 98.3648 66.2217 97.9045 66.4996C94.2957 68.5796 91.0509 69.9457 88.3367 70.4887C85.7992 71.0109 83.8364 70.7049 82.6459 69.7263C82.4587 69.6588 82.3496 69.4927 82.295 69.4096C81.9883 69.0878 81.4865 69.0126 81.2083 69.3138C80.7299 69.8175 80.202 70.2823 79.7184 70.7419C76.7516 73.328 75.2618 73.9955 74.422 74.0943L74.4117 74.006Z" fill="#121212"/>
<path d="M95.407 74.2208C95.407 74.2208 95.0483 74.2183 94.8065 74.0678C94.4712 73.8835 94.2373 73.4188 94.3231 73.006C94.841 70.171 96.3601 65.5626 97.806 63.3791C98.1076 62.8961 98.716 62.7351 99.1501 62.9972C99.6778 63.2931 99.7999 63.9499 99.4931 64.3887C99.1082 64.9262 98.7545 65.7284 98.3618 66.58C98.1823 66.9591 98.7204 67.3432 99.0428 67.0368C99.4771 66.5383 99.8333 66.1384 100.283 65.7723C103.247 62.7837 105.523 61.1738 107.114 60.9866C107.6 60.9294 107.979 61.1085 108.242 61.4356C108.876 62.2558 108.392 63.4761 107.102 66.223C107.045 66.4982 106.899 66.7838 106.754 67.0694C106.501 67.5912 107.138 68.0533 107.544 67.6923C107.788 67.4846 108.038 67.321 108.238 67.1185C110.414 65.4307 112.619 63.6053 114.463 63.6569C115.323 63.7346 115.939 64.0201 116.467 64.316C117.853 65.0479 119.924 66.2807 132.685 60.4842C133.195 60.2453 133.811 60.5308 134.006 61.0448C134.245 61.5536 133.953 62.1248 133.444 62.3637C127.529 65.0282 123.223 66.5191 120.312 66.9063C117.571 67.2287 116.329 66.5695 115.466 66.0893C114.987 65.8324 114.701 65.687 114.343 65.6845C113.261 65.6327 111.095 67.4088 109.501 68.7149C107.619 70.2339 106.386 71.1843 105.331 71.3532C104.801 71.4156 104.333 71.2469 104.021 70.8809C103.327 69.9334 103.961 68.4717 105.264 65.4548C105.415 65.2134 105.517 64.933 105.667 64.6915C105.847 64.3124 105.353 63.9231 105.025 64.1854C104.115 64.8293 103.021 65.8082 101.658 67.1766C99.4896 69.311 97.1675 72.045 96.0727 73.7846C95.9218 74.0261 95.628 74.1949 95.3628 74.226L95.407 74.2208Z" fill="#121212"/>
<path d="M192.447 42.0893C192.309 42.8214 192.961 43.4158 193.663 43.2885C194.454 43.1508 195.2 43.0183 195.863 42.9403C196.344 42.839 196.871 43.1349 196.978 43.6593C197.134 44.2226 196.793 44.7549 196.224 44.8666C195.168 45.0355 193.892 45.2304 192.537 45.524C192.1 45.6201 191.783 45.9706 191.653 46.3886C191.544 46.9831 191.479 47.5725 191.33 48.2163C190.138 54.8444 189.472 59.8446 189.097 63.513C189.073 63.6948 189.084 63.783 189.193 63.9492C190.066 65.2782 190.641 66.732 190.866 68.2715C191.199 70.3353 190.874 72.5213 190.023 74.8138C189.844 75.1929 189.365 76.4573 188.437 76.5664C188.26 76.5872 188.122 76.5587 187.94 76.5354C187.015 76.2863 186.737 75.0661 186.591 73.8304C186.485 72.5454 186.504 70.7982 186.598 68.5499C186.65 67.4699 186.764 66.1588 186.887 64.5336C186.921 64.4402 186.9 64.2636 186.791 64.0975C183.924 60.6763 178.314 57.9356 170.978 56.5167C169.054 56.1613 167.091 55.8552 165.139 55.6375C164.692 55.6453 164.309 55.8245 164.135 56.2477C161.233 62.0479 158.728 67.8013 156.723 73.2275C156.559 73.739 156.01 74.0272 155.498 73.8637C154.942 73.7055 154.653 73.1577 154.856 72.5969C156.687 67.5939 158.979 62.313 161.569 56.9075C161.944 56.2818 161.447 55.4901 160.68 55.446C157.225 55.405 153.939 55.6574 151.004 56.2264C150.473 56.2887 149.946 55.9929 149.829 55.3802C149.772 54.8947 150.079 54.4559 150.549 54.2664C154.08 53.0456 159.108 51.604 164.672 50.1441C164.932 50.0688 165.176 49.8611 165.327 49.6196C168.557 43.5572 172.151 37.5414 175.924 31.9072C179.742 26.2679 183.382 21.41 186.609 17.9878C190.104 14.1761 192.673 12.3974 194.477 12.4984C194.969 12.4853 195.353 12.7085 195.67 13.1186C196.409 14.0609 196.632 15.9587 195.697 22.8697C195.067 27.4182 193.938 33.8152 192.408 42.1386L192.447 42.0893ZM163.468 52.4782C162.727 52.6549 162.079 52.8653 161.383 53.0367C161.162 53.0627 161.203 53.4158 161.424 53.3898C161.871 53.3819 162.23 53.3845 162.599 53.4753C163.046 53.4674 163.384 53.2934 163.608 52.9092C163.603 52.865 163.642 52.8157 163.632 52.7274C163.699 52.5405 163.59 52.3744 163.418 52.4393L163.468 52.4782ZM188.208 46.4359C181.911 47.7583 174.07 49.665 166.941 51.5327C166.637 51.6132 166.393 51.821 166.242 52.0624C166.208 52.1559 166.179 52.2935 166.096 52.348C165.722 52.9738 166.169 53.7266 166.858 53.8692C168.397 54.0014 169.907 54.2712 171.423 54.5851C177.794 55.8043 183.077 58.0465 186.461 60.9147C186.807 61.1873 187.327 61.0366 187.402 60.5355C187.858 57.1709 188.441 52.9858 189.407 47.8609L189.386 47.6844C189.563 46.903 188.91 46.3085 188.213 46.48L188.208 46.4359ZM193.74 22.6078C194.135 19.8766 194.305 17.8879 194.36 16.4497C194.386 15.149 194.23 14.5857 194.16 14.3702C193.635 14.4767 191.874 15.1312 188.052 19.2051C184.952 22.5676 181.341 27.2879 177.562 32.8779C174.52 37.4865 171.586 42.2612 168.845 47.1476C168.398 47.9161 169.087 48.8194 170.004 48.622C176.785 46.84 183.807 45.2086 189.368 44.107C189.805 44.0108 190.127 43.7044 190.164 43.2527C191.793 34.2465 192.954 27.3536 193.69 22.5688L193.74 22.6078ZM188.953 68.765L188.917 68.4561C188.917 68.4561 188.846 68.2406 188.714 68.2562C188.67 68.2614 188.631 68.3107 188.651 68.4873C188.542 69.8425 188.49 70.9225 188.544 71.7662C188.51 71.8597 188.786 71.9167 188.815 71.7791C189.005 70.7277 189.062 69.6918 188.953 68.765Z" fill="#121212"/>
<path d="M198.025 59.4202C197.716 59.4566 197.297 59.3268 197.084 59.0387C196.575 58.5169 196.588 57.4863 197.046 56.0454C197.373 55.0224 198.047 53.5114 199.397 51.6524C199.709 51.2577 200.416 51.1745 200.816 51.5301C201.211 51.8416 201.24 52.4647 200.972 52.8541C200.587 53.3916 200.28 53.8304 200.017 54.264C199.794 54.6482 200.293 55.0817 200.665 54.8142C202.175 53.5627 204.339 52.1449 207.477 51.0151C207.82 50.8852 208.811 50.545 209.551 51.129C210.258 51.8065 210.009 52.7307 209.764 53.6991C209.639 54.1612 209.395 55.1296 209.597 55.3295C209.597 55.3295 209.855 55.6124 211.131 55.4175C214.49 55.0224 221.281 51.8074 224.492 49.7741C224.992 49.4469 225.642 49.6389 225.925 50.1425C226.159 50.6072 226.005 51.2069 225.545 51.4848C222.084 53.6816 214.989 56.9772 211.365 57.4035C209.823 57.6296 208.765 57.3961 208.141 56.6641C207.632 56.1424 207.505 55.4415 207.609 54.8028C207.622 54.5328 207.635 54.2628 207.736 53.9824C207.773 53.5307 207.378 53.2192 207.034 53.349C203.446 54.845 201.512 56.6833 200.139 57.9634C199.577 58.5217 199.094 58.9813 198.589 59.2643C198.418 59.3292 198.29 59.389 198.113 59.4098L198.025 59.4202Z" fill="#121212"/>
<path d="M225.372 57.635C224.754 57.7078 224.187 57.4613 223.776 57.0174C223.088 56.1141 222.82 54.2215 225.328 46.5885C226.896 42.0191 228.967 36.7642 230.496 33.0048C231.362 30.8447 232.155 28.8274 232.291 28.4535C232.405 27.9031 232.899 27.5318 233.357 27.6122C233.908 27.7264 234.279 28.2196 234.209 28.7648C234.173 29.2165 233.678 30.3485 232.378 33.7678C230.882 37.4337 228.835 42.5069 227.306 47.027C226.476 49.496 225.904 51.4873 225.584 52.9568C225.449 53.3307 225.436 53.6007 225.378 53.8758C225.256 54.7404 226.14 55.3971 226.899 54.9945C228.079 54.3635 229.4 53.4027 230.81 52.4316C233.001 50.8762 235.443 49.1571 238.051 48.0897C238.56 47.8508 239.122 48.0532 239.361 48.562C239.644 49.0656 239.402 49.6758 238.893 49.9147C236.501 50.912 234.098 52.5816 232.029 54.0332C229.543 55.7574 227.346 57.2687 225.456 57.5805L225.411 57.5857L225.372 57.635Z" fill="#121212"/>
<path d="M237.808 54.7852C237.808 54.7852 237.538 54.7722 237.361 54.793C236.274 54.6972 235.848 54.1209 235.625 53.7445C234.962 52.3011 236.28 50.1773 237.133 49.0479C239.487 45.8179 242.152 44.4753 243.641 44.5685C244.226 44.5892 244.593 45.0383 244.611 45.5731C244.585 46.1131 244.096 46.5285 243.555 46.5027C242.926 46.4872 240.784 47.3209 238.703 50.2055C238.474 50.5456 238.201 50.8909 238.022 51.27C237.551 52.2202 238.227 52.6329 238.976 52.1421C239.187 52.0279 239.309 51.924 239.519 51.8098C239.72 51.6072 239.93 51.493 240.052 51.3891C240.297 51.1814 240.507 51.0671 240.708 50.8646C240.952 50.6569 241.196 50.4491 241.441 50.2414C241.524 50.1869 241.641 50.0389 241.768 49.9791C243.547 48.3381 245.144 46.6738 245.333 46.383C245.601 45.9935 246.254 45.8273 246.693 46.1335C247.039 46.4061 247.234 46.9201 247.059 47.3433C246.789 48.091 246.895 48.6154 247.296 48.971C247.597 49.2487 248.697 49.8353 251.367 49.2975C253.816 48.7857 256.894 47.5287 260.337 45.5577C260.792 45.2357 261.442 45.4277 261.681 45.9365C261.964 46.4401 261.761 47.0009 261.301 47.2788C257.692 49.3588 254.447 50.7249 251.733 51.2679C249.196 51.7901 247.233 51.4841 246.042 50.5055C245.855 50.438 245.746 50.2719 245.691 50.1888C245.385 49.867 244.883 49.7917 244.605 50.0929C244.126 50.5967 243.599 51.0615 243.115 51.521C240.148 54.1072 238.658 54.7747 237.819 54.8734L237.808 54.7852Z" fill="#121212"/>
<path d="M274.491 50.47C273.43 50.5948 272.598 50.3794 271.985 49.7357C271.119 48.8531 270.997 47.4356 271.107 46.0805C271.143 45.6287 270.66 45.3276 270.249 45.6444C269.682 46.1586 268.949 46.7817 268.572 47.0051C266.367 48.8305 263.886 50.5988 261.892 50.7886C260.832 50.9134 260.278 50.3969 260.021 50.1139C259.119 48.9225 259.818 46.8714 260.703 44.4854C260.882 44.1064 261.046 43.5949 261.07 43.4132C261.184 42.8628 261.678 42.4915 262.268 42.5563C262.775 42.6756 263.152 43.213 263.038 43.7634C262.98 44.0386 262.801 44.4176 262.575 45.1601C262.304 45.9079 261.955 46.7543 261.773 47.4916C261.734 47.5409 261.74 47.585 261.75 47.6733C261.591 48.2289 262.145 48.7455 262.704 48.5455C262.964 48.4701 263.213 48.3065 263.468 48.1871C265.28 47.2133 267.441 45.393 269.03 44.0428C270.99 42.4251 271.685 41.8513 272.353 41.8174C272.662 41.781 272.992 41.9212 273.245 42.16C273.66 42.648 273.551 43.2425 273.338 44.4757C273.148 45.5272 272.69 47.7288 273.298 48.3284C273.55 48.5672 273.948 48.5204 274.301 48.4788C275.932 48.2423 277.944 47.0659 280.245 45.6767C282.179 44.599 284.358 43.3135 286.75 42.3163C287.26 42.0773 287.876 42.3628 288.076 42.921C288.227 43.4402 287.974 43.962 287.46 44.1568C285.234 45.045 283.138 46.2759 281.292 47.3432C278.776 48.8026 276.597 50.088 274.613 50.3661L274.436 50.3869L274.491 50.47Z" fill="#121212"/>
<path d="M282.738 64.5786C282.429 64.615 282.197 64.5528 282.094 64.4308C281.329 64.0285 281.225 63.1458 281.34 61.8348C281.392 60.7548 281.624 59.2957 282.001 57.5511C282.865 53.4672 284.449 48.2695 286.444 42.7551C288.434 37.1965 290.549 31.9364 292.439 27.8212C295.789 20.4919 296.936 19.9543 297.445 19.7154C298.127 19.4115 298.605 19.6685 298.868 19.9955C299.382 20.5614 299.078 21.4026 298.539 22.5398C298.064 23.4459 297.421 24.4611 296.685 25.4425C296.49 25.6892 296.28 25.8035 296.014 25.8347C295.705 25.871 295.466 26.1229 295.32 26.4085C294.951 27.0784 294.592 27.8365 294.205 28.7322C292.348 32.7539 290.228 37.9698 288.311 43.3856C287.928 44.3255 287.679 45.2497 287.335 46.1403C287.075 46.9763 287.881 47.7316 288.739 47.407C289.204 47.1732 289.68 47.0278 290.19 46.7889C294.553 45.0228 300.499 42.6231 303.203 40.4705C303.658 40.1485 304.243 40.1692 304.604 40.5741C304.971 41.0232 304.955 41.6515 304.5 41.9735C301.556 44.3779 295.389 46.8036 290.899 48.6294C289.875 49.0631 288.889 49.4475 288.12 49.7617C287.654 49.9955 287.392 50.4291 287.493 50.9093C287.688 52.184 287.649 53.7547 287.404 55.4837C286.852 58.4122 285.627 61.3305 283.888 63.6828C283.464 64.2696 283.087 64.4929 282.733 64.5345L282.738 64.5786ZM285.668 52.9138C285.668 52.9138 285.322 52.6413 285.215 52.8775C284.7 54.5937 284.331 56.0242 284.102 57.125C283.935 57.9947 283.753 58.732 283.649 59.3707C283.587 59.6018 283.912 59.6978 284.023 59.5056C284.624 58.1374 285.082 56.6965 285.358 55.2322C285.524 54.3625 285.613 53.5914 285.629 52.9632L285.668 52.9138Z" fill="#121212"/>
</g>
<circle cx="307.5" cy="38.5" r="1.5" fill="#FFD400"/>
<defs>
<clipPath id="clip0_1476_4216">
<rect width="302.034" height="62.9237" fill="white" transform="translate(0 35.2858) rotate(-6.70904)"/>
</clipPath>
</defs>
</svg>
