<svg width="347" height="421" viewBox="0 0 347 421" fill="none" xmlns="http://www.w3.org/2000/svg">
<g clip-path="url(#clip0_2352_10958)">
<path d="M123.982 100.915C132.032 94.899 143.321 94.7992 152.807 98.1897C162.293 101.58 170.343 107.929 178.192 114.178C193.757 126.543 209.321 138.908 224.886 151.307C234.973 159.317 245.127 167.361 256.249 173.91C272.315 183.316 290.118 189.366 306.484 198.208C322.85 207.049 338.382 219.548 344.962 236.899C345.596 238.561 346.131 240.356 345.696 242.084C344.728 245.707 339.885 246.804 336.311 245.674C332.737 244.544 329.798 241.951 326.324 240.522C316.872 236.699 305.849 242.782 300.305 251.325C294.76 259.867 293.257 270.238 291.086 280.143C285.775 304.408 274.286 329.305 252.408 341.304C236.376 350.079 217.137 350.611 198.867 349.282C193.757 348.916 188.479 348.418 183.536 349.847C178.259 351.376 173.816 354.999 170.075 359.054C162.794 366.899 157.584 376.472 150.503 384.482C143.422 392.493 133.435 399.174 122.747 398.244C113.428 397.413 105.512 391.064 96.3601 389.203C85.0706 386.909 73.7144 391.629 62.2913 393.092C60.4877 393.324 58.5839 393.457 56.9806 392.693C53.2731 390.931 53.1061 385.812 53.7742 381.79C56.5464 365.104 64.763 349.647 67.1344 332.895C68.4371 323.621 67.9027 314.214 67.6355 304.84C66.8338 276.919 68.5039 248.998 70.1405 221.11C70.9755 206.817 71.8439 192.457 74.9502 178.463C79.0251 160.082 86.8409 142.797 94.6232 125.646C97.5625 119.164 100.569 112.549 105.478 107.397C110.388 102.245 117.57 98.655 124.584 99.8849" fill="#FFD400"/>
<path d="M124.651 102.112C138.212 92.5057 154.979 98.9542 167.17 107.497C181.433 117.469 194.726 129.069 208.354 139.872C221.981 150.675 233.972 160.913 247.7 170.12C261.427 179.328 276.157 185.311 290.887 192.058C304.514 198.274 318.041 205.288 328.897 215.758C334.04 220.744 338.549 226.428 341.723 232.843C342.624 234.638 343.56 236.566 344.094 238.494C345.029 241.951 342.892 244.577 339.418 244.677C335.276 244.81 331.803 241.585 328.295 239.857C317.874 234.771 306.017 240.821 299.805 249.596C291.655 261.097 291.154 276.288 287.346 289.417C283.539 302.547 277.627 315.809 268.475 326.346C258.722 337.615 245.729 344.495 231.033 346.988C223.25 348.318 215.301 348.55 207.418 348.285C199.97 348.019 192.121 346.456 184.739 348.052C170.644 351.11 162.695 366.234 154.846 376.837C145.493 389.435 132.1 401.003 115.466 394.986C108.719 392.56 102.507 388.637 95.2921 387.507C88.0776 386.377 80.863 387.84 73.8489 389.369C69.7406 390.266 65.1647 391.762 60.9562 391.762C54.8773 391.762 54.4097 386.71 55.0777 382.023C56.2467 374.178 58.9187 366.533 61.4238 359.021C63.9289 351.509 66.5341 343.93 67.9369 336.086C69.3398 328.241 69.4066 320.43 69.2062 312.552C68.2709 277.75 69.7406 243.015 72.279 208.313C73.5483 191.128 76.3873 174.541 82.2325 158.287C85.1383 150.243 88.4784 142.398 91.9521 134.587C95.1251 127.507 97.9976 120.095 102.239 113.546C107.016 106.167 114.798 99.7852 124.15 101.048C125.854 101.281 126.622 98.6551 124.885 98.4224C108.786 96.2618 99.7344 110.954 93.9895 123.518C86.8751 139.074 79.7274 154.764 75.2517 171.317C70.776 187.87 69.607 206.484 68.5716 224.268C67.4359 243.414 66.3671 262.56 66.0999 281.739C65.9663 290.979 66.0999 300.187 66.4005 309.427C66.7011 318.668 66.8347 328.274 64.8975 337.548C63.1272 346.091 60.0878 354.301 57.3823 362.578C55.0777 369.591 52.1718 377.336 52.105 384.815C52.0382 389.635 54.2093 394.255 59.5868 394.521C68.1373 394.92 76.8549 390.964 85.3053 390.1C94.7911 389.103 102.206 392.36 110.656 396.017C116.669 398.609 122.848 400.371 129.428 399.174C144.658 396.415 153.944 382.787 162.261 371.12C167.17 364.206 172.648 356.395 180.464 352.473C188.814 348.285 199.135 350.811 208.086 351.077C223.451 351.542 239.45 349.947 253.11 342.434C265.302 335.753 274.52 324.851 280.967 312.718C287.847 299.755 291.154 285.827 294.294 271.634C296.097 263.49 298.402 254.848 304.18 248.532C309.224 243.048 317.34 238.993 324.855 241.419C330.867 243.38 336.111 249.596 342.992 246.704C348.77 244.278 347.2 238.428 345.196 233.807C339.518 220.877 328.93 210.806 317.307 203.061C303.111 193.621 287.012 187.637 271.681 180.391C255.148 172.58 240.752 162.143 226.524 150.841C211.627 139.008 196.697 127.141 181.8 115.308C170.01 105.935 157.484 95.3643 141.686 94.6663C135.139 94.3671 128.693 95.9959 123.349 99.7852C121.946 100.782 123.282 103.142 124.718 102.145L124.651 102.112Z" fill="black"/>
<path d="M124.55 91.675C120.943 96.5945 114.797 98.4227 108.785 99.4864C98.4644 101.348 87.509 100.749 77.9564 96.4283C75.7185 95.4311 73.4807 94.1348 72.0779 92.1404L70.5414 91.941C68.003 92.1404 65.5313 92.506 63.5273 93.0046C58.8178 94.4007 54.2753 96.3618 50.1336 98.9213C27.8887 112.716 10.3533 134.056 1.43534 158.62L1.10133 160.082C0.767324 166.763 4.07399 173.212 8.75009 177.998C13.4262 182.785 19.3715 186.142 25.2834 189.267C31.5962 192.59 40.1802 194.784 46.6933 197.709L52.4048 184.447C44.1883 178.165 32.4646 166.63 23.6802 161.179C38.5769 151.839 51.5698 139.474 61.59 125.048L62.8593 126.244C62.8593 126.244 60.5546 188.07 55.2439 218.75L55.3107 218.95C67.7358 223.171 81.2296 223.171 94.4229 223.138C102.473 223.138 110.489 223.071 118.538 223.038C122.446 223.038 126.387 223.038 130.295 222.606C133.769 222.24 137.176 221.575 140.583 220.944C144.223 220.246 147.897 219.548 151.538 218.85L151.471 218.783C146.161 188.103 141.852 125.746 141.852 125.746L143.121 125.081C153.141 139.507 166.134 151.872 181.031 161.246C172.247 166.664 160.49 178.231 152.306 184.513L158.018 197.776C164.531 194.851 173.115 192.657 179.428 189.333C185.373 186.208 191.285 182.851 195.961 178.065C200.637 173.278 203.977 166.83 203.61 160.149L203.276 158.686C194.358 134.122 176.822 112.815 154.578 98.9878C150.403 96.3951 145.86 94.4672 141.184 93.0711C136.775 92.0074 129.995 91.5753 125.486 91.8412L127.657 91.7748" fill="white"/>
<path d="M123.649 90.7775C118.371 97.3257 108.885 98.7217 100.936 99.1538C92.9867 99.586 82.2984 98.5555 75.3177 93.6028C73.3471 92.2068 73.0131 90.7775 70.508 90.7442C67.1679 90.6777 63.4939 91.6417 60.3542 92.7386C53.006 95.3313 46.4595 99.5195 40.2804 104.206C28.8239 112.915 18.9039 123.651 11.2217 135.817C7.31386 142 4.00719 148.515 1.30173 155.296C-1.03631 161.146 -0.268098 166.664 2.77137 172.248C11.4221 188.103 30.7278 192.258 45.9919 198.873C46.5597 199.105 47.4281 199.105 47.6953 198.441C49.5992 194.02 51.503 189.599 53.4068 185.178C53.6072 184.713 53.674 184.015 53.2064 183.682C43.3866 176.07 34.7358 166.896 24.2146 160.215L22.9454 162.376C23.3128 162.608 23.8472 162.642 24.2146 162.376C39.3117 152.769 52.2712 140.371 62.5586 125.779L60.588 126.045C61.0556 126.477 61.8906 127.707 61.4898 126.377C61.5232 126.51 61.4898 126.709 61.4898 126.842C61.5566 127.74 61.423 128.704 61.3896 129.601C61.2226 133.158 61.0556 136.681 60.8886 140.238C60.2874 151.972 59.586 163.705 58.6842 175.439C57.7155 188.269 56.6133 201.133 54.6761 213.864C54.4423 215.326 53.4068 218.052 53.9747 219.415C54.9099 221.609 60.755 222.007 62.8592 222.44C71.677 224.268 80.7286 224.5 89.7134 224.5C100.235 224.5 110.789 224.5 121.344 224.367C131.899 224.235 141.618 222.074 151.739 220.113C152.507 219.98 152.941 218.916 152.473 218.285C151.605 217.055 151.739 213.531 151.505 212.002C151.137 209.543 150.803 207.116 150.469 204.656C149.801 199.604 149.2 194.518 148.632 189.466C147.53 179.428 146.528 169.356 145.66 159.284C144.958 151.274 144.29 143.23 143.656 135.219C143.489 132.859 143.288 130.499 143.121 128.139C143.088 127.54 142.954 126.909 142.988 126.311C143.021 125.214 141.952 127.075 143.589 126.211L141.885 125.779C152.173 140.404 165.132 152.769 180.229 162.376C180.597 162.608 181.131 162.608 181.499 162.376C181.064 161.644 180.664 160.913 180.229 160.215C169.708 166.896 161.057 176.07 151.238 183.682C150.77 184.048 150.837 184.713 151.037 185.178C152.941 189.599 154.845 194.02 156.749 198.441C157.049 199.105 157.918 199.139 158.452 198.873C170.142 193.82 182.133 190.729 192.387 182.751C199.969 176.835 207.451 166.464 203.61 156.525C195.226 134.654 180.163 115.508 161.024 101.913C155.379 97.8907 149.4 94.3673 142.72 92.3065C137.176 90.578 131.03 90.3453 125.285 90.578C123.682 90.6445 123.682 93.1042 125.285 93.071L127.456 93.0045C129.059 92.9713 129.059 90.4783 127.456 90.5115L125.285 90.578V93.071C131.932 92.8051 138.612 93.3037 144.858 95.6637C151.939 98.3561 158.318 102.71 164.23 107.364C174.952 115.807 184.204 126.078 191.419 137.612C195.159 143.595 198.399 149.944 200.971 156.525C203.71 163.539 200.671 170.719 195.827 176.17C185.74 187.505 170.577 190.895 157.216 196.679L158.92 197.111C157.016 192.69 155.112 188.269 153.208 183.848L153.008 185.344C162.661 177.865 171.144 168.824 181.499 162.276C182.868 161.412 181.599 159.251 180.229 160.115C181.031 159.617 176.822 157.09 176.255 156.692C174.251 155.296 172.28 153.833 170.376 152.337C167.103 149.745 163.963 147.019 160.957 144.16C154.678 138.144 149.033 131.529 144.023 124.449C143.622 123.884 142.954 123.685 142.32 124.017L141.05 124.682C140.683 124.881 140.416 125.347 140.416 125.746C141.251 137.944 142.286 150.143 143.388 162.309C144.324 172.78 145.359 183.25 146.595 193.721C147.129 198.274 147.697 202.861 148.332 207.415C148.632 209.609 148.933 211.803 149.267 213.963C149.501 215.459 149.4 218.251 150.269 219.481L151.004 217.653C141.618 219.448 132.333 221.575 122.747 221.775C113.161 221.974 104.276 221.875 95.0241 221.908C85.7387 221.941 76.3865 222.041 67.1679 220.611C65.0971 220.279 56.9807 219.415 56.4797 217.886C55.9119 216.124 57.3815 212.069 57.6153 210.141C60.755 186.84 62.1244 163.273 63.3268 139.773C63.5273 136.05 63.6943 132.327 63.8279 128.571C63.9281 126.377 64.0283 125.812 62.2914 124.183C61.6568 123.585 60.7884 123.784 60.3208 124.449C55.3107 131.562 49.6994 138.177 43.3866 144.16C40.5476 146.886 37.5749 149.479 34.502 151.905C32.5982 153.434 30.6276 154.897 28.6569 156.293C28.2561 156.592 23.3462 159.65 24.1144 160.115C22.745 159.251 21.5092 161.412 22.8452 162.276C33.166 168.857 41.6832 177.865 51.336 185.344L51.1356 183.848C49.2318 188.269 47.3279 192.69 45.4241 197.111L47.1275 196.679C33.166 190.663 16.5325 187.106 6.91305 174.209C4.4414 170.885 2.53756 166.963 2.17015 162.774C1.86955 159.118 3.53958 155.894 4.97581 152.603C7.84827 146.022 11.3553 139.706 15.3968 133.79C23.6134 121.724 34.1012 111.153 46.1589 102.91C52.2044 98.755 58.8846 94.9657 66.2327 93.7358C67.1345 93.6028 70.2742 92.8051 71.4432 93.4034C71.9442 93.6693 73.1801 95.3313 73.8481 95.7966C76.6537 97.7578 80.1608 98.9544 83.4341 99.8851C91.016 102.046 99.0322 102.212 106.781 101.082C113.662 100.085 120.709 98.1899 125.218 92.6056C126.22 91.3758 124.45 89.5808 123.448 90.8439L123.649 90.7775Z" fill="black"/>
<path d="M38.4117 395.119C37.4765 398.908 33.3682 401.036 29.5939 401.701C25.8197 402.365 21.8784 402.066 18.2711 403.429C14.6638 404.792 11.4239 408.747 12.6264 412.404C13.428 414.83 15.8996 416.226 18.2377 417.124C23.0474 418.919 28.4583 419.417 33.3682 417.689C35.3055 417.024 37.1425 416.027 39.1799 415.894C41.184 415.761 43.0878 416.492 45.0585 416.825C47.0291 417.157 49.3004 416.958 50.6364 415.395C51.5382 414.332 51.8054 412.869 51.9724 411.473C52.6404 406.387 52.774 401.268 52.44 396.183C52.44 395.751 52.3732 395.319 52.0726 395.019C51.772 394.753 51.3378 394.72 50.9704 394.72C46.7285 394.621 42.9208 393.889 38.6789 393.79" fill="black"/>
<path d="M162.828 396.515C163.496 400.371 167.437 402.797 171.145 403.728C174.852 404.659 178.827 404.659 182.334 406.288C185.841 407.916 188.78 412.071 187.277 415.628C186.309 417.988 183.737 419.218 181.332 419.916C176.422 421.345 170.978 421.445 166.168 419.384C164.298 418.586 162.527 417.456 160.523 417.157C158.553 416.891 156.582 417.456 154.611 417.656C152.641 417.855 150.37 417.456 149.167 415.827C148.332 414.697 148.198 413.235 148.098 411.839C147.798 406.72 148.031 401.601 148.766 396.548C148.833 396.116 148.9 395.684 149.234 395.418C149.535 395.186 149.969 395.186 150.37 395.186C154.611 395.385 158.452 394.953 162.694 395.186" fill="black"/>
<path d="M71.5113 93.104C75.6864 91.5418 80.4293 92.3063 84.7714 91.2759C88.3119 90.4116 90.4495 87.2871 92.32 84.4285C93.1884 83.0657 91.0508 81.8358 90.1489 83.1654C89.2471 84.495 88.4121 85.8246 87.3099 86.9547C86.074 88.2178 84.738 88.7829 83.0012 89.082C79.0265 89.7468 74.651 89.2815 70.8433 90.7108C69.3403 91.2759 70.0083 93.6691 71.5113 93.104Z" fill="black"/>
<path d="M127.089 90.5779C123.281 90.2123 119.507 89.3148 115.933 87.9852C114.196 87.3536 112.493 86.6224 110.89 85.7249C109.587 84.9936 108.285 84.0962 108.017 82.5339C107.75 80.9716 105.345 81.6364 105.612 83.1987C106.247 87.0545 111.124 88.7497 114.263 90.0128C118.372 91.6416 122.714 92.6387 127.123 93.1041C128.726 93.2703 128.726 90.7773 127.123 90.6111L127.089 90.5779Z" fill="black"/>
<path d="M140.718 221.209C149.469 258.405 165.201 358.522 171.781 396.183V396.283C167.072 395.551 159.89 394.753 155.181 395.352C150.471 395.95 145.728 398.077 143.023 401.966H142.823C132.969 371.851 128.36 340.307 123.851 308.929C121.546 292.907 119.208 276.853 116.904 260.831L114.799 261.363C107.05 263.49 98.7671 263.557 91.0181 261.596L90.4169 262.825C85.7074 290.281 80.9979 317.704 76.3218 345.16C73.1153 363.874 69.6417 383.253 58.8866 398.942H58.6862C50.2025 393.756 38.245 391.297 28.6256 393.69L28.5254 393.59C41.6185 336.717 52.0395 279.246 59.7217 221.409" fill="black"/>
<path d="M139.515 221.509C144.559 242.948 148.233 264.753 152.007 286.459C156.483 312.186 160.758 337.914 165.033 363.675C166.035 369.658 167.037 375.674 168.039 381.657C168.841 386.41 170.244 391.43 170.545 396.249L172.114 395.053C166.536 394.222 160.658 393.391 154.98 394.089C152.441 394.421 149.936 395.119 147.665 396.316C146.529 396.914 145.427 397.612 144.459 398.476C144.158 398.742 142.722 400.737 142.455 400.803L143.991 401.667C136.643 378.998 132.167 355.631 128.493 332.13C124.786 308.297 121.512 284.365 118.039 260.466C117.938 259.801 117.103 259.435 116.502 259.601C107.985 261.695 99.902 262.393 91.2846 260.333C90.7836 260.2 90.1156 260.399 89.8818 260.898C87.8443 265.186 87.7441 270.703 86.9425 275.357C85.8737 281.539 84.8049 287.722 83.7695 293.938C81.5984 306.569 79.4274 319.233 77.2563 331.864C73.3818 354.467 70.8434 378.732 57.7503 398.244L59.1531 397.679C57.1825 397.413 54.5772 395.319 52.64 394.554C49.9679 393.524 47.1623 392.726 44.3566 392.194C41.8516 391.729 39.3131 391.463 36.7747 391.463C35.7058 391.463 29.5935 391.928 29.7271 392.227C29.7939 392.36 30.7959 388.903 30.9295 388.338C31.2969 386.743 31.6309 385.181 31.9984 383.585C32.8334 379.895 33.635 376.206 34.4366 372.516C35.9396 365.669 37.3759 358.788 38.8121 351.908C44.5236 324.119 49.6339 296.198 54.0762 268.177C56.5479 252.588 58.8191 236.965 60.89 221.342C61.0904 219.747 58.5853 219.78 58.3849 221.342C54.3434 251.757 49.5337 282.071 43.9892 312.253C41.2503 327.144 38.3445 341.969 35.2382 356.794C33.7018 364.206 32.0986 371.586 30.4619 378.965C29.6937 382.388 28.9255 385.812 28.1573 389.236C27.8233 390.698 26.4872 393.191 27.6897 394.521C27.9903 394.853 28.4913 394.953 28.8921 394.853C34.4366 393.59 40.1147 393.756 45.6592 395.019C48.3313 395.618 50.97 396.482 53.5084 397.579C55.0448 398.277 56.8485 399.839 58.4851 400.072C59.0863 400.138 59.5539 400.005 59.8879 399.507C72.5134 380.66 75.3525 357.592 79.0934 335.753C81.231 323.388 83.3352 310.99 85.4729 298.625C86.5751 292.176 87.6773 285.694 88.7796 279.246C89.3474 276.022 89.8818 272.797 90.4496 269.573C90.8504 267.18 90.984 264.388 92.0194 262.194L90.6166 262.759C99.6682 264.92 108.219 264.222 117.17 262.028L115.634 261.164C119.074 285.063 122.381 308.962 126.088 332.828C129.796 356.694 134.238 379.729 141.586 402.365C141.786 403.03 142.455 403.396 143.123 403.23C144.525 402.897 145.16 401.169 146.229 400.271C148.734 398.177 152.007 397.047 155.214 396.615C160.524 395.917 166.136 396.681 171.413 397.479C172.148 397.579 173.05 397.18 172.983 396.283C172.749 392.427 171.647 388.438 171.012 384.649C170.144 379.497 169.275 374.378 168.44 369.226C166.403 356.894 164.365 344.595 162.295 332.263C157.919 306.137 153.544 280.01 148.667 253.984C146.596 242.915 144.492 231.879 141.92 220.91C141.553 219.348 139.148 220.013 139.515 221.575V221.509Z" fill="black"/>
<path d="M82.8999 17.7831C74.0154 22.071 73.8817 34.3032 73.4141 42.8126C73.0801 49.0284 73.4475 55.3107 73.9151 61.5265C74.316 66.8448 75.4516 72.2296 79.0255 76.3846C85.3048 83.7305 96.6944 85.9243 105.746 83.3981C115.967 80.5728 123.816 72.3626 127.223 62.5236C132.066 48.4301 128.893 31.9765 124.15 18.315C123.615 16.8192 121.211 17.4507 121.745 18.9798C128.459 38.1923 132.233 66.9113 110.923 78.6449C102.606 83.2319 91.4839 83.1655 83.735 77.3818C75.0174 70.8668 75.8858 57.8369 75.819 48.0644C75.819 43.012 76.2866 37.9928 76.9212 33.0069C77.6226 27.7218 78.9587 22.4699 84.1692 19.9437C85.6054 19.2457 84.3362 17.0851 82.8999 17.7831Z" fill="black"/>
<path d="M132.701 36.3643C132.1 31.0459 130.897 25.7941 129.127 20.8414C127.691 16.8194 125.82 12.8971 123.182 9.83904C119.307 5.31845 113.93 2.9252 108.552 1.92801C98.7324 0.0998345 88.2446 2.72576 80.3286 9.8058C72.4126 16.8858 67.3691 28.4865 67.8033 40.1868H68.7051C98.1312 36.8296 127.758 35.9986 157.284 37.7936" fill="#FFD400"/>
<path d="M134.07 36.3642C132.901 26.7912 130.429 15.6891 123.683 8.37641C117.37 1.49581 107.249 -0.830965 98.1978 0.265942C78.4914 2.69243 66.0663 21.3066 66.4337 40.1867C66.4337 40.918 67.0349 41.5495 67.8031 41.5495C74.5835 41.5163 81.5308 40.1867 88.3446 39.6881C95.9933 39.123 103.642 38.6909 111.324 38.4915C126.655 38.0261 141.986 38.2921 157.284 39.1895C159.054 39.2892 159.02 36.5636 157.284 36.4639C141.986 35.5664 126.655 35.3005 111.324 35.7659C103.676 35.9985 95.9933 36.3974 88.3446 36.9625C81.5642 37.4611 74.6169 38.7907 67.8031 38.8239L69.1726 40.1867C68.8386 23.1016 79.5268 6.08287 97.296 3.12455C105.646 1.72849 115.199 3.62314 121.311 9.77247C127.891 16.3872 130.262 27.4227 131.365 36.3642C131.565 38.0594 134.304 38.0926 134.104 36.3642H134.07Z" fill="black"/>
<path d="M98.2986 38.1591C99.5678 41.0177 99.1002 44.2752 98.7996 47.3C98.4656 50.624 98.3654 53.9147 98.499 57.2387C98.5658 58.8674 98.6994 60.4961 98.8998 62.1249C99.0334 63.1885 99.501 64.2855 100.703 64.4184C103.208 64.6843 105.38 61.6928 106.081 59.6984C106.615 58.1694 104.21 57.5378 103.676 59.0336C103.309 60.0308 102.674 60.895 101.772 61.4933C101.605 61.6263 101.238 61.6928 101.104 61.859C101.371 62.2246 101.438 62.2246 101.338 61.8922C101.338 61.726 101.305 61.5598 101.271 61.4268C101.204 60.7953 101.138 60.1305 101.071 59.4657C100.837 56.7733 100.804 54.0809 100.904 51.3885C101.104 46.5687 102.44 41.5163 100.369 36.9293C99.7014 35.4667 97.5638 36.7298 98.1984 38.1924L98.2986 38.1591Z" fill="black"/>
<path d="M111.29 72.695C113.862 70.9333 115.799 68.4071 116.768 65.4488C116.969 64.8172 116.534 64.0527 115.9 63.9198C115.198 63.7536 114.564 64.1192 114.363 64.784C114.296 64.9502 114.263 65.1164 114.196 65.2826C114.196 65.3491 114.129 65.4488 114.096 65.5153C114.096 65.5818 113.962 65.7812 114.096 65.5485C113.962 65.8477 113.829 66.1468 113.662 66.4127C113.361 67.0111 112.994 67.5761 112.593 68.108C112.526 68.2077 112.526 68.1744 112.593 68.108C112.526 68.1744 112.493 68.2409 112.426 68.3074C112.326 68.4404 112.192 68.5733 112.092 68.7063C111.892 68.939 111.658 69.1716 111.424 69.4043C111.19 69.637 110.923 69.8697 110.656 70.0691C110.589 70.1023 110.556 70.1688 110.489 70.2021C110.622 70.1023 110.222 70.4015 110.489 70.2021C110.355 70.3018 110.188 70.4347 110.021 70.5345C109.487 70.9001 109.186 71.6314 109.587 72.2297C109.921 72.7615 110.723 73.0607 111.29 72.6618V72.695Z" fill="black"/>
<path d="M72.4803 58.2689C69.7081 59.2994 68.4054 55.4103 68.4054 53.3162C68.4054 52.0864 68.9399 50.923 69.9419 50.2249C71.0441 49.4272 72.4135 49.394 73.6494 49.8925C74.284 50.1252 75.0188 49.6266 75.1858 49.0283C75.3862 48.3303 74.952 47.732 74.3174 47.4993C72.4469 46.768 70.1757 47.0339 68.539 48.1973C66.9024 49.3607 65.9004 51.2886 65.9004 53.3495C65.9004 55.4103 66.535 57.5377 67.8376 59.0999C69.1403 60.6622 71.2779 61.4267 73.1817 60.7287C73.8164 60.496 74.2506 59.8977 74.0502 59.1996C73.8832 58.6013 73.1483 58.1027 72.5137 58.3354L72.4803 58.2689Z" fill="black"/>
<path d="M127.458 58.4351C128.927 59.1664 130.597 59.0667 132.033 58.3022C133.47 57.5377 134.338 56.1748 134.939 54.7455C135.574 53.2165 135.941 51.4881 135.574 49.8261C135.24 48.3303 134.305 47.034 133.069 46.1365C131.566 45.0728 129.595 44.8069 127.825 45.2723C126.255 45.7044 126.923 48.0976 128.493 47.6655C131.132 46.9675 133.503 49.128 133.169 51.754C133.035 52.9838 132.501 54.4464 131.666 55.3771C130.931 56.1748 129.729 56.7732 128.727 56.2746C127.291 55.5433 126.021 57.7039 127.458 58.4351Z" fill="black"/>
<path d="M151.272 188.203C149.869 186.74 148.166 185.178 146.228 184.447C143.957 183.616 141.619 184.347 139.481 185.278C137.745 186.042 136.108 187.073 134.839 188.502C133.569 189.931 132.634 191.56 131.732 193.222C130.764 194.984 132.4 197.643 134.571 196.878C135.707 196.48 136.876 196.047 137.945 195.482C138.914 194.984 139.749 194.252 140.751 193.82C140.918 193.754 143.456 192.657 143.523 192.757L142.922 192.624C142.922 192.624 143.189 192.89 143.289 192.956C143.423 193.089 143.556 193.255 143.723 193.388C143.79 193.455 143.857 194.02 143.723 193.156L145.56 190.762C144.525 191.095 143.523 191.028 142.387 191.028C141.018 191.028 139.715 191.261 138.479 191.859C137.444 192.391 136.542 193.222 135.807 194.12C134.872 195.283 133.937 196.413 133.937 197.975C133.937 198.973 134.705 200.202 135.774 200.369C137.444 200.668 139.047 200.535 140.55 199.671C140.884 199.504 141.318 199.238 141.552 198.939C141.552 198.939 141.786 198.707 141.786 198.773C141.786 198.84 139.648 197.244 139.582 197.311C139.548 197.311 139.348 197.743 139.548 197.543C139.615 197.443 139.114 197.709 138.98 197.776C137.511 198.574 136.275 200.369 136.509 202.064C136.676 203.094 137.377 203.992 138.413 204.258C139.381 204.49 140.149 204.158 141.018 203.825C142.421 203.294 143.857 202.729 145.159 201.997C146.462 201.266 148.099 200.335 148.834 198.972C149.769 197.277 149.268 195.117 147.531 194.186C145.794 193.255 143.69 194.053 142.688 195.649C141.686 197.244 141.819 199.405 142.12 201.2C142.187 201.499 142.254 201.731 142.254 201.964C142.254 202.163 142.354 202.097 142.153 202.263C141.753 202.629 140.951 202.928 140.35 203.194C139.348 203.626 138.947 205.055 139.214 206.019C139.515 207.05 140.55 207.881 141.619 207.847C143.924 207.781 145.995 206.884 148.065 205.886C149.001 205.454 149.869 204.889 150.57 204.125C151.339 203.26 151.806 202.197 152.407 201.2C152.908 200.369 153.543 199.671 154.111 198.906C154.946 197.776 154.979 196.546 154.812 195.216C154.512 192.956 153.81 190.796 152.675 188.801L148.333 191.327C148.934 192.258 149.468 193.189 149.936 194.219C150.103 194.618 150.27 195.05 150.403 195.449C150.504 195.781 150.704 196.812 150.804 195.383C150.804 195.615 150.604 195.516 150.704 195.582C150.57 195.482 151.973 195.516 151.706 195.582C151.773 195.582 151.639 195.582 151.572 195.482C151.673 195.682 151.506 195.05 151.539 195.216C151.539 195.05 151.439 194.685 151.405 194.618C151.205 193.388 151.071 192.192 150.504 190.995C149.936 189.798 148.166 189.466 147.063 190.098C145.794 190.829 145.594 192.291 146.162 193.521C146.429 194.086 146.395 194.917 146.496 195.649C146.629 196.579 146.896 197.51 147.397 198.274C148.667 200.202 151.305 201.133 153.343 199.803C154.244 199.238 154.946 198.341 155.313 197.344C155.748 196.214 155.514 195.083 155.113 193.987C154.478 192.192 153.643 190.43 152.608 188.834C150.871 186.142 146.696 188.535 148.266 191.361C149.001 192.69 149.502 194.086 149.735 195.582C149.735 195.682 149.836 196.612 149.836 196.612C150.203 195.881 150.236 195.715 149.902 196.147L149.669 196.413C149.067 197.144 148.466 197.909 147.965 198.74C147.564 199.405 147.297 200.169 146.83 200.767C146.529 201.133 146.095 201.333 145.594 201.565C144.324 202.197 142.955 202.862 141.552 202.895L142.821 207.548C144.625 206.784 146.295 205.687 146.93 203.759C147.498 201.997 146.663 200.435 146.796 198.707C146.796 198.54 146.896 198.341 146.796 198.341C145.961 199.272 145.093 198.806 144.191 196.878C144.491 196.413 144.491 196.347 144.191 196.679C143.623 196.878 143.022 197.443 142.487 197.743C141.185 198.441 139.715 199.139 138.312 199.504H139.648H139.548C140.049 199.87 140.55 200.236 141.051 200.634L140.984 200.535L141.318 201.798C141.318 201.798 141.318 202.163 141.252 202.163C141.185 202.163 141.586 202.031 141.719 201.964C142.454 201.598 143.055 201.067 143.489 200.369C144.391 198.972 144.792 197.045 143.924 195.549C142.922 193.82 140.717 193.521 139.081 194.518C138.546 194.851 138.212 195.25 137.745 195.449C137.578 195.516 137.11 195.582 136.943 195.582L138.78 197.975C138.78 198.308 138.513 198.474 138.847 198.108C138.98 197.942 139.081 197.776 139.214 197.61C139.348 197.443 139.615 197.144 139.782 196.945C140.25 196.48 140.617 196.18 141.252 196.047C142.988 195.715 144.926 196.114 146.729 195.516C147.665 195.216 148.7 194.219 148.566 193.122C148.333 191.394 147.564 190.164 146.262 189.001C144.692 187.638 143.122 187.472 141.218 188.203C139.749 188.768 138.246 189.267 136.91 190.131C135.674 190.929 134.505 191.527 133.102 192.025L135.941 195.682C137.277 193.222 138.446 191.161 140.951 189.931C141.92 189.466 143.322 188.668 144.425 189.067C145.527 189.466 146.729 190.762 147.564 191.66C149.802 193.987 153.343 190.463 151.105 188.136L151.272 188.203Z" fill="white"/>
<path d="M152.809 186.508C150.237 185.843 148.868 183.051 146.262 182.286C142.989 181.355 139.816 183.682 137.277 185.411C134.739 187.139 132.301 189.167 130.731 191.859C129.996 193.089 129.094 194.817 129.462 196.28C129.829 197.743 131.499 198.474 132.935 198.175C134.739 197.776 136.476 196.247 137.946 195.183C139.682 193.92 141.386 192.624 143.056 191.228C144.358 190.131 142.488 188.303 141.185 189.366C139.716 190.596 138.179 191.793 136.609 192.89C135.841 193.455 135.04 193.986 134.271 194.518C133.971 194.718 132.601 195.848 132.134 195.615C131.499 195.283 133.436 192.424 133.77 191.959C134.672 190.795 135.774 189.765 136.943 188.868C138.113 187.97 139.382 187.106 140.651 186.308C142.054 185.444 143.791 184.314 145.494 184.812C146.73 185.178 147.665 186.208 148.6 187.006C149.636 187.904 150.705 188.668 152.041 189.001C153.677 189.433 154.379 186.906 152.742 186.474L152.809 186.508Z" fill="black"/>
<path d="M133.437 195.549C132.536 197.011 132.101 199.172 133.037 200.734C133.538 201.565 134.406 202.197 135.441 202.23C136.477 202.263 137.412 201.731 138.314 201.332C140.051 200.535 141.787 199.637 143.357 198.54C144.827 197.51 146.33 196.047 146.163 194.086C146.096 193.388 145.595 192.79 144.86 192.79C144.192 192.79 143.491 193.388 143.558 194.086C143.591 194.551 143.558 194.817 143.257 195.216C142.923 195.648 142.456 196.047 141.988 196.346C140.752 197.177 139.449 197.909 138.113 198.573C137.512 198.873 136.878 199.172 136.243 199.404C136.009 199.504 135.742 199.637 135.475 199.604C135.675 199.604 135.475 199.537 135.408 199.504C135.174 199.205 135.174 198.873 135.208 198.341C135.274 197.842 135.441 197.344 135.709 196.878C136.577 195.449 134.306 194.119 133.437 195.549Z" fill="black"/>
<path d="M137.612 199.172C135.508 200.269 133.972 203.958 136.31 205.587C137.312 206.285 138.781 206.185 139.884 205.786C141.153 205.321 142.389 204.69 143.491 203.958C144.794 203.094 145.996 202.097 147.031 200.933C147.499 200.402 147.566 199.604 147.031 199.072C146.53 198.573 145.662 198.54 145.161 199.072C144.259 200.069 143.291 200.9 142.222 201.632C141.153 202.363 140.051 202.994 138.948 203.327C138.815 203.36 138.715 203.393 138.581 203.426C138.514 203.426 138.447 203.426 138.381 203.46C138.514 203.46 138.514 203.46 138.381 203.46C138.247 203.46 138.147 203.46 138.013 203.46C137.713 203.46 138.18 203.526 137.913 203.46C137.846 203.46 137.779 203.426 137.713 203.393H137.846C137.846 203.393 137.713 203.393 137.846 203.46C137.746 203.36 137.746 203.36 137.813 203.426C137.88 203.493 137.88 203.493 137.813 203.36C137.88 203.526 137.88 203.526 137.813 203.36V203.26C137.813 203.426 137.813 203.426 137.813 203.26C137.813 203.227 137.846 202.861 137.813 203.127C137.813 202.994 137.88 202.895 137.913 202.762C137.913 202.695 137.98 202.595 137.98 202.529C137.946 202.629 137.946 202.629 137.98 202.529C138.047 202.396 138.113 202.263 138.18 202.13C138.247 202.03 138.314 201.897 138.381 201.798C138.247 201.997 138.481 201.698 138.514 201.665C138.581 201.565 138.681 201.499 138.781 201.432C138.548 201.598 138.915 201.366 138.982 201.332C139.617 201 139.784 200.136 139.45 199.537C139.082 198.906 138.28 198.74 137.646 199.072L137.612 199.172Z" fill="black"/>
<path d="M138.981 204.49C138.246 206.784 140.284 208.778 142.488 208.944C144.692 209.11 147.03 207.781 148.868 206.617C152.441 204.357 155.347 201.1 157.051 197.211C157.318 196.579 157.251 195.815 156.583 195.416C156.015 195.083 155.08 195.25 154.779 195.881C153.477 198.839 151.473 201.399 148.934 203.393C147.665 204.357 146.262 205.188 144.793 205.82C144.058 206.119 143.089 206.518 142.254 206.252C141.787 206.086 141.386 205.654 141.519 205.155C142.054 203.559 139.515 202.861 138.981 204.457V204.49Z" fill="black"/>
<path d="M56.9826 191.726C57.8176 190.862 58.9866 189.532 60.1223 189.134C61.2579 188.735 62.6273 189.532 63.5959 189.998C66.101 191.228 67.27 193.289 68.606 195.748L71.4451 192.092C70.1091 191.627 68.9734 191.061 67.8044 190.297C66.435 189.399 64.8986 188.868 63.3621 188.303C61.4917 187.605 59.9552 187.704 58.4188 189.034C57.0494 190.197 56.2478 191.46 56.014 193.222C55.8804 194.319 56.9158 195.316 57.851 195.615C59.6546 196.214 61.5585 195.815 63.3287 196.147C63.8965 196.247 64.2973 196.513 64.6982 196.912C64.932 197.144 65.1992 197.477 65.3996 197.709C65.4664 197.776 65.5666 197.975 65.6668 198.075C65.934 198.441 65.8004 198.64 65.8004 198.075L67.6374 195.682C67.9046 195.649 67.2032 195.682 67.1364 195.682C67.4704 195.715 66.769 195.549 66.9694 195.649C66.4016 195.383 66.101 195.017 65.4998 194.651C63.8297 193.654 61.6921 193.987 60.6567 195.682C59.7548 197.144 60.1891 199.139 61.0909 200.501C61.4917 201.133 62.0595 201.665 62.7609 202.031C62.8611 202.097 63.3621 202.33 63.3621 202.296C63.3287 202.363 63.2619 201.698 63.2953 201.931L63.6293 200.668L63.5625 200.767L65.0656 199.637H64.9654C65.3996 199.637 65.8672 199.637 66.3014 199.637C64.8652 199.238 63.4289 198.574 62.1263 197.876C61.5585 197.576 60.9907 197.111 60.4229 196.812C60.1223 196.48 60.1223 196.546 60.4229 197.011C59.521 198.906 58.6526 199.405 57.8176 198.474C57.7508 198.474 57.8176 198.673 57.8176 198.84C57.9846 200.568 57.1162 202.163 57.684 203.892C58.3186 205.82 60.0221 206.95 61.7923 207.681L63.0615 203.028C61.6921 202.994 60.3561 202.33 59.1536 201.765C58.686 201.532 58.1516 201.299 57.851 201.033C57.3166 200.468 57.016 199.571 56.6152 198.873C56.1476 198.108 55.6132 197.377 55.0453 196.679C54.9451 196.546 54.8115 196.413 54.7113 196.28C54.3773 195.848 54.4107 196.014 54.7781 196.745C54.8115 196.745 54.8115 196.047 54.8449 195.881C55.0787 194.352 55.5798 192.856 56.348 191.494C57.9178 188.668 53.7761 186.275 52.0059 188.967C51.0039 190.53 50.1688 192.225 49.5342 193.987C49.1668 195.017 48.8328 196.114 49.1668 197.211C49.5008 198.308 50.3358 199.371 51.2711 199.97C53.2417 201.2 55.68 200.468 57.016 198.673C57.6172 197.876 57.9512 196.912 58.1182 195.948C58.2518 195.183 58.2184 194.286 58.4856 193.687C59.0534 192.458 58.853 190.995 57.5838 190.264C56.515 189.632 54.7113 189.931 54.1435 191.161C53.5757 192.391 53.4421 193.521 53.2417 194.818C53.2417 194.884 53.0747 195.549 53.0413 195.649C53.0413 195.649 52.8743 195.748 52.9411 195.748C52.9411 195.748 54.1769 195.582 53.9431 195.748C53.9431 195.748 53.9765 195.748 54.0099 195.781C54.0767 195.881 54.0099 195.781 53.8763 195.549L54.0767 196.247C54.0767 196.247 54.1769 195.948 54.2437 195.781C54.4107 195.316 54.5777 194.851 54.7781 194.385C55.2123 193.388 55.7802 192.424 56.3814 191.494L52.0393 188.967C50.9705 190.862 50.269 192.89 49.9684 195.05C49.768 196.38 49.6678 197.61 50.436 198.806C51.0039 199.704 51.8055 200.435 52.3399 201.366C52.8743 202.296 53.3085 203.194 53.9765 204.025C54.6445 204.856 55.5464 205.487 56.5484 205.986C58.6526 207.016 60.7569 207.947 63.1283 208.014C64.2305 208.047 65.266 207.216 65.5332 206.185C65.8004 205.222 65.3996 203.792 64.3975 203.36C63.8965 203.161 63.2619 202.928 62.8277 202.629C62.4937 202.363 62.4603 202.33 62.5271 202.031C62.8611 200.435 63.0615 198.806 62.6607 197.211C62.2265 195.449 60.7903 193.987 58.8864 193.987C56.8156 193.987 55.2792 195.748 55.513 197.776C55.9138 200.934 60.1223 202.496 62.6941 203.56C64.2305 204.191 66.1344 205.188 67.5706 203.792C69.0068 202.396 68.2386 200.136 67.0696 198.873C66.7356 198.507 66.3014 198.208 65.8672 197.975C65.7336 197.909 65.2326 197.643 65.2994 197.743L65.3662 197.809C65.3662 197.909 65.3662 197.842 65.3328 197.676C65.1992 197.111 64.8318 197.31 64.1971 198.241C62.8945 199.139 62.8277 198.806 63.8297 199.538C65.3662 200.668 67.2366 200.867 69.107 200.568C70.1759 200.369 70.9441 199.172 70.9441 198.175C70.9441 196.612 70.0089 195.449 69.0736 194.319C68.3388 193.421 67.4704 192.59 66.4016 192.059C65.1658 191.46 63.8631 191.261 62.4937 191.228C61.3581 191.228 60.3561 191.294 59.3206 190.962L61.1577 193.355C61.0575 194.219 61.0241 193.687 61.1577 193.554C61.1577 193.554 61.4583 193.255 61.5585 193.156C61.6921 193.056 61.9259 192.79 61.9259 192.823C61.8925 192.757 61.1577 193.388 61.3247 192.956C61.3247 192.956 63.9299 193.953 64.0969 194.02C65.099 194.485 65.934 195.183 66.9026 195.682C67.9714 196.247 69.1404 196.679 70.2761 197.078C72.4471 197.842 74.0837 195.216 73.1151 193.421C72.2467 191.793 71.3115 190.23 70.1091 188.801C68.8398 187.305 67.1698 186.242 65.3662 185.444C63.3287 184.546 61.0241 183.749 58.7862 184.546C56.7822 185.245 55.0453 186.84 53.5757 188.369C51.3713 190.696 54.8783 194.219 57.1162 191.892L56.9826 191.726Z" fill="white"/>
<path d="M52.6058 189.034C53.9418 188.701 55.0106 187.904 56.0461 187.039C56.9813 186.242 57.9165 185.178 59.1523 184.846C60.8558 184.347 62.626 185.477 63.9954 186.341C65.2647 187.139 66.5339 187.97 67.7029 188.901C68.8719 189.832 69.9742 190.829 70.876 191.992C71.2434 192.457 73.1472 195.383 72.5126 195.648C72.0116 195.881 70.7424 194.784 70.375 194.552C69.5733 194.02 68.8051 193.488 68.0369 192.923C66.4671 191.793 64.9307 190.629 63.461 189.399C62.1584 188.336 60.288 190.164 61.5906 191.261C63.0268 192.457 64.5298 193.621 66.0329 194.718C67.5359 195.815 68.9721 196.978 70.6088 197.776C71.9448 198.441 73.6482 198.507 74.6837 197.277C75.7191 196.047 75.1179 194.319 74.5167 193.022C73.2474 190.197 70.9428 188.037 68.4711 186.208C65.9995 184.38 62.793 181.887 59.5865 182.12C57.9833 182.253 56.6807 183.051 55.4448 184.048C54.3092 184.979 53.3072 186.142 51.871 186.508C50.2343 186.94 50.9357 189.466 52.5724 189.034H52.6058Z" fill="black"/>
<path d="M69.0065 196.878C69.2737 197.31 69.4407 197.809 69.5075 198.274C69.5075 198.441 69.5409 198.64 69.5409 198.806C69.5409 198.806 69.5409 199.205 69.5409 199.039C69.5075 199.272 69.4741 199.338 69.3071 199.537C69.4073 199.404 69.1735 199.737 69.2737 199.537C69.2069 199.637 69.1067 199.604 69.2737 199.571C69.0399 199.571 68.8061 199.471 68.5723 199.404C67.9043 199.139 67.2697 198.839 66.6016 198.54C65.299 197.909 63.9964 197.177 62.794 196.346C62.3264 196.047 61.8587 195.682 61.5247 195.25C61.1907 194.851 61.1239 194.585 61.1573 194.086C61.2241 193.388 60.5227 192.79 59.8547 192.79C59.0865 192.79 58.6189 193.388 58.5521 194.086C58.3851 196.014 59.8547 197.477 61.2909 198.507C62.8608 199.637 64.631 200.568 66.4012 201.332C67.3031 201.731 68.2717 202.263 69.2737 202.23C70.2757 202.197 71.1107 201.598 71.6118 200.801C72.6138 199.272 72.1462 197.044 71.2443 195.549C70.3425 194.053 68.1047 195.416 68.9731 196.878H69.0065Z" fill="black"/>
<path d="M65.7658 201.432C65.7658 201.432 66.1332 201.632 65.9996 201.565C65.866 201.499 66.2 201.731 66.2334 201.765C66.2668 201.798 66.5006 202.064 66.367 201.898C66.4338 201.997 66.5006 202.097 66.5674 202.23C66.6342 202.363 66.701 202.463 66.7678 202.562C66.8346 202.695 66.8346 202.729 66.7678 202.596C66.7678 202.662 66.8012 202.729 66.8346 202.762C66.868 202.895 66.9014 203.028 66.9348 203.194C66.9014 202.961 66.9348 203.194 66.9348 203.327C66.9348 203.46 66.9348 203.46 66.9348 203.36C66.9348 203.26 66.9348 203.26 66.9348 203.393C66.9014 203.526 66.9014 203.526 66.9348 203.393L66.868 203.493C66.9682 203.427 67.0016 203.393 66.9348 203.46C66.868 203.493 66.868 203.493 67.0016 203.46C66.9348 203.46 66.868 203.493 66.8012 203.526C66.5674 203.593 66.9682 203.526 66.701 203.526C66.5674 203.526 66.4672 203.526 66.3336 203.526C66.033 203.526 66.4672 203.56 66.2 203.526C66.0664 203.493 65.9328 203.46 65.7658 203.427C64.6636 203.094 63.4945 202.429 62.4925 201.731C61.4237 201.033 60.4551 200.169 59.5533 199.172C59.0856 198.64 58.1838 198.673 57.6828 199.172C57.1484 199.704 57.2152 200.502 57.6828 201.033C59.5533 203.061 61.8245 204.623 64.363 205.687C65.4986 206.152 66.8012 206.385 67.9702 205.886C69.3397 205.288 69.7405 203.859 69.4399 202.496C69.1393 201.133 68.2708 199.87 67.0684 199.238C66.4338 198.906 65.6322 199.072 65.2648 199.704C64.9308 200.302 65.0978 201.166 65.7324 201.499L65.7658 201.432Z" fill="black"/>
<path d="M63.1943 205.188C63.3613 205.687 62.9605 206.086 62.5263 206.252C61.758 206.551 60.756 206.152 60.0546 205.853C58.5516 205.221 57.1153 204.357 55.8127 203.393C53.2409 201.432 51.2368 198.839 49.9676 195.881C49.667 195.25 48.7318 195.083 48.1639 195.416C47.4959 195.815 47.3957 196.546 47.6963 197.211C49.3998 201.066 52.3056 204.357 55.8795 206.617C57.6831 207.781 60.0212 209.077 62.259 208.944C64.4969 208.811 66.5009 206.75 65.7661 204.49C65.2651 202.895 62.7267 203.559 63.2277 205.188H63.1943Z" fill="black"/>
<path d="M116.97 147.052C116.97 155.462 111.058 161.079 102.14 161.079H90.6836V133.058H102.14C111.025 133.058 116.97 138.642 116.97 147.052ZM110.123 147.118C110.123 142.199 107.083 138.942 101.739 138.942H97.3971V155.162H101.739C107.05 155.162 110.123 151.938 110.123 147.118Z" fill="black"/>
<path d="M111.19 45.5648C111.068 45.3027 110.939 45.0152 110.74 44.7615C110.689 44.4656 110.438 44.1908 109.995 44.0597C109.731 43.9836 109.449 43.9878 109.172 44.0301C108.421 43.9963 107.675 44.2753 107.315 44.7404C106.943 45.2223 107.001 45.8227 107.007 46.3469C107.007 46.8627 107.065 47.3785 107.174 47.8901C107.206 48.0296 107.27 48.1649 107.303 48.3002C107.348 49.0189 107.489 49.7334 107.81 50.4352C107.932 50.6973 108.061 50.9848 108.26 51.2385C108.311 51.5344 108.562 51.8092 109.005 51.9403C109.269 52.0164 109.551 52.0122 109.828 51.9699C110.579 52.0037 111.325 51.7247 111.685 51.2596C112.057 50.7777 111.999 50.1773 111.993 49.6531C111.993 49.1373 111.935 48.6215 111.826 48.1099C111.794 47.9704 111.73 47.8351 111.697 47.6998C111.652 46.9811 111.511 46.2666 111.19 45.5648Z" fill="black"/>
<path d="M92.1899 45.5648C92.0678 45.3027 91.9393 45.0152 91.7401 44.7615C91.6887 44.4656 91.4381 44.1908 90.9948 44.0597C90.7313 43.9836 90.4486 43.9878 90.1723 44.0301C89.4205 43.9963 88.6752 44.2753 88.3154 44.7404C87.9427 45.2223 88.0005 45.8227 88.007 46.3469C88.007 46.8627 88.0648 47.3785 88.174 47.8901C88.2062 48.0296 88.2704 48.1649 88.3026 48.3002C88.3475 49.0189 88.4889 49.7334 88.8101 50.4352C88.9322 50.6973 89.0607 50.9848 89.2599 51.2385C89.3113 51.5344 89.5619 51.8092 90.0052 51.9403C90.2687 52.0164 90.5514 52.0122 90.8277 51.9699C91.5795 52.0037 92.3248 51.7247 92.6846 51.2596C93.0573 50.7777 92.9995 50.1773 92.993 49.6531C92.993 49.1373 92.9352 48.6215 92.826 48.1099C92.7938 47.9704 92.7296 47.8351 92.6974 47.6998C92.6525 46.9811 92.5111 46.2666 92.1899 45.5648Z" fill="black"/>
</g>
<defs>
<clipPath id="clip0_2352_10958">
<rect width="347" height="420.98" fill="white"/>
</clipPath>
</defs>
</svg>
