<svg width="60" height="60" viewBox="0 0 60 60" fill="none" xmlns="http://www.w3.org/2000/svg">
<path d="M19.8149 14.0802C18.1098 14.384 16.5652 15.2027 15.3159 16.477C13.7206 18.1142 12.944 20.1059 13.0031 22.4521C13.0453 24.6632 13.8303 26.4861 15.3919 28.0558C16.658 29.3217 18.0085 30.0306 19.7727 30.3513C20.3044 30.4442 20.4648 30.5707 20.085 30.5876C19.9668 30.5961 19.8486 30.6045 19.8149 30.6129C19.7727 30.6214 19.5954 30.6551 19.4097 30.6973C16.9872 31.1784 14.6238 33.1532 13.6278 35.5331C13.1635 36.6471 13.0116 37.4235 13.0031 38.7232C13.0031 41.1115 13.7797 42.9851 15.4425 44.6307C16.9703 46.1414 18.8104 46.9347 20.9291 46.9938C24.6937 47.095 27.8759 44.9008 29.066 41.3647C29.2939 40.6811 29.4627 39.8625 29.4205 39.6262C29.4121 39.5756 29.4374 39.5249 29.4712 39.5249C29.5134 39.5249 29.5556 39.6262 29.564 39.7528C29.6231 40.5208 29.9439 41.601 30.3659 42.4365C31.2353 44.175 32.8728 45.7025 34.637 46.4114C36.4349 47.1372 38.7054 47.1963 40.4949 46.5634C41.7273 46.1161 42.6726 45.5169 43.6433 44.5463C44.7069 43.483 45.4834 42.0736 45.8379 40.5545C45.9983 39.8963 46.049 38.3687 45.9477 37.5839C45.5932 34.9845 43.8459 32.5709 41.4403 31.364C40.5709 30.9252 38.8574 30.461 38.486 30.5707C38.4438 30.5792 38.4353 30.5623 38.4691 30.5286C38.5029 30.4948 38.5873 30.4526 38.6548 30.4442C38.7139 30.4357 38.9249 30.402 39.119 30.3766C41.7357 30.0137 44.3102 27.9967 45.3484 25.4987C45.8379 24.3256 45.9814 23.5745 45.9899 22.2664C45.9899 20.9667 45.8717 20.2916 45.4497 19.1945C44.7153 17.2872 43.0609 15.5487 41.1955 14.7132C39.9885 14.173 38.9249 13.9705 37.5153 14.0043C34.9999 14.0633 32.8728 15.1351 31.2269 17.169C30.4503 18.1227 29.7835 19.6586 29.6147 20.8739C29.5894 21.068 29.5556 21.279 29.5471 21.3381C29.5387 21.4056 29.4965 21.49 29.4627 21.5237C29.429 21.5575 29.4121 21.5491 29.4205 21.5069C29.4796 21.3212 29.3108 20.4182 29.1082 19.7599C28.6862 18.4265 28.0616 17.3969 27.0571 16.3926C25.8923 15.2364 24.6515 14.5528 22.9971 14.1562C22.2965 13.9874 20.5999 13.9452 19.8149 14.0802ZM29.9354 24.8742C30.7204 27.1022 32.2145 28.7478 34.3331 29.7353C35.0421 30.0644 36.2576 30.4104 36.6881 30.4104C37.051 30.4104 36.8991 30.5454 36.4855 30.6045C34.8227 30.8239 33.2527 31.6257 31.9781 32.8916C30.6529 34.2081 29.8004 35.9044 29.5556 37.7273C29.5134 38.0058 29.4543 38.0312 29.429 37.7695C29.2602 35.6006 27.7746 33.187 25.8079 31.8789C24.8372 31.2375 23.073 30.5876 22.2374 30.5623C22.0939 30.5539 21.9588 30.5117 21.9251 30.4695C21.8998 30.4188 21.9082 30.4104 21.9588 30.4357C22.0939 30.5201 23.6723 30.1572 24.3476 29.8872C26.9389 28.8322 29.0238 26.2076 29.3783 23.5745C29.4627 22.9584 29.5218 22.9922 29.64 23.7011C29.7075 24.0724 29.8341 24.6041 29.9354 24.8742ZM20.6336 30.461C20.6336 30.5286 20.4733 30.5707 20.4311 30.5117C20.4057 30.4695 20.4395 30.4357 20.507 30.4357C20.5746 30.4357 20.6336 30.4526 20.6336 30.461Z" fill="url(#paint0_linear_2780_6664)"/>
<defs>
<linearGradient id="paint0_linear_2780_6664" x1="13" y1="22" x2="46" y2="34" gradientUnits="userSpaceOnUse">
<stop stop-color="#07E448"/>
<stop offset="1" stop-color="#ABFF84"/>
</linearGradient>
</defs>
</svg>
