<svg width="60" height="60" viewBox="0 0 60 60" fill="none" xmlns="http://www.w3.org/2000/svg">
<path fill-rule="evenodd" clip-rule="evenodd" d="M12.8118 12.0248C12.5936 11.962 12.3585 12.0203 12.1949 12.1778C12.0313 12.3352 11.9641 12.568 12.0186 12.7884L16.3426 30.2936C16.3449 30.3054 16.3474 30.3172 16.3503 30.329C16.3532 30.3404 16.3563 30.3518 16.3598 30.363L20.6817 47.8595C20.7362 48.08 20.9042 48.2548 21.1225 48.3179C21.3408 48.3809 21.5761 48.3228 21.7398 48.1653L47.805 23.0926C47.9688 22.9351 48.036 22.7021 47.9814 22.4815C47.9267 22.2609 47.7585 22.0862 47.5401 22.0233L38.928 19.5438C38.8897 19.5235 38.849 19.507 38.8064 19.4947C38.7635 19.4823 38.72 19.4746 38.6765 19.4714L21.6957 14.5826C21.6542 14.5595 21.6098 14.5409 21.5631 14.5275C21.5162 14.5139 21.4685 14.506 21.4208 14.5034L12.8118 12.0248ZM30.8737 18.5484L37.3847 20.4229L32.4985 25.1328L30.8737 18.5484ZM34.676 33.9571L33.0219 27.2538L39.6628 29.1601L34.676 33.9571ZM39.5146 21.0361L41.163 27.7171L46.1288 22.9404L39.5146 21.0361ZM20.1392 15.4578L13.517 13.5513L15.1709 20.2468L20.1392 15.4578ZM15.6668 22.2544L17.3214 28.9527L22.3011 24.1589L15.6668 22.2544ZM23.89 22.6293L28.761 17.9401L22.2721 16.0719L23.89 22.6293ZM19.9707 39.6778L21.6521 46.485L26.7158 41.6141L19.9707 39.6778ZM19.4742 37.6679L24.3524 32.9658L17.8498 31.092L19.4742 37.6679ZM26.6032 33.6144L28.22 40.1672L33.0893 35.4834L26.6032 33.6144ZM29.6404 18.8588L31.2532 25.3948L24.781 23.5369L29.6404 18.8588ZM24.8421 31.7834L23.1862 25.0721L18.2022 29.8701L24.8421 31.7834ZM33.4412 34.2613L26.8146 32.3518L31.7872 27.5586L33.4412 34.2613ZM24.4181 24.7558L26.0405 31.3316L30.9247 26.6236L24.4181 24.7558ZM22.6562 22.9377L16.1495 21.0699L21.0338 16.3619L22.6562 22.9377ZM33.3928 26.0371L39.8994 27.9049L38.277 21.3291L33.3928 26.0371ZM26.9578 40.3605L20.4511 38.4926L25.3353 33.7847L26.9578 40.3605Z" fill="black"/>
</svg>
