<svg width="227" height="96" viewBox="0 0 227 96" fill="none" xmlns="http://www.w3.org/2000/svg">
<g clip-path="url(#clip0_2240_5827)">
<path d="M57.3843 74.9489L58.3894 74.0524L58.4857 60.8359L60.8235 58.5234V72.4102L63.0187 70.3696L62.8174 56.7795L64.6278 55.1397V68.6277L66.6918 66.7376L66.7272 64.1162V43.6596L68.8742 41.9152V64.4387L70.6156 62.3156V38.7164L65.3827 33.0432L69.1562 28.7194H77.0774L75.1938 26.9217H68.3009L63.5718 32.3465H59.999L69.0274 23.5628L73.7809 25.458L69.104 21.2112L58.741 30.7668V27.2702L62.9172 23.2878L66.4974 21.0602H62.9711L58.6923 24.8307V21L57.5346 21.0488H57.3326L56.1767 21.0988V24.6322L51.8962 21.0602H48.3699L51.9501 23.2878L56.1263 27.2702V30.7668L45.7628 21.2112L41.0865 25.458L45.8394 23.5628L54.8684 32.3465H51.2963L46.5659 26.9217H39.6735L37.7894 28.7194H45.7111L49.4846 33.0432L44.2523 38.7164V62.3156L45.9931 64.4387V41.9152L48.1396 43.6596V64.1162L48.1262 66.8862L50.239 68.6277V55.1397L52.05 56.7795L51.8491 70.3696L54.0438 72.4102V58.5234L56.3816 60.8359L56.4774 74.0524L57.3843 74.9489ZM42.6962 30.3872L40.1663 32.9661V58.6746L42.1595 60.4947V34.3873L45.9161 33.1176L42.6962 30.3872ZM68.9509 33.1176L72.7076 34.3872V60.4947L74.7007 58.6746V32.9661L72.1708 30.3872L68.9509 33.1176ZM58.141 58.1439H56.7263L52.1683 53.8735L56.8034 50.4841L57.4336 50.2804L58.0638 50.4841L62.6984 53.8735L58.141 58.1439ZM78.3133 30.0845H75.7741L76.7536 31.6992V56.2357L78.8669 54.2761V30.9036L78.3133 30.0845ZM36 30.9035V54.2764L38.1139 56.2354V31.699L39.0928 30.0844H36.5536L36 30.9035ZM68.4517 39.5625L64.9637 42.3004V51.7509L63.5514 53.0739L58.5396 47.9741V46.6299C61.2065 45.5347 62.0613 43.9924 62.0613 43.9924L60.552 40.6083L61.4073 39.9109H65.0804L65.7842 39.0655L63.4197 36.3281L58.8918 38.0702V42.3009L57.4336 42.9777L55.9755 42.3009V38.0702L51.4471 36.3281L49.0825 39.0655L49.7869 39.9109H53.4594L54.3153 40.6083L52.8055 43.9924C52.8055 43.9924 53.6608 45.5347 56.3271 46.6299V47.9741L51.3159 53.0739L49.9036 51.7509V42.3004L46.4151 39.5625L51.2963 34.2377L57.4336 33.9932L63.5716 34.2377L68.4517 39.5625Z" fill="#BCBDBD"/>
<path d="M95.158 41.7458L90.2012 30.3252H92.0761L94.5658 36.1819C94.7126 36.5222 94.834 36.8363 94.9301 37.1242C95.0264 37.412 95.1023 37.6861 95.158 37.9464C95.2237 37.6711 95.3073 37.3857 95.4084 37.0903C95.5096 36.7951 95.6285 36.4922 95.7652 36.1819L98.2474 30.3252H100.115L95.158 41.7458Z" fill="#BCBDBD"/>
<path d="M101.113 31.1212C101.113 30.8458 101.216 30.608 101.421 30.4077C101.626 30.2076 101.87 30.1074 102.153 30.1074C102.447 30.1074 102.691 30.2039 102.886 30.3966C103.081 30.5893 103.178 30.8308 103.178 31.1212C103.178 31.4114 103.079 31.6555 102.882 31.8532C102.685 32.0509 102.442 32.1498 102.153 32.1498C101.87 32.1498 101.626 32.0484 101.421 31.8458C101.216 31.643 101.113 31.4015 101.113 31.1212ZM101.333 41.3178V34.1996H102.981V41.3178H101.333Z" fill="#BCBDBD"/>
<path d="M110.66 37.7361C110.66 37.0002 110.486 36.4272 110.14 36.0167C109.793 35.6062 109.308 35.4009 108.686 35.4009C108.064 35.4009 107.574 35.6125 107.217 36.0354C106.86 36.4584 106.682 37.0453 106.682 37.7962C106.682 38.552 106.854 39.1352 107.198 39.5457C107.542 39.9562 108.028 40.1614 108.656 40.1614C109.253 40.1614 109.736 39.9399 110.105 39.4969C110.475 39.0539 110.66 38.4669 110.66 37.7361ZM110.614 29.6794H112.261V41.3178H110.614V40.3941C110.321 40.8046 109.978 41.11 109.585 41.3102C109.193 41.5105 108.744 41.6105 108.238 41.6105C107.221 41.6105 106.42 41.2664 105.836 40.5782C105.251 39.8898 104.959 38.9475 104.959 37.7511C104.959 36.6148 105.258 35.6975 105.855 34.9992C106.452 34.3009 107.231 33.9519 108.193 33.9519C108.78 33.9519 109.282 34.0732 109.699 34.3159C110.117 34.5588 110.422 34.9079 110.614 35.3634V29.6794Z" fill="#BCBDBD"/>
<path d="M120.349 37.7812C120.349 37.1203 120.134 36.5611 119.703 36.103C119.273 35.645 118.747 35.4159 118.124 35.4159C117.507 35.4159 116.982 35.645 116.549 36.103C116.117 36.5611 115.9 37.1203 115.9 37.7812C115.9 38.442 116.117 39.0013 116.549 39.4593C116.982 39.9173 117.507 40.1464 118.124 40.1464C118.742 40.1464 119.267 39.9173 119.7 39.4593C120.132 39.0013 120.349 38.442 120.349 37.7812ZM114.162 37.7661C114.162 37.2456 114.262 36.7538 114.462 36.2906C114.662 35.8277 114.949 35.4159 115.323 35.0555C115.693 34.7001 116.118 34.4274 116.599 34.2371C117.08 34.0469 117.583 33.9518 118.109 33.9518C118.651 33.9518 119.161 34.0469 119.639 34.2371C120.117 34.4274 120.546 34.7077 120.925 35.0781C121.305 35.4435 121.593 35.8564 121.791 36.317C121.988 36.7775 122.087 37.2606 122.087 37.7661C122.087 38.2918 121.989 38.7848 121.795 39.2454C121.6 39.7059 121.315 40.1138 120.941 40.4692C120.546 40.8447 120.108 41.1287 119.627 41.3215C119.147 41.5142 118.641 41.6105 118.109 41.6105C117.588 41.6105 117.087 41.5142 116.606 41.3215C116.126 41.1287 115.698 40.8497 115.323 40.4842C114.944 40.1138 114.656 39.6983 114.458 39.2378C114.261 38.7773 114.162 38.2867 114.162 37.7661Z" fill="#BCBDBD"/>
<path d="M129.363 36.2269C129.11 35.9516 128.815 35.7413 128.478 35.5962C128.142 35.451 127.779 35.3784 127.389 35.3784C126.716 35.3784 126.177 35.5936 125.772 36.0241C125.367 36.4547 125.165 37.0253 125.165 37.7361C125.165 38.477 125.369 39.0588 125.776 39.4819C126.183 39.9048 126.746 40.1164 127.465 40.1164C127.865 40.1164 128.222 40.0425 128.535 39.8949C128.849 39.7472 129.125 39.5232 129.363 39.2228V41.1C129.059 41.2702 128.734 41.3978 128.387 41.4829C128.041 41.568 127.673 41.6105 127.283 41.6105C126.154 41.6105 125.235 41.2551 124.524 40.5444C123.813 39.8336 123.457 38.9124 123.457 37.7812C123.457 36.6349 123.825 35.71 124.562 35.0068C125.298 34.3034 126.261 33.9518 127.45 33.9518C127.824 33.9518 128.168 33.9881 128.482 34.0607C128.796 34.1333 129.089 34.2446 129.363 34.3949V36.2269Z" fill="#BCBDBD"/>
<path d="M136.372 37.7361C136.372 37.0002 136.199 36.4272 135.853 36.0167C135.506 35.6061 135.021 35.4009 134.399 35.4009C133.776 35.4009 133.287 35.6125 132.93 36.0354C132.573 36.4584 132.395 37.0453 132.395 37.7962C132.395 38.552 132.567 39.1352 132.911 39.5457C133.255 39.9562 133.741 40.1614 134.369 40.1614C134.971 40.1614 135.455 39.9412 135.822 39.5006C136.189 39.0601 136.372 38.472 136.372 37.7361ZM137.974 44.6666H136.327V40.3941C136.034 40.8046 135.691 41.11 135.298 41.3102C134.906 41.5105 134.457 41.6105 133.951 41.6105C132.934 41.6105 132.133 41.2664 131.549 40.5781C130.964 39.8898 130.672 38.9475 130.672 37.7511C130.672 36.6148 130.97 35.6975 131.568 34.9992C132.165 34.3009 132.944 33.9518 133.906 33.9518C134.493 33.9518 134.995 34.0732 135.412 34.3159C135.83 34.5588 136.135 34.9079 136.327 35.3634V34.1995H137.974V44.6666Z" fill="#BCBDBD"/>
<path d="M93.0254 53.7553H93.8681C95.2344 53.7553 96.1807 53.6964 96.707 53.5788C97.2332 53.4612 97.6709 53.2598 98.0202 52.9743C98.4756 52.599 98.8222 52.1146 99.0601 51.5214C99.298 50.9283 99.4169 50.2487 99.4169 49.4829C99.4169 48.7121 99.2992 48.035 99.0639 47.4519C98.8286 46.8686 98.4806 46.3869 98.0202 46.0064C97.6709 45.7162 97.227 45.5097 96.688 45.3869C96.1491 45.2643 95.2091 45.203 93.8681 45.203H93.0254V53.7553ZM91.6895 54.9867V43.9941H93.8225C95.4014 43.9941 96.5134 44.073 97.1586 44.2306C97.8038 44.3883 98.3694 44.6524 98.8551 45.0228C99.4928 45.5084 99.976 46.129 100.305 46.8849C100.634 47.6407 100.798 48.5118 100.798 49.4979C100.798 50.479 100.635 51.3462 100.309 52.0996C99.9824 52.853 99.4978 53.4725 98.8551 53.958C98.3694 54.3285 97.8165 54.5925 97.1966 54.7501C96.5766 54.9079 95.6114 54.9867 94.3006 54.9867H91.6895Z" fill="#BCBDBD"/>
<path d="M107.768 50.7744C107.728 50.1687 107.524 49.7018 107.157 49.374C106.79 49.0461 106.288 48.8822 105.65 48.8822C105.073 48.8822 104.593 49.0537 104.208 49.3966C103.823 49.7394 103.601 50.1987 103.54 50.7744H107.768ZM109.043 51.7279H103.54V51.833C103.54 52.5689 103.752 53.1633 104.178 53.6164C104.603 54.0694 105.157 54.296 105.84 54.296C106.306 54.296 106.726 54.172 107.1 53.9242C107.475 53.6765 107.806 53.3022 108.094 52.8017L108.998 53.4024C108.649 54.0231 108.203 54.4912 107.662 54.8065C107.12 55.1218 106.493 55.2795 105.779 55.2795C104.722 55.2795 103.866 54.9342 103.214 54.2433C102.561 53.5525 102.234 52.6465 102.234 51.5253C102.234 50.449 102.558 49.5679 103.206 48.8822C103.854 48.1965 104.686 47.8536 105.703 47.8536C106.731 47.8536 107.544 48.179 108.144 48.8297C108.743 49.4805 109.043 50.369 109.043 51.4953V51.7279Z" fill="#BCBDBD"/>
<path d="M111.172 49.0849H109.896V48.1162H111.172V45.3457H112.386V48.1162H113.662V49.0849H112.386V54.9866H111.172V49.0849Z" fill="#BCBDBD"/>
<path d="M120.094 50.7744C120.054 50.1687 119.85 49.7018 119.483 49.374C119.116 49.0461 118.614 48.8822 117.976 48.8822C117.399 48.8822 116.919 49.0537 116.534 49.3966C116.15 49.7394 115.927 50.1987 115.866 50.7744H120.094ZM121.369 51.7279H115.866V51.833C115.866 52.5689 116.079 53.1633 116.504 53.6164C116.929 54.0694 117.483 54.296 118.166 54.296C118.632 54.296 119.052 54.172 119.426 53.9242C119.801 53.6765 120.132 53.3022 120.421 52.8017L121.324 53.4024C120.975 54.0231 120.529 54.4912 119.988 54.8065C119.446 55.1218 118.819 55.2795 118.105 55.2795C117.048 55.2795 116.193 54.9342 115.54 54.2433C114.887 53.5525 114.561 52.6465 114.561 51.5253C114.561 50.449 114.884 49.5679 115.532 48.8822C116.18 48.1965 117.012 47.8536 118.029 47.8536C119.057 47.8536 119.87 48.179 120.47 48.8297C121.07 49.4805 121.369 50.369 121.369 51.4953V51.7279Z" fill="#BCBDBD"/>
<path d="M123.332 54.9867V43.3484H124.524V51.2324L127.871 48.1163H129.458L125.989 51.2625L129.769 54.9867H128.107L124.524 51.36V54.9867H123.332Z" fill="#BCBDBD"/>
<path d="M131.32 49.0849H130.045V48.1162H131.32V45.3457H132.535V48.1162H133.81V49.0849H132.535V54.9866H131.32V49.0849Z" fill="#BCBDBD"/>
<path d="M135.503 58.3355L137.385 54.311L134.66 48.1163H136.034L138.053 53.0494L140.194 48.1163H141.499L136.839 58.3355H135.503Z" fill="#BCBDBD"/>
<path d="M147.969 47.8686L150.049 52.8017L151.916 48.1163H153.252L150.163 55.4147L147.878 50.1436L145.593 55.4147L142.496 48.1163H143.817L145.669 52.8017L147.779 47.8686H147.969Z" fill="#BCBDBD"/>
<path d="M154.402 44.805C154.402 44.5698 154.487 44.3684 154.657 44.2006C154.826 44.0329 155.032 43.949 155.275 43.949C155.513 43.949 155.717 44.0342 155.886 44.2044C156.056 44.3746 156.141 44.5798 156.141 44.8201C156.141 45.0553 156.057 45.2555 155.89 45.4208C155.723 45.586 155.518 45.6685 155.275 45.6685C155.032 45.6685 154.826 45.586 154.657 45.4208C154.487 45.2555 154.402 45.0504 154.402 44.805ZM154.683 54.9867V48.1163H155.883V54.9867H154.683Z" fill="#BCBDBD"/>
<path d="M157.65 53.8304L158.668 53.1545C158.86 53.52 159.103 53.7941 159.396 53.9768C159.69 54.1595 160.036 54.2508 160.436 54.2508C160.826 54.2508 161.141 54.1557 161.381 53.9655C161.622 53.7753 161.742 53.525 161.742 53.2147C161.742 52.9743 161.66 52.7742 161.495 52.614C161.331 52.4538 161.049 52.3061 160.649 52.171L160.451 52.1035C158.761 51.5278 157.916 50.8069 157.916 49.941C157.916 49.3302 158.144 48.8322 158.599 48.4467C159.055 48.0613 159.647 47.8686 160.376 47.8686C160.978 47.8686 161.494 47.9875 161.924 48.2252C162.354 48.463 162.663 48.7997 162.85 49.2351L161.886 49.8209C161.744 49.5054 161.536 49.2627 161.26 49.0924C160.984 48.9223 160.664 48.8371 160.3 48.8371C159.95 48.8371 159.666 48.9336 159.446 49.1263C159.225 49.319 159.115 49.5655 159.115 49.8659C159.115 50.2863 159.576 50.6393 160.497 50.9245C160.669 50.9797 160.806 51.0222 160.907 51.0522C161.661 51.2925 162.186 51.5665 162.482 51.8744C162.778 52.1823 162.926 52.5889 162.926 53.0945C162.926 53.7452 162.692 54.2721 162.224 54.6751C161.756 55.078 161.145 55.2795 160.391 55.2795C159.743 55.2795 159.193 55.1594 158.74 54.9192C158.287 54.6788 157.924 54.3159 157.65 53.8304Z" fill="#BCBDBD"/>
<path d="M164.9 49.0849H163.625V48.1162H164.9V45.3457H166.115V48.1162H167.39V49.0849H166.115V54.9866H164.9V49.0849Z" fill="#BCBDBD"/>
<path d="M169.083 58.3355L170.965 54.311L168.24 48.1163H169.614L171.633 53.0494L173.774 48.1163H175.08L170.419 58.3355H169.083Z" fill="#BCBDBD"/>
<path d="M176.373 54.9867V43.3484H177.565V51.2324L180.912 48.1163H182.499L179.03 51.2625L182.81 54.9867H181.148L177.565 51.36V54.9867H176.373Z" fill="#BCBDBD"/>
<path d="M189.806 51.6154C189.806 50.8394 189.592 50.215 189.165 49.7419C188.737 49.2689 188.179 49.0323 187.491 49.0323C186.777 49.0323 186.22 49.2501 185.821 49.6856C185.421 50.1212 185.221 50.7293 185.221 51.5103C185.221 52.3412 185.422 52.9819 185.825 53.4324C186.227 53.883 186.797 54.1082 187.536 54.1082C188.245 54.1082 188.8 53.8892 189.202 53.4513C189.605 53.0132 189.806 52.4013 189.806 51.6154ZM190.96 48.1163V54.9867H189.806V53.7403C189.528 54.2409 189.172 54.6226 188.739 54.8853C188.307 55.1481 187.822 55.2795 187.286 55.2795C186.289 55.2795 185.485 54.9404 184.876 54.2621C184.266 53.5838 183.961 52.6866 183.961 51.5703C183.961 50.439 184.257 49.5393 184.849 48.8709C185.441 48.2026 186.233 47.8686 187.225 47.8686C187.807 47.8686 188.312 47.9974 188.739 48.2553C189.167 48.513 189.512 48.8972 189.775 49.4079V48.1163H190.96Z" fill="#BCBDBD"/>
</g>
<defs>
<clipPath id="clip0_2240_5827">
<rect width="155" height="54" fill="white" transform="translate(36 21)"/>
</clipPath>
</defs>
</svg>
