<svg width="227" height="96" viewBox="0 0 227 96" fill="none" xmlns="http://www.w3.org/2000/svg">
<mask id="mask0_2239_5266" style="mask-type:luminance" maskUnits="userSpaceOnUse" x="34" y="23" width="160" height="50">
<path d="M193.575 23H34V72.4697H193.575V23Z" fill="white"/>
</mask>
<g mask="url(#mask0_2239_5266)">
<path d="M145.05 63.9055H149.137V62.4088H147.608C146.284 62.4088 146.109 62.6392 146.079 61.4308V30.4854H142.521V60.9123C142.521 62.9273 143.021 63.9055 145.05 63.9055Z" fill="#BDBFBE"/>
<path d="M157.281 46.9508C157.399 46.4325 157.781 46.404 157.781 46.404C157.899 46.404 157.958 46.404 158.045 46.4325C158.428 46.5765 158.722 47.0078 158.811 47.4399L160.84 55.9322H155.252L157.281 46.9508ZM154.753 57.9177H161.368L162.897 63.9068H167.484L162.368 47.4399C161.663 45.4543 161.309 44.5036 160.84 43.9568C160.398 43.4383 159.104 43.2658 158.045 43.4383C157.516 43.5256 157.017 43.6981 156.782 43.9568C156.193 44.5899 155.752 45.4543 155.252 46.9508L151.166 63.9068H153.224L154.753 57.9177Z" fill="#BDBFBE"/>
<path d="M115.002 63.9055H119.56V62.4088H117.531C116.414 62.4088 116.032 62.6107 116.001 61.4308V30.4854H112.475V60.9123C112.475 62.9273 112.973 63.9055 115.002 63.9055Z" fill="#BDBFBE"/>
<path d="M103.975 38.6599C105.534 38.6599 106.798 37.4221 106.798 35.8961C106.798 34.3711 105.534 33.1333 103.975 33.1333C102.417 33.1333 101.152 34.3711 101.152 35.8961C101.152 37.4221 102.417 38.6599 103.975 38.6599Z" fill="#BDBFBE"/>
<path d="M186.33 63.9054H189.389V45.4538H193.475V43.4672H182.244V45.4538H186.33V63.9054Z" fill="#BDBFBE"/>
<path d="M173.6 54.9241C176.127 56.4215 177.803 57.774 177.803 59.2706C177.803 63.0135 172.6 62.6107 170.012 62.1216V63.4162C172.306 64.2798 176.893 64.165 179.186 63.4162C180.979 62.5235 181.891 60.3653 181.891 58.8687C181.891 54.7525 177.774 52.6796 174.599 50.9519C172.747 49.5415 171.688 47.8715 173.6 45.9428C175.393 44.8206 177.686 44.9931 179.714 45.4537V43.957C177.216 43.1221 173.893 43.2946 171.542 44.4461C166.808 47.9294 169.425 52.4778 173.6 54.9241Z" fill="#BDBFBE"/>
<path d="M126.704 62.4091V45.454C128.851 45.454 131.261 45.6833 132.82 47.4406C133.467 48.1022 133.967 48.8215 134.378 49.6272C135.055 50.9806 135.378 52.535 135.378 54.0902C135.378 55.7879 135.025 57.2852 134.378 58.6672C134.084 59.271 133.731 59.8472 133.349 60.4225C131.496 62.8697 129.379 62.4091 126.704 62.4091ZM134.378 63.1863C135.172 62.812 135.966 62.2073 136.994 61.2006C138.672 58.869 138.995 56.5366 138.995 53.5425C138.995 50.5484 138.083 48.5343 136.231 46.4322C135.642 45.8569 135.055 45.3678 134.378 44.964C132.791 43.9859 130.909 43.4674 128.763 43.4674H122.646V72.3401H126.704V63.9056H130.291C132.113 63.8194 133.261 63.7332 134.378 63.1863Z" fill="#BDBFBE"/>
<path d="M119.588 66.2663H89.5684V68.685H119.588V66.2663Z" fill="#BDBFBE"/>
<path d="M105.856 43.4674H101.77V63.9056H105.856V43.4674Z" fill="#BDBFBE"/>
<path d="M93.0966 45.4541H97.1828V43.4676H93.0966V35.4938C93.0966 32.1547 94.4791 31.9812 97.1828 31.9812V30.5424C93.0966 30.3984 89.5391 30.514 89.5391 35.4938V63.9058H93.0966V45.4541Z" fill="#BDBFBE"/>
<path d="M193.532 66.2667H129.76V68.6845H193.532V66.2667Z" fill="#BDBFBE"/>
<path d="M52.8477 46.634V68.2522C54.3763 68.5982 56.4343 68.7128 57.9628 68.7128C58.11 68.7128 58.2871 68.6845 58.4634 68.6845C71.0179 67.9935 80.2793 58.0625 80.6616 46.634H52.8477Z" fill="#BDBFBE"/>
<path d="M52.8477 37.278V43.4964H80.5735C79.7788 36.0117 75.5456 29.851 69.1071 26.1953C65.4313 27.1743 61.5214 28.8434 58.4634 30.7722C55.171 32.845 52.8477 35.2051 52.8477 37.278Z" fill="#BDBFBE"/>
<path d="M64.0783 23.9788H64.0192C62.1664 23.5182 60.3144 23.0575 58.4626 22.9998H57.9621C44.7018 22.9998 34.1172 32.8739 34 45.7127C34 52.1899 36.9981 58.9259 42.1442 63.1568V37.9692C43.6437 29.5917 51.6707 26.5123 58.4626 25.0147C60.5197 24.5542 62.4607 24.266 64.0783 23.9788Z" fill="#BDBFBE"/>
</g>
</svg>
