<svg width="227" height="96" viewBox="0 0 227 96" fill="none" xmlns="http://www.w3.org/2000/svg">
<path d="M121 50.5175L142.001 71.518H151.001L130 50.5175L157.001 23.5168H148.001L121 50.5175Z" fill="#BDBFBE"/>
<path d="M70 44.5172L76.0002 38.517V29.5168H88.0005V41.5171L79.0002 50.5173L88.0005 59.5176V65.5177H76.0002L70 71.5179H94.0006V56.5175L88.0005 50.5173L94.0006 44.5172V23.5166H70V44.5172Z" fill="#BDBFBE"/>
<path d="M130.002 23.5169H124.002V35.5172L130.002 29.517V23.5169Z" fill="#BDBFBE"/>
<path d="M130.001 71.518L109 50.5175L121.001 38.5172V23.5168H97V41.5172L103 35.5171V29.5169H115V35.5171L100 50.5175L121.001 71.518H130.001Z" fill="#BDBFBE"/>
</svg>
