<svg width="227" height="96" viewBox="0 0 227 96" fill="none" xmlns="http://www.w3.org/2000/svg">
<path d="M89.2062 27.4009C89.1486 26.9539 89.1084 26.4085 89.0816 25.7647C89.0528 25.1192 89.0391 24.5725 89.0391 24.1252C89.0391 23.7302 89.0528 23.2339 89.0816 22.6381C89.1084 22.043 89.1486 21.5456 89.2062 21.149C89.7022 21.1 90.3101 21.0633 91.0291 21.0382C91.7455 21.0127 92.3547 20.9999 92.851 20.9999C93.2934 20.9999 93.8457 21.0127 94.5088 21.0382C95.1703 21.0633 95.7229 21.1 96.1647 21.149C96.2203 21.5456 96.2608 22.043 96.2909 22.6381C96.319 23.2339 96.3318 23.7302 96.3318 24.1252C96.3318 24.5725 96.319 25.1192 96.2909 25.7647C96.2608 26.4085 96.2203 26.9539 96.1647 27.4009C95.7229 27.4503 95.1703 27.4882 94.5088 27.5121C93.8457 27.5386 93.2934 27.5513 92.851 27.5513C92.3547 27.5513 91.7455 27.5386 91.0291 27.5121C90.3101 27.4882 89.7022 27.4503 89.2062 27.4009Z" fill="#BDBFBE"/>
<path d="M86.5142 37.6724C86.4857 38.0713 86.4727 38.467 86.4727 38.8633C86.4727 39.2609 86.4857 39.6349 86.5142 39.9809C86.5417 40.3281 86.5812 40.626 86.6381 40.8735H91.9408V74.6653C92.2717 74.7144 92.7416 74.7513 93.3501 74.7761C93.957 74.8017 94.3974 74.8154 94.6763 74.8154C95.0069 74.8154 95.4621 74.8017 96.0425 74.7761C96.6232 74.7513 97.0784 74.7144 97.408 74.6653V36.7039H86.6381C86.5812 36.954 86.5417 37.2761 86.5142 37.6724Z" fill="#BDBFBE"/>
<path d="M128.059 70.4226C126.623 70.6714 125.158 70.8686 123.668 71.0187C122.176 71.1661 120.572 71.241 118.863 71.241C117.536 71.241 116.211 71.155 114.885 70.9807C113.56 70.8078 112.342 70.4605 111.238 69.939C110.133 69.4174 109.235 68.6608 108.545 67.6684C107.854 66.6757 107.509 65.3612 107.509 63.7263C107.509 61.1447 108.642 59.16 110.907 57.7696C113.171 56.3803 116.375 55.6861 120.518 55.6861C121.79 55.6861 123.128 55.7476 124.537 55.8715C125.947 55.9954 127.119 56.1076 128.059 56.2076V70.4226ZM129.633 38.9746C127.036 36.8669 123.06 35.8124 117.701 35.8124C115.491 35.8124 113.337 35.9487 111.238 36.2218C109.139 36.4945 107.371 36.829 105.936 37.2269C105.936 37.9721 106.031 38.7637 106.225 39.6083C106.419 40.4529 106.652 41.0984 106.929 41.5431C108.366 41.1465 109.996 40.8106 111.818 40.5379C113.641 40.2652 115.659 40.1299 117.867 40.1299C121.237 40.1299 123.777 40.8875 125.49 42.4004C127.202 43.9144 128.059 46.3059 128.059 49.5816V51.8888C127.119 51.7904 125.931 51.6792 124.497 51.5543C123.06 51.4307 121.347 51.3673 119.357 51.3673C116.819 51.3673 114.483 51.64 112.357 52.187C110.23 52.7351 108.407 53.5394 106.888 54.6048C105.37 55.673 104.181 56.9878 103.325 58.5498C102.469 60.1131 102.041 61.8886 102.041 63.8728C102.041 67.9931 103.519 70.9693 106.475 72.8053C109.43 74.64 113.475 75.5582 118.612 75.5582C121.098 75.5582 123.722 75.3839 126.485 75.0366C129.247 74.6897 131.591 74.3434 133.528 73.9952V48.9126C133.528 44.3967 132.23 41.086 129.633 38.9746Z" fill="#BDBFBE"/>
<path d="M164.577 58.9589C163.774 57.6696 162.751 56.6043 161.511 55.7603C160.266 54.9154 158.886 54.2349 157.367 53.7137C155.846 53.1922 154.342 52.7083 152.852 52.2613C151.692 51.9637 150.599 51.64 149.578 51.2944C148.555 50.9471 147.645 50.5377 146.845 50.0656C146.043 49.5944 145.406 49.0235 144.938 48.3535C144.468 47.6851 144.234 46.8795 144.234 45.9361C144.234 44.1988 144.938 42.7958 146.346 41.7288C147.755 40.6628 150.144 40.1299 153.514 40.1299C155.447 40.1299 157.311 40.3032 159.109 40.6501C160.902 40.9974 162.38 41.3449 163.54 41.6919C164.037 40.3032 164.423 38.8886 164.698 37.4502C163.595 37.0526 162.034 36.6815 160.02 36.3326C158.003 35.9867 155.917 35.8124 153.76 35.8124C148.626 35.8124 144.826 36.7544 142.369 38.6401C139.91 40.5252 138.683 42.9825 138.683 46.0094C138.683 47.6472 138.999 49.0124 139.635 50.1035C140.269 51.1946 141.114 52.1239 142.163 52.894C143.211 53.6644 144.412 54.2971 145.767 54.7921C147.121 55.2881 148.487 55.7351 149.868 56.1318C151.139 56.5294 152.382 56.9119 153.596 57.2857C154.811 57.6571 155.905 58.1421 156.869 58.7368C157.836 59.3316 158.609 60.065 159.19 60.9312C159.77 61.8017 160.059 62.9039 160.059 64.2452C160.059 66.1796 159.092 67.806 157.161 69.1205C155.225 70.4353 152.602 71.0919 149.288 71.0919C147.52 71.0919 145.668 70.9314 143.736 70.6083C141.802 70.2875 140.229 69.901 139.014 69.454C138.294 70.9441 137.771 72.4316 137.438 73.9216C138.711 74.417 140.38 74.8156 142.452 75.1112C144.523 75.4107 146.885 75.5582 149.538 75.5582C151.912 75.5582 154.094 75.2828 156.082 74.7384C158.071 74.193 159.784 73.4141 161.22 72.3962C162.655 71.38 163.774 70.1371 164.577 68.6752C165.376 67.2086 165.777 65.5849 165.777 63.7995C165.777 61.8635 165.376 60.2508 164.577 58.9589Z" fill="#BDBFBE"/>
<path d="M81.0563 71.1661C80.2813 71.1661 79.5237 71.1057 78.7788 70.9817C78.033 70.8568 77.3695 70.5969 76.7908 70.1993C76.2097 69.8039 75.7408 69.2432 75.3805 68.5244C75.0211 67.8074 74.8413 66.8248 74.8413 65.5849V25.021H74.5104L69.3728 29.5605V36.7041H62.1645C62.1102 36.9542 62.0674 37.2521 62.0412 37.598C62.0114 37.9453 62 38.3177 62 38.7157C62 39.1133 62.0114 39.5086 62.0412 39.9065C62.0674 40.3032 62.1102 40.6249 62.1645 40.8738H69.3728V65.8095C69.3728 69.2304 70.3547 71.7004 72.3153 73.2134C74.2749 74.726 76.8306 75.4836 79.9801 75.4836C82.6307 75.4836 84.9513 75.2096 86.9397 74.6655C86.7742 73.1755 86.4959 71.789 86.1124 70.4968C84.674 70.9441 82.991 71.1661 81.0563 71.1661Z" fill="#BDBFBE"/>
</svg>
