<svg width="227" height="96" viewBox="0 0 227 96" fill="none" xmlns="http://www.w3.org/2000/svg">
<path d="M87.1069 39.4759H93.1821C97.8028 39.4759 101.556 43.2299 101.556 47.8489C101.556 52.465 97.8028 56.2203 93.1821 56.2203H87.1069C82.4896 56.2203 78.7349 52.465 78.7349 47.8489C78.7349 43.2299 82.4896 39.4759 87.1069 39.4759ZM87.1069 59.1054H93.1821C99.39 59.1054 104.439 54.0522 104.439 47.8489C104.439 41.6416 99.39 36.5901 93.1821 36.5901H87.1069C80.9001 36.5901 75.8516 41.6416 75.8516 47.8489C75.8516 54.0522 80.9001 59.1054 87.1069 59.1054Z" fill="#BDBFBE"/>
<path d="M158.277 39.4759H164.357C168.972 39.4759 172.729 43.2299 172.729 47.8489C172.729 52.465 168.972 56.2203 164.357 56.2203H158.277C153.661 56.2203 149.908 52.465 149.908 47.8489C149.908 43.2299 153.661 39.4759 158.277 39.4759ZM158.277 59.1054H164.357C170.561 59.1054 175.611 54.0522 175.611 47.8489C175.611 41.6416 170.561 36.5901 164.357 36.5901H158.277C152.074 36.5901 147.027 41.6416 147.027 47.8489C147.027 54.0522 152.074 59.1054 158.277 59.1054Z" fill="#BDBFBE"/>
<path d="M199.939 56.2197H193.864C189.247 56.2197 185.488 52.465 185.488 47.8484C185.488 43.23 189.247 39.4753 193.864 39.4753H199.939C204.558 39.4753 208.315 43.23 208.315 47.8484C208.315 52.465 204.558 56.2197 199.939 56.2197ZM199.939 36.5942H193.864C187.656 36.5942 182.609 41.641 182.609 47.8484C182.609 54.0516 187.656 59.1048 193.864 59.1048H199.939C206.146 59.1048 211.193 54.0516 211.193 47.8484C211.193 41.641 206.146 36.5942 199.939 36.5942Z" fill="#BDBFBE"/>
<path d="M115.037 39.4757H128.046C132.665 39.4757 136.421 43.2298 136.421 47.8488C136.421 52.4649 132.665 56.2202 128.046 56.2202H115.037V39.4757ZM139.303 47.8488C139.303 41.6415 134.253 36.59 128.046 36.59H112.154V59.1053H128.046C134.253 59.1053 139.303 54.0521 139.303 47.8488Z" fill="#BDBFBE"/>
<path d="M46.3992 53.2193H61.9336C64.3636 53.2193 66.3396 55.1982 66.3396 57.6288V59.0699H69.2224V57.6288C69.2224 55.0748 67.9011 52.8346 65.9089 51.5349C67.9186 50.0129 69.2224 47.612 69.2224 44.9056C69.2224 40.3233 65.495 36.5948 60.9081 36.5948H43.5176V39.4758H60.9081C63.9032 39.4758 66.3396 41.9087 66.3396 44.9056C66.3396 47.8996 63.9032 50.3365 60.9081 50.3365H43.5176V59.1048H46.3992V53.2193Z" fill="#BDBFBE"/>
<path d="M10.8822 53.2193H25.3899C29.9769 53.2193 33.7042 49.489 33.7042 44.9055C33.7042 40.3232 29.9769 36.5947 25.3899 36.5947H8V39.4758H25.3899C28.3856 39.4758 30.8231 41.9087 30.8231 44.9055C30.8231 47.8995 28.3856 50.3365 25.3899 50.3365H8V59.1047H10.8822V53.2193Z" fill="#BDBFBE"/>
<path d="M219.459 41.7737C218.917 42.3159 218.17 42.6513 217.342 42.6513C216.515 42.6513 215.767 42.3159 215.225 41.7737C214.683 41.2315 214.348 40.4841 214.348 39.6565C214.348 38.8289 214.683 38.0815 215.225 37.5393C215.767 36.997 216.515 36.6626 217.342 36.6617C218.17 36.6626 218.917 36.997 219.459 37.5393C220.002 38.0815 220.336 38.8289 220.336 39.6565C220.336 40.4841 220.002 41.2315 219.459 41.7737ZM217.342 36.2341C215.452 36.2341 213.92 37.766 213.92 39.6565C213.92 41.5461 215.452 43.0788 217.342 43.0788C219.232 43.0788 220.765 41.5461 220.765 39.6565C220.765 37.766 219.232 36.2341 217.342 36.2341Z" fill="#BDBFBE"/>
<path d="M217.342 36.8965C216.605 36.8965 215.911 37.1836 215.39 37.7051C214.868 38.2267 214.581 38.9198 214.581 39.6568C214.581 40.3939 214.868 41.087 215.39 41.6085C215.911 42.1301 216.605 42.4171 217.342 42.4171C218.079 42.4171 218.772 42.1301 219.293 41.6085C219.815 41.087 220.102 40.3939 220.102 39.6568C220.102 38.9198 219.815 38.2267 219.293 37.7051C218.772 37.1836 218.079 36.8965 217.342 36.8965ZM217.342 43.3137C215.325 43.3128 213.686 41.6732 213.686 39.6568C213.686 37.6405 215.325 36 217.342 36C219.358 36 220.997 37.6405 220.998 39.6568C220.997 41.6732 219.358 43.3128 217.342 43.3137Z" fill="#BDBFBE"/>
<path d="M217.453 38.3739H216.645V39.4998H217.453C217.817 39.4998 218.063 39.292 218.063 38.9394C218.063 38.586 217.817 38.3739 217.453 38.3739ZM218.084 41.479L217.327 39.9644H216.645V41.479H216.1V37.8843H217.494C218.175 37.8843 218.609 38.3231 218.609 38.9343C218.609 39.4498 218.296 39.7773 217.892 39.8886L218.72 41.479H218.084Z" fill="#BDBFBE"/>
<path d="M216.743 39.4062H217.457C217.78 39.4062 217.974 39.2312 217.974 38.9398C217.974 38.6485 217.776 38.4683 217.457 38.4683H216.743V39.4062ZM217.457 39.5933H216.555V38.2804H217.457C217.879 38.2804 218.161 38.545 218.161 38.9398C218.161 39.3364 217.885 39.5933 217.457 39.5933ZM218.147 41.3855H218.57L217.759 39.8295L217.871 39.7984C218.277 39.6872 218.519 39.364 218.519 38.9347C218.519 38.3623 218.109 37.9778 217.498 37.9778H216.197V41.3855H216.555V39.8708H217.389L218.147 41.3855ZM218.879 41.5725H218.03L217.274 40.0579H216.743V41.5725H216.01V37.7907H217.498C218.21 37.7907 218.707 38.2614 218.707 38.9347C218.707 39.4062 218.45 39.7829 218.03 39.9433L218.879 41.5725Z" fill="#BDBFBE"/>
</svg>
