<svg width="227" height="96" viewBox="0 0 227 96" fill="none" xmlns="http://www.w3.org/2000/svg">
<g clip-path="url(#clip0_2239_5132)">
<path d="M66.8864 41.7476C65.1167 41.7414 63.3997 42.3488 62.0276 43.4665V42.1989H57.7695V58.8462H62.2041V48.8759C62.222 48.042 62.5671 47.2486 63.1649 46.667C63.7626 46.0853 64.5651 45.7621 65.3992 45.767C66.8373 45.767 68.5501 46.3507 68.5501 49.1496V58.8452H72.9817V48.0144C72.9817 44.2597 70.5337 41.7476 66.8864 41.7476Z" fill="#BDBFBE"/>
<path d="M84.8403 41.3836C83.6268 41.346 82.4183 41.5549 81.2879 41.9977C80.1575 42.4405 79.1286 43.1079 78.2635 43.9596C77.3983 44.8114 76.7149 45.8297 76.2546 46.9531C75.7942 48.0765 75.5664 49.2815 75.585 50.4955C75.585 55.8938 79.5964 59.6615 85.3357 59.6615C88.3594 59.6585 91.2854 58.5896 93.5991 56.6429L93.8689 56.4233L91.4781 53.3496L91.1863 53.5923C89.5579 54.9873 87.4799 55.7464 85.3357 55.7293C82.5819 55.7293 80.8299 54.3955 80.3506 51.9506H94.0945V50.4965C94.1133 49.2826 93.8857 48.0775 93.4254 46.954C92.9652 45.8306 92.2819 44.8122 91.4168 43.9604C90.5518 43.1085 89.523 42.441 88.3926 41.9981C87.2622 41.5552 86.0538 41.3461 84.8403 41.3836ZM84.8403 45.3167C85.7599 45.2581 86.6726 45.5095 87.4325 46.0307C88.1924 46.552 88.7557 47.3129 89.0322 48.1919H80.6003C80.8853 47.3086 81.4574 46.5458 82.2256 46.0249C82.9939 45.5039 83.9142 45.2547 84.8403 45.3167Z" fill="#BDBFBE"/>
<path d="M131.895 41.3835C126.506 41.3835 122.281 45.3829 122.281 50.4954C122.402 52.9642 123.468 55.292 125.258 56.9965C127.048 58.701 129.425 59.6517 131.897 59.6517C134.369 59.6517 136.746 58.701 138.536 56.9965C140.326 55.292 141.392 52.9642 141.513 50.4954C141.514 45.3829 137.287 41.3835 131.895 41.3835ZM131.895 45.2726C132.947 45.2111 133.994 45.4674 134.899 46.0083C135.804 46.5492 136.526 47.3496 136.97 48.3057C137.415 49.2619 137.561 50.3295 137.391 51.3702C137.222 52.4108 136.743 53.3763 136.017 54.1413C135.292 54.9064 134.353 55.4357 133.323 55.6606C132.293 55.8854 131.219 55.7954 130.24 55.4022C129.262 55.0091 128.424 54.3309 127.836 53.4557C127.248 52.5805 126.937 51.5488 126.942 50.4944C126.91 49.8227 127.014 49.1514 127.247 48.5209C127.481 47.8904 127.84 47.3137 128.303 46.8258C128.766 46.3378 129.323 45.9486 129.94 45.6817C130.557 45.4148 131.222 45.2756 131.895 45.2726Z" fill="#BDBFBE"/>
<path d="M152.8 41.7476C151.03 41.7413 149.313 42.3488 147.941 43.4665V42.1989H143.682V58.8462H148.116V48.8759C148.134 48.042 148.479 47.2486 149.077 46.667C149.675 46.0853 150.477 45.7621 151.311 45.767C152.749 45.767 154.462 46.3507 154.462 49.1496V58.8452H158.897V48.0144C158.898 44.2597 156.447 41.7476 152.8 41.7476Z" fill="#BDBFBE"/>
<path d="M170.765 45.5814C171.947 45.5283 173.115 45.8483 174.104 46.496L174.204 46.5732H174.684L176.38 43.3561L176.122 43.1686C174.53 42.1363 172.663 41.6118 170.766 41.6643C165.313 41.6643 161.197 45.4651 161.197 50.5004C161.197 55.5688 165.309 59.3917 170.766 59.3917C172.668 59.429 174.535 58.8872 176.122 57.8383L176.38 57.6507L174.787 54.6522L174.687 54.4647H174.207L174.107 54.5419C173.119 55.1922 171.95 55.5125 170.768 55.4565C169.459 55.4565 168.204 54.9364 167.278 54.0108C166.352 53.0851 165.832 51.8296 165.832 50.5205C165.832 49.2113 166.352 47.9558 167.278 47.0302C168.204 46.1045 169.459 45.5844 170.768 45.5844L170.765 45.5814Z" fill="#BDBFBE"/>
<path d="M186.702 41.3836C185.488 41.346 184.28 41.5549 183.149 41.9977C182.019 42.4405 180.99 43.1079 180.125 43.9596C179.26 44.8114 178.576 45.8297 178.116 46.9531C177.655 48.0765 177.428 49.2816 177.446 50.4955C177.446 55.8938 181.458 59.6615 187.197 59.6615C190.221 59.6585 193.147 58.5897 195.46 56.6429L195.731 56.4233L193.34 53.3496L193.049 53.5923C191.42 54.9873 189.342 55.7464 187.198 55.7293C184.443 55.7293 182.692 54.3955 182.213 51.9506H195.957V50.4965C195.976 49.2825 195.748 48.0773 195.288 46.9538C194.827 45.8303 194.144 44.8118 193.279 43.96C192.414 43.1081 191.385 42.4406 190.254 41.9978C189.124 41.555 187.915 41.346 186.702 41.3836ZM186.702 45.3167C187.621 45.2583 188.534 45.5098 189.294 46.031C190.054 46.5522 190.617 47.313 190.894 48.1919H182.46C182.745 47.3082 183.317 46.5452 184.086 46.0242C184.854 45.5032 185.775 45.2542 186.702 45.3167Z" fill="#BDBFBE"/>
<path d="M115.726 48.92L122.545 42.2009H116.679L111.241 47.516V25L106.807 29.0355V58.8472H111.241V53.3596L112.58 52.0158L117.158 58.6927L117.268 58.8472H122.718L115.726 48.92Z" fill="#BDBFBE"/>
<path d="M208.805 41.6593C206.578 41.62 204.413 42.4001 202.723 43.8515V42.1988H198.465V70.1282L202.899 66.0927V57.2275C204.542 58.6383 206.64 59.4055 208.805 59.3867C209.943 59.3724 211.067 59.1311 212.11 58.677C213.153 58.2229 214.096 57.5651 214.882 56.7422C215.668 55.9192 216.281 54.9477 216.687 53.8845C217.093 52.8214 217.282 51.6879 217.244 50.5506C217.286 49.4096 217.099 48.2718 216.696 47.2039C216.292 46.1359 215.679 45.1592 214.893 44.3311C214.108 43.503 213.164 42.8402 212.119 42.3814C211.073 41.9226 209.947 41.6771 208.805 41.6593ZM207.76 55.4094C207.113 55.4187 206.47 55.2991 205.869 55.0577C205.268 54.8163 204.721 54.4579 204.26 54.0032C203.798 53.5485 203.432 53.0067 203.182 52.4093C202.932 51.8118 202.803 51.1706 202.803 50.523C202.803 49.8754 202.932 49.2342 203.182 48.6367C203.432 48.0393 203.798 47.4974 204.26 47.0428C204.721 46.5881 205.268 46.2297 205.869 45.9883C206.47 45.7469 207.113 45.6273 207.76 45.6366C209.044 45.655 210.269 46.1779 211.17 47.0923C212.072 48.0067 212.577 49.239 212.577 50.523C212.577 51.807 212.072 53.0393 211.17 53.9537C210.269 54.8681 209.044 55.391 207.76 55.4094Z" fill="#BDBFBE"/>
<path d="M102.192 33.2344L97.7571 37.2699V42.1989H95.7734V46.0328H97.7571V58.8472H102.192V46.0328H104.182V42.1989H102.194L102.192 33.2344Z" fill="#BDBFBE"/>
<path d="M225.011 33.2344L220.576 37.2699V42.1989H218.594V46.0328H220.576V58.8472H225.011V46.0328H227V42.1989H225.011V33.2344Z" fill="#BDBFBE"/>
<path d="M23.7806 51.3348L10.0466 36.283H7V58.8471H11.4346V43.7934L25.1344 58.8471H30.637L28.1811 56.1565L23.7806 51.3348Z" fill="#BDBFBE"/>
<path d="M34.0452 51.3739L20.3062 36.283H14.8086L17.2646 38.9737L21.665 43.7964L35.404 58.8481H40.8515L38.4456 56.2046L34.0452 51.3739Z" fill="#BDBFBE"/>
<path d="M37.4988 39.3297L40.8463 36.283H34.8072L29.9855 40.6825L29.4941 41.1298L32.2279 44.1253L37.4988 39.3297Z" fill="#BDBFBE"/>
</g>
<defs>
<clipPath id="clip0_2239_5132">
<rect width="227" height="96" fill="white"/>
</clipPath>
</defs>
</svg>
