<svg width="227" height="96" viewBox="0 0 227 96" fill="none" xmlns="http://www.w3.org/2000/svg">
<mask id="mask0_2239_5118" style="mask-type:luminance" maskUnits="userSpaceOnUse" x="32" y="23" width="169" height="49">
<path d="M201 23.7954H32.3203V71.7159H201V23.7954Z" fill="white"/>
</mask>
<g mask="url(#mask0_2239_5118)">
<path d="M197.085 46.1803C197.085 49.3659 196.296 52.3657 194.927 55.0182C194.086 55.2712 193.352 55.5512 192.637 55.8261C190.874 56.5032 189.209 57.1436 185.754 57.2625C182.865 57.3587 181.206 57.0129 179.685 56.576V48.8477C185.586 47.9042 190.116 42.7924 190.116 36.6278V31.3339C194.489 34.9637 197.085 40.3505 197.085 46.1803ZM184.767 61.1976C185.124 61.1976 185.499 61.1909 185.89 61.1783C187.857 61.1099 189.344 60.8915 190.587 60.5999C187.167 63.6477 182.677 65.5175 177.746 65.5175C172.634 65.5175 167.993 63.5095 164.531 60.259C166.058 59.6921 167.705 59.204 170.674 59.0993C174.135 58.983 175.838 59.5034 177.641 60.0543C179.483 60.6174 181.381 61.1976 184.767 61.1976ZM175.768 55.5208C174.407 55.2604 172.774 55.1025 170.539 55.1854C166.428 55.3287 164.374 56.1181 162.388 56.8821C162.195 56.9564 161.996 57.0255 161.803 57.0979C159.667 53.9874 158.411 50.2295 158.411 46.1811C158.411 40.3735 160.992 35.0009 165.338 31.37V36.6278C165.338 42.7924 169.867 47.905 175.769 48.8477V55.5208H175.768ZM201.002 46.1803C201.002 36.9822 195.55 28.6306 187.112 24.9027L186.193 24.4963V28.7892L186.199 28.7925V36.6271C186.199 40.6239 183.415 43.9739 179.685 44.8621V23.7954H175.767V44.8621C172.038 43.9747 169.253 40.6239 169.253 36.6271V28.8122L169.258 28.8096V24.513L168.338 24.9224C159.926 28.6584 154.492 37.003 154.492 46.1803C154.492 59.0031 164.923 69.4352 177.746 69.4352C190.57 69.4352 201.002 59.0031 201.002 46.1803Z" fill="#BDBFBE"/>
<path d="M55.9838 60.3089L44.4191 45.8826L54.8393 34.3558H49.3427L36.9003 47.9809V34.3558H32.3203V60.3089H36.9003V54.2417L41.3279 49.3178L50.2586 60.3089H55.9838ZM59.4568 60.3089H77.7012V56.1873H64.0375V34.3558H59.4568V60.3089ZM103.771 48.7821V34.3558H99.1895V48.7821C99.1895 53.4015 96.4036 56.6074 92.282 56.6074C88.1214 56.6074 85.3727 53.4007 85.3727 48.7821V34.3558H80.7931V48.7821C80.7931 56.2252 85.4117 60.8824 92.282 60.8824C99.1516 60.8824 103.771 56.2252 103.771 48.7821ZM128.465 47.2176C128.465 52.2173 124.495 56.0725 119.304 56.0725H114.152V38.5915H119.304C124.495 38.5915 128.465 42.3327 128.465 47.2176ZM133.159 47.2176C133.159 39.8128 127.281 34.3551 119.304 34.3551H109.571V60.3082H119.304C127.281 60.3089 133.159 54.7376 133.159 47.2176ZM138.235 60.3089H142.815V34.3558H138.235V60.3089Z" fill="#BDBFBE"/>
<path d="M38.2066 71.6385L39.961 66.397H39.1943L37.8456 70.5126L36.459 66.397H35.8305L34.4357 70.5126L33.0948 66.397H32.3203L34.0832 71.6385H34.7956L36.1444 67.7L37.4853 71.6385H38.2066ZM50.1795 67.0715H52.0568V66.397H47.5742V67.0715H49.4515V71.608H50.1795V67.0715ZM54.0626 71.6073H57.7634V70.9335H54.7903V69.3622H57.4573V68.6873H54.7903V67.0708H57.7634V66.3959H54.0626V71.6073ZM70.1393 71.6073H70.8673V66.3959H70.1393V71.6073ZM77.5563 71.6073H78.1544V66.3959H77.4189V70.3202L74.2148 66.3959H73.6402V71.6073H74.3689V67.7446L77.5563 71.6073ZM87.3964 68.1595C87.3964 68.8493 86.8596 69.3166 86.0629 69.3166H84.9285V67.0715H86.0629C86.8596 67.0715 87.3964 67.5083 87.3964 68.1595ZM88.1166 68.1595C88.1166 67.102 87.3042 66.397 86.0863 66.397H84.2004V71.608H84.9285V69.9915H85.9938C87.2656 69.9904 88.1166 69.2634 88.1166 68.1595ZM90.3609 71.6073H94.0624V70.9335H91.0886V69.3622H93.7555V68.6873H91.0886V67.0708H94.0624V66.3959H90.3609V71.6073ZM103.837 67.0715H106.749V66.397H103.109V71.608H103.837V69.5004H106.419V68.8266H103.837V67.0715ZM108.937 71.6073H112.639V70.9335H109.665V69.3622H112.332V68.6873H109.665V67.0708H112.639V66.3959H108.937V71.6073ZM119.47 67.284C119.017 66.6692 118.299 66.2889 117.431 66.2889C115.928 66.2889 114.718 67.4537 114.718 69.0019C114.718 70.5498 115.928 71.7154 117.431 71.7154C118.299 71.7154 119.016 71.335 119.469 70.7191L118.89 70.3035C118.573 70.7489 118.07 71.0092 117.431 71.0092C116.312 71.0092 115.454 70.1661 115.454 69.0019C115.454 67.8375 116.312 66.9939 117.431 66.9939C118.071 66.9939 118.573 67.2554 118.89 67.7008L119.47 67.284ZM123.835 67.0715H125.713V66.397H121.23V67.0715H123.108V71.608H123.835V67.0715H123.835ZM127.865 71.6073H128.592V66.3959H127.865V71.6073ZM135.472 69.0031C135.472 70.1137 134.614 71.033 133.503 71.033C132.384 71.033 131.525 70.1137 131.525 69.0031C131.525 67.8913 132.384 66.972 133.503 66.972C134.614 66.9712 135.472 67.8906 135.472 69.0031ZM136.216 69.0031C136.216 67.5009 135.004 66.2896 133.503 66.2896C132 66.2896 130.79 67.5009 130.79 69.0031C130.79 70.5052 132 71.7161 133.503 71.7161C135.004 71.7154 136.216 70.5052 136.216 69.0031ZM142.815 71.6073V66.3959H142.08V70.3202L138.876 66.3959H138.3V71.6073H139.028V67.7446L142.216 71.6073H142.815Z" fill="#BDBFBE"/>
<path d="M43.91 67.2419L44.927 69.601H42.8926L43.91 67.2419ZM43.5631 66.3564L41.2285 71.6276H42.0138L42.5999 70.2774H45.2205L45.8059 71.6276H46.5918L44.2573 66.3564H43.5631Z" fill="#BDBFBE"/>
<path d="M98.551 69.1505H97.2632V67.0901H98.551C99.2939 67.0901 99.8533 67.4805 99.8533 68.1164C99.8533 68.7597 99.295 69.1505 98.551 69.1505ZM100.989 71.6266L99.2638 69.7415C100.061 69.5264 100.574 68.9455 100.574 68.1164C100.574 67.0748 99.746 66.4152 98.5737 66.4152H96.5352V71.6266H97.2632V69.8258H98.4277L100.093 71.6266H100.989Z" fill="#BDBFBE"/>
<path d="M62.2225 69.1505H60.9347V67.0901H62.2225C62.9658 67.0901 63.5255 67.4805 63.5255 68.1164C63.5255 68.7597 62.9658 69.1505 62.2225 69.1505ZM64.6611 71.6266L62.9353 69.7415C63.7324 69.5264 64.245 68.9455 64.245 68.1164C64.245 67.0748 63.4178 66.4152 62.2455 66.4152H60.207V71.6266H60.9347V69.8258H62.0996L63.7644 71.6266H64.6611Z" fill="#BDBFBE"/>
</g>
</svg>
