<?xml version="1.0" encoding="UTF-8" standalone="no"?><!DOCTYPE svg PUBLIC "-//W3C//DTD SVG 1.1//EN" "http://www.w3.org/Graphics/SVG/1.1/DTD/svg11.dtd"><svg width="100%" height="100%" viewBox="0 0 227 96" version="1.1" xmlns="http://www.w3.org/2000/svg" xmlns:xlink="http://www.w3.org/1999/xlink" xml:space="preserve" xmlns:serif="http://www.serif.com/" style="fill-rule:evenodd;clip-rule:evenodd;stroke-linejoin:round;stroke-miterlimit:2;"><g><path d="M88.625,48.77c0,0.903 -0.254,1.63 -0.761,2.181c-0.508,0.552 -1.194,0.828 -2.059,0.828l-3.761,-0l-0,-8.932l3.761,-0c0.865,-0 1.551,0.276 2.059,0.827c0.507,0.552 0.761,1.279 0.761,2.181l0,2.915Zm-6.581,-18.052l3.385,-0c0.865,-0 1.551,0.276 2.058,0.827c0.508,0.552 0.762,1.279 0.762,2.182l0,2.538c0,0.903 -0.254,1.63 -0.762,2.181c-0.507,0.552 -1.193,0.828 -2.058,0.828l-3.385,-0l-0,-8.556Zm8.169,10.149c0.392,-0.438 0.727,-0.939 0.989,-1.518c0.413,-0.915 0.62,-1.943 0.62,-3.084l0,-2.538c0,-1.981 -0.58,-3.573 -1.739,-4.777c-1.16,-1.203 -2.711,-1.805 -4.654,-1.805l-6.958,0l0,28.207l7.334,-0c1.943,-0 3.494,-0.605 4.654,-1.815c1.159,-1.21 1.739,-2.799 1.739,-4.767l-0,-2.915c-0,-1.266 -0.251,-2.385 -0.752,-3.356c-0.331,-0.642 -0.744,-1.184 -1.233,-1.632" style="fill:#bcbdbd;fill-rule:nonzero;"/><path d="M106.207,37.769c0,0.903 -0.254,1.63 -0.762,2.182c-0.507,0.552 -1.194,0.827 -2.058,0.827l-3.385,-0l-0,-10.06l3.385,-0c0.864,-0 1.551,0.276 2.058,0.827c0.508,0.552 0.762,1.279 0.762,2.182l0,4.042Zm-2.82,-10.624l-6.958,-0l-0,28.207l3.573,-0l-0,-11.001l3.385,-0c0.864,-0 1.551,0.257 2.058,0.771c0.508,0.514 0.762,1.197 0.762,2.049l0,8.181l3.573,-0l-0,-8.181c-0,-1.128 -0.285,-2.099 -0.856,-2.914c-0.36,-0.515 -0.815,-0.944 -1.363,-1.289c0.578,-0.481 1.053,-1.062 1.42,-1.748c0.532,-0.997 0.799,-2.146 0.799,-3.451l-0,-4.042c-0,-1.981 -0.58,-3.573 -1.74,-4.777c-1.159,-1.203 -2.711,-1.805 -4.653,-1.805" style="fill:#bcbdbd;fill-rule:nonzero;"/><rect x="114.951" y="27.145" width="3.573" height="28.207" style="fill:#bcbdbd;"/><path d="M134.225,27.145l-3.999,9.553l-4.031,-9.553l-3.686,-0l5.868,14.085l-5.868,14.121l3.667,0l4.05,-9.575l4.018,9.575l3.666,0l-5.848,-14.121l5.848,-14.085l-3.685,-0Z" style="fill:#bcbdbd;fill-rule:nonzero;"/><path d="M144.943,46.551l2.48,-13.031l2.447,13.031l-4.927,0Zm0.564,-19.406l-5.867,28.207l3.667,-0l1.034,-5.228l6.13,0l1.016,5.228l3.667,-0l-5.811,-28.207l-3.836,0Z" style="fill:#bcbdbd;fill-rule:nonzero;"/><path d="M169.106,45.955l-7.051,-18.81l-2.915,-0l-0,28.207l3.385,-0l-0,-18.81l7.052,18.81l2.914,-0l-0,-28.207l-3.385,-0l0,18.81Z" style="fill:#bcbdbd;fill-rule:nonzero;"/><rect x="178.196" y="27.145" width="3.573" height="28.207" style="fill:#bcbdbd;"/><path d="M78.231,76.776l-16.877,0c-7.724,0 -14.055,-6.588 -14.453,-14.849l25.107,-0c2.177,-0 4.268,0.518 6.223,1.53l-0,13.319Zm-16.559,-31.642l0.059,0.001l-0,0.004l0.817,0l0.833,0.005l-0,-0.005l6.6,0l-0,15.138l-23.091,0c0.163,-8.068 6.776,-14.672 14.782,-15.143m8.309,-1.679l-6.6,-0l-0,-6.565l6.6,-0l-0,6.565Zm-6.988,-14.815l6.988,-0l-0,6.6l-13.666,-0l6.678,-6.6Zm0.486,-7.083l5.433,5.433l-5.433,0l0,-5.433Zm24.641,55.437c-0.199,-6.246 -3.47,-11.836 -8.649,-14.745c-0.004,-0.002 -0.008,-0.005 -0.012,-0.007l-0.035,-0.02c-0.049,-0.027 -0.158,-0.089 -0.164,-0.092l-1.029,-0.507c-1.971,-0.891 -4.058,-1.346 -6.223,-1.346l-0.377,0l-0,-32.436c-0,-0.011 -0.003,-0.021 -0.004,-0.032c0.019,-0.254 -0.071,-0.509 -0.258,-0.696l-9.54,-9.539l0,9.897l-7.861,7.769l-1.312,-0l0,-1.667l-4.949,-0l-0,1.667l-2.475,-0l-0,9.799l10.04,0.058c-5.781,2.711 -9.911,8.495 -10.033,15.18l-0.007,0l-0,0.825c-0,9.553 7.232,17.324 16.122,17.324l26.776,0l-0,-0.825c-0,-0.203 -0.003,-0.405 -0.01,-0.607" style="fill:#bcbdbd;fill-rule:nonzero;"/></g></svg>