<svg width="227" height="96" viewBox="0 0 227 96" fill="none" xmlns="http://www.w3.org/2000/svg">
<path d="M196.472 35.2945C194.098 35.227 191.784 36.0471 189.982 37.5945L189.952 35.6945H184.78V57.0365H190.453V45.8365C190.41 45.1398 190.513 44.4419 190.755 43.7872C190.997 43.1326 191.373 42.5356 191.858 42.0344C192.344 41.5333 192.929 41.139 193.576 40.8768C194.223 40.6145 194.917 40.4901 195.615 40.5115C198.4 40.5115 199.997 42.3615 199.997 45.5905V57.0405H205.67V45.3055C205.667 39.2205 202.058 35.2945 196.472 35.2945ZM34.041 35.2945C27.441 35.2945 23 39.7475 23 46.3755C23 53.2085 27.527 57.6215 34.533 57.6215C36.2263 57.6533 37.9084 57.3419 39.4781 56.706C41.0477 56.0701 42.4723 55.1229 43.666 53.9215L44.023 53.5355L40.467 50.0845L40.091 50.4735C38.5818 51.7705 36.6431 52.4579 34.654 52.4015C31.628 52.4015 29.482 50.9765 28.903 48.6405H44.952L44.995 48.1475C45.344 44.1095 44.428 40.7775 42.347 38.5085C41.2668 37.4182 39.9686 36.5683 38.5372 36.0145C37.1059 35.4606 35.5737 35.2152 34.041 35.2945ZM28.982 43.9945C29.668 41.6425 31.482 40.3565 34.163 40.3565C36.984 40.3565 38.911 41.7035 39.432 43.9945H28.982ZM135.343 43.7515C132.115 43.3925 131.68 42.6395 131.68 41.9515C131.68 40.4225 134.142 40.1935 135.611 40.1935C137.577 40.1857 139.501 40.7556 141.146 41.8325L141.61 42.1275L144.173 37.9425L143.752 37.6525C141.288 35.9997 138.373 35.1499 135.407 35.2195C129.834 35.2195 126.089 37.9245 126.089 41.9525C126.089 45.7375 129.289 48.2055 134.857 48.7235C138.326 49.0895 138.804 49.8645 138.804 50.6485C138.804 52.2345 136.342 52.4065 135.284 52.4065C132.845 52.4504 130.458 51.6996 128.484 50.2675L128.015 49.8955L125.288 54.1445L125.688 54.4445C128.419 56.4886 131.746 57.5779 135.157 57.5445C140.705 57.5445 144.433 54.7895 144.433 50.6885C144.433 46.5875 141.633 44.4325 135.343 43.7435V43.7515ZM60.974 35.2575C58.4738 35.1848 56.0331 36.0272 54.11 37.6265L54.081 35.7095H48.909V66.3945H54.582V55.4945C56.4383 56.8388 58.6825 57.541 60.974 57.4945C67.208 57.4945 71.562 52.9205 71.562 46.3715C71.562 39.8225 67.209 35.2495 60.975 35.2495L60.974 35.2575ZM60.236 52.2385C59.0686 52.2799 57.9153 51.9716 56.9243 51.3531C55.9333 50.7346 55.1497 49.8341 54.674 48.7672C54.1983 47.7002 54.0523 46.5155 54.2546 45.365C54.4569 44.2144 54.9983 43.1506 55.8095 42.3099C56.6206 41.4692 57.6644 40.8901 58.8069 40.6468C59.9495 40.4034 61.1387 40.507 62.222 40.9442C63.3053 41.3814 64.2332 42.1323 64.8868 43.1006C65.5403 44.0689 65.8897 45.2103 65.89 46.3785C65.9377 47.1426 65.8256 47.9082 65.561 48.6266C65.2964 49.3449 64.885 50.0003 64.353 50.5509C63.8211 51.1014 63.1803 51.5351 62.4714 51.8243C61.7626 52.1135 61.0013 52.2518 60.236 52.2305V52.2385ZM151.029 27.0045C150.371 27.0358 149.737 27.259 149.204 27.6466C148.671 28.0342 148.264 28.5693 148.032 29.1858C147.8 29.8023 147.753 30.4733 147.898 31.116C148.042 31.7586 148.372 32.3448 148.846 32.8023C149.32 33.2598 149.918 33.5685 150.565 33.6904C151.212 33.8123 151.881 33.742 152.489 33.4882C153.097 33.2344 153.617 32.8082 153.986 32.2622C154.354 31.7161 154.555 31.0742 154.563 30.4155C154.57 29.955 154.483 29.4979 154.307 29.0725C154.13 28.6471 153.868 28.2626 153.537 27.9427C153.205 27.6229 152.812 27.3745 152.38 27.2131C151.949 27.0517 151.489 26.9807 151.029 27.0045ZM177.005 33.2375L174.382 36.4495C172.714 35.6298 170.875 35.2185 169.017 35.2495C162.43 35.2495 157.649 39.7715 157.649 46.0025C157.649 52.4595 162.175 56.6315 169.18 56.6315C172.644 56.6315 174.712 57.9635 174.712 60.1945C174.712 62.4475 172.456 63.9615 169.099 63.9615C168.267 64.0154 167.432 63.9045 166.642 63.635C165.853 63.3656 165.125 62.943 164.499 62.3915C164.139 62.0154 163.859 61.5695 163.678 61.0812C163.496 60.5929 163.417 60.0727 163.444 59.5525L163.458 58.9985H157.877L157.853 59.5135C157.772 60.6849 157.934 61.8604 158.33 62.9659C158.726 64.0713 159.347 65.0828 160.153 65.9365C162.153 68.0295 165.333 69.1825 169.103 69.1825C175.984 69.1825 180.43 65.6705 180.43 60.2345C180.434 58.8503 180.027 57.496 179.262 56.3426C178.497 55.1892 177.407 54.2882 176.13 53.7535C177.511 52.9949 178.655 51.8696 179.436 50.5018C180.217 49.134 180.606 47.577 180.558 46.0025C180.593 43.733 179.791 41.5302 178.305 39.8145L181.21 36.4465L177.005 33.2375ZM169.094 51.4095C165.584 51.4095 163.317 49.2875 163.317 46.0015C163.317 42.6665 165.584 40.5115 169.094 40.5115C172.604 40.5115 174.871 42.6665 174.871 46.0015C174.871 49.2875 172.603 51.4105 169.094 51.4105V51.4095ZM112.168 35.2945C105.568 35.2945 101.127 39.7475 101.127 46.3755C101.127 53.2085 105.652 57.6215 112.659 57.6215C114.352 57.6533 116.035 57.3419 117.605 56.706C119.174 56.0701 120.599 55.1229 121.793 53.9215L122.15 53.5355L118.595 50.0845L118.218 50.4735C116.708 51.7677 114.77 52.4526 112.782 52.3945C109.756 52.3945 107.61 50.9695 107.031 48.6335H123.082L123.124 48.1405C123.473 44.1025 122.558 40.7705 120.477 38.5015C119.396 37.4121 118.097 36.5632 116.665 36.0106C115.233 35.4579 113.701 35.2139 112.168 35.2945ZM107.109 43.9945C107.795 41.6425 109.609 40.3565 112.29 40.3565C115.111 40.3565 117.038 41.7035 117.559 43.9945H107.109ZM148.193 57.0505H153.866V35.7005H148.193V57.0505ZM91.452 37.2265C89.5607 35.8925 87.2919 35.1993 84.978 35.2485C78.792 35.2485 74.472 39.8215 74.472 46.3705C74.472 52.9195 78.792 57.4945 84.982 57.4945C87.5083 57.5729 89.9769 56.7302 91.928 55.1235L91.957 57.0425H97.129V27.2505H91.452V37.2265ZM85.798 52.2265C84.6306 52.2679 83.4773 51.9596 82.4863 51.3411C81.4953 50.7226 80.7117 49.8221 80.236 48.7552C79.7603 47.6882 79.6143 46.5035 79.8166 45.353C80.0189 44.2024 80.5603 43.1386 81.3715 42.2979C82.1826 41.4573 83.2264 40.8781 84.3689 40.6348C85.5115 40.3914 86.7007 40.495 87.784 40.9322C88.8672 41.3694 89.7952 42.1203 90.4488 43.0886C91.1023 44.0569 91.4517 45.1983 91.452 46.3665C91.5016 47.1316 91.3909 47.8986 91.1271 48.6185C90.8633 49.3383 90.4522 49.9952 89.9201 50.5472C89.3879 51.0991 88.7464 51.5339 88.0366 51.8237C87.3268 52.1136 86.5644 52.2521 85.798 52.2305V52.2265Z" fill="#BDBFBE"/>
</svg>
