<svg width="227" height="96" viewBox="0 0 227 96" fill="none" xmlns="http://www.w3.org/2000/svg">
<path d="M33.5907 42.7785C34.1364 43.1118 34.1364 43.6577 33.5907 43.991L18.9988 52.8578C18.453 53.1911 18 52.9181 18 52.2516V47.2119C18.0188 46.8466 18.119 46.4911 18.2925 46.1741C18.466 45.8571 18.708 45.5876 18.9988 45.3874L27.4341 40.2501C27.7439 40.0857 28.086 40 28.4329 40C28.7798 40 29.1219 40.0857 29.4317 40.2501L33.5907 42.7785Z" fill="#BCBDBD"/>
<path d="M40.5635 29.6787C40.2471 29.5173 39.8976 29.4332 39.5432 29.4332C39.1888 29.4332 38.8394 29.5173 38.5229 29.6787L36.421 30.9115C35.8635 31.2387 35.8635 31.7775 36.421 32.1047L50.0528 40.0683C50.6103 40.3983 50.6103 40.9343 50.0528 41.2615L45.7876 43.7524C45.4716 43.9152 45.122 44 44.7673 44C44.4127 44 44.0631 43.9152 43.747 43.7524L30.1208 35.7945C29.8046 35.6324 29.4551 35.548 29.1006 35.548C28.746 35.548 28.3965 35.6324 28.0803 35.7945L19.0203 41.1007C18.4628 41.4308 18 41.1628 18 40.5055V35.4278C18.02 35.0693 18.1228 34.7206 18.2999 34.4095C18.4771 34.0985 18.7238 33.8337 19.0203 33.6365L38.5341 22.2455C38.8505 22.0841 39.2 22 39.5544 22C39.9088 22 40.2582 22.0841 40.5747 22.2455L60.5818 33.9327C61.1394 34.2628 61.1394 34.7987 60.5818 35.126L56.2554 37.6648C55.9393 37.8276 55.5897 37.9124 55.2351 37.9124C54.8804 37.9124 54.5308 37.8276 54.2148 37.6648L40.5635 29.6787Z" fill="#BCBDBD"/>
<path d="M45.4093 49.4371C44.8636 49.1268 44.8636 48.6229 45.4093 48.3153L60.0012 40.1312C60.547 39.8235 61 40.0755 61 40.6934V45.345C60.9808 45.6818 60.8804 46.0094 60.7069 46.3015C60.5334 46.5935 60.2917 46.8419 60.0012 47.0264L51.5659 51.7682C51.2563 51.9206 50.9142 52 50.5671 52C50.2201 52 49.8779 51.9206 49.5683 51.7682L45.4093 49.4371Z" fill="#BCBDBD"/>
<path d="M38.9529 62.6808C39.2619 62.8357 39.6033 62.9164 39.9496 62.9164C40.2959 62.9164 40.6374 62.8357 40.9463 62.6808L42.9996 61.5032C43.5443 61.1906 43.5443 60.6759 42.9996 60.3633L29.6831 52.7559C29.1385 52.4406 29.1385 51.9286 29.6831 51.616L33.8496 49.2365C34.1584 49.081 34.4999 49 34.8463 49C35.1928 49 35.5343 49.081 35.843 49.2365L49.1595 56.8251C49.4686 56.9793 49.81 57.0596 50.1562 57.0596C50.5024 57.0596 50.8438 56.9793 51.1529 56.8251L60.0033 51.7535C60.548 51.4382 61 51.6942 61 52.3221V57.1727C60.9811 57.5153 60.881 57.8486 60.7079 58.1459C60.5347 58.4431 60.2934 58.6959 60.0033 58.8839L40.9545 69.7654C40.6454 69.9197 40.304 70 39.9578 70C39.6116 70 39.2702 69.9197 38.9611 69.7654L19.4085 58.6117C18.8638 58.2964 18.8638 57.7844 19.4085 57.4718L23.6349 55.0465C23.9445 54.8922 24.2863 54.8119 24.633 54.8119C24.9796 54.8119 25.3214 54.8922 25.631 55.0465L38.9529 62.6808Z" fill="#BCBDBD"/>
<path d="M157 74H156V64.8975H157V74ZM157 62.5005H156V61H157V62.5005Z" fill="#BCBDBD"/>
<path d="M162.381 65.1317L162.36 66.3464L162.381 66.3652C162.832 65.3977 163.773 65 165.564 65C167.139 65 168.169 65.3789 168.673 66.1368C168.919 66.5184 169 67.0128 169 68.2275V74H167.619V68.3404C167.619 67.3918 167.579 67.1257 167.397 66.7844C167.15 66.2899 166.557 66.0991 165.37 66.0991C163.263 66.0991 162.447 66.822 162.447 68.6629V74H161V65.1317H162.381Z" fill="#BCBDBD"/>
<path d="M175.948 74H174.032L171 65H172.385L173.991 69.9091C174.304 70.8718 174.636 71.8945 174.988 72.9909H175.007C175.32 71.9709 175.633 70.9482 175.965 69.9282L177.513 65.0191H179L175.948 74Z" fill="#BCBDBD"/>
<path d="M188.613 68.7425C188.593 67.5241 188.574 67.3202 188.416 66.8885C188.181 66.2528 187.585 66.0277 186.126 66.0277C183.839 66.0277 183.407 66.4594 183.426 68.7425H188.613ZM189.981 71.2322C189.994 71.3501 190.001 71.4685 190 71.5871C190 73.3829 188.984 74 186.068 74C182.762 74 182 73.1577 182 69.4709C182 65.8608 182.781 65 186.107 65C188.358 65 189.258 65.4105 189.706 66.6633C189.922 67.2805 189.983 67.7863 189.983 69.7331H183.407C183.426 72.5035 183.758 72.9114 186.048 72.9114C188.338 72.9114 188.632 72.726 188.613 71.2295L189.981 71.2322Z" fill="#BCBDBD"/>
<path d="M198.333 67.4182C198.313 66.1654 198.091 66.033 195.913 66.033C193.735 66.033 193.473 66.2025 193.473 67.4182C193.473 68.2975 193.695 68.6524 194.28 68.7425C194.583 68.7981 194.663 68.7981 197.42 68.9094C198.53 68.9676 199.112 69.1742 199.498 69.6589C199.84 70.0694 200 70.6495 200 71.4176C200 72.2969 199.737 72.9909 199.255 73.3829C198.684 73.8331 197.802 74 195.927 74C194.215 74 193.427 73.8517 192.788 73.4014C192.283 73.0465 192 72.4108 192 71.5871C192 71.4732 192 71.2693 192.02 71.0812H193.447C193.432 71.2176 193.426 71.3547 193.427 71.4918C193.394 71.913 193.538 72.3297 193.829 72.6545C194.072 72.8584 194.757 72.9723 195.907 72.9723C198.105 72.9723 198.61 72.6704 198.61 71.3832C198.61 70.2972 198.325 70.0165 197.257 70.0165C196.047 70.0149 194.84 69.921 193.647 69.7357C192.539 69.4921 192.117 68.8564 192.117 67.4526C192.117 65.5059 192.902 65 196.007 65C198.065 65 199.032 65.2834 199.478 65.9747C199.677 66.3111 199.737 66.6104 199.737 67.4155L198.333 67.4182Z" fill="#BCBDBD"/>
<path d="M208.674 65.4547H205.41V71.3169C205.41 72.5033 205.646 72.8107 206.59 72.8107C207.617 72.8107 207.858 72.483 207.858 70.9891C207.858 70.8441 207.858 70.7223 207.84 70.4757H208.982C209 70.7658 209 71.0558 209 71.1922C209 73.1617 208.276 74 206.572 74C205.266 74 204.576 73.6113 204.304 72.7701C204.196 72.422 204.178 72.19 204.178 71.3198V65.4547H203V64.2944H204.178V62H205.41V64.2944H208.674V65.4547Z" fill="#BCBDBD"/>
<path d="M71.4201 43.9355H69V41.3704H71.4201V39.2702C71.4201 37.561 71.7054 36.3141 72.3104 35.6035C73.2378 34.4993 74.7332 34 77.1902 34C77.7729 34.0069 78.3549 34.0431 78.9339 34.1083V36.7078C78.4052 36.6154 77.8696 36.5677 77.3329 36.5651C75.3752 36.5651 74.6909 37.2414 74.6909 39.1646V41.3704H79V43.9355H74.6882V58H71.4122L71.4201 43.9355Z" fill="#BCBDBD"/>
<path d="M86.5321 49.3394C86.5321 54.769 86.9813 55.3747 91.018 55.3747C94.8995 55.3747 95.4263 54.6637 95.4263 49.3762C95.4263 44.2652 94.9411 43.6253 90.9903 43.6253C87.0395 43.6253 86.5543 44.2994 86.5543 49.3394M97.1313 42.2771C98.476 43.412 99 45.2948 99 49.1629C99 56.5359 97.6914 58 90.9598 58C87.0783 58 85.2041 57.4312 84.1949 55.9408C83.2994 54.6637 83 52.9969 83 49.234C83 42.4904 84.4195 41 90.921 41C94.4725 41 95.9669 41.3186 97.1258 42.2771" fill="#BCBDBD"/>
<path d="M108.212 40.3395L107.968 42.6091L108.038 42.6484C109.076 40.7182 110.312 40 112.586 40C115.702 40 117 41.5879 117 45.4454C117 45.5969 117 46.1637 116.964 46.6939H113.916C113.952 46.1637 113.952 45.8522 113.952 45.5212C113.952 43.4788 113.357 42.7999 111.615 42.7999C110.109 42.7999 109.061 43.4031 108.57 44.5C108.326 45.1425 108.219 45.9027 108.219 47.4878V58H105V40.3395H108.212Z" fill="#BCBDBD"/>
<path d="M133.295 44.1932H126.708V53.0843C126.708 55.0107 127.112 55.4936 128.77 55.4936C130.612 55.4936 131.052 54.9418 131.052 52.6014C131.055 52.3455 131.043 52.0896 131.016 51.835H133.962C134 52.2846 134 52.8007 134 52.9361C134 56.6919 132.598 58 128.585 58C125.787 58 124.35 57.4149 123.689 55.9688C123.393 55.3838 123.32 54.8319 123.32 53.3858V44.1932H121V41.7123H123.322V38H126.71V41.7174H133.295V44.1932Z" fill="#BCBDBD"/>
<path d="M141.479 40.3395L141.212 42.6091L141.288 42.6484C142.427 40.7182 143.752 40 146.219 40C149.594 40 151 41.5879 151 45.4454C151 45.5969 151 46.1637 150.963 46.6939H147.659C147.695 46.1637 147.695 45.8522 147.695 45.5212C147.695 43.4788 147.051 42.7999 145.164 42.7999C143.535 42.7999 142.396 43.4031 141.865 44.5C141.6 45.1425 141.488 45.9027 141.488 47.4878V58H138V40.3395H141.479Z" fill="#BCBDBD"/>
<path d="M166.495 47.8885C166.456 45.7582 166.419 45.5449 166.151 44.9051C165.732 43.8518 164.737 43.4858 162.194 43.4858C158.307 43.4858 157.671 44.1256 157.621 47.8885H166.495ZM170 52.6072V53.2444C170 56.7229 167.942 58 162.341 58C155.523 58 154 56.4043 154 49.4105C154 42.6668 155.636 41 162.267 41C166.724 41 168.59 41.8874 169.505 44.3705C169.924 45.5765 170 46.5008 170 50.0846H157.581V50.5822C157.581 54.5926 158.381 55.4458 162.151 55.4458C165.922 55.4458 166.456 55.0534 166.456 52.6046L170 52.6072Z" fill="#BCBDBD"/>
<path d="M185.93 45.6739C185.775 43.5674 185.427 43.3673 181.823 43.3673C178.219 43.3673 177.682 43.649 177.682 45.6371C177.682 46.9168 177.992 47.5198 178.765 47.7436C179.191 47.8858 179.191 47.8858 182.407 48.0254C186.979 48.2387 187.445 48.3098 188.411 49.0208C189.457 49.766 190 51.0799 190 52.8547C190 54.6295 189.457 55.9777 188.451 56.7571C187.25 57.6814 185.508 58 181.789 58C175.9 58 174 56.8282 174 53.2444V52.5335H177.682C177.652 52.7456 177.639 52.9594 177.641 53.1733C177.641 55.1614 178.417 55.6222 181.904 55.6222C185.585 55.6222 186.436 55.1245 186.436 53.0311C186.436 51.2564 185.893 50.7587 183.849 50.7244C180.944 50.6876 178.234 50.5112 177.147 50.2268C175.017 49.7317 174.164 48.452 174.164 45.8267C174.164 41.9927 175.791 41 181.99 41C187.879 41 189.463 41.9927 189.428 45.6845L185.93 45.6739Z" fill="#BCBDBD"/>
<path d="M204.932 45.6739C204.777 43.5674 204.429 43.3673 200.825 43.3673C197.22 43.3673 196.679 43.649 196.679 45.6371C196.679 46.9168 196.99 47.5198 197.766 47.7436C198.192 47.8858 198.192 47.8858 201.408 48.0254C205.979 48.2387 206.444 48.3098 207.413 49.0208C208.46 49.766 209 51.0799 209 52.8547C209 54.6295 208.46 55.9777 207.451 56.7571C206.252 57.6814 204.507 58 200.787 58C194.897 58 193 56.8282 193 53.2444V52.5335H196.679C196.652 52.7458 196.64 52.9595 196.642 53.1733C196.642 55.1614 197.415 55.6222 200.902 55.6222C204.585 55.6222 205.435 55.1245 205.435 53.0311C205.435 51.2564 204.895 50.7587 202.848 50.7244C199.942 50.6876 197.231 50.5112 196.145 50.2268C194.015 49.7317 193.164 48.452 193.164 45.8267C193.164 41.9927 194.791 41 200.989 41C206.879 41 208.462 41.9927 208.428 45.6845L204.932 45.6739Z" fill="#BCBDBD"/>
</svg>
