<svg width="227" height="96" viewBox="0 0 227 96" fill="none" xmlns="http://www.w3.org/2000/svg">
<path d="M103.944 66.733L103.97 66.6603C109.716 50.576 112.506 41.1997 112.506 38.5848C112.506 37.9417 112.492 37.1087 112.287 36.088C112.255 35.9315 112.223 35.777 112.165 35.6286C111.307 33.4519 110.034 31.7214 108.333 30.4574C108.238 30.3715 108.142 30.2857 108.043 30.1999V30H179.939C185.371 30 188.926 31.996 190.606 35.9891C190.869 36.5211 191 37.2531 191 38.185V39.3834C185.206 57.3173 182.112 66.4341 181.717 66.733H164.731C164.467 66.733 164.335 66.5997 164.335 66.3342C170.129 49.4311 173.026 40.4475 173.026 39.3834C173.026 38.3183 172.499 37.7862 171.446 37.7862H160.187C153.999 56.552 150.707 66.2009 150.312 66.733H133.325C133.062 66.733 132.93 66.5997 132.93 66.3342C138.461 49.9965 141.62 40.4809 142.411 37.7862H128.387C122.199 56.552 118.907 66.2009 118.511 66.733H103.944ZM46.6433 33.1086C46.5884 32.9814 46.5223 32.8542 46.4481 32.727C45.9825 31.9385 45.1376 31.1621 43.9135 30.3988V30H99.4156C104.979 30 108.6 32.1293 110.279 36.3879C110.55 37.342 110.476 38.0184 110.476 38.5848C110.476 41.1795 107.58 50.5629 101.785 66.733H84.2069L83.8114 66.5341C86.1824 60.0453 87.5651 56.0522 87.9595 54.555H59.1221C58.8588 54.555 57.6083 58.1492 55.3695 65.3357C55.0076 66.2676 54.7443 66.733 54.5796 66.733H37C43.5841 46.8031 46.9229 35.983 46.9402 35.875C47.0225 35.559 47.0662 35.2278 47.0662 34.8855C47.0662 34.2475 46.9137 33.6437 46.6433 33.1086ZM61.2948 46.9687H90.3294C91.7782 42.6101 92.5021 40.2143 92.5021 39.7822V39.1835C92.5021 38.2516 92.0415 37.7862 91.1204 37.7862H65.8374C64.9722 37.7862 64.289 38.294 63.7308 39.5106C63.376 40.284 62.1173 44.4406 61.2948 46.9687Z" fill="#BCBDBD"/>
</svg>
