<svg width="227" height="96" viewBox="0 0 227 96" fill="none" xmlns="http://www.w3.org/2000/svg">
<path d="M7.2759 52.2275H15.646L11.4895 41.849L7.2759 52.2275ZM3.59961 57.7137L11.4895 38.2576L19.2946 57.7137H17.8523L16.1838 53.5566H6.7391L5.04134 57.7137H3.59961Z" fill="#BCBDBD"/>
<path d="M36.4346 49.8237H42.1753C44.9466 49.8237 47.1807 47.5896 47.1807 44.8183C47.1807 42.0469 44.9466 39.8128 42.1753 39.8128H36.4346V49.8237ZM35.1055 57.7136V38.4554H42.1753C45.4839 38.4554 48.227 41.0289 48.4815 44.3375C48.736 47.6462 46.3894 50.5872 43.109 51.068L48.1705 57.7136H46.4742L41.4688 51.1528H36.4346V57.7136H35.1055Z" fill="#BCBDBD"/>
<path d="M109.254 38.3917H110.583V51.5415C110.612 53.7473 109.453 55.7834 107.558 56.8863C105.663 57.9892 103.316 57.9892 101.421 56.8863C99.5262 55.7834 98.3668 53.7473 98.395 51.5415V38.3917H99.7242V51.5415C99.6959 53.2666 100.601 54.8502 102.071 55.7269C103.542 56.6035 105.38 56.6035 106.851 55.7269C108.321 54.8502 109.226 53.2666 109.198 51.5415L109.254 38.3917Z" fill="#BCBDBD"/>
<path d="M134.197 49.2864L142.115 38.2292V57.6853H140.786V42.4146L134.197 51.6053L127.693 42.4428V57.7136H126.363V38.2292L134.197 49.2864Z" fill="#BCBDBD"/>
<path d="M169.144 57.7136H157.465V38.4554H169.144V39.7851H158.823V49.7671H167.872V51.0962H158.823V56.3279H169.144V57.7136Z" fill="#BCBDBD"/>
<path d="M185.584 57.6005H184.254V38.1161L196.273 53.7545V38.3706H197.602V57.7136L185.584 42.0752V57.6005Z" fill="#BCBDBD"/>
<path d="M218.299 39.8129H212.926V38.4838H225.001V39.8129H219.628V57.7136H218.299V39.8129Z" fill="#BCBDBD"/>
<path d="M76.1859 41.5662C76.9212 41.8772 77.5999 42.3297 78.1655 42.8953L78.42 43.1498H83.3123C82.0821 40.3446 79.6476 38.1858 76.6667 37.3182L74.0195 41.0986C74.773 41.1304 75.5027 41.2879 76.1859 41.5662Z" fill="#BCBDBD"/>
<path d="M83.9324 45.2142V45.2425H72.0551V49.3996H79.634C79.6062 49.5127 79.5491 49.6258 79.4926 49.7389C79.1815 50.4742 78.729 51.1529 78.1635 51.7184C77.5979 52.284 76.9192 52.7365 76.1839 53.0476C75.4209 53.3586 74.6008 53.5283 73.7519 53.5283C72.9035 53.5283 72.0834 53.3586 71.3199 53.0476C70.5846 52.7365 69.9064 52.284 69.3403 51.7184C68.7748 51.1529 68.3223 50.4742 68.0117 49.7389C68.0062 49.7253 68.0021 49.7111 67.9966 49.6975L65.3691 53.45C67.2649 56.0295 70.3104 57.7136 73.7519 57.7136C78.7861 57.7136 82.9709 54.1505 83.9324 49.3996C84.0738 48.7209 84.1586 48.0139 84.1586 47.3069C84.1586 46.5999 84.0738 45.8929 83.9324 45.2142Z" fill="#BCBDBD"/>
</svg>
