<svg width="227" height="96" viewBox="0 0 227 96" fill="none" xmlns="http://www.w3.org/2000/svg">
<path d="M97.1226 72.9977C96.9716 73.0105 96.8207 72.9693 96.6807 72.877C96.5406 72.7847 96.4147 72.6435 96.312 72.4635C96.0976 72.0621 95.9864 71.5425 96.0014 71.0119C95.9866 70.4889 96.0892 69.975 96.2903 69.5655C96.3806 69.383 96.4957 69.2371 96.6267 69.1391C96.7577 69.0412 96.9008 68.9939 97.045 69.001C97.177 68.993 97.3083 69.0343 97.429 69.1217C97.5496 69.2091 97.6562 69.3402 97.7407 69.505C97.9214 69.8729 98.0131 70.3354 97.9985 70.8053V70.9615C97.9985 71.0321 97.9985 71.0875 97.9985 71.1178H96.3772C96.3691 71.4836 96.443 71.8417 96.5853 72.1258C96.6535 72.2468 96.7372 72.3421 96.8306 72.4048C96.924 72.4675 97.0248 72.4961 97.1257 72.4887C97.3889 72.4841 97.6472 72.3733 97.8774 72.1661L97.9333 72.6399C97.6884 72.8777 97.408 73.0015 97.1226 72.9977ZM97.486 69.7872C97.4326 69.686 97.3657 69.6057 97.2904 69.5525C97.2151 69.4992 97.1333 69.4744 97.0512 69.4798C96.9664 69.4758 96.882 69.5021 96.8042 69.557C96.7264 69.6119 96.6569 69.6939 96.6008 69.7973C96.4782 70.0442 96.4065 70.3475 96.3959 70.6642H97.6382C97.6554 70.3452 97.6014 70.0268 97.486 69.767V69.7872Z" fill="#BCBDBD"/>
<path d="M99 73V68H99.5498V71.0184L99.6066 70.9539L99.6682 70.8894C99.8578 70.6866 100.422 70.1244 101.218 69.3456H101.915L100.346 70.894L102 73H101.318L99.9479 71.1982L99.5498 71.5346V73H99Z" fill="#BCBDBD"/>
<path d="M105.997 70.9975C106.025 71.5214 105.836 72.0361 105.466 72.4436C105.283 72.6287 105.055 72.7746 104.8 72.8705C104.545 72.9665 104.269 73.01 103.993 72.9979C103.718 73.0104 103.444 72.9665 103.191 72.8696C102.939 72.7726 102.714 72.6251 102.536 72.4386C102.188 72.0213 102 71.5151 102 70.995C102 70.4749 102.188 69.9687 102.536 69.5514C102.72 69.3678 102.948 69.2233 103.203 69.1282C103.458 69.0332 103.734 68.9902 104.01 69.0022C104.282 68.9894 104.554 69.0328 104.805 69.1289C105.055 69.225 105.278 69.3713 105.455 69.5564C105.827 69.9617 106.02 70.4742 105.997 70.9975ZM102.694 70.9975C102.673 71.3849 102.792 71.7682 103.033 72.0909C103.148 72.2265 103.299 72.3346 103.472 72.4058C103.646 72.4769 103.836 72.509 104.027 72.4991C104.213 72.5074 104.398 72.4746 104.567 72.4033C104.735 72.3321 104.881 72.2248 104.992 72.0909C105.228 71.7647 105.343 71.3803 105.32 70.9925C105.344 70.6021 105.232 70.2146 104.998 69.884C104.877 69.7558 104.727 69.6528 104.557 69.5821C104.388 69.5114 104.203 69.4747 104.015 69.4747C103.828 69.4747 103.643 69.5114 103.473 69.5821C103.303 69.6528 103.153 69.7558 103.033 69.884C102.785 70.2151 102.665 70.61 102.694 71.0076V70.9975Z" fill="#BCBDBD"/>
<path d="M107.264 72.9952C107.085 73.0095 106.903 72.9919 106.734 72.9438C106.566 72.8957 106.414 72.8184 106.293 72.7184C106.067 72.4301 105.968 72.0963 106.009 71.7637V68H106.72V71.5515C106.72 71.6945 106.72 71.8098 106.72 71.8974C106.721 71.984 106.731 72.0704 106.751 72.1557C106.761 72.2225 106.784 72.2877 106.819 72.3494C106.851 72.393 106.893 72.432 106.943 72.4647C106.998 72.5021 107.067 72.5262 107.141 72.5339C107.233 72.5421 107.326 72.5421 107.419 72.5339C107.512 72.5339 107.691 72.5339 107.963 72.497L108 72.9214C107.758 72.9605 107.512 72.9852 107.264 72.9952Z" fill="#BCBDBD"/>
<path d="M110.998 70.9976C111.018 71.5221 110.874 72.0367 110.594 72.4438C110.456 72.6288 110.285 72.7747 110.093 72.8707C109.901 72.9666 109.693 73.0101 109.485 72.998C109.28 73.0082 109.077 72.9632 108.889 72.8663C108.701 72.7694 108.534 72.6232 108.401 72.4387C108.141 72.0208 108 71.5148 108 70.9951C108 70.4754 108.141 69.9695 108.401 69.5515C108.539 69.3671 108.711 69.222 108.903 69.1269C109.095 69.0318 109.303 68.9892 109.511 69.0023C109.716 68.99 109.92 69.0335 110.109 69.1296C110.298 69.2257 110.465 69.3718 110.599 69.5566C110.875 69.9633 111.017 70.4757 110.998 70.9976ZM108.512 70.9976C108.496 71.3851 108.585 71.7683 108.767 72.091C108.852 72.2279 108.964 72.3371 109.094 72.4084C109.224 72.4798 109.368 72.511 109.511 72.4992C109.651 72.5084 109.792 72.4759 109.92 72.4047C110.047 72.3334 110.158 72.2256 110.242 72.091C110.403 71.7549 110.488 71.3746 110.488 70.9876C110.488 70.6006 110.403 70.2202 110.242 69.8841C110.151 69.756 110.038 69.6529 109.91 69.5822C109.782 69.5115 109.643 69.4749 109.502 69.4749C109.361 69.4749 109.222 69.5115 109.094 69.5822C108.966 69.6529 108.853 69.756 108.762 69.8841C108.579 70.2169 108.491 70.611 108.512 71.0077V70.9976Z" fill="#BCBDBD"/>
<path d="M112.775 74.9784V74.4078H113.355C113.5 74.408 113.645 74.3937 113.788 74.3651C113.903 74.3411 114.013 74.2904 114.113 74.2158C114.191 74.1537 114.262 74.0763 114.32 73.9865C114.377 73.8864 114.418 73.7743 114.442 73.6559C114.469 73.5246 114.488 73.3909 114.498 73.256C114.498 73.1227 114.498 72.9627 114.498 72.7707V72.5254C114.385 72.7298 114.238 72.901 114.065 73.0267C113.877 73.1526 113.664 73.2135 113.45 73.2027C113.268 73.2037 113.087 73.1621 112.918 73.08C112.765 73.003 112.625 72.8908 112.507 72.7494C112.394 72.6113 112.299 72.4531 112.225 72.2801C112.148 72.1128 112.09 71.9335 112.052 71.7469C112.018 71.5578 112 71.3647 112 71.171C111.998 70.8863 112.029 70.6027 112.091 70.3285C112.144 70.083 112.234 69.8516 112.355 69.6459C112.476 69.4423 112.637 69.2792 112.823 69.1713C113.031 69.052 113.259 68.9936 113.489 69.0007C113.689 68.9931 113.886 69.0462 114.065 69.1553C114.236 69.2739 114.384 69.4378 114.498 69.6353V69.0007H115V72.8081C115 72.9823 115 73.1369 115 73.272C114.994 73.4194 114.976 73.5658 114.948 73.7092C114.926 73.8534 114.888 73.9933 114.836 74.1252C114.783 74.2503 114.717 74.3667 114.641 74.4718C114.555 74.5893 114.452 74.6869 114.338 74.7597C114.2 74.8382 114.054 74.8955 113.905 74.9304C113.711 74.9798 113.514 75.003 113.316 74.9997L112.775 74.9784ZM113.563 72.6641C113.712 72.6645 113.859 72.6263 113.996 72.5521C114.12 72.4837 114.226 72.3749 114.303 72.2375C114.378 72.1024 114.433 71.9528 114.468 71.7949C114.503 71.6205 114.52 71.4414 114.519 71.2617V70.9577C114.521 70.7692 114.503 70.5811 114.468 70.3978C114.431 70.2357 114.373 70.0824 114.294 69.9445C114.217 69.8071 114.111 69.6983 113.987 69.6299C113.852 69.5516 113.704 69.5115 113.554 69.5126C113.421 69.5115 113.29 69.546 113.169 69.6139C113.059 69.6715 112.961 69.759 112.883 69.8699C112.806 69.9832 112.742 70.1088 112.693 70.2432C112.642 70.3812 112.604 70.5262 112.58 70.6751C112.558 70.8211 112.546 70.9692 112.546 71.1177C112.545 71.2648 112.558 71.4114 112.584 71.5549C112.61 71.6986 112.65 71.8382 112.701 71.9709C112.75 72.101 112.814 72.2215 112.892 72.3281C112.973 72.4334 113.07 72.5185 113.178 72.5788C113.3 72.6398 113.431 72.6688 113.563 72.6641Z" fill="#BCBDBD"/>
<path d="M118.928 72.9979C118.667 73.0103 118.406 72.9675 118.165 72.8725C117.923 72.7775 117.707 72.6327 117.532 72.4486C117.174 72.0487 116.985 71.5371 117.001 71.0125C116.984 70.4818 117.173 69.9637 117.532 69.5562C117.707 69.3712 117.922 69.2254 118.164 69.1296C118.405 69.0337 118.666 68.9901 118.928 69.0019C119.132 69.0017 119.335 69.0254 119.533 69.0724C119.699 69.1112 119.857 69.1759 120 69.2639L119.83 69.7225C119.55 69.5782 119.236 69.502 118.917 69.5008C118.741 69.494 118.565 69.5271 118.404 69.5971C118.244 69.6672 118.103 69.7723 117.994 69.9039C117.75 70.2255 117.63 70.6169 117.654 71.0125C117.632 71.4009 117.75 71.7848 117.988 72.1009C118.1 72.2327 118.243 72.3375 118.405 72.4067C118.567 72.4759 118.745 72.5075 118.922 72.499C119.262 72.4933 119.595 72.4103 119.894 72.2571L119.973 72.7207C119.665 72.9159 119.298 73.013 118.928 72.9979Z" fill="#BCBDBD"/>
<path d="M123 73H120V72.5439L122.185 69.5013H120.027V69H122.887V69.5013L120.701 72.5088H122.957L123 73Z" fill="#BCBDBD"/>
<path d="M123 72.995V69.0047H123.464L123.542 69.6437C123.688 69.4498 123.869 69.2919 124.076 69.1808C124.289 69.0617 124.526 69.0012 124.766 69.0047C124.937 68.9886 125.109 69.0142 125.269 69.0795C125.43 69.1448 125.575 69.2481 125.694 69.3821C125.918 69.7204 126.025 70.1339 125.995 70.5495V72.995H125.443V70.479C125.453 70.2208 125.388 69.9659 125.258 69.7494C125.184 69.6656 125.093 69.6012 124.993 69.5611C124.892 69.521 124.785 69.5062 124.678 69.5179C124.428 69.5098 124.181 69.5872 123.974 69.7393C123.791 69.875 123.66 70.0793 123.607 70.313C123.584 70.4946 123.573 70.678 123.575 70.8614V73L123 72.995Z" fill="#BCBDBD"/>
<path d="M128 68V68.6313H127V68H128ZM128 69.3456V73H127V69.3456H128Z" fill="#BCBDBD"/>
<path d="M130.664 72.9978C130.437 73.0103 130.211 72.969 130 72.8766C129.79 72.7843 129.601 72.6433 129.447 72.4636C129.133 72.0587 128.974 71.5393 129.003 71.012C128.979 70.4895 129.132 69.9755 129.433 69.5655C129.568 69.383 129.741 69.2371 129.938 69.1391C130.134 69.0412 130.349 68.9939 130.566 69.001C130.764 68.993 130.961 69.0343 131.142 69.1217C131.324 69.2091 131.484 69.3402 131.611 69.505C131.882 69.873 132.02 70.3354 131.998 70.8053V70.9616C131.998 71.0322 131.998 71.0876 131.998 71.1178H129.563C129.551 71.4836 129.662 71.8418 129.876 72.1259C129.978 72.2469 130.104 72.3422 130.244 72.4049C130.384 72.4676 130.536 72.4962 130.687 72.4888C131.084 72.4844 131.473 72.3736 131.82 72.1662L131.904 72.64C131.53 72.8824 131.1 73.0063 130.664 72.9978ZM131.196 69.7671C131.115 69.6655 131.015 69.5851 130.902 69.5318C130.789 69.4785 130.666 69.4538 130.543 69.4596C130.415 69.4556 130.289 69.482 130.172 69.5369C130.055 69.5918 129.951 69.6738 129.866 69.7772C129.682 70.0241 129.574 70.3274 129.558 70.6441H131.424C131.445 70.3318 131.364 70.0214 131.196 69.7671Z" fill="#BCBDBD"/>
<path d="M138.684 72.9976C138.457 73.0108 138.231 72.9697 138.021 72.8774C137.811 72.7851 137.622 72.6437 137.468 72.4634C137.146 72.062 136.98 71.5424 137.002 71.0119C136.981 70.4898 137.133 69.9767 137.431 69.5654C137.568 69.3847 137.741 69.24 137.937 69.1423C138.133 69.0445 138.347 68.9962 138.563 69.001C138.761 68.993 138.959 69.0343 139.141 69.1216C139.323 69.209 139.483 69.3401 139.611 69.505C139.882 69.8729 140.02 70.3353 139.998 70.8052C139.998 70.8355 139.998 70.8859 139.998 70.9615V71.1177H137.561C137.552 71.483 137.662 71.8401 137.873 72.1257C137.977 72.2463 138.103 72.3412 138.244 72.4039C138.385 72.4665 138.536 72.4954 138.689 72.4886C139.083 72.4834 139.471 72.3726 139.816 72.166L139.9 72.6398C139.533 72.8776 139.112 73.0014 138.684 72.9976ZM139.229 69.7872C139.149 69.686 139.048 69.6057 138.936 69.5524C138.823 69.4992 138.7 69.4743 138.577 69.4798C138.449 69.4754 138.323 69.5016 138.206 69.5565C138.089 69.6114 137.985 69.6936 137.901 69.7973C137.712 70.0408 137.604 70.3461 137.594 70.6641H139.457C139.483 70.3452 139.402 70.0268 139.229 69.767V69.7872Z" fill="#BCBDBD"/>
<path d="M141 72.9862V68H141.539V71.0101C141.569 70.9962 141.597 70.9793 141.623 70.9596L141.684 70.8952C141.872 70.693 142.434 70.1324 143.222 69.3557H143.911L142.355 70.8998L144 73H143.32L141.961 71.2031L141.562 71.5386V73L141 72.9862Z" fill="#BCBDBD"/>
<path d="M146.998 70.9976C147.019 71.5214 146.877 72.0362 146.598 72.4437C146.46 72.6288 146.289 72.7747 146.096 72.8707C145.904 72.9666 145.696 73.0101 145.488 72.998C145.283 73.0082 145.079 72.9632 144.891 72.8663C144.704 72.7694 144.537 72.6232 144.404 72.4387C144.142 72.0214 144 71.5152 144 70.9951C144 70.475 144.142 69.9687 144.404 69.5514C144.542 69.3675 144.714 69.2228 144.906 69.1277C145.098 69.0327 145.306 68.9898 145.514 69.0022C145.719 68.9894 145.924 69.0328 146.113 69.1289C146.301 69.225 146.469 69.3713 146.602 69.5565C146.878 69.9639 147.018 70.4762 146.998 70.9976ZM144.51 70.9976C144.494 71.385 144.584 71.7682 144.765 72.091C144.851 72.2262 144.964 72.3341 145.094 72.4052C145.224 72.4764 145.367 72.5087 145.509 72.4992C145.65 72.5084 145.791 72.4759 145.919 72.4047C146.046 72.3334 146.157 72.2256 146.241 72.091C146.419 71.7648 146.505 71.3803 146.488 70.9925C146.506 70.6021 146.421 70.2146 146.245 69.884C146.16 69.7481 146.047 69.6399 145.917 69.5694C145.787 69.4989 145.644 69.4685 145.501 69.4809C145.359 69.4714 145.217 69.5042 145.089 69.5764C144.96 69.6486 144.849 69.7578 144.765 69.8941C144.58 70.2225 144.49 70.6134 144.51 71.0077V70.9976Z" fill="#BCBDBD"/>
<path d="M148 72.995V69.0047H148.464L148.543 69.6437C148.689 69.4498 148.871 69.2919 149.077 69.1808C149.291 69.0617 149.529 69.0012 149.769 69.0047C149.94 68.9886 150.112 69.0142 150.273 69.0795C150.433 69.1448 150.578 69.2481 150.698 69.3821C150.92 69.7211 151.026 70.1345 150.995 70.5495V72.995H150.428C150.428 71.425 150.428 70.5847 150.428 70.479C150.442 70.2203 150.377 69.9638 150.243 69.7494C150.17 69.6651 150.08 69.6002 149.98 69.5601C149.88 69.5199 149.773 69.5055 149.667 69.5179C149.416 69.508 149.168 69.5856 148.961 69.7393C148.778 69.875 148.647 70.0793 148.594 70.313C148.569 70.4945 148.556 70.6778 148.557 70.8614V73L148 72.995Z" fill="#BCBDBD"/>
<path d="M154.997 70.9976C155.025 71.5214 154.836 72.0362 154.464 72.4437C154.28 72.6288 154.051 72.7747 153.795 72.8707C153.539 72.9666 153.262 73.0101 152.984 72.998C152.711 73.0082 152.439 72.9632 152.189 72.8663C151.938 72.7694 151.716 72.6232 151.538 72.4387C151.189 72.0214 151 71.5152 151 70.9951C151 70.475 151.189 69.9687 151.538 69.5514C151.723 69.3675 151.952 69.2228 152.208 69.1277C152.464 69.0327 152.741 68.9898 153.018 69.0022C153.292 68.9894 153.565 69.0328 153.817 69.1289C154.068 69.225 154.292 69.3713 154.47 69.5565C154.837 69.9639 155.024 70.4762 154.997 70.9976ZM151.68 70.9976C151.659 71.385 151.778 71.7682 152.02 72.091C152.135 72.2262 152.286 72.3341 152.459 72.4052C152.632 72.4764 152.822 72.5087 153.012 72.4992C153.2 72.5084 153.388 72.4759 153.558 72.4047C153.729 72.3334 153.876 72.2256 153.988 72.091C154.225 71.7648 154.34 71.3803 154.317 70.9925C154.341 70.6021 154.228 70.2146 153.994 69.884C153.88 69.7481 153.729 69.6399 153.555 69.5694C153.382 69.4989 153.191 69.4685 153.001 69.4809C152.812 69.4714 152.623 69.5042 152.451 69.5764C152.28 69.6486 152.132 69.7578 152.02 69.8941C151.769 70.2212 151.646 70.6123 151.668 71.0077L151.68 70.9976Z" fill="#BCBDBD"/>
<path d="M159.439 72.995V70.9795C159.439 70.788 159.439 70.6267 159.439 70.4756C159.43 70.3433 159.412 70.2119 159.385 70.0826C159.367 69.9693 159.328 69.8613 159.272 69.7651C159.221 69.6838 159.152 69.618 159.073 69.5736C158.976 69.5245 158.871 69.5004 158.765 69.5031C158.549 69.4964 158.337 69.571 158.163 69.7147C157.994 69.8663 157.871 70.0721 157.81 70.3043C157.792 70.4866 157.783 70.67 157.783 70.8535V72.9899H157.245V70.8888C157.245 70.7124 157.245 70.5562 157.245 70.4302C157.235 70.3022 157.214 70.1755 157.181 70.0523C157.158 69.9486 157.116 69.851 157.059 69.7651C157.008 69.6851 156.939 69.6209 156.86 69.5787C156.766 69.5325 156.664 69.5101 156.561 69.5132C156.33 69.5036 156.102 69.5798 155.914 69.7298C155.742 69.8736 155.62 70.0779 155.566 70.3093C155.543 70.5065 155.532 70.7051 155.534 70.9039V73H155C155 70.5512 155 69.1655 155 69.0043H155.453L155.534 69.6442C155.649 69.4535 155.804 69.2976 155.987 69.1907C156.191 69.0638 156.422 68.9995 156.656 69.0043C156.778 69.0033 156.9 69.0185 157.018 69.0496C157.19 69.0897 157.347 69.1842 157.471 69.3217C157.523 69.3772 157.569 69.4398 157.607 69.5081C157.638 69.5695 157.665 69.6335 157.688 69.6996C157.808 69.4747 157.981 69.2909 158.189 69.1682C158.396 69.0456 158.63 68.9889 158.865 69.0043C159.024 68.989 159.184 69.0147 159.333 69.0794C159.482 69.144 159.616 69.2459 159.724 69.3771C159.926 69.6994 160.022 70.089 159.996 70.4806V73L159.439 72.995Z" fill="#BCBDBD"/>
<path d="M162 68V68.6313H161V68H162ZM162 69.3456V73H161V69.3456H162Z" fill="#BCBDBD"/>
<path d="M164.268 72.9973C164.094 73.0098 163.92 72.9669 163.759 72.872C163.598 72.777 163.454 72.6322 163.337 72.4481C163.105 72.0446 162.986 71.5334 163.001 71.0122C162.99 70.4816 163.116 69.9636 163.355 69.5561C163.472 69.3711 163.615 69.2254 163.776 69.1295C163.937 69.0337 164.111 68.9901 164.285 69.0019C164.421 69.0017 164.557 69.0254 164.689 69.0724C164.799 69.1112 164.904 69.1759 165 69.2639L164.887 69.7224C164.7 69.5775 164.491 69.5013 164.278 69.5007C164.161 69.4948 164.044 69.5282 163.937 69.5981C163.83 69.6681 163.736 69.7728 163.663 69.9038C163.5 70.2254 163.421 70.6167 163.436 71.0122C163.422 71.4005 163.5 71.7844 163.659 72.1005C163.734 72.2322 163.829 72.337 163.937 72.4062C164.045 72.4754 164.163 72.507 164.282 72.4985C164.508 72.4928 164.73 72.4098 164.929 72.2567L164.982 72.7202C164.772 72.9206 164.521 73.0178 164.268 72.9973Z" fill="#BCBDBD"/>
<path d="M168 73H166V72.5439L167.447 69.5013H166.018V69H167.935V69.5013L166.488 72.5088H167.996L168 73Z" fill="#BCBDBD"/>
<path d="M169 72.995V69.0047H169.464L169.542 69.6437C169.688 69.4498 169.869 69.2919 170.076 69.1808C170.289 69.0617 170.526 69.0012 170.766 69.0047C170.937 68.9886 171.109 69.0142 171.269 69.0795C171.43 69.1448 171.575 69.2481 171.694 69.3821C171.918 69.7204 172.025 70.1339 171.995 70.5495V72.995H171.448C171.448 71.425 171.448 70.5847 171.448 70.479C171.46 70.2206 171.395 69.9649 171.263 69.7494C171.189 69.6657 171.1 69.6013 171 69.5612C170.9 69.521 170.793 69.5062 170.688 69.5179C170.436 69.5091 170.187 69.5865 169.978 69.7393C169.797 69.877 169.667 70.0805 169.612 70.313C169.588 70.4946 169.577 70.678 169.58 70.8614V73L169 72.995Z" fill="#BCBDBD"/>
<path d="M175.664 72.9978C175.437 73.0103 175.21 72.969 175 72.8766C174.79 72.7843 174.601 72.6433 174.446 72.4636C174.133 72.0587 173.974 71.5393 174.003 71.012C173.979 70.4895 174.132 69.9755 174.432 69.5655C174.568 69.383 174.741 69.2371 174.938 69.1391C175.134 69.0412 175.349 68.9939 175.566 69.001C175.764 68.993 175.961 69.0343 176.142 69.1217C176.323 69.2091 176.483 69.3402 176.61 69.505C176.884 69.8718 177.021 70.3351 176.997 70.8053V71.1178H174.558C174.546 71.4836 174.657 71.8418 174.871 72.1259C174.973 72.2469 175.099 72.3422 175.239 72.4049C175.379 72.4676 175.531 72.4962 175.682 72.4888C176.079 72.4844 176.468 72.3736 176.815 72.1662L176.899 72.64C176.526 72.8814 176.098 73.0054 175.664 72.9978ZM176.209 69.7872C176.129 69.6857 176.029 69.6052 175.916 69.552C175.803 69.4987 175.68 69.474 175.556 69.4798C175.429 69.4758 175.302 69.5022 175.185 69.557C175.069 69.6119 174.964 69.694 174.88 69.7973C174.696 70.0442 174.588 70.3475 174.572 70.6642H176.438C176.463 70.3452 176.382 70.0268 176.209 69.7671V69.7872Z" fill="#BCBDBD"/>
<path d="M134.5 72C134.776 72 135 71.7761 135 71.5C135 71.2239 134.776 71 134.5 71C134.224 71 134 71.2239 134 71.5C134 71.7761 134.224 72 134.5 72Z" fill="#BCBDBD"/>
<path d="M55.5053 74.2619C29.7582 70.712 30.7506 49.7538 30.7506 49.7538C30.7506 49.7538 33.3546 55.8726 46.904 56.8068C50.5714 57.0637 59.3759 56.265 57.7738 66.9706C57.6604 67.7367 57.4761 68.442 57.3248 69.1846C57.3084 69.2704 57.325 69.3591 57.3714 69.4334C57.4177 69.5077 57.4904 69.5622 57.5753 69.5863C57.6374 69.6037 57.7025 69.6084 57.7664 69.6C57.8304 69.5916 57.892 69.5703 57.9474 69.5375C58.0027 69.5046 58.0507 69.461 58.0883 69.4091C58.1259 69.3573 58.1524 69.2984 58.1661 69.236C58.4685 67.9702 58.6717 66.8352 58.8371 65.7328C60.3353 54.3546 51.1054 55.186 47.2207 55.1206C34.073 54.873 29.8763 44.5084 29.8338 44.443C29.71 44.245 29.5159 44.0999 29.2895 44.0359C29.0631 43.972 28.8207 43.9939 28.6098 44.0973C28.4505 44.1787 28.318 44.3031 28.2276 44.4561C28.1373 44.6091 28.0928 44.7844 28.0994 44.9614C28.0994 44.9614 24.9471 78.0219 54.1537 74.7757C54.6263 74.7243 55.8929 74.6636 56.0441 74.3833C56.0724 74.3226 55.5053 74.2619 55.5053 74.2619Z" fill="#BCBDBD"/>
<path d="M62.8598 72.4498C55.823 69.9695 52.103 68.1678 49.6429 66.6777C45.8954 64.3854 42.3129 60.9836 40.4804 59.0626C40.4286 59.0223 40.3649 59.0003 40.2993 59C40.2337 58.9997 40.1698 59.021 40.1176 59.0607C40.0654 59.1005 40.0277 59.1563 40.0105 59.2197C39.9932 59.283 39.9974 59.3503 40.0223 59.411C42.0199 62.9118 44.8097 65.8952 48.1677 68.1219C51.5166 70.3546 56.7713 72.0968 62.7224 73C62.7852 72.9957 62.845 72.9717 62.8933 72.9312C62.9416 72.8908 62.9758 72.8361 62.9911 72.775C63.0064 72.7138 63.0019 72.6494 62.9783 72.591C62.9547 72.5326 62.9132 72.4832 62.8598 72.4498Z" fill="#BCBDBD"/>
<path d="M50.4665 30C46.3382 30.0052 42.3608 31.5056 39.3145 34.207C36.2682 36.9083 34.3728 40.6157 34 44.602C35.6776 47.0417 39.6232 51.1579 47.2285 51.2851H48.0392C51.1225 51.2851 56.2818 51.2851 59.6135 54.9697C60.4124 55.8611 61.0337 56.8886 61.4457 58C63.953 55.8422 65.7239 52.9961 66.5234 49.8394C67.3228 46.6828 67.1129 43.3651 65.9216 40.3268C64.7302 37.2886 62.6138 34.6736 59.8533 32.8291C57.0929 30.9846 53.819 29.9979 50.4665 30Z" fill="#BCBDBD"/>
<path d="M50.9922 26.9778L50.6 22.173C50.6 22.1271 50.5895 22.0831 50.5709 22.0507C50.5522 22.0182 50.5269 22 50.5005 22C50.4742 22 50.4489 22.0182 50.4302 22.0507C50.4116 22.0831 50.4011 22.1271 50.4011 22.173L50.0033 27.0306C49.9951 27.1547 50.0023 27.2804 50.0245 27.3991C50.0467 27.5179 50.0833 27.6269 50.1319 27.7189C50.1805 27.8108 50.2399 27.8835 50.306 27.9319C50.3722 27.9803 50.4436 28.0034 50.5154 27.9996C50.5871 27.9958 50.6576 27.9651 50.7219 27.9097C50.7862 27.8543 50.8429 27.7754 50.8882 27.6784C50.9334 27.5815 50.9662 27.4687 50.9841 27.3478C51.0021 27.2269 51.0048 27.1007 50.9922 26.9778Z" fill="#BCBDBD"/>
<path d="M73.8628 45.8011L69.0221 45.0124C68.9399 44.9959 68.8558 44.9959 68.7736 45.0124C68.6556 45.0274 68.5416 45.0699 68.4386 45.1373C68.3355 45.2048 68.2456 45.2956 68.1743 45.4044C68.1031 45.5131 68.052 45.6374 68.0242 45.7697C67.9964 45.9019 67.9925 46.0392 68.0128 46.1732C68.033 46.3072 68.077 46.4351 68.1419 46.5489C68.2069 46.6627 68.2915 46.7601 68.3905 46.835C68.4895 46.91 68.6009 46.9609 68.7177 46.9847C68.8345 47.0084 68.9544 47.0045 69.0698 46.9732L73.8484 46.19C73.889 46.1844 73.9265 46.1625 73.9542 46.1282C73.9819 46.0938 73.9981 46.0493 73.9998 46.0025C74.0016 45.9558 73.9887 45.9098 73.9636 45.8729C73.9385 45.836 73.9028 45.8106 73.8628 45.8011Z" fill="#BCBDBD"/>
<path d="M36.7793 33.8235C36.8625 33.8967 36.9565 33.9488 37.0558 33.9766C37.1551 34.0044 37.2578 34.0075 37.3581 33.9856C37.4583 33.9638 37.5541 33.9174 37.6401 33.8492C37.726 33.7811 37.8004 33.6924 37.8589 33.5882C37.9175 33.4841 37.959 33.3665 37.9813 33.2423C38.0035 33.118 38.006 32.9895 37.9885 32.8641C37.971 32.7386 37.934 32.6187 37.8795 32.5112C37.825 32.4037 37.7541 32.3106 37.6709 32.2374L34.244 29.0387C34.2145 29.0107 34.1779 28.9971 34.141 29.0005C34.1041 29.0039 34.0694 29.024 34.0435 29.0571C34.0176 29.0902 34.0022 29.1339 34.0002 29.1802C33.9982 29.2264 34.0098 29.272 34.0327 29.3083L36.6272 33.6332C36.6712 33.7044 36.7223 33.7684 36.7793 33.8235Z" fill="#BCBDBD"/>
<path d="M66.7353 29.0602L63.2906 32.2934C63.233 32.347 63.182 32.4108 63.1392 32.4829C63.0221 32.6924 62.9762 32.9516 63.0117 33.2034C63.0472 33.4552 63.1612 33.6791 63.3285 33.8257C63.4958 33.9723 63.7028 34.0298 63.9039 33.9853C64.1051 33.9409 64.2839 33.7982 64.401 33.5887L66.9582 29.3235C66.972 29.3052 66.9828 29.2836 66.99 29.2601C66.9971 29.2365 67.0005 29.2114 66.9999 29.1863C66.9993 29.1611 66.9948 29.1363 66.9866 29.1133C66.9783 29.0903 66.9666 29.0696 66.9519 29.0523C66.9373 29.035 66.9201 29.0215 66.9013 29.0125C66.8825 29.0036 66.8624 28.9993 66.8423 29.0001C66.8222 29.0008 66.8024 29.0065 66.784 29.0168C66.7657 29.0271 66.7491 29.0419 66.7353 29.0602Z" fill="#BCBDBD"/>
<path d="M42.8433 28.6551C42.8658 28.7194 42.9052 28.7792 42.9586 28.8305C43.012 28.8818 43.0784 28.9234 43.1533 28.9525C43.2283 28.9817 43.31 28.9978 43.3933 28.9998C43.4765 29.0018 43.5593 28.9895 43.6362 28.9639C43.7132 28.9384 43.7825 28.9 43.8396 28.8513C43.8967 28.8026 43.9403 28.7448 43.9676 28.6816C43.9948 28.6185 44.0051 28.5514 43.9977 28.4848C43.9903 28.4182 43.9654 28.3536 43.9247 28.2953L42.3269 26.07C42.3057 26.0406 42.2719 26.0184 42.2318 26.0075C42.1918 25.9966 42.1481 25.9976 42.109 26.0105C42.0698 26.0233 42.0378 26.0471 42.0187 26.0775C41.9997 26.1078 41.995 26.1427 42.0054 26.1756L42.8433 28.6551Z" fill="#BCBDBD"/>
<path d="M32.6517 38.4208L30.1751 38.0027C30.1423 37.9975 30.1075 37.9999 30.0773 38.0093C30.047 38.0188 30.0233 38.0348 30.0105 38.0544C29.9976 38.0739 29.9966 38.0957 30.0075 38.1157C30.0184 38.1357 30.0405 38.1525 30.0698 38.1631L32.2929 38.9604C32.3271 38.973 32.3638 38.9828 32.4021 38.9896C32.5231 39.0102 32.6524 39 32.7613 38.9613C32.8703 38.9225 32.9501 38.8584 32.9832 38.7829C33.0163 38.7075 33 38.627 32.9378 38.5591C32.8757 38.4912 32.7727 38.4414 32.6517 38.4208Z" fill="#BCBDBD"/>
<path d="M70.874 54.6458L67.9023 53.0636C67.8551 53.0388 67.8041 53.0209 67.7511 53.0107C67.5946 52.9826 67.4324 53.0103 67.2971 53.0881C67.1618 53.1659 67.0635 53.2881 67.0219 53.43C66.9803 53.572 66.9985 53.7232 67.0728 53.8533C67.1471 53.9833 67.2721 54.0826 67.4226 54.1312L70.7281 54.9872C70.7524 54.996 70.7783 55.0004 70.8044 55C70.8306 54.9996 70.8563 54.9944 70.8803 54.9848C70.9043 54.9752 70.926 54.9613 70.9441 54.944C70.9623 54.9267 70.9765 54.9062 70.9861 54.8838C70.9957 54.8614 71.0004 54.8374 71 54.8134C70.9995 54.7893 70.9939 54.7655 70.9835 54.7434C70.9731 54.7213 70.9581 54.7013 70.9393 54.6845C70.9205 54.6678 70.8983 54.6546 70.874 54.6458Z" fill="#BCBDBD"/>
<path d="M67.943 39.9214L70.9017 38.3288C70.9427 38.3081 70.974 38.2739 70.9894 38.2328C71.0049 38.1917 71.0034 38.1466 70.9852 38.1065C70.967 38.0664 70.9334 38.0341 70.8911 38.0159C70.8488 37.9978 70.8007 37.995 70.7563 38.0083L67.4655 38.8435C67.412 38.8544 67.3611 38.8741 67.315 38.9017C67.1704 38.9796 67.0649 39.1081 67.0216 39.2588C66.9783 39.4095 67.0007 39.5701 67.084 39.7053C67.1673 39.8406 67.3046 39.9393 67.4657 39.9798C67.6268 40.0203 67.7985 39.9993 67.943 39.9214Z" fill="#BCBDBD"/>
<path d="M58.161 28.65L58.9946 26.1752C59.005 26.1424 59.0003 26.1076 58.9813 26.0773C58.9622 26.0471 58.9301 26.0233 58.891 26.0105C58.8518 25.9976 58.8081 25.9966 58.768 26.0075C58.7279 26.0184 58.6941 26.0405 58.6728 26.0699L57.0788 28.2909C57.052 28.3259 57.0322 28.3641 57.0203 28.4041C56.9796 28.5252 57.0006 28.6543 57.0788 28.763C57.1569 28.8717 57.2858 28.9511 57.4371 28.9837C57.5884 29.0163 57.7496 28.9995 57.8854 28.9369C58.0211 28.8743 58.1203 28.7711 58.161 28.65Z" fill="#BCBDBD"/>
<path d="M194.099 44.6472C194.389 44.7467 194.709 44.7979 195.034 44.7965C195.446 44.7965 195.649 44.6671 195.649 44.4116C195.654 44.3394 195.619 44.2685 195.552 44.2125C195.454 44.1487 195.331 44.106 195.198 44.0898L194.641 43.9935C194.215 43.9117 194.002 43.7602 194.002 43.539C193.994 43.461 194.015 43.383 194.063 43.3122C194.112 43.2413 194.185 43.1801 194.278 43.1342C194.504 43.0373 194.768 42.9909 195.034 43.0015C195.197 43.0007 195.359 43.0129 195.518 43.038C195.65 43.0591 195.775 43.0938 195.891 43.1408L195.799 43.3233C195.692 43.2857 195.578 43.2567 195.46 43.237C195.322 43.2135 195.181 43.2012 195.039 43.2005C194.583 43.2005 194.35 43.3067 194.35 43.5323C194.349 43.5651 194.358 43.5978 194.376 43.6281C194.395 43.6584 194.422 43.6857 194.457 43.7082C194.549 43.7593 194.657 43.7945 194.772 43.8111L195.305 43.8973C195.498 43.9238 195.678 43.9858 195.824 44.0765C195.941 44.168 196.003 44.2866 195.998 44.4083C196.007 44.4906 195.987 44.5732 195.942 44.6497C195.897 44.7262 195.826 44.7946 195.736 44.8496C195.532 44.9556 195.28 45.0085 195.024 44.9989C194.821 45.001 194.619 44.9842 194.423 44.9491C194.277 44.9271 194.137 44.8902 194.006 44.8396L194.099 44.6472Z" fill="#BCBDBD"/>
<path d="M197.34 44.8754L196.414 43.4498L196.335 43.3114V43.8028V45H196V43H196.461L197.508 44.5917L198.555 43H199V45H198.66V43.7958V43.3183L198.586 43.4533L197.66 44.8754H197.34Z" fill="#BCBDBD"/>
<path d="M91.2469 50.3788L86.7175 49.8398C85.6034 49.7084 85.2062 49.3403 85.2062 48.4464V48.1266C85.2062 47.3028 85.5669 46.3739 88.4023 46.3739C91.2378 46.3739 91.5072 47.2502 91.5072 48.0039V48.1266C91.4987 48.2272 91.5133 48.3284 91.5499 48.423C91.5866 48.5177 91.6443 48.6035 91.7191 48.6745C91.7939 48.7454 91.884 48.7999 91.9831 48.8339C92.0821 48.8679 92.1877 48.8807 92.2925 48.8715H94.8174C94.9301 48.8728 95.0418 48.852 95.1457 48.8102C95.2496 48.7683 95.3434 48.7065 95.4213 48.6284C95.4993 48.5503 95.5596 48.4577 95.5987 48.3563C95.6378 48.2549 95.6547 48.1469 95.6484 48.0389V47.8724C95.6484 44.6388 93.2102 43 88.3932 43C83.6949 43 81.001 45.02 81.001 48.5472V48.8145C81.001 51.7283 82.4393 53.1436 85.8135 53.5511L90.3383 54.0901C91.4158 54.2259 91.7765 54.5677 91.7765 55.4528V55.8559C91.7765 57.0521 90.6853 57.6568 88.5348 57.6568C85.535 57.6568 85.1514 56.7804 85.1514 55.9917V55.7902C85.1613 55.6923 85.1485 55.5935 85.114 55.5009C85.0794 55.4084 85.0239 55.3243 84.9514 55.2547C84.8789 55.1852 84.7913 55.1319 84.6949 55.0987C84.5984 55.0656 84.4955 55.0533 84.3935 55.0628H81.864C81.7511 55.0526 81.6373 55.0658 81.5302 55.1016C81.4232 55.1373 81.3254 55.1948 81.2436 55.27C81.1617 55.3453 81.0977 55.4365 81.0558 55.5376C81.014 55.6387 80.9953 55.7473 81.001 55.8559V56.0925C81.001 59.3481 83.5351 61 88.5348 61C93.2787 61 96 58.9757 96 55.4528V55.0803C95.9863 52.1928 94.5754 50.7863 91.2469 50.3788Z" fill="#BCBDBD"/>
<path d="M115.875 55.8215V44.3648C115.887 44.1831 115.858 44.0011 115.792 43.8308C115.726 43.6606 115.623 43.506 115.491 43.3773C115.359 43.2485 115.201 43.1485 115.026 43.0839C114.851 43.0192 114.665 42.9914 114.479 43.0023H112.718C112.532 42.9914 112.345 43.0192 112.17 43.0839C111.996 43.1485 111.837 43.2485 111.705 43.3773C111.573 43.506 111.471 43.6606 111.405 43.8308C111.338 44.0011 111.31 44.1831 111.321 44.3648V53.8587C111.321 56.1501 110.176 57.3111 107.921 57.3111C105.666 57.3111 104.557 56.1194 104.557 53.8587V44.3648C104.568 44.1831 104.539 44.0011 104.473 43.8308C104.407 43.6606 104.304 43.506 104.172 43.3773C104.04 43.2485 103.882 43.1485 103.707 43.0839C103.533 43.0192 103.346 42.9914 103.16 43.0023H101.399C101.213 42.9914 101.026 43.0192 100.852 43.0839C100.677 43.1485 100.519 43.2485 100.387 43.3773C100.255 43.506 100.152 43.6606 100.086 43.8308C100.02 44.0011 99.9912 44.1831 100.002 44.3648V53.8587C100.002 58.2399 102.845 61 107.427 61C109.753 61 111.573 60.1983 112.704 58.678L114.366 60.299C114.512 60.4711 114.694 60.6109 114.899 60.709C115.105 60.8071 115.329 60.8613 115.558 60.8679C115.787 60.8746 116.015 60.8335 116.226 60.7475C116.437 60.6615 116.627 60.5325 116.783 60.3691L117.488 59.6813C117.655 59.5292 117.788 59.3439 117.876 59.1379C117.964 58.932 118.006 58.71 117.999 58.4869C117.992 58.2638 117.937 58.0446 117.836 57.8441C117.736 57.6436 117.592 57.4664 117.416 57.3242L115.875 55.8215Z" fill="#BCBDBD"/>
<path d="M131.158 43C128.703 43 126.783 43.8017 125.588 45.322L123.839 43.701C123.508 43.3704 123.055 43.1658 122.569 43.1271C122.329 43.1221 122.091 43.1645 121.871 43.2514C121.65 43.3383 121.452 43.4677 121.289 43.6309L120.55 44.3187C120.374 44.4672 120.233 44.6487 120.138 44.8511C120.044 45.0536 119.997 45.2723 120 45.4929C120.038 45.9408 120.258 46.3589 120.616 46.6626L122.242 48.161V59.622C122.23 59.8038 122.26 59.9858 122.33 60.156C122.4 60.3262 122.509 60.4808 122.648 60.6096C122.787 60.7383 122.954 60.8383 123.139 60.903C123.323 60.9676 123.52 60.9954 123.716 60.9846H125.574C125.771 60.9954 125.968 60.9676 126.152 60.903C126.336 60.8383 126.503 60.7383 126.643 60.6096C126.782 60.4808 126.89 60.3262 126.96 60.156C127.03 59.9858 127.06 59.8038 127.048 59.622V50.1413C127.048 47.8499 128.257 46.6889 130.636 46.6889C133.016 46.6889 134.187 47.8806 134.187 50.1413V59.6352C134.175 59.8169 134.205 59.9989 134.275 60.1692C134.345 60.3394 134.453 60.494 134.592 60.6227C134.732 60.7515 134.899 60.8515 135.083 60.9161C135.267 60.9808 135.464 61.0086 135.661 60.9977H137.523C137.72 61.0086 137.917 60.9808 138.101 60.9161C138.285 60.8515 138.453 60.7515 138.592 60.6227C138.731 60.494 138.839 60.3394 138.909 60.1692C138.979 59.9989 139.009 59.8169 138.998 59.6352V50.1413C138.998 45.7338 135.992 43 131.158 43Z" fill="#BCBDBD"/>
<path d="M150.999 59.3589C151.004 59.2823 150.99 59.2055 150.959 59.1342C150.927 59.0628 150.878 58.9986 150.816 58.946C150.754 58.8935 150.679 58.854 150.598 58.8303C150.516 58.8065 150.43 58.7992 150.345 58.8088H148.859C147.434 58.8088 146.949 58.3182 146.949 56.8785V36.1C146.965 35.953 146.944 35.8047 146.889 35.6656C146.834 35.5266 146.745 35.4002 146.629 35.2956C146.512 35.1909 146.372 35.1106 146.217 35.0602C146.063 35.0098 145.898 34.9907 145.734 35.0042H145.223C145.06 34.994 144.896 35.0154 144.743 35.0668C144.59 35.1183 144.451 35.1987 144.335 35.3025C144.219 35.4064 144.13 35.5313 144.073 35.6689C144.015 35.8064 143.991 35.9535 144.003 36.1V57.094C144.003 59.9733 145.213 60.9957 148.629 60.9957H150.289C150.384 61.0063 150.479 60.9972 150.569 60.9693C150.659 60.9414 150.741 60.8954 150.808 60.8347C150.875 60.7741 150.926 60.7004 150.956 60.6195C150.987 60.5385 150.996 60.4523 150.984 60.3676L150.999 59.3589Z" fill="#BCBDBD"/>
<path d="M161.999 60.3131C162.004 60.2385 161.994 60.1635 161.97 60.0934C161.946 60.0233 161.908 59.9597 161.859 59.907C161.81 59.8543 161.751 59.8138 161.686 59.7882C161.621 59.7626 161.552 59.7526 161.483 59.7588H160.205C159.025 59.7588 158.646 59.297 158.646 57.8143V43.9581C158.646 43.2699 158.386 43.002 157.73 43.002H153.546C153.475 42.9954 153.404 43.0051 153.337 43.0305C153.27 43.0558 153.209 43.0962 153.157 43.149C153.106 43.2017 153.065 43.2657 153.038 43.3367C153.011 43.4077 152.998 43.4841 153 43.5608V44.577C152.998 44.6536 153.011 44.7298 153.038 44.8006C153.065 44.8714 153.106 44.9351 153.158 44.9875C153.209 45.0399 153.27 45.0798 153.337 45.1046C153.404 45.1294 153.475 45.1385 153.546 45.1312H156.14V58.0637C156.14 60.9643 157.15 61.9943 160 61.9943H161.402C161.481 62.0067 161.562 61.9988 161.638 61.9714C161.714 61.944 161.783 61.8977 161.84 61.8363C161.897 61.7749 161.939 61.7 161.965 61.6176C161.99 61.5352 161.997 61.4475 161.986 61.3615L161.999 60.3131Z" fill="#BCBDBD"/>
<path d="M156.007 37.8155C155.99 37.9719 156.005 38.1305 156.052 38.2797C156.099 38.429 156.177 38.5651 156.279 38.6782C156.382 38.7913 156.506 38.8785 156.644 38.9335C156.782 38.9884 156.93 39.0097 157.077 38.9959H157.919C158.066 39.0096 158.214 38.9882 158.352 38.9333C158.49 38.8784 158.615 38.7912 158.718 38.6783C158.821 38.5653 158.899 38.4292 158.947 38.28C158.994 38.1308 159.01 37.9721 158.994 37.8155V36.1845C159.01 36.0279 158.994 35.8692 158.947 35.72C158.899 35.5708 158.821 35.4347 158.718 35.3217C158.615 35.2088 158.49 35.1216 158.352 35.0667C158.214 35.0118 158.066 34.9904 157.919 35.0041H157.077C156.93 34.9903 156.782 35.0116 156.644 35.0665C156.506 35.1215 156.382 35.2087 156.279 35.3218C156.177 35.4349 156.099 35.571 156.052 35.7203C156.005 35.8695 155.99 36.0281 156.007 36.1845V37.8155Z" fill="#BCBDBD"/>
<path d="M174.998 42.7137C175.005 42.6393 174.994 42.5644 174.967 42.4942C174.94 42.424 174.897 42.3603 174.842 42.3075C174.787 42.2546 174.72 42.214 174.646 42.1883C174.572 42.1626 174.493 42.1526 174.415 42.1588H170.384V39.3705C170.384 37.7287 170.933 37.1188 172.412 37.1188H174.15C174.468 37.1188 174.998 37.027 174.998 36.4217V35.8071C174.998 35.2476 174.69 35 174.001 35H172.147C168.982 35 167.634 36.2979 167.634 39.3384V42.1588H164.585C164.507 42.1526 164.428 42.1626 164.354 42.1883C164.28 42.214 164.213 42.2546 164.158 42.3075C164.103 42.3603 164.06 42.424 164.033 42.4942C164.006 42.5644 163.995 42.6393 164.002 42.7137V43.7227C163.996 43.7968 164.007 43.8712 164.034 43.9408C164.062 44.0104 164.105 44.0735 164.16 44.1259C164.215 44.1782 164.282 44.2184 164.355 44.2438C164.429 44.2692 164.507 44.2792 164.585 44.273H167.634V60.2646C167.626 60.3627 167.641 60.4611 167.678 60.5532C167.714 60.6453 167.77 60.729 167.843 60.7985C167.917 60.8681 168.004 60.9219 168.101 60.9564C168.198 60.9908 168.301 61.0051 168.404 60.9984H169.652C169.755 61.0051 169.858 60.9908 169.955 60.9564C170.052 60.9219 170.139 60.8681 170.212 60.7985C170.286 60.729 170.342 60.6453 170.378 60.5532C170.414 60.4611 170.429 60.3627 170.422 60.2646V44.273H174.415C174.493 44.2792 174.571 44.2692 174.645 44.2438C174.718 44.2184 174.785 44.1782 174.84 44.1259C174.895 44.0735 174.938 44.0104 174.966 43.9408C174.993 43.8712 175.004 43.7968 174.998 43.7227V42.7137Z" fill="#BCBDBD"/>
<path d="M191.773 55.9048C191.779 55.8646 191.775 55.8238 191.762 55.7853C191.748 55.7468 191.726 55.7118 191.696 55.6829C191.666 55.654 191.629 55.6321 191.588 55.6189C191.548 55.6057 191.505 55.6014 191.462 55.6066H189.52C189.219 55.6066 189.168 55.6943 189.168 55.9048V56.1152C189.168 58.049 187.68 59.0312 184.741 59.0312C181.339 59.0312 179.753 57.7157 179.753 54.8436V52.8441H191.013C191.703 52.8441 192 52.5678 192 51.9145V49.3362C192 45.1924 189.413 43 184.519 43C179.624 43 177 45.3108 177 49.5116V54.5981C177 58.7856 179.679 61 184.741 61C189.409 61 191.773 59.3688 191.773 56.1503V55.9048ZM179.721 49.1213C179.721 46.3808 181.371 44.9337 184.486 44.9337C187.601 44.9337 189.325 46.372 189.325 49.0862V50.9454H179.721V49.1213Z" fill="#BCBDBD"/>
</svg>
