<svg width="227" height="96" viewBox="0 0 227 96" fill="none" xmlns="http://www.w3.org/2000/svg">
<path fill-rule="evenodd" clip-rule="evenodd" d="M90.2 12.0002C92.2849 12.6852 93.4376 14.4791 94.8439 15.9563C95.294 16.4294 95.4038 17.1239 95.4032 17.7971C95.4016 20.772 95.4052 23.7468 95.401 26.7216C95.3996 27.6526 95.0586 28.4496 94.4024 29.1098C93.6596 29.8567 92.9028 30.5903 92.1729 31.3499C91.3971 32.1569 90.4508 32.5149 89.3483 32.5143C87.3807 32.5132 85.4131 32.5152 83.4456 32.5138C82.3998 32.513 81.4707 32.2116 80.7181 31.4521C79.927 30.6537 79.1267 29.864 78.339 29.0626C77.7031 28.4153 77.3954 27.6236 77.3931 26.7219C77.387 23.7471 77.3909 20.7723 77.3887 17.7977C77.3881 16.9156 77.6824 16.1376 78.282 15.5028C79.0689 14.6699 79.9025 13.8801 80.7 13.0569C81.1979 12.5431 81.8499 12.306 82.4665 12.0005C85.0448 12.0002 87.6223 12.0002 90.2 12.0002ZM89.8984 22.3333C89.8984 21.2559 89.9065 20.1783 89.8962 19.1012C89.8856 17.9613 88.6619 16.6975 87.5192 16.6612C86.7708 16.6374 86.0197 16.6369 85.2716 16.6676C84.0979 16.7159 82.9049 17.9323 82.8952 19.104C82.8778 21.2118 82.8809 23.3198 82.8929 25.4276C82.8988 26.4868 84.1141 27.7579 85.1674 27.802C85.9624 27.8353 86.7605 27.8364 87.5558 27.809C88.7099 27.7694 89.8923 26.5139 89.8979 25.3544C89.902 24.3475 89.8984 23.3402 89.8984 22.3333Z" fill="#BCBDBD"/>
<path fill-rule="evenodd" clip-rule="evenodd" d="M149.812 12.0002C150.33 12.4479 150.325 12.9109 149.916 13.4462C148.368 15.4707 146.851 17.5187 145.291 19.5332C144.928 20.0007 144.864 20.3707 145.139 20.9155C146.785 24.1835 148.393 27.47 150.015 30.7503C150.077 30.8757 150.149 30.9961 150.204 31.1243C150.636 32.1273 150.381 32.5102 149.283 32.5118C148.252 32.5132 147.22 32.482 146.191 32.5238C145.198 32.5643 144.581 32.1368 144.153 31.2521C143.167 29.2184 142.112 27.2181 141.123 25.1866C140.855 24.6373 140.76 24.7208 140.35 25.1059C138.813 26.5491 138.242 28.2734 138.539 30.3368C138.602 30.7713 138.554 31.2259 138.522 31.6688C138.482 32.2192 138.171 32.5141 137.608 32.5146C136.366 32.5157 135.124 32.5185 133.882 32.5143C133.283 32.5124 132.991 32.1818 132.957 31.6009C132.951 31.4842 132.956 31.3669 132.956 31.2496C132.956 25.2519 132.957 19.254 132.951 13.2563C132.951 12.7461 132.998 12.2787 133.503 12.0002C135.003 12.0002 136.502 12.0002 138.002 12.0002C138.5 12.2856 138.55 12.764 138.55 13.2666C138.549 15.3004 138.547 17.3342 138.556 19.3682C138.557 19.5318 138.432 19.7818 138.681 19.8477C138.865 19.896 138.922 19.6673 139.015 19.5444C140.435 17.6637 141.847 15.7765 143.274 13.9011C143.819 13.1843 144.282 12.3772 145.172 12.0005C146.719 12.0002 148.266 12.0002 149.812 12.0002Z" fill="#BCBDBD"/>
<path fill-rule="evenodd" clip-rule="evenodd" d="M170.2 32.2465C169.876 32.444 169.532 32.5278 169.144 32.5202C168.067 32.4993 166.989 32.5169 165.912 32.5118C165.052 32.5076 164.8 32.3175 164.584 31.482C164.339 30.5356 164.091 29.5889 163.888 28.6331C163.803 28.2326 163.629 28.0975 163.228 28.1017C161.635 28.119 160.042 28.1184 158.45 28.1028C158.054 28.0989 157.867 28.224 157.781 28.6281C157.585 29.561 157.339 30.4837 157.108 31.4094C156.886 32.3066 156.623 32.5118 155.688 32.5141C154.658 32.5166 153.627 32.5152 152.596 32.5143C151.51 32.5132 151.28 32.2119 151.561 31.1351C152.289 28.3435 153.018 25.5521 153.754 22.7625C154.584 19.6145 155.434 16.4721 156.242 13.3186C156.388 12.7475 156.66 12.3256 157.124 12.0002C159.562 12.0002 161.999 12.0002 164.436 12.0002C165.003 12.2183 165.281 12.6509 165.431 13.227C166.45 17.1404 167.47 21.0535 168.521 24.9587C169.073 27.0148 169.516 29.1014 170.2 31.1217C170.2 31.4965 170.2 31.8715 170.2 32.2465ZM160.936 16.4939C160.863 16.4995 160.789 16.5051 160.716 16.5107C160.188 18.6673 159.66 20.8236 159.133 22.9803C159.111 23.071 159.103 23.1649 159.084 23.2562C159.014 23.5848 159.182 23.6549 159.472 23.6516C160.338 23.6412 161.205 23.6304 162.07 23.6566C162.561 23.6714 162.676 23.5237 162.547 23.0392C162.245 21.9163 162.003 20.7776 161.727 19.6477C161.47 18.5947 161.2 17.545 160.936 16.4939Z" fill="#BCBDBD"/>
<path fill-rule="evenodd" clip-rule="evenodd" d="M128.864 12.0003C129.215 12.2519 129.327 12.5864 129.313 13.0193C129.284 13.9087 129.307 14.7995 129.306 15.6897C129.304 16.526 129.079 16.7598 128.224 16.762C125.741 16.7684 123.258 16.7715 120.774 16.7592C120.283 16.757 119.875 16.8609 119.502 17.2116C119.002 17.6821 118.792 18.2412 119.039 18.8553C119.289 19.476 119.788 19.7648 120.527 19.7653C122.351 19.7673 124.183 19.6031 126 19.8592C127.841 20.1183 129.85 22.4659 129.826 24.3179C129.81 25.5083 129.958 26.7052 129.72 27.8895C129.715 27.9124 129.717 27.9364 129.712 27.9593C129.288 29.9542 126.16 32.5116 124.131 32.5135C121.039 32.5163 117.947 32.5141 114.854 32.5121C113.903 32.5116 113.684 32.2985 113.68 31.3745C113.677 30.5312 113.676 29.6876 113.681 28.8442C113.686 28.0043 113.928 27.751 114.764 27.749C117.481 27.7434 120.199 27.7487 122.917 27.7451C123.448 27.7443 124.343 27.1285 124.485 26.6387C124.659 26.0417 124.593 25.4807 124.098 25.0319C123.788 24.7493 123.428 24.6452 123.006 24.6488C121.39 24.6625 119.773 24.6471 118.157 24.6575C117.38 24.6625 116.677 24.4514 116.073 23.9702C114.576 22.7776 113.7 21.4129 113.596 19.3068C113.459 16.5702 114.536 14.7 116.498 13.0743C117.057 12.6107 117.685 12.3105 118.319 12C121.835 12.0003 125.349 12.0003 128.864 12.0003Z" fill="#BCBDBD"/>
<path fill-rule="evenodd" clip-rule="evenodd" d="M70.7959 12.0002C72.4834 12.4892 73.4806 13.8444 74.5792 15.0561C75.043 15.5679 75.2214 16.2373 75.2228 16.9379C75.2259 18.3188 75.2351 19.6999 75.2259 21.0808C75.2242 21.3581 75.1834 21.6441 75.108 21.911C74.5786 23.7828 71.6903 25.976 69.7289 25.9911C68.0434 26.004 66.3573 26.0185 64.6726 25.9827C64.1015 25.9705 63.9602 26.1707 63.97 26.704C63.9987 28.272 63.9817 29.8408 63.9828 31.4094C63.9834 32.2535 63.748 32.5062 62.9256 32.5107C61.7784 32.5169 60.6313 32.5171 59.4844 32.5093C58.7117 32.504 58.4384 32.234 58.4378 31.4515C58.4339 25.3181 58.4406 19.1845 58.4277 13.0508C58.4266 12.6202 58.6241 12.3175 58.8449 12.0002C62.8287 12.0002 66.8124 12.0002 70.7959 12.0002ZM63.9792 18.9597C63.98 18.9597 63.9806 18.9597 63.9814 18.9597C63.9814 19.6846 63.9996 20.4098 63.9747 21.1339C63.9588 21.5944 64.1361 21.7382 64.5893 21.7245C65.5709 21.6952 66.5539 21.7153 67.5362 21.715C68.9046 21.7144 69.6851 20.9348 69.6856 19.5704C69.6856 19.1026 69.6937 18.6346 69.689 18.1669C69.6786 17.1314 68.8266 16.2551 67.7932 16.2412C66.7169 16.2267 65.6404 16.2632 64.5653 16.2297C64.0722 16.2144 63.9663 16.4333 63.9753 16.8541C63.9898 17.5562 63.9792 18.2579 63.9792 18.9597Z" fill="#BCBDBD"/>
<path fill-rule="evenodd" clip-rule="evenodd" d="M102.853 12.0002C103.34 12.3043 103.352 12.7819 103.352 13.2845C103.348 17.8505 103.365 22.4165 103.342 26.9824C103.339 27.5918 103.484 27.7761 104.115 27.7632C106.222 27.7202 108.33 27.7442 110.438 27.7484C111.315 27.7501 111.562 27.9953 111.569 28.8665C111.576 29.7328 111.58 30.5995 111.568 31.4655C111.557 32.2583 111.307 32.511 110.506 32.5121C106.619 32.5171 102.732 32.5149 98.8449 32.5093C98.0848 32.5082 97.7977 32.2519 97.7969 31.5275C97.7899 25.3458 97.7974 19.1638 97.7832 12.9821C97.7821 12.5618 98.0105 12.3007 98.2135 12.0002C99.76 12.0002 101.306 12.0002 102.853 12.0002Z" fill="#BCBDBD"/>
<path fill-rule="evenodd" clip-rule="evenodd" d="M77.8268 47.7214C77.8265 44.7231 77.8254 41.7248 77.8271 38.7265C77.8276 37.7003 78.0198 37.4719 79.0513 37.4679C82.6117 37.4537 86.1721 37.4682 89.7325 37.4646C91.0419 37.4632 92.0411 38.0206 93.0394 38.8756C94.7537 40.3436 95.2541 41.8549 95.2541 44.3034C95.2541 44.6516 95.2418 45.0051 95.2485 45.3564C95.2647 46.1883 95.012 46.9152 94.4233 47.5147C93.931 48.0157 93.4677 48.5493 92.9394 49.0084C92.4563 49.4278 92.3806 49.806 92.6621 50.4024C93.6456 52.4876 94.5722 54.5998 95.5118 56.7053C95.9346 57.6528 95.7093 57.9929 94.6747 57.9963C93.5739 57.9996 92.47 57.9488 91.3728 58.0128C90.5334 58.0616 90.0944 57.7103 89.7786 56.9703C89.0936 55.3658 88.3315 53.7942 87.6365 52.1941C87.4016 51.654 87.1006 51.3879 86.4779 51.4303C85.6848 51.4842 84.8842 51.4742 84.09 51.4328C83.5489 51.4046 83.3604 51.5616 83.3741 52.1276C83.4106 53.6727 83.3852 55.2192 83.3855 56.7651C83.3855 57.7905 83.187 57.9938 82.163 57.9963C81.1091 57.9988 80.0546 57.9985 79.0008 57.9943C78.0293 57.9904 77.8285 57.7841 77.8279 56.7869C77.8257 53.7651 77.8268 50.7431 77.8268 47.7214ZM83.388 44.3606C83.388 45.0626 83.4045 45.7655 83.3819 46.4667C83.3687 46.8694 83.5282 46.999 83.9177 46.9942C85.2048 46.9788 86.4924 47.004 87.7795 46.983C88.6287 46.9694 89.6434 45.9984 89.6943 45.1565C89.7278 44.5974 89.7241 44.0319 89.6862 43.4729C89.6295 42.6452 88.7672 41.7882 87.9322 41.7656C86.5994 41.7298 85.2646 41.7564 83.9309 41.7368C83.4989 41.7307 83.3671 41.9108 83.383 42.3241C83.409 43.0026 83.39 43.682 83.388 44.3606Z" fill="#BCBDBD"/>
<path fill-rule="evenodd" clip-rule="evenodd" d="M77.8253 73.2642C77.8253 70.2882 77.8244 67.3126 77.8258 64.3366C77.8264 63.211 78.0115 63.025 79.1229 63.025C82.7548 63.025 86.387 63.0339 90.0189 63.0216C90.9519 63.0186 91.772 63.2702 92.4682 63.8951C93.2004 64.5525 93.9166 65.2277 94.5237 66.0054C94.8278 66.3949 95.0691 66.8208 95.1389 67.3262C95.3324 68.7247 95.2861 70.131 95.1786 71.5264C95.1085 72.437 94.4332 73.0723 93.7887 73.6571C92.2777 75.0287 92.2716 75.0181 93.1004 76.8564C93.9178 78.6693 94.7315 80.4841 95.5416 82.3003C95.9046 83.1135 95.701 83.4455 94.8242 83.4531C93.5824 83.464 92.34 83.4402 91.0985 83.462C90.5051 83.4723 90.1365 83.2341 89.8957 82.6946C89.1432 81.0063 88.344 79.3378 87.6143 77.64C87.3803 77.0957 87.0672 76.9011 86.4948 76.9271C85.6529 76.9656 84.807 76.9625 83.9648 76.9271C83.4591 76.9056 83.3284 77.0971 83.3345 77.5769C83.356 79.2166 83.3446 80.8572 83.332 82.4975C83.3262 83.2869 83.1608 83.4478 82.3759 83.4536C81.2044 83.4626 80.0327 83.4606 78.8613 83.4556C78.0213 83.452 77.8289 83.2503 77.8272 82.3327C77.8219 79.3099 77.8253 76.287 77.8253 73.2642ZM85.8952 72.4574C86.5043 72.4574 87.1142 72.4393 87.7226 72.4636C88.1747 72.4812 88.5297 72.3421 88.8595 72.0293C89.6958 71.2363 90.1066 69.5334 89.588 68.4966C89.2616 67.8431 88.7561 67.2763 87.9298 67.262C86.5948 67.2391 85.2588 67.2718 83.9238 67.2469C83.4786 67.2386 83.3452 67.4332 83.3457 67.8253C83.3474 69.1841 83.3538 70.5432 83.3379 71.902C83.3326 72.3351 83.5116 72.4775 83.9271 72.4633C84.5828 72.4407 85.2393 72.4574 85.8952 72.4574Z" fill="#BCBDBD"/>
<path fill-rule="evenodd" clip-rule="evenodd" d="M98.5626 47.6831C98.5626 44.684 98.5587 41.6849 98.5648 38.6857C98.5668 37.7226 98.8058 37.4677 99.7592 37.466C104.047 37.4584 108.335 37.4601 112.623 37.4702C113.461 37.4721 113.694 37.7288 113.7 38.5645C113.707 39.4548 113.708 40.3453 113.703 41.2356C113.698 42.0278 113.499 42.2266 112.702 42.2277C110.102 42.2311 107.5 42.247 104.9 42.2154C104.298 42.2082 104.042 42.3433 104.108 42.9884C104.164 43.5449 104.152 44.114 104.112 44.6737C104.075 45.1799 104.272 45.3168 104.755 45.3123C106.957 45.2925 109.159 45.3008 111.362 45.3034C112.249 45.3042 112.414 45.4631 112.429 46.3651C112.442 47.2084 112.445 48.052 112.429 48.8953C112.416 49.6579 112.224 49.8392 111.458 49.8406C109.278 49.845 107.099 49.8615 104.92 49.8297C104.278 49.8202 104.047 50.0148 104.106 50.6688C104.165 51.3198 104.152 51.9821 104.109 52.6353C104.076 53.148 104.286 53.2686 104.754 53.2656C107.285 53.2496 109.815 53.2561 112.346 53.2566C113.585 53.2569 113.704 53.3784 113.703 54.6135C113.702 55.4336 113.697 56.2538 113.707 57.0737C113.715 57.6712 113.469 57.9982 112.84 57.9977C108.388 57.9941 103.935 58.0008 99.4835 57.989C98.7424 57.9871 98.5612 57.7492 98.5584 56.8215C98.5486 53.7755 98.5545 50.7294 98.5545 47.6831C98.557 47.6831 98.5598 47.6831 98.5626 47.6831Z" fill="#BCBDBD"/>
<path fill-rule="evenodd" clip-rule="evenodd" d="M140.945 57.9974C139.375 57.9977 137.806 57.9994 136.236 57.9971C135.107 57.9957 134.925 57.8154 134.924 56.7115C134.923 55.9148 134.918 55.1184 134.925 54.322C134.932 53.5236 135.171 53.2739 135.974 53.2703C138.668 53.2583 141.362 53.2633 144.056 53.2505C145.016 53.246 145.766 52.5647 145.799 51.7043C145.834 50.7892 145.294 50.1927 144.377 50.1832C142.948 50.1684 141.519 50.1793 140.09 50.1813C137.065 50.1849 134.912 48.0621 134.929 45.0585C134.935 44.1015 134.817 43.1375 135.034 42.1872C135.059 42.0736 135.063 41.9544 135.096 41.8432C135.666 39.9248 138.779 37.4959 140.787 37.4727C143.667 37.4395 146.549 37.4548 149.431 37.4663C150.346 37.4699 150.561 37.7048 150.579 38.65C150.597 39.5391 150.597 40.4291 150.586 41.3185C150.578 41.9312 150.304 42.245 149.631 42.2389C147.078 42.2157 144.524 42.2247 141.97 42.2325C141.052 42.2353 140.254 42.9714 140.239 43.7946C140.223 44.6781 140.807 45.2922 141.71 45.2989C143.303 45.3109 144.895 45.2947 146.489 45.3039C148.81 45.3171 151.095 47.5904 151.07 49.8976C151.057 51.0874 151.208 52.2843 150.964 53.4677C150.945 53.5593 150.952 53.6604 150.916 53.7442C150.276 55.2424 149 56.2002 147.863 57.2638C147.142 57.9385 146.188 58.0145 145.231 58.0024C143.803 57.9835 142.374 57.9969 140.945 57.9974Z" fill="#BCBDBD"/>
<path fill-rule="evenodd" clip-rule="evenodd" d="M122.503 57.9971C120.886 57.9969 119.27 58.0002 117.653 57.9957C116.688 57.9929 116.494 57.798 116.492 56.8572C116.49 56.0136 116.488 55.17 116.493 54.3267C116.498 53.4764 116.711 53.2589 117.583 53.2569C120.23 53.251 122.879 53.2611 125.526 53.2527C126.654 53.2494 127.333 52.6018 127.333 51.5705C127.333 50.7529 126.776 50.1829 125.93 50.1776C124.383 50.1681 122.837 50.1922 121.291 50.1765C119.19 50.1553 116.832 48.3178 116.566 46.3179C116.375 44.8909 116.341 43.4176 116.632 41.9837C116.955 40.3897 119.887 37.7369 121.497 37.5386C122.71 37.3892 123.93 37.4733 125.146 37.4654C127.044 37.4534 128.942 37.4576 130.839 37.4643C131.919 37.468 132.117 37.669 132.119 38.7137C132.121 39.5805 132.106 40.4478 132.124 41.3143C132.139 41.9747 131.827 42.2364 131.187 42.2336C128.703 42.223 126.218 42.2626 123.736 42.2104C122.917 42.1931 122.402 42.5734 121.971 43.1445C121.671 43.5419 121.664 44.0468 121.893 44.4768C122.172 44.9984 122.63 45.3062 123.26 45.3031C124.759 45.2964 126.259 45.3 127.758 45.2969C130.464 45.2914 132.661 47.4695 132.638 50.1701C132.629 51.2438 132.756 52.3223 132.533 53.3915C132.117 55.3904 129.031 57.9754 127.002 57.9943C125.502 58.0086 124.003 57.9971 122.503 57.9971Z" fill="#BCBDBD"/>
<path fill-rule="evenodd" clip-rule="evenodd" d="M144.248 63.0258C145.256 63.0264 146.264 63.0202 147.271 63.0283C148.223 63.0359 148.567 63.2956 148.811 64.2235C150.042 68.9001 151.263 73.5786 152.491 78.256C152.829 79.5439 153.174 80.8298 153.516 82.1169C153.794 83.1641 153.581 83.4556 152.533 83.4564C151.456 83.4573 150.378 83.4606 149.299 83.4562C148.439 83.4523 148.204 83.2682 147.984 82.4185C147.749 81.5137 147.504 80.6106 147.307 79.6972C147.211 79.2501 147.011 79.0656 146.547 79.0709C144.978 79.0887 143.407 79.0907 141.838 79.0692C141.423 79.0633 141.255 79.2367 141.167 79.6087C140.943 80.5637 140.687 81.512 140.464 82.4673C140.303 83.1537 139.951 83.5025 139.189 83.4679C138.09 83.4179 136.987 83.4587 135.886 83.4553C134.938 83.452 134.709 83.1697 134.946 82.2378C135.441 80.2903 135.953 78.3468 136.464 76.4035C137.534 72.3376 138.607 68.2729 139.682 64.2087C139.93 63.2752 140.246 63.0337 141.226 63.0267C142.234 63.0194 143.241 63.0253 144.248 63.0258ZM144.183 74.6755C144.604 74.6755 145.027 74.6529 145.446 74.6811C145.994 74.7177 146.071 74.4934 145.947 74.0061C145.452 72.0615 144.987 70.1084 144.506 68.1598C144.454 67.9453 144.508 67.5918 144.233 67.5818C143.953 67.5714 143.986 67.935 143.936 68.1389C143.541 69.7236 143.166 71.3131 142.787 72.9017C142.364 74.6755 142.365 74.6758 144.183 74.6755Z" fill="#BCBDBD"/>
<path fill-rule="evenodd" clip-rule="evenodd" d="M114.945 70.8766C114.945 73.0081 114.928 75.1399 114.951 77.2708C114.965 78.514 114.552 79.5511 113.659 80.4121C113.001 81.0457 112.365 81.7013 111.713 82.3417C110.964 83.078 110.092 83.4843 109.01 83.4637C107.347 83.4316 105.683 83.4271 104.021 83.467C102.861 83.495 101.933 83.0928 101.154 82.2501C100.614 81.6659 100.07 81.0733 99.4576 80.5701C98.323 79.6374 97.9533 78.4157 97.9527 77.0234C97.9511 72.7604 97.9488 68.4974 97.9575 64.2344C97.9594 63.2556 98.2021 63.0278 99.1507 63.0255C100.252 63.023 101.353 63.0213 102.453 63.0261C103.247 63.0294 103.487 63.2604 103.53 64.0649C103.546 64.345 103.534 64.627 103.534 64.9079C103.533 68.6789 103.532 72.4501 103.532 76.2214C103.532 77.3663 104.539 78.4816 105.679 78.6966C107.114 78.9678 108.252 78.557 109.12 77.3786C109.418 76.9745 109.452 76.5219 109.451 76.0474C109.447 72.1125 109.448 68.1774 109.448 64.2425C109.449 63.1788 109.603 63.0253 110.661 63.025C111.715 63.0247 112.769 63.0222 113.823 63.0261C114.744 63.0294 114.942 63.2238 114.943 64.1314C114.947 66.3793 114.945 68.6281 114.945 70.8766Z" fill="#BCBDBD"/>
<path fill-rule="evenodd" clip-rule="evenodd" d="M58.4386 47.7504C58.4397 44.7072 58.4374 41.6636 58.4408 38.6201C58.4416 37.7782 58.6745 37.4819 59.4994 37.4794C63.0339 37.4691 66.568 37.4908 70.1027 37.5026C71.2477 37.5065 72.0887 38.0834 72.9547 38.7952C74.7341 40.2587 75.5629 42.0272 75.2345 44.3246C75.185 44.6686 75.1876 45.0314 75.2339 45.3762C75.6151 48.214 73.6456 49.6311 71.7645 51.0735C71.265 51.4569 70.5903 51.4951 69.9503 51.494C68.1709 51.4915 66.3915 51.5102 64.6127 51.4828C64.1168 51.4753 63.9679 51.6412 63.9746 52.1204C63.9953 53.6649 63.9802 55.2099 63.9802 56.7547C63.9802 57.8346 63.835 57.991 62.7918 57.996C61.7387 58.0007 60.6848 58.0019 59.6315 57.996C58.6435 57.9907 58.4388 57.7843 58.4386 56.8103C58.4369 53.7908 58.4374 50.7707 58.4386 47.7504ZM66.2245 47.2048C66.2245 47.2095 66.2245 47.2142 66.2245 47.2187C66.6683 47.2187 67.1123 47.2196 67.556 47.2187C68.9176 47.2159 69.6855 46.4368 69.6861 45.059C69.6861 44.5918 69.6889 44.1246 69.685 43.6575C69.678 42.7214 68.8461 41.7859 67.9179 41.7547C66.7747 41.7159 65.6295 41.7533 64.4851 41.739C64.119 41.7346 63.9749 41.9052 63.9749 42.2392C63.9752 43.734 63.9813 45.2288 63.9797 46.7236C63.9791 47.0662 64.0972 47.2296 64.4742 47.212C65.0565 47.1846 65.6409 47.2048 66.2245 47.2048Z" fill="#BCBDBD"/>
<path fill-rule="evenodd" clip-rule="evenodd" d="M68.539 83.4561C66.9696 83.4564 65.4 83.4453 63.8306 83.4609C62.9694 83.4693 62.1956 83.2221 61.5748 82.6469C60.5796 81.7256 59.5949 80.789 58.7184 79.7477C58.2442 79.1842 58.0155 78.5283 58.0125 77.8114C57.9982 74.766 57.9943 71.7205 58.0108 68.6753C58.0175 67.396 58.8234 66.5301 59.667 65.6999C60.2001 65.1752 60.7287 64.6457 61.2654 64.1241C62.0001 63.4092 62.861 63.0163 63.909 63.0213C66.8372 63.0353 69.7657 63.0244 72.6939 63.0272C73.6073 63.028 73.8475 63.2604 73.8651 64.1883C73.8804 64.9845 73.8751 65.7814 73.8654 66.5779C73.8545 67.4675 73.6188 67.7077 72.7358 67.7102C70.5334 67.7161 68.3318 67.7082 66.1293 67.711C64.5991 67.713 63.4999 68.8266 63.4988 70.3678C63.4977 72.3357 63.4944 74.3035 63.4988 76.2711C63.5016 77.6268 64.9286 79.0585 66.2785 79.0658C66.9579 79.0697 67.6384 79.037 68.3161 79.0714C68.823 79.0971 68.9665 78.8874 68.9618 78.4132C68.9442 76.8673 68.9531 75.3211 68.959 73.7749C68.9623 72.9268 69.1475 72.7367 69.9844 72.7305C71.1324 72.7224 72.2803 72.721 73.428 72.7305C74.239 72.7372 74.4501 72.9581 74.4512 73.7922C74.4551 76.6266 74.4551 79.4612 74.4509 82.2961C74.4495 83.2783 74.2775 83.452 73.3186 83.4545C71.7252 83.4587 70.1321 83.4556 68.539 83.4561Z" fill="#BCBDBD"/>
<path fill-rule="evenodd" clip-rule="evenodd" d="M118.29 73.2147C118.29 70.1698 118.288 67.1249 118.291 64.0802C118.292 63.1688 118.434 63.0272 119.361 63.0264C122.827 63.0233 126.293 63.0381 129.76 63.0191C130.908 63.013 131.78 63.5011 132.658 64.2079C134.537 65.7214 135.388 67.5921 135.054 69.9908C135.032 70.1516 135.03 70.3214 135.055 70.4817C135.481 73.3119 133.736 74.9617 131.764 76.4573C131.263 76.8371 130.617 76.9661 129.967 76.9647C128.139 76.9614 126.312 76.9879 124.486 76.9561C123.923 76.9463 123.76 77.1298 123.771 77.6751C123.8 79.197 123.783 80.7198 123.78 82.2422C123.778 83.2651 123.581 83.4545 122.54 83.4561C121.439 83.4575 120.338 83.4651 119.238 83.4547C118.457 83.4475 118.293 83.2802 118.291 82.4902C118.287 79.3978 118.29 76.3063 118.29 73.2147ZM123.783 70.0162C123.783 70.6951 123.818 71.3759 123.773 72.0519C123.734 72.6255 123.96 72.7704 124.499 72.75C125.504 72.7118 126.511 72.7428 127.518 72.738C128.561 72.733 129.489 71.8531 129.532 70.8112C129.554 70.274 129.562 69.7331 129.529 69.1969C129.46 68.0453 128.616 67.26 127.477 67.2564C126.447 67.2533 125.416 67.2734 124.387 67.2472C123.938 67.2357 123.755 67.3701 123.775 67.84C123.806 68.5644 123.783 69.2907 123.783 70.0162Z" fill="#BCBDBD"/>
</svg>
