<svg width="227" height="96" viewBox="0 0 227 96" fill="none" xmlns="http://www.w3.org/2000/svg">
<g clip-path="url(#clip0_2374_5572)">
<path d="M137.664 60.7972H136.575L135.598 58.7334H135.177L134.804 60.7972H133.812L134.687 55.9097H135.679L135.328 57.8646H135.652L137.313 55.9097H138.471L136.445 58.299L137.664 60.7972Z" fill="#BCBDBD"/>
<path d="M140.387 59.6973L139.891 60.7971H138.822L141.234 55.9092H142.44L143.102 60.7971H142.033L141.93 59.6973H140.387ZM141.661 56.8872L140.793 58.8017H141.841L141.661 56.8872Z" fill="#BCBDBD"/>
<path d="M149.36 60.7972H148.394L148.94 57.7561L147.547 60.0844H146.817L146.184 57.7561L145.639 60.7972H144.701L145.576 55.9097H146.61L147.368 58.7742L149.119 55.9097H150.235L149.36 60.7972Z" fill="#BCBDBD"/>
<path d="M152.262 55.9097H153.254L152.379 60.7968H151.387L152.262 55.9097Z" fill="#BCBDBD"/>
<path d="M158.472 55.9097L158.314 56.8057H156.115L155.922 57.858H157.7L157.542 58.74H155.764L155.557 59.9012H157.756L157.596 60.7968H154.406L155.281 55.9097H158.472Z" fill="#BCBDBD"/>
<path d="M164.047 55.9092L163.172 60.7971H162.186L160.952 57.464L160.353 60.7971H159.416L160.291 55.9092H161.352L162.53 59.1339L163.109 55.9092H164.047ZM161.738 55.4616L162.516 54.4835H163.743L162.557 55.4616H161.738Z" fill="#BCBDBD"/>
<path d="M170.732 56.9277C170.753 56.8324 170.718 56.792 170.636 56.792H169.471C169.395 56.792 169.346 56.8394 169.332 56.9277L169.223 57.5114C169.196 57.6744 169.223 57.7152 169.402 57.7556L170.608 58.0275C171.187 58.1562 171.518 58.3802 171.408 58.9915L171.256 59.8467C171.145 60.4642 170.753 60.7971 170.14 60.7971H168.575C167.962 60.7971 167.694 60.4642 167.803 59.8467L167.913 59.2361H168.878L168.775 59.779C168.754 59.8739 168.789 59.9147 168.871 59.9147H170.132C170.208 59.9147 170.256 59.8673 170.27 59.779L170.387 59.1405C170.414 58.9775 170.387 58.9371 170.208 58.8962L169.002 58.6248C168.423 58.4957 168.099 58.2717 168.203 57.6607L168.347 56.8596C168.457 56.2421 168.85 55.9092 169.463 55.9092H170.931C171.544 55.9092 171.813 56.2421 171.703 56.8596L171.607 57.4161H170.642L170.732 56.9277ZM169.781 55.4616L170.559 54.4835H171.786L170.601 55.4616H169.781Z" fill="#BCBDBD"/>
<path d="M174.834 55.9097L174.117 59.9012H176.144L175.986 60.7968H172.967L173.843 55.9097H174.834Z" fill="#BCBDBD"/>
<path d="M181.105 61.347C181.03 61.4419 181.044 61.4827 181.139 61.4827H181.484L181.395 61.9988H180.719C180.32 61.9988 180.106 61.7137 180.402 61.3334L180.823 60.7971H180.465L180.361 59.6973H178.818L178.322 60.7971H177.254L179.665 55.9092H180.871L181.533 60.7971L181.105 61.347ZM180.092 56.8872L179.224 58.8017H180.271L180.092 56.8872Z" fill="#BCBDBD"/>
<path d="M186 56.9277C186.02 56.8328 185.986 56.7916 185.904 56.7916H184.739C184.663 56.7916 184.615 56.839 184.601 56.9277L184.491 57.5114C184.463 57.6743 184.491 57.7148 184.67 57.756L185.876 58.0275C186.455 58.1566 186.786 58.3802 186.675 58.9915L186.523 59.8467C186.413 60.4646 186.02 60.7971 185.407 60.7971H183.843C183.23 60.7971 182.961 60.4646 183.071 59.8467L183.181 59.2361H184.146L184.042 59.779C184.022 59.8739 184.056 59.9147 184.139 59.9147H185.4C185.475 59.9147 185.525 59.8673 185.538 59.779L185.655 59.1405C185.682 58.9775 185.655 58.9371 185.476 58.8958L184.27 58.6244C183.691 58.4961 183.367 58.2721 183.471 57.6607L183.615 56.8596C183.725 56.2413 184.118 55.9092 184.731 55.9092H186.199C186.812 55.9092 187.081 56.2413 186.971 56.8596L186.875 57.4161H185.91L186 56.9277Z" fill="#BCBDBD"/>
<path d="M192.084 60.7972H190.996L190.017 58.7334H189.597L189.225 60.7972H188.232L189.108 55.9097H190.1L189.749 57.8646H190.073L191.733 55.9097H192.891L190.865 58.299L192.084 60.7972Z" fill="#BCBDBD"/>
<path d="M194.545 55.9097H195.538L194.662 60.7968H193.67L194.545 55.9097Z" fill="#BCBDBD"/>
<path d="M42.7724 38.0409C42.8354 37.6909 42.6761 37.5019 42.3164 37.5019H37.5589C37.1996 37.5019 36.9716 37.6909 36.9081 38.0409L36.4889 40.3579C36.3815 40.9506 36.574 41.112 37.2635 41.2738L42.2134 42.351C44.5542 42.8632 45.9325 43.8062 45.4933 46.2309L44.8788 49.6256C44.4353 52.0767 42.841 53.3962 40.3237 53.3962H33.9628C31.4455 53.3962 30.3292 52.0763 30.7728 49.6256L31.212 47.2008H35.0843L34.6943 49.3557C34.6308 49.7061 34.7901 49.8947 35.1494 49.8947H40.2942C40.6535 49.8947 40.8819 49.7064 40.945 49.3557L41.4033 46.8232C41.5107 46.2309 41.3183 46.0692 40.6292 45.9074L35.6792 44.8298C33.3384 44.318 31.9598 43.3749 32.399 40.9506L32.9743 37.7714C33.4179 35.3203 35.0125 34 37.5294 34H43.5034C46.0203 34 47.1366 35.3199 46.6926 37.7714L46.2926 39.9803H42.4206L42.7724 38.0409Z" fill="#BCBDBD"/>
<path d="M51.8868 34H55.8694L52.358 53.3966H48.375L51.8868 34Z" fill="#BCBDBD"/>
<path d="M64.6096 34L61.7418 49.8406H70.0946L69.451 53.3966H57.1152L60.6267 34H64.6096Z" fill="#BCBDBD"/>
<path d="M89.3922 34L88.7486 37.556H79.7039L78.9481 41.7315H86.2776L85.6436 45.2342H78.3141L77.4801 49.8406H86.5244L85.8808 53.3966H72.8535L76.365 34H89.3922Z" fill="#BCBDBD"/>
<path d="M101.633 38.0409C101.696 37.6909 101.537 37.5019 101.177 37.5019H96.4202C96.0609 37.5019 95.8329 37.6909 95.7695 38.0409L95.3502 40.3579C95.2428 40.9506 95.4353 41.112 96.1248 41.2738L101.075 42.351C103.416 42.8632 104.794 43.8062 104.355 46.2309L103.74 49.6256C103.297 52.0767 101.702 53.3962 99.1851 53.3962H92.8242C90.3069 53.3962 89.1906 52.0763 89.6341 49.6256L90.0733 47.2008H93.9457L93.5556 49.3557C93.4921 49.7061 93.6514 49.8947 94.0107 49.8947H99.1555C99.5149 49.8947 99.7432 49.7064 99.8063 49.3557L100.265 46.8232C100.372 46.2309 100.18 46.0692 99.4905 45.9074L94.5406 44.8298C92.1997 44.318 90.8211 43.3749 91.2603 40.9506L91.8356 37.7714C92.2792 35.3203 93.8734 34 96.3907 34H102.365C104.882 34 105.998 35.3199 105.554 37.7714L105.154 39.9803H101.282L101.633 38.0409Z" fill="#BCBDBD"/>
<path d="M110.746 34H114.729L111.217 53.3966H107.234L110.746 34Z" fill="#BCBDBD"/>
<path d="M120.472 49.0329L118.437 53.397H114.232L124.078 34H128.89L131.713 53.397H127.342L126.888 49.0329H120.472ZM125.698 37.8796L122.138 45.4769H126.508L125.698 37.8796Z" fill="#BCBDBD"/>
<path d="M145.128 53.397L143.222 46.2041H140.014L138.711 53.397H134.729L138.24 34H148.446C150.963 34 152.079 35.3203 151.635 37.7718L150.792 42.4323C150.426 44.4529 149.256 45.7192 147.446 46.096L149.415 53.3966L145.128 53.397ZM146.197 42.7558C146.556 42.7558 146.785 42.5668 146.847 42.2168L147.604 38.0409C147.668 37.6909 147.508 37.5023 147.148 37.5023H141.588L140.638 42.7558H146.197Z" fill="#BCBDBD"/>
<path d="M156.605 34H160.589L157.077 53.3966H153.094L156.605 34Z" fill="#BCBDBD"/>
<path d="M180.696 34L177.184 53.3966H173.312L167.98 40.223L165.595 53.3966H161.834L165.345 34H169.494L174.628 46.7431L176.934 34H180.696Z" fill="#BCBDBD"/>
<path d="M194.67 38.095C194.734 37.745 194.574 37.5564 194.214 37.5564H188.876C188.517 37.5564 188.289 37.745 188.225 38.095L186.196 49.302C186.133 49.6524 186.293 49.841 186.652 49.841H191.99C192.35 49.841 192.579 49.6528 192.642 49.302L193.247 45.9614H189.595L190.21 42.5672H197.844L196.565 49.6256C196.122 52.0771 194.528 53.397 192.01 53.397H185.345C182.828 53.397 181.711 52.0767 182.156 49.6256L184.301 37.7718C184.745 35.3203 186.339 34 188.856 34H195.521C198.039 34 199.155 35.3199 198.711 37.7714L198.262 40.2498H194.279L194.67 38.095Z" fill="#BCBDBD"/>
<path d="M7 42.5345L8.6058 46.3927H27.2394V42.5345H7Z" fill="#BCBDBD"/>
<path d="M9.6582 49.5385L11.264 53.397H27.2393V49.5385H9.6582Z" fill="#BCBDBD"/>
<path d="M220.793 42.5345L219.239 46.3927H201.209V42.5345H220.793Z" fill="#BCBDBD"/>
<path d="M218.222 49.5385L216.668 53.397H201.209V49.5385H218.222Z" fill="#BCBDBD"/>
</g>
<defs>
<clipPath id="clip0_2374_5572">
<rect width="214" height="28" fill="white" transform="translate(7 34)"/>
</clipPath>
</defs>
</svg>
