<svg width="227" height="96" viewBox="0 0 227 96" fill="none" xmlns="http://www.w3.org/2000/svg">
<path d="M52.0676 49.5816C54.5637 48.1483 56.2492 45.4411 56.2492 42.333C56.2492 37.7318 52.5544 34 47.9969 34H36V59H39.4069V38.167H47.9969C50.2765 38.167 52.1226 40.0328 52.1226 42.333C52.1226 44.635 50.2765 46.5 47.9969 46.5H45.9344V42.333H42.1515V56.9165H45.9344V52.7496L47.9969 50.6661L54.1868 59H59L52.0676 49.5816Z" fill="#BCBDBD"/>
<path d="M100.297 49.4316H93.3242V57H89V38H101V41.5382H93.3242V45.9088H100.297V49.4316Z" fill="#BCBDBD"/>
<path d="M110 38H105V57H110V38Z" fill="#BCBDBD"/>
<path d="M130 57H125.408L118.618 45.1781V57H114V38H118.618L125.395 49.8237V38H130V57Z" fill="#BCBDBD"/>
<path d="M139.585 49.9136H143.38L141.475 43.3237L139.585 49.9136ZM144.398 53.45H138.566L137.546 57H133L139.475 38H143.475L150 57H145.428L144.398 53.45Z" fill="#BCBDBD"/>
<path d="M168 57H163.696L157.329 45.1781V57H153V38H157.329L163.683 49.8237V38H168V57Z" fill="#BCBDBD"/>
<path d="M186.964 50.4877C186.908 51.775 186.572 52.9104 185.957 53.8957C185.344 54.8828 184.482 55.6465 183.374 56.1868C182.265 56.7281 180.999 57 179.575 57C177.226 57 175.376 56.208 174.026 54.6259C172.675 53.0437 172 50.81 172 47.9247V47.0109C172 45.2 172.304 43.6161 172.915 42.2573C173.524 40.8994 174.401 39.8506 175.547 39.1098C176.693 38.3699 178.018 38 179.525 38C181.694 38 183.436 38.5889 184.754 39.7702C186.071 40.9498 186.821 42.577 187 44.65H182.705C182.672 43.5243 182.396 42.7164 181.882 42.2256C181.366 41.7355 180.58 41.4901 179.525 41.4901C178.454 41.4901 177.665 41.9042 177.167 42.7332C176.669 43.5623 176.407 44.8866 176.382 46.7063V48.013C176.382 49.9854 176.622 51.3936 177.102 52.2394C177.58 53.0861 178.404 53.509 179.575 53.509C180.564 53.509 181.322 53.2671 181.845 52.7859C182.368 52.303 182.646 51.5375 182.68 50.4877H186.964Z" fill="#BCBDBD"/>
<path d="M202.681 48.9351H195.54V53.4772H203.974V57H191V38H204V41.5382H195.54V45.5439H202.681V48.9351Z" fill="#BCBDBD"/>
<path d="M64.048 62.3803L46.0009 68.3002L27.9529 62.3803V27.33H64.048V62.3803ZM24 23V65.2301L46.0009 73L68 65.2301V23H24Z" fill="#BCBDBD"/>
</svg>
