<svg width="227" height="96" viewBox="0 0 227 96" fill="none" xmlns="http://www.w3.org/2000/svg">
<path fill-rule="evenodd" clip-rule="evenodd" d="M28 30C28.4007 30.0339 28.8013 30.0963 29.2023 30.0966C34.3796 30.1033 45.4572 30.1013 46 30.1013C43.9963 33.6254 42.0934 36.9717 40.1575 40.3756C41.8492 41.1669 43.1256 42.344 44.0427 43.9071C47.0549 49.0429 44.1658 54.6336 38.2489 54.919C34.8397 55.0831 31.4168 54.9472 28 54.9465L28 30ZM32.0884 40.427C33.1413 40.427 34.1154 40.4447 35.0872 40.4122C35.2791 40.4058 35.5476 40.2545 35.6414 40.0902C36.7423 38.1524 37.8165 36.1995 38.9435 34.1681H32.0884V40.427ZM32.1134 51.1474C34.2162 51.0535 36.2509 51.0917 38.2475 50.8355C40.047 50.605 40.9455 49.3146 40.9108 47.5455C40.8781 45.8825 39.9913 44.7037 38.2032 44.5367C36.2052 44.3499 34.1765 44.4938 32.1134 44.4938V51.1474Z" fill="#BCBDBD"/>
<path fill-rule="evenodd" clip-rule="evenodd" d="M185.127 29C187.278 32.8268 189.422 36.6586 191.583 40.4801C194.225 45.152 196.882 49.8139 199.532 54.4815C199.662 54.7112 199.776 54.9515 200 55.3857C198.506 55.3857 197.137 55.4325 195.778 55.3445C195.516 55.3269 195.243 54.8068 195.053 54.4726C191.893 48.938 188.747 43.3961 185.597 37.8562C185.432 37.5651 185.259 37.2786 185.011 36.8548C182.239 41.7268 179.516 46.5109 176.706 51.45H190.768C186.514 57.1164 182.428 62.5584 178.342 68C178.291 67.9705 178.238 67.9406 178.186 67.9117C179.116 65.8435 180.043 63.7745 180.974 61.7073C181.894 59.6646 182.817 57.6226 183.815 55.4119H170C170.303 54.8636 170.502 54.4921 170.71 54.1267C175.313 46.018 179.918 37.9096 184.52 29.8003C184.668 29.54 184.792 29.2669 184.929 29H185.127Z" fill="#BCBDBD"/>
<path fill-rule="evenodd" clip-rule="evenodd" d="M106.489 44.5663V54.9101H102.416V41.0145H107.223C105.413 37.599 103.704 34.3734 102 31.1582C102.07 31.0856 102.116 30.9987 102.159 31C105.671 31.0837 109.236 30.8415 112.684 31.3438C117.627 32.063 119.949 37.0618 117.523 41.0174C116.639 42.4566 115.246 43.2624 113.618 43.9006C115.73 47.5687 117.817 51.1963 120 54.9863C118.565 54.9863 117.311 55.0333 116.067 54.9533C115.765 54.9327 115.415 54.5382 115.221 54.235C113.438 51.4466 111.636 48.668 109.948 45.826C109.359 44.8349 108.697 44.3506 107.527 44.5584C107.233 44.6104 106.92 44.5663 106.489 44.5663ZM111.729 40.6106C113.508 39.9662 114.278 38.98 114.168 37.5931C114.054 36.1667 113.191 35.3171 111.398 35.0083C110.479 34.8498 109.532 34.8364 108.341 34.7351C109.553 36.8379 110.628 38.7015 111.729 40.6106Z" fill="#BCBDBD"/>
<path fill-rule="evenodd" clip-rule="evenodd" d="M78.6607 31H82.8732C82.917 31.1829 82.9991 31.3645 82.998 31.5457C82.9828 36.4163 83.0462 41.289 82.9112 46.1566C82.7748 51.0684 78.3051 54.9919 73.0639 55C67.7215 55.0074 63.2077 51.1434 63.071 46.1966C62.9319 41.1692 63.0401 36.1349 63.0401 31.0296H67.3561V32.1295C67.3561 36.5106 67.3527 40.892 67.3575 45.2728C67.3605 48.5257 69.7691 50.9183 73.0201 50.9087C76.2063 50.899 78.6393 48.5119 78.6552 45.3224C78.6766 40.9741 78.6607 36.6255 78.6607 32.277V31Z" fill="#BCBDBD"/>
<path fill-rule="evenodd" clip-rule="evenodd" d="M137 55C141.309 48.2426 145.541 41.6065 149.857 34.8365H138.739V31H157C152.873 37.7707 148.815 44.4273 144.671 51.2266H156.13V55H137Z" fill="#BCBDBD"/>
</svg>
