<svg width="227" height="96" viewBox="0 0 227 96" fill="none" xmlns="http://www.w3.org/2000/svg">
<path fill-rule="evenodd" clip-rule="evenodd" d="M32 69.3233V44.3233H39.2834L41.9264 59.0897H42.0443L44.7755 44.3233H52V69.3233H47.0954L47.5948 49.7232L43.8651 69.3233H40.0176L36.4642 49.7232L36.8752 69.3233" fill="#BCBDBD"/>
<path fill-rule="evenodd" clip-rule="evenodd" d="M54 69.3233L58.8682 44.3233H65.191L70 69.3233H64.7157L64.0334 64.4899H59.9073L59.2837 69.3233H54ZM60.5009 60.0896H63.4991L61.9855 48.8896" fill="#BCBDBD"/>
<path fill-rule="evenodd" clip-rule="evenodd" d="M80.8562 59.3512H86V62.9104C86 65.0905 85.192 66.7581 83.5747 67.9123C82.2499 68.8528 80.6902 69.3233 78.8976 69.3233C76.4817 69.3233 74.7276 68.7246 73.6365 67.5277C72.5451 66.3306 72 64.4599 72 61.9164V51.5279C72 49.326 72.4383 47.6262 73.3202 46.4291C74.4547 44.8903 76.3255 44.121 78.927 44.121C81.1973 44.121 82.9412 44.6926 84.1639 45.8363C85.3866 46.98 86 48.7276 86 51.0789V53.0988H80.7979V51.5279C80.7979 49.4757 80.2329 48.4495 79.1024 48.4495C78.4692 48.4495 78.016 48.5778 77.7388 48.8338C77.344 49.1977 77.1444 49.8388 77.1444 50.7579V62.9104C77.1444 63.5515 77.2806 64.0592 77.5535 64.4336C77.8263 64.8074 78.2748 64.9944 78.8976 64.9944C80.1643 64.9944 80.7979 64.2039 80.7979 62.6216L80.8562 61.5957V59.3512ZM76.7936 41.8765L79.6869 37.3233H85.007L79.8915 41.8765" fill="#BCBDBD"/>
<path fill-rule="evenodd" clip-rule="evenodd" d="M89 69.3233V44.3233H94.301V54.3297L98.2467 44.3233H103.699L98.8791 55.3606L104 69.3233H98.3974L95.4759 60.6134L94.301 63.1398V69.3233" fill="#BCBDBD"/>
<path fill-rule="evenodd" clip-rule="evenodd" d="M106 61.9122V51.4162C106 48.85 106.731 46.9738 108.192 45.7863C109.38 44.811 111.008 44.3233 113.073 44.3233C115.08 44.3233 116.688 44.8423 117.896 45.8816C119.299 47.0904 120 48.9349 120 51.4162V61.9122C120 64.4145 119.484 66.2484 118.451 67.4146C117.322 68.6873 115.47 69.3233 112.897 69.3233C110.423 69.3233 108.621 68.6234 107.491 67.224C106.497 65.9939 106 64.2234 106 61.9122ZM111.144 50.9069V61.9759C111.144 62.8453 111.3 63.5712 111.612 64.1544C111.924 64.7374 112.391 65.0292 113.015 65.0292C113.678 65.0292 114.14 64.7537 114.403 64.2021C114.667 63.6511 114.797 62.824 114.797 61.7211V50.9069C114.797 50.0801 114.623 49.4915 114.277 49.1418C113.931 48.7923 113.482 48.6171 112.927 48.6171C112.43 48.6171 112.031 48.7867 111.724 49.1258C111.417 49.4655 111.222 50.0591 111.144 50.9069Z" fill="#BCBDBD"/>
<path fill-rule="evenodd" clip-rule="evenodd" d="M125.628 69.3233L122 44.3233H126.934L128.444 61.8898L128.502 61.8235L130.62 44.3233H135.555L137.47 61.8898L137.528 61.8235L139.182 44.3233H144L140.372 69.3233H134.626L133.058 51.7567L131.288 69.3233" fill="#BCBDBD"/>
<path fill-rule="evenodd" clip-rule="evenodd" d="M147 69.3233V44.3233H152V69.3233" fill="#BCBDBD"/>
<path fill-rule="evenodd" clip-rule="evenodd" d="M191.856 18H136.979H131.835V23.1441V41.3425H136.979V23.1441H191.856V72.2142H32V77.3584H194.428L197 77.3584V18H194.427H191.856Z" fill="#BCBDBD"/>
<path fill-rule="evenodd" clip-rule="evenodd" d="M154 69.3233L158.564 44.3233H164.492L169 69.3233H164.046L163.406 64.4899H159.538L158.954 69.3233H154ZM160.095 60.0896H162.905L161.486 48.8896" fill="#BCBDBD"/>
<path fill-rule="evenodd" clip-rule="evenodd" d="M172 69.3233V44.3233H177.301V54.3297L181.247 44.3233H186.699L181.879 55.3606L187 69.3233H181.398L178.476 60.6134L177.301 63.1398V69.3233" fill="#BCBDBD"/>
</svg>
