<?xml version="1.0" encoding="UTF-8" standalone="no"?><!DOCTYPE svg PUBLIC "-//W3C//DTD SVG 1.1//EN" "http://www.w3.org/Graphics/SVG/1.1/DTD/svg11.dtd"><svg width="100%" height="100%" viewBox="0 0 216 52" version="1.1" xmlns="http://www.w3.org/2000/svg" xmlns:xlink="http://www.w3.org/1999/xlink" xml:space="preserve" xmlns:serif="http://www.serif.com/" style="fill-rule:evenodd;clip-rule:evenodd;stroke-linejoin:round;stroke-miterlimit:2;"><path d="M25.208,28.624c-5.815,-0 -10.203,-3.796 -10.203,-10.029c-0,-6.198 4.423,-9.994 10.238,-9.994c5.815,-0 10.238,3.796 10.238,9.994c-0,6.233 -4.458,10.029 -10.273,10.029m-0,-5.92c1.741,-0 3.343,-1.288 3.343,-4.109c-0,-2.786 -1.567,-4.074 -3.308,-4.074c-1.741,-0 -3.273,1.288 -3.273,4.074c-0,2.821 1.462,4.109 3.238,4.109" style="fill:#1d1d1b;fill-rule:nonzero;"/><path d="M45.473,8.601c2.751,0 4.736,1.219 5.745,2.96l0,-2.716l6.825,0l0,19.326c0,5.223 -2.855,9.82 -9.889,9.82c-6.094,0 -9.855,-3.065 -10.342,-7.905l6.721,0c0.278,1.254 1.462,1.985 3.203,1.985c1.915,0 3.482,-0.871 3.482,-3.9l0,-2.507c-1.009,1.741 -2.994,2.96 -5.745,2.96c-4.631,0 -8.322,-3.796 -8.322,-10.029c0,-6.233 3.691,-9.994 8.322,-9.994m2.194,5.954c-1.95,0 -3.552,1.394 -3.552,4.04c0,2.612 1.602,4.074 3.552,4.074c1.915,0 3.551,-1.428 3.551,-4.074c0,-2.612 -1.636,-4.04 -3.551,-4.04" style="fill:#1d1d1b;fill-rule:nonzero;"/><path d="M69.151,8.601c2.786,0 4.736,1.219 5.746,2.96l0,-2.716l6.825,0l0,19.535l-6.825,0l0,-2.716c-1.01,1.741 -2.995,2.96 -5.746,2.96c-4.632,0 -8.322,-3.796 -8.322,-10.029c0,-6.233 3.69,-9.994 8.322,-9.994m2.194,5.954c-1.95,0 -3.552,1.394 -3.552,4.04c0,2.612 1.602,4.074 3.552,4.074c1.915,0 3.552,-1.428 3.552,-4.074c0,-2.612 -1.637,-4.04 -3.552,-4.04" style="fill:#1d1d1b;fill-rule:nonzero;"/><path d="M92.446,28.38l-6.825,-0l-0,-19.535l6.825,-0l-0,3.447c1.463,-2.124 3.691,-3.621 6.303,-3.621l-0,7.278l-1.915,-0c-2.821,-0 -4.388,0.905 -4.388,3.9l-0,8.531Z" style="fill:#1d1d1b;fill-rule:nonzero;"/><path d="M114.487,17.898c0,-2.263 -1.253,-3.586 -3.204,-3.586c-2.019,0 -3.273,1.323 -3.273,3.586l0,10.481l-6.825,0l0,-19.534l6.825,0l0,2.785c1.149,-1.671 3.204,-2.96 5.955,-2.96c4.527,0 7.347,3.204 7.347,8.323l0,11.386l-6.825,0l0,-10.481Z" style="fill:#1d1d1b;fill-rule:nonzero;"/><path d="M124.515,3.552c0,-1.985 1.567,-3.552 4.005,-3.552c2.402,-0 3.969,1.567 3.969,3.552c0,1.95 -1.567,3.482 -3.969,3.482c-2.438,-0 -4.005,-1.532 -4.005,-3.482m0.557,5.293l6.825,-0l0,19.535l-6.825,-0l0,-19.535Z" style="fill:#1d1d1b;fill-rule:nonzero;"/><path d="M144.607,28.624c-5.78,-0 -9.924,-3.796 -9.924,-10.029c0,-6.198 4.074,-9.994 9.924,-9.994c5.78,-0 9.855,3.726 9.855,9.785c0,0.523 -0.035,1.08 -0.105,1.602l-12.919,-0c0.139,2.263 1.358,3.169 2.89,3.169c1.323,-0 2.055,-0.731 2.438,-1.532l7.278,-0c-0.906,4.004 -4.562,6.999 -9.437,6.999m-3.134,-11.944l6.024,-0c0,-1.741 -1.358,-2.681 -2.925,-2.681c-1.637,-0 -2.786,0.905 -3.099,2.681" style="fill:#1d1d1b;fill-rule:nonzero;"/><path d="M183.851,17.898c-0,-2.124 -1.288,-3.308 -3.238,-3.308c-1.985,0 -3.239,1.184 -3.239,3.308l-0,10.481l-6.825,0l-0,-10.481c-0,-2.124 -1.253,-3.308 -3.203,-3.308c-2.02,0 -3.274,1.184 -3.274,3.308l-0,10.481l-6.825,0l-0,-19.534l6.825,0l-0,2.576c1.114,-1.567 3.03,-2.751 5.676,-2.751c2.925,0 5.224,1.324 6.512,3.587c1.323,-1.985 3.621,-3.587 6.512,-3.587c4.944,0 7.904,3.204 7.904,8.323l-0,11.386l-6.825,0l-0,-10.481Z" style="fill:#1d1d1b;fill-rule:nonzero;"/><path d="M207.946,8.845l7.487,-0l-12.397,28.832l-7.417,-0l4.666,-10.133l-8.009,-18.699l7.591,-0l4.109,11.073l3.97,-11.073Z" style="fill:#1d1d1b;fill-rule:nonzero;"/><path d="M8.267,27.691l0,4.791l3.593,0l0,3.536l-3.593,0l0,7.725c0,1.688 0.967,2.617 2.723,2.617l0.905,0l0,3.678l-1.891,0c-4.476,0 -6.471,-1.974 -6.471,-6.4l0,-7.62l-2.431,0l0,-3.536l2.431,0l0,-4.791l4.734,0Zm1.103,-1.103l-6.94,0l0,4.791l-2.43,0l0,5.742l2.43,0l0,6.517c0,5.671 3.206,7.503 7.574,7.503l2.994,0l0,-5.883l-2.008,0c-1.162,0 -1.62,-0.458 -1.62,-1.515l0,-6.622l3.593,0l0,-5.742l-3.593,0l0,-4.791Z" style="fill:#1d1d1b;fill-rule:nonzero;"/><path d="M25.397,32.235c5.535,0 9.254,3.62 9.254,9.008c-0,5.408 -3.733,9.042 -9.289,9.042c-5.514,0 -9.219,-3.634 -9.219,-9.042c-0,-5.388 3.719,-9.008 9.254,-9.008m-0.035,14.267c2.232,0 4.484,-1.627 4.484,-5.259c-0,-3.609 -2.235,-5.224 -4.449,-5.224c-2.197,0 -4.414,1.615 -4.414,5.224c-0,3.881 2.359,5.259 4.379,5.259m0.035,-15.369c-5.883,0 -10.356,3.839 -10.356,10.11c-0,6.305 4.438,10.145 10.321,10.145c5.882,0 10.391,-3.84 10.391,-10.145c-0,-6.271 -4.473,-10.11 -10.356,-10.11m-0.035,14.266c-1.797,0 -3.276,-1.303 -3.276,-4.156c-0,-2.819 1.55,-4.122 3.311,-4.122c1.761,0 3.346,1.303 3.346,4.122c-0,2.853 -1.62,4.156 -3.381,4.156" style="fill:#1d1d1b;fill-rule:nonzero;"/></svg>