<?xml version="1.0" encoding="UTF-8" standalone="no"?><!DOCTYPE svg PUBLIC "-//W3C//DTD SVG 1.1//EN" "http://www.w3.org/Graphics/SVG/1.1/DTD/svg11.dtd"><svg width="100%" height="100%" viewBox="0 0 958 347" version="1.1" xmlns="http://www.w3.org/2000/svg" xmlns:xlink="http://www.w3.org/1999/xlink" xml:space="preserve" xmlns:serif="http://www.serif.com/" style="fill-rule:evenodd;clip-rule:evenodd;stroke-linejoin:round;stroke-miterlimit:2;"><path d="M216.101,85.447c-13.807,0 -25.04,-11.233 -25.04,-25.041c0,-13.808 11.233,-25.041 25.04,-25.041c13.808,0 25.041,11.233 25.041,25.041c-0,13.808 -11.233,25.041 -25.041,25.041Zm-0,-37.561c-6.903,0 -12.52,5.616 -12.52,12.52c-0,6.903 5.617,12.52 12.52,12.52c6.904,-0 12.521,-5.617 12.521,-12.52c-0,-6.904 -5.617,-12.52 -12.521,-12.52Z" style="fill:#353435;fill-rule:nonzero;"/><path d="M292.977,127.453l-0,-127.453l-292.977,0l0,234.055l1.321,1.827c7.169,8.62 16.09,15.26 26.095,19.575c4.921,8.893 16.679,16.522 24.132,19.756c1.392,0.602 2.898,1.255 4.528,1.928l90.405,69.554l88.716,-68.015c0.917,-0.601 1.779,-1.268 2.593,-1.988l41.976,-32.126c0.036,-0.021 0.07,-0.043 0.107,-0.064l14.713,-11.261c13.709,-13.606 21.757,-32.441 21.757,-52.372c-0,-21.084 -9.004,-40.1 -23.366,-53.416Zm-12.521,-114.932l-0,105.591c-10.487,-6.203 -22.654,-9.852 -35.641,-10.086l0,-0.016c-0.274,0 -0.545,0.004 -0.817,0.006c-0.172,-0.001 -0.342,-0.006 -0.514,-0.006l-0,0.01c-18.134,0.222 -33.387,4.985 -49.273,15.366c-4.789,3.129 -9.562,6.729 -14.471,10.792l-45.911,-52.832l-30.656,23.504l-36.448,-42.038l-54.205,41.558l0,-91.849l267.936,-0Zm-129.11,147.89l-39.956,-46.084l20.713,-15.879l38.188,43.946c-5.918,5.362 -12.156,11.362 -18.945,18.017Zm-138.826,-40.264l52.468,-40.226l77.439,89.316c-2.228,2.244 -4.476,4.538 -6.81,6.924c-23.482,24.003 -50.098,51.21 -85.62,51.21c-13.895,0 -27.039,-4.883 -37.477,-13.834l0,-93.39Zm220.344,141.072c-0.353,2.232 -1.436,4.263 -3.032,5.797l-83.337,63.893l-60.024,-46.18c2.47,0.22 5.061,0.368 7.784,0.422c0.758,0.015 1.521,0.022 2.289,0.022c23.656,0 51.631,-7.09 83.2,-21.09c2.244,-0.996 4.592,-2.084 7.078,-3.235c11.846,-5.486 28.07,-13.005 37.421,-11.388l0.086,0.015c2.708,0.428 5.088,1.886 6.7,4.104c1.611,2.218 2.263,4.932 1.835,7.64Zm38.706,-26.202l-26.46,20.287c-0.623,-3.242 -1.954,-6.336 -3.953,-9.085c-3.561,-4.901 -8.811,-8.128 -14.787,-9.096l0.001,-0.001c-0.014,-0.003 -0.027,-0.005 -0.041,-0.007c-0.015,-0.002 -0.03,-0.005 -0.044,-0.008l-0.001,0.002c-13.185,-2.228 -29.939,5.53 -44.725,12.378c-2.438,1.129 -4.741,2.197 -6.893,3.15c-71.054,31.515 -101.682,18.226 -118.136,11.089c-1.648,-0.715 -3.311,-1.574 -4.932,-2.524c3.881,0.328 7.844,0.497 11.879,0.497c15.641,0 32.314,-2.454 48.997,-7.258c19.459,-5.603 38.928,-14.457 54.82,-24.932c3.202,-2.11 6.426,-4.281 9.839,-6.579c24.22,-16.31 51.665,-34.79 76.458,-34.79l0.154,0c14.682,0 26.627,11.945 26.627,26.627c-0,7.684 -3.327,15.219 -8.803,20.25Zm21.307,-19.141c0.01,-0.369 0.016,-0.739 0.016,-1.109c0,-21.581 -17.552,-39.138 -39.13,-39.146l0,-0.001l-0.171,0c-28.615,0 -57.745,19.615 -83.452,36.924c-3.386,2.281 -6.585,4.435 -9.735,6.511c-14.866,9.798 -33.117,18.092 -51.395,23.355c-20.531,5.912 -40.923,8.002 -58.999,6.063l0.004,-0.042c-12.917,-1.187 -24.792,-6.55 -34.103,-15.285l0.015,-0.013l-3.328,-4.006c11.092,7.01 23.956,10.764 37.398,10.764c18.335,0 35.949,-6.015 53.85,-18.39c15.227,-10.526 28.77,-24.369 40.72,-36.584c3.578,-3.658 6.959,-7.114 10.324,-10.433c36.73,-36.227 55.982,-53.742 89.344,-53.944c32.926,0.404 59.588,27.31 59.588,60.329c-0,12.734 -3.952,24.923 -10.946,35.007Z" style="fill:#353435;fill-rule:nonzero;"/><path d="M442.102,45.161c7.361,6.136 11.042,14.581 11.042,25.339c0,10.759 -3.681,19.206 -11.042,25.34c-7.361,6.136 -17.46,9.201 -30.294,9.201l-24.49,0l-0,30.011l-14.156,0l-0,-99.092l38.646,0c12.834,0 22.933,3.067 30.294,9.201Zm-10.192,41.831c4.718,-3.822 7.078,-9.319 7.078,-16.492c0,-7.171 -2.36,-12.669 -7.078,-16.491c-4.72,-3.822 -11.562,-5.733 -20.526,-5.733l-24.066,0l-0,44.449l24.066,0c8.964,0 15.806,-1.91 20.526,-5.733Z" style="fill:#353435;fill-rule:nonzero;"/><rect x="473.244" y="35.959" width="14.156" height="99.092" style="fill:#353435;fill-rule:nonzero;"/><path d="M533.902,129.601c-7.976,-4.388 -14.226,-10.427 -18.756,-18.119c-4.53,-7.691 -6.795,-16.35 -6.795,-25.977c0,-9.625 2.265,-18.282 6.795,-25.976c4.53,-7.691 10.805,-13.73 18.827,-18.119c8.02,-4.388 16.987,-6.582 26.897,-6.582c7.737,0 14.814,1.297 21.234,3.892c6.416,2.596 11.891,6.441 16.421,11.537l-9.201,8.919c-7.457,-7.832 -16.753,-11.75 -27.888,-11.75c-7.361,-0 -14.014,1.653 -19.96,4.955c-5.946,3.305 -10.595,7.856 -13.944,13.66c-3.351,5.804 -5.025,12.293 -5.025,19.464c0,7.173 1.674,13.661 5.025,19.465c3.349,5.804 7.998,10.358 13.944,13.661c5.946,3.304 12.599,4.954 19.96,4.954c11.041,0 20.336,-3.964 27.888,-11.891l9.201,8.918c-4.53,5.096 -10.029,8.968 -16.492,11.608c-6.466,2.644 -13.567,3.963 -21.305,3.963c-9.909,0 -18.852,-2.193 -26.826,-6.582Z" style="fill:#353435;fill-rule:nonzero;"/><path d="M650.335,91.027l-18.12,18.402l0,25.622l-14.156,0l0,-99.092l14.156,0l0,55.35l53.792,-55.35l16.139,0l-42.327,44.593l45.016,54.499l-16.562,0l-37.938,-44.024Z" style="fill:#353435;fill-rule:nonzero;"/><path d="M442.102,175.282c7.361,6.135 11.042,14.581 11.042,25.339c0,10.759 -3.681,19.206 -11.042,25.339c-7.361,6.136 -17.46,9.202 -30.294,9.202l-24.49,0l-0,30.011l-14.156,0l-0,-99.092l38.646,0c12.834,0 22.933,3.067 30.294,9.201Zm-10.192,41.831c4.718,-3.822 7.078,-9.319 7.078,-16.492c0,-7.171 -2.36,-12.669 -7.078,-16.491c-4.72,-3.822 -11.562,-5.733 -20.526,-5.733l-24.066,0l-0,44.449l24.066,0c8.964,0 15.806,-1.91 20.526,-5.733Z" style="fill:#353435;fill-rule:nonzero;"/><path d="M492.354,259.723c-8.023,-4.389 -14.322,-10.452 -18.899,-18.19c-4.578,-7.738 -6.865,-16.373 -6.865,-25.907c-0,-9.53 2.287,-18.166 6.865,-25.905c4.577,-7.737 10.876,-13.802 18.899,-18.19c8.02,-4.389 17.034,-6.583 27.038,-6.583c9.909,0 18.873,2.194 26.897,6.583c8.02,4.388 14.296,10.428 18.827,18.119c4.529,7.694 6.794,16.351 6.794,25.976c-0,9.627 -2.265,18.286 -6.794,25.977c-4.531,7.692 -10.807,13.731 -18.827,18.12c-8.024,4.388 -16.988,6.582 -26.897,6.582c-10.004,0 -19.018,-2.194 -27.038,-6.582Zm46.645,-10.971c5.803,-3.303 10.379,-7.857 13.73,-13.66c3.349,-5.805 5.025,-12.293 5.025,-19.466c0,-7.171 -1.676,-13.66 -5.025,-19.464c-3.351,-5.804 -7.927,-10.355 -13.73,-13.661c-5.805,-3.302 -12.341,-4.954 -19.607,-4.954c-7.268,0 -13.85,1.652 -19.748,4.954c-5.899,3.306 -10.523,7.857 -13.872,13.661c-3.352,5.804 -5.026,12.293 -5.026,19.464c0,7.173 1.674,13.661 5.026,19.466c3.349,5.803 7.973,10.357 13.872,13.66c5.898,3.304 12.48,4.954 19.748,4.954c7.266,0 13.802,-1.65 19.607,-4.954Z" style="fill:#353435;fill-rule:nonzero;"/><path d="M610.344,259.723c-7.976,-4.389 -14.226,-10.428 -18.757,-18.12c-4.529,-7.691 -6.794,-16.35 -6.794,-25.977c0,-9.625 2.265,-18.282 6.794,-25.976c4.531,-7.691 10.806,-13.731 18.828,-18.119c8.02,-4.389 16.987,-6.583 26.896,-6.583c7.738,0 14.815,1.298 21.234,3.893c6.417,2.596 11.892,6.441 16.422,11.537l-9.202,8.918c-7.456,-7.831 -16.752,-11.749 -27.887,-11.749c-7.361,0 -14.014,1.652 -19.96,4.954c-5.946,3.306 -10.595,7.857 -13.944,13.661c-3.351,5.804 -5.026,12.293 -5.026,19.464c-0,7.173 1.675,13.661 5.026,19.466c3.349,5.803 7.998,10.357 13.944,13.66c5.946,3.304 12.599,4.954 19.96,4.954c11.041,0 20.335,-3.963 27.887,-11.891l9.202,8.918c-4.53,5.096 -10.029,8.968 -16.492,11.609c-6.465,2.642 -13.568,3.963 -21.305,3.963c-9.91,0 -18.852,-2.194 -26.826,-6.582Z" style="fill:#353435;fill-rule:nonzero;"/><path d="M726.776,221.148l-18.119,18.402l-0,25.623l-14.156,0l-0,-99.093l14.156,0l-0,55.35l53.792,-55.35l16.139,0l-42.328,44.592l45.017,54.501l-16.563,0l-37.938,-44.025Z" style="fill:#353435;fill-rule:nonzero;"/><path d="M867.486,252.857l0,12.316l-71.912,0l-0,-99.093l69.931,0l0,12.317l-55.775,0l-0,30.435l49.687,0l-0,12.032l-49.687,0l-0,31.993l57.756,0Z" style="fill:#353435;fill-rule:nonzero;"/><path d="M875.413,166.081l0,12.316l33.975,0l0,86.775l14.014,0l-0,-86.775l33.975,0l0,-12.316l-81.964,0Z" style="fill:#353435;fill-rule:nonzero;"/></svg>