<svg width="227" height="96" viewBox="0 0 227 96" fill="none" xmlns="http://www.w3.org/2000/svg">
<path d="M39.3852 23.058C39.3852 22.6616 39.2931 22.3165 39.1092 22.0225C38.9252 21.7287 38.6151 21.5817 38.1789 21.5817C37.9471 21.5817 37.7495 21.6228 37.5859 21.7048C37.4224 21.7868 37.2452 21.903 37.0544 22.0533L36.625 21.5408C36.9385 21.281 37.2895 21.0247 37.6779 20.7719C38.0665 20.5189 38.4856 20.2968 38.9353 20.1054C39.3852 19.9141 39.869 19.7569 40.387 19.6339C40.905 19.5109 41.4502 19.4494 42.0227 19.4494C42.636 19.4494 43.1609 19.545 43.5971 19.7364C44.0332 19.9278 44.3978 20.1567 44.6908 20.4233C44.9839 20.6899 45.2054 20.9701 45.3554 21.264C45.5053 21.5578 45.5939 21.8072 45.6211 22.0123C45.8937 21.6296 46.2175 21.281 46.5923 20.9666C46.9672 20.6522 47.376 20.3823 47.8191 20.1567C48.2621 19.9312 48.7323 19.7569 49.2298 19.6339C49.7273 19.5109 50.2419 19.4494 50.7735 19.4494C51.8639 19.4494 52.8521 19.6749 53.7382 20.126C54.6241 20.5771 55.384 21.2468 56.0179 22.1353C56.6517 23.0238 57.139 24.1242 57.4797 25.4364C57.8205 26.7486 57.9909 28.2659 57.9909 29.9882C57.9909 31.9839 57.783 33.6823 57.3673 35.0834C56.9515 36.4844 56.4063 37.6292 55.7316 38.5177C55.0569 39.4062 54.2868 40.0521 53.4212 40.4553C52.5557 40.8585 51.6731 41.0601 50.7735 41.0601C50.0238 41.0601 49.3661 40.985 48.8004 40.8346C48.2348 40.6843 47.7475 40.4997 47.3386 40.281C46.9297 40.0623 46.5889 39.8402 46.3163 39.6147C46.0437 39.3891 45.8256 39.2012 45.6621 39.0508V49.0565C45.6621 49.2342 45.6348 49.4461 45.5803 49.6921C45.5257 49.9381 45.3928 50.174 45.1815 50.3995C44.9703 50.625 44.6568 50.8199 44.2411 50.9838C43.8253 51.1478 43.2563 51.2299 42.5339 51.2299C41.8114 51.2299 41.2424 51.1444 40.8266 50.9736C40.4109 50.8028 40.094 50.5977 39.8759 50.3585C39.6578 50.1193 39.5215 49.8801 39.467 49.6409C39.4125 49.4017 39.3852 49.2069 39.3852 49.0565V23.058ZM45.6621 36.1187C45.6621 36.2281 45.7098 36.4195 45.8052 36.6928C45.9006 36.9662 46.0505 37.2464 46.255 37.5335C46.4594 37.8205 46.7219 38.0769 47.0421 38.3024C47.3625 38.5279 47.7543 38.6407 48.2178 38.6407C48.8175 38.6407 49.3287 38.4118 49.7512 37.9538C50.1738 37.4959 50.5213 36.874 50.7939 36.088C51.0665 35.3021 51.2642 34.3862 51.3869 33.3405C51.5095 32.2948 51.5709 31.1774 51.5709 29.9882C51.5709 28.5256 51.4925 27.2886 51.3358 26.277C51.179 25.2655 50.9507 24.4489 50.6508 23.8269C50.3509 23.2049 49.9931 22.7539 49.5774 22.4737C49.1617 22.1934 48.6949 22.0533 48.1769 22.0533C47.877 22.0533 47.5772 22.1387 47.2773 22.3096C46.9774 22.4805 46.7082 22.6924 46.4696 22.9452C46.2311 23.1981 46.0369 23.4817 45.8869 23.7961C45.737 24.1105 45.6621 24.4112 45.6621 24.6983V36.1187Z" fill="#BCBDBD"/>
<path d="M71.0097 38.8867C71.0097 39.0645 70.979 39.2797 70.9177 39.5326C70.8563 39.7855 70.7132 40.0247 70.4883 40.2502C70.2635 40.4758 69.9397 40.6671 69.5172 40.8244C69.0946 40.9815 68.5221 41.0601 67.7997 41.0601C67.0773 41.0601 66.5116 40.9747 66.1027 40.8038C65.6938 40.633 65.3871 40.4313 65.1826 40.199C64.9782 39.9666 64.8521 39.7274 64.8044 39.4814C64.7567 39.2353 64.7329 39.0371 64.7329 38.8867V23.058C64.7329 22.6615 64.6409 22.3164 64.4568 22.0225C64.2728 21.7287 63.9627 21.5817 63.5266 21.5817C63.2948 21.5817 63.0972 21.6228 62.9336 21.7048C62.77 21.7868 62.5929 21.903 62.402 22.0533L61.9727 21.5407C62.2862 21.281 62.6371 21.0247 63.0257 20.7719C63.4141 20.5189 63.8332 20.2968 64.283 20.1054C64.7329 19.9141 65.2168 19.7569 65.7347 19.6339C66.2526 19.5109 66.7979 19.4494 67.3703 19.4494C68.2563 19.4494 68.9447 19.569 69.4354 19.8082C69.926 20.0474 70.2873 20.3413 70.519 20.6898C70.7508 21.0384 70.8905 21.4109 70.9381 21.8072C70.9858 22.2037 71.0097 22.5523 71.0097 22.8529V38.8867ZM64.099 14.7745C64.099 14.3918 64.1842 14.0262 64.3546 13.6776C64.525 13.3291 64.7635 13.0249 65.0702 12.7652C65.3769 12.5055 65.7313 12.3004 66.1334 12.1501C66.5355 11.9997 66.9751 11.9246 67.4521 11.9246C67.9156 11.9246 68.3484 11.9997 68.7505 12.1501C69.1525 12.3004 69.5035 12.5055 69.8034 12.7652C70.1033 13.0249 70.3384 13.3291 70.5088 13.6776C70.6792 14.0262 70.7644 14.3918 70.7644 14.7745C70.7644 15.171 70.6792 15.54 70.5088 15.8818C70.3384 16.2235 70.1033 16.5208 69.8034 16.7736C69.5035 17.0265 69.1525 17.2282 68.7505 17.3785C68.3484 17.5289 67.9156 17.604 67.4521 17.604C66.9751 17.604 66.5355 17.5289 66.1334 17.3785C65.7313 17.2282 65.3769 17.0265 65.0702 16.7736C64.7635 16.5208 64.525 16.2235 64.3546 15.8818C64.1842 15.54 64.099 15.171 64.099 14.7745Z" fill="#BCBDBD"/>
<path d="M103.676 25.949C103.676 25.0468 103.615 24.3019 103.493 23.7141C103.369 23.1263 103.237 22.6377 103.094 22.2481C102.951 21.8585 102.818 21.5373 102.695 21.2844C102.572 21.0315 102.511 20.7958 102.511 20.5771C102.511 20.372 102.593 20.2012 102.756 20.0645C102.92 19.9278 103.114 19.8116 103.339 19.7159C103.564 19.6202 103.795 19.5519 104.034 19.5109C104.273 19.4698 104.467 19.4494 104.617 19.4494C105.012 19.4494 105.298 19.5041 105.475 19.6134C105.653 19.7228 105.796 19.9346 105.905 20.249C106.028 20.6454 106.113 21.1682 106.16 21.8175C106.209 22.4668 106.232 23.1605 106.232 23.8987C106.232 24.9512 106.171 26.1062 106.048 27.3638C105.926 28.6213 105.731 29.8856 105.466 31.1569C105.2 32.4281 104.859 33.6584 104.443 34.8475C104.028 36.0367 103.527 37.0927 102.94 38.0153C102.354 38.938 101.679 39.6762 100.916 40.2297C100.153 40.7833 99.2874 41.0601 98.3194 41.0601C97.5561 41.0601 96.8718 40.9064 96.2649 40.5988C95.6581 40.2912 95.1168 39.8709 94.6395 39.3379C94.1622 38.8047 93.7434 38.1793 93.3823 37.4617C93.0207 36.7441 92.7039 35.9752 92.4312 35.1551C92.1177 35.9889 91.7565 36.7646 91.3476 37.4823C90.9387 38.1999 90.4855 38.8253 89.988 39.3583C89.4904 39.8915 88.9418 40.3083 88.3421 40.6091C87.7424 40.9098 87.0949 41.0601 86.3997 41.0601C85.541 41.0601 84.7811 40.8721 84.12 40.4963C83.4589 40.1204 82.8762 39.6078 82.3719 38.9585C81.8676 38.3092 81.4314 37.554 81.0634 36.6928C80.6953 35.8317 80.3784 34.9227 80.1126 33.9659C79.8468 33.009 79.6253 32.0249 79.4482 31.0134C79.2709 30.0019 79.121 29.0245 78.9983 28.0814C78.8757 27.1382 78.7734 26.2565 78.6916 25.4364C78.6098 24.6163 78.5281 23.9055 78.4463 23.304C78.3509 22.7573 78.2112 22.3336 78.0272 22.0328C77.8431 21.7321 77.5331 21.5817 77.0969 21.5817C76.8652 21.5817 76.6675 21.6228 76.5039 21.7048C76.3403 21.7868 76.1632 21.903 75.9724 22.0533L75.543 21.5408C75.8565 21.281 76.2075 21.0247 76.596 20.7719C76.9844 20.5189 77.4035 20.2968 77.8534 20.1054C78.3032 19.9141 78.7871 19.7569 79.3051 19.6339C79.823 19.5109 80.3682 19.4494 80.9407 19.4494C81.7585 19.4494 82.4196 19.5895 82.9239 19.8697C83.4282 20.1499 83.827 20.4985 84.12 20.9154C84.4131 21.3323 84.621 21.7799 84.7436 22.2584C84.8663 22.7368 84.9549 23.1674 85.0094 23.5501C85.2548 25.6141 85.4967 27.4321 85.7352 29.004C85.9738 30.576 86.2293 31.8916 86.5019 32.951C86.7745 34.0103 87.071 34.81 87.3914 35.3499C87.7117 35.8898 88.0899 36.1598 88.5261 36.1598C88.8123 36.1598 89.0918 36.0367 89.3644 35.7907C89.637 35.5446 89.8959 35.2029 90.1413 34.7655C90.3866 34.3281 90.6184 33.7985 90.8365 33.1765C91.0546 32.5546 91.2454 31.8677 91.4089 31.1159C91.2727 30.3641 91.1568 29.6192 91.0614 28.881C90.9659 28.1429 90.8807 27.4355 90.8058 26.7589C90.7308 26.0823 90.6593 25.4501 90.5911 24.8623C90.5229 24.2745 90.448 23.7551 90.3662 23.304C90.1617 22.0191 90.281 21.0555 90.724 20.4131C91.167 19.7706 92.0564 19.4494 93.3926 19.4494C93.9781 19.4494 94.4728 19.5006 94.8742 19.6031C95.2764 19.7057 95.6106 19.897 95.8761 20.1772C96.1424 20.4574 96.3566 20.8402 96.5201 21.3255C96.6837 21.8107 96.8133 22.4292 96.9089 23.181C97.1681 25.2314 97.4202 27.063 97.6651 28.6759C97.9109 30.2889 98.1693 31.649 98.4427 32.7562C98.7153 33.8634 99.0116 34.7074 99.3316 35.2884C99.6517 35.8693 100.03 36.1598 100.466 36.1598C100.93 36.1598 101.359 35.8727 101.754 35.2987C102.15 34.7246 102.491 33.9659 102.777 33.0228C103.063 32.0795 103.284 30.9929 103.441 29.7627C103.598 28.5324 103.676 27.2612 103.676 25.949Z" fill="#BCBDBD"/>
<path d="M124.851 30.5213C124.851 28.799 124.773 27.4219 124.616 26.3898C124.459 25.3578 124.251 24.5718 123.993 24.0319C123.733 23.492 123.447 23.1366 123.134 22.9658C122.82 22.7948 122.5 22.7094 122.173 22.7094C121.778 22.7094 121.426 22.8154 121.119 23.0273C120.813 23.2391 120.547 23.4817 120.322 23.7551C120.098 24.0285 119.907 24.3019 119.75 24.5752C119.593 24.8486 119.46 25.0537 119.351 25.1904V38.8867C119.351 39.0645 119.324 39.2797 119.27 39.5326C119.215 39.7855 119.082 40.0247 118.871 40.2503C118.66 40.4758 118.346 40.6671 117.93 40.8244C117.515 40.9815 116.946 41.0601 116.223 41.0601C115.5 41.0601 114.932 40.9747 114.516 40.8038C114.1 40.633 113.783 40.4313 113.565 40.199C113.347 39.9666 113.21 39.7274 113.156 39.4814C113.101 39.2353 113.075 39.0371 113.075 38.8867V23.058C113.075 22.6616 112.982 22.3165 112.798 22.0225C112.614 21.7287 112.304 21.5817 111.868 21.5817C111.636 21.5817 111.439 21.6228 111.275 21.7048C111.112 21.7868 110.934 21.903 110.744 22.0533L110.314 21.5408C110.627 21.281 110.979 21.0247 111.367 20.7719C111.756 20.5189 112.175 20.2968 112.624 20.1054C113.075 19.9141 113.558 19.7569 114.077 19.6339C114.594 19.5109 115.139 19.4494 115.711 19.4494C116.598 19.4494 117.286 19.5963 117.777 19.8902C118.268 20.1841 118.629 20.536 118.86 20.9461C119.092 21.3562 119.232 21.7834 119.28 22.2276C119.327 22.6719 119.351 23.0443 119.351 23.345C119.855 22.6206 120.428 21.9713 121.069 21.3972C121.327 21.1512 121.617 20.912 121.937 20.6796C122.258 20.4472 122.599 20.2387 122.96 20.0543C123.321 19.8697 123.703 19.7228 124.105 19.6134C124.507 19.5041 124.919 19.4494 125.341 19.4494C126.268 19.4494 127.09 19.6271 127.805 19.9825C128.521 20.3379 129.124 20.9325 129.615 21.7663C130.105 22.6001 130.481 23.7038 130.739 25.0776C130.998 26.4513 131.128 28.1566 131.128 30.1933C131.128 32.1753 130.951 33.8976 130.596 35.3602C130.242 36.8227 129.778 38.0666 129.206 39.0918C128.633 40.117 127.986 40.9542 127.264 41.6035C126.541 42.2528 125.812 42.7619 125.076 43.131C124.34 43.5 123.635 43.7563 122.96 43.8999C122.285 44.0434 121.703 44.122 121.212 44.1356L120.987 43.2951C121.396 43.1993 121.774 43.049 122.121 42.8439C122.469 42.6389 122.786 42.3382 123.072 41.9418C123.359 41.5454 123.611 41.0431 123.829 40.4347C124.047 39.8265 124.234 39.0645 124.391 38.1486C124.548 37.2328 124.663 36.1495 124.739 34.8988C124.814 33.6481 124.851 32.1889 124.851 30.5213Z" fill="#BCBDBD"/>
<path d="M144.496 38.8867C144.496 39.0645 144.466 39.2797 144.404 39.5326C144.343 39.7855 144.2 40.0247 143.975 40.2502C143.75 40.4758 143.426 40.6671 143.004 40.8244C142.581 40.9815 142.009 41.0601 141.287 41.0601C140.564 41.0601 139.998 40.9747 139.589 40.8038C139.18 40.633 138.873 40.4313 138.669 40.199C138.465 39.9666 138.338 39.7274 138.291 39.4814C138.244 39.2353 138.219 39.0371 138.219 38.8867V23.058C138.219 22.6615 138.127 22.3164 137.943 22.0225C137.759 21.7287 137.449 21.5817 137.013 21.5817C136.781 21.5817 136.583 21.6228 136.42 21.7048C136.256 21.7868 136.079 21.903 135.889 22.0533L135.459 21.5407C135.773 21.281 136.124 21.0247 136.512 20.7719C136.9 20.5189 137.32 20.2968 137.769 20.1054C138.219 19.9141 138.703 19.7569 139.221 19.6339C139.739 19.5109 140.285 19.4494 140.857 19.4494C141.743 19.4494 142.432 19.569 142.922 19.8082C143.412 20.0474 143.774 20.3413 144.006 20.6898C144.237 21.0384 144.377 21.4109 144.424 21.8072C144.473 22.2037 144.496 22.5523 144.496 22.8529V38.8867ZM137.585 14.7745C137.585 14.3918 137.671 14.0262 137.841 13.6776C138.011 13.3291 138.25 13.0249 138.557 12.7652C138.863 12.5055 139.218 12.3004 139.62 12.1501C140.022 11.9997 140.462 11.9246 140.939 11.9246C141.402 11.9246 141.835 11.9997 142.237 12.1501C142.639 12.3004 142.99 12.5055 143.29 12.7652C143.59 13.0249 143.825 13.3291 143.995 13.6776C144.166 14.0262 144.251 14.3918 144.251 14.7745C144.251 15.171 144.166 15.54 143.995 15.8818C143.825 16.2235 143.59 16.5208 143.29 16.7736C142.99 17.0265 142.639 17.2282 142.237 17.3785C141.835 17.5289 141.402 17.604 140.939 17.604C140.462 17.604 140.022 17.5289 139.62 17.3785C139.218 17.2282 138.863 17.0265 138.557 16.7736C138.25 16.5208 138.011 16.2235 137.841 15.8818C137.671 15.54 137.585 15.171 137.585 14.7745Z" fill="#BCBDBD"/>
<path d="M165.242 26.5436C164.821 26.5436 164.466 26.4786 164.18 26.3488C163.894 26.219 163.661 26.0447 163.484 25.826C163.307 25.6073 163.178 25.3647 163.096 25.0981C163.014 24.8315 162.973 24.5547 162.973 24.2677C162.973 23.8987 162.998 23.5433 163.045 23.2015C163.092 22.8598 163.1 22.5523 163.066 22.2789C163.032 22.0055 162.926 21.7868 162.749 21.6228C162.571 21.4587 162.258 21.3767 161.808 21.3767C161.331 21.3767 160.827 21.5134 160.295 21.7868C159.763 22.0602 159.28 22.4907 158.844 23.0785C158.407 23.6663 158.045 24.4215 157.759 25.3441C157.473 26.2668 157.33 27.3774 157.33 28.6759C157.33 30.1112 157.463 31.42 157.729 32.6024C157.995 33.7847 158.393 34.7929 158.925 35.6266C159.457 36.4605 160.117 37.1063 160.908 37.5643C161.699 38.0222 162.626 38.2511 163.689 38.2511C164.166 38.2511 164.619 38.1965 165.049 38.0871C165.478 37.9778 165.883 37.8274 166.265 37.6361C166.647 37.4447 167.012 37.2226 167.359 36.9696C167.706 36.7168 168.044 36.4468 168.371 36.1598L168.882 36.6519C168.568 37.0756 168.167 37.5403 167.676 38.0461C167.186 38.5519 166.592 39.0268 165.897 39.4711C165.202 39.9154 164.391 40.2844 163.464 40.5783C162.537 40.8721 161.481 41.0191 160.295 41.0191C159.109 41.0191 157.954 40.7901 156.829 40.3323C155.705 39.8743 154.706 39.208 153.834 38.3332C152.961 37.4583 152.263 36.3955 151.738 35.1449C151.214 33.8941 150.951 32.4692 150.951 30.8698C150.951 29.626 151.108 28.4812 151.421 27.4355C151.735 26.3898 152.161 25.4433 152.699 24.5958C153.238 23.7483 153.865 23.0033 154.581 22.3609C155.296 21.7184 156.049 21.1819 156.84 20.7513C157.63 20.3207 158.438 19.9961 159.262 19.7774C160.087 19.5588 160.881 19.4494 161.644 19.4494C162.653 19.4494 163.533 19.5656 164.282 19.7979C165.032 20.0303 165.655 20.3379 166.153 20.7206C166.651 21.1033 167.022 21.5442 167.267 22.0431C167.512 22.542 167.635 23.058 167.635 23.5911C167.635 23.9875 167.584 24.3668 167.482 24.7291C167.379 25.0913 167.23 25.4056 167.031 25.6722C166.834 25.9388 166.586 26.1506 166.286 26.3078C165.985 26.465 165.638 26.5436 165.242 26.5436Z" fill="#BCBDBD"/>
<path d="M183.454 30.1112C183.454 29.7695 183.345 29.5098 183.127 29.3321C182.909 29.1544 182.629 29.0656 182.289 29.0656C181.812 29.0656 181.358 29.1749 180.929 29.3936C180.5 29.6123 180.121 29.9335 179.794 30.3573C179.467 30.781 179.208 31.3038 179.017 31.9258C178.826 32.5477 178.731 33.2688 178.731 34.0889C178.731 34.8817 178.789 35.5378 178.905 36.0572C179.021 36.5767 179.178 36.9902 179.375 37.2977C179.573 37.6052 179.801 37.8205 180.06 37.9436C180.319 38.0666 180.592 38.1282 180.878 38.1282C181.232 38.1282 181.567 38.0358 181.88 37.8513C182.193 37.6668 182.466 37.431 182.697 37.144C182.93 36.8569 183.113 36.5357 183.25 36.1803C183.386 35.8249 183.454 35.4695 183.454 35.1141V30.1112ZM180.204 21.1307C179.74 21.1307 179.311 21.1854 178.915 21.2947C178.52 21.4041 178.179 21.5408 177.893 21.7048C177.606 21.8688 177.382 22.0499 177.218 22.2481C177.055 22.4463 176.972 22.6342 176.972 22.812C176.972 23.017 177.078 23.1639 177.289 23.2528C177.501 23.3416 177.736 23.4441 177.995 23.5603C178.254 23.6765 178.489 23.8405 178.701 24.0524C178.912 24.2643 179.017 24.589 179.017 25.0264C179.017 25.3134 178.959 25.5765 178.844 25.8157C178.727 26.0549 178.571 26.2668 178.373 26.4513C178.176 26.6359 177.944 26.7794 177.678 26.8819C177.413 26.9844 177.136 27.0357 176.85 27.0357C176.087 27.0357 175.47 26.776 174.999 26.2565C174.529 25.7371 174.295 25.0468 174.295 24.1857C174.295 23.3519 174.513 22.6377 174.949 22.0431C175.385 21.4484 175.954 20.9598 176.656 20.5771C177.358 20.1944 178.151 19.9107 179.038 19.7262C179.924 19.5416 180.81 19.4494 181.695 19.4494C182.759 19.4494 183.774 19.5656 184.742 19.7979C185.71 20.0303 186.565 20.3994 187.308 20.9052C188.051 21.4109 188.644 22.0533 189.087 22.8325C189.53 23.6116 189.751 24.5547 189.751 25.662V37.2464C189.751 37.3695 189.758 37.5062 189.772 37.6565C189.785 37.8069 189.819 37.9436 189.874 38.0666C189.928 38.1896 190.011 38.2921 190.12 38.3741C190.229 38.4561 190.385 38.4972 190.59 38.4972C190.835 38.4972 191.063 38.405 191.275 38.2204C191.486 38.0358 191.673 37.8479 191.837 37.6565L192.348 38.0871C192.143 38.3741 191.898 38.6886 191.612 39.0302C191.325 39.372 190.978 39.6932 190.569 39.9939C190.161 40.2946 189.683 40.5476 189.138 40.7526C188.593 40.9576 187.973 41.0601 187.277 41.0601C186.418 41.0601 185.655 40.8038 184.987 40.2912C184.32 39.7787 183.883 38.9893 183.679 37.9231C183.243 38.5108 182.79 39.0029 182.32 39.3994C181.849 39.7957 181.368 40.117 180.878 40.363C180.387 40.6091 179.893 40.7867 179.396 40.8961C178.898 41.0054 178.397 41.0601 177.893 41.0601C177.239 41.0601 176.605 40.9576 175.991 40.7526C175.378 40.5476 174.829 40.2229 174.345 39.7787C173.862 39.3344 173.473 38.7569 173.18 38.0461C172.887 37.3353 172.74 36.4673 172.74 35.4422C172.74 34.1982 172.986 33.1799 173.477 32.3872C173.967 31.5943 174.611 30.9279 175.409 30.388C176.206 29.8481 177.112 29.3867 178.128 29.004C179.143 28.6213 180.183 28.2181 181.246 27.7943C182.037 27.4799 182.612 27.0118 182.974 26.3898C183.335 25.7679 183.515 25.1288 183.515 24.4727C183.515 23.4613 183.219 22.6513 182.626 22.0431C182.033 21.4348 181.225 21.1307 180.204 21.1307Z" fill="#BCBDBD"/>
<path d="M45.7021 57.874C45.3886 57.874 45.0922 57.915 44.8127 57.997C44.5333 58.079 44.2846 58.2123 44.0665 58.3969C43.8484 58.5814 43.678 58.8138 43.5553 59.094C43.4327 59.3742 43.3713 59.7056 43.3713 60.0884C43.3713 60.6215 43.5655 61.1512 43.9541 61.6774C44.3425 62.2037 44.8263 62.7504 45.4057 63.3178C45.985 63.8852 46.612 64.4732 47.2867 65.0809C47.9614 65.6895 48.5884 66.3322 49.1677 67.0081C49.747 67.6848 50.2309 68.4059 50.6194 69.1714C51.0078 69.9369 51.202 70.757 51.202 71.6319C51.202 72.6161 51.0351 73.4909 50.7011 74.2564C50.3672 75.0218 49.8901 75.6708 49.27 76.2041C48.6497 76.7374 47.9001 77.1439 47.0209 77.4245C46.1417 77.7042 45.1637 77.8444 44.0869 77.8444C43.1464 77.8444 42.2945 77.7113 41.5312 77.4451C40.7679 77.178 40.0898 76.85 39.4968 76.4609C38.9039 76.071 38.3962 75.6574 37.9736 75.2199C37.5511 74.7825 37.2239 74.3863 36.9922 74.0305L37.7079 73.5186C37.885 73.7231 38.1099 73.9457 38.3825 74.1843C38.6551 74.4236 38.9584 74.6462 39.2923 74.8507C39.6264 75.0559 39.9842 75.2231 40.3658 75.3531C40.7475 75.483 41.1359 75.548 41.5312 75.548C42.5126 75.548 43.3168 75.3127 43.9438 74.8404C44.5708 74.3689 44.8843 73.6684 44.8843 72.7389C44.8843 72.2198 44.7139 71.6834 44.3732 71.1295C44.0324 70.5764 43.603 70.005 43.0851 69.4178C42.5671 68.8299 42.0083 68.2213 41.4085 67.5929C40.8088 66.9637 40.2499 66.3147 39.7319 65.6451C39.214 64.9748 38.7846 64.2846 38.4438 63.5738C38.1031 62.863 37.9327 62.1252 37.9327 61.3597C37.9327 60.4985 38.1065 59.7467 38.4541 59.1042C38.8016 58.4618 39.2651 57.9287 39.8444 57.5049C40.4237 57.0812 41.0848 56.7634 41.8277 56.5516C42.5705 56.3397 43.3372 56.2337 44.1278 56.2337C45.041 56.2337 45.8725 56.3157 46.6222 56.4798C47.3718 56.6438 48.0159 56.8933 48.5544 57.2281C49.0927 57.563 49.5084 57.9834 49.8015 58.4891C50.0946 58.9948 50.2411 59.5827 50.2411 60.2524C50.2411 60.7718 50.0707 61.223 49.7299 61.6057C49.3892 61.9884 48.9122 62.1799 48.2987 62.1799C47.7127 62.1799 47.2662 62.0533 46.9595 61.8005C46.6529 61.5475 46.4995 61.2024 46.4995 60.765C46.4995 60.4779 46.5711 60.2524 46.7142 60.0884C46.8574 59.9243 47.0174 59.7911 47.1947 59.6886C47.3718 59.5861 47.532 59.4972 47.6751 59.422C47.8183 59.3468 47.8898 59.2478 47.8898 59.1247C47.8898 58.742 47.6854 58.4378 47.2765 58.2123C46.8675 57.9868 46.3428 57.874 45.7021 57.874Z" fill="#BCBDBD"/>
<path d="M72.7236 75.712C72.7236 75.8895 72.6963 76.1019 72.6418 76.3476C72.5873 76.594 72.4544 76.8262 72.2431 77.0449C72.0318 77.2636 71.7149 77.4514 71.2924 77.6091C70.8698 77.766 70.2973 77.8444 69.5749 77.8444C68.8525 77.8444 68.2834 77.7589 67.8676 77.5885C67.4519 77.4173 67.1385 77.216 66.9272 76.9831C66.7159 76.7509 66.583 76.5116 66.5285 76.2659C66.474 76.0195 66.4467 75.8214 66.4467 75.6708V61.1751C66.4467 60.9837 66.4195 60.789 66.3649 60.5908C66.3104 60.3925 66.2286 60.2114 66.1196 60.0474C66.0105 59.8834 65.8742 59.7501 65.7107 59.6476C65.5471 59.5451 65.3563 59.4938 65.1382 59.4938C64.7701 59.4938 64.4089 59.5998 64.0545 59.8116C63.7001 60.0235 63.3696 60.2661 63.0629 60.5395C62.7562 60.8129 62.4904 61.0863 62.2655 61.3597C62.0406 61.633 61.8805 61.838 61.785 61.9747V75.712C61.785 75.8895 61.7578 76.1019 61.7032 76.3476C61.6487 76.594 61.5159 76.8262 61.3046 77.0449C61.0933 77.2636 60.7798 77.4514 60.3641 77.6091C59.9483 77.766 59.3793 77.8444 58.6568 77.8444C57.9344 77.8444 57.3653 77.7589 56.9496 77.5885C56.5339 77.4173 56.217 77.216 55.9989 76.9831C55.7808 76.7509 55.6445 76.5116 55.59 76.2659C55.5354 76.0195 55.5082 75.8214 55.5082 75.6708V59.8423C55.5082 59.446 55.4162 59.1008 55.2322 58.807C55.0481 58.513 54.7381 58.3661 54.3019 58.3661C54.0702 58.3661 53.8726 58.4071 53.709 58.4891C53.5454 58.5711 53.3682 58.6873 53.1774 58.8377L52.748 58.3251C53.0615 58.0654 53.4125 57.8091 53.801 57.5562C54.1894 57.3033 54.6085 57.0812 55.0584 56.8899C55.5082 56.6985 55.9921 56.5413 56.51 56.4183C57.028 56.2952 57.5732 56.2337 58.1457 56.2337C59.0317 56.2337 59.72 56.3806 60.2107 56.6746C60.7014 56.9685 61.0626 57.3205 61.2944 57.7305C61.5261 58.1405 61.6658 58.5677 61.7135 59.012C61.7612 59.4562 61.785 59.8287 61.785 60.1294C62.4257 59.4049 63.114 58.7557 63.8501 58.1816C64.15 57.9355 64.4805 57.6963 64.8417 57.464C65.2029 57.2315 65.5744 57.0231 65.956 56.8386C66.3377 56.654 66.7329 56.5071 67.1419 56.3978C67.5508 56.2884 67.9597 56.2337 68.3686 56.2337C69.1592 56.2337 69.8339 56.3772 70.3928 56.6643C70.9516 56.9514 71.4014 57.2965 71.7422 57.6997C72.0829 58.103 72.3316 58.5267 72.4884 58.971C72.6452 59.4152 72.7236 59.8014 72.7236 60.1294C73.3779 59.4049 74.0662 58.7557 74.7886 58.1816C75.0885 57.9355 75.4156 57.6963 75.77 57.464C76.1244 57.2315 76.4958 57.0231 76.8843 56.8386C77.2728 56.654 77.668 56.5071 78.0701 56.3978C78.4723 56.2884 78.8777 56.2337 79.2866 56.2337C80.0772 56.2337 80.752 56.3806 81.3108 56.6746C81.8697 56.9685 82.3195 57.3546 82.6602 57.833C83.001 58.3115 83.2497 58.8513 83.4065 59.4528C83.5632 60.0542 83.6416 60.6557 83.6416 61.2571V73.9489C83.6416 74.0717 83.6485 74.2049 83.6621 74.3483C83.6757 74.4925 83.7098 74.6288 83.7643 74.7588C83.8188 74.8887 83.904 74.9949 84.0199 75.0765C84.1357 75.1581 84.2891 75.1993 84.4799 75.1993C84.7388 75.1993 84.9706 75.1074 85.175 74.9228C85.3795 74.7382 85.5704 74.5503 85.7475 74.3586L86.2382 74.7897C86.0474 75.0765 85.7953 75.3943 85.4817 75.7429C85.1682 76.0916 84.7968 76.4228 84.3675 76.7374C83.9381 77.052 83.4406 77.3151 82.8749 77.5267C82.3093 77.7383 81.672 77.8444 80.9633 77.8444C80.3635 77.8444 79.8421 77.766 79.3991 77.6091C78.9561 77.4514 78.5813 77.2398 78.2746 76.9728C77.9679 76.7065 77.7396 76.3919 77.5896 76.0298C77.4397 75.6677 77.3647 75.2817 77.3647 74.8713V61.1751C77.3647 60.9837 77.3375 60.789 77.283 60.5908C77.2284 60.3925 77.1501 60.2114 77.0479 60.0474C76.9456 59.8834 76.8127 59.7501 76.6492 59.6476C76.4856 59.5451 76.2948 59.4938 76.0767 59.4938C75.7087 59.4938 75.344 59.5998 74.9828 59.8116C74.6216 60.0235 74.2877 60.2661 73.981 60.5395C73.6743 60.8129 73.4119 61.0863 73.1938 61.3597C72.9757 61.633 72.819 61.838 72.7236 61.9747V75.712Z" fill="#BCBDBD"/>
<path d="M98.4751 66.8956C98.4751 66.554 98.366 66.2941 98.1479 66.1166C97.9299 65.9391 97.6509 65.8496 97.3096 65.8496C96.8331 65.8496 96.3795 65.9589 95.9504 66.1776C95.5206 66.3964 95.1429 66.7181 94.8157 67.142C94.4886 67.5652 94.2294 68.0882 94.0382 68.7102C93.8477 69.3323 93.7521 70.0534 93.7521 70.8735C93.7521 71.6659 93.8106 72.3221 93.926 72.8419C94.0421 73.3609 94.1986 73.7746 94.3961 74.082C94.5937 74.3895 94.822 74.605 95.0812 74.7279C95.3404 74.8507 95.613 74.9125 95.8991 74.9125C96.2539 74.9125 96.5873 74.8206 96.901 74.6359C97.2147 74.4513 97.4873 74.2152 97.7189 73.9283C97.9504 73.6414 98.1345 73.3197 98.2704 72.9647C98.4071 72.6089 98.4751 72.2539 98.4751 71.8981V66.8956ZM95.2243 57.915C94.7612 57.915 94.3313 57.9697 93.9362 58.079C93.5411 58.1884 93.2003 58.3251 92.9141 58.4891C92.6278 58.6531 92.4029 58.8343 92.2393 59.0325C92.0757 59.2307 91.994 59.4186 91.994 59.5963C91.994 59.8014 92.0996 59.9483 92.3109 60.0371C92.5222 60.126 92.7573 60.2285 93.0163 60.3447C93.2756 60.4609 93.5103 60.6249 93.7213 60.8368C93.9331 61.0486 94.0382 61.3733 94.0382 61.8107C94.0382 62.0975 93.9805 62.3606 93.8651 62.5999C93.749 62.8392 93.5925 63.0508 93.3942 63.2354C93.1969 63.42 92.9652 63.5635 92.6994 63.6665C92.4335 63.7687 92.1575 63.8202 91.8713 63.8202C91.108 63.8202 90.4912 63.5603 90.0209 63.0413C89.5507 62.5214 89.3155 61.8312 89.3155 60.97C89.3155 60.1362 89.5336 59.422 89.9698 58.8274C90.406 58.2329 90.9751 57.7442 91.6771 57.3614C92.379 56.9787 93.173 56.6951 94.0587 56.5105C94.9453 56.326 95.8311 56.2337 96.7169 56.2337C97.7805 56.2337 98.7959 56.3499 99.7631 56.5823C100.731 56.8147 101.586 57.1838 102.33 57.6895C103.072 58.1952 103.665 58.8377 104.108 59.6168C104.551 60.396 104.773 61.3391 104.773 62.4461V74.0305C104.773 74.1541 104.779 74.2904 104.793 74.441C104.807 74.5916 104.841 74.7279 104.895 74.8507C104.95 74.9743 105.031 75.0765 105.14 75.1581C105.249 75.2405 105.407 75.2818 105.611 75.2818C105.856 75.2818 106.085 75.189 106.296 75.0044C106.507 74.8206 106.695 74.632 106.858 74.441L107.369 74.8713C107.165 75.1581 106.919 75.4727 106.633 75.8151C106.347 76.1566 105.999 76.4775 105.591 76.7786C105.181 77.079 104.704 77.3317 104.159 77.537C103.614 77.7422 102.994 77.8444 102.299 77.8444C101.44 77.8444 100.677 77.5885 100.009 77.0758C99.3411 76.5631 98.9049 75.7738 98.7003 74.7072C98.2641 75.2952 97.8105 75.7873 97.3404 76.1835C96.8702 76.5797 96.3898 76.9015 95.8991 77.1471C95.4084 77.3936 94.9145 77.5711 94.4167 77.6804C93.9196 77.7898 93.4187 77.8444 92.9141 77.8444C92.2598 77.8444 91.626 77.7422 91.0125 77.537C90.3992 77.3317 89.8506 77.0076 89.3667 76.5631C88.8828 76.1186 88.4943 75.5417 88.2013 74.8309C87.9082 74.1201 87.7617 73.2516 87.7617 72.2262C87.7617 70.9829 88.0071 69.9646 88.4978 69.1714C88.9885 68.379 89.6325 67.7126 90.4299 67.1721C91.2272 66.6325 92.1337 66.1713 93.1491 65.7886C94.1646 65.4058 95.2037 65.0025 96.2673 64.5785C97.0575 64.264 97.6335 63.7964 97.9946 63.1744C98.3558 62.5523 98.5367 61.9132 98.5367 61.2571C98.5367 60.2456 98.2404 59.4357 97.647 58.8274C97.0543 58.2191 96.2468 57.915 95.2243 57.915Z" fill="#BCBDBD"/>
<path d="M116.705 61.8107C117.182 61.1683 117.693 60.5156 118.238 59.8526C118.784 59.1897 119.37 58.5917 119.996 58.0585C120.624 57.5255 121.305 57.088 122.041 56.7463C122.777 56.4046 123.582 56.2337 124.454 56.2337C125.231 56.2337 125.878 56.3875 126.396 56.6951C126.914 57.0026 127.333 57.3716 127.653 57.8022C127.974 58.2329 128.199 58.6805 128.328 59.1452C128.458 59.61 128.523 60.0064 128.523 60.3344C128.523 60.9359 128.444 61.5612 128.287 62.2108C128.131 62.8598 127.865 63.5024 127.49 64.138C127.115 64.7735 126.614 65.3884 125.987 65.9835C125.36 66.5778 124.569 67.1214 123.616 67.6135C124.896 70.3331 126.144 72.6739 127.357 74.6359C128.57 76.5972 129.739 78.2098 130.863 79.4745C131.988 80.7392 133.069 81.6718 134.104 82.2733C135.14 82.8747 136.128 83.1758 137.068 83.1758C137.233 83.1758 137.396 83.1552 137.559 83.114C137.724 83.0728 137.873 83.0253 138.01 82.9706C138.159 82.9159 138.316 82.8478 138.48 82.7654L138.868 83.4833C138.5 83.6877 138.125 83.8827 137.743 84.0673C137.362 84.2519 136.925 84.4128 136.435 84.5491C135.944 84.6862 135.379 84.7955 134.738 84.8772C134.097 84.9596 133.334 85 132.448 85C131.644 85 130.85 84.9049 130.066 84.7131C129.282 84.5222 128.495 84.1798 127.705 83.6877C126.914 83.1956 126.113 82.5395 125.303 81.7194C124.491 80.8992 123.66 79.8604 122.808 78.6028C121.956 77.346 121.081 75.8491 120.181 74.1129C119.281 72.3767 118.347 70.3474 117.379 68.0232C118.688 67.0525 119.718 66.1539 120.467 65.3274C121.217 64.5001 121.782 63.7521 122.164 63.0817C122.546 62.4121 122.784 61.8175 122.879 61.2981C122.975 60.7787 123.023 60.3344 123.023 59.9654C123.023 59.9107 123.016 59.8184 123.002 59.6886C122.989 59.5587 122.944 59.4323 122.87 59.3093C122.795 59.1862 122.685 59.0769 122.542 58.9812C122.399 58.8856 122.198 58.8377 121.939 58.8377C121.435 58.8377 120.923 59.053 120.406 59.4835C119.887 59.9141 119.394 60.4472 118.923 61.0829C118.453 61.7185 118.027 62.4018 117.646 63.1332C117.264 63.8646 116.95 64.531 116.705 65.1325V75.712C116.705 75.8895 116.675 76.1019 116.613 76.3476C116.551 76.594 116.408 76.8262 116.183 77.0449C115.959 77.2636 115.631 77.4514 115.202 77.6091C114.773 77.766 114.196 77.8444 113.474 77.8444C112.752 77.8444 112.186 77.7589 111.777 77.5885C111.368 77.4173 111.065 77.2161 110.867 76.9831C110.67 76.7509 110.547 76.5116 110.499 76.2659C110.452 76.0195 110.428 75.8214 110.428 75.6708V49.2215C110.428 48.8251 110.336 48.48 110.152 48.1861C109.968 47.8922 109.658 47.7453 109.221 47.7453C108.99 47.7453 108.789 47.7828 108.619 47.858C108.448 47.9332 108.268 48.046 108.076 48.1963L107.668 47.7042C107.982 47.4445 108.329 47.1883 108.71 46.9354C109.092 46.6825 109.511 46.4603 109.968 46.269C110.425 46.0776 110.912 45.9205 111.43 45.7974C111.948 45.6744 112.493 45.6129 113.066 45.6129C113.952 45.6129 114.64 45.7325 115.13 45.9717C115.621 46.2109 115.982 46.5048 116.214 46.8534C116.446 47.2019 116.585 47.571 116.633 47.9606C116.681 48.3501 116.705 48.6953 116.705 48.996V61.8107Z" fill="#BCBDBD"/>
<path d="M131.561 67.0184C131.561 65.2275 131.82 63.6593 132.337 62.313C132.856 60.9666 133.547 59.8423 134.413 58.9402C135.278 58.0381 136.283 57.3614 137.428 56.9104C138.573 56.4593 139.773 56.2337 141.027 56.2337C142.281 56.2337 143.481 56.4422 144.625 56.8591C145.77 57.276 146.776 57.915 147.642 58.7762C148.507 59.6373 149.198 60.7275 149.717 62.0465C150.234 63.3653 150.493 64.9272 150.493 66.7315C150.493 68.5224 150.234 70.108 149.717 71.4884C149.198 72.8688 148.507 74.0305 147.642 74.9743C146.776 75.9173 145.77 76.6312 144.625 77.1162C143.481 77.602 142.281 77.8444 141.027 77.8444C139.773 77.8444 138.573 77.6154 137.428 77.1574C136.283 76.6994 135.278 76.0195 134.413 75.1177C133.547 74.2152 132.856 73.0875 132.337 71.7341C131.82 70.3814 131.561 68.8093 131.561 67.0184ZM144.135 66.8132C144.135 65.7204 144.097 64.6641 144.023 63.6459C143.948 62.6276 143.801 61.7219 143.582 60.9291C143.364 60.1362 143.051 59.504 142.642 59.0325C142.234 58.5609 141.695 58.3251 141.027 58.3251C140.359 58.3251 139.82 58.5745 139.412 59.0734C139.003 59.5724 138.69 60.2285 138.472 61.0418C138.253 61.8552 138.11 62.7813 138.042 63.8202C137.974 64.8591 137.94 65.9249 137.94 67.0184C137.94 68.1119 137.974 69.1817 138.042 70.2277C138.11 71.2729 138.253 72.2056 138.472 73.0265C138.69 73.8459 139.003 74.506 139.412 75.0044C139.82 75.5036 140.359 75.7532 141.027 75.7532C141.695 75.7532 142.234 75.4933 142.642 74.9743C143.051 74.4545 143.364 73.7714 143.582 72.9235C143.801 72.0764 143.948 71.1192 144.023 70.0534C144.097 68.9868 144.135 67.9067 144.135 66.8132ZM137.817 53.5888L143.379 48.1963C143.61 47.9913 143.855 47.8239 144.114 47.694C144.373 47.5641 144.633 47.4992 144.891 47.4992C145.137 47.4992 145.368 47.5573 145.586 47.6735C145.804 47.7897 145.995 47.9434 146.159 48.1348C146.323 48.3262 146.452 48.5415 146.547 48.7807C146.643 49.0199 146.69 49.2625 146.69 49.5085C146.69 49.8639 146.571 50.1749 146.332 50.4415C146.094 50.708 145.812 50.9164 145.484 51.0668L138.226 54.1629L137.817 53.5888Z" fill="#BCBDBD"/>
<path d="M179.477 62.733C179.477 61.8312 179.415 61.0863 179.293 60.4985C179.17 59.9107 179.037 59.422 178.894 59.0325C178.751 58.6429 178.618 58.3217 178.495 58.0688C178.373 57.816 178.311 57.5801 178.311 57.3614C178.311 57.1564 178.393 56.9855 178.557 56.8488C178.721 56.7121 178.914 56.596 179.139 56.5003C179.365 56.4046 179.596 56.3363 179.835 56.2952C180.073 56.2543 180.268 56.2337 180.417 56.2337C180.812 56.2337 181.099 56.2884 181.276 56.3978C181.453 56.5071 181.596 56.719 181.705 57.0334C181.828 57.4298 181.914 57.9527 181.961 58.6019C182.009 59.2512 182.032 59.9449 182.032 60.683C182.032 61.7355 181.971 62.8907 181.848 64.1483C181.726 65.4058 181.532 66.6697 181.266 67.9416C181 69.2126 180.66 70.4424 180.243 71.6319C179.828 72.8213 179.327 73.8768 178.741 74.8C178.155 75.7223 177.48 76.4609 176.717 77.014C175.953 77.5679 175.088 77.8444 174.12 77.8444C173.357 77.8444 172.672 77.6907 172.066 77.3833C171.459 77.0758 170.917 76.655 170.44 76.1225C169.963 75.5892 169.543 74.964 169.182 74.2461C168.821 73.5289 168.504 72.7595 168.232 71.9393C167.918 72.7729 167.557 73.5487 167.148 74.2667C166.739 74.9846 166.286 75.6098 165.788 76.1431C165.291 76.6756 164.742 77.0924 164.142 77.3936C163.543 77.6939 162.895 77.8444 162.2 77.8444C161.341 77.8444 160.582 77.6566 159.92 77.281C159.259 76.9046 158.677 76.3919 158.173 75.7429C157.668 75.0939 157.232 74.3388 156.864 73.4774C156.496 72.6161 156.179 71.7072 155.913 70.7499C155.647 69.7935 155.426 68.8093 155.249 67.7981C155.071 66.7862 154.922 65.8092 154.798 64.8654C154.676 63.9224 154.574 63.0412 154.492 62.2211C154.41 61.4006 154.328 60.6898 154.247 60.0884C154.151 59.5416 154.011 59.1179 153.827 58.8172C153.643 58.5165 153.333 58.3661 152.897 58.3661C152.666 58.3661 152.468 58.4071 152.305 58.4891C152.141 58.5711 151.963 58.6873 151.773 58.8377L151.344 58.3251C151.657 58.0654 152.008 57.8091 152.396 57.5562C152.785 57.3033 153.204 57.0812 153.653 56.8899C154.104 56.6985 154.587 56.5413 155.105 56.4183C155.623 56.2952 156.169 56.2337 156.741 56.2337C157.559 56.2337 158.22 56.3738 158.724 56.654C159.228 56.9342 159.627 57.2828 159.92 57.6997C160.214 58.1167 160.421 58.5643 160.544 59.0427C160.666 59.5212 160.755 59.9517 160.809 60.3344C161.055 62.3986 161.297 64.2164 161.536 65.7886C161.774 67.3607 162.029 68.6761 162.302 69.7356C162.575 70.7951 162.872 71.5946 163.192 72.1343C163.512 72.6739 163.89 72.9441 164.327 72.9441C164.613 72.9441 164.892 72.8213 165.165 72.5748C165.438 72.3292 165.697 71.9869 165.942 71.5503C166.187 71.1128 166.419 70.5827 166.637 69.9607C166.855 69.3386 167.046 68.6524 167.209 67.9004C167.073 67.1484 166.957 66.4035 166.861 65.665C166.767 64.9272 166.681 64.2196 166.606 63.5436C166.531 62.8669 166.459 62.2346 166.391 61.6467C166.323 61.0589 166.248 60.5395 166.167 60.0884C165.962 58.8035 166.082 57.8398 166.525 57.1974C166.967 56.555 167.857 56.2337 169.192 56.2337C169.779 56.2337 170.273 56.285 170.675 56.3875C171.077 56.49 171.411 56.6814 171.677 56.9616C171.942 57.2418 172.157 57.6246 172.321 58.1098C172.484 58.5951 172.614 59.2135 172.71 59.9654C172.968 62.0157 173.22 63.8471 173.466 65.4605C173.711 67.0731 173.97 68.4337 174.243 69.5407C174.515 70.6477 174.812 71.4916 175.132 72.0725C175.452 72.6541 175.831 72.9441 176.267 72.9441C176.73 72.9441 177.16 72.6573 177.555 72.0828C177.95 71.509 178.291 70.7499 178.578 69.8069C178.864 68.864 179.085 67.7775 179.242 66.5469C179.399 65.3171 179.477 64.0452 179.477 62.733Z" fill="#BCBDBD"/>
</svg>
