<svg width="227" height="96" viewBox="0 0 227 96" fill="none" xmlns="http://www.w3.org/2000/svg">
<path d="M187.999 40.5386C187.999 47.942 181.896 53.9457 174.37 53.9457H151.831V49.489H169.466C174.483 49.489 178.564 45.4742 178.564 40.5386C178.564 35.6031 174.483 31.5883 169.466 31.5883H158.608C153.928 31.5883 150.146 35.3452 150.146 39.9125V68.863H140.674V39.9125C140.674 32.8406 146.515 27.0947 153.703 27.0947H174.333C181.859 27.0947 187.999 33.1353 187.999 40.5386Z" fill="#BCBDBD"/>
<path d="M86.3996 49.489V60.2441C86.3996 64.9955 82.4683 68.863 77.6384 68.863H60.266C48.547 68.863 39.0371 59.5075 39.0371 47.9788C39.0371 36.4502 48.547 27.0947 60.266 27.0947H80.9332V31.5515H65.2081C55.9977 31.5515 48.547 38.918 48.547 47.942C48.547 57.0028 56.0352 64.3325 65.2081 64.3325H72.7337C75.055 64.3325 76.9645 62.4541 76.9645 60.1704V53.8721H64.6465V49.4153H86.3996V49.489Z" fill="#BCBDBD"/>
<path d="M135.829 27.1316V31.5883H111.905C107.225 31.5883 103.443 35.3452 103.443 39.9125V68.8629H93.9707V39.9125C93.9707 32.8406 99.8115 27.0947 107 27.0947H135.829V27.1316Z" fill="#BCBDBD"/>
<path d="M128.265 49.5258H105.127V53.9826H128.265V49.5258Z" fill="#BCBDBD"/>
</svg>
