<svg width="227" height="96" viewBox="0 0 227 96" fill="none" xmlns="http://www.w3.org/2000/svg">
<path d="M105.553 48.3708C105.553 61.6703 94.7518 72.4512 81.4275 72.4512C68.1032 72.4512 57.3023 61.6703 57.3023 48.3708C57.3023 35.0713 68.1032 24.2905 81.4275 24.2905V18C64.6227 18 51 31.5973 51 48.3708C51 65.1443 64.6227 78.7417 81.4275 78.7417C98.2323 78.7417 111.855 65.1443 111.855 48.3708H105.553Z" fill="#BCBDBD"/>
<path d="M98.1375 48.3708C98.1375 57.5818 90.656 65.0494 81.4278 65.0494C72.1993 65.0498 64.7177 57.5822 64.7181 48.3708C64.7177 39.1594 72.1993 31.6918 81.4278 31.6922V28.3982C70.3764 28.3978 61.4176 37.34 61.418 48.3708C61.4176 59.4016 70.3764 68.3438 81.4278 68.3434C92.4789 68.3434 101.438 59.4013 101.438 48.3708H98.1375Z" fill="#BCBDBD"/>
<path d="M94.315 48.4465C94.315 55.5929 88.5111 61.386 81.3514 61.386C74.1916 61.386 68.3877 55.5929 68.3877 48.4465C68.3877 41.3001 74.1916 35.5069 81.3514 35.5069V34.2485C73.4952 34.2485 67.127 40.605 67.127 48.4465C67.127 56.288 73.4952 62.6444 81.3514 62.6444C89.2075 62.6444 95.5758 56.288 95.5758 48.4465H94.315Z" fill="#BCBDBD"/>
<path d="M90.8535 38.1188V25.7151H94.7259V27.4449C95.3337 26.2765 96.8193 25.3777 98.6206 25.3777C99.9485 25.3777 101.097 25.8269 102.02 26.7035C102.943 27.5801 103.416 28.8607 103.416 30.5013V38.1188H99.4309V31.5571C99.4309 29.9391 98.598 28.9955 97.2471 28.9955C95.8064 28.9955 94.8157 30.0517 94.8157 31.6697V38.1188H90.8535Z" fill="#BCBDBD"/>
<path d="M109.878 38.1188H105.894V25.7151H109.878V38.1188ZM105.578 22.3217C105.578 21.041 106.591 20.0745 107.874 20.0745C109.158 20.0745 110.148 21.041 110.148 22.3217C110.148 23.6475 109.158 24.6137 107.874 24.6137C106.547 24.6137 105.578 23.6475 105.578 22.3217Z" fill="#BCBDBD"/>
<path d="M115.687 30.4786H120.955C120.617 29.2876 119.694 28.5688 118.366 28.5688C116.993 28.5688 116.115 29.198 115.687 30.4786ZM124.602 33.1976H115.732C116.182 34.5008 117.195 35.1526 118.772 35.1526C120.144 35.1526 121.383 34.7704 122.531 34.0064L124.084 36.6806C122.486 37.8268 120.662 38.3883 118.591 38.3883C116.385 38.3883 114.697 37.759 113.503 36.5232C112.31 35.2648 111.725 33.7368 111.725 31.9166C111.725 30.0516 112.332 28.501 113.571 27.2652C114.809 26.0294 116.407 25.4001 118.366 25.4001C120.212 25.4001 121.743 25.9619 122.936 27.063C124.13 28.1644 124.737 29.692 124.737 31.6018C124.737 32.1188 124.692 32.6358 124.602 33.1976Z" fill="#BCBDBD"/>
<path d="M127.911 36.5678C126.696 35.3546 126.088 33.804 126.088 31.8941C126.088 29.9839 126.696 28.4333 127.934 27.2201C129.172 26.0065 130.771 25.3999 132.752 25.3999C135.341 25.3999 137.615 26.6583 138.673 29.0177L135.498 30.6805C134.868 29.6247 133.99 29.0851 132.842 29.0851C132.009 29.0851 131.333 29.3547 130.793 29.8939C130.276 30.4335 130.005 31.1075 130.005 31.8941C130.005 33.5344 131.198 34.748 132.797 34.748C133.945 34.748 135.003 34.1188 135.453 33.1526L138.628 35.0398C137.547 37.1074 135.318 38.388 132.684 38.388C130.726 38.388 129.15 37.7814 127.911 36.5678Z" fill="#BCBDBD"/>
<path d="M148.556 29.8717C147.993 29.3099 147.318 29.0177 146.507 29.0177C145.674 29.0177 144.999 29.3099 144.459 29.8717C143.918 30.4335 143.648 31.1075 143.648 31.8941C143.648 32.7033 143.918 33.3996 144.459 33.9614C145.021 34.5232 145.697 34.8154 146.507 34.8154C147.318 34.8154 147.993 34.5232 148.556 33.9614C149.119 33.3996 149.389 32.7033 149.389 31.8941C149.389 31.1075 149.119 30.4335 148.556 29.8717ZM149.434 25.7147H153.171V38.1184H149.434V37.04C148.421 37.961 147.205 38.4332 145.764 38.4332C143.986 38.4332 142.545 37.8036 141.397 36.5456C140.248 35.2872 139.686 33.7369 139.686 31.8719C139.686 30.0065 140.248 28.4559 141.397 27.2427C142.545 26.0065 144.008 25.3999 145.764 25.3999C147.205 25.3999 148.421 25.8717 149.434 26.8379V25.7147Z" fill="#BCBDBD"/>
<path d="M162.265 24.8607V28.6359L160.667 29.8047V38.1188H156.705V32.6581L155.264 33.7147V29.9391L156.705 28.8833V20.9736H160.667V26.0295L162.265 24.8607Z" fill="#BCBDBD"/>
<path d="M172.171 29.8717C171.608 29.3099 170.933 29.0177 170.123 29.0177C169.289 29.0177 168.614 29.3099 168.074 29.8717C167.533 30.4335 167.263 31.1075 167.263 31.8941C167.263 32.7033 167.533 33.3996 168.074 33.9614C168.637 34.5232 169.312 34.8154 170.123 34.8154C170.933 34.8154 171.608 34.5232 172.171 33.9614C172.734 33.3996 173.004 32.7033 173.004 31.8941C173.004 31.1075 172.734 30.4335 172.171 29.8717ZM173.049 25.7147H176.786V38.1184H173.049V37.04C172.036 37.961 170.82 38.4332 169.38 38.4332C167.601 38.4332 166.16 37.8036 165.012 36.5456C163.864 35.2872 163.301 33.7369 163.301 31.8719C163.301 30.0065 163.864 28.4559 165.012 27.2427C166.16 26.0065 167.623 25.3999 169.38 25.3999C170.82 25.3999 172.036 25.8717 173.049 26.8379V25.7147Z" fill="#BCBDBD"/>
</svg>
