<svg width="227" height="96" viewBox="0 0 227 96" fill="none" xmlns="http://www.w3.org/2000/svg">
<path d="M40 31.799V40.2383H49.4508V63.1558H58.5489V40.2383H67.9565V31.799H40Z" fill="#BCBDBD"/>
<path d="M96.796 45.4347V38.7281C95.4267 34.9524 90.7894 31.799 85.3128 31.799H68.9277V63.1558H78.0258V53.7401H83.767C85.7545 53.7401 87.168 54.673 87.6979 56.2275V63.1558H96.7519V54.0514C96.3983 52.4074 95.1621 50.6755 93.4832 49.2984C95.029 48.2325 96.222 46.8554 96.796 45.4347ZM87.742 44.5906C87.2121 45.4791 86.0199 46.145 84.2529 46.145H78.0258V39.8827H84.2529C86.0199 39.8827 87.2121 40.593 87.742 41.4372V44.5906Z" fill="#BCBDBD"/>
<path d="M115.964 31.799L110.09 41.7928L104.304 31.799H94.5879V33.3092L105.585 51.564V63.1558H114.683V51.564L125.636 33.2648V31.799H115.964Z" fill="#BCBDBD"/>
<path d="M139.24 31.799H126.344V63.1558H139.24C147.41 63.1558 153.55 58.8035 155.625 53.1185V41.8371C153.55 36.1521 147.41 31.799 139.24 31.799ZM146.35 50.7642C145.644 52.4961 143.215 54.7174 139.24 54.7174H135.442V40.2383H139.24C143.215 40.2383 145.644 42.4144 146.35 44.1906V50.7642Z" fill="#BCBDBD"/>
<path d="M187.866 51.1198V40.8599C185.834 35.3523 180.137 31 172.364 31C164.591 31 158.717 35.3523 156.686 40.9043V53.9175C158.541 59.4252 164.547 64 172.541 64C179.776 64 184.868 61.1911 187.568 56.2529L179.285 52.858C178.063 54.4267 176.064 55.872 172.718 55.872C168.61 55.872 166.446 53.6515 165.872 52.1857V51.1198H187.866ZM165.872 42.9917C166.578 41.3929 168.61 39.3054 172.232 39.3054C175.854 39.3054 178.017 41.3929 178.68 42.9917V44.0133H165.872V42.9917Z" fill="#BCBDBD"/>
</svg>
