<svg width="227" height="96" viewBox="0 0 227 96" fill="none" xmlns="http://www.w3.org/2000/svg">
<path d="M59.2226 52.4316L76.4082 46.7321L59.2226 41.0319L62.6572 29.7634L51.3988 33.2006L45.7038 16L40.0088 33.2006L28.7516 29.7634L32.1856 41.0319L15 46.7321L32.1856 52.4322L28.7516 63.7013L40.0083 60.2636L45.7038 77.4636L51.3994 60.263L62.6572 63.7013L59.2226 52.4316ZM41.2848 59.3651L45.7038 48.7377L50.1229 59.3651L45.7038 72.7128L41.2848 59.3651ZM150.454 54.3359C150.454 59.2627 147.468 62.2531 143.079 62.2531C138.623 62.2531 136.017 58.8841 136.017 54.6028C136.017 50.0983 138.89 46.7315 143.324 46.7315C147.936 46.7315 150.454 50.188 150.454 54.3359ZM174.019 58.506C174.933 58.9743 176.336 59.4432 177.785 59.4432C179.344 59.4432 180.169 58.7944 180.169 57.814C180.169 56.8779 179.456 56.3426 177.651 55.6961C175.156 54.827 173.529 53.4436 173.529 51.2586C173.529 48.6939 175.668 46.7315 179.211 46.7315C180.904 46.7315 182.151 47.0886 183.042 47.4899L182.285 50.2329C181.683 49.9428 180.614 49.5193 179.144 49.5193C177.673 49.5193 176.96 50.1886 176.96 50.9691C176.96 51.9268 177.807 52.3508 179.745 53.0871C182.396 54.0674 183.644 55.4503 183.644 57.5688C183.644 60.0898 181.705 62.231 177.584 62.231C175.869 62.231 174.175 61.7842 173.329 61.3159L174.019 58.506ZM197.411 61.5838C196.787 61.895 195.384 62.2304 193.557 62.2304C188.366 62.2304 185.693 58.9953 185.693 54.714C185.693 49.5857 189.346 46.7315 193.891 46.7315C195.651 46.7315 196.988 47.088 197.589 47.3997L196.898 50.0983C196.208 49.8088 195.25 49.5403 194.047 49.5403C191.351 49.5403 189.257 51.1689 189.257 54.5142C189.257 57.5239 191.039 59.4205 194.069 59.4205C195.094 59.4205 196.23 59.1968 196.898 58.9284L197.411 61.5838ZM106.816 47.1771C108.064 46.9768 109.689 46.8644 111.406 46.8644C114.257 46.8644 116.106 47.3781 117.555 48.4703C119.114 49.63 120.095 51.4812 120.095 54.1344C120.095 57.0113 119.047 58.9953 117.599 60.2226C116.018 61.5396 113.611 62.1634 110.671 62.1634C108.91 62.1634 107.662 62.0522 106.816 61.9398V47.1771ZM207.438 62.0068H204.052V55.8516L199.306 46.9773H203.184L204.721 50.5894C205.188 51.6816 205.5 52.4848 205.879 53.4652H205.924C206.257 52.5291 206.614 51.66 207.059 50.5894L208.575 46.9773H212.384L207.438 55.7403V62.0068ZM159.563 62.0068H155.843L152.279 46.9773H155.91L157.046 53.1756C157.38 54.9598 157.692 56.9001 157.937 58.4163H157.981C158.227 56.7888 158.583 54.9825 158.962 53.1314L160.232 46.9773H163.841L165.044 53.3096C165.378 55.0711 165.623 56.6764 165.846 58.3504H165.891C166.113 56.6764 166.448 54.915 166.759 53.1314L167.985 46.9773H171.438L167.561 62.0068H163.885L162.616 55.54C162.326 54.0232 162.081 52.6188 161.903 50.9016H161.858C161.591 52.5961 161.345 54.0232 160.989 55.54L159.563 62.0068ZM102.984 62.0068H99.5764V46.9773H102.984V62.0068ZM96.1247 49.7645H90.3545V53.1983H95.7458V55.9629H90.3545V62.0068H86.9453V46.9773H96.1247V49.7645ZM126.131 62.0068H122.766V46.9773H126.131V53.6224H126.197C126.532 53.0428 126.888 52.5075 127.222 51.9722L130.631 46.9773H134.798L129.829 53.3771L135.064 62.0068H131.099L127.423 55.5178L126.131 57.1005V62.0068ZM47.0837 48.1658L57.6845 52.5091L60.41 61.4526L51.4746 58.7235L47.0837 48.1658ZM33.7232 52.5091L44.3245 48.1653L39.9336 58.7235L30.9982 61.4526L33.7232 52.5091ZM139.603 54.5358C139.603 57.4797 140.985 59.5544 143.257 59.5544C145.552 59.5544 146.867 57.3684 146.867 54.4472C146.867 51.7485 145.574 49.4291 143.235 49.4291C140.94 49.4291 139.603 51.6157 139.603 54.5358ZM110.224 59.4432C110.514 59.5102 110.982 59.5102 111.406 59.5102C114.48 59.5318 116.485 57.8367 116.485 54.2457C116.508 51.1247 114.68 49.4745 111.762 49.4745C111.004 49.4745 110.514 49.5403 110.224 49.6073V59.4432ZM71.6606 46.7321L58.3233 51.1557L47.6556 46.7841L58.326 42.309L71.6606 46.7321ZM33.0816 42.309L43.7526 46.7841L33.0849 51.1557L19.7476 46.7321L33.0816 42.309ZM57.6834 40.9583L47.0832 45.4035L51.4757 34.7401L60.41 32.0126L57.6834 40.9583ZM39.9325 34.7401L44.3245 45.4035L33.7243 40.9583L30.9982 32.0126L39.9325 34.7401ZM50.124 34.0996L45.7038 44.8311L41.2837 34.0996L45.7038 20.7508L50.124 34.0996ZM150.344 35.6125C150.344 38.7728 148.424 40.449 146.083 40.449C143.66 40.449 141.958 38.5686 141.958 35.7902C141.958 32.874 143.769 30.9669 146.219 30.9669C148.724 30.9669 150.344 32.8873 150.344 35.6125ZM172.301 35.6125C172.301 38.7728 170.382 40.449 168.041 40.449C165.618 40.449 163.916 38.5686 163.916 35.7902C163.916 32.874 165.726 30.9669 168.177 30.9669C170.681 30.9669 172.301 32.8873 172.301 35.6125ZM116.474 31.1158V36.5519C116.474 38.6095 117.386 39.4819 118.612 39.4819C119.973 39.4819 120.844 38.5824 120.844 36.5519V31.1158H122.042V36.4711C122.042 39.291 120.558 40.4485 118.571 40.4485C116.692 40.4485 115.276 39.3729 115.276 36.5248V31.1158H116.474ZM131.054 39.999C130.619 40.2176 129.748 40.4358 128.631 40.4358C126.044 40.4358 124.098 38.7999 124.098 35.7896C124.098 32.9149 126.044 30.9669 128.89 30.9669C130.033 30.9669 130.755 31.211 131.067 31.3754L130.782 32.342C130.332 32.1244 129.693 31.9606 128.93 31.9606C126.779 31.9606 125.35 33.3368 125.35 35.7487C125.35 37.9967 126.643 39.441 128.876 39.441C129.597 39.441 130.332 39.291 130.809 39.0596L131.054 39.999ZM188.325 39.999C187.889 40.2176 187.018 40.4358 185.902 40.4358C183.315 40.4358 181.369 38.7999 181.369 35.7896C181.369 32.9149 183.315 30.9669 186.16 30.9669C187.304 30.9669 188.025 31.211 188.338 31.3754L188.053 32.342C187.603 32.1244 186.964 31.9606 186.201 31.9606C184.05 31.9606 182.621 33.3368 182.621 35.7487C182.621 37.9967 183.914 39.441 186.147 39.441C186.868 39.441 187.603 39.291 188.08 39.0596L188.325 39.999ZM174.493 38.8553C175.024 39.183 175.801 39.4543 176.617 39.4543C177.829 39.4543 178.536 38.8143 178.536 37.8877C178.536 37.0291 178.046 36.5392 176.808 36.0625C175.31 35.5306 174.384 34.7544 174.384 33.4602C174.384 32.0287 175.569 30.9669 177.352 30.9669C178.292 30.9669 178.972 31.1845 179.38 31.4153L179.054 32.3835C178.755 32.2202 178.141 31.9473 177.311 31.9473C176.059 31.9473 175.582 32.6968 175.582 33.324C175.582 34.1826 176.141 34.6039 177.406 35.0949C178.959 35.6939 179.748 36.4434 179.748 37.7924C179.748 39.209 178.7 40.4358 176.535 40.4358C175.65 40.4358 174.684 40.1767 174.194 39.8501L174.493 38.8553ZM108.606 40.3001H107.421V31.2393C108.02 31.1164 108.878 31.0483 109.695 31.0483C110.961 31.0483 111.777 31.2797 112.35 31.7973C112.812 32.2058 113.07 32.833 113.07 33.5416C113.07 34.7544 112.308 35.5577 111.342 35.8854V35.9264C112.05 36.171 112.472 36.8248 112.69 37.7786C112.99 39.0596 113.207 39.9453 113.398 40.3001H112.172C112.023 40.0405 111.819 39.25 111.56 38.1063C111.287 36.8392 110.798 36.362 109.723 36.3211H108.606V40.3001ZM134.539 40.2996H133.355V31.1158H134.539V34.9582H138.977V31.1158H140.175V40.2996H138.977V35.9944H134.539V40.2996ZM87.9956 40.2996H86.8795V31.1158H88.1726L91.1122 35.7619C91.7936 36.8386 92.324 37.8063 92.7592 38.7457L92.7869 38.7319C92.6779 37.5057 92.6508 36.3891 92.6508 34.9587V31.1158H93.7669V40.2996H92.569L89.6565 35.6396C89.0161 34.6177 88.4038 33.5681 87.9409 32.5745L87.9 32.5872C87.968 33.7453 87.9956 34.8491 87.9956 36.3748V40.2996ZM153.585 40.2996H152.455L153.094 31.1158H154.605L156.171 35.5577C156.551 36.6886 156.865 37.6972 157.096 38.651H157.137C157.368 37.7244 157.695 36.7158 158.103 35.5577L159.736 31.1158H161.248L161.82 40.2996H160.662L160.431 36.2668C160.363 34.9858 160.281 33.4458 160.295 32.3021H160.254C159.941 33.3777 159.56 34.5231 159.097 35.7902L157.477 40.2448H156.578L155.096 35.871C154.66 34.5768 154.292 33.3921 154.034 32.3021H154.007C153.979 33.4458 153.911 34.9858 153.829 36.362L153.585 40.2996ZM97.5649 40.2996H96.3808V31.1158H97.5649V40.2996ZM191.81 40.2996H190.625V31.1158H191.81V40.2996ZM105.134 32.1106H101.363V35.013H104.93V35.9944H101.363V39.3048H105.338V40.2996H100.179V31.1158H105.134V32.1106ZM143.224 35.7619C143.224 37.7244 144.286 39.4825 146.151 39.4825C148.029 39.4825 149.091 37.7515 149.091 35.6667C149.091 33.8405 148.139 31.9334 146.164 31.9334C144.204 31.9334 143.224 33.7453 143.224 35.7619ZM165.182 35.7619C165.182 37.7244 166.244 39.4825 168.109 39.4825C169.987 39.4825 171.049 37.7515 171.049 35.6667C171.049 33.8405 170.096 31.9334 168.122 31.9334C166.162 31.9334 165.182 33.7453 165.182 35.7619ZM108.606 35.4215H109.817C111.083 35.4215 111.887 34.7273 111.887 33.6778C111.887 32.4926 111.029 31.9744 109.776 31.9606C109.205 31.9606 108.796 32.0159 108.606 32.0696V35.4215ZM177.393 30.5849H176.427L177.679 29.0045H179.135L177.393 30.5849Z" fill="#BCBDBD"/>
</svg>
