<svg width="227" height="96" viewBox="0 0 227 96" fill="none" xmlns="http://www.w3.org/2000/svg">
<path d="M69.6805 45.284C69.4555 44.838 68.2765 43.273 68.0205 43.05C67.8585 42.909 67.4315 42.704 67.0965 42.532C67.2405 42.545 67.4145 42.557 67.6375 42.572C68.1475 42.604 68.2445 42.411 68.5625 42.028C68.8835 41.646 68.0845 41.295 67.8925 41.326C67.7005 41.359 66.6485 41.838 66.2645 42.092C65.8825 42.349 65.2745 42.092 64.7005 42.06C64.1265 42.029 63.6795 41.678 63.1055 41.327C63.1055 41.327 62.9455 41.807 63.1055 42.157C63.1935 42.351 63.2725 42.456 63.3845 42.524C62.8275 42.605 62.3665 43.018 62.3375 43.435C62.3065 43.912 62.4995 44.806 62.5625 45.252C62.6275 45.7 62.2435 47.009 62.1805 47.615C62.1155 48.22 62.6275 49.178 62.7865 49.817C62.9455 50.456 63.4275 50.642 62.9775 51.091C62.3065 51.763 60.8385 51.763 61.5415 52.337C62.2435 52.912 63.5855 53.294 63.8075 53.232C64.0305 53.168 65.1475 52.945 65.3715 52.689C65.5935 52.433 65.9455 52.113 65.9455 51.571C65.9455 51.028 64.5095 49.593 64.3505 49.05C64.1895 48.507 65.0845 47.995 65.1165 47.614C65.1475 47.23 64.8285 46.974 64.5095 46.466C64.2605 46.068 64.1675 45.114 64.1525 44.559C64.6045 44.268 65.7085 43.766 65.8975 43.728C66.1365 43.679 66.6885 43.44 67.2375 43.464C67.7885 43.487 68.8895 44.493 68.8435 44.349C68.7935 44.206 67.8145 43.464 67.6925 43.297C67.5735 43.129 67.4055 43.2 66.6635 43.273C65.9205 43.344 65.0605 43.824 64.8695 43.943C64.7175 44.038 64.3725 44.281 64.1515 44.414C64.1515 44.321 64.1535 44.248 64.1585 44.199C64.1895 43.88 64.6695 43.338 65.0515 43.114C65.4345 42.89 66.2325 42.922 67.0635 43.018C67.8925 43.114 68.0845 43.529 68.5945 44.008C69.1055 44.485 69.8725 45.859 69.8725 45.859C69.8725 45.859 69.9045 45.731 69.6805 45.284Z" fill="#BCBDBD"/>
<path d="M52.543 44.999L53.691 45.221C53.691 45.221 54.393 44.806 54.265 44.041C54.265 44.041 53.978 45.094 53.501 45.094C53.021 45.094 52.543 44.999 52.543 44.999Z" fill="#BCBDBD"/>
<path d="M58.0947 43.561C57.6157 43.561 57.0737 43.337 56.5617 43.403C56.0527 43.466 54.9977 43.913 54.8397 44.071C54.6787 44.232 54.3917 44.358 54.4567 44.487C54.5207 44.615 54.9037 45.126 55.4137 45.383C55.1277 44.869 55.1277 44.966 55.0317 44.582C55.0317 44.582 55.3627 44.216 55.8517 43.989C55.7717 44.116 55.7247 44.263 55.7247 44.425C55.7247 44.871 56.0887 45.238 56.5397 45.238C56.9897 45.238 57.3527 44.872 57.3527 44.425C57.3527 44.211 57.2707 44.021 57.1357 43.874C57.6607 43.978 57.9237 44.2 58.2227 44.425C58.6047 44.711 59.4657 44.488 59.4657 44.488C59.4657 44.488 58.5727 43.561 58.0947 43.561Z" fill="#BCBDBD"/>
<path d="M58.2221 45.156C58.2221 45.156 58.3491 45.667 57.7751 45.827C57.1991 45.986 55.8281 45.795 55.8281 45.795C56.6261 46.305 56.9771 46.113 57.2321 46.146C57.4881 46.179 58.2861 45.859 58.7641 45.508C59.2431 45.156 58.2221 45.156 58.2221 45.156Z" fill="#BCBDBD"/>
<path d="M57.7113 52.338C57.8393 51.923 58.1573 50.39 58.5413 50.007C58.9233 49.625 58.9873 49.178 58.9873 49.178C58.8263 49.148 58.6043 49.276 58.4133 49.498C58.2223 49.722 57.1993 51.158 56.9453 51.348C56.6893 51.541 56.2413 51.954 55.8913 51.954C55.5403 51.954 55.2223 52.466 55.0303 52.69C54.8393 52.913 54.7103 54.03 54.3273 54.475C53.9453 54.922 53.7853 56.039 53.7213 56.134C53.6563 56.231 54.8393 55.113 55.2523 54.699C55.6663 54.284 55.8913 53.932 56.3383 53.614C56.7863 53.295 57.5833 52.754 57.7113 52.338Z" fill="#BCBDBD"/>
<path d="M47.7204 48.349C47.6584 48.893 48.2954 49.722 48.5174 49.945C48.7434 50.169 49.3184 50.135 49.2194 49.626C49.1254 49.115 49.3494 48.031 49.5084 47.774C49.6684 47.52 49.5394 46.88 49.4134 46.72C49.4134 46.72 49.7634 45.923 49.2194 45.667C48.6794 45.412 48.5814 44.614 48.5814 44.614C47.9114 44.582 47.2424 44.008 46.7624 43.879C46.2844 43.753 46.5714 44.646 46.6674 45.156C46.7624 45.667 46.2524 46.561 46.5404 47.009C46.8284 47.454 47.1484 49.531 47.4024 50.135C47.6584 50.742 47.8804 51.478 48.1364 51.284C48.3924 51.092 47.6584 49.785 47.4024 49.147C47.1484 48.506 47.1784 47.486 47.0514 47.134C46.9244 46.783 47.0834 46.113 47.2094 46.146C47.3394 46.178 47.4964 45.54 47.4334 45.316C47.3714 45.092 47.3714 44.742 47.4674 44.71C47.5614 44.68 47.7854 44.774 48.1044 45.06C48.4234 45.348 48.1674 45.828 48.1364 46.147C48.1044 46.466 47.7854 47.805 47.7204 48.349Z" fill="#BCBDBD"/>
<path d="M64.6041 56.136C64.0301 55.753 64.1581 55.657 63.7761 55.627C63.3921 55.594 62.9461 55.274 62.7221 55.114C62.4991 54.955 62.4661 54.827 62.1791 54.892C61.8921 54.955 61.8601 54.892 61.6061 54.986C61.3481 55.084 60.3271 55.081 60.1361 55.211C59.9451 55.339 59.4971 55.816 59.3691 55.977C59.2431 56.136 59.2091 56.201 58.8261 56.488C58.4441 56.774 58.2521 56.87 58.0611 57.094C57.8701 57.318 57.6461 57.893 57.6461 58.02C57.6461 58.148 57.4551 58.594 57.4551 58.594C57.4551 58.594 57.5831 58.467 57.9661 58.085C58.3481 57.699 58.2521 57.604 58.5721 57.317C58.8911 57.029 59.1141 57.156 59.5931 57.029C60.0711 56.902 60.2331 56.806 60.5521 56.52C60.8711 56.23 60.8711 56.135 61.0921 56.135C61.3171 56.135 61.4461 55.976 61.8601 56.167C62.2751 56.358 62.2111 56.263 62.7221 56.55C63.2331 56.837 63.4871 56.966 63.7761 56.966C64.0621 56.966 63.9351 57.892 63.8391 57.955C63.7431 58.018 63.3611 58.177 63.0091 58.146C62.6561 58.113 62.5621 57.922 62.3371 58.176C62.1151 58.433 61.9881 58.751 61.8601 58.911C61.7311 59.07 61.2861 59.199 61.1261 59.294C60.9671 59.39 60.7761 59.645 60.6151 59.71C60.4551 59.773 60.1031 59.901 60.0081 59.964C59.9131 60.027 59.5311 60.221 59.4971 60.315C59.4651 60.412 59.5931 60.827 59.5931 60.827C59.7841 60.667 60.0081 60.06 60.4871 60.094C60.9671 60.126 62.4991 59.806 62.9771 60.061C63.4561 60.316 63.3271 60.539 62.9771 60.667C62.6271 60.795 62.1451 60.604 61.7311 60.73C61.3171 60.859 60.9981 61.21 60.5841 61.339C60.1671 61.465 59.6571 61.401 59.5931 61.785C59.5311 62.168 59.0821 62.168 59.0511 62.646C59.0191 63.125 59.0191 63.38 59.1451 63.763C59.1691 63.83 59.2771 63.889 59.4391 63.939L59.0021 64.193C59.0021 64.193 59.6731 64.72 60.1531 65.008C60.6311 65.294 60.6311 65.197 61.1101 65.58C61.5881 65.965 61.9231 65.916 62.0191 66.395C62.1151 66.874 62.3541 67.209 62.3541 67.352C62.3541 67.496 62.5941 67.784 62.7381 67.735C62.8811 67.687 63.7431 67.784 63.8871 67.496C64.0301 67.21 64.3651 66.729 64.6521 66.347C64.9401 65.965 65.7531 65.342 65.9441 65.198C66.1361 65.054 68.1471 64.433 68.2441 64.289C68.3101 64.19 68.2611 62.696 68.2241 61.782C68.4241 61.375 68.6911 60.815 68.7861 60.603C68.9121 60.315 69.2961 59.964 69.2331 59.805C69.1691 59.645 68.5311 59.358 68.0841 58.943C67.6361 58.529 67.8591 58.784 67.0301 58.05C66.2001 57.316 66.2001 57.282 65.7211 56.901C65.2421 56.52 65.1801 56.521 64.6041 56.136Z" fill="#BCBDBD"/>
<path d="M56.3394 59.87C56.7864 59.487 56.7224 59.265 56.9134 59.04C57.1044 58.816 56.9774 58.625 56.9774 58.625C56.9774 58.625 56.4674 59.201 56.4044 59.359C56.3394 59.52 55.6674 60.028 55.5404 60.413C55.4134 60.797 54.9654 60.828 54.6474 61.02C54.3284 61.209 54.2324 61.593 54.4884 61.945C54.7444 62.298 56.2744 62.775 56.3704 62.775C56.3704 62.775 56.4354 62.423 56.4354 62.105C56.4354 61.784 56.3704 61.849 56.2114 61.593C56.0524 61.339 55.9884 61.051 55.8924 60.73C55.7964 60.413 55.8924 60.252 56.3394 59.87Z" fill="#BCBDBD"/>
<path d="M57.1692 47.328C56.8812 47.328 56.2112 47.2 55.9882 47.2C55.7652 47.2 55.7332 47.647 55.9242 47.804C56.1152 47.966 56.3072 48.123 56.6262 48.123C56.9452 48.123 58.0622 47.166 58.1902 46.848C58.3342 46.492 57.4572 47.328 57.1692 47.328Z" fill="#BCBDBD"/>
<path d="M49.639 51.221C49.67 51.029 49.892 50.774 49.67 50.806C49.446 50.839 49.127 51.092 49.127 51.092C49.32 51.221 49.607 51.413 49.639 51.221Z" fill="#BCBDBD"/>
<path d="M59.4025 51.797C59.5625 51.86 60.0425 51.732 60.0425 51.732L59.8175 51.573C59.5935 51.412 59.3705 51.382 59.1465 51.413C59.1465 51.412 59.2435 51.731 59.4025 51.797Z" fill="#BCBDBD"/>
<path d="M57.513 41.879C57.575 41.88 57.633 41.887 57.68 41.901C57.623 41.888 57.569 41.885 57.513 41.879ZM58.828 40.753C58.445 40.593 57.201 40.465 56.787 40.529C56.371 40.592 56.02 41.039 55.733 41.231C55.447 41.422 55.223 41.582 54.871 41.871C54.521 42.157 54.202 42.22 53.977 42.635C53.753 43.05 53.5 43.53 53.5 43.53C53.5 43.53 54.139 43.019 54.457 42.797C54.776 42.573 55.766 42.126 56.243 42.062C56.283 42.057 56.326 42.05 56.367 42.043C56.015 42.169 55.653 42.333 55.254 42.476C54.361 42.795 53.786 44.233 53.786 44.233C53.786 44.233 54.648 43.561 55.158 43.085C55.605 42.664 57.105 42.094 57.585 42.127C58.063 42.159 59.084 42.669 59.084 42.669C59.084 42.669 58.692 42.284 58.095 42.04C58.543 42.186 59.147 42.383 59.147 42.383L60.072 41.84L59.849 41.457C59.594 41.231 59.21 40.912 58.828 40.753Z" fill="#BCBDBD"/>
<path d="M66.7615 45.931C67.2095 45.931 67.5745 45.567 67.5745 45.117C67.5745 44.928 67.5055 44.752 67.3935 44.611C67.5775 44.669 67.7625 44.723 67.8365 44.734C68.0065 44.757 68.6515 45.382 68.7465 45.476C68.8435 45.574 68.8435 45.715 68.7695 45.907C68.6985 46.098 68.4355 46.243 68.2455 46.386C68.0525 46.53 67.1905 46.578 67.1905 46.578C67.1905 46.578 67.8145 46.674 68.0525 46.674C68.2915 46.674 68.6275 46.435 68.7695 46.314C68.9135 46.194 69.1775 46.027 69.4425 45.885C69.7035 45.739 69.3695 45.477 69.3455 45.308C69.3205 45.142 68.9135 44.687 68.7945 44.711C68.6755 44.734 68.8435 44.928 68.6515 44.928C68.4605 44.928 67.3355 44.112 66.4485 44.209C65.5635 44.303 64.6765 44.997 64.6765 44.997C64.3665 45.142 64.5575 45.333 64.8435 45.308C65.1315 45.286 65.1315 45.07 65.4905 44.783C65.6385 44.665 65.9105 44.592 66.1815 44.547C66.0365 44.693 65.9455 44.897 65.9455 45.118C65.9455 45.566 66.3115 45.931 66.7615 45.931Z" fill="#BCBDBD"/>
<path d="M61.0003 21.602C46.4043 21.602 34.5703 33.434 34.5703 48.03C34.5703 54.718 37.0633 60.822 41.1593 65.477C42.9143 64.537 45.7813 63.049 45.9983 62.709C46.2853 62.263 47.8173 60.604 47.8173 60.604C47.8173 60.604 49.0623 59.103 49.3493 58.401C49.6383 57.699 51.0413 55.592 51.0413 55.592C51.0413 55.592 50.4993 54.38 50.3073 53.136C50.3073 53.136 49.4773 54.508 48.7433 53.932C48.0103 53.358 47.5313 52.88 47.3403 50.806C47.3403 50.806 46.8293 49.88 46.6353 48.731C46.6353 48.731 46.2523 47.486 46.1893 46.943C46.1273 46.402 46.0303 43.817 46.1273 43.655C46.2213 43.497 46.4133 42.922 46.8603 42.89C47.3063 42.858 47.7543 42.921 47.7543 42.921L48.1683 42.155C48.1683 42.155 48.1993 40.336 48.1053 40.176C48.0103 40.016 47.0193 38.804 46.8603 37.463C46.7003 36.122 47.5623 34.144 48.1683 33.442C48.7763 32.739 49.9883 31.463 50.3393 30.379C50.6903 29.293 51.6803 28.272 52.6363 27.761C53.5943 27.251 56.1163 26.676 56.4673 26.549C56.8173 26.422 58.5733 25.78 59.3413 26.102C60.1053 26.422 62.4353 26.58 62.9463 26.453C63.4583 26.324 64.8283 26.197 65.5313 26.485C66.2323 26.772 68.0523 28.017 68.4983 28.017V28.016C68.5713 28.09 68.6453 28.153 68.7233 28.193C68.9133 28.289 69.9203 28.623 70.2553 28.864C70.5893 29.101 71.7873 29.772 71.8343 29.965C71.8463 30.013 71.8823 30.09 71.9303 30.179C71.8763 30.258 71.7983 30.37 71.6273 30.476C71.2133 30.732 70.7013 31.368 70.2553 31.562C69.8083 31.751 69.0103 32.168 68.7543 32.264C68.4983 32.357 67.3833 32.391 67.1583 32.357C66.9373 32.327 66.3623 32.199 66.2013 32.169C66.0423 32.137 65.6923 31.689 65.3083 31.752C64.9243 31.817 64.0633 32.357 63.8713 32.424C63.6803 32.488 63.2343 32.838 63.2343 32.838C63.2343 32.838 64.8283 33.253 65.2433 33.222C65.6593 33.191 67.7653 33.319 68.0213 33.349C68.2773 33.382 68.8513 33.636 69.1703 33.797C69.4893 33.954 69.7133 33.667 70.1253 34.053C70.5423 34.434 70.7013 34.403 70.7343 34.913C70.7653 35.424 70.4783 35.901 70.5103 36.254C70.5423 36.604 70.2233 38.486 70.1913 39.029C70.1593 39.572 70.1593 39.54 70.3183 40.338C70.4783 41.136 70.3833 41.52 70.3183 41.839C70.2553 42.157 69.4253 42.19 69.1703 42.476C68.9133 42.765 69.3303 43.211 69.3303 43.211C69.3933 43.339 69.7443 43.977 69.7763 44.264C69.8083 44.55 69.7763 44.839 69.8403 45.061C69.9043 45.286 70.0943 45.733 69.8723 45.861C69.6493 45.988 68.9473 46.243 68.9473 46.243C68.9473 46.243 68.8513 46.786 69.0103 46.913C69.1703 47.041 69.5853 47.327 69.4253 47.553C69.2653 47.776 69.3613 47.617 68.8823 47.807C68.4023 47.999 67.6703 48.096 67.6703 48.096C67.6703 48.096 67.4153 48.414 67.5743 48.478C67.7333 48.542 68.4983 48.895 68.5953 48.83C68.6913 48.766 68.9133 48.257 69.3613 48.319C69.8083 48.382 69.9043 48.446 70.1253 48.639C70.3513 48.829 71.3083 49.66 71.1173 49.82C70.9263 49.979 69.9993 49.724 69.8083 49.724C69.6163 49.724 69.4243 49.915 69.3933 50.203C69.3613 50.49 69.4253 51.064 69.5533 51.287C69.6813 51.512 69.9043 52.055 69.9993 52.245C70.0963 52.436 70.3183 52.948 70.1593 53.14C69.9993 53.331 69.8723 53.491 69.7133 53.618C69.5533 53.746 69.2343 55.022 69.1383 55.278C69.0423 55.533 68.7233 55.661 68.7233 55.661L68.8823 56.204C68.8823 56.204 69.0733 56.617 69.3613 56.842C69.6493 57.065 70.0633 57.513 70.0633 57.513C70.0633 57.513 70.0763 57.48 70.0983 57.425C70.2073 57.916 70.5273 59.391 70.6853 59.987C70.8763 60.704 71.1173 61.566 71.1173 61.566C71.1173 61.566 74.4193 63.912 74.6583 63.96C74.8213 63.993 78.0693 65.325 80.2013 66.179C84.6773 61.446 87.4283 55.063 87.4283 48.035C87.4293 33.434 75.5953 21.602 61.0003 21.602Z" fill="#BCBDBD"/>
<path d="M62.1646 73.578C62.5486 73.435 63.9846 73.242 64.6066 73.195C65.2276 73.146 66.7146 72.907 67.4306 72.907C68.1496 72.907 68.5806 72.907 69.2026 72.812C69.7196 72.733 70.1356 72.689 70.5376 72.673C74.0056 71.331 77.1216 69.282 79.7026 66.697L78.2996 66.011L76.3836 65.246L74.2766 64.576L72.1716 62.948L69.9216 61.272L69.2486 62.23L68.7706 64.53C68.7706 64.53 67.6216 64.626 67.5276 64.769C67.4306 64.913 66.1376 66.108 65.8986 66.348C65.6596 66.588 65.7556 67.21 65.8506 67.592C65.9466 67.977 66.7626 69.172 66.9536 69.795C67.1446 70.418 67.1916 71.088 66.9056 71.185C66.6186 71.281 63.8886 71.47 63.4096 71.519C62.9696 71.564 62.2476 71.608 61.5026 71.689C61.3846 70.763 61.1306 69.423 60.6326 69.27C60.6326 69.27 61.0386 70.934 61.0736 71.727C60.2946 71.762 59.3536 71.568 59.0046 71.568C58.6216 71.568 58.0956 71.136 57.7606 70.561C57.5076 70.126 56.9786 68.925 56.7376 68.366C57.1966 68.281 57.6636 68.168 57.6636 68.168C57.6636 68.168 54.3136 65.727 53.3086 64.243C53.3086 64.243 55.6066 68.408 55.9426 68.454C56.0756 68.474 56.3816 68.431 56.6986 68.373L58.4246 74.328C58.7226 74.359 59.0256 74.379 59.3286 74.399C59.5056 74.256 59.6726 74.137 59.7706 74.105C60.0576 74.009 61.7826 73.722 62.1646 73.578Z" fill="#BCBDBD"/>
<path d="M64.1437 71.711C64.1437 71.711 64.2867 69.94 64.0477 69.605C63.9877 69.522 63.9847 69.491 64.0147 69.506C64.1007 69.55 64.4787 69.999 64.4787 70.61C64.4787 71.423 65.2927 71.185 66.2517 71.185C67.2077 71.186 64.1437 71.711 64.1437 71.711Z" fill="#BCBDBD"/>
<path d="M56.961 68.935C56.961 68.935 60.169 69.413 60.698 69.413C61.224 69.413 57.824 68.841 57.251 68.313C56.675 67.787 56.293 67.834 56.293 67.834L56.961 68.935Z" fill="#BCBDBD"/>
<path d="M67.2073 68.503C67.5903 68.264 64.7923 69.503 64.0133 69.505C63.2343 69.51 63.8563 68.216 63.8563 67.258C63.8563 66.3 65.0053 66.827 66.8233 66.013C68.6423 65.2 67.2073 68.503 67.2073 68.503Z" fill="#BCBDBD"/>
<path d="M61 18C44.458 18 31 31.458 31 48C31 64.542 44.458 78 61 78C77.542 78 90.999 64.542 90.999 48C90.999 31.458 77.542 18 61 18ZM61 19.623C76.672 19.623 89.376 32.328 89.376 48C89.376 63.671 76.672 76.376 61 76.376C45.328 76.376 32.624 63.671 32.624 48C32.624 32.328 45.328 19.623 61 19.623Z" fill="#BCBDBD"/>
<path d="M186.682 55.955H188.882V48.654C188.882 48.229 188.906 47.904 189.031 47.604C189.431 46.404 190.556 45.404 191.981 45.404C194.056 45.404 194.781 47.054 194.781 49.005V55.955H196.981V48.755C196.981 44.58 194.381 43.58 192.756 43.58C191.931 43.58 191.155 43.83 190.506 44.205C189.83 44.58 189.28 45.13 188.931 45.755H188.881V38.205H186.681V55.955H186.682ZM183.731 53.854C183.106 54.129 182.281 54.455 181.031 54.455C178.632 54.455 176.831 52.729 176.831 49.93C176.831 47.405 178.331 45.355 181.106 45.355C182.306 45.355 183.131 45.63 183.656 45.93L184.156 44.23C183.556 43.93 182.406 43.605 181.106 43.605C177.156 43.605 174.606 46.305 174.606 50.03C174.606 53.73 176.981 56.206 180.631 56.206C182.256 56.206 183.53 55.806 184.106 55.506L183.731 53.854ZM171.831 43.854H169.632V51.279C169.632 51.679 169.557 52.08 169.432 52.404C169.032 53.38 168.007 54.404 166.532 54.404C164.532 54.404 163.832 52.854 163.832 50.554V43.854H161.633V50.929C161.633 55.179 163.907 56.229 165.808 56.229C167.957 56.229 169.233 54.955 169.808 53.979H169.858L169.983 55.955H171.933C171.858 55.005 171.832 53.904 171.832 52.654L171.831 43.854ZM155.808 55.955H158.007V38.205H155.808V55.955ZM150.132 51.88C150.132 52.105 150.083 52.355 150.007 52.58C149.657 53.604 148.657 54.604 147.083 54.604C145.958 54.604 145.008 53.929 145.008 52.504C145.008 50.153 147.733 49.729 150.133 49.778V51.88H150.132ZM152.458 55.955C152.308 55.13 152.257 54.104 152.257 53.055V48.53C152.257 46.105 151.358 43.581 147.657 43.581C146.132 43.581 144.682 44.006 143.682 44.655L144.182 46.105C145.032 45.555 146.207 45.206 147.332 45.206C149.807 45.206 150.082 47.006 150.082 48.006V48.256C145.406 48.231 142.807 49.831 142.807 52.756C142.807 54.506 144.057 56.231 146.507 56.231C148.232 56.231 149.532 55.381 150.208 54.431H150.282L150.458 55.956L152.458 55.955ZM133.357 40.88C133.732 40.779 134.457 40.705 135.407 40.705C137.807 40.705 139.382 41.779 139.382 44.005C139.382 46.33 137.782 47.605 135.157 47.605C134.432 47.605 133.832 47.555 133.357 47.43V40.88ZM131.183 55.955H133.358V49.205C133.858 49.33 134.458 49.354 135.108 49.354C137.233 49.354 139.108 48.729 140.258 47.504C141.108 46.629 141.558 45.429 141.558 43.903C141.558 42.403 141.008 41.178 140.083 40.379C139.083 39.479 137.508 38.979 135.358 38.979C133.608 38.979 132.233 39.129 131.183 39.304V55.955ZM119.808 55.955H121.983V49.505C121.983 49.13 122.033 48.779 122.083 48.48C122.383 46.831 123.483 45.655 125.033 45.655C125.333 45.655 125.558 45.68 125.783 45.73V43.655C125.583 43.605 125.408 43.581 125.158 43.581C123.683 43.581 122.358 44.605 121.808 46.23H121.708L121.633 43.855H119.708C119.783 44.98 119.808 46.206 119.808 47.63V55.955ZM105.407 40.93C105.982 40.805 106.832 40.705 107.957 40.705C112.557 40.705 114.807 43.229 114.782 47.205C114.782 51.755 112.257 54.354 107.607 54.354C106.757 54.354 105.957 54.33 105.407 54.229V40.93ZM103.232 55.904C104.332 56.029 105.632 56.104 107.182 56.104C110.457 56.104 113.057 55.254 114.632 53.679C116.207 52.129 117.057 49.879 117.057 47.129C117.057 44.403 116.182 42.454 114.682 41.079C113.207 39.704 110.982 38.978 107.857 38.978C106.132 38.978 104.557 39.128 103.232 39.329V55.904Z" fill="#BCBDBD"/>
</svg>
