<svg width="227" height="96" viewBox="0 0 227 96" fill="none" xmlns="http://www.w3.org/2000/svg">
<path fill-rule="evenodd" clip-rule="evenodd" d="M35.3503 59.6613C36.7191 68.6777 41.3735 73.0685 48.6623 73.6041L171.993 80.7776C180.918 81.1527 188.741 75.0517 190.316 66.6643L196.482 32.6106C198.279 23.0251 191.793 15.5578 182.058 16.0204L43.5748 22.5592C36.2751 22.9028 31.124 29.1119 32.1242 36.3568L35.3503 59.6613ZM62.2006 50.2086L63.4573 45.9624H63.6127L64.8095 50.14L66.1616 54.5719C66.653 55.9873 67.0194 56.1727 68.1562 56.1727H69.7545C70.7395 56.1727 71.323 55.8975 71.6911 54.5126L75.226 40.3996C75.3145 39.9648 75.162 39.8428 74.7648 39.8428L71.1719 39.8763C70.6789 39.8763 70.5868 39.9055 70.4914 40.3645L69.4798 45.9283L68.7396 50.8215H68.5577L67.4534 46.8568L66.0354 42.1211C65.7329 41.2264 65.5165 40.644 64.4387 40.644H62.8444C61.7066 40.644 61.3398 41.1043 60.9996 42.1211L59.6183 46.9185L58.5418 50.7923H58.3562L57.5263 45.8085L56.4823 40.3353C56.36 39.8428 56.1758 39.8428 55.6844 39.8428H52.2174C51.8142 39.8428 51.631 39.9648 51.7513 40.3996L55.2544 54.5126C55.6238 55.8975 56.1758 56.1727 57.1605 56.1727H58.8516C59.9549 56.1727 60.3253 55.8975 60.815 54.5719L62.2006 50.2086ZM81.0357 46.3339H86.7796C86.7534 44.5215 86.1971 43.1625 84.0167 43.1625C82.3577 43.1625 81.1895 44.4867 81.0357 46.3339ZM91.1136 46.4214C91.1136 48.5468 90.2512 49.1872 88.8073 49.1872H80.9446C81.0357 51.8045 82.5707 52.5719 84.6323 52.5719C85.8303 52.5719 87.1195 52.2343 88.1635 51.8045C88.6549 51.6539 88.7751 51.6831 88.9289 52.0214L89.9159 54.2367C90.067 54.6071 89.9451 54.7892 89.6399 54.9702C88.1324 55.9582 85.8929 56.3538 84.2012 56.3538C78.8539 56.3538 76.3027 53.774 76.3027 48.0205C76.3027 42.6146 79.2833 39.4744 83.9252 39.4744C88.6857 39.4744 91.1136 41.9672 91.1136 46.4214ZM97.5733 49.4993H103.316C103.162 51.3432 101.998 52.6644 100.337 52.6644C98.1558 52.6644 97.6031 51.314 97.5733 49.4993ZM95.5426 46.639C94.1023 46.639 93.2402 47.2866 93.2402 49.4061C93.2402 53.8626 95.6682 56.3538 100.432 56.3538C105.071 56.3538 108.05 53.2235 108.05 47.8046C108.05 42.0568 105.5 39.4744 100.153 39.4744C98.4626 39.4744 96.2228 39.8763 94.717 40.8583C94.4062 41.0436 94.2846 41.226 94.4396 41.5968L95.4223 43.8121C95.5754 44.1487 95.701 44.1779 96.1877 44.023C97.2347 43.5979 98.5239 43.2543 99.7229 43.2543C101.78 43.2543 103.316 44.023 103.41 46.639H95.5426ZM118.225 52.1742C118.716 52.1742 119.886 52.083 120.871 51.7779V43.6563C120.07 43.4069 119.054 43.3193 118.502 43.3193C116.261 43.3485 114.818 44.4867 114.818 47.8411C114.818 50.9777 116.109 52.1742 118.225 52.1742ZM125.353 54.3577C125.353 60.1361 122.281 62.3235 116.78 63.0554C116.32 63.1214 116.202 63.0554 116.139 62.6601L115.738 59.7113C115.676 59.2791 115.799 59.2125 116.139 59.1521C118.441 58.7512 120.838 58.1075 120.838 55.7088V55.526C119.792 55.8325 118.469 55.9874 117.246 55.9874C112.33 55.9874 110.18 52.7599 110.18 47.931C110.18 43.2238 112.637 39.5317 118.259 39.5317C120.44 39.5317 122.866 39.8428 124.742 40.7057C125.261 40.9783 125.353 41.2264 125.353 41.6539V54.3577ZM129.579 56.0195H132.713C133.262 56.0195 133.388 55.9578 133.388 55.4637V43.5976C133.788 43.5322 134.218 43.5007 134.618 43.5007C136.247 43.5322 137.535 44.1487 138.669 45.0103C139.101 45.2866 139.256 45.3774 139.501 44.9811L141.1 42.4269C141.219 42.1788 141.315 41.9669 140.978 41.7189C138.947 40.2116 136.122 39.5317 133.451 39.5317C132.62 39.5317 131.85 39.6004 131.114 39.6909C129.303 39.9645 128.936 40.7671 128.936 42.3655V55.4637C128.936 55.8971 129.117 56.0195 129.579 56.0195ZM146.756 46.3339H152.499C152.468 44.5215 151.918 43.1625 149.736 43.1625C148.074 43.1625 146.912 44.4867 146.756 46.3339ZM156.829 46.4214C156.829 48.5468 155.971 49.1872 154.525 49.1872H146.66C146.756 51.8045 148.293 52.5719 150.352 52.5719C151.547 52.5719 152.838 52.2343 153.88 51.8045C154.373 51.6539 154.494 51.6831 154.653 52.0214L155.634 54.2367C155.789 54.6071 155.662 54.7892 155.357 54.9702C153.851 55.9582 151.609 56.3538 149.92 56.3538C144.574 56.3538 142.027 53.774 142.027 48.0205C142.027 42.6146 145.004 39.4744 149.643 39.4744C154.403 39.4744 156.829 41.9672 156.829 46.4214ZM169.437 46.3339H163.697C163.85 44.4867 165.017 43.1625 166.675 43.1625C168.852 43.1625 169.409 44.5215 169.437 46.3339ZM171.466 49.1872C172.911 49.1872 173.77 48.5468 173.77 46.4214C173.77 41.9672 171.342 39.4744 166.582 39.4744C161.943 39.4744 158.963 42.6146 158.963 48.0205C158.963 53.774 161.514 56.3538 166.859 56.3538C168.549 56.3538 170.792 55.9582 172.296 54.9702C172.606 54.7892 172.723 54.6071 172.571 54.2367L171.59 52.0214C171.436 51.6831 171.31 51.6539 170.822 51.8045C169.777 52.2343 168.487 52.5719 167.289 52.5719C165.227 52.5719 163.697 51.8045 163.601 49.1872H171.466ZM173.316 37.5718H175.86V38.0477H174.862V40.7167H174.311V38.0477H173.316V37.5718ZM177.065 37.5718H176.291V40.7167H176.815V38.2898H176.823L177.695 40.7167H178.148L179.019 38.2898H179.028V40.7167H179.552V37.5718H178.786L177.942 40.0342H177.932L177.065 37.5718Z" fill="#BCBDBD"/>
</svg>
