<svg width="227" height="96" viewBox="0 0 227 96" fill="none" xmlns="http://www.w3.org/2000/svg">
<g clip-path="url(#clip0_2240_5428)">
<path d="M35.3796 50.305C37.6335 47.2005 41.2686 45.1622 45.3715 45.0954C42.9556 46.3867 41.1248 48.2089 39.8817 50.305H35.3796ZM33.0066 57.021C33.105 55.0371 33.6778 53.1044 34.6762 51.386H39.3064C38.4658 53.1505 37.9956 55.0685 37.9245 57.021H33.0066ZM46.1691 50.305H50.3728C49.3165 48.6163 47.8767 47.2005 46.1691 46.1706V50.305ZM40.9231 50.305H45.0847V46.1995C43.3953 47.2244 41.9695 48.6311 40.9231 50.305ZM46.1691 57.021H52.445C52.3615 55.061 51.8623 53.1398 50.9812 51.386H46.1691V57.021ZM38.851 57.021H45.0847V51.386H40.3131C39.4345 53.1415 38.937 55.061 38.851 57.021ZM45.0855 64.8197H40.8347C41.8976 66.5365 43.3548 67.9753 45.0855 69.0184V64.8197ZM50.4613 64.8197H46.1708V69.0448C47.9172 67.9968 49.3884 66.548 50.4613 64.8197ZM46.1691 63.7387H51.0613C51.9218 61.9799 52.3962 60.0587 52.4532 58.1028H46.1683L46.1691 63.7387ZM40.2346 63.7387H45.0847V58.1028H38.8436C38.8989 60.0587 39.3734 61.9808 40.2346 63.7387ZM34.5762 63.7387C33.61 62.0113 33.0694 60.0793 33 58.1028H37.9236C37.9939 60.0323 38.4493 61.9568 39.2882 63.7395L34.5762 63.7387ZM45.3847 70.2066C41.2 70.1423 37.4988 68.0248 35.2556 64.8205H39.8536C41.0983 66.9619 42.9407 68.8428 45.3847 70.2066ZM55.9048 64.8197C53.6848 67.9869 50.0431 70.0936 45.9162 70.2025C48.3578 68.8419 50.2001 66.9578 51.4432 64.8197H55.9048ZM58.1596 58.1028C58.0902 60.0793 57.5496 62.0121 56.5842 63.7395L52.0085 63.7387C52.8392 61.9709 53.3029 60.0538 53.3723 58.1028H58.1596ZM56.485 51.386C57.4843 53.1044 58.0563 55.0371 58.1555 57.021H53.374C53.3029 55.0685 52.8318 53.1505 51.9904 51.386H56.485ZM45.9286 45.0954C49.9753 45.2059 53.5542 47.2384 55.78 50.3033H51.4143C50.172 48.2098 48.3429 46.3891 45.9286 45.0954ZM79.6957 26.7101H85.8674V55.4387H79.6957V26.7101ZM153.845 31.2452V50.3272C153.868 55.7034 161.007 59.0066 164.184 52.6599V55.3917H169.57V31.2452H164.184V49.0187C164.129 52.3804 159.341 52.5981 159.352 49.1539V31.2452H153.845ZM89.3272 31.2419V55.3917H94.8501V37.5985C94.8501 33.9366 100.301 33.8451 100.375 37.5985V55.3917H105.833V37.5985C105.725 34.1312 111.356 33.6497 111.356 37.5985V55.3917H117.133V36.7327C117.155 30.0851 109.762 28.3378 105.346 32.9405C104.141 30.4339 98.5059 28.3494 94.8534 33.2267V31.2419H89.3272ZM148.355 26.8198V31.2452H150.512V35.6838L148.355 35.6302V48.1949C148.355 50.178 148.455 51.3917 150.476 51.1872L150.481 55.442L147.376 55.3966C143.177 55.409 143.015 51.7875 143.031 49.0269V35.6286H140.547V31.2452H143.031V26.8198H148.355ZM179.684 31.2452V35.1231C180.927 32.6074 182.602 31.2312 185.108 31.2452V37.5086C180.246 37.5836 179.889 39.3268 179.901 42.4543V55.39H174.152V31.2452H179.684ZM132.048 43.0826C130.775 44.2931 127.775 46.0205 127.412 46.5013C127.005 47.0356 126.521 47.5922 126.514 48.7457C126.504 50.3231 127.277 51.8741 128.892 51.9928C131.949 51.837 132.048 49.6915 132.048 48.3013V43.0826ZM126.661 38.7397H121.478V37.6216C121.478 32.6157 124.898 30.4355 129.255 30.4355C132.979 30.4347 137.793 32.0335 137.826 37.2282V52.274C137.817 53.6395 138.016 55.0676 138.474 55.3356H132.725C132.488 55.0223 132.406 54.2051 132.375 53.2742C131.976 54.6718 128.773 56.4669 126.073 56.1981C122.157 55.8089 120.595 52.636 120.595 49.2248C120.595 45.9727 122.799 43.2269 126.87 41.5366C128.887 40.7887 132.297 39.3416 132.432 37.2184C132.493 33.5936 126.502 33.6793 126.688 36.9998L126.661 38.7397Z" fill="#BDBFBE"/>
<path d="M34.4595 43.9839H47.679C47.6964 39.5032 48.7998 36.0648 52.7051 36.0269C56.5411 35.9865 58.2999 37.9703 58.3297 41.8845L58.314 58.6965C58.276 66.4185 63.4831 71.5663 71.7558 71.6026C82.8363 71.6545 85.8333 66.9125 85.8168 60.1346V56.7901H79.7211V61.6617C79.7038 66.3229 72.7469 66.1052 72.7155 61.9783L72.7196 46.1055C72.6634 34.8073 62.5177 29.775 53.5887 29.5334C42.9265 29.2432 34.0123 35.2938 34.4595 43.9839ZM193.304 25.9631C192.7 25.3397 191.866 24.9918 190.998 25C190.168 24.9934 189.37 25.3175 188.779 25.8988C188.161 26.5015 187.81 27.3277 187.806 28.1902C187.806 29.0255 188.133 29.8047 188.731 30.4165C189.319 31.0358 190.139 31.3854 190.994 31.3813C191.816 31.3813 192.614 31.0613 193.25 30.4578C193.863 29.8633 194.204 29.0436 194.195 28.1911C194.196 27.3475 193.894 26.5592 193.304 25.9631ZM192.848 30.0447C192.354 30.5287 191.69 30.8008 190.998 30.8008C190.296 30.8008 189.641 30.5122 189.139 30.0034C188.661 29.5211 188.395 28.8688 188.398 28.1911C188.398 27.4885 188.667 26.8313 189.186 26.3135C189.674 25.8279 190.297 25.5813 191.004 25.5813C191.711 25.5747 192.391 25.86 192.881 26.3696C193.367 26.8536 193.622 27.4893 193.622 28.1911C193.623 28.9142 193.351 29.5672 192.848 30.0447Z" fill="#BDBFBE"/>
<path d="M191.836 28.3337C192.306 28.1902 192.577 27.8381 192.577 27.3871C192.577 26.734 192.067 26.3762 191.06 26.3762H189.648V29.8674H190.614V28.4821H190.894L191.548 29.8674H192.609L191.836 28.3337ZM190.958 27.9115L190.615 27.9099V26.9806H190.903C191.368 26.9806 191.59 27.1166 191.59 27.458C191.589 27.768 191.373 27.9115 190.958 27.9115Z" fill="#BDBFBE"/>
</g>
<defs>
<clipPath id="clip0_2240_5428">
<rect width="162" height="47" fill="white" transform="translate(33 25)"/>
</clipPath>
</defs>
</svg>
