<svg width="100%" height="100%" viewBox="0 0 512 512" version="1.1" xmlns="http://www.w3.org/2000/svg" xmlns:xlink="http://www.w3.org/1999/xlink" style="fill-rule:evenodd;clip-rule:evenodd;stroke-linejoin:round;stroke-miterlimit:2;"><style>@media (prefers-color-scheme: dark) {circle {fill: #fff !important;}}</style><circle cx="256" cy="256" r="226.667" style="fill:#ffd401;"/><path d="M265.994,312.533l-40.407,-0l0,-113.048l40.407,0c29.295,0 54.759,22.254 54.759,57.397c0,35.137 -25.464,55.651 -54.759,55.651m0,-159.026l-89.607,0l0,204.986l89.607,-0c58.572,-0 106.013,-40.118 106.013,-101.611c0,-61.498 -47.441,-103.375 -106.013,-103.375" style="fill:#1d1715;fill-rule:nonzero;"/><path d="M413.257,380.618c0,20.149 15.46,34.755 34.655,34.755c19.195,-0 34.755,-14.606 34.755,-34.755c-0,-20.149 -15.56,-34.755 -34.755,-34.755c-19.195,0 -34.655,14.606 -34.655,34.755" style="fill:#ffd400;fill-rule:nonzero;"/></svg>