<?xml version="1.0" encoding="UTF-8" standalone="no"?><!DOCTYPE svg PUBLIC "-//W3C//DTD SVG 1.1//EN" "http://www.w3.org/Graphics/SVG/1.1/DTD/svg11.dtd"><svg width="100%" height="100%" viewBox="0 0 512 512" version="1.1" xmlns="http://www.w3.org/2000/svg" xmlns:xlink="http://www.w3.org/1999/xlink" xml:space="preserve" xmlns:serif="http://www.serif.com/" style="fill-rule:evenodd;clip-rule:evenodd;stroke-linejoin:round;stroke-miterlimit:2;"><path d="M424.975,407.018c-41.519,46.416 -101.86,75.649 -168.975,75.649c-125.101,0 -226.667,-101.566 -226.667,-226.667c0,-125.101 101.566,-226.667 226.667,-226.667c125.101,0 226.667,101.566 226.667,226.667c0,33.14 -7.128,64.629 -19.932,93.015c-4.496,-2.038 -9.521,-3.152 -14.823,-3.152c-19.195,0 -34.655,14.606 -34.655,34.755c0,10.901 4.525,20.179 11.718,26.4Zm-158.981,-253.511l-89.607,0l-0,204.986l89.607,0c58.572,0 106.013,-40.118 106.013,-101.611c0,-61.498 -47.441,-103.375 -106.013,-103.375Zm0,159.026l-40.407,0l0,-113.048l40.407,0c29.295,0 54.759,22.254 54.759,57.397c0,35.137 -25.464,55.651 -54.759,55.651Z" style="fill:#fff;"/></svg>